G04 #@! TF.GenerationSoftware,KiCad,Pcbnew,(5.1.4)-1*
G04 #@! TF.CreationDate,2019-10-25T22:15:33-04:00*
G04 #@! TF.ProjectId,Keyboard - Left,4b657962-6f61-4726-9420-2d204c656674,rev?*
G04 #@! TF.SameCoordinates,Original*
G04 #@! TF.FileFunction,Copper,L1,Top*
G04 #@! TF.FilePolarity,Positive*
%FSLAX46Y46*%
G04 Gerber Fmt 4.6, Leading zero omitted, Abs format (unit mm)*
G04 Created by KiCad (PCBNEW (5.1.4)-1) date 2019-10-25 22:15:33*
%MOMM*%
%LPD*%
G04 APERTURE LIST*
%ADD10O,1.600000X2.000000*%
%ADD11C,2.200000*%
%ADD12C,2.100000*%
%ADD13C,1.750000*%
%ADD14C,1.524000*%
%ADD15R,1.524000X1.524000*%
%ADD16R,1.752600X1.752600*%
%ADD17C,1.752600*%
%ADD18C,0.800000*%
%ADD19C,0.250000*%
G04 APERTURE END LIST*
D10*
X138670000Y-38966000D03*
X138670000Y-35966000D03*
X138670000Y-42966000D03*
X143270000Y-44066000D03*
D11*
X40481250Y-35718750D03*
X34131250Y-38258750D03*
X59531250Y-35718750D03*
X53181250Y-38258750D03*
X72231250Y-38258750D03*
X78581250Y-35718750D03*
X97631250Y-35718750D03*
X91281250Y-38258750D03*
X119856250Y-38258750D03*
X126206250Y-35718750D03*
X164306250Y-35718750D03*
X157956250Y-38258750D03*
X183356250Y-35718750D03*
X177006250Y-38258750D03*
X196056250Y-38258750D03*
X202406250Y-35718750D03*
X215106250Y-38258750D03*
X221456250Y-35718750D03*
X243681250Y-38258750D03*
X250031250Y-35718750D03*
X269081250Y-35718750D03*
X262731250Y-38258750D03*
X34131250Y-66833750D03*
X40481250Y-64293750D03*
X59531250Y-64293750D03*
X53181250Y-66833750D03*
X72231250Y-66833750D03*
X78581250Y-64293750D03*
X91281250Y-66833750D03*
X97631250Y-64293750D03*
X126206250Y-64293750D03*
X119856250Y-66833750D03*
X145256250Y-64293750D03*
X138906250Y-66833750D03*
X157956250Y-66833750D03*
X164306250Y-64293750D03*
X177006250Y-66833750D03*
X183356250Y-64293750D03*
X202406250Y-64293750D03*
X196056250Y-66833750D03*
X221456250Y-64293750D03*
X215106250Y-66833750D03*
X240506250Y-64293750D03*
X234156250Y-66833750D03*
X253206250Y-66833750D03*
X259556250Y-64293750D03*
X40481250Y-83343750D03*
X34131250Y-85883750D03*
X59531250Y-83343750D03*
X53181250Y-85883750D03*
X72231250Y-85883750D03*
X78581250Y-83343750D03*
X91281250Y-95408750D03*
X97631250Y-92868750D03*
X130968750Y-83343750D03*
X124618750Y-85883750D03*
X148431250Y-85883750D03*
X154781250Y-83343750D03*
X173831250Y-83343750D03*
X167481250Y-85883750D03*
X186531250Y-85883750D03*
X192881250Y-83343750D03*
X205581250Y-85883750D03*
X211931250Y-83343750D03*
X224631250Y-85883750D03*
X230981250Y-83343750D03*
X243681250Y-85883750D03*
X250031250Y-83343750D03*
X40481250Y-102393750D03*
X34131250Y-104933750D03*
X59531250Y-102393750D03*
X53181250Y-104933750D03*
X78581250Y-102393750D03*
X72231250Y-104933750D03*
X133350000Y-102393750D03*
X127000000Y-104933750D03*
X159543750Y-102393750D03*
X153193750Y-104933750D03*
X172243750Y-104933750D03*
X178593750Y-102393750D03*
X191293750Y-104933750D03*
X197643750Y-102393750D03*
X216693750Y-102393750D03*
X210343750Y-104933750D03*
X235743750Y-102393750D03*
X229393750Y-104933750D03*
X254793750Y-102393750D03*
X248443750Y-104933750D03*
X40481250Y-121443750D03*
X34131250Y-123983750D03*
X59531250Y-121443750D03*
X53181250Y-123983750D03*
X72231250Y-123983750D03*
X78581250Y-121443750D03*
X97631250Y-130968750D03*
X91281250Y-133508750D03*
X138112500Y-121443750D03*
X131762500Y-123983750D03*
X162718750Y-123983750D03*
X169068750Y-121443750D03*
X188118750Y-121443750D03*
X181768750Y-123983750D03*
X207168750Y-121443750D03*
X200818750Y-123983750D03*
X219868750Y-123983750D03*
X226218750Y-121443750D03*
X238918750Y-123983750D03*
X245268750Y-121443750D03*
X257968750Y-123983750D03*
X264318750Y-121443750D03*
X50006250Y-140493750D03*
X43656250Y-143033750D03*
X72231250Y-143033750D03*
X78581250Y-140493750D03*
X128587500Y-140493750D03*
X122237500Y-143033750D03*
X146050000Y-143033750D03*
X152400000Y-140493750D03*
X176212500Y-140493750D03*
X169862500Y-143033750D03*
X193675000Y-143033750D03*
X200025000Y-140493750D03*
X238125000Y-140493750D03*
X231775000Y-143033750D03*
D12*
X105746000Y-36526000D03*
D13*
X107006000Y-34036000D03*
X111506000Y-34036000D03*
D12*
X112756000Y-36526000D03*
D14*
X33782000Y-49276000D03*
D15*
X41402000Y-49276000D03*
D14*
X53594000Y-49276000D03*
D15*
X61214000Y-49276000D03*
D14*
X66548000Y-38100000D03*
D15*
X66548000Y-45720000D03*
X85344000Y-45974000D03*
D14*
X85344000Y-38354000D03*
X114300000Y-39878000D03*
D15*
X114300000Y-47498000D03*
X152146000Y-45974000D03*
D14*
X152146000Y-38354000D03*
X171450000Y-38354000D03*
D15*
X171450000Y-45974000D03*
D14*
X190500000Y-38100000D03*
D15*
X190500000Y-45720000D03*
X209550000Y-45974000D03*
D14*
X209550000Y-38354000D03*
X237744000Y-38354000D03*
D15*
X237744000Y-45974000D03*
D14*
X257175000Y-38354000D03*
D15*
X257175000Y-45974000D03*
X47498000Y-74422000D03*
D14*
X47498000Y-66802000D03*
D15*
X67056000Y-74422000D03*
D14*
X67056000Y-66802000D03*
X85344000Y-66802000D03*
D15*
X85344000Y-74422000D03*
D14*
X104394000Y-66802000D03*
D15*
X104394000Y-74422000D03*
X114046000Y-74422000D03*
D14*
X114046000Y-66802000D03*
D15*
X133096000Y-74422000D03*
D14*
X133096000Y-66802000D03*
X152146000Y-66802000D03*
D15*
X152146000Y-74422000D03*
X171196000Y-74422000D03*
D14*
X171196000Y-66802000D03*
D15*
X190246000Y-74676000D03*
D14*
X190246000Y-67056000D03*
X209550000Y-66802000D03*
D15*
X209550000Y-74422000D03*
X228346000Y-74422000D03*
D14*
X228346000Y-66802000D03*
D15*
X247396000Y-74676000D03*
D14*
X247396000Y-67056000D03*
X47752000Y-85852000D03*
D15*
X47752000Y-93472000D03*
D14*
X67056000Y-85852000D03*
D15*
X67056000Y-93472000D03*
X85598000Y-96520000D03*
D14*
X85598000Y-88900000D03*
D15*
X104648000Y-103124000D03*
D14*
X104648000Y-95504000D03*
X117856000Y-85852000D03*
D15*
X117856000Y-93472000D03*
D14*
X142748000Y-85852000D03*
D15*
X142748000Y-93472000D03*
X161798000Y-93472000D03*
D14*
X161798000Y-85852000D03*
X180848000Y-86106000D03*
D15*
X180848000Y-93726000D03*
D14*
X199644000Y-85852000D03*
D15*
X199644000Y-93472000D03*
X218694000Y-93472000D03*
D14*
X218694000Y-85852000D03*
X237998000Y-86106000D03*
D15*
X237998000Y-93726000D03*
X47752000Y-112522000D03*
D14*
X47752000Y-104902000D03*
D15*
X66548000Y-112522000D03*
D14*
X66548000Y-104902000D03*
X85344000Y-112522000D03*
D15*
X85344000Y-120142000D03*
D14*
X120396000Y-104902000D03*
D15*
X120396000Y-112522000D03*
X147066000Y-112522000D03*
D14*
X147066000Y-104902000D03*
X166624000Y-104902000D03*
D15*
X166624000Y-112522000D03*
X185420000Y-112522000D03*
D14*
X185420000Y-104902000D03*
D15*
X204724000Y-112522000D03*
D14*
X204724000Y-104902000D03*
X223774000Y-104902000D03*
D15*
X223774000Y-112522000D03*
X242570000Y-112522000D03*
D14*
X242570000Y-104902000D03*
X47498000Y-123952000D03*
D15*
X47498000Y-131572000D03*
D14*
X66548000Y-123952000D03*
D15*
X66548000Y-131572000D03*
X85598000Y-135128000D03*
D14*
X85598000Y-127508000D03*
X104648000Y-133350000D03*
D15*
X104648000Y-140970000D03*
X126492000Y-130302000D03*
D14*
X126492000Y-122682000D03*
X156972000Y-123952000D03*
D15*
X156972000Y-131572000D03*
X176022000Y-131572000D03*
D14*
X176022000Y-123952000D03*
X195326000Y-123952000D03*
D15*
X195326000Y-131572000D03*
D14*
X214122000Y-123952000D03*
D15*
X214122000Y-131572000D03*
X233172000Y-131572000D03*
D14*
X233172000Y-123952000D03*
X252222000Y-124206000D03*
D15*
X252222000Y-131826000D03*
X37846000Y-150622000D03*
D14*
X37846000Y-143002000D03*
D15*
X66294000Y-150622000D03*
D14*
X66294000Y-143002000D03*
D15*
X116078000Y-150622000D03*
D14*
X116078000Y-143002000D03*
D15*
X140208000Y-150622000D03*
D14*
X140208000Y-143002000D03*
D15*
X164084000Y-150622000D03*
D14*
X164084000Y-143002000D03*
D15*
X187960000Y-150876000D03*
D14*
X187960000Y-143256000D03*
X226314000Y-141986000D03*
D15*
X226314000Y-149606000D03*
D14*
X137160000Y-46990000D03*
X144780000Y-46990000D03*
X144780000Y-51054000D03*
X137160000Y-51054000D03*
D16*
X45466000Y-33020000D03*
D17*
X45466000Y-35560000D03*
X45466000Y-38100000D03*
X45466000Y-40640000D03*
X45466000Y-43180000D03*
X45466000Y-45720000D03*
X45466000Y-48260000D03*
X45466000Y-50800000D03*
X45466000Y-53340000D03*
X45466000Y-55880000D03*
X45466000Y-58420000D03*
X30226000Y-60960000D03*
X30226000Y-58420000D03*
X30226000Y-55880000D03*
X30226000Y-53340000D03*
X30226000Y-50800000D03*
X30226000Y-48260000D03*
X30226000Y-45720000D03*
X30226000Y-43180000D03*
X30226000Y-40640000D03*
X30226000Y-38100000D03*
X30226000Y-35560000D03*
X45237400Y-60960000D03*
X30226000Y-33020000D03*
X32766000Y-60960000D03*
X35306000Y-60960000D03*
X37846000Y-60960000D03*
X40386000Y-60960000D03*
X42926000Y-60960000D03*
D18*
X104394000Y-76454000D03*
X114046000Y-76454000D03*
X106426000Y-103124000D03*
X117856000Y-103124000D03*
X105156000Y-113538000D03*
X112776000Y-113538000D03*
X106680000Y-140970000D03*
X114046000Y-140970000D03*
D19*
X66548000Y-46732000D02*
X66548000Y-45720000D01*
X64004000Y-49276000D02*
X66548000Y-46732000D01*
X61214000Y-49276000D02*
X64004000Y-49276000D01*
X152146000Y-45974000D02*
X171450000Y-45974000D01*
X190246000Y-45974000D02*
X190500000Y-45720000D01*
X171450000Y-45974000D02*
X190246000Y-45974000D01*
X209296000Y-45720000D02*
X209550000Y-45974000D01*
X190500000Y-45720000D02*
X209296000Y-45720000D01*
X210562000Y-45974000D02*
X237744000Y-45974000D01*
X209550000Y-45974000D02*
X210562000Y-45974000D01*
X238756000Y-45974000D02*
X257175000Y-45974000D01*
X237744000Y-45974000D02*
X238756000Y-45974000D01*
X85090000Y-45720000D02*
X85344000Y-45974000D01*
X66548000Y-45720000D02*
X85090000Y-45720000D01*
X85344000Y-45974000D02*
X100838000Y-45974000D01*
X102362000Y-47498000D02*
X114300000Y-47498000D01*
X100838000Y-45974000D02*
X102362000Y-47498000D01*
X114300000Y-47498000D02*
X129794000Y-47498000D01*
X129794000Y-47498000D02*
X136398000Y-54102000D01*
X152146000Y-46986000D02*
X152146000Y-45974000D01*
X145030000Y-54102000D02*
X152146000Y-46986000D01*
X136398000Y-54102000D02*
X145030000Y-54102000D01*
X60702000Y-50800000D02*
X45466000Y-50800000D01*
X61214000Y-49276000D02*
X61214000Y-50288000D01*
X61214000Y-50288000D02*
X60702000Y-50800000D01*
X34131250Y-39814384D02*
X34131250Y-38258750D01*
X34131250Y-47849120D02*
X34131250Y-39814384D01*
X33782000Y-48198370D02*
X34131250Y-47849120D01*
X33782000Y-49276000D02*
X33782000Y-48198370D01*
X53181250Y-48863250D02*
X53594000Y-49276000D01*
X53181250Y-38258750D02*
X53181250Y-48863250D01*
X72072500Y-38100000D02*
X72231250Y-38258750D01*
X66548000Y-38100000D02*
X72072500Y-38100000D01*
X91186000Y-38354000D02*
X91281250Y-38258750D01*
X85344000Y-38354000D02*
X91186000Y-38354000D01*
X114300000Y-39878000D02*
X115377630Y-39878000D01*
X116996880Y-38258750D02*
X119856250Y-38258750D01*
X115377630Y-39878000D02*
X116996880Y-38258750D01*
X157861000Y-38354000D02*
X157956250Y-38258750D01*
X152146000Y-38354000D02*
X157861000Y-38354000D01*
X176911000Y-38354000D02*
X177006250Y-38258750D01*
X171450000Y-38354000D02*
X176911000Y-38354000D01*
X195897500Y-38100000D02*
X196056250Y-38258750D01*
X190500000Y-38100000D02*
X195897500Y-38100000D01*
X215011000Y-38354000D02*
X215106250Y-38258750D01*
X209550000Y-38354000D02*
X215011000Y-38354000D01*
X243586000Y-38354000D02*
X243681250Y-38258750D01*
X237744000Y-38354000D02*
X243586000Y-38354000D01*
X262636000Y-38354000D02*
X262731250Y-38258750D01*
X257175000Y-38354000D02*
X262636000Y-38354000D01*
X47498000Y-74422000D02*
X67056000Y-74422000D01*
X67056000Y-74422000D02*
X85344000Y-74422000D01*
X85344000Y-74422000D02*
X104394000Y-74422000D01*
X104394000Y-74422000D02*
X104394000Y-76454000D01*
X114046000Y-76454000D02*
X114046000Y-74422000D01*
X115058000Y-74422000D02*
X133096000Y-74422000D01*
X114046000Y-74422000D02*
X115058000Y-74422000D01*
X133096000Y-74422000D02*
X152146000Y-74422000D01*
X152146000Y-74422000D02*
X171196000Y-74422000D01*
X171196000Y-74422000D02*
X180594000Y-74422000D01*
X180848000Y-74676000D02*
X190246000Y-74676000D01*
X180594000Y-74422000D02*
X180848000Y-74676000D01*
X209296000Y-74676000D02*
X209550000Y-74422000D01*
X190246000Y-74676000D02*
X209296000Y-74676000D01*
X209550000Y-74422000D02*
X228346000Y-74422000D01*
X247142000Y-74422000D02*
X247396000Y-74676000D01*
X228346000Y-74422000D02*
X247142000Y-74422000D01*
X42049701Y-61836299D02*
X42926000Y-60960000D01*
X41724699Y-62161301D02*
X42049701Y-61836299D01*
X39821109Y-62161301D02*
X41724699Y-62161301D01*
X47498000Y-74422000D02*
X36170498Y-74422000D01*
X36170498Y-74422000D02*
X31686249Y-69937751D01*
X31686249Y-69937751D02*
X31686249Y-64836571D01*
X31686249Y-64836571D02*
X32238780Y-64284040D01*
X32238780Y-64284040D02*
X37698371Y-64284039D01*
X37698371Y-64284039D02*
X39821109Y-62161301D01*
X47466250Y-66833750D02*
X47498000Y-66802000D01*
X34131250Y-66833750D02*
X47466250Y-66833750D01*
X67024250Y-66833750D02*
X67056000Y-66802000D01*
X53181250Y-66833750D02*
X67024250Y-66833750D01*
X85312250Y-66833750D02*
X85344000Y-66802000D01*
X72231250Y-66833750D02*
X85312250Y-66833750D01*
X104362250Y-66833750D02*
X104394000Y-66802000D01*
X91281250Y-66833750D02*
X104362250Y-66833750D01*
X119824500Y-66802000D02*
X119856250Y-66833750D01*
X114046000Y-66802000D02*
X119824500Y-66802000D01*
X138874500Y-66802000D02*
X138906250Y-66833750D01*
X133096000Y-66802000D02*
X138874500Y-66802000D01*
X157924500Y-66802000D02*
X157956250Y-66833750D01*
X152146000Y-66802000D02*
X157924500Y-66802000D01*
X176974500Y-66802000D02*
X177006250Y-66833750D01*
X171196000Y-66802000D02*
X176974500Y-66802000D01*
X195834000Y-67056000D02*
X196056250Y-66833750D01*
X190246000Y-67056000D02*
X195834000Y-67056000D01*
X215074500Y-66802000D02*
X215106250Y-66833750D01*
X209550000Y-66802000D02*
X215074500Y-66802000D01*
X234124500Y-66802000D02*
X234156250Y-66833750D01*
X228346000Y-66802000D02*
X234124500Y-66802000D01*
X252984000Y-67056000D02*
X253206250Y-66833750D01*
X247396000Y-67056000D02*
X252984000Y-67056000D01*
X47720250Y-85883750D02*
X47752000Y-85852000D01*
X34131250Y-85883750D02*
X47720250Y-85883750D01*
X47752000Y-93472000D02*
X34036000Y-93472000D01*
X47752000Y-93472000D02*
X67056000Y-93472000D01*
X67056000Y-93472000D02*
X79248000Y-93472000D01*
X82296000Y-96520000D02*
X85598000Y-96520000D01*
X79248000Y-93472000D02*
X82296000Y-96520000D01*
X103636000Y-103124000D02*
X104648000Y-103124000D01*
X91190000Y-103124000D02*
X103636000Y-103124000D01*
X85598000Y-97532000D02*
X91190000Y-103124000D01*
X85598000Y-96520000D02*
X85598000Y-97532000D01*
X104648000Y-103124000D02*
X106426000Y-103124000D01*
X117856000Y-103124000D02*
X117856000Y-93472000D01*
X117856000Y-93472000D02*
X142748000Y-93472000D01*
X142748000Y-93472000D02*
X161798000Y-93472000D01*
X180594000Y-93472000D02*
X180848000Y-93726000D01*
X161798000Y-93472000D02*
X180594000Y-93472000D01*
X199390000Y-93726000D02*
X199644000Y-93472000D01*
X180848000Y-93726000D02*
X199390000Y-93726000D01*
X199644000Y-93472000D02*
X218694000Y-93472000D01*
X237744000Y-93472000D02*
X237998000Y-93726000D01*
X218694000Y-93472000D02*
X237744000Y-93472000D01*
X31496000Y-90932000D02*
X31236239Y-90672239D01*
X34036000Y-93472000D02*
X31496000Y-90932000D01*
X27166669Y-86602669D02*
X31496000Y-90932000D01*
X27166669Y-51573331D02*
X27166669Y-86602669D01*
X30226000Y-50800000D02*
X27940000Y-50800000D01*
X27940000Y-50800000D02*
X27166669Y-51573331D01*
X67024250Y-85883750D02*
X67056000Y-85852000D01*
X53181250Y-85883750D02*
X67024250Y-85883750D01*
X84836001Y-88138001D02*
X85598000Y-88900000D01*
X82796749Y-86098749D02*
X84836001Y-88138001D01*
X74001883Y-86098749D02*
X82796749Y-86098749D01*
X73786884Y-85883750D02*
X74001883Y-86098749D01*
X72231250Y-85883750D02*
X73786884Y-85883750D01*
X104552750Y-95408750D02*
X104648000Y-95504000D01*
X91281250Y-95408750D02*
X104552750Y-95408750D01*
X124587000Y-85852000D02*
X124618750Y-85883750D01*
X117856000Y-85852000D02*
X124587000Y-85852000D01*
X148399500Y-85852000D02*
X148431250Y-85883750D01*
X142748000Y-85852000D02*
X148399500Y-85852000D01*
X167449500Y-85852000D02*
X167481250Y-85883750D01*
X161798000Y-85852000D02*
X167449500Y-85852000D01*
X186309000Y-86106000D02*
X186531250Y-85883750D01*
X180848000Y-86106000D02*
X186309000Y-86106000D01*
X205549500Y-85852000D02*
X205581250Y-85883750D01*
X199644000Y-85852000D02*
X205549500Y-85852000D01*
X224599500Y-85852000D02*
X224631250Y-85883750D01*
X218694000Y-85852000D02*
X224599500Y-85852000D01*
X243459000Y-86106000D02*
X243681250Y-85883750D01*
X237998000Y-86106000D02*
X243459000Y-86106000D01*
X47752000Y-112522000D02*
X66548000Y-112522000D01*
X66548000Y-112522000D02*
X77216000Y-112522000D01*
X77216000Y-112522000D02*
X80772000Y-116078000D01*
X84332000Y-120142000D02*
X85344000Y-120142000D01*
X80772000Y-116582000D02*
X84332000Y-120142000D01*
X80772000Y-116078000D02*
X80772000Y-116582000D01*
X86356000Y-120142000D02*
X88138000Y-118360000D01*
X85344000Y-120142000D02*
X86356000Y-120142000D01*
X88138000Y-118360000D02*
X88142000Y-118360000D01*
X92964000Y-113538000D02*
X105156000Y-113538000D01*
X88142000Y-118360000D02*
X92964000Y-113538000D01*
X113175999Y-113138001D02*
X113937999Y-113138001D01*
X112776000Y-113538000D02*
X113175999Y-113138001D01*
X114554000Y-112522000D02*
X120396000Y-112522000D01*
X113937999Y-113138001D02*
X114554000Y-112522000D01*
X121408000Y-112522000D02*
X147066000Y-112522000D01*
X120396000Y-112522000D02*
X121408000Y-112522000D01*
X147066000Y-112522000D02*
X166624000Y-112522000D01*
X166624000Y-112522000D02*
X185420000Y-112522000D01*
X185420000Y-112522000D02*
X204724000Y-112522000D01*
X204724000Y-112522000D02*
X223774000Y-112522000D01*
X223774000Y-112522000D02*
X242570000Y-112522000D01*
X33528000Y-112522000D02*
X47752000Y-112522000D01*
X30226000Y-48260000D02*
X27940000Y-48260000D01*
X26716659Y-49483341D02*
X26716659Y-86789069D01*
X27940000Y-48260000D02*
X26716659Y-49483341D01*
X26716659Y-86789069D02*
X30786230Y-90858640D01*
X30786230Y-90858640D02*
X30786230Y-109780230D01*
X30786230Y-109780230D02*
X33528000Y-112522000D01*
X47720250Y-104933750D02*
X47752000Y-104902000D01*
X34131250Y-104933750D02*
X47720250Y-104933750D01*
X66516250Y-104933750D02*
X66548000Y-104902000D01*
X53181250Y-104933750D02*
X66516250Y-104933750D01*
X85344000Y-111444370D02*
X85344000Y-112522000D01*
X85344000Y-109957498D02*
X85344000Y-111444370D01*
X80320252Y-104933750D02*
X85344000Y-109957498D01*
X72231250Y-104933750D02*
X80320252Y-104933750D01*
X126968250Y-104902000D02*
X127000000Y-104933750D01*
X120396000Y-104902000D02*
X126968250Y-104902000D01*
X153162000Y-104902000D02*
X153193750Y-104933750D01*
X147066000Y-104902000D02*
X153162000Y-104902000D01*
X172212000Y-104902000D02*
X172243750Y-104933750D01*
X166624000Y-104902000D02*
X172212000Y-104902000D01*
X191262000Y-104902000D02*
X191293750Y-104933750D01*
X185420000Y-104902000D02*
X191262000Y-104902000D01*
X210312000Y-104902000D02*
X210343750Y-104933750D01*
X204724000Y-104902000D02*
X210312000Y-104902000D01*
X229362000Y-104902000D02*
X229393750Y-104933750D01*
X223774000Y-104902000D02*
X229362000Y-104902000D01*
X248412000Y-104902000D02*
X248443750Y-104933750D01*
X242570000Y-104902000D02*
X248412000Y-104902000D01*
X47466250Y-123983750D02*
X47498000Y-123952000D01*
X34131250Y-123983750D02*
X47466250Y-123983750D01*
X47498000Y-131572000D02*
X66548000Y-131572000D01*
X66548000Y-131572000D02*
X77978000Y-131572000D01*
X81534000Y-135128000D02*
X85598000Y-135128000D01*
X77978000Y-131572000D02*
X81534000Y-135128000D01*
X103636000Y-140970000D02*
X104648000Y-140970000D01*
X92452000Y-140970000D02*
X103636000Y-140970000D01*
X86610000Y-135128000D02*
X92452000Y-140970000D01*
X85598000Y-135128000D02*
X86610000Y-135128000D01*
X104648000Y-140970000D02*
X106680000Y-140970000D01*
X124714000Y-130302000D02*
X126492000Y-130302000D01*
X114046000Y-140970000D02*
X124714000Y-130302000D01*
X126492000Y-130302000D02*
X133096000Y-130302000D01*
X134366000Y-131572000D02*
X156972000Y-131572000D01*
X133096000Y-130302000D02*
X134366000Y-131572000D01*
X156972000Y-131572000D02*
X176022000Y-131572000D01*
X177034000Y-131572000D02*
X195326000Y-131572000D01*
X176022000Y-131572000D02*
X177034000Y-131572000D01*
X195326000Y-131572000D02*
X214122000Y-131572000D01*
X214122000Y-131572000D02*
X233172000Y-131572000D01*
X251968000Y-131572000D02*
X252222000Y-131826000D01*
X233172000Y-131572000D02*
X251968000Y-131572000D01*
X32004000Y-131572000D02*
X47498000Y-131572000D01*
X30480000Y-130048000D02*
X32004000Y-131572000D01*
X28194000Y-45720000D02*
X26266649Y-47647351D01*
X30480000Y-110110410D02*
X30480000Y-130048000D01*
X26266649Y-47647351D02*
X26266649Y-86975469D01*
X26266649Y-86975469D02*
X30336221Y-91045041D01*
X30336221Y-91045041D02*
X30336221Y-109966629D01*
X30226000Y-45720000D02*
X28194000Y-45720000D01*
X30336221Y-109966629D02*
X30480000Y-110110410D01*
X66516250Y-123983750D02*
X66548000Y-123952000D01*
X53181250Y-123983750D02*
X66516250Y-123983750D01*
X82073750Y-123983750D02*
X85598000Y-127508000D01*
X72231250Y-123983750D02*
X82073750Y-123983750D01*
X104489250Y-133508750D02*
X104648000Y-133350000D01*
X91281250Y-133508750D02*
X104489250Y-133508750D01*
X127793750Y-123983750D02*
X131762500Y-123983750D01*
X126492000Y-122682000D02*
X127793750Y-123983750D01*
X162687000Y-123952000D02*
X162718750Y-123983750D01*
X156972000Y-123952000D02*
X162687000Y-123952000D01*
X181737000Y-123952000D02*
X181768750Y-123983750D01*
X176022000Y-123952000D02*
X181737000Y-123952000D01*
X200787000Y-123952000D02*
X200818750Y-123983750D01*
X195326000Y-123952000D02*
X200787000Y-123952000D01*
X219837000Y-123952000D02*
X219868750Y-123983750D01*
X214122000Y-123952000D02*
X219837000Y-123952000D01*
X238887000Y-123952000D02*
X238918750Y-123983750D01*
X233172000Y-123952000D02*
X238887000Y-123952000D01*
X257746500Y-124206000D02*
X257968750Y-123983750D01*
X252222000Y-124206000D02*
X257746500Y-124206000D01*
X37846000Y-150622000D02*
X66294000Y-150622000D01*
X66294000Y-150622000D02*
X116078000Y-150622000D01*
X117090000Y-150622000D02*
X140208000Y-150622000D01*
X116078000Y-150622000D02*
X117090000Y-150622000D01*
X140208000Y-150622000D02*
X164084000Y-150622000D01*
X164084000Y-150622000D02*
X169672000Y-150622000D01*
X169926000Y-150876000D02*
X187960000Y-150876000D01*
X169672000Y-150622000D02*
X169926000Y-150876000D01*
X187960000Y-150876000D02*
X210312000Y-150876000D01*
X211582000Y-149606000D02*
X226314000Y-149606000D01*
X210312000Y-150876000D02*
X211582000Y-149606000D01*
X30029990Y-141793990D02*
X37846000Y-149610000D01*
X30029990Y-110296808D02*
X30029990Y-141793990D01*
X29886212Y-110153028D02*
X30029990Y-110296808D01*
X29349701Y-44056299D02*
X27317701Y-44056299D01*
X30226000Y-43180000D02*
X29349701Y-44056299D01*
X27317701Y-44056299D02*
X25816639Y-45557361D01*
X25816639Y-45557361D02*
X25816639Y-87161869D01*
X25816639Y-87161869D02*
X29886212Y-91231442D01*
X37846000Y-149610000D02*
X37846000Y-150622000D01*
X29886212Y-91231442D02*
X29886212Y-110153028D01*
X43624500Y-143002000D02*
X43656250Y-143033750D01*
X37846000Y-143002000D02*
X43624500Y-143002000D01*
X72199500Y-143002000D02*
X72231250Y-143033750D01*
X66294000Y-143002000D02*
X72199500Y-143002000D01*
X122205750Y-143002000D02*
X122237500Y-143033750D01*
X116078000Y-143002000D02*
X122205750Y-143002000D01*
X146018250Y-143002000D02*
X146050000Y-143033750D01*
X140208000Y-143002000D02*
X146018250Y-143002000D01*
X169830750Y-143002000D02*
X169862500Y-143033750D01*
X164084000Y-143002000D02*
X169830750Y-143002000D01*
X193452750Y-143256000D02*
X193675000Y-143033750D01*
X187960000Y-143256000D02*
X193452750Y-143256000D01*
X227361750Y-143033750D02*
X231775000Y-143033750D01*
X226314000Y-141986000D02*
X227361750Y-143033750D01*
X137160000Y-46990000D02*
X137160000Y-51054000D01*
X29349701Y-39763701D02*
X30226000Y-40640000D01*
X29024699Y-39438699D02*
X29349701Y-39763701D01*
X30353385Y-31114689D02*
X29024699Y-32443375D01*
X47441109Y-31114689D02*
X30353385Y-31114689D01*
X49462400Y-33135980D02*
X47441109Y-31114689D01*
X104149610Y-33135980D02*
X49462400Y-33135980D01*
X138670000Y-42966000D02*
X138670000Y-42766000D01*
X29024699Y-32443375D02*
X29024699Y-39438699D01*
X138670000Y-42766000D02*
X136036000Y-40132000D01*
X136036000Y-40132000D02*
X133841162Y-40132000D01*
X133841162Y-40132000D02*
X125967162Y-32258000D01*
X125967162Y-32258000D02*
X105027590Y-32258000D01*
X105027590Y-32258000D02*
X104149610Y-33135980D01*
X40481250Y-39997752D02*
X43756699Y-43273201D01*
X40481250Y-35718750D02*
X40481250Y-39997752D01*
X43756699Y-59479299D02*
X45237400Y-60960000D01*
X43756699Y-43273201D02*
X43756699Y-59479299D01*
X59531250Y-64293750D02*
X54927500Y-59690000D01*
X46736000Y-59690000D02*
X45466000Y-58420000D01*
X54927500Y-59690000D02*
X46736000Y-59690000D01*
X78581250Y-64293750D02*
X73527490Y-59239990D01*
X48825990Y-59239990D02*
X45466000Y-55880000D01*
X73527490Y-59239990D02*
X48825990Y-59239990D01*
X97631250Y-64293750D02*
X92127480Y-58789980D01*
X50915980Y-58789980D02*
X45466000Y-53340000D01*
X92127480Y-58789980D02*
X50915980Y-58789980D01*
X31359132Y-81787998D02*
X27616679Y-78045545D01*
X113506250Y-64293750D02*
X112014000Y-65786000D01*
X126206250Y-64293750D02*
X113506250Y-64293750D01*
X112014000Y-65786000D02*
X112014000Y-74676000D01*
X112014000Y-74676000D02*
X104902000Y-81788000D01*
X104902000Y-81788000D02*
X44704000Y-81788000D01*
X44704000Y-81788000D02*
X31359132Y-81787998D01*
X27616679Y-53663321D02*
X27616679Y-55441321D01*
X27940000Y-53340000D02*
X27616679Y-53663321D01*
X30226000Y-53340000D02*
X27940000Y-53340000D01*
X27616679Y-78045545D02*
X27616679Y-55441321D01*
X27616679Y-55441321D02*
X27616679Y-55187321D01*
X162431239Y-62418739D02*
X144017649Y-62418739D01*
X164306250Y-64293750D02*
X162431239Y-62418739D01*
X114108440Y-62418740D02*
X111055990Y-65471190D01*
X144017649Y-62418739D02*
X114108440Y-62418740D01*
X111055990Y-65471190D02*
X111055990Y-74361190D01*
X111055990Y-74361190D02*
X104529200Y-80887980D01*
X48144020Y-80887980D02*
X48006000Y-80887980D01*
X104529200Y-80887980D02*
X48144020Y-80887980D01*
X31731934Y-80887980D02*
X28516699Y-77672745D01*
X48144020Y-80887980D02*
X31731934Y-80887980D01*
X28516699Y-58890026D02*
X28516699Y-59504699D01*
X28986725Y-58420000D02*
X28516699Y-58890026D01*
X30226000Y-58420000D02*
X28986725Y-58420000D01*
X28516699Y-77672745D02*
X28516699Y-59504699D01*
X28516699Y-59504699D02*
X28516699Y-59367301D01*
X31918326Y-80437963D02*
X29436201Y-77955837D01*
X181031231Y-61968731D02*
X113922039Y-61968731D01*
X183356250Y-64293750D02*
X181031231Y-61968731D01*
X113922039Y-61968731D02*
X110605980Y-65284790D01*
X110605980Y-65284790D02*
X110605980Y-74174790D01*
X47819600Y-80437970D02*
X31918326Y-80437963D01*
X110605980Y-74174790D02*
X104342800Y-80437970D01*
X104342800Y-80437970D02*
X47819600Y-80437970D01*
X30226000Y-60960000D02*
X30226000Y-61468000D01*
X29436201Y-62257799D02*
X29436201Y-63019799D01*
X30226000Y-61468000D02*
X29436201Y-62257799D01*
X29436201Y-77955837D02*
X29436201Y-63019799D01*
X29436201Y-63019799D02*
X29436201Y-62891389D01*
X31242000Y-62484000D02*
X32766000Y-60960000D01*
X30226000Y-62484000D02*
X31242000Y-62484000D01*
X29886211Y-62823789D02*
X30226000Y-62484000D01*
X29886211Y-77769437D02*
X29886211Y-62823789D01*
X32104727Y-79987955D02*
X29886211Y-77769437D01*
X49022000Y-79987960D02*
X32104727Y-79987955D01*
X199580500Y-61468000D02*
X113786360Y-61468000D01*
X202406250Y-64293750D02*
X199580500Y-61468000D01*
X113786360Y-61468000D02*
X110155970Y-65098390D01*
X110155970Y-65098390D02*
X110155970Y-73988390D01*
X110155970Y-73988390D02*
X104156400Y-79987960D01*
X104156400Y-79987960D02*
X49022000Y-79987960D01*
X34429701Y-61836299D02*
X35306000Y-60960000D01*
X30336221Y-77583037D02*
X30336221Y-63135779D01*
X30537990Y-62934010D02*
X33331990Y-62934010D01*
X32291128Y-79537947D02*
X30336221Y-77583037D01*
X49530000Y-79537950D02*
X32291128Y-79537947D01*
X221456250Y-64293750D02*
X218180490Y-61017990D01*
X218180490Y-61017990D02*
X113599959Y-61017991D01*
X30336221Y-63135779D02*
X30537990Y-62934010D01*
X113599959Y-61017991D02*
X109705960Y-64911990D01*
X109705960Y-64911990D02*
X109705960Y-73801990D01*
X109705960Y-73801990D02*
X103970000Y-79537950D01*
X33331990Y-62934010D02*
X34429701Y-61836299D01*
X103970000Y-79537950D02*
X49530000Y-79537950D01*
X35421980Y-63384020D02*
X36969701Y-61836299D01*
X31865980Y-63384020D02*
X35421980Y-63384020D01*
X30786231Y-64463769D02*
X31865980Y-63384020D01*
X36969701Y-61836299D02*
X37846000Y-60960000D01*
X30786230Y-77396638D02*
X30786231Y-64463769D01*
X32477529Y-79087939D02*
X30786230Y-77396638D01*
X103783600Y-79087940D02*
X32477529Y-79087939D01*
X109220000Y-73651540D02*
X103783600Y-79087940D01*
X149860000Y-60567980D02*
X149859998Y-60567982D01*
X149859998Y-60567982D02*
X113413558Y-60567982D01*
X240506250Y-64293750D02*
X236780480Y-60567980D01*
X236780480Y-60567980D02*
X149860000Y-60567980D01*
X113413558Y-60567982D02*
X109220000Y-64761540D01*
X109220000Y-64761540D02*
X109220000Y-73651540D01*
X32052380Y-63834030D02*
X37511970Y-63834030D01*
X31236240Y-64650170D02*
X32052380Y-63834030D01*
X37511970Y-63834030D02*
X40386000Y-60960000D01*
X103597200Y-78637930D02*
X32663930Y-78637930D01*
X31236239Y-77210239D02*
X31236240Y-64650170D01*
X255380471Y-60117971D02*
X236966880Y-60117970D01*
X259556250Y-64293750D02*
X255380471Y-60117971D01*
X236966880Y-60117970D02*
X113227160Y-60117970D01*
X32663930Y-78637930D02*
X31236239Y-77210239D01*
X113227160Y-60117970D02*
X108769990Y-64575140D01*
X108769990Y-64575140D02*
X108769990Y-73465140D01*
X108769990Y-73465140D02*
X103597200Y-78637930D01*
X143831249Y-62868749D02*
X145256250Y-64293750D01*
X114294841Y-62868749D02*
X143831249Y-62868749D01*
X111506000Y-65657590D02*
X114294841Y-62868749D01*
X30226000Y-55880000D02*
X28986725Y-55880000D01*
X28986725Y-55880000D02*
X28066689Y-56800036D01*
X28066689Y-56800036D02*
X28066689Y-77859145D01*
X28066689Y-77859145D02*
X31545533Y-81337989D01*
X111506000Y-74547590D02*
X111506000Y-65657590D01*
X31545533Y-81337989D02*
X104715600Y-81337990D01*
X104715600Y-81337990D02*
X111506000Y-74547590D01*
X110305999Y-32835999D02*
X105086001Y-32835999D01*
X111506000Y-34036000D02*
X110305999Y-32835999D01*
X105086001Y-32835999D02*
X104336010Y-33585990D01*
X104336010Y-33585990D02*
X49276000Y-33585990D01*
X49276000Y-33585990D02*
X47254709Y-31564699D01*
X36761301Y-31564699D02*
X30226000Y-38100000D01*
X47254709Y-31564699D02*
X36761301Y-31564699D01*
X111324000Y-38354000D02*
X107006000Y-34036000D01*
X113792000Y-38354000D02*
X111324000Y-38354000D01*
X142220000Y-44066000D02*
X141994990Y-44291010D01*
X141994990Y-44291010D02*
X137363762Y-44291010D01*
X137363762Y-44291010D02*
X127049001Y-33976249D01*
X143270000Y-44066000D02*
X142220000Y-44066000D01*
X127049001Y-33976249D02*
X118169751Y-33976249D01*
X118169751Y-33976249D02*
X113792000Y-38354000D01*
X49530000Y-34036000D02*
X45466000Y-38100000D01*
X107006000Y-34036000D02*
X49530000Y-34036000D01*
X45466000Y-38100000D02*
X45466000Y-40640000D01*
M02*
