G04 #@! TF.GenerationSoftware,KiCad,Pcbnew,(5.1.4)-1*
G04 #@! TF.CreationDate,2019-10-25T22:15:33-04:00*
G04 #@! TF.ProjectId,Keyboard - Left,4b657962-6f61-4726-9420-2d204c656674,rev?*
G04 #@! TF.SameCoordinates,Original*
G04 #@! TF.FileFunction,Profile,NP*
%FSLAX46Y46*%
G04 Gerber Fmt 4.6, Leading zero omitted, Abs format (unit mm)*
G04 Created by KiCad (PCBNEW (5.1.4)-1) date 2019-10-25 22:15:33*
%MOMM*%
%LPD*%
G04 APERTURE LIST*
%ADD10C,0.050000*%
G04 APERTURE END LIST*
D10*
X28448000Y-156464000D02*
G75*
G02X27940000Y-155956000I0J508000D01*
G01*
X262382000Y-155956000D02*
G75*
G02X261874000Y-156464000I-508000J0D01*
G01*
X262382000Y-137160000D02*
G75*
G02X262890000Y-136652000I508000J0D01*
G01*
X271780000Y-136144000D02*
G75*
G02X271272000Y-136652000I-508000J0D01*
G01*
X271272000Y-116332000D02*
G75*
G02X271780000Y-116840000I0J-508000D01*
G01*
X262890000Y-116332000D02*
G75*
G02X262382000Y-115824000I0J508000D01*
G01*
X261874000Y-97282000D02*
G75*
G02X262382000Y-97790000I0J-508000D01*
G01*
X258064000Y-97282000D02*
G75*
G02X257556000Y-96774000I0J508000D01*
G01*
X257556000Y-80010000D02*
G75*
G02X258064000Y-79502000I508000J0D01*
G01*
X267208000Y-78994000D02*
G75*
G02X266700000Y-79502000I-508000J0D01*
G01*
X267208000Y-51562000D02*
G75*
G02X267716000Y-51054000I508000J0D01*
G01*
X276860000Y-50546000D02*
G75*
G02X276352000Y-51054000I-508000J0D01*
G01*
X276352000Y-30734000D02*
G75*
G02X276860000Y-31242000I0J-508000D01*
G01*
X276352000Y-30734000D02*
X255778000Y-30734000D01*
X228854000Y-30734000D02*
X255778000Y-30734000D01*
X206756000Y-30734000D02*
X228854000Y-30734000D01*
X182880000Y-30734000D02*
X206756000Y-30734000D01*
X159512000Y-30734000D02*
X182880000Y-30734000D01*
X137160000Y-30734000D02*
X159512000Y-30734000D01*
X113792000Y-30734000D02*
X137160000Y-30734000D01*
X90932000Y-30734000D02*
X113792000Y-30734000D01*
X70358000Y-30734000D02*
X90932000Y-30734000D01*
X47498000Y-30734000D02*
X70358000Y-30734000D01*
X47498000Y-30734000D02*
G75*
G02X46990000Y-30226000I0J508000D01*
G01*
X46482000Y-28194000D02*
G75*
G02X46990000Y-28702000I0J-508000D01*
G01*
X27686000Y-28702000D02*
G75*
G02X28194000Y-28194000I508000J0D01*
G01*
X27686000Y-43180000D02*
G75*
G02X27178000Y-43688000I-508000J0D01*
G01*
X25146000Y-44196000D02*
G75*
G02X25654000Y-43688000I508000J0D01*
G01*
X27432000Y-90170000D02*
G75*
G02X27940000Y-90678000I0J-508000D01*
G01*
X25654000Y-90170000D02*
G75*
G02X25146000Y-89662000I0J508000D01*
G01*
X25146000Y-89662000D02*
X25146000Y-84836000D01*
X27432000Y-90170000D02*
X25654000Y-90170000D01*
X27940000Y-155956000D02*
X27940000Y-90678000D01*
X247396000Y-156464000D02*
X28448000Y-156464000D01*
X247396000Y-156464000D02*
X261874000Y-156464000D01*
X262382000Y-137160000D02*
X262382000Y-155956000D01*
X271272000Y-136652000D02*
X262890000Y-136652000D01*
X271780000Y-116840000D02*
X271780000Y-136144000D01*
X262890000Y-116332000D02*
X271272000Y-116332000D01*
X262382000Y-97790000D02*
X262382000Y-115824000D01*
X258064000Y-97282000D02*
X261874000Y-97282000D01*
X257556000Y-80010000D02*
X257556000Y-96774000D01*
X266700000Y-79502000D02*
X258064000Y-79502000D01*
X267208000Y-51562000D02*
X267208000Y-78994000D01*
X276352000Y-51054000D02*
X267716000Y-51054000D01*
X276860000Y-31242000D02*
X276860000Y-50546000D01*
X46990000Y-28702000D02*
X46990000Y-30226000D01*
X28194000Y-28194000D02*
X46482000Y-28194000D01*
X27686000Y-43180000D02*
X27686000Y-28702000D01*
X25654000Y-43688000D02*
X27178000Y-43688000D01*
X25146000Y-84836000D02*
X25146000Y-44196000D01*
M02*
