M48
; DRILL file {KiCad (5.1.4)-1} date 10/25/2019 10:15:40 PM
; FORMAT={-:-/ absolute / inch / decimal}
; #@! TF.CreationDate,2019-10-25T22:15:40-04:00
; #@! TF.GenerationSoftware,Kicad,Pcbnew,(5.1.4)-1
FMAT,2
INCH
T1C0.0157
T2C0.0300
T3C0.0354
T4C0.0390
T5C0.0430
T6C0.0512
T7C0.0591
T8C0.0315
T9C0.0669
T10C0.1201
T11C0.1575
%
G90
G05
T1
X4.11Y-3.01
X4.14Y-4.47
X4.19Y-4.06
X4.2Y-5.55
X4.44Y-4.47
X4.49Y-3.01
X4.49Y-5.55
X4.64Y-4.06
T2
X8.25Y-2.63
X8.25Y-2.93
X2.62Y-4.88
X2.62Y-5.18
X4.12Y-3.76
X4.12Y-4.06
X4.74Y-4.13
X4.74Y-4.43
X1.88Y-3.38
X1.88Y-3.68
X7.12Y-3.39
X7.12Y-3.69
X4.11Y-2.63
X4.11Y-2.93
X3.36Y-4.43
X3.36Y-4.73
X8.81Y-4.13
X8.81Y-4.43
X5.24Y-2.63
X5.24Y-2.93
X3.36Y-1.51
X3.36Y-1.81
X7.86Y-3.38
X7.86Y-3.68
X1.49Y-5.63
X1.49Y-5.93
X8.91Y-5.59
X8.91Y-5.89
X3.36Y-2.63
X3.36Y-2.93
X8.06Y-4.13
X8.06Y-4.43
X7.4Y-5.64
X7.4Y-5.94
X6.74Y-2.63
X6.74Y-2.93
X9.18Y-4.88
X9.18Y-5.18
X6.46Y-5.63
X6.46Y-5.93
X1.87Y-2.63
X1.87Y-2.93
X7.3Y-4.13
X7.3Y-4.43
X5.4Y-1.85
X5.7Y-1.85
X4.5Y-1.57
X4.5Y-1.87
X3.37Y-5.02
X3.37Y-5.32
X9.37Y-3.39
X9.37Y-3.69
X9.74Y-2.64
X9.74Y-2.94
X3.37Y-3.5
X3.37Y-3.8
X10.125Y-1.51
X10.125Y-1.81
X1.33Y-1.94
X1.63Y-1.94
X5.79Y-4.13
X5.79Y-4.43
X1.87Y-4.88
X1.87Y-5.18
X5.99Y-1.51
X5.99Y-1.81
X5.62Y-3.38
X5.62Y-3.68
X7.69Y-4.88
X7.69Y-5.18
X7.5Y-1.5
X7.5Y-1.8
X6.56Y-4.13
X6.56Y-4.43
X6.93Y-4.88
X6.93Y-5.18
X2.64Y-2.63
X2.64Y-2.93
X9.93Y-4.89
X9.93Y-5.19
X6.75Y-1.51
X6.75Y-1.81
X4.98Y-4.83
X4.98Y-5.13
X5.4Y-2.01
X5.7Y-2.01
X8.25Y-1.51
X8.25Y-1.81
X9.55Y-4.13
X9.55Y-4.43
X2.64Y-3.38
X2.64Y-3.68
X2.62Y-4.13
X2.62Y-4.43
X4.64Y-3.38
X4.64Y-3.68
X1.88Y-4.13
X1.88Y-4.43
X8.99Y-2.63
X8.99Y-2.93
X2.11Y-1.94
X2.41Y-1.94
X8.61Y-3.38
X8.61Y-3.68
X4.12Y-5.25
X4.12Y-5.55
X4.49Y-2.63
X4.49Y-2.93
X2.62Y-1.5
X2.62Y-1.8
X6.37Y-3.38
X6.37Y-3.68
X8.43Y-4.88
X8.43Y-5.18
X9.36Y-1.51
X9.36Y-1.81
X2.61Y-5.63
X2.61Y-5.93
X5.99Y-2.63
X5.99Y-2.93
X6.18Y-4.88
X6.18Y-5.18
X5.52Y-5.63
X5.52Y-5.93
X7.49Y-2.64
X7.49Y-2.94
X4.57Y-5.63
X4.57Y-5.93
T4
X4.2128Y-1.34
X4.39Y-1.34
T5
X1.19Y-1.3
X1.19Y-1.4
X1.19Y-1.5
X1.19Y-1.6
X1.19Y-1.7
X1.19Y-1.8
X1.19Y-1.9
X1.19Y-2.0
X1.19Y-2.1
X1.19Y-2.2
X1.19Y-2.3
X1.19Y-2.4
X1.29Y-2.4
X1.39Y-2.4
X1.49Y-2.4
X1.59Y-2.4
X1.69Y-2.4
X1.781Y-2.4
X1.79Y-1.3
X1.79Y-1.4
X1.79Y-1.5
X1.79Y-1.6
X1.79Y-1.7
X1.79Y-1.8
X1.79Y-1.9
X1.79Y-2.0
X1.79Y-2.1
X1.79Y-2.2
X1.79Y-2.3
T6
X4.1632Y-1.438
X4.4392Y-1.438
T7
X9.5938Y-1.5062
X9.8438Y-1.4062
X6.5938Y-3.3813
X6.8438Y-3.2812
X6.7812Y-4.1312
X7.0312Y-4.0312
X6.9688Y-1.5062
X7.2188Y-1.4062
X2.0938Y-4.1312
X2.3438Y-4.0312
X7.625Y-5.6312
X7.875Y-5.5312
X1.3438Y-1.5062
X1.5938Y-1.4062
X10.1562Y-4.8812
X10.4062Y-4.7812
X10.3438Y-1.5062
X10.5938Y-1.4062
X2.8438Y-5.6312
X3.0938Y-5.5312
X5.8438Y-3.3813
X6.0938Y-3.2812
X3.5938Y-5.2562
X3.8438Y-5.1562
X5.4688Y-2.6313
X5.7188Y-2.5312
X5.1875Y-4.8812
X5.4375Y-4.7812
X9.2188Y-2.6313
X9.4688Y-2.5312
X8.0938Y-3.3813
X8.3438Y-3.2812
X9.9688Y-2.6313
X10.2188Y-2.5312
X2.8438Y-4.1312
X3.0938Y-4.0312
X6.2188Y-2.6313
X6.4688Y-2.5312
X9.7812Y-4.1312
X10.0312Y-4.0312
X6.4062Y-4.8812
X6.6562Y-4.7812
X2.0938Y-1.5062
X2.3438Y-1.4062
X2.8438Y-3.3813
X3.0938Y-3.2812
X9.5938Y-3.3813
X9.8438Y-3.2812
X6.6875Y-5.6312
X6.9375Y-5.5312
X8.4688Y-1.5062
X8.7188Y-1.4062
X8.6562Y-4.8812
X8.9062Y-4.7812
X7.9062Y-4.8812
X8.1562Y-4.7812
X2.8438Y-1.5062
X3.0938Y-1.4062
X4.8125Y-5.6312
X5.0625Y-5.5312
X3.5938Y-1.5062
X3.8438Y-1.4062
X3.5938Y-2.6313
X3.8438Y-2.5312
X9.0312Y-4.1312
X9.2812Y-4.0312
X8.4688Y-2.6313
X8.7188Y-2.5312
X6.0312Y-4.1312
X6.2812Y-4.0312
X6.9688Y-2.6313
X7.2188Y-2.5312
X8.8438Y-3.3813
X9.0938Y-3.2812
X4.7188Y-2.6313
X4.9688Y-2.5312
X5.0Y-4.1312
X5.25Y-4.0312
X7.7188Y-1.5062
X7.9688Y-1.4062
X4.9062Y-3.3813
X5.1562Y-3.2812
X2.8438Y-4.8812
X3.0938Y-4.7812
X4.7188Y-1.5062
X4.9688Y-1.4062
X7.3438Y-3.3813
X7.5938Y-3.2812
X2.0938Y-4.8812
X2.3438Y-4.7812
X1.7188Y-5.6312
X1.9688Y-5.5312
X6.2188Y-1.5062
X6.4688Y-1.4062
X9.4062Y-4.8812
X9.6562Y-4.7812
X1.3438Y-2.6313
X1.5938Y-2.5312
X7.1562Y-4.8812
X7.4062Y-4.7812
X2.0938Y-2.6313
X2.3438Y-2.5312
X7.7188Y-2.6313
X7.9688Y-2.5312
X2.8438Y-2.6313
X3.0938Y-2.5312
X1.3438Y-4.8812
X1.5938Y-4.7812
X2.0938Y-3.3813
X2.3438Y-3.2812
X7.5312Y-4.1312
X7.7812Y-4.0312
X3.5938Y-3.7563
X3.8438Y-3.6562
X1.3438Y-4.1312
X1.5938Y-4.0312
X5.75Y-5.6312
X6.0Y-5.5312
X1.3438Y-3.3813
X1.5938Y-3.2812
X8.2812Y-4.1312
X8.5312Y-4.0312
X9.125Y-5.6312
X9.375Y-5.5312
T8
X5.55Y-1.353
X5.55Y-1.6286
T9
X6.9188Y-1.6062
X7.3187Y-1.6062
X2.0437Y-4.2313
X2.4438Y-4.2313
X7.575Y-5.7313
X7.975Y-5.7313
X1.2937Y-1.6062
X1.6937Y-1.6062
X10.1062Y-4.9813
X10.5062Y-4.9813
X10.2937Y-1.6062
X10.6937Y-1.6062
X2.7937Y-5.7313
X3.1938Y-5.7313
X5.7938Y-3.4812
X6.1937Y-3.4812
X3.5437Y-5.3563
X3.9438Y-5.3563
X5.4188Y-2.7312
X5.8187Y-2.7312
X5.1375Y-4.9813
X5.5375Y-4.9813
X9.1687Y-2.7312
X9.5687Y-2.7312
X8.0437Y-3.4812
X8.4437Y-3.4812
X9.9187Y-2.7312
X10.3187Y-2.7312
X2.7937Y-4.2313
X3.1938Y-4.2313
X6.1688Y-2.7312
X6.5687Y-2.7312
X9.7312Y-4.2313
X10.1312Y-4.2313
X6.3563Y-4.9813
X6.7562Y-4.9813
X2.0437Y-1.6062
X2.4438Y-1.6062
X2.7937Y-3.4812
X3.1938Y-3.4812
X9.5437Y-3.4812
X9.9437Y-3.4812
X6.6375Y-5.7313
X7.0375Y-5.7313
X8.4187Y-1.6062
X8.8187Y-1.6062
X8.6062Y-4.9813
X9.0062Y-4.9813
X7.8563Y-4.9813
X8.2562Y-4.9813
X2.7937Y-1.6062
X3.1938Y-1.6062
X4.7625Y-5.7313
X5.1625Y-5.7313
X3.5437Y-1.6062
X3.9438Y-1.6062
X3.5437Y-2.7312
X3.9438Y-2.7312
X8.9812Y-4.2313
X9.3812Y-4.2313
X8.4187Y-2.7312
X8.8187Y-2.7312
X5.9813Y-4.2313
X6.3812Y-4.2313
X6.9188Y-2.7312
X7.3187Y-2.7312
X8.7937Y-3.4812
X9.1937Y-3.4812
X4.6688Y-2.7312
X5.0687Y-2.7312
X4.95Y-4.2313
X5.35Y-4.2313
X7.6688Y-1.6062
X8.0687Y-1.6062
X4.8563Y-3.4812
X5.2562Y-3.4812
X2.7937Y-4.9813
X3.1938Y-4.9813
X4.6688Y-1.6062
X5.0687Y-1.6062
X7.2938Y-3.4812
X7.6937Y-3.4812
X2.0437Y-4.9813
X2.4438Y-4.9813
X1.6687Y-5.7313
X2.0688Y-5.7313
X6.1688Y-1.6062
X6.5687Y-1.6062
X9.3562Y-4.9813
X9.7562Y-4.9813
X1.2937Y-2.7312
X1.6937Y-2.7312
X7.1063Y-4.9813
X7.5062Y-4.9813
X2.0437Y-2.7312
X2.4438Y-2.7312
X7.6688Y-2.7312
X8.0687Y-2.7312
X2.7937Y-2.7312
X3.1938Y-2.7312
X1.2937Y-4.9813
X1.6937Y-4.9813
X2.0437Y-3.4812
X2.4438Y-3.4812
X7.4813Y-4.2313
X7.8812Y-4.2313
X3.5437Y-3.8562
X3.9438Y-3.8562
X1.2937Y-4.2313
X1.6937Y-4.2313
X5.7Y-5.7313
X6.1Y-5.7313
X1.2937Y-3.4812
X1.6937Y-3.4812
X8.2312Y-4.2313
X8.6312Y-4.2313
X9.075Y-5.7313
X9.475Y-5.7313
X9.5437Y-1.6062
X9.9437Y-1.6062
X6.5438Y-3.4812
X6.9437Y-3.4812
X6.7313Y-4.2313
X7.1312Y-4.2313
T10
X1.4002Y-5.4557
X2.3373Y-5.4557
X3.4682Y-3.3877
X3.4682Y-4.3248
X8.8065Y-5.4557
X9.7435Y-5.4557
X3.4682Y-4.8877
X3.4682Y-5.8248
X4.869Y-4.7057
X5.806Y-4.7057
T11
X8.6188Y-2.7312
X6.1812Y-4.2313
X7.1187Y-2.7312
X8.9938Y-3.4812
X4.8687Y-2.7312
X5.15Y-4.2313
X7.8687Y-1.6062
X5.0562Y-3.4812
X2.9937Y-4.9813
X4.8687Y-1.6062
X7.4937Y-3.4812
X2.2437Y-4.9813
X1.4002Y-6.0557
X1.8687Y-5.7313
X2.3373Y-6.0557
X6.3687Y-1.6062
X9.5563Y-4.9813
X1.4937Y-2.7312
X7.3062Y-4.9813
X2.2437Y-2.7312
X7.8687Y-2.7312
X2.9937Y-2.7312
X1.4937Y-4.9813
X2.2437Y-3.4812
X7.6812Y-4.2313
X3.7437Y-3.8562
X4.0682Y-3.3877
X4.0682Y-4.3248
X1.4937Y-4.2313
X5.9Y-5.7313
X1.4937Y-3.4812
X8.4313Y-4.2313
X8.8065Y-6.0557
X9.275Y-5.7313
X9.7435Y-6.0557
X9.7438Y-1.6062
X6.7437Y-3.4812
X6.9312Y-4.2313
X7.1187Y-1.6062
X2.2437Y-4.2313
X7.775Y-5.7313
X1.4937Y-1.6062
X10.3063Y-4.9813
X10.4938Y-1.6062
X2.9937Y-5.7313
X5.9937Y-3.4812
X3.7437Y-5.3563
X4.0682Y-4.8877
X4.0682Y-5.8248
X5.6187Y-2.7312
X4.869Y-5.3057
X5.3375Y-4.9813
X5.806Y-5.3057
X9.3688Y-2.7312
X8.2438Y-3.4812
X10.1188Y-2.7312
X2.9937Y-4.2313
X6.3687Y-2.7312
X9.9313Y-4.2313
X6.5562Y-4.9813
X2.2437Y-1.6062
X2.9937Y-3.4812
X9.7438Y-3.4812
X6.8375Y-5.7313
X8.6188Y-1.6062
X8.8063Y-4.9813
X8.0563Y-4.9813
X2.9937Y-1.6062
X4.9625Y-5.7313
X3.7437Y-1.6062
X3.7437Y-2.7312
X9.1813Y-4.2313
T3
G00X5.4594Y-1.4239
M15
G01X5.4594Y-1.4081
M16
G05
G00X5.4594Y-1.542
M15
G01X5.4594Y-1.5262
M16
G05
G00X5.4594Y-1.6994
M15
G01X5.4594Y-1.6837
M16
G05
G00X5.6406Y-1.7428
M15
G01X5.6406Y-1.727
M16
G05
T0
M30
