G04 #@! TF.GenerationSoftware,KiCad,Pcbnew,(5.1.4)-1*
G04 #@! TF.CreationDate,2019-10-25T22:15:33-04:00*
G04 #@! TF.ProjectId,Keyboard - Left,4b657962-6f61-4726-9420-2d204c656674,rev?*
G04 #@! TF.SameCoordinates,Original*
G04 #@! TF.FileFunction,Copper,L2,Bot*
G04 #@! TF.FilePolarity,Positive*
%FSLAX46Y46*%
G04 Gerber Fmt 4.6, Leading zero omitted, Abs format (unit mm)*
G04 Created by KiCad (PCBNEW (5.1.4)-1) date 2019-10-25 22:15:33*
%MOMM*%
%LPD*%
G04 APERTURE LIST*
%ADD10O,1.600000X2.000000*%
%ADD11C,2.200000*%
%ADD12C,2.100000*%
%ADD13C,1.750000*%
%ADD14R,1.524000X0.500000*%
%ADD15C,1.524000*%
%ADD16R,1.524000X1.524000*%
%ADD17R,0.900000X1.200000*%
%ADD18R,0.500000X1.524000*%
%ADD19R,1.200000X0.900000*%
%ADD20R,1.752600X1.752600*%
%ADD21C,1.752600*%
%ADD22C,0.800000*%
%ADD23C,0.250000*%
G04 APERTURE END LIST*
D10*
X138670000Y-38966000D03*
X138670000Y-35966000D03*
X138670000Y-42966000D03*
X143270000Y-44066000D03*
D11*
X40481250Y-35718750D03*
X34131250Y-38258750D03*
X59531250Y-35718750D03*
X53181250Y-38258750D03*
X72231250Y-38258750D03*
X78581250Y-35718750D03*
X97631250Y-35718750D03*
X91281250Y-38258750D03*
X119856250Y-38258750D03*
X126206250Y-35718750D03*
X164306250Y-35718750D03*
X157956250Y-38258750D03*
X183356250Y-35718750D03*
X177006250Y-38258750D03*
X196056250Y-38258750D03*
X202406250Y-35718750D03*
X215106250Y-38258750D03*
X221456250Y-35718750D03*
X243681250Y-38258750D03*
X250031250Y-35718750D03*
X269081250Y-35718750D03*
X262731250Y-38258750D03*
X34131250Y-66833750D03*
X40481250Y-64293750D03*
X59531250Y-64293750D03*
X53181250Y-66833750D03*
X72231250Y-66833750D03*
X78581250Y-64293750D03*
X91281250Y-66833750D03*
X97631250Y-64293750D03*
X126206250Y-64293750D03*
X119856250Y-66833750D03*
X145256250Y-64293750D03*
X138906250Y-66833750D03*
X157956250Y-66833750D03*
X164306250Y-64293750D03*
X177006250Y-66833750D03*
X183356250Y-64293750D03*
X202406250Y-64293750D03*
X196056250Y-66833750D03*
X221456250Y-64293750D03*
X215106250Y-66833750D03*
X240506250Y-64293750D03*
X234156250Y-66833750D03*
X253206250Y-66833750D03*
X259556250Y-64293750D03*
X40481250Y-83343750D03*
X34131250Y-85883750D03*
X59531250Y-83343750D03*
X53181250Y-85883750D03*
X72231250Y-85883750D03*
X78581250Y-83343750D03*
X91281250Y-95408750D03*
X97631250Y-92868750D03*
X130968750Y-83343750D03*
X124618750Y-85883750D03*
X148431250Y-85883750D03*
X154781250Y-83343750D03*
X173831250Y-83343750D03*
X167481250Y-85883750D03*
X186531250Y-85883750D03*
X192881250Y-83343750D03*
X205581250Y-85883750D03*
X211931250Y-83343750D03*
X224631250Y-85883750D03*
X230981250Y-83343750D03*
X243681250Y-85883750D03*
X250031250Y-83343750D03*
X40481250Y-102393750D03*
X34131250Y-104933750D03*
X59531250Y-102393750D03*
X53181250Y-104933750D03*
X78581250Y-102393750D03*
X72231250Y-104933750D03*
X133350000Y-102393750D03*
X127000000Y-104933750D03*
X159543750Y-102393750D03*
X153193750Y-104933750D03*
X172243750Y-104933750D03*
X178593750Y-102393750D03*
X191293750Y-104933750D03*
X197643750Y-102393750D03*
X216693750Y-102393750D03*
X210343750Y-104933750D03*
X235743750Y-102393750D03*
X229393750Y-104933750D03*
X254793750Y-102393750D03*
X248443750Y-104933750D03*
X40481250Y-121443750D03*
X34131250Y-123983750D03*
X59531250Y-121443750D03*
X53181250Y-123983750D03*
X72231250Y-123983750D03*
X78581250Y-121443750D03*
X97631250Y-130968750D03*
X91281250Y-133508750D03*
X138112500Y-121443750D03*
X131762500Y-123983750D03*
X162718750Y-123983750D03*
X169068750Y-121443750D03*
X188118750Y-121443750D03*
X181768750Y-123983750D03*
X207168750Y-121443750D03*
X200818750Y-123983750D03*
X219868750Y-123983750D03*
X226218750Y-121443750D03*
X238918750Y-123983750D03*
X245268750Y-121443750D03*
X257968750Y-123983750D03*
X264318750Y-121443750D03*
X50006250Y-140493750D03*
X43656250Y-143033750D03*
X72231250Y-143033750D03*
X78581250Y-140493750D03*
X128587500Y-140493750D03*
X122237500Y-143033750D03*
X146050000Y-143033750D03*
X152400000Y-140493750D03*
X176212500Y-140493750D03*
X169862500Y-143033750D03*
X193675000Y-143033750D03*
X200025000Y-140493750D03*
X238125000Y-140493750D03*
X231775000Y-143033750D03*
D12*
X105746000Y-36526000D03*
D13*
X107006000Y-34036000D03*
X111506000Y-34036000D03*
D12*
X112756000Y-36526000D03*
D14*
X40132000Y-49276000D03*
X35052000Y-49276000D03*
D15*
X33782000Y-49276000D03*
D16*
X41402000Y-49276000D03*
D17*
X35942000Y-49276000D03*
X39242000Y-49276000D03*
D14*
X59944000Y-49276000D03*
X54864000Y-49276000D03*
D15*
X53594000Y-49276000D03*
D16*
X61214000Y-49276000D03*
D17*
X55754000Y-49276000D03*
X59054000Y-49276000D03*
D18*
X66548000Y-44450000D03*
X66548000Y-39370000D03*
D15*
X66548000Y-38100000D03*
D16*
X66548000Y-45720000D03*
D19*
X66548000Y-40260000D03*
X66548000Y-43560000D03*
X85344000Y-43814000D03*
X85344000Y-40514000D03*
D16*
X85344000Y-45974000D03*
D15*
X85344000Y-38354000D03*
D18*
X85344000Y-39624000D03*
X85344000Y-44704000D03*
X114300000Y-46228000D03*
X114300000Y-41148000D03*
D15*
X114300000Y-39878000D03*
D16*
X114300000Y-47498000D03*
D19*
X114300000Y-42038000D03*
X114300000Y-45338000D03*
X152146000Y-43814000D03*
X152146000Y-40514000D03*
D16*
X152146000Y-45974000D03*
D15*
X152146000Y-38354000D03*
D18*
X152146000Y-39624000D03*
X152146000Y-44704000D03*
X171450000Y-44704000D03*
X171450000Y-39624000D03*
D15*
X171450000Y-38354000D03*
D16*
X171450000Y-45974000D03*
D19*
X171450000Y-40514000D03*
X171450000Y-43814000D03*
D18*
X190500000Y-44450000D03*
X190500000Y-39370000D03*
D15*
X190500000Y-38100000D03*
D16*
X190500000Y-45720000D03*
D19*
X190500000Y-40260000D03*
X190500000Y-43560000D03*
X209550000Y-43814000D03*
X209550000Y-40514000D03*
D16*
X209550000Y-45974000D03*
D15*
X209550000Y-38354000D03*
D18*
X209550000Y-39624000D03*
X209550000Y-44704000D03*
X237744000Y-44704000D03*
X237744000Y-39624000D03*
D15*
X237744000Y-38354000D03*
D16*
X237744000Y-45974000D03*
D19*
X237744000Y-40514000D03*
X237744000Y-43814000D03*
D18*
X257175000Y-44704000D03*
X257175000Y-39624000D03*
D15*
X257175000Y-38354000D03*
D16*
X257175000Y-45974000D03*
D19*
X257175000Y-40514000D03*
X257175000Y-43814000D03*
X47498000Y-72262000D03*
X47498000Y-68962000D03*
D16*
X47498000Y-74422000D03*
D15*
X47498000Y-66802000D03*
D18*
X47498000Y-68072000D03*
X47498000Y-73152000D03*
D19*
X67056000Y-72262000D03*
X67056000Y-68962000D03*
D16*
X67056000Y-74422000D03*
D15*
X67056000Y-66802000D03*
D18*
X67056000Y-68072000D03*
X67056000Y-73152000D03*
X85344000Y-73152000D03*
X85344000Y-68072000D03*
D15*
X85344000Y-66802000D03*
D16*
X85344000Y-74422000D03*
D19*
X85344000Y-68962000D03*
X85344000Y-72262000D03*
D18*
X104394000Y-73152000D03*
X104394000Y-68072000D03*
D15*
X104394000Y-66802000D03*
D16*
X104394000Y-74422000D03*
D19*
X104394000Y-68962000D03*
X104394000Y-72262000D03*
X114046000Y-72262000D03*
X114046000Y-68962000D03*
D16*
X114046000Y-74422000D03*
D15*
X114046000Y-66802000D03*
D18*
X114046000Y-68072000D03*
X114046000Y-73152000D03*
D19*
X133096000Y-72262000D03*
X133096000Y-68962000D03*
D16*
X133096000Y-74422000D03*
D15*
X133096000Y-66802000D03*
D18*
X133096000Y-68072000D03*
X133096000Y-73152000D03*
X152146000Y-73152000D03*
X152146000Y-68072000D03*
D15*
X152146000Y-66802000D03*
D16*
X152146000Y-74422000D03*
D19*
X152146000Y-68962000D03*
X152146000Y-72262000D03*
X171196000Y-72262000D03*
X171196000Y-68962000D03*
D16*
X171196000Y-74422000D03*
D15*
X171196000Y-66802000D03*
D18*
X171196000Y-68072000D03*
X171196000Y-73152000D03*
D19*
X190246000Y-72516000D03*
X190246000Y-69216000D03*
D16*
X190246000Y-74676000D03*
D15*
X190246000Y-67056000D03*
D18*
X190246000Y-68326000D03*
X190246000Y-73406000D03*
X209550000Y-73152000D03*
X209550000Y-68072000D03*
D15*
X209550000Y-66802000D03*
D16*
X209550000Y-74422000D03*
D19*
X209550000Y-68962000D03*
X209550000Y-72262000D03*
X228346000Y-72262000D03*
X228346000Y-68962000D03*
D16*
X228346000Y-74422000D03*
D15*
X228346000Y-66802000D03*
D18*
X228346000Y-68072000D03*
X228346000Y-73152000D03*
D19*
X247396000Y-72516000D03*
X247396000Y-69216000D03*
D16*
X247396000Y-74676000D03*
D15*
X247396000Y-67056000D03*
D18*
X247396000Y-68326000D03*
X247396000Y-73406000D03*
X47752000Y-92202000D03*
X47752000Y-87122000D03*
D15*
X47752000Y-85852000D03*
D16*
X47752000Y-93472000D03*
D19*
X47752000Y-88012000D03*
X47752000Y-91312000D03*
D18*
X67056000Y-92202000D03*
X67056000Y-87122000D03*
D15*
X67056000Y-85852000D03*
D16*
X67056000Y-93472000D03*
D19*
X67056000Y-88012000D03*
X67056000Y-91312000D03*
X85598000Y-94360000D03*
X85598000Y-91060000D03*
D16*
X85598000Y-96520000D03*
D15*
X85598000Y-88900000D03*
D18*
X85598000Y-90170000D03*
X85598000Y-95250000D03*
D19*
X104648000Y-100964000D03*
X104648000Y-97664000D03*
D16*
X104648000Y-103124000D03*
D15*
X104648000Y-95504000D03*
D18*
X104648000Y-96774000D03*
X104648000Y-101854000D03*
X117856000Y-92202000D03*
X117856000Y-87122000D03*
D15*
X117856000Y-85852000D03*
D16*
X117856000Y-93472000D03*
D19*
X117856000Y-88012000D03*
X117856000Y-91312000D03*
D18*
X142748000Y-92202000D03*
X142748000Y-87122000D03*
D15*
X142748000Y-85852000D03*
D16*
X142748000Y-93472000D03*
D19*
X142748000Y-88012000D03*
X142748000Y-91312000D03*
X161798000Y-91312000D03*
X161798000Y-88012000D03*
D16*
X161798000Y-93472000D03*
D15*
X161798000Y-85852000D03*
D18*
X161798000Y-87122000D03*
X161798000Y-92202000D03*
X180848000Y-92456000D03*
X180848000Y-87376000D03*
D15*
X180848000Y-86106000D03*
D16*
X180848000Y-93726000D03*
D19*
X180848000Y-88266000D03*
X180848000Y-91566000D03*
D18*
X199644000Y-92202000D03*
X199644000Y-87122000D03*
D15*
X199644000Y-85852000D03*
D16*
X199644000Y-93472000D03*
D19*
X199644000Y-88012000D03*
X199644000Y-91312000D03*
X218694000Y-91312000D03*
X218694000Y-88012000D03*
D16*
X218694000Y-93472000D03*
D15*
X218694000Y-85852000D03*
D18*
X218694000Y-87122000D03*
X218694000Y-92202000D03*
X237998000Y-92456000D03*
X237998000Y-87376000D03*
D15*
X237998000Y-86106000D03*
D16*
X237998000Y-93726000D03*
D19*
X237998000Y-88266000D03*
X237998000Y-91566000D03*
X47752000Y-110362000D03*
X47752000Y-107062000D03*
D16*
X47752000Y-112522000D03*
D15*
X47752000Y-104902000D03*
D18*
X47752000Y-106172000D03*
X47752000Y-111252000D03*
D19*
X66548000Y-110362000D03*
X66548000Y-107062000D03*
D16*
X66548000Y-112522000D03*
D15*
X66548000Y-104902000D03*
D18*
X66548000Y-106172000D03*
X66548000Y-111252000D03*
X85344000Y-118872000D03*
X85344000Y-113792000D03*
D15*
X85344000Y-112522000D03*
D16*
X85344000Y-120142000D03*
D19*
X85344000Y-114682000D03*
X85344000Y-117982000D03*
D18*
X120396000Y-111252000D03*
X120396000Y-106172000D03*
D15*
X120396000Y-104902000D03*
D16*
X120396000Y-112522000D03*
D19*
X120396000Y-107062000D03*
X120396000Y-110362000D03*
X147066000Y-110362000D03*
X147066000Y-107062000D03*
D16*
X147066000Y-112522000D03*
D15*
X147066000Y-104902000D03*
D18*
X147066000Y-106172000D03*
X147066000Y-111252000D03*
X166624000Y-111252000D03*
X166624000Y-106172000D03*
D15*
X166624000Y-104902000D03*
D16*
X166624000Y-112522000D03*
D19*
X166624000Y-107062000D03*
X166624000Y-110362000D03*
X185420000Y-110362000D03*
X185420000Y-107062000D03*
D16*
X185420000Y-112522000D03*
D15*
X185420000Y-104902000D03*
D18*
X185420000Y-106172000D03*
X185420000Y-111252000D03*
D19*
X204724000Y-110362000D03*
X204724000Y-107062000D03*
D16*
X204724000Y-112522000D03*
D15*
X204724000Y-104902000D03*
D18*
X204724000Y-106172000D03*
X204724000Y-111252000D03*
X223774000Y-111252000D03*
X223774000Y-106172000D03*
D15*
X223774000Y-104902000D03*
D16*
X223774000Y-112522000D03*
D19*
X223774000Y-107062000D03*
X223774000Y-110362000D03*
X242570000Y-110362000D03*
X242570000Y-107062000D03*
D16*
X242570000Y-112522000D03*
D15*
X242570000Y-104902000D03*
D18*
X242570000Y-106172000D03*
X242570000Y-111252000D03*
X47498000Y-130302000D03*
X47498000Y-125222000D03*
D15*
X47498000Y-123952000D03*
D16*
X47498000Y-131572000D03*
D19*
X47498000Y-126112000D03*
X47498000Y-129412000D03*
D18*
X66548000Y-130302000D03*
X66548000Y-125222000D03*
D15*
X66548000Y-123952000D03*
D16*
X66548000Y-131572000D03*
D19*
X66548000Y-126112000D03*
X66548000Y-129412000D03*
X85598000Y-132968000D03*
X85598000Y-129668000D03*
D16*
X85598000Y-135128000D03*
D15*
X85598000Y-127508000D03*
D18*
X85598000Y-128778000D03*
X85598000Y-133858000D03*
X104648000Y-139700000D03*
X104648000Y-134620000D03*
D15*
X104648000Y-133350000D03*
D16*
X104648000Y-140970000D03*
D19*
X104648000Y-135510000D03*
X104648000Y-138810000D03*
X126492000Y-128142000D03*
X126492000Y-124842000D03*
D16*
X126492000Y-130302000D03*
D15*
X126492000Y-122682000D03*
D18*
X126492000Y-123952000D03*
X126492000Y-129032000D03*
X156972000Y-130302000D03*
X156972000Y-125222000D03*
D15*
X156972000Y-123952000D03*
D16*
X156972000Y-131572000D03*
D19*
X156972000Y-126112000D03*
X156972000Y-129412000D03*
X176022000Y-129412000D03*
X176022000Y-126112000D03*
D16*
X176022000Y-131572000D03*
D15*
X176022000Y-123952000D03*
D18*
X176022000Y-125222000D03*
X176022000Y-130302000D03*
X195326000Y-130302000D03*
X195326000Y-125222000D03*
D15*
X195326000Y-123952000D03*
D16*
X195326000Y-131572000D03*
D19*
X195326000Y-126112000D03*
X195326000Y-129412000D03*
D18*
X214122000Y-130302000D03*
X214122000Y-125222000D03*
D15*
X214122000Y-123952000D03*
D16*
X214122000Y-131572000D03*
D19*
X214122000Y-126112000D03*
X214122000Y-129412000D03*
X233172000Y-129412000D03*
X233172000Y-126112000D03*
D16*
X233172000Y-131572000D03*
D15*
X233172000Y-123952000D03*
D18*
X233172000Y-125222000D03*
X233172000Y-130302000D03*
X252222000Y-130556000D03*
X252222000Y-125476000D03*
D15*
X252222000Y-124206000D03*
D16*
X252222000Y-131826000D03*
D19*
X252222000Y-126366000D03*
X252222000Y-129666000D03*
X37846000Y-148462000D03*
X37846000Y-145162000D03*
D16*
X37846000Y-150622000D03*
D15*
X37846000Y-143002000D03*
D18*
X37846000Y-144272000D03*
X37846000Y-149352000D03*
D19*
X66294000Y-148462000D03*
X66294000Y-145162000D03*
D16*
X66294000Y-150622000D03*
D15*
X66294000Y-143002000D03*
D18*
X66294000Y-144272000D03*
X66294000Y-149352000D03*
D19*
X116078000Y-148462000D03*
X116078000Y-145162000D03*
D16*
X116078000Y-150622000D03*
D15*
X116078000Y-143002000D03*
D18*
X116078000Y-144272000D03*
X116078000Y-149352000D03*
D19*
X140208000Y-148462000D03*
X140208000Y-145162000D03*
D16*
X140208000Y-150622000D03*
D15*
X140208000Y-143002000D03*
D18*
X140208000Y-144272000D03*
X140208000Y-149352000D03*
D19*
X164084000Y-148462000D03*
X164084000Y-145162000D03*
D16*
X164084000Y-150622000D03*
D15*
X164084000Y-143002000D03*
D18*
X164084000Y-144272000D03*
X164084000Y-149352000D03*
D19*
X187960000Y-148716000D03*
X187960000Y-145416000D03*
D16*
X187960000Y-150876000D03*
D15*
X187960000Y-143256000D03*
D18*
X187960000Y-144526000D03*
X187960000Y-149606000D03*
X226314000Y-148336000D03*
X226314000Y-143256000D03*
D15*
X226314000Y-141986000D03*
D16*
X226314000Y-149606000D03*
D19*
X226314000Y-144146000D03*
X226314000Y-147446000D03*
D17*
X139320000Y-46990000D03*
X142620000Y-46990000D03*
D15*
X137160000Y-46990000D03*
X144780000Y-46990000D03*
D14*
X143510000Y-46990000D03*
X138430000Y-46990000D03*
X138430000Y-51054000D03*
X143510000Y-51054000D03*
D15*
X144780000Y-51054000D03*
X137160000Y-51054000D03*
D17*
X142620000Y-51054000D03*
X139320000Y-51054000D03*
D20*
X45466000Y-33020000D03*
D21*
X45466000Y-35560000D03*
X45466000Y-38100000D03*
X45466000Y-40640000D03*
X45466000Y-43180000D03*
X45466000Y-45720000D03*
X45466000Y-48260000D03*
X45466000Y-50800000D03*
X45466000Y-53340000D03*
X45466000Y-55880000D03*
X45466000Y-58420000D03*
X30226000Y-60960000D03*
X30226000Y-58420000D03*
X30226000Y-55880000D03*
X30226000Y-53340000D03*
X30226000Y-50800000D03*
X30226000Y-48260000D03*
X30226000Y-45720000D03*
X30226000Y-43180000D03*
X30226000Y-40640000D03*
X30226000Y-38100000D03*
X30226000Y-35560000D03*
X45237400Y-60960000D03*
X30226000Y-33020000D03*
X32766000Y-60960000D03*
X35306000Y-60960000D03*
X37846000Y-60960000D03*
X40386000Y-60960000D03*
X42926000Y-60960000D03*
D22*
X104394000Y-76454000D03*
X114046000Y-76454000D03*
X106426000Y-103124000D03*
X117856000Y-103124000D03*
X105156000Y-113538000D03*
X112776000Y-113538000D03*
X106680000Y-140970000D03*
X114046000Y-140970000D03*
D23*
X43942000Y-49276000D02*
X45466000Y-50800000D01*
X41402000Y-49276000D02*
X43942000Y-49276000D01*
X104394000Y-76454000D02*
X114046000Y-76454000D01*
X106426000Y-103124000D02*
X117856000Y-103124000D01*
X105156000Y-113538000D02*
X112776000Y-113538000D01*
X106680000Y-140970000D02*
X114046000Y-140970000D01*
X137620000Y-42966000D02*
X138670000Y-42966000D01*
X137160000Y-43426000D02*
X137620000Y-42966000D01*
X137160000Y-46990000D02*
X137160000Y-43426000D01*
X137620000Y-38966000D02*
X131420000Y-32766000D01*
X138670000Y-38966000D02*
X137620000Y-38966000D01*
X131420000Y-32766000D02*
X53340000Y-32766000D01*
X53340000Y-32766000D02*
X48768000Y-37338000D01*
X145541999Y-46228001D02*
X145541999Y-43433999D01*
X144780000Y-46990000D02*
X145541999Y-46228001D01*
X141074000Y-38966000D02*
X138670000Y-38966000D01*
X145541999Y-43433999D02*
X141074000Y-38966000D01*
X48768000Y-42418000D02*
X48768000Y-41402000D01*
X45466000Y-45720000D02*
X48768000Y-42418000D01*
X48768000Y-37338000D02*
X48768000Y-41402000D01*
X48768000Y-41402000D02*
X48768000Y-41656000D01*
X145992009Y-42238009D02*
X139720000Y-35966000D01*
X139720000Y-35966000D02*
X138670000Y-35966000D01*
X145992009Y-49841991D02*
X145992009Y-42238009D01*
X144780000Y-51054000D02*
X145992009Y-49841991D01*
X135256410Y-35966000D02*
X138670000Y-35966000D01*
X131548410Y-32258000D02*
X135256410Y-35966000D01*
X53211590Y-32258000D02*
X131548410Y-32258000D01*
X48260000Y-37209590D02*
X53211590Y-32258000D01*
X45466000Y-43180000D02*
X48260000Y-40386000D01*
X48260000Y-40386000D02*
X48260000Y-37209590D01*
X40481250Y-129413116D02*
X40481250Y-121443750D01*
X50006250Y-140493750D02*
X50006250Y-138938116D01*
X50006250Y-138938116D02*
X40481250Y-129413116D01*
X40481250Y-121443750D02*
X40481250Y-102393750D01*
X40481250Y-102393750D02*
X40481250Y-83343750D01*
X40481250Y-83343750D02*
X40481250Y-64293750D01*
X45237400Y-63220600D02*
X45237400Y-60960000D01*
X44196000Y-64262000D02*
X45237400Y-63220600D01*
X42068634Y-64262000D02*
X44196000Y-64262000D01*
X40481250Y-64293750D02*
X42036884Y-64293750D01*
X42036884Y-64293750D02*
X42068634Y-64262000D01*
X59531250Y-119888116D02*
X59531250Y-102393750D01*
X59531250Y-121443750D02*
X59531250Y-119888116D01*
X59531250Y-102393750D02*
X59531250Y-83343750D01*
X59531250Y-68472748D02*
X59531250Y-64293750D01*
X59531250Y-83343750D02*
X59531250Y-68472748D01*
X64262000Y-50546000D02*
X64262000Y-50546000D01*
X64262000Y-59563000D02*
X59531250Y-64293750D01*
X59531250Y-35718750D02*
X64262000Y-40449500D01*
X64262000Y-40449500D02*
X64262000Y-59563000D01*
X78581250Y-65849384D02*
X78581250Y-83343750D01*
X78581250Y-64293750D02*
X78581250Y-65849384D01*
X78581250Y-83343750D02*
X78581250Y-102393750D01*
X78581250Y-102393750D02*
X78581250Y-121443750D01*
X78581250Y-122999384D02*
X78581250Y-140493750D01*
X78581250Y-121443750D02*
X78581250Y-122999384D01*
X78581250Y-35718750D02*
X78581250Y-64293750D01*
X97631250Y-130968750D02*
X97631250Y-92868750D01*
X97631250Y-91313116D02*
X97631250Y-64293750D01*
X97631250Y-92868750D02*
X97631250Y-91313116D01*
X97631250Y-64293750D02*
X97631250Y-62738116D01*
X97631250Y-62738116D02*
X97631250Y-35718750D01*
X126365000Y-64135000D02*
X126206250Y-64293750D01*
X126206250Y-78581250D02*
X130968750Y-83343750D01*
X126206250Y-64293750D02*
X126206250Y-78581250D01*
X130968750Y-100012500D02*
X133350000Y-102393750D01*
X130968750Y-83343750D02*
X130968750Y-100012500D01*
X138112500Y-107156250D02*
X138112500Y-121443750D01*
X133350000Y-102393750D02*
X138112500Y-107156250D01*
X138112500Y-130968750D02*
X128587500Y-140493750D01*
X138112500Y-121443750D02*
X138112500Y-130968750D01*
X126206250Y-64293750D02*
X126206250Y-35718750D01*
X164306250Y-37274384D02*
X164306250Y-64293750D01*
X164306250Y-35718750D02*
X164306250Y-37274384D01*
X164306250Y-73818750D02*
X173831250Y-83343750D01*
X164306250Y-64293750D02*
X164306250Y-73818750D01*
X177493751Y-101293751D02*
X178593750Y-102393750D01*
X173616251Y-97416251D02*
X177493751Y-101293751D01*
X173616251Y-83558749D02*
X173616251Y-97416251D01*
X173831250Y-83343750D02*
X173616251Y-83558749D01*
X178593750Y-111918750D02*
X188118750Y-121443750D01*
X178593750Y-102393750D02*
X178593750Y-111918750D01*
X188118750Y-128587500D02*
X176212500Y-140493750D01*
X188118750Y-121443750D02*
X188118750Y-128587500D01*
X207168750Y-133350000D02*
X207168750Y-121443750D01*
X200025000Y-140493750D02*
X207168750Y-133350000D01*
X197643750Y-103949384D02*
X197643750Y-102393750D01*
X197643750Y-110363116D02*
X197643750Y-103949384D01*
X207168750Y-119888116D02*
X197643750Y-110363116D01*
X207168750Y-121443750D02*
X207168750Y-119888116D01*
X197643750Y-88106250D02*
X192881250Y-83343750D01*
X197643750Y-102393750D02*
X197643750Y-88106250D01*
X183356250Y-73818750D02*
X183356250Y-64293750D01*
X192881250Y-83343750D02*
X183356250Y-73818750D01*
X183356250Y-64293750D02*
X183356250Y-35718750D01*
X202406250Y-35718750D02*
X202406250Y-64293750D01*
X202406250Y-73818750D02*
X211931250Y-83343750D01*
X202406250Y-64293750D02*
X202406250Y-73818750D01*
X211931250Y-97631250D02*
X216693750Y-102393750D01*
X211931250Y-83343750D02*
X211931250Y-97631250D01*
X216693750Y-111918750D02*
X226218750Y-121443750D01*
X216693750Y-102393750D02*
X216693750Y-111918750D01*
X245268750Y-122999384D02*
X245268750Y-121443750D01*
X245268750Y-131794366D02*
X245268750Y-122999384D01*
X238125000Y-138938116D02*
X245268750Y-131794366D01*
X238125000Y-140493750D02*
X238125000Y-138938116D01*
X235743750Y-111918750D02*
X235743750Y-102393750D01*
X245268750Y-121443750D02*
X235743750Y-111918750D01*
X235743750Y-88106250D02*
X230981250Y-83343750D01*
X235743750Y-102393750D02*
X235743750Y-88106250D01*
X221456250Y-65849384D02*
X221456250Y-64293750D01*
X221456250Y-72263116D02*
X221456250Y-65849384D01*
X230981250Y-81788116D02*
X221456250Y-72263116D01*
X230981250Y-83343750D02*
X230981250Y-81788116D01*
X221456250Y-64293750D02*
X221456250Y-35718750D01*
X241606249Y-63193751D02*
X240506250Y-64293750D01*
X249816251Y-54983749D02*
X241606249Y-63193751D01*
X249816251Y-37489383D02*
X249816251Y-54983749D01*
X250031250Y-37274384D02*
X249816251Y-37489383D01*
X250031250Y-35718750D02*
X250031250Y-37274384D01*
X240506250Y-73818750D02*
X250031250Y-83343750D01*
X240506250Y-64293750D02*
X240506250Y-73818750D01*
X250031250Y-97631250D02*
X254793750Y-102393750D01*
X250031250Y-83343750D02*
X250031250Y-97631250D01*
X254793750Y-111918750D02*
X264318750Y-121443750D01*
X254793750Y-102393750D02*
X254793750Y-111918750D01*
X259556250Y-62738116D02*
X265176000Y-57118366D01*
X259556250Y-64293750D02*
X259556250Y-62738116D01*
X265176000Y-57118366D02*
X265176000Y-47244000D01*
X269081250Y-43338750D02*
X269081250Y-35718750D01*
X265176000Y-47244000D02*
X269081250Y-43338750D01*
X169068750Y-122999384D02*
X169068750Y-121443750D01*
X169068750Y-127424752D02*
X169068750Y-122999384D01*
X157099751Y-139393751D02*
X169068750Y-127424752D01*
X153499999Y-139393751D02*
X157099751Y-139393751D01*
X152400000Y-140493750D02*
X153499999Y-139393751D01*
X159543750Y-111918750D02*
X159543750Y-102393750D01*
X169068750Y-121443750D02*
X159543750Y-111918750D01*
X159543750Y-88106250D02*
X154781250Y-83343750D01*
X159543750Y-102393750D02*
X159543750Y-88106250D01*
X145256250Y-73818750D02*
X145256250Y-64293750D01*
X154781250Y-83343750D02*
X145256250Y-73818750D01*
X30226000Y-35560000D02*
X33782000Y-35560000D01*
X36322000Y-38100000D02*
X45466000Y-38100000D01*
X33782000Y-35560000D02*
X36322000Y-38100000D01*
M02*
