G04 #@! TF.GenerationSoftware,KiCad,Pcbnew,(5.1.4)-1*
G04 #@! TF.CreationDate,2019-10-25T22:15:33-04:00*
G04 #@! TF.ProjectId,Keyboard - Left,4b657962-6f61-4726-9420-2d204c656674,rev?*
G04 #@! TF.SameCoordinates,Original*
G04 #@! TF.FileFunction,Legend,Top*
G04 #@! TF.FilePolarity,Positive*
%FSLAX46Y46*%
G04 Gerber Fmt 4.6, Leading zero omitted, Abs format (unit mm)*
G04 Created by KiCad (PCBNEW (5.1.4)-1) date 2019-10-25 22:15:33*
%MOMM*%
%LPD*%
G04 APERTURE LIST*
%ADD10C,0.120000*%
%ADD11C,0.381000*%
%ADD12C,0.150000*%
G04 APERTURE END LIST*
D10*
X30956250Y-33813750D02*
X44926250Y-33813750D01*
X44926250Y-33813750D02*
X44926250Y-47783750D01*
X44926250Y-47783750D02*
X30956250Y-47783750D01*
X30956250Y-47783750D02*
X30956250Y-33813750D01*
X50006250Y-33813750D02*
X63976250Y-33813750D01*
X63976250Y-33813750D02*
X63976250Y-47783750D01*
X63976250Y-47783750D02*
X50006250Y-47783750D01*
X50006250Y-47783750D02*
X50006250Y-33813750D01*
X69056250Y-47783750D02*
X69056250Y-33813750D01*
X83026250Y-47783750D02*
X69056250Y-47783750D01*
X83026250Y-33813750D02*
X83026250Y-47783750D01*
X69056250Y-33813750D02*
X83026250Y-33813750D01*
X88106250Y-33813750D02*
X102076250Y-33813750D01*
X102076250Y-33813750D02*
X102076250Y-47783750D01*
X102076250Y-47783750D02*
X88106250Y-47783750D01*
X88106250Y-47783750D02*
X88106250Y-33813750D01*
X116681250Y-47783750D02*
X116681250Y-33813750D01*
X130651250Y-47783750D02*
X116681250Y-47783750D01*
X130651250Y-33813750D02*
X130651250Y-47783750D01*
X116681250Y-33813750D02*
X130651250Y-33813750D01*
X154781250Y-33813750D02*
X168751250Y-33813750D01*
X168751250Y-33813750D02*
X168751250Y-47783750D01*
X168751250Y-47783750D02*
X154781250Y-47783750D01*
X154781250Y-47783750D02*
X154781250Y-33813750D01*
X173831250Y-33813750D02*
X187801250Y-33813750D01*
X187801250Y-33813750D02*
X187801250Y-47783750D01*
X187801250Y-47783750D02*
X173831250Y-47783750D01*
X173831250Y-47783750D02*
X173831250Y-33813750D01*
X192881250Y-47783750D02*
X192881250Y-33813750D01*
X206851250Y-47783750D02*
X192881250Y-47783750D01*
X206851250Y-33813750D02*
X206851250Y-47783750D01*
X192881250Y-33813750D02*
X206851250Y-33813750D01*
X211931250Y-47783750D02*
X211931250Y-33813750D01*
X225901250Y-47783750D02*
X211931250Y-47783750D01*
X225901250Y-33813750D02*
X225901250Y-47783750D01*
X211931250Y-33813750D02*
X225901250Y-33813750D01*
X240506250Y-47783750D02*
X240506250Y-33813750D01*
X254476250Y-47783750D02*
X240506250Y-47783750D01*
X254476250Y-33813750D02*
X254476250Y-47783750D01*
X240506250Y-33813750D02*
X254476250Y-33813750D01*
X259556250Y-33813750D02*
X273526250Y-33813750D01*
X273526250Y-33813750D02*
X273526250Y-47783750D01*
X273526250Y-47783750D02*
X259556250Y-47783750D01*
X259556250Y-47783750D02*
X259556250Y-33813750D01*
X30956250Y-76358750D02*
X30956250Y-62388750D01*
X44926250Y-76358750D02*
X30956250Y-76358750D01*
X44926250Y-62388750D02*
X44926250Y-76358750D01*
X30956250Y-62388750D02*
X44926250Y-62388750D01*
X50006250Y-62388750D02*
X63976250Y-62388750D01*
X63976250Y-62388750D02*
X63976250Y-76358750D01*
X63976250Y-76358750D02*
X50006250Y-76358750D01*
X50006250Y-76358750D02*
X50006250Y-62388750D01*
X69056250Y-76358750D02*
X69056250Y-62388750D01*
X83026250Y-76358750D02*
X69056250Y-76358750D01*
X83026250Y-62388750D02*
X83026250Y-76358750D01*
X69056250Y-62388750D02*
X83026250Y-62388750D01*
X88106250Y-76358750D02*
X88106250Y-62388750D01*
X102076250Y-76358750D02*
X88106250Y-76358750D01*
X102076250Y-62388750D02*
X102076250Y-76358750D01*
X88106250Y-62388750D02*
X102076250Y-62388750D01*
X116681250Y-62388750D02*
X130651250Y-62388750D01*
X130651250Y-62388750D02*
X130651250Y-76358750D01*
X130651250Y-76358750D02*
X116681250Y-76358750D01*
X116681250Y-76358750D02*
X116681250Y-62388750D01*
X135731250Y-62388750D02*
X149701250Y-62388750D01*
X149701250Y-62388750D02*
X149701250Y-76358750D01*
X149701250Y-76358750D02*
X135731250Y-76358750D01*
X135731250Y-76358750D02*
X135731250Y-62388750D01*
X154781250Y-76358750D02*
X154781250Y-62388750D01*
X168751250Y-76358750D02*
X154781250Y-76358750D01*
X168751250Y-62388750D02*
X168751250Y-76358750D01*
X154781250Y-62388750D02*
X168751250Y-62388750D01*
X173831250Y-76358750D02*
X173831250Y-62388750D01*
X187801250Y-76358750D02*
X173831250Y-76358750D01*
X187801250Y-62388750D02*
X187801250Y-76358750D01*
X173831250Y-62388750D02*
X187801250Y-62388750D01*
X192881250Y-62388750D02*
X206851250Y-62388750D01*
X206851250Y-62388750D02*
X206851250Y-76358750D01*
X206851250Y-76358750D02*
X192881250Y-76358750D01*
X192881250Y-76358750D02*
X192881250Y-62388750D01*
X211931250Y-62388750D02*
X225901250Y-62388750D01*
X225901250Y-62388750D02*
X225901250Y-76358750D01*
X225901250Y-76358750D02*
X211931250Y-76358750D01*
X211931250Y-76358750D02*
X211931250Y-62388750D01*
X230981250Y-62388750D02*
X244951250Y-62388750D01*
X244951250Y-62388750D02*
X244951250Y-76358750D01*
X244951250Y-76358750D02*
X230981250Y-76358750D01*
X230981250Y-76358750D02*
X230981250Y-62388750D01*
X250031250Y-76358750D02*
X250031250Y-62388750D01*
X264001250Y-76358750D02*
X250031250Y-76358750D01*
X264001250Y-62388750D02*
X264001250Y-76358750D01*
X250031250Y-62388750D02*
X264001250Y-62388750D01*
X30956250Y-81438750D02*
X44926250Y-81438750D01*
X44926250Y-81438750D02*
X44926250Y-95408750D01*
X44926250Y-95408750D02*
X30956250Y-95408750D01*
X30956250Y-95408750D02*
X30956250Y-81438750D01*
X50006250Y-81438750D02*
X63976250Y-81438750D01*
X63976250Y-81438750D02*
X63976250Y-95408750D01*
X63976250Y-95408750D02*
X50006250Y-95408750D01*
X50006250Y-95408750D02*
X50006250Y-81438750D01*
X69056250Y-95408750D02*
X69056250Y-81438750D01*
X83026250Y-95408750D02*
X69056250Y-95408750D01*
X83026250Y-81438750D02*
X83026250Y-95408750D01*
X69056250Y-81438750D02*
X83026250Y-81438750D01*
X88106250Y-104933750D02*
X88106250Y-90963750D01*
X102076250Y-104933750D02*
X88106250Y-104933750D01*
X102076250Y-90963750D02*
X102076250Y-104933750D01*
X88106250Y-90963750D02*
X102076250Y-90963750D01*
X121443750Y-81438750D02*
X135413750Y-81438750D01*
X135413750Y-81438750D02*
X135413750Y-95408750D01*
X135413750Y-95408750D02*
X121443750Y-95408750D01*
X121443750Y-95408750D02*
X121443750Y-81438750D01*
X145256250Y-95408750D02*
X145256250Y-81438750D01*
X159226250Y-95408750D02*
X145256250Y-95408750D01*
X159226250Y-81438750D02*
X159226250Y-95408750D01*
X145256250Y-81438750D02*
X159226250Y-81438750D01*
X164306250Y-81438750D02*
X178276250Y-81438750D01*
X178276250Y-81438750D02*
X178276250Y-95408750D01*
X178276250Y-95408750D02*
X164306250Y-95408750D01*
X164306250Y-95408750D02*
X164306250Y-81438750D01*
X183356250Y-95408750D02*
X183356250Y-81438750D01*
X197326250Y-95408750D02*
X183356250Y-95408750D01*
X197326250Y-81438750D02*
X197326250Y-95408750D01*
X183356250Y-81438750D02*
X197326250Y-81438750D01*
X202406250Y-95408750D02*
X202406250Y-81438750D01*
X216376250Y-95408750D02*
X202406250Y-95408750D01*
X216376250Y-81438750D02*
X216376250Y-95408750D01*
X202406250Y-81438750D02*
X216376250Y-81438750D01*
X221456250Y-95408750D02*
X221456250Y-81438750D01*
X235426250Y-95408750D02*
X221456250Y-95408750D01*
X235426250Y-81438750D02*
X235426250Y-95408750D01*
X221456250Y-81438750D02*
X235426250Y-81438750D01*
X240506250Y-95408750D02*
X240506250Y-81438750D01*
X254476250Y-95408750D02*
X240506250Y-95408750D01*
X254476250Y-81438750D02*
X254476250Y-95408750D01*
X240506250Y-81438750D02*
X254476250Y-81438750D01*
X30956250Y-100488750D02*
X44926250Y-100488750D01*
X44926250Y-100488750D02*
X44926250Y-114458750D01*
X44926250Y-114458750D02*
X30956250Y-114458750D01*
X30956250Y-114458750D02*
X30956250Y-100488750D01*
X50006250Y-100488750D02*
X63976250Y-100488750D01*
X63976250Y-100488750D02*
X63976250Y-114458750D01*
X63976250Y-114458750D02*
X50006250Y-114458750D01*
X50006250Y-114458750D02*
X50006250Y-100488750D01*
X69056250Y-100488750D02*
X83026250Y-100488750D01*
X83026250Y-100488750D02*
X83026250Y-114458750D01*
X83026250Y-114458750D02*
X69056250Y-114458750D01*
X69056250Y-114458750D02*
X69056250Y-100488750D01*
X123825000Y-100488750D02*
X137795000Y-100488750D01*
X137795000Y-100488750D02*
X137795000Y-114458750D01*
X137795000Y-114458750D02*
X123825000Y-114458750D01*
X123825000Y-114458750D02*
X123825000Y-100488750D01*
X150018750Y-100488750D02*
X163988750Y-100488750D01*
X163988750Y-100488750D02*
X163988750Y-114458750D01*
X163988750Y-114458750D02*
X150018750Y-114458750D01*
X150018750Y-114458750D02*
X150018750Y-100488750D01*
X169068750Y-114458750D02*
X169068750Y-100488750D01*
X183038750Y-114458750D02*
X169068750Y-114458750D01*
X183038750Y-100488750D02*
X183038750Y-114458750D01*
X169068750Y-100488750D02*
X183038750Y-100488750D01*
X188118750Y-114458750D02*
X188118750Y-100488750D01*
X202088750Y-114458750D02*
X188118750Y-114458750D01*
X202088750Y-100488750D02*
X202088750Y-114458750D01*
X188118750Y-100488750D02*
X202088750Y-100488750D01*
X207168750Y-100488750D02*
X221138750Y-100488750D01*
X221138750Y-100488750D02*
X221138750Y-114458750D01*
X221138750Y-114458750D02*
X207168750Y-114458750D01*
X207168750Y-114458750D02*
X207168750Y-100488750D01*
X226218750Y-100488750D02*
X240188750Y-100488750D01*
X240188750Y-100488750D02*
X240188750Y-114458750D01*
X240188750Y-114458750D02*
X226218750Y-114458750D01*
X226218750Y-114458750D02*
X226218750Y-100488750D01*
X245268750Y-100488750D02*
X259238750Y-100488750D01*
X259238750Y-100488750D02*
X259238750Y-114458750D01*
X259238750Y-114458750D02*
X245268750Y-114458750D01*
X245268750Y-114458750D02*
X245268750Y-100488750D01*
X30956250Y-119538750D02*
X44926250Y-119538750D01*
X44926250Y-119538750D02*
X44926250Y-133508750D01*
X44926250Y-133508750D02*
X30956250Y-133508750D01*
X30956250Y-133508750D02*
X30956250Y-119538750D01*
X50006250Y-119538750D02*
X63976250Y-119538750D01*
X63976250Y-119538750D02*
X63976250Y-133508750D01*
X63976250Y-133508750D02*
X50006250Y-133508750D01*
X50006250Y-133508750D02*
X50006250Y-119538750D01*
X69056250Y-133508750D02*
X69056250Y-119538750D01*
X83026250Y-133508750D02*
X69056250Y-133508750D01*
X83026250Y-119538750D02*
X83026250Y-133508750D01*
X69056250Y-119538750D02*
X83026250Y-119538750D01*
X88106250Y-129063750D02*
X102076250Y-129063750D01*
X102076250Y-129063750D02*
X102076250Y-143033750D01*
X102076250Y-143033750D02*
X88106250Y-143033750D01*
X88106250Y-143033750D02*
X88106250Y-129063750D01*
X128587500Y-119538750D02*
X142557500Y-119538750D01*
X142557500Y-119538750D02*
X142557500Y-133508750D01*
X142557500Y-133508750D02*
X128587500Y-133508750D01*
X128587500Y-133508750D02*
X128587500Y-119538750D01*
X159543750Y-133508750D02*
X159543750Y-119538750D01*
X173513750Y-133508750D02*
X159543750Y-133508750D01*
X173513750Y-119538750D02*
X173513750Y-133508750D01*
X159543750Y-119538750D02*
X173513750Y-119538750D01*
X178593750Y-119538750D02*
X192563750Y-119538750D01*
X192563750Y-119538750D02*
X192563750Y-133508750D01*
X192563750Y-133508750D02*
X178593750Y-133508750D01*
X178593750Y-133508750D02*
X178593750Y-119538750D01*
X197643750Y-119538750D02*
X211613750Y-119538750D01*
X211613750Y-119538750D02*
X211613750Y-133508750D01*
X211613750Y-133508750D02*
X197643750Y-133508750D01*
X197643750Y-133508750D02*
X197643750Y-119538750D01*
X216693750Y-133508750D02*
X216693750Y-119538750D01*
X230663750Y-133508750D02*
X216693750Y-133508750D01*
X230663750Y-119538750D02*
X230663750Y-133508750D01*
X216693750Y-119538750D02*
X230663750Y-119538750D01*
X235743750Y-133508750D02*
X235743750Y-119538750D01*
X249713750Y-133508750D02*
X235743750Y-133508750D01*
X249713750Y-119538750D02*
X249713750Y-133508750D01*
X235743750Y-119538750D02*
X249713750Y-119538750D01*
X254793750Y-133508750D02*
X254793750Y-119538750D01*
X268763750Y-133508750D02*
X254793750Y-133508750D01*
X268763750Y-119538750D02*
X268763750Y-133508750D01*
X254793750Y-119538750D02*
X268763750Y-119538750D01*
X40481250Y-138588750D02*
X54451250Y-138588750D01*
X54451250Y-138588750D02*
X54451250Y-152558750D01*
X54451250Y-152558750D02*
X40481250Y-152558750D01*
X40481250Y-152558750D02*
X40481250Y-138588750D01*
X69056250Y-152558750D02*
X69056250Y-138588750D01*
X83026250Y-152558750D02*
X69056250Y-152558750D01*
X83026250Y-138588750D02*
X83026250Y-152558750D01*
X69056250Y-138588750D02*
X83026250Y-138588750D01*
X119062500Y-138588750D02*
X133032500Y-138588750D01*
X133032500Y-138588750D02*
X133032500Y-152558750D01*
X133032500Y-152558750D02*
X119062500Y-152558750D01*
X119062500Y-152558750D02*
X119062500Y-138588750D01*
X142875000Y-152558750D02*
X142875000Y-138588750D01*
X156845000Y-152558750D02*
X142875000Y-152558750D01*
X156845000Y-138588750D02*
X156845000Y-152558750D01*
X142875000Y-138588750D02*
X156845000Y-138588750D01*
X166687500Y-138588750D02*
X180657500Y-138588750D01*
X180657500Y-138588750D02*
X180657500Y-152558750D01*
X180657500Y-152558750D02*
X166687500Y-152558750D01*
X166687500Y-152558750D02*
X166687500Y-138588750D01*
X190500000Y-152558750D02*
X190500000Y-138588750D01*
X204470000Y-152558750D02*
X190500000Y-152558750D01*
X204470000Y-138588750D02*
X204470000Y-152558750D01*
X190500000Y-138588750D02*
X204470000Y-138588750D01*
X228600000Y-138588750D02*
X242570000Y-138588750D01*
X242570000Y-138588750D02*
X242570000Y-152558750D01*
X242570000Y-152558750D02*
X228600000Y-152558750D01*
X228600000Y-152558750D02*
X228600000Y-138588750D01*
D11*
X44196000Y-34290000D02*
X46736000Y-34290000D01*
X44196000Y-31750000D02*
X44196000Y-34290000D01*
D12*
G36*
X31801365Y-38039030D02*
G01*
X31801365Y-38139030D01*
X31701365Y-38139030D01*
X31701365Y-38039030D01*
X31801365Y-38039030D01*
G37*
X31801365Y-38039030D02*
X31801365Y-38139030D01*
X31701365Y-38139030D01*
X31701365Y-38039030D01*
X31801365Y-38039030D01*
G36*
X31601365Y-37639030D02*
G01*
X31601365Y-38439030D01*
X31501365Y-38439030D01*
X31501365Y-37639030D01*
X31601365Y-37639030D01*
G37*
X31601365Y-37639030D02*
X31601365Y-38439030D01*
X31501365Y-38439030D01*
X31501365Y-37639030D01*
X31601365Y-37639030D01*
G36*
X32001365Y-38239030D02*
G01*
X32001365Y-38439030D01*
X31901365Y-38439030D01*
X31901365Y-38239030D01*
X32001365Y-38239030D01*
G37*
X32001365Y-38239030D02*
X32001365Y-38439030D01*
X31901365Y-38439030D01*
X31901365Y-38239030D01*
X32001365Y-38239030D01*
G36*
X32001365Y-37639030D02*
G01*
X32001365Y-37939030D01*
X31901365Y-37939030D01*
X31901365Y-37639030D01*
X32001365Y-37639030D01*
G37*
X32001365Y-37639030D02*
X32001365Y-37939030D01*
X31901365Y-37939030D01*
X31901365Y-37639030D01*
X32001365Y-37639030D01*
G36*
X32001365Y-37639030D02*
G01*
X32001365Y-37739030D01*
X31501365Y-37739030D01*
X31501365Y-37639030D01*
X32001365Y-37639030D01*
G37*
X32001365Y-37639030D02*
X32001365Y-37739030D01*
X31501365Y-37739030D01*
X31501365Y-37639030D01*
X32001365Y-37639030D01*
D11*
X28956000Y-62230000D02*
X28956000Y-29210000D01*
X46736000Y-62230000D02*
X28956000Y-62230000D01*
X46736000Y-29210000D02*
X46736000Y-62230000D01*
X28956000Y-29210000D02*
X46736000Y-29210000D01*
X44196000Y-31750000D02*
X46736000Y-31750000D01*
D12*
X35798392Y-33329511D02*
X35941250Y-33377130D01*
X36179345Y-33377130D01*
X36274583Y-33329511D01*
X36322202Y-33281892D01*
X36369821Y-33186654D01*
X36369821Y-33091416D01*
X36322202Y-32996178D01*
X36274583Y-32948559D01*
X36179345Y-32900940D01*
X35988869Y-32853321D01*
X35893630Y-32805702D01*
X35846011Y-32758083D01*
X35798392Y-32662845D01*
X35798392Y-32567607D01*
X35846011Y-32472369D01*
X35893630Y-32424750D01*
X35988869Y-32377130D01*
X36226964Y-32377130D01*
X36369821Y-32424750D01*
X36703154Y-32377130D02*
X36941250Y-33377130D01*
X37131726Y-32662845D01*
X37322202Y-33377130D01*
X37560297Y-32377130D01*
X37703154Y-33472369D02*
X38465059Y-33472369D01*
X38655535Y-33091416D02*
X39131726Y-33091416D01*
X38560297Y-33377130D02*
X38893630Y-32377130D01*
X39226964Y-33377130D01*
X40084107Y-33377130D02*
X39512678Y-33377130D01*
X39798392Y-33377130D02*
X39798392Y-32377130D01*
X39703154Y-32519988D01*
X39607916Y-32615226D01*
X39512678Y-32662845D01*
X54848392Y-33329511D02*
X54991250Y-33377130D01*
X55229345Y-33377130D01*
X55324583Y-33329511D01*
X55372202Y-33281892D01*
X55419821Y-33186654D01*
X55419821Y-33091416D01*
X55372202Y-32996178D01*
X55324583Y-32948559D01*
X55229345Y-32900940D01*
X55038869Y-32853321D01*
X54943630Y-32805702D01*
X54896011Y-32758083D01*
X54848392Y-32662845D01*
X54848392Y-32567607D01*
X54896011Y-32472369D01*
X54943630Y-32424750D01*
X55038869Y-32377130D01*
X55276964Y-32377130D01*
X55419821Y-32424750D01*
X55753154Y-32377130D02*
X55991250Y-33377130D01*
X56181726Y-32662845D01*
X56372202Y-33377130D01*
X56610297Y-32377130D01*
X56753154Y-33472369D02*
X57515059Y-33472369D01*
X57705535Y-33091416D02*
X58181726Y-33091416D01*
X57610297Y-33377130D02*
X57943630Y-32377130D01*
X58276964Y-33377130D01*
X58562678Y-32472369D02*
X58610297Y-32424750D01*
X58705535Y-32377130D01*
X58943630Y-32377130D01*
X59038869Y-32424750D01*
X59086488Y-32472369D01*
X59134107Y-32567607D01*
X59134107Y-32662845D01*
X59086488Y-32805702D01*
X58515059Y-33377130D01*
X59134107Y-33377130D01*
X73898392Y-33329511D02*
X74041250Y-33377130D01*
X74279345Y-33377130D01*
X74374583Y-33329511D01*
X74422202Y-33281892D01*
X74469821Y-33186654D01*
X74469821Y-33091416D01*
X74422202Y-32996178D01*
X74374583Y-32948559D01*
X74279345Y-32900940D01*
X74088869Y-32853321D01*
X73993630Y-32805702D01*
X73946011Y-32758083D01*
X73898392Y-32662845D01*
X73898392Y-32567607D01*
X73946011Y-32472369D01*
X73993630Y-32424750D01*
X74088869Y-32377130D01*
X74326964Y-32377130D01*
X74469821Y-32424750D01*
X74803154Y-32377130D02*
X75041250Y-33377130D01*
X75231726Y-32662845D01*
X75422202Y-33377130D01*
X75660297Y-32377130D01*
X75803154Y-33472369D02*
X76565059Y-33472369D01*
X76755535Y-33091416D02*
X77231726Y-33091416D01*
X76660297Y-33377130D02*
X76993630Y-32377130D01*
X77326964Y-33377130D01*
X77565059Y-32377130D02*
X78184107Y-32377130D01*
X77850773Y-32758083D01*
X77993630Y-32758083D01*
X78088869Y-32805702D01*
X78136488Y-32853321D01*
X78184107Y-32948559D01*
X78184107Y-33186654D01*
X78136488Y-33281892D01*
X78088869Y-33329511D01*
X77993630Y-33377130D01*
X77707916Y-33377130D01*
X77612678Y-33329511D01*
X77565059Y-33281892D01*
X92948392Y-33329511D02*
X93091250Y-33377130D01*
X93329345Y-33377130D01*
X93424583Y-33329511D01*
X93472202Y-33281892D01*
X93519821Y-33186654D01*
X93519821Y-33091416D01*
X93472202Y-32996178D01*
X93424583Y-32948559D01*
X93329345Y-32900940D01*
X93138869Y-32853321D01*
X93043630Y-32805702D01*
X92996011Y-32758083D01*
X92948392Y-32662845D01*
X92948392Y-32567607D01*
X92996011Y-32472369D01*
X93043630Y-32424750D01*
X93138869Y-32377130D01*
X93376964Y-32377130D01*
X93519821Y-32424750D01*
X93853154Y-32377130D02*
X94091250Y-33377130D01*
X94281726Y-32662845D01*
X94472202Y-33377130D01*
X94710297Y-32377130D01*
X94853154Y-33472369D02*
X95615059Y-33472369D01*
X95805535Y-33091416D02*
X96281726Y-33091416D01*
X95710297Y-33377130D02*
X96043630Y-32377130D01*
X96376964Y-33377130D01*
X97138869Y-32710464D02*
X97138869Y-33377130D01*
X96900773Y-32329511D02*
X96662678Y-33043797D01*
X97281726Y-33043797D01*
X121523392Y-33329511D02*
X121666250Y-33377130D01*
X121904345Y-33377130D01*
X121999583Y-33329511D01*
X122047202Y-33281892D01*
X122094821Y-33186654D01*
X122094821Y-33091416D01*
X122047202Y-32996178D01*
X121999583Y-32948559D01*
X121904345Y-32900940D01*
X121713869Y-32853321D01*
X121618630Y-32805702D01*
X121571011Y-32758083D01*
X121523392Y-32662845D01*
X121523392Y-32567607D01*
X121571011Y-32472369D01*
X121618630Y-32424750D01*
X121713869Y-32377130D01*
X121951964Y-32377130D01*
X122094821Y-32424750D01*
X122428154Y-32377130D02*
X122666250Y-33377130D01*
X122856726Y-32662845D01*
X123047202Y-33377130D01*
X123285297Y-32377130D01*
X123428154Y-33472369D02*
X124190059Y-33472369D01*
X124380535Y-33091416D02*
X124856726Y-33091416D01*
X124285297Y-33377130D02*
X124618630Y-32377130D01*
X124951964Y-33377130D01*
X125761488Y-32377130D02*
X125285297Y-32377130D01*
X125237678Y-32853321D01*
X125285297Y-32805702D01*
X125380535Y-32758083D01*
X125618630Y-32758083D01*
X125713869Y-32805702D01*
X125761488Y-32853321D01*
X125809107Y-32948559D01*
X125809107Y-33186654D01*
X125761488Y-33281892D01*
X125713869Y-33329511D01*
X125618630Y-33377130D01*
X125380535Y-33377130D01*
X125285297Y-33329511D01*
X125237678Y-33281892D01*
X159623392Y-33329511D02*
X159766250Y-33377130D01*
X160004345Y-33377130D01*
X160099583Y-33329511D01*
X160147202Y-33281892D01*
X160194821Y-33186654D01*
X160194821Y-33091416D01*
X160147202Y-32996178D01*
X160099583Y-32948559D01*
X160004345Y-32900940D01*
X159813869Y-32853321D01*
X159718630Y-32805702D01*
X159671011Y-32758083D01*
X159623392Y-32662845D01*
X159623392Y-32567607D01*
X159671011Y-32472369D01*
X159718630Y-32424750D01*
X159813869Y-32377130D01*
X160051964Y-32377130D01*
X160194821Y-32424750D01*
X160528154Y-32377130D02*
X160766250Y-33377130D01*
X160956726Y-32662845D01*
X161147202Y-33377130D01*
X161385297Y-32377130D01*
X161528154Y-33472369D02*
X162290059Y-33472369D01*
X162480535Y-33091416D02*
X162956726Y-33091416D01*
X162385297Y-33377130D02*
X162718630Y-32377130D01*
X163051964Y-33377130D01*
X163290059Y-32377130D02*
X163956726Y-32377130D01*
X163528154Y-33377130D01*
X178673392Y-33329511D02*
X178816250Y-33377130D01*
X179054345Y-33377130D01*
X179149583Y-33329511D01*
X179197202Y-33281892D01*
X179244821Y-33186654D01*
X179244821Y-33091416D01*
X179197202Y-32996178D01*
X179149583Y-32948559D01*
X179054345Y-32900940D01*
X178863869Y-32853321D01*
X178768630Y-32805702D01*
X178721011Y-32758083D01*
X178673392Y-32662845D01*
X178673392Y-32567607D01*
X178721011Y-32472369D01*
X178768630Y-32424750D01*
X178863869Y-32377130D01*
X179101964Y-32377130D01*
X179244821Y-32424750D01*
X179578154Y-32377130D02*
X179816250Y-33377130D01*
X180006726Y-32662845D01*
X180197202Y-33377130D01*
X180435297Y-32377130D01*
X180578154Y-33472369D02*
X181340059Y-33472369D01*
X181530535Y-33091416D02*
X182006726Y-33091416D01*
X181435297Y-33377130D02*
X181768630Y-32377130D01*
X182101964Y-33377130D01*
X182578154Y-32805702D02*
X182482916Y-32758083D01*
X182435297Y-32710464D01*
X182387678Y-32615226D01*
X182387678Y-32567607D01*
X182435297Y-32472369D01*
X182482916Y-32424750D01*
X182578154Y-32377130D01*
X182768630Y-32377130D01*
X182863869Y-32424750D01*
X182911488Y-32472369D01*
X182959107Y-32567607D01*
X182959107Y-32615226D01*
X182911488Y-32710464D01*
X182863869Y-32758083D01*
X182768630Y-32805702D01*
X182578154Y-32805702D01*
X182482916Y-32853321D01*
X182435297Y-32900940D01*
X182387678Y-32996178D01*
X182387678Y-33186654D01*
X182435297Y-33281892D01*
X182482916Y-33329511D01*
X182578154Y-33377130D01*
X182768630Y-33377130D01*
X182863869Y-33329511D01*
X182911488Y-33281892D01*
X182959107Y-33186654D01*
X182959107Y-32996178D01*
X182911488Y-32900940D01*
X182863869Y-32853321D01*
X182768630Y-32805702D01*
X197723392Y-33329511D02*
X197866250Y-33377130D01*
X198104345Y-33377130D01*
X198199583Y-33329511D01*
X198247202Y-33281892D01*
X198294821Y-33186654D01*
X198294821Y-33091416D01*
X198247202Y-32996178D01*
X198199583Y-32948559D01*
X198104345Y-32900940D01*
X197913869Y-32853321D01*
X197818630Y-32805702D01*
X197771011Y-32758083D01*
X197723392Y-32662845D01*
X197723392Y-32567607D01*
X197771011Y-32472369D01*
X197818630Y-32424750D01*
X197913869Y-32377130D01*
X198151964Y-32377130D01*
X198294821Y-32424750D01*
X198628154Y-32377130D02*
X198866250Y-33377130D01*
X199056726Y-32662845D01*
X199247202Y-33377130D01*
X199485297Y-32377130D01*
X199628154Y-33472369D02*
X200390059Y-33472369D01*
X200580535Y-33091416D02*
X201056726Y-33091416D01*
X200485297Y-33377130D02*
X200818630Y-32377130D01*
X201151964Y-33377130D01*
X201532916Y-33377130D02*
X201723392Y-33377130D01*
X201818630Y-33329511D01*
X201866250Y-33281892D01*
X201961488Y-33139035D01*
X202009107Y-32948559D01*
X202009107Y-32567607D01*
X201961488Y-32472369D01*
X201913869Y-32424750D01*
X201818630Y-32377130D01*
X201628154Y-32377130D01*
X201532916Y-32424750D01*
X201485297Y-32472369D01*
X201437678Y-32567607D01*
X201437678Y-32805702D01*
X201485297Y-32900940D01*
X201532916Y-32948559D01*
X201628154Y-32996178D01*
X201818630Y-32996178D01*
X201913869Y-32948559D01*
X201961488Y-32900940D01*
X202009107Y-32805702D01*
X216297202Y-33329511D02*
X216440059Y-33377130D01*
X216678154Y-33377130D01*
X216773392Y-33329511D01*
X216821011Y-33281892D01*
X216868630Y-33186654D01*
X216868630Y-33091416D01*
X216821011Y-32996178D01*
X216773392Y-32948559D01*
X216678154Y-32900940D01*
X216487678Y-32853321D01*
X216392440Y-32805702D01*
X216344821Y-32758083D01*
X216297202Y-32662845D01*
X216297202Y-32567607D01*
X216344821Y-32472369D01*
X216392440Y-32424750D01*
X216487678Y-32377130D01*
X216725773Y-32377130D01*
X216868630Y-32424750D01*
X217201964Y-32377130D02*
X217440059Y-33377130D01*
X217630535Y-32662845D01*
X217821011Y-33377130D01*
X218059107Y-32377130D01*
X218201964Y-33472369D02*
X218963869Y-33472369D01*
X219154345Y-33091416D02*
X219630535Y-33091416D01*
X219059107Y-33377130D02*
X219392440Y-32377130D01*
X219725773Y-33377130D01*
X220582916Y-33377130D02*
X220011488Y-33377130D01*
X220297202Y-33377130D02*
X220297202Y-32377130D01*
X220201964Y-32519988D01*
X220106726Y-32615226D01*
X220011488Y-32662845D01*
X221201964Y-32377130D02*
X221297202Y-32377130D01*
X221392440Y-32424750D01*
X221440059Y-32472369D01*
X221487678Y-32567607D01*
X221535297Y-32758083D01*
X221535297Y-32996178D01*
X221487678Y-33186654D01*
X221440059Y-33281892D01*
X221392440Y-33329511D01*
X221297202Y-33377130D01*
X221201964Y-33377130D01*
X221106726Y-33329511D01*
X221059107Y-33281892D01*
X221011488Y-33186654D01*
X220963869Y-32996178D01*
X220963869Y-32758083D01*
X221011488Y-32567607D01*
X221059107Y-32472369D01*
X221106726Y-32424750D01*
X221201964Y-32377130D01*
X244872202Y-33329511D02*
X245015059Y-33377130D01*
X245253154Y-33377130D01*
X245348392Y-33329511D01*
X245396011Y-33281892D01*
X245443630Y-33186654D01*
X245443630Y-33091416D01*
X245396011Y-32996178D01*
X245348392Y-32948559D01*
X245253154Y-32900940D01*
X245062678Y-32853321D01*
X244967440Y-32805702D01*
X244919821Y-32758083D01*
X244872202Y-32662845D01*
X244872202Y-32567607D01*
X244919821Y-32472369D01*
X244967440Y-32424750D01*
X245062678Y-32377130D01*
X245300773Y-32377130D01*
X245443630Y-32424750D01*
X245776964Y-32377130D02*
X246015059Y-33377130D01*
X246205535Y-32662845D01*
X246396011Y-33377130D01*
X246634107Y-32377130D01*
X246776964Y-33472369D02*
X247538869Y-33472369D01*
X247729345Y-33091416D02*
X248205535Y-33091416D01*
X247634107Y-33377130D02*
X247967440Y-32377130D01*
X248300773Y-33377130D01*
X249157916Y-33377130D02*
X248586488Y-33377130D01*
X248872202Y-33377130D02*
X248872202Y-32377130D01*
X248776964Y-32519988D01*
X248681726Y-32615226D01*
X248586488Y-32662845D01*
X250110297Y-33377130D02*
X249538869Y-33377130D01*
X249824583Y-33377130D02*
X249824583Y-32377130D01*
X249729345Y-32519988D01*
X249634107Y-32615226D01*
X249538869Y-32662845D01*
X263922202Y-33329511D02*
X264065059Y-33377130D01*
X264303154Y-33377130D01*
X264398392Y-33329511D01*
X264446011Y-33281892D01*
X264493630Y-33186654D01*
X264493630Y-33091416D01*
X264446011Y-32996178D01*
X264398392Y-32948559D01*
X264303154Y-32900940D01*
X264112678Y-32853321D01*
X264017440Y-32805702D01*
X263969821Y-32758083D01*
X263922202Y-32662845D01*
X263922202Y-32567607D01*
X263969821Y-32472369D01*
X264017440Y-32424750D01*
X264112678Y-32377130D01*
X264350773Y-32377130D01*
X264493630Y-32424750D01*
X264826964Y-32377130D02*
X265065059Y-33377130D01*
X265255535Y-32662845D01*
X265446011Y-33377130D01*
X265684107Y-32377130D01*
X265826964Y-33472369D02*
X266588869Y-33472369D01*
X266779345Y-33091416D02*
X267255535Y-33091416D01*
X266684107Y-33377130D02*
X267017440Y-32377130D01*
X267350773Y-33377130D01*
X268207916Y-33377130D02*
X267636488Y-33377130D01*
X267922202Y-33377130D02*
X267922202Y-32377130D01*
X267826964Y-32519988D01*
X267731726Y-32615226D01*
X267636488Y-32662845D01*
X268588869Y-32472369D02*
X268636488Y-32424750D01*
X268731726Y-32377130D01*
X268969821Y-32377130D01*
X269065059Y-32424750D01*
X269112678Y-32472369D01*
X269160297Y-32567607D01*
X269160297Y-32662845D01*
X269112678Y-32805702D01*
X268541250Y-33377130D01*
X269160297Y-33377130D01*
X35726964Y-61904511D02*
X35869821Y-61952130D01*
X36107916Y-61952130D01*
X36203154Y-61904511D01*
X36250773Y-61856892D01*
X36298392Y-61761654D01*
X36298392Y-61666416D01*
X36250773Y-61571178D01*
X36203154Y-61523559D01*
X36107916Y-61475940D01*
X35917440Y-61428321D01*
X35822202Y-61380702D01*
X35774583Y-61333083D01*
X35726964Y-61237845D01*
X35726964Y-61142607D01*
X35774583Y-61047369D01*
X35822202Y-60999750D01*
X35917440Y-60952130D01*
X36155535Y-60952130D01*
X36298392Y-60999750D01*
X36631726Y-60952130D02*
X36869821Y-61952130D01*
X37060297Y-61237845D01*
X37250773Y-61952130D01*
X37488869Y-60952130D01*
X37631726Y-62047369D02*
X38393630Y-62047369D01*
X38965059Y-61428321D02*
X39107916Y-61475940D01*
X39155535Y-61523559D01*
X39203154Y-61618797D01*
X39203154Y-61761654D01*
X39155535Y-61856892D01*
X39107916Y-61904511D01*
X39012678Y-61952130D01*
X38631726Y-61952130D01*
X38631726Y-60952130D01*
X38965059Y-60952130D01*
X39060297Y-60999750D01*
X39107916Y-61047369D01*
X39155535Y-61142607D01*
X39155535Y-61237845D01*
X39107916Y-61333083D01*
X39060297Y-61380702D01*
X38965059Y-61428321D01*
X38631726Y-61428321D01*
X40155535Y-61952130D02*
X39584107Y-61952130D01*
X39869821Y-61952130D02*
X39869821Y-60952130D01*
X39774583Y-61094988D01*
X39679345Y-61190226D01*
X39584107Y-61237845D01*
X54776964Y-61904511D02*
X54919821Y-61952130D01*
X55157916Y-61952130D01*
X55253154Y-61904511D01*
X55300773Y-61856892D01*
X55348392Y-61761654D01*
X55348392Y-61666416D01*
X55300773Y-61571178D01*
X55253154Y-61523559D01*
X55157916Y-61475940D01*
X54967440Y-61428321D01*
X54872202Y-61380702D01*
X54824583Y-61333083D01*
X54776964Y-61237845D01*
X54776964Y-61142607D01*
X54824583Y-61047369D01*
X54872202Y-60999750D01*
X54967440Y-60952130D01*
X55205535Y-60952130D01*
X55348392Y-60999750D01*
X55681726Y-60952130D02*
X55919821Y-61952130D01*
X56110297Y-61237845D01*
X56300773Y-61952130D01*
X56538869Y-60952130D01*
X56681726Y-62047369D02*
X57443630Y-62047369D01*
X58015059Y-61428321D02*
X58157916Y-61475940D01*
X58205535Y-61523559D01*
X58253154Y-61618797D01*
X58253154Y-61761654D01*
X58205535Y-61856892D01*
X58157916Y-61904511D01*
X58062678Y-61952130D01*
X57681726Y-61952130D01*
X57681726Y-60952130D01*
X58015059Y-60952130D01*
X58110297Y-60999750D01*
X58157916Y-61047369D01*
X58205535Y-61142607D01*
X58205535Y-61237845D01*
X58157916Y-61333083D01*
X58110297Y-61380702D01*
X58015059Y-61428321D01*
X57681726Y-61428321D01*
X58634107Y-61047369D02*
X58681726Y-60999750D01*
X58776964Y-60952130D01*
X59015059Y-60952130D01*
X59110297Y-60999750D01*
X59157916Y-61047369D01*
X59205535Y-61142607D01*
X59205535Y-61237845D01*
X59157916Y-61380702D01*
X58586488Y-61952130D01*
X59205535Y-61952130D01*
X73826964Y-61904511D02*
X73969821Y-61952130D01*
X74207916Y-61952130D01*
X74303154Y-61904511D01*
X74350773Y-61856892D01*
X74398392Y-61761654D01*
X74398392Y-61666416D01*
X74350773Y-61571178D01*
X74303154Y-61523559D01*
X74207916Y-61475940D01*
X74017440Y-61428321D01*
X73922202Y-61380702D01*
X73874583Y-61333083D01*
X73826964Y-61237845D01*
X73826964Y-61142607D01*
X73874583Y-61047369D01*
X73922202Y-60999750D01*
X74017440Y-60952130D01*
X74255535Y-60952130D01*
X74398392Y-60999750D01*
X74731726Y-60952130D02*
X74969821Y-61952130D01*
X75160297Y-61237845D01*
X75350773Y-61952130D01*
X75588869Y-60952130D01*
X75731726Y-62047369D02*
X76493630Y-62047369D01*
X77065059Y-61428321D02*
X77207916Y-61475940D01*
X77255535Y-61523559D01*
X77303154Y-61618797D01*
X77303154Y-61761654D01*
X77255535Y-61856892D01*
X77207916Y-61904511D01*
X77112678Y-61952130D01*
X76731726Y-61952130D01*
X76731726Y-60952130D01*
X77065059Y-60952130D01*
X77160297Y-60999750D01*
X77207916Y-61047369D01*
X77255535Y-61142607D01*
X77255535Y-61237845D01*
X77207916Y-61333083D01*
X77160297Y-61380702D01*
X77065059Y-61428321D01*
X76731726Y-61428321D01*
X77636488Y-60952130D02*
X78255535Y-60952130D01*
X77922202Y-61333083D01*
X78065059Y-61333083D01*
X78160297Y-61380702D01*
X78207916Y-61428321D01*
X78255535Y-61523559D01*
X78255535Y-61761654D01*
X78207916Y-61856892D01*
X78160297Y-61904511D01*
X78065059Y-61952130D01*
X77779345Y-61952130D01*
X77684107Y-61904511D01*
X77636488Y-61856892D01*
X92876964Y-61904511D02*
X93019821Y-61952130D01*
X93257916Y-61952130D01*
X93353154Y-61904511D01*
X93400773Y-61856892D01*
X93448392Y-61761654D01*
X93448392Y-61666416D01*
X93400773Y-61571178D01*
X93353154Y-61523559D01*
X93257916Y-61475940D01*
X93067440Y-61428321D01*
X92972202Y-61380702D01*
X92924583Y-61333083D01*
X92876964Y-61237845D01*
X92876964Y-61142607D01*
X92924583Y-61047369D01*
X92972202Y-60999750D01*
X93067440Y-60952130D01*
X93305535Y-60952130D01*
X93448392Y-60999750D01*
X93781726Y-60952130D02*
X94019821Y-61952130D01*
X94210297Y-61237845D01*
X94400773Y-61952130D01*
X94638869Y-60952130D01*
X94781726Y-62047369D02*
X95543630Y-62047369D01*
X96115059Y-61428321D02*
X96257916Y-61475940D01*
X96305535Y-61523559D01*
X96353154Y-61618797D01*
X96353154Y-61761654D01*
X96305535Y-61856892D01*
X96257916Y-61904511D01*
X96162678Y-61952130D01*
X95781726Y-61952130D01*
X95781726Y-60952130D01*
X96115059Y-60952130D01*
X96210297Y-60999750D01*
X96257916Y-61047369D01*
X96305535Y-61142607D01*
X96305535Y-61237845D01*
X96257916Y-61333083D01*
X96210297Y-61380702D01*
X96115059Y-61428321D01*
X95781726Y-61428321D01*
X97210297Y-61285464D02*
X97210297Y-61952130D01*
X96972202Y-60904511D02*
X96734107Y-61618797D01*
X97353154Y-61618797D01*
X121451964Y-61904511D02*
X121594821Y-61952130D01*
X121832916Y-61952130D01*
X121928154Y-61904511D01*
X121975773Y-61856892D01*
X122023392Y-61761654D01*
X122023392Y-61666416D01*
X121975773Y-61571178D01*
X121928154Y-61523559D01*
X121832916Y-61475940D01*
X121642440Y-61428321D01*
X121547202Y-61380702D01*
X121499583Y-61333083D01*
X121451964Y-61237845D01*
X121451964Y-61142607D01*
X121499583Y-61047369D01*
X121547202Y-60999750D01*
X121642440Y-60952130D01*
X121880535Y-60952130D01*
X122023392Y-60999750D01*
X122356726Y-60952130D02*
X122594821Y-61952130D01*
X122785297Y-61237845D01*
X122975773Y-61952130D01*
X123213869Y-60952130D01*
X123356726Y-62047369D02*
X124118630Y-62047369D01*
X124690059Y-61428321D02*
X124832916Y-61475940D01*
X124880535Y-61523559D01*
X124928154Y-61618797D01*
X124928154Y-61761654D01*
X124880535Y-61856892D01*
X124832916Y-61904511D01*
X124737678Y-61952130D01*
X124356726Y-61952130D01*
X124356726Y-60952130D01*
X124690059Y-60952130D01*
X124785297Y-60999750D01*
X124832916Y-61047369D01*
X124880535Y-61142607D01*
X124880535Y-61237845D01*
X124832916Y-61333083D01*
X124785297Y-61380702D01*
X124690059Y-61428321D01*
X124356726Y-61428321D01*
X125832916Y-60952130D02*
X125356726Y-60952130D01*
X125309107Y-61428321D01*
X125356726Y-61380702D01*
X125451964Y-61333083D01*
X125690059Y-61333083D01*
X125785297Y-61380702D01*
X125832916Y-61428321D01*
X125880535Y-61523559D01*
X125880535Y-61761654D01*
X125832916Y-61856892D01*
X125785297Y-61904511D01*
X125690059Y-61952130D01*
X125451964Y-61952130D01*
X125356726Y-61904511D01*
X125309107Y-61856892D01*
X140501964Y-61904511D02*
X140644821Y-61952130D01*
X140882916Y-61952130D01*
X140978154Y-61904511D01*
X141025773Y-61856892D01*
X141073392Y-61761654D01*
X141073392Y-61666416D01*
X141025773Y-61571178D01*
X140978154Y-61523559D01*
X140882916Y-61475940D01*
X140692440Y-61428321D01*
X140597202Y-61380702D01*
X140549583Y-61333083D01*
X140501964Y-61237845D01*
X140501964Y-61142607D01*
X140549583Y-61047369D01*
X140597202Y-60999750D01*
X140692440Y-60952130D01*
X140930535Y-60952130D01*
X141073392Y-60999750D01*
X141406726Y-60952130D02*
X141644821Y-61952130D01*
X141835297Y-61237845D01*
X142025773Y-61952130D01*
X142263869Y-60952130D01*
X142406726Y-62047369D02*
X143168630Y-62047369D01*
X143740059Y-61428321D02*
X143882916Y-61475940D01*
X143930535Y-61523559D01*
X143978154Y-61618797D01*
X143978154Y-61761654D01*
X143930535Y-61856892D01*
X143882916Y-61904511D01*
X143787678Y-61952130D01*
X143406726Y-61952130D01*
X143406726Y-60952130D01*
X143740059Y-60952130D01*
X143835297Y-60999750D01*
X143882916Y-61047369D01*
X143930535Y-61142607D01*
X143930535Y-61237845D01*
X143882916Y-61333083D01*
X143835297Y-61380702D01*
X143740059Y-61428321D01*
X143406726Y-61428321D01*
X144835297Y-60952130D02*
X144644821Y-60952130D01*
X144549583Y-60999750D01*
X144501964Y-61047369D01*
X144406726Y-61190226D01*
X144359107Y-61380702D01*
X144359107Y-61761654D01*
X144406726Y-61856892D01*
X144454345Y-61904511D01*
X144549583Y-61952130D01*
X144740059Y-61952130D01*
X144835297Y-61904511D01*
X144882916Y-61856892D01*
X144930535Y-61761654D01*
X144930535Y-61523559D01*
X144882916Y-61428321D01*
X144835297Y-61380702D01*
X144740059Y-61333083D01*
X144549583Y-61333083D01*
X144454345Y-61380702D01*
X144406726Y-61428321D01*
X144359107Y-61523559D01*
X159551964Y-61904511D02*
X159694821Y-61952130D01*
X159932916Y-61952130D01*
X160028154Y-61904511D01*
X160075773Y-61856892D01*
X160123392Y-61761654D01*
X160123392Y-61666416D01*
X160075773Y-61571178D01*
X160028154Y-61523559D01*
X159932916Y-61475940D01*
X159742440Y-61428321D01*
X159647202Y-61380702D01*
X159599583Y-61333083D01*
X159551964Y-61237845D01*
X159551964Y-61142607D01*
X159599583Y-61047369D01*
X159647202Y-60999750D01*
X159742440Y-60952130D01*
X159980535Y-60952130D01*
X160123392Y-60999750D01*
X160456726Y-60952130D02*
X160694821Y-61952130D01*
X160885297Y-61237845D01*
X161075773Y-61952130D01*
X161313869Y-60952130D01*
X161456726Y-62047369D02*
X162218630Y-62047369D01*
X162790059Y-61428321D02*
X162932916Y-61475940D01*
X162980535Y-61523559D01*
X163028154Y-61618797D01*
X163028154Y-61761654D01*
X162980535Y-61856892D01*
X162932916Y-61904511D01*
X162837678Y-61952130D01*
X162456726Y-61952130D01*
X162456726Y-60952130D01*
X162790059Y-60952130D01*
X162885297Y-60999750D01*
X162932916Y-61047369D01*
X162980535Y-61142607D01*
X162980535Y-61237845D01*
X162932916Y-61333083D01*
X162885297Y-61380702D01*
X162790059Y-61428321D01*
X162456726Y-61428321D01*
X163361488Y-60952130D02*
X164028154Y-60952130D01*
X163599583Y-61952130D01*
X178601964Y-61904511D02*
X178744821Y-61952130D01*
X178982916Y-61952130D01*
X179078154Y-61904511D01*
X179125773Y-61856892D01*
X179173392Y-61761654D01*
X179173392Y-61666416D01*
X179125773Y-61571178D01*
X179078154Y-61523559D01*
X178982916Y-61475940D01*
X178792440Y-61428321D01*
X178697202Y-61380702D01*
X178649583Y-61333083D01*
X178601964Y-61237845D01*
X178601964Y-61142607D01*
X178649583Y-61047369D01*
X178697202Y-60999750D01*
X178792440Y-60952130D01*
X179030535Y-60952130D01*
X179173392Y-60999750D01*
X179506726Y-60952130D02*
X179744821Y-61952130D01*
X179935297Y-61237845D01*
X180125773Y-61952130D01*
X180363869Y-60952130D01*
X180506726Y-62047369D02*
X181268630Y-62047369D01*
X181840059Y-61428321D02*
X181982916Y-61475940D01*
X182030535Y-61523559D01*
X182078154Y-61618797D01*
X182078154Y-61761654D01*
X182030535Y-61856892D01*
X181982916Y-61904511D01*
X181887678Y-61952130D01*
X181506726Y-61952130D01*
X181506726Y-60952130D01*
X181840059Y-60952130D01*
X181935297Y-60999750D01*
X181982916Y-61047369D01*
X182030535Y-61142607D01*
X182030535Y-61237845D01*
X181982916Y-61333083D01*
X181935297Y-61380702D01*
X181840059Y-61428321D01*
X181506726Y-61428321D01*
X182649583Y-61380702D02*
X182554345Y-61333083D01*
X182506726Y-61285464D01*
X182459107Y-61190226D01*
X182459107Y-61142607D01*
X182506726Y-61047369D01*
X182554345Y-60999750D01*
X182649583Y-60952130D01*
X182840059Y-60952130D01*
X182935297Y-60999750D01*
X182982916Y-61047369D01*
X183030535Y-61142607D01*
X183030535Y-61190226D01*
X182982916Y-61285464D01*
X182935297Y-61333083D01*
X182840059Y-61380702D01*
X182649583Y-61380702D01*
X182554345Y-61428321D01*
X182506726Y-61475940D01*
X182459107Y-61571178D01*
X182459107Y-61761654D01*
X182506726Y-61856892D01*
X182554345Y-61904511D01*
X182649583Y-61952130D01*
X182840059Y-61952130D01*
X182935297Y-61904511D01*
X182982916Y-61856892D01*
X183030535Y-61761654D01*
X183030535Y-61571178D01*
X182982916Y-61475940D01*
X182935297Y-61428321D01*
X182840059Y-61380702D01*
X197651964Y-61904511D02*
X197794821Y-61952130D01*
X198032916Y-61952130D01*
X198128154Y-61904511D01*
X198175773Y-61856892D01*
X198223392Y-61761654D01*
X198223392Y-61666416D01*
X198175773Y-61571178D01*
X198128154Y-61523559D01*
X198032916Y-61475940D01*
X197842440Y-61428321D01*
X197747202Y-61380702D01*
X197699583Y-61333083D01*
X197651964Y-61237845D01*
X197651964Y-61142607D01*
X197699583Y-61047369D01*
X197747202Y-60999750D01*
X197842440Y-60952130D01*
X198080535Y-60952130D01*
X198223392Y-60999750D01*
X198556726Y-60952130D02*
X198794821Y-61952130D01*
X198985297Y-61237845D01*
X199175773Y-61952130D01*
X199413869Y-60952130D01*
X199556726Y-62047369D02*
X200318630Y-62047369D01*
X200890059Y-61428321D02*
X201032916Y-61475940D01*
X201080535Y-61523559D01*
X201128154Y-61618797D01*
X201128154Y-61761654D01*
X201080535Y-61856892D01*
X201032916Y-61904511D01*
X200937678Y-61952130D01*
X200556726Y-61952130D01*
X200556726Y-60952130D01*
X200890059Y-60952130D01*
X200985297Y-60999750D01*
X201032916Y-61047369D01*
X201080535Y-61142607D01*
X201080535Y-61237845D01*
X201032916Y-61333083D01*
X200985297Y-61380702D01*
X200890059Y-61428321D01*
X200556726Y-61428321D01*
X201604345Y-61952130D02*
X201794821Y-61952130D01*
X201890059Y-61904511D01*
X201937678Y-61856892D01*
X202032916Y-61714035D01*
X202080535Y-61523559D01*
X202080535Y-61142607D01*
X202032916Y-61047369D01*
X201985297Y-60999750D01*
X201890059Y-60952130D01*
X201699583Y-60952130D01*
X201604345Y-60999750D01*
X201556726Y-61047369D01*
X201509107Y-61142607D01*
X201509107Y-61380702D01*
X201556726Y-61475940D01*
X201604345Y-61523559D01*
X201699583Y-61571178D01*
X201890059Y-61571178D01*
X201985297Y-61523559D01*
X202032916Y-61475940D01*
X202080535Y-61380702D01*
X216225773Y-61904511D02*
X216368630Y-61952130D01*
X216606726Y-61952130D01*
X216701964Y-61904511D01*
X216749583Y-61856892D01*
X216797202Y-61761654D01*
X216797202Y-61666416D01*
X216749583Y-61571178D01*
X216701964Y-61523559D01*
X216606726Y-61475940D01*
X216416250Y-61428321D01*
X216321011Y-61380702D01*
X216273392Y-61333083D01*
X216225773Y-61237845D01*
X216225773Y-61142607D01*
X216273392Y-61047369D01*
X216321011Y-60999750D01*
X216416250Y-60952130D01*
X216654345Y-60952130D01*
X216797202Y-60999750D01*
X217130535Y-60952130D02*
X217368630Y-61952130D01*
X217559107Y-61237845D01*
X217749583Y-61952130D01*
X217987678Y-60952130D01*
X218130535Y-62047369D02*
X218892440Y-62047369D01*
X219463869Y-61428321D02*
X219606726Y-61475940D01*
X219654345Y-61523559D01*
X219701964Y-61618797D01*
X219701964Y-61761654D01*
X219654345Y-61856892D01*
X219606726Y-61904511D01*
X219511488Y-61952130D01*
X219130535Y-61952130D01*
X219130535Y-60952130D01*
X219463869Y-60952130D01*
X219559107Y-60999750D01*
X219606726Y-61047369D01*
X219654345Y-61142607D01*
X219654345Y-61237845D01*
X219606726Y-61333083D01*
X219559107Y-61380702D01*
X219463869Y-61428321D01*
X219130535Y-61428321D01*
X220654345Y-61952130D02*
X220082916Y-61952130D01*
X220368630Y-61952130D02*
X220368630Y-60952130D01*
X220273392Y-61094988D01*
X220178154Y-61190226D01*
X220082916Y-61237845D01*
X221273392Y-60952130D02*
X221368630Y-60952130D01*
X221463869Y-60999750D01*
X221511488Y-61047369D01*
X221559107Y-61142607D01*
X221606726Y-61333083D01*
X221606726Y-61571178D01*
X221559107Y-61761654D01*
X221511488Y-61856892D01*
X221463869Y-61904511D01*
X221368630Y-61952130D01*
X221273392Y-61952130D01*
X221178154Y-61904511D01*
X221130535Y-61856892D01*
X221082916Y-61761654D01*
X221035297Y-61571178D01*
X221035297Y-61333083D01*
X221082916Y-61142607D01*
X221130535Y-61047369D01*
X221178154Y-60999750D01*
X221273392Y-60952130D01*
X235275773Y-61904511D02*
X235418630Y-61952130D01*
X235656726Y-61952130D01*
X235751964Y-61904511D01*
X235799583Y-61856892D01*
X235847202Y-61761654D01*
X235847202Y-61666416D01*
X235799583Y-61571178D01*
X235751964Y-61523559D01*
X235656726Y-61475940D01*
X235466250Y-61428321D01*
X235371011Y-61380702D01*
X235323392Y-61333083D01*
X235275773Y-61237845D01*
X235275773Y-61142607D01*
X235323392Y-61047369D01*
X235371011Y-60999750D01*
X235466250Y-60952130D01*
X235704345Y-60952130D01*
X235847202Y-60999750D01*
X236180535Y-60952130D02*
X236418630Y-61952130D01*
X236609107Y-61237845D01*
X236799583Y-61952130D01*
X237037678Y-60952130D01*
X237180535Y-62047369D02*
X237942440Y-62047369D01*
X238513869Y-61428321D02*
X238656726Y-61475940D01*
X238704345Y-61523559D01*
X238751964Y-61618797D01*
X238751964Y-61761654D01*
X238704345Y-61856892D01*
X238656726Y-61904511D01*
X238561488Y-61952130D01*
X238180535Y-61952130D01*
X238180535Y-60952130D01*
X238513869Y-60952130D01*
X238609107Y-60999750D01*
X238656726Y-61047369D01*
X238704345Y-61142607D01*
X238704345Y-61237845D01*
X238656726Y-61333083D01*
X238609107Y-61380702D01*
X238513869Y-61428321D01*
X238180535Y-61428321D01*
X239704345Y-61952130D02*
X239132916Y-61952130D01*
X239418630Y-61952130D02*
X239418630Y-60952130D01*
X239323392Y-61094988D01*
X239228154Y-61190226D01*
X239132916Y-61237845D01*
X240656726Y-61952130D02*
X240085297Y-61952130D01*
X240371011Y-61952130D02*
X240371011Y-60952130D01*
X240275773Y-61094988D01*
X240180535Y-61190226D01*
X240085297Y-61237845D01*
X254325773Y-61904511D02*
X254468630Y-61952130D01*
X254706726Y-61952130D01*
X254801964Y-61904511D01*
X254849583Y-61856892D01*
X254897202Y-61761654D01*
X254897202Y-61666416D01*
X254849583Y-61571178D01*
X254801964Y-61523559D01*
X254706726Y-61475940D01*
X254516250Y-61428321D01*
X254421011Y-61380702D01*
X254373392Y-61333083D01*
X254325773Y-61237845D01*
X254325773Y-61142607D01*
X254373392Y-61047369D01*
X254421011Y-60999750D01*
X254516250Y-60952130D01*
X254754345Y-60952130D01*
X254897202Y-60999750D01*
X255230535Y-60952130D02*
X255468630Y-61952130D01*
X255659107Y-61237845D01*
X255849583Y-61952130D01*
X256087678Y-60952130D01*
X256230535Y-62047369D02*
X256992440Y-62047369D01*
X257563869Y-61428321D02*
X257706726Y-61475940D01*
X257754345Y-61523559D01*
X257801964Y-61618797D01*
X257801964Y-61761654D01*
X257754345Y-61856892D01*
X257706726Y-61904511D01*
X257611488Y-61952130D01*
X257230535Y-61952130D01*
X257230535Y-60952130D01*
X257563869Y-60952130D01*
X257659107Y-60999750D01*
X257706726Y-61047369D01*
X257754345Y-61142607D01*
X257754345Y-61237845D01*
X257706726Y-61333083D01*
X257659107Y-61380702D01*
X257563869Y-61428321D01*
X257230535Y-61428321D01*
X258754345Y-61952130D02*
X258182916Y-61952130D01*
X258468630Y-61952130D02*
X258468630Y-60952130D01*
X258373392Y-61094988D01*
X258278154Y-61190226D01*
X258182916Y-61237845D01*
X259135297Y-61047369D02*
X259182916Y-60999750D01*
X259278154Y-60952130D01*
X259516250Y-60952130D01*
X259611488Y-60999750D01*
X259659107Y-61047369D01*
X259706726Y-61142607D01*
X259706726Y-61237845D01*
X259659107Y-61380702D01*
X259087678Y-61952130D01*
X259706726Y-61952130D01*
X35726964Y-80954511D02*
X35869821Y-81002130D01*
X36107916Y-81002130D01*
X36203154Y-80954511D01*
X36250773Y-80906892D01*
X36298392Y-80811654D01*
X36298392Y-80716416D01*
X36250773Y-80621178D01*
X36203154Y-80573559D01*
X36107916Y-80525940D01*
X35917440Y-80478321D01*
X35822202Y-80430702D01*
X35774583Y-80383083D01*
X35726964Y-80287845D01*
X35726964Y-80192607D01*
X35774583Y-80097369D01*
X35822202Y-80049750D01*
X35917440Y-80002130D01*
X36155535Y-80002130D01*
X36298392Y-80049750D01*
X36631726Y-80002130D02*
X36869821Y-81002130D01*
X37060297Y-80287845D01*
X37250773Y-81002130D01*
X37488869Y-80002130D01*
X37631726Y-81097369D02*
X38393630Y-81097369D01*
X39203154Y-80906892D02*
X39155535Y-80954511D01*
X39012678Y-81002130D01*
X38917440Y-81002130D01*
X38774583Y-80954511D01*
X38679345Y-80859273D01*
X38631726Y-80764035D01*
X38584107Y-80573559D01*
X38584107Y-80430702D01*
X38631726Y-80240226D01*
X38679345Y-80144988D01*
X38774583Y-80049750D01*
X38917440Y-80002130D01*
X39012678Y-80002130D01*
X39155535Y-80049750D01*
X39203154Y-80097369D01*
X40155535Y-81002130D02*
X39584107Y-81002130D01*
X39869821Y-81002130D02*
X39869821Y-80002130D01*
X39774583Y-80144988D01*
X39679345Y-80240226D01*
X39584107Y-80287845D01*
X54776964Y-80954511D02*
X54919821Y-81002130D01*
X55157916Y-81002130D01*
X55253154Y-80954511D01*
X55300773Y-80906892D01*
X55348392Y-80811654D01*
X55348392Y-80716416D01*
X55300773Y-80621178D01*
X55253154Y-80573559D01*
X55157916Y-80525940D01*
X54967440Y-80478321D01*
X54872202Y-80430702D01*
X54824583Y-80383083D01*
X54776964Y-80287845D01*
X54776964Y-80192607D01*
X54824583Y-80097369D01*
X54872202Y-80049750D01*
X54967440Y-80002130D01*
X55205535Y-80002130D01*
X55348392Y-80049750D01*
X55681726Y-80002130D02*
X55919821Y-81002130D01*
X56110297Y-80287845D01*
X56300773Y-81002130D01*
X56538869Y-80002130D01*
X56681726Y-81097369D02*
X57443630Y-81097369D01*
X58253154Y-80906892D02*
X58205535Y-80954511D01*
X58062678Y-81002130D01*
X57967440Y-81002130D01*
X57824583Y-80954511D01*
X57729345Y-80859273D01*
X57681726Y-80764035D01*
X57634107Y-80573559D01*
X57634107Y-80430702D01*
X57681726Y-80240226D01*
X57729345Y-80144988D01*
X57824583Y-80049750D01*
X57967440Y-80002130D01*
X58062678Y-80002130D01*
X58205535Y-80049750D01*
X58253154Y-80097369D01*
X58634107Y-80097369D02*
X58681726Y-80049750D01*
X58776964Y-80002130D01*
X59015059Y-80002130D01*
X59110297Y-80049750D01*
X59157916Y-80097369D01*
X59205535Y-80192607D01*
X59205535Y-80287845D01*
X59157916Y-80430702D01*
X58586488Y-81002130D01*
X59205535Y-81002130D01*
X73826964Y-80954511D02*
X73969821Y-81002130D01*
X74207916Y-81002130D01*
X74303154Y-80954511D01*
X74350773Y-80906892D01*
X74398392Y-80811654D01*
X74398392Y-80716416D01*
X74350773Y-80621178D01*
X74303154Y-80573559D01*
X74207916Y-80525940D01*
X74017440Y-80478321D01*
X73922202Y-80430702D01*
X73874583Y-80383083D01*
X73826964Y-80287845D01*
X73826964Y-80192607D01*
X73874583Y-80097369D01*
X73922202Y-80049750D01*
X74017440Y-80002130D01*
X74255535Y-80002130D01*
X74398392Y-80049750D01*
X74731726Y-80002130D02*
X74969821Y-81002130D01*
X75160297Y-80287845D01*
X75350773Y-81002130D01*
X75588869Y-80002130D01*
X75731726Y-81097369D02*
X76493630Y-81097369D01*
X77303154Y-80906892D02*
X77255535Y-80954511D01*
X77112678Y-81002130D01*
X77017440Y-81002130D01*
X76874583Y-80954511D01*
X76779345Y-80859273D01*
X76731726Y-80764035D01*
X76684107Y-80573559D01*
X76684107Y-80430702D01*
X76731726Y-80240226D01*
X76779345Y-80144988D01*
X76874583Y-80049750D01*
X77017440Y-80002130D01*
X77112678Y-80002130D01*
X77255535Y-80049750D01*
X77303154Y-80097369D01*
X77636488Y-80002130D02*
X78255535Y-80002130D01*
X77922202Y-80383083D01*
X78065059Y-80383083D01*
X78160297Y-80430702D01*
X78207916Y-80478321D01*
X78255535Y-80573559D01*
X78255535Y-80811654D01*
X78207916Y-80906892D01*
X78160297Y-80954511D01*
X78065059Y-81002130D01*
X77779345Y-81002130D01*
X77684107Y-80954511D01*
X77636488Y-80906892D01*
X92876964Y-90479511D02*
X93019821Y-90527130D01*
X93257916Y-90527130D01*
X93353154Y-90479511D01*
X93400773Y-90431892D01*
X93448392Y-90336654D01*
X93448392Y-90241416D01*
X93400773Y-90146178D01*
X93353154Y-90098559D01*
X93257916Y-90050940D01*
X93067440Y-90003321D01*
X92972202Y-89955702D01*
X92924583Y-89908083D01*
X92876964Y-89812845D01*
X92876964Y-89717607D01*
X92924583Y-89622369D01*
X92972202Y-89574750D01*
X93067440Y-89527130D01*
X93305535Y-89527130D01*
X93448392Y-89574750D01*
X93781726Y-89527130D02*
X94019821Y-90527130D01*
X94210297Y-89812845D01*
X94400773Y-90527130D01*
X94638869Y-89527130D01*
X94781726Y-90622369D02*
X95543630Y-90622369D01*
X96353154Y-90431892D02*
X96305535Y-90479511D01*
X96162678Y-90527130D01*
X96067440Y-90527130D01*
X95924583Y-90479511D01*
X95829345Y-90384273D01*
X95781726Y-90289035D01*
X95734107Y-90098559D01*
X95734107Y-89955702D01*
X95781726Y-89765226D01*
X95829345Y-89669988D01*
X95924583Y-89574750D01*
X96067440Y-89527130D01*
X96162678Y-89527130D01*
X96305535Y-89574750D01*
X96353154Y-89622369D01*
X97210297Y-89860464D02*
X97210297Y-90527130D01*
X96972202Y-89479511D02*
X96734107Y-90193797D01*
X97353154Y-90193797D01*
X126214464Y-80954511D02*
X126357321Y-81002130D01*
X126595416Y-81002130D01*
X126690654Y-80954511D01*
X126738273Y-80906892D01*
X126785892Y-80811654D01*
X126785892Y-80716416D01*
X126738273Y-80621178D01*
X126690654Y-80573559D01*
X126595416Y-80525940D01*
X126404940Y-80478321D01*
X126309702Y-80430702D01*
X126262083Y-80383083D01*
X126214464Y-80287845D01*
X126214464Y-80192607D01*
X126262083Y-80097369D01*
X126309702Y-80049750D01*
X126404940Y-80002130D01*
X126643035Y-80002130D01*
X126785892Y-80049750D01*
X127119226Y-80002130D02*
X127357321Y-81002130D01*
X127547797Y-80287845D01*
X127738273Y-81002130D01*
X127976369Y-80002130D01*
X128119226Y-81097369D02*
X128881130Y-81097369D01*
X129690654Y-80906892D02*
X129643035Y-80954511D01*
X129500178Y-81002130D01*
X129404940Y-81002130D01*
X129262083Y-80954511D01*
X129166845Y-80859273D01*
X129119226Y-80764035D01*
X129071607Y-80573559D01*
X129071607Y-80430702D01*
X129119226Y-80240226D01*
X129166845Y-80144988D01*
X129262083Y-80049750D01*
X129404940Y-80002130D01*
X129500178Y-80002130D01*
X129643035Y-80049750D01*
X129690654Y-80097369D01*
X130595416Y-80002130D02*
X130119226Y-80002130D01*
X130071607Y-80478321D01*
X130119226Y-80430702D01*
X130214464Y-80383083D01*
X130452559Y-80383083D01*
X130547797Y-80430702D01*
X130595416Y-80478321D01*
X130643035Y-80573559D01*
X130643035Y-80811654D01*
X130595416Y-80906892D01*
X130547797Y-80954511D01*
X130452559Y-81002130D01*
X130214464Y-81002130D01*
X130119226Y-80954511D01*
X130071607Y-80906892D01*
X150026964Y-80954511D02*
X150169821Y-81002130D01*
X150407916Y-81002130D01*
X150503154Y-80954511D01*
X150550773Y-80906892D01*
X150598392Y-80811654D01*
X150598392Y-80716416D01*
X150550773Y-80621178D01*
X150503154Y-80573559D01*
X150407916Y-80525940D01*
X150217440Y-80478321D01*
X150122202Y-80430702D01*
X150074583Y-80383083D01*
X150026964Y-80287845D01*
X150026964Y-80192607D01*
X150074583Y-80097369D01*
X150122202Y-80049750D01*
X150217440Y-80002130D01*
X150455535Y-80002130D01*
X150598392Y-80049750D01*
X150931726Y-80002130D02*
X151169821Y-81002130D01*
X151360297Y-80287845D01*
X151550773Y-81002130D01*
X151788869Y-80002130D01*
X151931726Y-81097369D02*
X152693630Y-81097369D01*
X153503154Y-80906892D02*
X153455535Y-80954511D01*
X153312678Y-81002130D01*
X153217440Y-81002130D01*
X153074583Y-80954511D01*
X152979345Y-80859273D01*
X152931726Y-80764035D01*
X152884107Y-80573559D01*
X152884107Y-80430702D01*
X152931726Y-80240226D01*
X152979345Y-80144988D01*
X153074583Y-80049750D01*
X153217440Y-80002130D01*
X153312678Y-80002130D01*
X153455535Y-80049750D01*
X153503154Y-80097369D01*
X154360297Y-80002130D02*
X154169821Y-80002130D01*
X154074583Y-80049750D01*
X154026964Y-80097369D01*
X153931726Y-80240226D01*
X153884107Y-80430702D01*
X153884107Y-80811654D01*
X153931726Y-80906892D01*
X153979345Y-80954511D01*
X154074583Y-81002130D01*
X154265059Y-81002130D01*
X154360297Y-80954511D01*
X154407916Y-80906892D01*
X154455535Y-80811654D01*
X154455535Y-80573559D01*
X154407916Y-80478321D01*
X154360297Y-80430702D01*
X154265059Y-80383083D01*
X154074583Y-80383083D01*
X153979345Y-80430702D01*
X153931726Y-80478321D01*
X153884107Y-80573559D01*
X169076964Y-80954511D02*
X169219821Y-81002130D01*
X169457916Y-81002130D01*
X169553154Y-80954511D01*
X169600773Y-80906892D01*
X169648392Y-80811654D01*
X169648392Y-80716416D01*
X169600773Y-80621178D01*
X169553154Y-80573559D01*
X169457916Y-80525940D01*
X169267440Y-80478321D01*
X169172202Y-80430702D01*
X169124583Y-80383083D01*
X169076964Y-80287845D01*
X169076964Y-80192607D01*
X169124583Y-80097369D01*
X169172202Y-80049750D01*
X169267440Y-80002130D01*
X169505535Y-80002130D01*
X169648392Y-80049750D01*
X169981726Y-80002130D02*
X170219821Y-81002130D01*
X170410297Y-80287845D01*
X170600773Y-81002130D01*
X170838869Y-80002130D01*
X170981726Y-81097369D02*
X171743630Y-81097369D01*
X172553154Y-80906892D02*
X172505535Y-80954511D01*
X172362678Y-81002130D01*
X172267440Y-81002130D01*
X172124583Y-80954511D01*
X172029345Y-80859273D01*
X171981726Y-80764035D01*
X171934107Y-80573559D01*
X171934107Y-80430702D01*
X171981726Y-80240226D01*
X172029345Y-80144988D01*
X172124583Y-80049750D01*
X172267440Y-80002130D01*
X172362678Y-80002130D01*
X172505535Y-80049750D01*
X172553154Y-80097369D01*
X172886488Y-80002130D02*
X173553154Y-80002130D01*
X173124583Y-81002130D01*
X188126964Y-80954511D02*
X188269821Y-81002130D01*
X188507916Y-81002130D01*
X188603154Y-80954511D01*
X188650773Y-80906892D01*
X188698392Y-80811654D01*
X188698392Y-80716416D01*
X188650773Y-80621178D01*
X188603154Y-80573559D01*
X188507916Y-80525940D01*
X188317440Y-80478321D01*
X188222202Y-80430702D01*
X188174583Y-80383083D01*
X188126964Y-80287845D01*
X188126964Y-80192607D01*
X188174583Y-80097369D01*
X188222202Y-80049750D01*
X188317440Y-80002130D01*
X188555535Y-80002130D01*
X188698392Y-80049750D01*
X189031726Y-80002130D02*
X189269821Y-81002130D01*
X189460297Y-80287845D01*
X189650773Y-81002130D01*
X189888869Y-80002130D01*
X190031726Y-81097369D02*
X190793630Y-81097369D01*
X191603154Y-80906892D02*
X191555535Y-80954511D01*
X191412678Y-81002130D01*
X191317440Y-81002130D01*
X191174583Y-80954511D01*
X191079345Y-80859273D01*
X191031726Y-80764035D01*
X190984107Y-80573559D01*
X190984107Y-80430702D01*
X191031726Y-80240226D01*
X191079345Y-80144988D01*
X191174583Y-80049750D01*
X191317440Y-80002130D01*
X191412678Y-80002130D01*
X191555535Y-80049750D01*
X191603154Y-80097369D01*
X192174583Y-80430702D02*
X192079345Y-80383083D01*
X192031726Y-80335464D01*
X191984107Y-80240226D01*
X191984107Y-80192607D01*
X192031726Y-80097369D01*
X192079345Y-80049750D01*
X192174583Y-80002130D01*
X192365059Y-80002130D01*
X192460297Y-80049750D01*
X192507916Y-80097369D01*
X192555535Y-80192607D01*
X192555535Y-80240226D01*
X192507916Y-80335464D01*
X192460297Y-80383083D01*
X192365059Y-80430702D01*
X192174583Y-80430702D01*
X192079345Y-80478321D01*
X192031726Y-80525940D01*
X191984107Y-80621178D01*
X191984107Y-80811654D01*
X192031726Y-80906892D01*
X192079345Y-80954511D01*
X192174583Y-81002130D01*
X192365059Y-81002130D01*
X192460297Y-80954511D01*
X192507916Y-80906892D01*
X192555535Y-80811654D01*
X192555535Y-80621178D01*
X192507916Y-80525940D01*
X192460297Y-80478321D01*
X192365059Y-80430702D01*
X207176964Y-80954511D02*
X207319821Y-81002130D01*
X207557916Y-81002130D01*
X207653154Y-80954511D01*
X207700773Y-80906892D01*
X207748392Y-80811654D01*
X207748392Y-80716416D01*
X207700773Y-80621178D01*
X207653154Y-80573559D01*
X207557916Y-80525940D01*
X207367440Y-80478321D01*
X207272202Y-80430702D01*
X207224583Y-80383083D01*
X207176964Y-80287845D01*
X207176964Y-80192607D01*
X207224583Y-80097369D01*
X207272202Y-80049750D01*
X207367440Y-80002130D01*
X207605535Y-80002130D01*
X207748392Y-80049750D01*
X208081726Y-80002130D02*
X208319821Y-81002130D01*
X208510297Y-80287845D01*
X208700773Y-81002130D01*
X208938869Y-80002130D01*
X209081726Y-81097369D02*
X209843630Y-81097369D01*
X210653154Y-80906892D02*
X210605535Y-80954511D01*
X210462678Y-81002130D01*
X210367440Y-81002130D01*
X210224583Y-80954511D01*
X210129345Y-80859273D01*
X210081726Y-80764035D01*
X210034107Y-80573559D01*
X210034107Y-80430702D01*
X210081726Y-80240226D01*
X210129345Y-80144988D01*
X210224583Y-80049750D01*
X210367440Y-80002130D01*
X210462678Y-80002130D01*
X210605535Y-80049750D01*
X210653154Y-80097369D01*
X211129345Y-81002130D02*
X211319821Y-81002130D01*
X211415059Y-80954511D01*
X211462678Y-80906892D01*
X211557916Y-80764035D01*
X211605535Y-80573559D01*
X211605535Y-80192607D01*
X211557916Y-80097369D01*
X211510297Y-80049750D01*
X211415059Y-80002130D01*
X211224583Y-80002130D01*
X211129345Y-80049750D01*
X211081726Y-80097369D01*
X211034107Y-80192607D01*
X211034107Y-80430702D01*
X211081726Y-80525940D01*
X211129345Y-80573559D01*
X211224583Y-80621178D01*
X211415059Y-80621178D01*
X211510297Y-80573559D01*
X211557916Y-80525940D01*
X211605535Y-80430702D01*
X225750773Y-80954511D02*
X225893630Y-81002130D01*
X226131726Y-81002130D01*
X226226964Y-80954511D01*
X226274583Y-80906892D01*
X226322202Y-80811654D01*
X226322202Y-80716416D01*
X226274583Y-80621178D01*
X226226964Y-80573559D01*
X226131726Y-80525940D01*
X225941250Y-80478321D01*
X225846011Y-80430702D01*
X225798392Y-80383083D01*
X225750773Y-80287845D01*
X225750773Y-80192607D01*
X225798392Y-80097369D01*
X225846011Y-80049750D01*
X225941250Y-80002130D01*
X226179345Y-80002130D01*
X226322202Y-80049750D01*
X226655535Y-80002130D02*
X226893630Y-81002130D01*
X227084107Y-80287845D01*
X227274583Y-81002130D01*
X227512678Y-80002130D01*
X227655535Y-81097369D02*
X228417440Y-81097369D01*
X229226964Y-80906892D02*
X229179345Y-80954511D01*
X229036488Y-81002130D01*
X228941250Y-81002130D01*
X228798392Y-80954511D01*
X228703154Y-80859273D01*
X228655535Y-80764035D01*
X228607916Y-80573559D01*
X228607916Y-80430702D01*
X228655535Y-80240226D01*
X228703154Y-80144988D01*
X228798392Y-80049750D01*
X228941250Y-80002130D01*
X229036488Y-80002130D01*
X229179345Y-80049750D01*
X229226964Y-80097369D01*
X230179345Y-81002130D02*
X229607916Y-81002130D01*
X229893630Y-81002130D02*
X229893630Y-80002130D01*
X229798392Y-80144988D01*
X229703154Y-80240226D01*
X229607916Y-80287845D01*
X230798392Y-80002130D02*
X230893630Y-80002130D01*
X230988869Y-80049750D01*
X231036488Y-80097369D01*
X231084107Y-80192607D01*
X231131726Y-80383083D01*
X231131726Y-80621178D01*
X231084107Y-80811654D01*
X231036488Y-80906892D01*
X230988869Y-80954511D01*
X230893630Y-81002130D01*
X230798392Y-81002130D01*
X230703154Y-80954511D01*
X230655535Y-80906892D01*
X230607916Y-80811654D01*
X230560297Y-80621178D01*
X230560297Y-80383083D01*
X230607916Y-80192607D01*
X230655535Y-80097369D01*
X230703154Y-80049750D01*
X230798392Y-80002130D01*
X244800773Y-80954511D02*
X244943630Y-81002130D01*
X245181726Y-81002130D01*
X245276964Y-80954511D01*
X245324583Y-80906892D01*
X245372202Y-80811654D01*
X245372202Y-80716416D01*
X245324583Y-80621178D01*
X245276964Y-80573559D01*
X245181726Y-80525940D01*
X244991250Y-80478321D01*
X244896011Y-80430702D01*
X244848392Y-80383083D01*
X244800773Y-80287845D01*
X244800773Y-80192607D01*
X244848392Y-80097369D01*
X244896011Y-80049750D01*
X244991250Y-80002130D01*
X245229345Y-80002130D01*
X245372202Y-80049750D01*
X245705535Y-80002130D02*
X245943630Y-81002130D01*
X246134107Y-80287845D01*
X246324583Y-81002130D01*
X246562678Y-80002130D01*
X246705535Y-81097369D02*
X247467440Y-81097369D01*
X248276964Y-80906892D02*
X248229345Y-80954511D01*
X248086488Y-81002130D01*
X247991250Y-81002130D01*
X247848392Y-80954511D01*
X247753154Y-80859273D01*
X247705535Y-80764035D01*
X247657916Y-80573559D01*
X247657916Y-80430702D01*
X247705535Y-80240226D01*
X247753154Y-80144988D01*
X247848392Y-80049750D01*
X247991250Y-80002130D01*
X248086488Y-80002130D01*
X248229345Y-80049750D01*
X248276964Y-80097369D01*
X249229345Y-81002130D02*
X248657916Y-81002130D01*
X248943630Y-81002130D02*
X248943630Y-80002130D01*
X248848392Y-80144988D01*
X248753154Y-80240226D01*
X248657916Y-80287845D01*
X250181726Y-81002130D02*
X249610297Y-81002130D01*
X249896011Y-81002130D02*
X249896011Y-80002130D01*
X249800773Y-80144988D01*
X249705535Y-80240226D01*
X249610297Y-80287845D01*
X35726964Y-100004511D02*
X35869821Y-100052130D01*
X36107916Y-100052130D01*
X36203154Y-100004511D01*
X36250773Y-99956892D01*
X36298392Y-99861654D01*
X36298392Y-99766416D01*
X36250773Y-99671178D01*
X36203154Y-99623559D01*
X36107916Y-99575940D01*
X35917440Y-99528321D01*
X35822202Y-99480702D01*
X35774583Y-99433083D01*
X35726964Y-99337845D01*
X35726964Y-99242607D01*
X35774583Y-99147369D01*
X35822202Y-99099750D01*
X35917440Y-99052130D01*
X36155535Y-99052130D01*
X36298392Y-99099750D01*
X36631726Y-99052130D02*
X36869821Y-100052130D01*
X37060297Y-99337845D01*
X37250773Y-100052130D01*
X37488869Y-99052130D01*
X37631726Y-100147369D02*
X38393630Y-100147369D01*
X38631726Y-100052130D02*
X38631726Y-99052130D01*
X38869821Y-99052130D01*
X39012678Y-99099750D01*
X39107916Y-99194988D01*
X39155535Y-99290226D01*
X39203154Y-99480702D01*
X39203154Y-99623559D01*
X39155535Y-99814035D01*
X39107916Y-99909273D01*
X39012678Y-100004511D01*
X38869821Y-100052130D01*
X38631726Y-100052130D01*
X40155535Y-100052130D02*
X39584107Y-100052130D01*
X39869821Y-100052130D02*
X39869821Y-99052130D01*
X39774583Y-99194988D01*
X39679345Y-99290226D01*
X39584107Y-99337845D01*
X54776964Y-100004511D02*
X54919821Y-100052130D01*
X55157916Y-100052130D01*
X55253154Y-100004511D01*
X55300773Y-99956892D01*
X55348392Y-99861654D01*
X55348392Y-99766416D01*
X55300773Y-99671178D01*
X55253154Y-99623559D01*
X55157916Y-99575940D01*
X54967440Y-99528321D01*
X54872202Y-99480702D01*
X54824583Y-99433083D01*
X54776964Y-99337845D01*
X54776964Y-99242607D01*
X54824583Y-99147369D01*
X54872202Y-99099750D01*
X54967440Y-99052130D01*
X55205535Y-99052130D01*
X55348392Y-99099750D01*
X55681726Y-99052130D02*
X55919821Y-100052130D01*
X56110297Y-99337845D01*
X56300773Y-100052130D01*
X56538869Y-99052130D01*
X56681726Y-100147369D02*
X57443630Y-100147369D01*
X57681726Y-100052130D02*
X57681726Y-99052130D01*
X57919821Y-99052130D01*
X58062678Y-99099750D01*
X58157916Y-99194988D01*
X58205535Y-99290226D01*
X58253154Y-99480702D01*
X58253154Y-99623559D01*
X58205535Y-99814035D01*
X58157916Y-99909273D01*
X58062678Y-100004511D01*
X57919821Y-100052130D01*
X57681726Y-100052130D01*
X58634107Y-99147369D02*
X58681726Y-99099750D01*
X58776964Y-99052130D01*
X59015059Y-99052130D01*
X59110297Y-99099750D01*
X59157916Y-99147369D01*
X59205535Y-99242607D01*
X59205535Y-99337845D01*
X59157916Y-99480702D01*
X58586488Y-100052130D01*
X59205535Y-100052130D01*
X73826964Y-100004511D02*
X73969821Y-100052130D01*
X74207916Y-100052130D01*
X74303154Y-100004511D01*
X74350773Y-99956892D01*
X74398392Y-99861654D01*
X74398392Y-99766416D01*
X74350773Y-99671178D01*
X74303154Y-99623559D01*
X74207916Y-99575940D01*
X74017440Y-99528321D01*
X73922202Y-99480702D01*
X73874583Y-99433083D01*
X73826964Y-99337845D01*
X73826964Y-99242607D01*
X73874583Y-99147369D01*
X73922202Y-99099750D01*
X74017440Y-99052130D01*
X74255535Y-99052130D01*
X74398392Y-99099750D01*
X74731726Y-99052130D02*
X74969821Y-100052130D01*
X75160297Y-99337845D01*
X75350773Y-100052130D01*
X75588869Y-99052130D01*
X75731726Y-100147369D02*
X76493630Y-100147369D01*
X76731726Y-100052130D02*
X76731726Y-99052130D01*
X76969821Y-99052130D01*
X77112678Y-99099750D01*
X77207916Y-99194988D01*
X77255535Y-99290226D01*
X77303154Y-99480702D01*
X77303154Y-99623559D01*
X77255535Y-99814035D01*
X77207916Y-99909273D01*
X77112678Y-100004511D01*
X76969821Y-100052130D01*
X76731726Y-100052130D01*
X77636488Y-99052130D02*
X78255535Y-99052130D01*
X77922202Y-99433083D01*
X78065059Y-99433083D01*
X78160297Y-99480702D01*
X78207916Y-99528321D01*
X78255535Y-99623559D01*
X78255535Y-99861654D01*
X78207916Y-99956892D01*
X78160297Y-100004511D01*
X78065059Y-100052130D01*
X77779345Y-100052130D01*
X77684107Y-100004511D01*
X77636488Y-99956892D01*
X128595714Y-100004511D02*
X128738571Y-100052130D01*
X128976666Y-100052130D01*
X129071904Y-100004511D01*
X129119523Y-99956892D01*
X129167142Y-99861654D01*
X129167142Y-99766416D01*
X129119523Y-99671178D01*
X129071904Y-99623559D01*
X128976666Y-99575940D01*
X128786190Y-99528321D01*
X128690952Y-99480702D01*
X128643333Y-99433083D01*
X128595714Y-99337845D01*
X128595714Y-99242607D01*
X128643333Y-99147369D01*
X128690952Y-99099750D01*
X128786190Y-99052130D01*
X129024285Y-99052130D01*
X129167142Y-99099750D01*
X129500476Y-99052130D02*
X129738571Y-100052130D01*
X129929047Y-99337845D01*
X130119523Y-100052130D01*
X130357619Y-99052130D01*
X130500476Y-100147369D02*
X131262380Y-100147369D01*
X131500476Y-100052130D02*
X131500476Y-99052130D01*
X131738571Y-99052130D01*
X131881428Y-99099750D01*
X131976666Y-99194988D01*
X132024285Y-99290226D01*
X132071904Y-99480702D01*
X132071904Y-99623559D01*
X132024285Y-99814035D01*
X131976666Y-99909273D01*
X131881428Y-100004511D01*
X131738571Y-100052130D01*
X131500476Y-100052130D01*
X132976666Y-99052130D02*
X132500476Y-99052130D01*
X132452857Y-99528321D01*
X132500476Y-99480702D01*
X132595714Y-99433083D01*
X132833809Y-99433083D01*
X132929047Y-99480702D01*
X132976666Y-99528321D01*
X133024285Y-99623559D01*
X133024285Y-99861654D01*
X132976666Y-99956892D01*
X132929047Y-100004511D01*
X132833809Y-100052130D01*
X132595714Y-100052130D01*
X132500476Y-100004511D01*
X132452857Y-99956892D01*
X154789464Y-100004511D02*
X154932321Y-100052130D01*
X155170416Y-100052130D01*
X155265654Y-100004511D01*
X155313273Y-99956892D01*
X155360892Y-99861654D01*
X155360892Y-99766416D01*
X155313273Y-99671178D01*
X155265654Y-99623559D01*
X155170416Y-99575940D01*
X154979940Y-99528321D01*
X154884702Y-99480702D01*
X154837083Y-99433083D01*
X154789464Y-99337845D01*
X154789464Y-99242607D01*
X154837083Y-99147369D01*
X154884702Y-99099750D01*
X154979940Y-99052130D01*
X155218035Y-99052130D01*
X155360892Y-99099750D01*
X155694226Y-99052130D02*
X155932321Y-100052130D01*
X156122797Y-99337845D01*
X156313273Y-100052130D01*
X156551369Y-99052130D01*
X156694226Y-100147369D02*
X157456130Y-100147369D01*
X157694226Y-100052130D02*
X157694226Y-99052130D01*
X157932321Y-99052130D01*
X158075178Y-99099750D01*
X158170416Y-99194988D01*
X158218035Y-99290226D01*
X158265654Y-99480702D01*
X158265654Y-99623559D01*
X158218035Y-99814035D01*
X158170416Y-99909273D01*
X158075178Y-100004511D01*
X157932321Y-100052130D01*
X157694226Y-100052130D01*
X159122797Y-99052130D02*
X158932321Y-99052130D01*
X158837083Y-99099750D01*
X158789464Y-99147369D01*
X158694226Y-99290226D01*
X158646607Y-99480702D01*
X158646607Y-99861654D01*
X158694226Y-99956892D01*
X158741845Y-100004511D01*
X158837083Y-100052130D01*
X159027559Y-100052130D01*
X159122797Y-100004511D01*
X159170416Y-99956892D01*
X159218035Y-99861654D01*
X159218035Y-99623559D01*
X159170416Y-99528321D01*
X159122797Y-99480702D01*
X159027559Y-99433083D01*
X158837083Y-99433083D01*
X158741845Y-99480702D01*
X158694226Y-99528321D01*
X158646607Y-99623559D01*
X173839464Y-100004511D02*
X173982321Y-100052130D01*
X174220416Y-100052130D01*
X174315654Y-100004511D01*
X174363273Y-99956892D01*
X174410892Y-99861654D01*
X174410892Y-99766416D01*
X174363273Y-99671178D01*
X174315654Y-99623559D01*
X174220416Y-99575940D01*
X174029940Y-99528321D01*
X173934702Y-99480702D01*
X173887083Y-99433083D01*
X173839464Y-99337845D01*
X173839464Y-99242607D01*
X173887083Y-99147369D01*
X173934702Y-99099750D01*
X174029940Y-99052130D01*
X174268035Y-99052130D01*
X174410892Y-99099750D01*
X174744226Y-99052130D02*
X174982321Y-100052130D01*
X175172797Y-99337845D01*
X175363273Y-100052130D01*
X175601369Y-99052130D01*
X175744226Y-100147369D02*
X176506130Y-100147369D01*
X176744226Y-100052130D02*
X176744226Y-99052130D01*
X176982321Y-99052130D01*
X177125178Y-99099750D01*
X177220416Y-99194988D01*
X177268035Y-99290226D01*
X177315654Y-99480702D01*
X177315654Y-99623559D01*
X177268035Y-99814035D01*
X177220416Y-99909273D01*
X177125178Y-100004511D01*
X176982321Y-100052130D01*
X176744226Y-100052130D01*
X177648988Y-99052130D02*
X178315654Y-99052130D01*
X177887083Y-100052130D01*
X192889464Y-100004511D02*
X193032321Y-100052130D01*
X193270416Y-100052130D01*
X193365654Y-100004511D01*
X193413273Y-99956892D01*
X193460892Y-99861654D01*
X193460892Y-99766416D01*
X193413273Y-99671178D01*
X193365654Y-99623559D01*
X193270416Y-99575940D01*
X193079940Y-99528321D01*
X192984702Y-99480702D01*
X192937083Y-99433083D01*
X192889464Y-99337845D01*
X192889464Y-99242607D01*
X192937083Y-99147369D01*
X192984702Y-99099750D01*
X193079940Y-99052130D01*
X193318035Y-99052130D01*
X193460892Y-99099750D01*
X193794226Y-99052130D02*
X194032321Y-100052130D01*
X194222797Y-99337845D01*
X194413273Y-100052130D01*
X194651369Y-99052130D01*
X194794226Y-100147369D02*
X195556130Y-100147369D01*
X195794226Y-100052130D02*
X195794226Y-99052130D01*
X196032321Y-99052130D01*
X196175178Y-99099750D01*
X196270416Y-99194988D01*
X196318035Y-99290226D01*
X196365654Y-99480702D01*
X196365654Y-99623559D01*
X196318035Y-99814035D01*
X196270416Y-99909273D01*
X196175178Y-100004511D01*
X196032321Y-100052130D01*
X195794226Y-100052130D01*
X196937083Y-99480702D02*
X196841845Y-99433083D01*
X196794226Y-99385464D01*
X196746607Y-99290226D01*
X196746607Y-99242607D01*
X196794226Y-99147369D01*
X196841845Y-99099750D01*
X196937083Y-99052130D01*
X197127559Y-99052130D01*
X197222797Y-99099750D01*
X197270416Y-99147369D01*
X197318035Y-99242607D01*
X197318035Y-99290226D01*
X197270416Y-99385464D01*
X197222797Y-99433083D01*
X197127559Y-99480702D01*
X196937083Y-99480702D01*
X196841845Y-99528321D01*
X196794226Y-99575940D01*
X196746607Y-99671178D01*
X196746607Y-99861654D01*
X196794226Y-99956892D01*
X196841845Y-100004511D01*
X196937083Y-100052130D01*
X197127559Y-100052130D01*
X197222797Y-100004511D01*
X197270416Y-99956892D01*
X197318035Y-99861654D01*
X197318035Y-99671178D01*
X197270416Y-99575940D01*
X197222797Y-99528321D01*
X197127559Y-99480702D01*
X211939464Y-100004511D02*
X212082321Y-100052130D01*
X212320416Y-100052130D01*
X212415654Y-100004511D01*
X212463273Y-99956892D01*
X212510892Y-99861654D01*
X212510892Y-99766416D01*
X212463273Y-99671178D01*
X212415654Y-99623559D01*
X212320416Y-99575940D01*
X212129940Y-99528321D01*
X212034702Y-99480702D01*
X211987083Y-99433083D01*
X211939464Y-99337845D01*
X211939464Y-99242607D01*
X211987083Y-99147369D01*
X212034702Y-99099750D01*
X212129940Y-99052130D01*
X212368035Y-99052130D01*
X212510892Y-99099750D01*
X212844226Y-99052130D02*
X213082321Y-100052130D01*
X213272797Y-99337845D01*
X213463273Y-100052130D01*
X213701369Y-99052130D01*
X213844226Y-100147369D02*
X214606130Y-100147369D01*
X214844226Y-100052130D02*
X214844226Y-99052130D01*
X215082321Y-99052130D01*
X215225178Y-99099750D01*
X215320416Y-99194988D01*
X215368035Y-99290226D01*
X215415654Y-99480702D01*
X215415654Y-99623559D01*
X215368035Y-99814035D01*
X215320416Y-99909273D01*
X215225178Y-100004511D01*
X215082321Y-100052130D01*
X214844226Y-100052130D01*
X215891845Y-100052130D02*
X216082321Y-100052130D01*
X216177559Y-100004511D01*
X216225178Y-99956892D01*
X216320416Y-99814035D01*
X216368035Y-99623559D01*
X216368035Y-99242607D01*
X216320416Y-99147369D01*
X216272797Y-99099750D01*
X216177559Y-99052130D01*
X215987083Y-99052130D01*
X215891845Y-99099750D01*
X215844226Y-99147369D01*
X215796607Y-99242607D01*
X215796607Y-99480702D01*
X215844226Y-99575940D01*
X215891845Y-99623559D01*
X215987083Y-99671178D01*
X216177559Y-99671178D01*
X216272797Y-99623559D01*
X216320416Y-99575940D01*
X216368035Y-99480702D01*
X230513273Y-100004511D02*
X230656130Y-100052130D01*
X230894226Y-100052130D01*
X230989464Y-100004511D01*
X231037083Y-99956892D01*
X231084702Y-99861654D01*
X231084702Y-99766416D01*
X231037083Y-99671178D01*
X230989464Y-99623559D01*
X230894226Y-99575940D01*
X230703750Y-99528321D01*
X230608511Y-99480702D01*
X230560892Y-99433083D01*
X230513273Y-99337845D01*
X230513273Y-99242607D01*
X230560892Y-99147369D01*
X230608511Y-99099750D01*
X230703750Y-99052130D01*
X230941845Y-99052130D01*
X231084702Y-99099750D01*
X231418035Y-99052130D02*
X231656130Y-100052130D01*
X231846607Y-99337845D01*
X232037083Y-100052130D01*
X232275178Y-99052130D01*
X232418035Y-100147369D02*
X233179940Y-100147369D01*
X233418035Y-100052130D02*
X233418035Y-99052130D01*
X233656130Y-99052130D01*
X233798988Y-99099750D01*
X233894226Y-99194988D01*
X233941845Y-99290226D01*
X233989464Y-99480702D01*
X233989464Y-99623559D01*
X233941845Y-99814035D01*
X233894226Y-99909273D01*
X233798988Y-100004511D01*
X233656130Y-100052130D01*
X233418035Y-100052130D01*
X234941845Y-100052130D02*
X234370416Y-100052130D01*
X234656130Y-100052130D02*
X234656130Y-99052130D01*
X234560892Y-99194988D01*
X234465654Y-99290226D01*
X234370416Y-99337845D01*
X235560892Y-99052130D02*
X235656130Y-99052130D01*
X235751369Y-99099750D01*
X235798988Y-99147369D01*
X235846607Y-99242607D01*
X235894226Y-99433083D01*
X235894226Y-99671178D01*
X235846607Y-99861654D01*
X235798988Y-99956892D01*
X235751369Y-100004511D01*
X235656130Y-100052130D01*
X235560892Y-100052130D01*
X235465654Y-100004511D01*
X235418035Y-99956892D01*
X235370416Y-99861654D01*
X235322797Y-99671178D01*
X235322797Y-99433083D01*
X235370416Y-99242607D01*
X235418035Y-99147369D01*
X235465654Y-99099750D01*
X235560892Y-99052130D01*
X249563273Y-100004511D02*
X249706130Y-100052130D01*
X249944226Y-100052130D01*
X250039464Y-100004511D01*
X250087083Y-99956892D01*
X250134702Y-99861654D01*
X250134702Y-99766416D01*
X250087083Y-99671178D01*
X250039464Y-99623559D01*
X249944226Y-99575940D01*
X249753750Y-99528321D01*
X249658511Y-99480702D01*
X249610892Y-99433083D01*
X249563273Y-99337845D01*
X249563273Y-99242607D01*
X249610892Y-99147369D01*
X249658511Y-99099750D01*
X249753750Y-99052130D01*
X249991845Y-99052130D01*
X250134702Y-99099750D01*
X250468035Y-99052130D02*
X250706130Y-100052130D01*
X250896607Y-99337845D01*
X251087083Y-100052130D01*
X251325178Y-99052130D01*
X251468035Y-100147369D02*
X252229940Y-100147369D01*
X252468035Y-100052130D02*
X252468035Y-99052130D01*
X252706130Y-99052130D01*
X252848988Y-99099750D01*
X252944226Y-99194988D01*
X252991845Y-99290226D01*
X253039464Y-99480702D01*
X253039464Y-99623559D01*
X252991845Y-99814035D01*
X252944226Y-99909273D01*
X252848988Y-100004511D01*
X252706130Y-100052130D01*
X252468035Y-100052130D01*
X253991845Y-100052130D02*
X253420416Y-100052130D01*
X253706130Y-100052130D02*
X253706130Y-99052130D01*
X253610892Y-99194988D01*
X253515654Y-99290226D01*
X253420416Y-99337845D01*
X254944226Y-100052130D02*
X254372797Y-100052130D01*
X254658511Y-100052130D02*
X254658511Y-99052130D01*
X254563273Y-99194988D01*
X254468035Y-99290226D01*
X254372797Y-99337845D01*
X35774583Y-119054511D02*
X35917440Y-119102130D01*
X36155535Y-119102130D01*
X36250773Y-119054511D01*
X36298392Y-119006892D01*
X36346011Y-118911654D01*
X36346011Y-118816416D01*
X36298392Y-118721178D01*
X36250773Y-118673559D01*
X36155535Y-118625940D01*
X35965059Y-118578321D01*
X35869821Y-118530702D01*
X35822202Y-118483083D01*
X35774583Y-118387845D01*
X35774583Y-118292607D01*
X35822202Y-118197369D01*
X35869821Y-118149750D01*
X35965059Y-118102130D01*
X36203154Y-118102130D01*
X36346011Y-118149750D01*
X36679345Y-118102130D02*
X36917440Y-119102130D01*
X37107916Y-118387845D01*
X37298392Y-119102130D01*
X37536488Y-118102130D01*
X37679345Y-119197369D02*
X38441250Y-119197369D01*
X38679345Y-118578321D02*
X39012678Y-118578321D01*
X39155535Y-119102130D02*
X38679345Y-119102130D01*
X38679345Y-118102130D01*
X39155535Y-118102130D01*
X40107916Y-119102130D02*
X39536488Y-119102130D01*
X39822202Y-119102130D02*
X39822202Y-118102130D01*
X39726964Y-118244988D01*
X39631726Y-118340226D01*
X39536488Y-118387845D01*
X54824583Y-119054511D02*
X54967440Y-119102130D01*
X55205535Y-119102130D01*
X55300773Y-119054511D01*
X55348392Y-119006892D01*
X55396011Y-118911654D01*
X55396011Y-118816416D01*
X55348392Y-118721178D01*
X55300773Y-118673559D01*
X55205535Y-118625940D01*
X55015059Y-118578321D01*
X54919821Y-118530702D01*
X54872202Y-118483083D01*
X54824583Y-118387845D01*
X54824583Y-118292607D01*
X54872202Y-118197369D01*
X54919821Y-118149750D01*
X55015059Y-118102130D01*
X55253154Y-118102130D01*
X55396011Y-118149750D01*
X55729345Y-118102130D02*
X55967440Y-119102130D01*
X56157916Y-118387845D01*
X56348392Y-119102130D01*
X56586488Y-118102130D01*
X56729345Y-119197369D02*
X57491250Y-119197369D01*
X57729345Y-118578321D02*
X58062678Y-118578321D01*
X58205535Y-119102130D02*
X57729345Y-119102130D01*
X57729345Y-118102130D01*
X58205535Y-118102130D01*
X58586488Y-118197369D02*
X58634107Y-118149750D01*
X58729345Y-118102130D01*
X58967440Y-118102130D01*
X59062678Y-118149750D01*
X59110297Y-118197369D01*
X59157916Y-118292607D01*
X59157916Y-118387845D01*
X59110297Y-118530702D01*
X58538869Y-119102130D01*
X59157916Y-119102130D01*
X73874583Y-119054511D02*
X74017440Y-119102130D01*
X74255535Y-119102130D01*
X74350773Y-119054511D01*
X74398392Y-119006892D01*
X74446011Y-118911654D01*
X74446011Y-118816416D01*
X74398392Y-118721178D01*
X74350773Y-118673559D01*
X74255535Y-118625940D01*
X74065059Y-118578321D01*
X73969821Y-118530702D01*
X73922202Y-118483083D01*
X73874583Y-118387845D01*
X73874583Y-118292607D01*
X73922202Y-118197369D01*
X73969821Y-118149750D01*
X74065059Y-118102130D01*
X74303154Y-118102130D01*
X74446011Y-118149750D01*
X74779345Y-118102130D02*
X75017440Y-119102130D01*
X75207916Y-118387845D01*
X75398392Y-119102130D01*
X75636488Y-118102130D01*
X75779345Y-119197369D02*
X76541250Y-119197369D01*
X76779345Y-118578321D02*
X77112678Y-118578321D01*
X77255535Y-119102130D02*
X76779345Y-119102130D01*
X76779345Y-118102130D01*
X77255535Y-118102130D01*
X77588869Y-118102130D02*
X78207916Y-118102130D01*
X77874583Y-118483083D01*
X78017440Y-118483083D01*
X78112678Y-118530702D01*
X78160297Y-118578321D01*
X78207916Y-118673559D01*
X78207916Y-118911654D01*
X78160297Y-119006892D01*
X78112678Y-119054511D01*
X78017440Y-119102130D01*
X77731726Y-119102130D01*
X77636488Y-119054511D01*
X77588869Y-119006892D01*
X92924583Y-128579511D02*
X93067440Y-128627130D01*
X93305535Y-128627130D01*
X93400773Y-128579511D01*
X93448392Y-128531892D01*
X93496011Y-128436654D01*
X93496011Y-128341416D01*
X93448392Y-128246178D01*
X93400773Y-128198559D01*
X93305535Y-128150940D01*
X93115059Y-128103321D01*
X93019821Y-128055702D01*
X92972202Y-128008083D01*
X92924583Y-127912845D01*
X92924583Y-127817607D01*
X92972202Y-127722369D01*
X93019821Y-127674750D01*
X93115059Y-127627130D01*
X93353154Y-127627130D01*
X93496011Y-127674750D01*
X93829345Y-127627130D02*
X94067440Y-128627130D01*
X94257916Y-127912845D01*
X94448392Y-128627130D01*
X94686488Y-127627130D01*
X94829345Y-128722369D02*
X95591250Y-128722369D01*
X95829345Y-128103321D02*
X96162678Y-128103321D01*
X96305535Y-128627130D02*
X95829345Y-128627130D01*
X95829345Y-127627130D01*
X96305535Y-127627130D01*
X97162678Y-127960464D02*
X97162678Y-128627130D01*
X96924583Y-127579511D02*
X96686488Y-128293797D01*
X97305535Y-128293797D01*
X133405833Y-119054511D02*
X133548690Y-119102130D01*
X133786785Y-119102130D01*
X133882023Y-119054511D01*
X133929642Y-119006892D01*
X133977261Y-118911654D01*
X133977261Y-118816416D01*
X133929642Y-118721178D01*
X133882023Y-118673559D01*
X133786785Y-118625940D01*
X133596309Y-118578321D01*
X133501071Y-118530702D01*
X133453452Y-118483083D01*
X133405833Y-118387845D01*
X133405833Y-118292607D01*
X133453452Y-118197369D01*
X133501071Y-118149750D01*
X133596309Y-118102130D01*
X133834404Y-118102130D01*
X133977261Y-118149750D01*
X134310595Y-118102130D02*
X134548690Y-119102130D01*
X134739166Y-118387845D01*
X134929642Y-119102130D01*
X135167738Y-118102130D01*
X135310595Y-119197369D02*
X136072500Y-119197369D01*
X136310595Y-118578321D02*
X136643928Y-118578321D01*
X136786785Y-119102130D02*
X136310595Y-119102130D01*
X136310595Y-118102130D01*
X136786785Y-118102130D01*
X137691547Y-118102130D02*
X137215357Y-118102130D01*
X137167738Y-118578321D01*
X137215357Y-118530702D01*
X137310595Y-118483083D01*
X137548690Y-118483083D01*
X137643928Y-118530702D01*
X137691547Y-118578321D01*
X137739166Y-118673559D01*
X137739166Y-118911654D01*
X137691547Y-119006892D01*
X137643928Y-119054511D01*
X137548690Y-119102130D01*
X137310595Y-119102130D01*
X137215357Y-119054511D01*
X137167738Y-119006892D01*
X164362083Y-119054511D02*
X164504940Y-119102130D01*
X164743035Y-119102130D01*
X164838273Y-119054511D01*
X164885892Y-119006892D01*
X164933511Y-118911654D01*
X164933511Y-118816416D01*
X164885892Y-118721178D01*
X164838273Y-118673559D01*
X164743035Y-118625940D01*
X164552559Y-118578321D01*
X164457321Y-118530702D01*
X164409702Y-118483083D01*
X164362083Y-118387845D01*
X164362083Y-118292607D01*
X164409702Y-118197369D01*
X164457321Y-118149750D01*
X164552559Y-118102130D01*
X164790654Y-118102130D01*
X164933511Y-118149750D01*
X165266845Y-118102130D02*
X165504940Y-119102130D01*
X165695416Y-118387845D01*
X165885892Y-119102130D01*
X166123988Y-118102130D01*
X166266845Y-119197369D02*
X167028750Y-119197369D01*
X167266845Y-118578321D02*
X167600178Y-118578321D01*
X167743035Y-119102130D02*
X167266845Y-119102130D01*
X167266845Y-118102130D01*
X167743035Y-118102130D01*
X168600178Y-118102130D02*
X168409702Y-118102130D01*
X168314464Y-118149750D01*
X168266845Y-118197369D01*
X168171607Y-118340226D01*
X168123988Y-118530702D01*
X168123988Y-118911654D01*
X168171607Y-119006892D01*
X168219226Y-119054511D01*
X168314464Y-119102130D01*
X168504940Y-119102130D01*
X168600178Y-119054511D01*
X168647797Y-119006892D01*
X168695416Y-118911654D01*
X168695416Y-118673559D01*
X168647797Y-118578321D01*
X168600178Y-118530702D01*
X168504940Y-118483083D01*
X168314464Y-118483083D01*
X168219226Y-118530702D01*
X168171607Y-118578321D01*
X168123988Y-118673559D01*
X183412083Y-119054511D02*
X183554940Y-119102130D01*
X183793035Y-119102130D01*
X183888273Y-119054511D01*
X183935892Y-119006892D01*
X183983511Y-118911654D01*
X183983511Y-118816416D01*
X183935892Y-118721178D01*
X183888273Y-118673559D01*
X183793035Y-118625940D01*
X183602559Y-118578321D01*
X183507321Y-118530702D01*
X183459702Y-118483083D01*
X183412083Y-118387845D01*
X183412083Y-118292607D01*
X183459702Y-118197369D01*
X183507321Y-118149750D01*
X183602559Y-118102130D01*
X183840654Y-118102130D01*
X183983511Y-118149750D01*
X184316845Y-118102130D02*
X184554940Y-119102130D01*
X184745416Y-118387845D01*
X184935892Y-119102130D01*
X185173988Y-118102130D01*
X185316845Y-119197369D02*
X186078750Y-119197369D01*
X186316845Y-118578321D02*
X186650178Y-118578321D01*
X186793035Y-119102130D02*
X186316845Y-119102130D01*
X186316845Y-118102130D01*
X186793035Y-118102130D01*
X187126369Y-118102130D02*
X187793035Y-118102130D01*
X187364464Y-119102130D01*
X202462083Y-119054511D02*
X202604940Y-119102130D01*
X202843035Y-119102130D01*
X202938273Y-119054511D01*
X202985892Y-119006892D01*
X203033511Y-118911654D01*
X203033511Y-118816416D01*
X202985892Y-118721178D01*
X202938273Y-118673559D01*
X202843035Y-118625940D01*
X202652559Y-118578321D01*
X202557321Y-118530702D01*
X202509702Y-118483083D01*
X202462083Y-118387845D01*
X202462083Y-118292607D01*
X202509702Y-118197369D01*
X202557321Y-118149750D01*
X202652559Y-118102130D01*
X202890654Y-118102130D01*
X203033511Y-118149750D01*
X203366845Y-118102130D02*
X203604940Y-119102130D01*
X203795416Y-118387845D01*
X203985892Y-119102130D01*
X204223988Y-118102130D01*
X204366845Y-119197369D02*
X205128750Y-119197369D01*
X205366845Y-118578321D02*
X205700178Y-118578321D01*
X205843035Y-119102130D02*
X205366845Y-119102130D01*
X205366845Y-118102130D01*
X205843035Y-118102130D01*
X206414464Y-118530702D02*
X206319226Y-118483083D01*
X206271607Y-118435464D01*
X206223988Y-118340226D01*
X206223988Y-118292607D01*
X206271607Y-118197369D01*
X206319226Y-118149750D01*
X206414464Y-118102130D01*
X206604940Y-118102130D01*
X206700178Y-118149750D01*
X206747797Y-118197369D01*
X206795416Y-118292607D01*
X206795416Y-118340226D01*
X206747797Y-118435464D01*
X206700178Y-118483083D01*
X206604940Y-118530702D01*
X206414464Y-118530702D01*
X206319226Y-118578321D01*
X206271607Y-118625940D01*
X206223988Y-118721178D01*
X206223988Y-118911654D01*
X206271607Y-119006892D01*
X206319226Y-119054511D01*
X206414464Y-119102130D01*
X206604940Y-119102130D01*
X206700178Y-119054511D01*
X206747797Y-119006892D01*
X206795416Y-118911654D01*
X206795416Y-118721178D01*
X206747797Y-118625940D01*
X206700178Y-118578321D01*
X206604940Y-118530702D01*
X221512083Y-119054511D02*
X221654940Y-119102130D01*
X221893035Y-119102130D01*
X221988273Y-119054511D01*
X222035892Y-119006892D01*
X222083511Y-118911654D01*
X222083511Y-118816416D01*
X222035892Y-118721178D01*
X221988273Y-118673559D01*
X221893035Y-118625940D01*
X221702559Y-118578321D01*
X221607321Y-118530702D01*
X221559702Y-118483083D01*
X221512083Y-118387845D01*
X221512083Y-118292607D01*
X221559702Y-118197369D01*
X221607321Y-118149750D01*
X221702559Y-118102130D01*
X221940654Y-118102130D01*
X222083511Y-118149750D01*
X222416845Y-118102130D02*
X222654940Y-119102130D01*
X222845416Y-118387845D01*
X223035892Y-119102130D01*
X223273988Y-118102130D01*
X223416845Y-119197369D02*
X224178750Y-119197369D01*
X224416845Y-118578321D02*
X224750178Y-118578321D01*
X224893035Y-119102130D02*
X224416845Y-119102130D01*
X224416845Y-118102130D01*
X224893035Y-118102130D01*
X225369226Y-119102130D02*
X225559702Y-119102130D01*
X225654940Y-119054511D01*
X225702559Y-119006892D01*
X225797797Y-118864035D01*
X225845416Y-118673559D01*
X225845416Y-118292607D01*
X225797797Y-118197369D01*
X225750178Y-118149750D01*
X225654940Y-118102130D01*
X225464464Y-118102130D01*
X225369226Y-118149750D01*
X225321607Y-118197369D01*
X225273988Y-118292607D01*
X225273988Y-118530702D01*
X225321607Y-118625940D01*
X225369226Y-118673559D01*
X225464464Y-118721178D01*
X225654940Y-118721178D01*
X225750178Y-118673559D01*
X225797797Y-118625940D01*
X225845416Y-118530702D01*
X240085892Y-119054511D02*
X240228750Y-119102130D01*
X240466845Y-119102130D01*
X240562083Y-119054511D01*
X240609702Y-119006892D01*
X240657321Y-118911654D01*
X240657321Y-118816416D01*
X240609702Y-118721178D01*
X240562083Y-118673559D01*
X240466845Y-118625940D01*
X240276369Y-118578321D01*
X240181130Y-118530702D01*
X240133511Y-118483083D01*
X240085892Y-118387845D01*
X240085892Y-118292607D01*
X240133511Y-118197369D01*
X240181130Y-118149750D01*
X240276369Y-118102130D01*
X240514464Y-118102130D01*
X240657321Y-118149750D01*
X240990654Y-118102130D02*
X241228750Y-119102130D01*
X241419226Y-118387845D01*
X241609702Y-119102130D01*
X241847797Y-118102130D01*
X241990654Y-119197369D02*
X242752559Y-119197369D01*
X242990654Y-118578321D02*
X243323988Y-118578321D01*
X243466845Y-119102130D02*
X242990654Y-119102130D01*
X242990654Y-118102130D01*
X243466845Y-118102130D01*
X244419226Y-119102130D02*
X243847797Y-119102130D01*
X244133511Y-119102130D02*
X244133511Y-118102130D01*
X244038273Y-118244988D01*
X243943035Y-118340226D01*
X243847797Y-118387845D01*
X245038273Y-118102130D02*
X245133511Y-118102130D01*
X245228750Y-118149750D01*
X245276369Y-118197369D01*
X245323988Y-118292607D01*
X245371607Y-118483083D01*
X245371607Y-118721178D01*
X245323988Y-118911654D01*
X245276369Y-119006892D01*
X245228750Y-119054511D01*
X245133511Y-119102130D01*
X245038273Y-119102130D01*
X244943035Y-119054511D01*
X244895416Y-119006892D01*
X244847797Y-118911654D01*
X244800178Y-118721178D01*
X244800178Y-118483083D01*
X244847797Y-118292607D01*
X244895416Y-118197369D01*
X244943035Y-118149750D01*
X245038273Y-118102130D01*
X259135892Y-119054511D02*
X259278750Y-119102130D01*
X259516845Y-119102130D01*
X259612083Y-119054511D01*
X259659702Y-119006892D01*
X259707321Y-118911654D01*
X259707321Y-118816416D01*
X259659702Y-118721178D01*
X259612083Y-118673559D01*
X259516845Y-118625940D01*
X259326369Y-118578321D01*
X259231130Y-118530702D01*
X259183511Y-118483083D01*
X259135892Y-118387845D01*
X259135892Y-118292607D01*
X259183511Y-118197369D01*
X259231130Y-118149750D01*
X259326369Y-118102130D01*
X259564464Y-118102130D01*
X259707321Y-118149750D01*
X260040654Y-118102130D02*
X260278750Y-119102130D01*
X260469226Y-118387845D01*
X260659702Y-119102130D01*
X260897797Y-118102130D01*
X261040654Y-119197369D02*
X261802559Y-119197369D01*
X262040654Y-118578321D02*
X262373988Y-118578321D01*
X262516845Y-119102130D02*
X262040654Y-119102130D01*
X262040654Y-118102130D01*
X262516845Y-118102130D01*
X263469226Y-119102130D02*
X262897797Y-119102130D01*
X263183511Y-119102130D02*
X263183511Y-118102130D01*
X263088273Y-118244988D01*
X262993035Y-118340226D01*
X262897797Y-118387845D01*
X264421607Y-119102130D02*
X263850178Y-119102130D01*
X264135892Y-119102130D02*
X264135892Y-118102130D01*
X264040654Y-118244988D01*
X263945416Y-118340226D01*
X263850178Y-118387845D01*
X45323392Y-138104511D02*
X45466250Y-138152130D01*
X45704345Y-138152130D01*
X45799583Y-138104511D01*
X45847202Y-138056892D01*
X45894821Y-137961654D01*
X45894821Y-137866416D01*
X45847202Y-137771178D01*
X45799583Y-137723559D01*
X45704345Y-137675940D01*
X45513869Y-137628321D01*
X45418630Y-137580702D01*
X45371011Y-137533083D01*
X45323392Y-137437845D01*
X45323392Y-137342607D01*
X45371011Y-137247369D01*
X45418630Y-137199750D01*
X45513869Y-137152130D01*
X45751964Y-137152130D01*
X45894821Y-137199750D01*
X46228154Y-137152130D02*
X46466250Y-138152130D01*
X46656726Y-137437845D01*
X46847202Y-138152130D01*
X47085297Y-137152130D01*
X47228154Y-138247369D02*
X47990059Y-138247369D01*
X48561488Y-137628321D02*
X48228154Y-137628321D01*
X48228154Y-138152130D02*
X48228154Y-137152130D01*
X48704345Y-137152130D01*
X49609107Y-138152130D02*
X49037678Y-138152130D01*
X49323392Y-138152130D02*
X49323392Y-137152130D01*
X49228154Y-137294988D01*
X49132916Y-137390226D01*
X49037678Y-137437845D01*
X73898392Y-138104511D02*
X74041250Y-138152130D01*
X74279345Y-138152130D01*
X74374583Y-138104511D01*
X74422202Y-138056892D01*
X74469821Y-137961654D01*
X74469821Y-137866416D01*
X74422202Y-137771178D01*
X74374583Y-137723559D01*
X74279345Y-137675940D01*
X74088869Y-137628321D01*
X73993630Y-137580702D01*
X73946011Y-137533083D01*
X73898392Y-137437845D01*
X73898392Y-137342607D01*
X73946011Y-137247369D01*
X73993630Y-137199750D01*
X74088869Y-137152130D01*
X74326964Y-137152130D01*
X74469821Y-137199750D01*
X74803154Y-137152130D02*
X75041250Y-138152130D01*
X75231726Y-137437845D01*
X75422202Y-138152130D01*
X75660297Y-137152130D01*
X75803154Y-138247369D02*
X76565059Y-138247369D01*
X77136488Y-137628321D02*
X76803154Y-137628321D01*
X76803154Y-138152130D02*
X76803154Y-137152130D01*
X77279345Y-137152130D01*
X77565059Y-137152130D02*
X78184107Y-137152130D01*
X77850773Y-137533083D01*
X77993630Y-137533083D01*
X78088869Y-137580702D01*
X78136488Y-137628321D01*
X78184107Y-137723559D01*
X78184107Y-137961654D01*
X78136488Y-138056892D01*
X78088869Y-138104511D01*
X77993630Y-138152130D01*
X77707916Y-138152130D01*
X77612678Y-138104511D01*
X77565059Y-138056892D01*
X123904642Y-138104511D02*
X124047500Y-138152130D01*
X124285595Y-138152130D01*
X124380833Y-138104511D01*
X124428452Y-138056892D01*
X124476071Y-137961654D01*
X124476071Y-137866416D01*
X124428452Y-137771178D01*
X124380833Y-137723559D01*
X124285595Y-137675940D01*
X124095119Y-137628321D01*
X123999880Y-137580702D01*
X123952261Y-137533083D01*
X123904642Y-137437845D01*
X123904642Y-137342607D01*
X123952261Y-137247369D01*
X123999880Y-137199750D01*
X124095119Y-137152130D01*
X124333214Y-137152130D01*
X124476071Y-137199750D01*
X124809404Y-137152130D02*
X125047500Y-138152130D01*
X125237976Y-137437845D01*
X125428452Y-138152130D01*
X125666547Y-137152130D01*
X125809404Y-138247369D02*
X126571309Y-138247369D01*
X127142738Y-137628321D02*
X126809404Y-137628321D01*
X126809404Y-138152130D02*
X126809404Y-137152130D01*
X127285595Y-137152130D01*
X128142738Y-137152130D02*
X127666547Y-137152130D01*
X127618928Y-137628321D01*
X127666547Y-137580702D01*
X127761785Y-137533083D01*
X127999880Y-137533083D01*
X128095119Y-137580702D01*
X128142738Y-137628321D01*
X128190357Y-137723559D01*
X128190357Y-137961654D01*
X128142738Y-138056892D01*
X128095119Y-138104511D01*
X127999880Y-138152130D01*
X127761785Y-138152130D01*
X127666547Y-138104511D01*
X127618928Y-138056892D01*
X147717142Y-138104511D02*
X147860000Y-138152130D01*
X148098095Y-138152130D01*
X148193333Y-138104511D01*
X148240952Y-138056892D01*
X148288571Y-137961654D01*
X148288571Y-137866416D01*
X148240952Y-137771178D01*
X148193333Y-137723559D01*
X148098095Y-137675940D01*
X147907619Y-137628321D01*
X147812380Y-137580702D01*
X147764761Y-137533083D01*
X147717142Y-137437845D01*
X147717142Y-137342607D01*
X147764761Y-137247369D01*
X147812380Y-137199750D01*
X147907619Y-137152130D01*
X148145714Y-137152130D01*
X148288571Y-137199750D01*
X148621904Y-137152130D02*
X148860000Y-138152130D01*
X149050476Y-137437845D01*
X149240952Y-138152130D01*
X149479047Y-137152130D01*
X149621904Y-138247369D02*
X150383809Y-138247369D01*
X150955238Y-137628321D02*
X150621904Y-137628321D01*
X150621904Y-138152130D02*
X150621904Y-137152130D01*
X151098095Y-137152130D01*
X151907619Y-137152130D02*
X151717142Y-137152130D01*
X151621904Y-137199750D01*
X151574285Y-137247369D01*
X151479047Y-137390226D01*
X151431428Y-137580702D01*
X151431428Y-137961654D01*
X151479047Y-138056892D01*
X151526666Y-138104511D01*
X151621904Y-138152130D01*
X151812380Y-138152130D01*
X151907619Y-138104511D01*
X151955238Y-138056892D01*
X152002857Y-137961654D01*
X152002857Y-137723559D01*
X151955238Y-137628321D01*
X151907619Y-137580702D01*
X151812380Y-137533083D01*
X151621904Y-137533083D01*
X151526666Y-137580702D01*
X151479047Y-137628321D01*
X151431428Y-137723559D01*
X171529642Y-138104511D02*
X171672500Y-138152130D01*
X171910595Y-138152130D01*
X172005833Y-138104511D01*
X172053452Y-138056892D01*
X172101071Y-137961654D01*
X172101071Y-137866416D01*
X172053452Y-137771178D01*
X172005833Y-137723559D01*
X171910595Y-137675940D01*
X171720119Y-137628321D01*
X171624880Y-137580702D01*
X171577261Y-137533083D01*
X171529642Y-137437845D01*
X171529642Y-137342607D01*
X171577261Y-137247369D01*
X171624880Y-137199750D01*
X171720119Y-137152130D01*
X171958214Y-137152130D01*
X172101071Y-137199750D01*
X172434404Y-137152130D02*
X172672500Y-138152130D01*
X172862976Y-137437845D01*
X173053452Y-138152130D01*
X173291547Y-137152130D01*
X173434404Y-138247369D02*
X174196309Y-138247369D01*
X174767738Y-137628321D02*
X174434404Y-137628321D01*
X174434404Y-138152130D02*
X174434404Y-137152130D01*
X174910595Y-137152130D01*
X175196309Y-137152130D02*
X175862976Y-137152130D01*
X175434404Y-138152130D01*
X195342142Y-138104511D02*
X195485000Y-138152130D01*
X195723095Y-138152130D01*
X195818333Y-138104511D01*
X195865952Y-138056892D01*
X195913571Y-137961654D01*
X195913571Y-137866416D01*
X195865952Y-137771178D01*
X195818333Y-137723559D01*
X195723095Y-137675940D01*
X195532619Y-137628321D01*
X195437380Y-137580702D01*
X195389761Y-137533083D01*
X195342142Y-137437845D01*
X195342142Y-137342607D01*
X195389761Y-137247369D01*
X195437380Y-137199750D01*
X195532619Y-137152130D01*
X195770714Y-137152130D01*
X195913571Y-137199750D01*
X196246904Y-137152130D02*
X196485000Y-138152130D01*
X196675476Y-137437845D01*
X196865952Y-138152130D01*
X197104047Y-137152130D01*
X197246904Y-138247369D02*
X198008809Y-138247369D01*
X198580238Y-137628321D02*
X198246904Y-137628321D01*
X198246904Y-138152130D02*
X198246904Y-137152130D01*
X198723095Y-137152130D01*
X199246904Y-137580702D02*
X199151666Y-137533083D01*
X199104047Y-137485464D01*
X199056428Y-137390226D01*
X199056428Y-137342607D01*
X199104047Y-137247369D01*
X199151666Y-137199750D01*
X199246904Y-137152130D01*
X199437380Y-137152130D01*
X199532619Y-137199750D01*
X199580238Y-137247369D01*
X199627857Y-137342607D01*
X199627857Y-137390226D01*
X199580238Y-137485464D01*
X199532619Y-137533083D01*
X199437380Y-137580702D01*
X199246904Y-137580702D01*
X199151666Y-137628321D01*
X199104047Y-137675940D01*
X199056428Y-137771178D01*
X199056428Y-137961654D01*
X199104047Y-138056892D01*
X199151666Y-138104511D01*
X199246904Y-138152130D01*
X199437380Y-138152130D01*
X199532619Y-138104511D01*
X199580238Y-138056892D01*
X199627857Y-137961654D01*
X199627857Y-137771178D01*
X199580238Y-137675940D01*
X199532619Y-137628321D01*
X199437380Y-137580702D01*
X232965952Y-138104511D02*
X233108809Y-138152130D01*
X233346904Y-138152130D01*
X233442142Y-138104511D01*
X233489761Y-138056892D01*
X233537380Y-137961654D01*
X233537380Y-137866416D01*
X233489761Y-137771178D01*
X233442142Y-137723559D01*
X233346904Y-137675940D01*
X233156428Y-137628321D01*
X233061190Y-137580702D01*
X233013571Y-137533083D01*
X232965952Y-137437845D01*
X232965952Y-137342607D01*
X233013571Y-137247369D01*
X233061190Y-137199750D01*
X233156428Y-137152130D01*
X233394523Y-137152130D01*
X233537380Y-137199750D01*
X233870714Y-137152130D02*
X234108809Y-138152130D01*
X234299285Y-137437845D01*
X234489761Y-138152130D01*
X234727857Y-137152130D01*
X234870714Y-138247369D02*
X235632619Y-138247369D01*
X236204047Y-137628321D02*
X235870714Y-137628321D01*
X235870714Y-138152130D02*
X235870714Y-137152130D01*
X236346904Y-137152130D01*
X237251666Y-138152130D02*
X236680238Y-138152130D01*
X236965952Y-138152130D02*
X236965952Y-137152130D01*
X236870714Y-137294988D01*
X236775476Y-137390226D01*
X236680238Y-137437845D01*
X237870714Y-137152130D02*
X237965952Y-137152130D01*
X238061190Y-137199750D01*
X238108809Y-137247369D01*
X238156428Y-137342607D01*
X238204047Y-137533083D01*
X238204047Y-137771178D01*
X238156428Y-137961654D01*
X238108809Y-138056892D01*
X238061190Y-138104511D01*
X237965952Y-138152130D01*
X237870714Y-138152130D01*
X237775476Y-138104511D01*
X237727857Y-138056892D01*
X237680238Y-137961654D01*
X237632619Y-137771178D01*
X237632619Y-137533083D01*
X237680238Y-137342607D01*
X237727857Y-137247369D01*
X237775476Y-137199750D01*
X237870714Y-137152130D01*
X42716523Y-35921904D02*
X42716523Y-35121904D01*
X42907000Y-35121904D01*
X43021285Y-35160000D01*
X43097476Y-35236190D01*
X43135571Y-35312380D01*
X43173666Y-35464761D01*
X43173666Y-35579047D01*
X43135571Y-35731428D01*
X43097476Y-35807619D01*
X43021285Y-35883809D01*
X42907000Y-35921904D01*
X42716523Y-35921904D01*
X43478428Y-35198095D02*
X43516523Y-35160000D01*
X43592714Y-35121904D01*
X43783190Y-35121904D01*
X43859380Y-35160000D01*
X43897476Y-35198095D01*
X43935571Y-35274285D01*
X43935571Y-35350476D01*
X43897476Y-35464761D01*
X43440333Y-35921904D01*
X43935571Y-35921904D01*
X42716523Y-46081904D02*
X42716523Y-45281904D01*
X42907000Y-45281904D01*
X43021285Y-45320000D01*
X43097476Y-45396190D01*
X43135571Y-45472380D01*
X43173666Y-45624761D01*
X43173666Y-45739047D01*
X43135571Y-45891428D01*
X43097476Y-45967619D01*
X43021285Y-46043809D01*
X42907000Y-46081904D01*
X42716523Y-46081904D01*
X43668904Y-45281904D02*
X43745095Y-45281904D01*
X43821285Y-45320000D01*
X43859380Y-45358095D01*
X43897476Y-45434285D01*
X43935571Y-45586666D01*
X43935571Y-45777142D01*
X43897476Y-45929523D01*
X43859380Y-46005714D01*
X43821285Y-46043809D01*
X43745095Y-46081904D01*
X43668904Y-46081904D01*
X43592714Y-46043809D01*
X43554619Y-46005714D01*
X43516523Y-45929523D01*
X43478428Y-45777142D01*
X43478428Y-45586666D01*
X43516523Y-45434285D01*
X43554619Y-45358095D01*
X43592714Y-45320000D01*
X43668904Y-45281904D01*
X42716523Y-43541904D02*
X42716523Y-42741904D01*
X42907000Y-42741904D01*
X43021285Y-42780000D01*
X43097476Y-42856190D01*
X43135571Y-42932380D01*
X43173666Y-43084761D01*
X43173666Y-43199047D01*
X43135571Y-43351428D01*
X43097476Y-43427619D01*
X43021285Y-43503809D01*
X42907000Y-43541904D01*
X42716523Y-43541904D01*
X43935571Y-43541904D02*
X43478428Y-43541904D01*
X43707000Y-43541904D02*
X43707000Y-42741904D01*
X43630809Y-42856190D01*
X43554619Y-42932380D01*
X43478428Y-42970476D01*
X42697476Y-40240000D02*
X42621285Y-40201904D01*
X42507000Y-40201904D01*
X42392714Y-40240000D01*
X42316523Y-40316190D01*
X42278428Y-40392380D01*
X42240333Y-40544761D01*
X42240333Y-40659047D01*
X42278428Y-40811428D01*
X42316523Y-40887619D01*
X42392714Y-40963809D01*
X42507000Y-41001904D01*
X42583190Y-41001904D01*
X42697476Y-40963809D01*
X42735571Y-40925714D01*
X42735571Y-40659047D01*
X42583190Y-40659047D01*
X43078428Y-41001904D02*
X43078428Y-40201904D01*
X43535571Y-41001904D01*
X43535571Y-40201904D01*
X43916523Y-41001904D02*
X43916523Y-40201904D01*
X44107000Y-40201904D01*
X44221285Y-40240000D01*
X44297476Y-40316190D01*
X44335571Y-40392380D01*
X44373666Y-40544761D01*
X44373666Y-40659047D01*
X44335571Y-40811428D01*
X44297476Y-40887619D01*
X44221285Y-40963809D01*
X44107000Y-41001904D01*
X43916523Y-41001904D01*
X42697476Y-37700000D02*
X42621285Y-37661904D01*
X42507000Y-37661904D01*
X42392714Y-37700000D01*
X42316523Y-37776190D01*
X42278428Y-37852380D01*
X42240333Y-38004761D01*
X42240333Y-38119047D01*
X42278428Y-38271428D01*
X42316523Y-38347619D01*
X42392714Y-38423809D01*
X42507000Y-38461904D01*
X42583190Y-38461904D01*
X42697476Y-38423809D01*
X42735571Y-38385714D01*
X42735571Y-38119047D01*
X42583190Y-38119047D01*
X43078428Y-38461904D02*
X43078428Y-37661904D01*
X43535571Y-38461904D01*
X43535571Y-37661904D01*
X43916523Y-38461904D02*
X43916523Y-37661904D01*
X44107000Y-37661904D01*
X44221285Y-37700000D01*
X44297476Y-37776190D01*
X44335571Y-37852380D01*
X44373666Y-38004761D01*
X44373666Y-38119047D01*
X44335571Y-38271428D01*
X44297476Y-38347619D01*
X44221285Y-38423809D01*
X44107000Y-38461904D01*
X43916523Y-38461904D01*
X42716523Y-48621904D02*
X42716523Y-47821904D01*
X42907000Y-47821904D01*
X43021285Y-47860000D01*
X43097476Y-47936190D01*
X43135571Y-48012380D01*
X43173666Y-48164761D01*
X43173666Y-48279047D01*
X43135571Y-48431428D01*
X43097476Y-48507619D01*
X43021285Y-48583809D01*
X42907000Y-48621904D01*
X42716523Y-48621904D01*
X43859380Y-48088571D02*
X43859380Y-48621904D01*
X43668904Y-47783809D02*
X43478428Y-48355238D01*
X43973666Y-48355238D01*
X43173666Y-51085714D02*
X43135571Y-51123809D01*
X43021285Y-51161904D01*
X42945095Y-51161904D01*
X42830809Y-51123809D01*
X42754619Y-51047619D01*
X42716523Y-50971428D01*
X42678428Y-50819047D01*
X42678428Y-50704761D01*
X42716523Y-50552380D01*
X42754619Y-50476190D01*
X42830809Y-50400000D01*
X42945095Y-50361904D01*
X43021285Y-50361904D01*
X43135571Y-50400000D01*
X43173666Y-50438095D01*
X43859380Y-50361904D02*
X43707000Y-50361904D01*
X43630809Y-50400000D01*
X43592714Y-50438095D01*
X43516523Y-50552380D01*
X43478428Y-50704761D01*
X43478428Y-51009523D01*
X43516523Y-51085714D01*
X43554619Y-51123809D01*
X43630809Y-51161904D01*
X43783190Y-51161904D01*
X43859380Y-51123809D01*
X43897476Y-51085714D01*
X43935571Y-51009523D01*
X43935571Y-50819047D01*
X43897476Y-50742857D01*
X43859380Y-50704761D01*
X43783190Y-50666666D01*
X43630809Y-50666666D01*
X43554619Y-50704761D01*
X43516523Y-50742857D01*
X43478428Y-50819047D01*
X42716523Y-53701904D02*
X42716523Y-52901904D01*
X42907000Y-52901904D01*
X43021285Y-52940000D01*
X43097476Y-53016190D01*
X43135571Y-53092380D01*
X43173666Y-53244761D01*
X43173666Y-53359047D01*
X43135571Y-53511428D01*
X43097476Y-53587619D01*
X43021285Y-53663809D01*
X42907000Y-53701904D01*
X42716523Y-53701904D01*
X43440333Y-52901904D02*
X43973666Y-52901904D01*
X43630809Y-53701904D01*
X42754619Y-55822857D02*
X43021285Y-55822857D01*
X43135571Y-56241904D02*
X42754619Y-56241904D01*
X42754619Y-55441904D01*
X43135571Y-55441904D01*
X43821285Y-55441904D02*
X43668904Y-55441904D01*
X43592714Y-55480000D01*
X43554619Y-55518095D01*
X43478428Y-55632380D01*
X43440333Y-55784761D01*
X43440333Y-56089523D01*
X43478428Y-56165714D01*
X43516523Y-56203809D01*
X43592714Y-56241904D01*
X43745095Y-56241904D01*
X43821285Y-56203809D01*
X43859380Y-56165714D01*
X43897476Y-56089523D01*
X43897476Y-55899047D01*
X43859380Y-55822857D01*
X43821285Y-55784761D01*
X43745095Y-55746666D01*
X43592714Y-55746666D01*
X43516523Y-55784761D01*
X43478428Y-55822857D01*
X43440333Y-55899047D01*
X42983190Y-58362857D02*
X43097476Y-58400952D01*
X43135571Y-58439047D01*
X43173666Y-58515238D01*
X43173666Y-58629523D01*
X43135571Y-58705714D01*
X43097476Y-58743809D01*
X43021285Y-58781904D01*
X42716523Y-58781904D01*
X42716523Y-57981904D01*
X42983190Y-57981904D01*
X43059380Y-58020000D01*
X43097476Y-58058095D01*
X43135571Y-58134285D01*
X43135571Y-58210476D01*
X43097476Y-58286666D01*
X43059380Y-58324761D01*
X42983190Y-58362857D01*
X42716523Y-58362857D01*
X43859380Y-58248571D02*
X43859380Y-58781904D01*
X43668904Y-57943809D02*
X43478428Y-58515238D01*
X43973666Y-58515238D01*
X44010297Y-59854991D02*
X44104578Y-59807851D01*
X44151719Y-59807851D01*
X44222429Y-59831421D01*
X44293140Y-59902132D01*
X44316710Y-59972842D01*
X44316710Y-60019983D01*
X44293140Y-60090693D01*
X44104578Y-60279255D01*
X43609603Y-59784280D01*
X43774595Y-59619289D01*
X43845306Y-59595719D01*
X43892446Y-59595719D01*
X43963157Y-59619289D01*
X44010297Y-59666429D01*
X44033867Y-59737140D01*
X44033867Y-59784280D01*
X44010297Y-59854991D01*
X43845306Y-60019983D01*
X44340280Y-59053603D02*
X44104578Y-59289306D01*
X44316710Y-59548578D01*
X44316710Y-59501438D01*
X44340280Y-59430727D01*
X44458132Y-59312876D01*
X44528842Y-59289306D01*
X44575983Y-59289306D01*
X44646693Y-59312876D01*
X44764544Y-59430727D01*
X44788115Y-59501438D01*
X44788115Y-59548578D01*
X44764544Y-59619289D01*
X44646693Y-59737140D01*
X44575983Y-59760710D01*
X44528842Y-59760710D01*
X32061190Y-55822857D02*
X32175476Y-55860952D01*
X32213571Y-55899047D01*
X32251666Y-55975238D01*
X32251666Y-56089523D01*
X32213571Y-56165714D01*
X32175476Y-56203809D01*
X32099285Y-56241904D01*
X31794523Y-56241904D01*
X31794523Y-55441904D01*
X32061190Y-55441904D01*
X32137380Y-55480000D01*
X32175476Y-55518095D01*
X32213571Y-55594285D01*
X32213571Y-55670476D01*
X32175476Y-55746666D01*
X32137380Y-55784761D01*
X32061190Y-55822857D01*
X31794523Y-55822857D01*
X32518333Y-55441904D02*
X33013571Y-55441904D01*
X32746904Y-55746666D01*
X32861190Y-55746666D01*
X32937380Y-55784761D01*
X32975476Y-55822857D01*
X33013571Y-55899047D01*
X33013571Y-56089523D01*
X32975476Y-56165714D01*
X32937380Y-56203809D01*
X32861190Y-56241904D01*
X32632619Y-56241904D01*
X32556428Y-56203809D01*
X32518333Y-56165714D01*
X32061190Y-53282857D02*
X32175476Y-53320952D01*
X32213571Y-53359047D01*
X32251666Y-53435238D01*
X32251666Y-53549523D01*
X32213571Y-53625714D01*
X32175476Y-53663809D01*
X32099285Y-53701904D01*
X31794523Y-53701904D01*
X31794523Y-52901904D01*
X32061190Y-52901904D01*
X32137380Y-52940000D01*
X32175476Y-52978095D01*
X32213571Y-53054285D01*
X32213571Y-53130476D01*
X32175476Y-53206666D01*
X32137380Y-53244761D01*
X32061190Y-53282857D01*
X31794523Y-53282857D01*
X33013571Y-53701904D02*
X32556428Y-53701904D01*
X32785000Y-53701904D02*
X32785000Y-52901904D01*
X32708809Y-53016190D01*
X32632619Y-53092380D01*
X32556428Y-53130476D01*
X32118333Y-43122857D02*
X31851666Y-43122857D01*
X31851666Y-43541904D02*
X31851666Y-42741904D01*
X32232619Y-42741904D01*
X32880238Y-43008571D02*
X32880238Y-43541904D01*
X32689761Y-42703809D02*
X32499285Y-43275238D01*
X32994523Y-43275238D01*
X31318333Y-40201904D02*
X31585000Y-41001904D01*
X31851666Y-40201904D01*
X32575476Y-40925714D02*
X32537380Y-40963809D01*
X32423095Y-41001904D01*
X32346904Y-41001904D01*
X32232619Y-40963809D01*
X32156428Y-40887619D01*
X32118333Y-40811428D01*
X32080238Y-40659047D01*
X32080238Y-40544761D01*
X32118333Y-40392380D01*
X32156428Y-40316190D01*
X32232619Y-40240000D01*
X32346904Y-40201904D01*
X32423095Y-40201904D01*
X32537380Y-40240000D01*
X32575476Y-40278095D01*
X33375476Y-40925714D02*
X33337380Y-40963809D01*
X33223095Y-41001904D01*
X33146904Y-41001904D01*
X33032619Y-40963809D01*
X32956428Y-40887619D01*
X32918333Y-40811428D01*
X32880238Y-40659047D01*
X32880238Y-40544761D01*
X32918333Y-40392380D01*
X32956428Y-40316190D01*
X33032619Y-40240000D01*
X33146904Y-40201904D01*
X33223095Y-40201904D01*
X33337380Y-40240000D01*
X33375476Y-40278095D01*
X31775476Y-35160000D02*
X31699285Y-35121904D01*
X31585000Y-35121904D01*
X31470714Y-35160000D01*
X31394523Y-35236190D01*
X31356428Y-35312380D01*
X31318333Y-35464761D01*
X31318333Y-35579047D01*
X31356428Y-35731428D01*
X31394523Y-35807619D01*
X31470714Y-35883809D01*
X31585000Y-35921904D01*
X31661190Y-35921904D01*
X31775476Y-35883809D01*
X31813571Y-35845714D01*
X31813571Y-35579047D01*
X31661190Y-35579047D01*
X32156428Y-35921904D02*
X32156428Y-35121904D01*
X32613571Y-35921904D01*
X32613571Y-35121904D01*
X32994523Y-35921904D02*
X32994523Y-35121904D01*
X33185000Y-35121904D01*
X33299285Y-35160000D01*
X33375476Y-35236190D01*
X33413571Y-35312380D01*
X33451666Y-35464761D01*
X33451666Y-35579047D01*
X33413571Y-35731428D01*
X33375476Y-35807619D01*
X33299285Y-35883809D01*
X33185000Y-35921904D01*
X32994523Y-35921904D01*
X32061190Y-32962857D02*
X32175476Y-33000952D01*
X32213571Y-33039047D01*
X32251666Y-33115238D01*
X32251666Y-33229523D01*
X32213571Y-33305714D01*
X32175476Y-33343809D01*
X32099285Y-33381904D01*
X31794523Y-33381904D01*
X31794523Y-32581904D01*
X32061190Y-32581904D01*
X32137380Y-32620000D01*
X32175476Y-32658095D01*
X32213571Y-32734285D01*
X32213571Y-32810476D01*
X32175476Y-32886666D01*
X32137380Y-32924761D01*
X32061190Y-32962857D01*
X31794523Y-32962857D01*
X32746904Y-32581904D02*
X32823095Y-32581904D01*
X32899285Y-32620000D01*
X32937380Y-32658095D01*
X32975476Y-32734285D01*
X33013571Y-32886666D01*
X33013571Y-33077142D01*
X32975476Y-33229523D01*
X32937380Y-33305714D01*
X32899285Y-33343809D01*
X32823095Y-33381904D01*
X32746904Y-33381904D01*
X32670714Y-33343809D01*
X32632619Y-33305714D01*
X32594523Y-33229523D01*
X32556428Y-33077142D01*
X32556428Y-32886666D01*
X32594523Y-32734285D01*
X32632619Y-32658095D01*
X32670714Y-32620000D01*
X32746904Y-32581904D01*
X32118333Y-45662857D02*
X31851666Y-45662857D01*
X31851666Y-46081904D02*
X31851666Y-45281904D01*
X32232619Y-45281904D01*
X32918333Y-45281904D02*
X32537380Y-45281904D01*
X32499285Y-45662857D01*
X32537380Y-45624761D01*
X32613571Y-45586666D01*
X32804047Y-45586666D01*
X32880238Y-45624761D01*
X32918333Y-45662857D01*
X32956428Y-45739047D01*
X32956428Y-45929523D01*
X32918333Y-46005714D01*
X32880238Y-46043809D01*
X32804047Y-46081904D01*
X32613571Y-46081904D01*
X32537380Y-46043809D01*
X32499285Y-46005714D01*
X32118333Y-48202857D02*
X31851666Y-48202857D01*
X31851666Y-48621904D02*
X31851666Y-47821904D01*
X32232619Y-47821904D01*
X32880238Y-47821904D02*
X32727857Y-47821904D01*
X32651666Y-47860000D01*
X32613571Y-47898095D01*
X32537380Y-48012380D01*
X32499285Y-48164761D01*
X32499285Y-48469523D01*
X32537380Y-48545714D01*
X32575476Y-48583809D01*
X32651666Y-48621904D01*
X32804047Y-48621904D01*
X32880238Y-48583809D01*
X32918333Y-48545714D01*
X32956428Y-48469523D01*
X32956428Y-48279047D01*
X32918333Y-48202857D01*
X32880238Y-48164761D01*
X32804047Y-48126666D01*
X32651666Y-48126666D01*
X32575476Y-48164761D01*
X32537380Y-48202857D01*
X32499285Y-48279047D01*
X32118333Y-50742857D02*
X31851666Y-50742857D01*
X31851666Y-51161904D02*
X31851666Y-50361904D01*
X32232619Y-50361904D01*
X32461190Y-50361904D02*
X32994523Y-50361904D01*
X32651666Y-51161904D01*
X32061190Y-58362857D02*
X32175476Y-58400952D01*
X32213571Y-58439047D01*
X32251666Y-58515238D01*
X32251666Y-58629523D01*
X32213571Y-58705714D01*
X32175476Y-58743809D01*
X32099285Y-58781904D01*
X31794523Y-58781904D01*
X31794523Y-57981904D01*
X32061190Y-57981904D01*
X32137380Y-58020000D01*
X32175476Y-58058095D01*
X32213571Y-58134285D01*
X32213571Y-58210476D01*
X32175476Y-58286666D01*
X32137380Y-58324761D01*
X32061190Y-58362857D01*
X31794523Y-58362857D01*
X32556428Y-58058095D02*
X32594523Y-58020000D01*
X32670714Y-57981904D01*
X32861190Y-57981904D01*
X32937380Y-58020000D01*
X32975476Y-58058095D01*
X33013571Y-58134285D01*
X33013571Y-58210476D01*
X32975476Y-58324761D01*
X32518333Y-58781904D01*
X33013571Y-58781904D01*
X39227395Y-32581904D02*
X39684538Y-32581904D01*
X39455967Y-33381904D02*
X39455967Y-32581904D01*
X39875014Y-32581904D02*
X40408348Y-33381904D01*
X40408348Y-32581904D02*
X39875014Y-33381904D01*
X40865491Y-32581904D02*
X40941681Y-32581904D01*
X41017872Y-32620000D01*
X41055967Y-32658095D01*
X41094062Y-32734285D01*
X41132157Y-32886666D01*
X41132157Y-33077142D01*
X41094062Y-33229523D01*
X41055967Y-33305714D01*
X41017872Y-33343809D01*
X40941681Y-33381904D01*
X40865491Y-33381904D01*
X40789300Y-33343809D01*
X40751205Y-33305714D01*
X40713110Y-33229523D01*
X40675014Y-33077142D01*
X40675014Y-32886666D01*
X40713110Y-32734285D01*
X40751205Y-32658095D01*
X40789300Y-32620000D01*
X40865491Y-32581904D01*
X42046443Y-32543809D02*
X41360729Y-33572380D01*
X42313110Y-33381904D02*
X42313110Y-32581904D01*
X42503586Y-32581904D01*
X42617872Y-32620000D01*
X42694062Y-32696190D01*
X42732157Y-32772380D01*
X42770252Y-32924761D01*
X42770252Y-33039047D01*
X42732157Y-33191428D01*
X42694062Y-33267619D01*
X42617872Y-33343809D01*
X42503586Y-33381904D01*
X42313110Y-33381904D01*
X43036919Y-32581904D02*
X43532157Y-32581904D01*
X43265491Y-32886666D01*
X43379776Y-32886666D01*
X43455967Y-32924761D01*
X43494062Y-32962857D01*
X43532157Y-33039047D01*
X43532157Y-33229523D01*
X43494062Y-33305714D01*
X43455967Y-33343809D01*
X43379776Y-33381904D01*
X43151205Y-33381904D01*
X43075014Y-33343809D01*
X43036919Y-33305714D01*
X32272666Y-38403809D02*
X32386952Y-38441904D01*
X32577428Y-38441904D01*
X32653619Y-38403809D01*
X32691714Y-38365714D01*
X32729809Y-38289523D01*
X32729809Y-38213333D01*
X32691714Y-38137142D01*
X32653619Y-38099047D01*
X32577428Y-38060952D01*
X32425047Y-38022857D01*
X32348857Y-37984761D01*
X32310761Y-37946666D01*
X32272666Y-37870476D01*
X32272666Y-37794285D01*
X32310761Y-37718095D01*
X32348857Y-37680000D01*
X32425047Y-37641904D01*
X32615523Y-37641904D01*
X32729809Y-37680000D01*
X32958380Y-37641904D02*
X33415523Y-37641904D01*
X33186952Y-38441904D02*
X33186952Y-37641904D01*
X42062666Y-59540000D02*
X42162666Y-59573333D01*
X42196000Y-59606666D01*
X42229333Y-59673333D01*
X42229333Y-59773333D01*
X42196000Y-59840000D01*
X42162666Y-59873333D01*
X42096000Y-59906666D01*
X41829333Y-59906666D01*
X41829333Y-59206666D01*
X42062666Y-59206666D01*
X42129333Y-59240000D01*
X42162666Y-59273333D01*
X42196000Y-59340000D01*
X42196000Y-59406666D01*
X42162666Y-59473333D01*
X42129333Y-59506666D01*
X42062666Y-59540000D01*
X41829333Y-59540000D01*
X42462666Y-59206666D02*
X42929333Y-59206666D01*
X42629333Y-59906666D01*
X33112666Y-59540000D02*
X32879333Y-59540000D01*
X32879333Y-59906666D02*
X32879333Y-59206666D01*
X33212666Y-59206666D01*
X33612666Y-59206666D02*
X33679333Y-59206666D01*
X33746000Y-59240000D01*
X33779333Y-59273333D01*
X33812666Y-59340000D01*
X33846000Y-59473333D01*
X33846000Y-59640000D01*
X33812666Y-59773333D01*
X33779333Y-59840000D01*
X33746000Y-59873333D01*
X33679333Y-59906666D01*
X33612666Y-59906666D01*
X33546000Y-59873333D01*
X33512666Y-59840000D01*
X33479333Y-59773333D01*
X33446000Y-59640000D01*
X33446000Y-59473333D01*
X33479333Y-59340000D01*
X33512666Y-59273333D01*
X33546000Y-59240000D01*
X33612666Y-59206666D01*
X31610991Y-59925702D02*
X31563851Y-59831421D01*
X31563851Y-59784280D01*
X31587421Y-59713570D01*
X31658132Y-59642859D01*
X31728842Y-59619289D01*
X31775983Y-59619289D01*
X31846693Y-59642859D01*
X32035255Y-59831421D01*
X31540280Y-60326396D01*
X31375289Y-60161404D01*
X31351719Y-60090693D01*
X31351719Y-60043553D01*
X31375289Y-59972842D01*
X31422429Y-59925702D01*
X31493140Y-59902132D01*
X31540280Y-59902132D01*
X31610991Y-59925702D01*
X31775983Y-60090693D01*
X30833174Y-59619289D02*
X30927455Y-59713570D01*
X30998165Y-59737140D01*
X31045306Y-59737140D01*
X31163157Y-59713570D01*
X31281008Y-59642859D01*
X31469570Y-59454297D01*
X31493140Y-59383587D01*
X31493140Y-59336446D01*
X31469570Y-59265735D01*
X31375289Y-59171455D01*
X31304578Y-59147884D01*
X31257438Y-59147884D01*
X31186727Y-59171455D01*
X31068876Y-59289306D01*
X31045306Y-59360016D01*
X31045306Y-59407157D01*
X31068876Y-59477867D01*
X31163157Y-59572148D01*
X31233867Y-59595719D01*
X31281008Y-59595719D01*
X31351719Y-59572148D01*
X37712666Y-59675714D02*
X37674571Y-59713809D01*
X37560285Y-59751904D01*
X37484095Y-59751904D01*
X37369809Y-59713809D01*
X37293619Y-59637619D01*
X37255523Y-59561428D01*
X37217428Y-59409047D01*
X37217428Y-59294761D01*
X37255523Y-59142380D01*
X37293619Y-59066190D01*
X37369809Y-58990000D01*
X37484095Y-58951904D01*
X37560285Y-58951904D01*
X37674571Y-58990000D01*
X37712666Y-59028095D01*
X37979333Y-58951904D02*
X38512666Y-58951904D01*
X38169809Y-59751904D01*
X35039333Y-59332857D02*
X34772666Y-59332857D01*
X34772666Y-59751904D02*
X34772666Y-58951904D01*
X35153619Y-58951904D01*
X35877428Y-59751904D02*
X35420285Y-59751904D01*
X35648857Y-59751904D02*
X35648857Y-58951904D01*
X35572666Y-59066190D01*
X35496476Y-59142380D01*
X35420285Y-59180476D01*
X39795523Y-59751904D02*
X39795523Y-58951904D01*
X39986000Y-58951904D01*
X40100285Y-58990000D01*
X40176476Y-59066190D01*
X40214571Y-59142380D01*
X40252666Y-59294761D01*
X40252666Y-59409047D01*
X40214571Y-59561428D01*
X40176476Y-59637619D01*
X40100285Y-59713809D01*
X39986000Y-59751904D01*
X39795523Y-59751904D01*
X40976476Y-58951904D02*
X40595523Y-58951904D01*
X40557428Y-59332857D01*
X40595523Y-59294761D01*
X40671714Y-59256666D01*
X40862190Y-59256666D01*
X40938380Y-59294761D01*
X40976476Y-59332857D01*
X41014571Y-59409047D01*
X41014571Y-59599523D01*
X40976476Y-59675714D01*
X40938380Y-59713809D01*
X40862190Y-59751904D01*
X40671714Y-59751904D01*
X40595523Y-59713809D01*
X40557428Y-59675714D01*
M02*
