M48
; DRILL file {KiCad (5.1.0)-1} date 4/7/2019 10:17:54 PM
; FORMAT={-:-/ absolute / inch / decimal}
; #@! TF.CreationDate,2019-04-07T22:17:54-04:00
; #@! TF.GenerationSoftware,Kicad,Pcbnew,(5.1.0)-1
; #@! TF.FileFunction,Plated,1,2,PTH
FMAT,2
INCH
T1C0.0157
T2C0.0276
T3C0.0315
T4C0.0390
T5C0.0433
T6C0.0512
T7C0.0591
%
G90
G05
T1
X2.6476Y-1.7028
X2.6755Y-1.6742
X3.2677Y-1.752
X3.8386Y-2.2736
X4.2815Y-1.6719
X4.2815Y-2.091
X4.4587Y-2.0177
X4.7343Y-2.0187
X4.9705Y-2.2441
X5.2067Y-1.7028
X6.4567Y-2.1467
X7.2146Y-2.1289
X7.9626Y-2.1161
X8.7205Y-2.0935
X9.8425Y-2.0768
T2
X5.3248Y-1.8996
X5.4248Y-1.8996
X5.2067Y-1.8602
X5.2067Y-1.9602
T3
X7.875Y-3.225
X7.875Y-3.375
X9.375Y-1.35
X9.375Y-1.5
X9.1875Y-4.725
X9.1875Y-4.875
X4.9688Y-4.8187
X4.9688Y-4.9688
X1.875Y-2.475
X1.875Y-2.625
X4.5938Y-5.475
X4.5938Y-5.625
X4.6875Y-3.225
X4.6875Y-3.375
X2.625Y-1.35
X2.625Y-1.5
X4.7812Y-3.975
X4.7812Y-4.125
X6.75Y-1.35
X6.75Y-1.5
X3.375Y-3.6
X3.375Y-3.75
X1.125Y-1.35
X1.125Y-1.5
X6.75Y-2.475
X6.75Y-2.625
X7.5Y-1.35
X7.5Y-1.5
X3.375Y-5.1
X3.375Y-5.25
X1.125Y-4.725
X1.125Y-4.875
X5.625Y-3.225
X5.625Y-3.375
X1.875Y-3.975
X1.875Y-4.125
X9.0Y-2.475
X9.0Y-2.625
X9.5625Y-3.975
X9.5625Y-4.125
X7.6875Y-4.725
X7.6875Y-4.875
X6.5625Y-3.975
X6.5625Y-4.125
X10.125Y-1.35
X10.125Y-1.5
X2.625Y-5.475
X2.625Y-5.625
X8.625Y-3.225
X8.625Y-3.375
X6.0Y-1.35
X6.0Y-1.5
X7.4062Y-5.475
X7.4062Y-5.625
X1.125Y-3.975
X1.125Y-4.125
X1.125Y-2.475
X1.125Y-2.625
X9.375Y-3.225
X9.375Y-3.375
X4.5Y-2.475
X4.5Y-2.625
X5.8125Y-3.975
X5.8125Y-4.125
X3.375Y-2.475
X3.375Y-2.625
X5.25Y-2.475
X5.25Y-2.625
X6.375Y-3.225
X6.375Y-3.375
X8.9062Y-5.5687
X8.9062Y-5.7188
X6.1875Y-4.725
X6.1875Y-4.875
X7.5Y-2.475
X7.5Y-2.625
X1.5Y-5.5687
X1.5Y-5.7188
X2.625Y-3.975
X2.625Y-4.125
X8.8125Y-3.975
X8.8125Y-4.125
X1.125Y-3.225
X1.125Y-3.375
X6.0Y-2.475
X6.0Y-2.625
X8.4375Y-4.725
X8.4375Y-4.875
X8.0625Y-3.975
X8.0625Y-4.125
X8.25Y-1.35
X8.25Y-1.5
X6.4688Y-5.475
X6.4688Y-5.625
X2.625Y-2.475
X2.625Y-2.625
X8.25Y-2.475
X8.25Y-2.625
X1.875Y-1.35
X1.875Y-1.5
X7.125Y-3.225
X7.125Y-3.375
X3.375Y-1.35
X3.375Y-1.5
X2.625Y-4.725
X2.625Y-4.875
X4.5Y-1.35
X4.5Y-1.5
X5.4375Y-5.475
X5.4375Y-5.625
X7.3125Y-3.975
X7.3125Y-4.125
X2.625Y-3.225
X2.625Y-3.375
X1.875Y-3.225
X1.875Y-3.375
X9.9375Y-4.725
X9.9375Y-4.875
X1.875Y-4.725
X1.875Y-4.875
X9.75Y-2.475
X9.75Y-2.625
X6.9375Y-4.725
X6.9375Y-4.875
T4
X4.1353Y-1.3125
X4.3125Y-1.3125
T5
X1.2063Y-1.7625
X1.2063Y-2.3625
X1.3062Y-1.7625
X1.3062Y-2.3625
X1.4062Y-1.7625
X1.4062Y-2.3625
X1.5062Y-1.7625
X1.5062Y-2.3625
X1.6062Y-1.7625
X1.6062Y-2.3625
X1.7063Y-1.7625
X1.7063Y-2.3625
X1.8062Y-1.7625
X1.8062Y-2.3625
X1.9062Y-1.7625
X1.9062Y-2.3625
X2.0063Y-1.7625
X2.0063Y-2.3625
X2.1062Y-1.7625
X2.1062Y-2.3625
X2.2062Y-1.7625
X2.2062Y-2.3625
X2.3062Y-1.7625
X2.3062Y-2.3625
X2.4062Y-1.7625
X2.4062Y-2.3625
X2.5063Y-1.7625
X2.5063Y-2.0625
X2.5063Y-2.1625
X2.5063Y-2.3625
X2.6062Y-1.7625
X2.6062Y-2.0625
X2.6062Y-2.1625
X2.6062Y-2.3625
X2.7062Y-1.7625
X2.7062Y-2.0625
X2.7062Y-2.1625
X2.7062Y-2.3625
X2.8062Y-1.7625
X2.8062Y-1.9625
X2.8062Y-2.0625
X2.8062Y-2.1625
X2.8062Y-2.3625
X2.9062Y-1.7625
X2.9062Y-2.3625
X3.0063Y-1.7625
X3.0063Y-2.3625
X3.1062Y-1.7625
X3.1062Y-1.9625
X3.1062Y-2.0625
X3.1062Y-2.1625
X3.1062Y-2.3625
T6
X4.0857Y-1.4105
X4.3617Y-1.4105
T7
X5.4688Y-2.6313
X5.7188Y-2.5312
X1.3438Y-4.1312
X1.5938Y-4.0312
X9.7812Y-4.1312
X10.0312Y-4.0312
X2.8438Y-1.5062
X3.0938Y-1.4062
X2.0938Y-4.1312
X2.3438Y-4.0312
X6.5938Y-3.3813
X6.8438Y-3.2812
X1.3438Y-1.5062
X1.5938Y-1.4062
X8.2812Y-4.1312
X8.5312Y-4.0312
X6.4062Y-4.8812
X6.6562Y-4.7812
X1.3438Y-4.8812
X1.5938Y-4.7812
X10.1562Y-4.8812
X10.4062Y-4.7812
X8.4688Y-1.5062
X8.7188Y-1.4062
X9.125Y-5.6312
X9.375Y-5.5312
X4.8125Y-5.6312
X5.0625Y-5.5312
X2.0938Y-1.5062
X2.3438Y-1.4062
X8.0938Y-3.3813
X8.3438Y-3.2812
X7.625Y-5.6312
X7.875Y-5.5312
X2.0938Y-2.6313
X2.3438Y-2.5312
X3.5938Y-3.7563
X3.8438Y-3.6562
X9.5938Y-3.3813
X9.8438Y-3.2812
X7.5312Y-4.1312
X7.7812Y-4.0312
X2.8438Y-4.1312
X3.0938Y-4.0312
X2.8438Y-3.3813
X3.0938Y-3.2812
X2.8438Y-4.8812
X3.0938Y-4.7812
X3.5938Y-1.5062
X3.8438Y-1.4062
X1.3438Y-3.3813
X1.5938Y-3.2812
X6.7812Y-4.1312
X7.0312Y-4.0312
X6.2188Y-1.5062
X6.4688Y-1.4062
X7.3438Y-3.3813
X7.5938Y-3.2812
X8.6562Y-4.8812
X8.9062Y-4.7812
X7.7188Y-1.5062
X7.9688Y-1.4062
X7.9062Y-4.8812
X8.1562Y-4.7812
X3.5938Y-2.6313
X3.8438Y-2.5312
X1.7188Y-5.6312
X1.9688Y-5.5312
X9.5938Y-1.5062
X9.8438Y-1.4062
X9.9688Y-2.6313
X10.2188Y-2.5312
X5.75Y-5.6312
X6.0Y-5.5312
X10.3438Y-1.5062
X10.5938Y-1.4062
X9.2188Y-2.6313
X9.4688Y-2.5312
X7.1562Y-4.8812
X7.4062Y-4.7812
X2.8438Y-2.6313
X3.0938Y-2.5312
X4.9062Y-3.3813
X5.1562Y-3.2812
X5.0Y-4.1312
X5.25Y-4.0312
X9.0312Y-4.1312
X9.2812Y-4.0312
X5.1875Y-4.8812
X5.4375Y-4.7812
X4.7188Y-2.6313
X4.9688Y-2.5312
X3.5938Y-5.2562
X3.8438Y-5.1562
X6.2188Y-2.6313
X6.4688Y-2.5312
X4.725Y-1.4937
X4.975Y-1.3938
X5.8438Y-3.3813
X6.0938Y-3.2812
X2.0938Y-4.8812
X2.3438Y-4.7812
X6.9688Y-1.5062
X7.2188Y-1.4062
X8.4688Y-2.6313
X8.7188Y-2.5312
X9.4062Y-4.8812
X9.6562Y-4.7812
X6.9688Y-2.6313
X7.2188Y-2.5312
X2.8438Y-5.6312
X3.0938Y-5.5312
X2.0938Y-3.3813
X2.3438Y-3.2812
X6.6875Y-5.6312
X6.9375Y-5.5312
X1.3438Y-2.6313
X1.5938Y-2.5312
X7.7188Y-2.6313
X7.9688Y-2.5312
X8.8438Y-3.3813
X9.0938Y-3.2812
X6.0312Y-4.1312
X6.2812Y-4.0312
T0
M30
