M48
; DRILL file {KiCad (5.1.0)-1} date 4/7/2019 10:17:54 PM
; FORMAT={-:-/ absolute / inch / decimal}
; #@! TF.CreationDate,2019-04-07T22:17:54-04:00
; #@! TF.GenerationSoftware,Kicad,Pcbnew,(5.1.0)-1
; #@! TF.FileFunction,NonPlated,1,2,NPTH
FMAT,2
INCH
T1C0.0591
T2C0.0669
T3C0.1201
T4C0.1575
%
G90
G05
T1
X5.5312Y-1.4058
X5.5312Y-1.6813
T2
X4.95Y-4.2313
X5.35Y-4.2313
X8.9812Y-4.2313
X9.3812Y-4.2313
X5.1375Y-4.9813
X5.5375Y-4.9813
X4.6688Y-2.7312
X5.0687Y-2.7312
X3.5437Y-5.3563
X3.9438Y-5.3563
X6.1688Y-2.7312
X6.5687Y-2.7312
X4.675Y-1.5938
X5.075Y-1.5938
X5.7938Y-3.4812
X6.1937Y-3.4812
X2.0437Y-4.9813
X2.4438Y-4.9813
X6.9188Y-1.6062
X7.3187Y-1.6062
X8.4187Y-2.7312
X8.8187Y-2.7312
X9.3562Y-4.9813
X9.7562Y-4.9813
X6.9188Y-2.7312
X7.3187Y-2.7312
X2.7937Y-5.7313
X3.1938Y-5.7313
X2.0437Y-3.4812
X2.4438Y-3.4812
X6.6375Y-5.7313
X7.0375Y-5.7313
X1.2937Y-2.7312
X1.6937Y-2.7312
X7.6688Y-2.7312
X8.0687Y-2.7312
X8.7937Y-3.4812
X9.1937Y-3.4812
X5.9813Y-4.2313
X6.3812Y-4.2313
X5.4188Y-2.7312
X5.8187Y-2.7312
X1.2937Y-4.2313
X1.6937Y-4.2313
X9.7312Y-4.2313
X10.1312Y-4.2313
X2.7937Y-1.6062
X3.1938Y-1.6062
X2.0437Y-4.2313
X2.4438Y-4.2313
X6.5438Y-3.4812
X6.9437Y-3.4812
X1.2937Y-1.6062
X1.6937Y-1.6062
X8.2312Y-4.2313
X8.6312Y-4.2313
X6.3563Y-4.9813
X6.7562Y-4.9813
X1.2937Y-4.9813
X1.6937Y-4.9813
X10.1062Y-4.9813
X10.5062Y-4.9813
X8.4187Y-1.6062
X8.8187Y-1.6062
X9.075Y-5.7313
X9.475Y-5.7313
X4.7625Y-5.7313
X5.1625Y-5.7313
X2.0437Y-1.6062
X2.4438Y-1.6062
X8.0437Y-3.4812
X8.4437Y-3.4812
X7.575Y-5.7313
X7.975Y-5.7313
X2.0437Y-2.7312
X2.4438Y-2.7312
X3.5437Y-3.8562
X3.9438Y-3.8562
X9.5437Y-3.4812
X9.9437Y-3.4812
X7.4813Y-4.2313
X7.8812Y-4.2313
X2.7937Y-4.2313
X3.1938Y-4.2313
X2.7937Y-3.4812
X3.1938Y-3.4812
X2.7937Y-4.9813
X3.1938Y-4.9813
X3.5437Y-1.6062
X3.9438Y-1.6062
X1.2937Y-3.4812
X1.6937Y-3.4812
X6.7313Y-4.2313
X7.1312Y-4.2313
X6.1688Y-1.6062
X6.5687Y-1.6062
X7.2938Y-3.4812
X7.6937Y-3.4812
X8.6062Y-4.9813
X9.0062Y-4.9813
X7.6688Y-1.6062
X8.0687Y-1.6062
X7.8563Y-4.9813
X8.2562Y-4.9813
X3.5437Y-2.7312
X3.9438Y-2.7312
X1.6687Y-5.7313
X2.0688Y-5.7313
X9.5437Y-1.6062
X9.9437Y-1.6062
X9.9187Y-2.7312
X10.3187Y-2.7312
X5.7Y-5.7313
X6.1Y-5.7313
X10.2937Y-1.6062
X10.6937Y-1.6062
X9.1687Y-2.7312
X9.5687Y-2.7312
X7.1063Y-4.9813
X7.5062Y-4.9813
X2.7937Y-2.7312
X3.1938Y-2.7312
X4.8563Y-3.4812
X5.2562Y-3.4812
T3
X4.869Y-4.7057
X5.806Y-4.7057
X3.4682Y-4.8877
X3.4682Y-5.8248
X8.8065Y-5.4557
X9.7435Y-5.4557
X3.4682Y-3.3877
X3.4682Y-4.3248
X1.4002Y-5.4557
X2.3373Y-5.4557
T4
X5.15Y-4.2313
X9.1813Y-4.2313
X4.869Y-5.3057
X5.3375Y-4.9813
X5.806Y-5.3057
X4.8687Y-2.7312
X3.7437Y-5.3563
X4.0682Y-4.8877
X4.0682Y-5.8248
X6.3687Y-2.7312
X4.875Y-1.5938
X5.9937Y-3.4812
X2.2437Y-4.9813
X7.1187Y-1.6062
X8.6188Y-2.7312
X9.5563Y-4.9813
X7.1187Y-2.7312
X2.9937Y-5.7313
X2.2437Y-3.4812
X6.8375Y-5.7313
X1.4937Y-2.7312
X7.8687Y-2.7312
X8.9938Y-3.4812
X6.1812Y-4.2313
X5.6187Y-2.7312
X1.4937Y-4.2313
X9.9313Y-4.2313
X2.9937Y-1.6062
X2.2437Y-4.2313
X6.7437Y-3.4812
X1.4937Y-1.6062
X8.4313Y-4.2313
X6.5562Y-4.9813
X1.4937Y-4.9813
X10.3063Y-4.9813
X8.6188Y-1.6062
X8.8065Y-6.0557
X9.275Y-5.7313
X9.7435Y-6.0557
X4.9625Y-5.7313
X2.2437Y-1.6062
X8.2438Y-3.4812
X7.775Y-5.7313
X2.2437Y-2.7312
X3.7437Y-3.8562
X4.0682Y-3.3877
X4.0682Y-4.3248
X9.7438Y-3.4812
X7.6812Y-4.2313
X2.9937Y-4.2313
X2.9937Y-3.4812
X2.9937Y-4.9813
X3.7437Y-1.6062
X1.4937Y-3.4812
X6.9312Y-4.2313
X6.3687Y-1.6062
X7.4937Y-3.4812
X8.8063Y-4.9813
X7.8687Y-1.6062
X8.0563Y-4.9813
X3.7437Y-2.7312
X1.4002Y-6.0557
X1.8687Y-5.7313
X2.3373Y-6.0557
X9.7438Y-1.6062
X10.1188Y-2.7312
X5.9Y-5.7313
X10.4938Y-1.6062
X9.3688Y-2.7312
X7.3062Y-4.9813
X2.9937Y-2.7312
X5.0562Y-3.4812
T0
M30
