G04 #@! TF.GenerationSoftware,KiCad,Pcbnew,(5.1.4)-1*
G04 #@! TF.CreationDate,2019-10-25T22:11:27-04:00*
G04 #@! TF.ProjectId,Split Keyboard - Right,53706c69-7420-44b6-9579-626f61726420,rev?*
G04 #@! TF.SameCoordinates,Original*
G04 #@! TF.FileFunction,Legend,Bot*
G04 #@! TF.FilePolarity,Positive*
%FSLAX46Y46*%
G04 Gerber Fmt 4.6, Leading zero omitted, Abs format (unit mm)*
G04 Created by KiCad (PCBNEW (5.1.4)-1) date 2019-10-25 22:11:27*
%MOMM*%
%LPD*%
G04 APERTURE LIST*
%ADD10C,0.120000*%
%ADD11C,0.381000*%
%ADD12C,0.150000*%
G04 APERTURE END LIST*
D10*
X203274000Y-32212000D02*
X203274000Y-32442000D01*
X203794000Y-28542000D02*
X196074000Y-28542000D01*
X196074000Y-28542000D02*
X196074000Y-32442000D01*
X203794000Y-35552000D02*
X203274000Y-35552000D01*
X203794000Y-28542000D02*
X203794000Y-32442000D01*
X196594000Y-32212000D02*
X196594000Y-32442000D01*
X203274000Y-35042000D02*
X203274000Y-35552000D01*
X203794000Y-35042000D02*
X203794000Y-35552000D01*
X197134000Y-32212000D02*
X196594000Y-32212000D01*
X196594000Y-35042000D02*
X196594000Y-35552000D01*
X196594000Y-35552000D02*
X196074000Y-35552000D01*
X196074000Y-35042000D02*
X196074000Y-35552000D01*
X203274000Y-32212000D02*
X202734000Y-32212000D01*
X201634000Y-32212000D02*
X198234000Y-32212000D01*
D11*
X260921500Y-28702000D02*
X260921500Y-59182000D01*
X260921500Y-59182000D02*
X243141500Y-59182000D01*
X243141500Y-59182000D02*
X243141500Y-28702000D01*
X258381500Y-28702000D02*
X258381500Y-31242000D01*
X258381500Y-31242000D02*
X260921500Y-31242000D01*
D12*
G36*
X247099932Y-34581360D02*
G01*
X247099932Y-34881360D01*
X247199932Y-34881360D01*
X247199932Y-34581360D01*
X247099932Y-34581360D01*
G37*
X247099932Y-34581360D02*
X247099932Y-34881360D01*
X247199932Y-34881360D01*
X247199932Y-34581360D01*
X247099932Y-34581360D01*
G36*
X247299932Y-34981360D02*
G01*
X247299932Y-35081360D01*
X247399932Y-35081360D01*
X247399932Y-34981360D01*
X247299932Y-34981360D01*
G37*
X247299932Y-34981360D02*
X247299932Y-35081360D01*
X247399932Y-35081360D01*
X247399932Y-34981360D01*
X247299932Y-34981360D01*
G36*
X247099932Y-34581360D02*
G01*
X247099932Y-34681360D01*
X247599932Y-34681360D01*
X247599932Y-34581360D01*
X247099932Y-34581360D01*
G37*
X247099932Y-34581360D02*
X247099932Y-34681360D01*
X247599932Y-34681360D01*
X247599932Y-34581360D01*
X247099932Y-34581360D01*
G36*
X247499932Y-34581360D02*
G01*
X247499932Y-35381360D01*
X247599932Y-35381360D01*
X247599932Y-34581360D01*
X247499932Y-34581360D01*
G37*
X247499932Y-34581360D02*
X247499932Y-35381360D01*
X247599932Y-35381360D01*
X247599932Y-34581360D01*
X247499932Y-34581360D01*
G36*
X247099932Y-35181360D02*
G01*
X247099932Y-35381360D01*
X247199932Y-35381360D01*
X247199932Y-35181360D01*
X247099932Y-35181360D01*
G37*
X247099932Y-35181360D02*
X247099932Y-35381360D01*
X247199932Y-35381360D01*
X247199932Y-35181360D01*
X247099932Y-35181360D01*
D11*
X243141500Y-28702000D02*
X243141500Y-26162000D01*
X243141500Y-26162000D02*
X260921500Y-26162000D01*
X260921500Y-26162000D02*
X260921500Y-28702000D01*
X258381500Y-28702000D02*
X260921500Y-28702000D01*
D10*
X253964000Y-45482000D02*
X250064000Y-45482000D01*
X253964000Y-47482000D02*
X250064000Y-47482000D01*
X253964000Y-45482000D02*
X253964000Y-47482000D01*
X224520000Y-44072000D02*
X224520000Y-40172000D01*
X222520000Y-44072000D02*
X222520000Y-40172000D01*
X224520000Y-44072000D02*
X222520000Y-44072000D01*
X205597000Y-44072000D02*
X205597000Y-40172000D01*
X203597000Y-44072000D02*
X203597000Y-40172000D01*
X205597000Y-44072000D02*
X203597000Y-44072000D01*
X177022000Y-44072000D02*
X177022000Y-40172000D01*
X175022000Y-44072000D02*
X175022000Y-40172000D01*
X177022000Y-44072000D02*
X175022000Y-44072000D01*
X157972000Y-44072000D02*
X157972000Y-40172000D01*
X155972000Y-44072000D02*
X155972000Y-40172000D01*
X157972000Y-44072000D02*
X155972000Y-44072000D01*
X138922000Y-44072000D02*
X136922000Y-44072000D01*
X136922000Y-44072000D02*
X136922000Y-40172000D01*
X138922000Y-44072000D02*
X138922000Y-40172000D01*
X119745000Y-44072000D02*
X117745000Y-44072000D01*
X117745000Y-44072000D02*
X117745000Y-40172000D01*
X119745000Y-44072000D02*
X119745000Y-40172000D01*
X91170000Y-44072000D02*
X89170000Y-44072000D01*
X89170000Y-44072000D02*
X89170000Y-40172000D01*
X91170000Y-44072000D02*
X91170000Y-40172000D01*
X72247000Y-44072000D02*
X70247000Y-44072000D01*
X70247000Y-44072000D02*
X70247000Y-40172000D01*
X72247000Y-44072000D02*
X72247000Y-40172000D01*
X53070000Y-44072000D02*
X51070000Y-44072000D01*
X51070000Y-44072000D02*
X51070000Y-40172000D01*
X53070000Y-44072000D02*
X53070000Y-40172000D01*
X34083500Y-44072000D02*
X32083500Y-44072000D01*
X32083500Y-44072000D02*
X32083500Y-40172000D01*
X34083500Y-44072000D02*
X34083500Y-40172000D01*
X243633500Y-72647000D02*
X243633500Y-68747000D01*
X241633500Y-72647000D02*
X241633500Y-68747000D01*
X243633500Y-72647000D02*
X241633500Y-72647000D01*
X224583500Y-72647000D02*
X224583500Y-68747000D01*
X222583500Y-72647000D02*
X222583500Y-68747000D01*
X224583500Y-72647000D02*
X222583500Y-72647000D01*
X205470000Y-72647000D02*
X205470000Y-68747000D01*
X203470000Y-72647000D02*
X203470000Y-68747000D01*
X205470000Y-72647000D02*
X203470000Y-72647000D01*
X158035500Y-72647000D02*
X158035500Y-68747000D01*
X156035500Y-72647000D02*
X156035500Y-68747000D01*
X158035500Y-72647000D02*
X156035500Y-72647000D01*
X138858500Y-72647000D02*
X138858500Y-68747000D01*
X136858500Y-72647000D02*
X136858500Y-68747000D01*
X138858500Y-72647000D02*
X136858500Y-72647000D01*
X119745000Y-72647000D02*
X117745000Y-72647000D01*
X117745000Y-72647000D02*
X117745000Y-68747000D01*
X119745000Y-72647000D02*
X119745000Y-68747000D01*
X100758500Y-72647000D02*
X98758500Y-72647000D01*
X98758500Y-72647000D02*
X98758500Y-68747000D01*
X100758500Y-72647000D02*
X100758500Y-68747000D01*
X81772000Y-72647000D02*
X79772000Y-72647000D01*
X79772000Y-72647000D02*
X79772000Y-68747000D01*
X81772000Y-72647000D02*
X81772000Y-68747000D01*
X62595000Y-72647000D02*
X60595000Y-72647000D01*
X60595000Y-72647000D02*
X60595000Y-68747000D01*
X62595000Y-72647000D02*
X62595000Y-68747000D01*
X43545000Y-72647000D02*
X41545000Y-72647000D01*
X41545000Y-72647000D02*
X41545000Y-68747000D01*
X43545000Y-72647000D02*
X43545000Y-68747000D01*
X24431500Y-72647000D02*
X22431500Y-72647000D01*
X22431500Y-72647000D02*
X22431500Y-68747000D01*
X24431500Y-72647000D02*
X24431500Y-68747000D01*
X243633500Y-91697000D02*
X243633500Y-87797000D01*
X241633500Y-91697000D02*
X241633500Y-87797000D01*
X243633500Y-91697000D02*
X241633500Y-91697000D01*
X224456500Y-91697000D02*
X224456500Y-87797000D01*
X222456500Y-91697000D02*
X222456500Y-87797000D01*
X224456500Y-91697000D02*
X222456500Y-91697000D01*
X205533500Y-91697000D02*
X205533500Y-87797000D01*
X203533500Y-91697000D02*
X203533500Y-87797000D01*
X205533500Y-91697000D02*
X203533500Y-91697000D01*
X167497000Y-91697000D02*
X167497000Y-87797000D01*
X165497000Y-91697000D02*
X165497000Y-87797000D01*
X167497000Y-91697000D02*
X165497000Y-91697000D01*
X148320000Y-91697000D02*
X148320000Y-87797000D01*
X146320000Y-91697000D02*
X146320000Y-87797000D01*
X148320000Y-91697000D02*
X146320000Y-91697000D01*
X129206500Y-91697000D02*
X129206500Y-87797000D01*
X127206500Y-91697000D02*
X127206500Y-87797000D01*
X129206500Y-91697000D02*
X127206500Y-91697000D01*
X110283500Y-91697000D02*
X108283500Y-91697000D01*
X108283500Y-91697000D02*
X108283500Y-87797000D01*
X110283500Y-91697000D02*
X110283500Y-87797000D01*
X91170000Y-91697000D02*
X89170000Y-91697000D01*
X89170000Y-91697000D02*
X89170000Y-87797000D01*
X91170000Y-91697000D02*
X91170000Y-87797000D01*
X72120000Y-91697000D02*
X70120000Y-91697000D01*
X70120000Y-91697000D02*
X70120000Y-87797000D01*
X72120000Y-91697000D02*
X72120000Y-87797000D01*
X53070000Y-91697000D02*
X51070000Y-91697000D01*
X51070000Y-91697000D02*
X51070000Y-87797000D01*
X53070000Y-91697000D02*
X53070000Y-87797000D01*
X34121600Y-91697000D02*
X32121600Y-91697000D01*
X32121600Y-91697000D02*
X32121600Y-87797000D01*
X34121600Y-91697000D02*
X34121600Y-87797000D01*
X14919200Y-91697000D02*
X14919200Y-87797000D01*
X12919200Y-91697000D02*
X12919200Y-87797000D01*
X14919200Y-91697000D02*
X12919200Y-91697000D01*
X153196800Y-110747000D02*
X153196800Y-106847000D01*
X151196800Y-110747000D02*
X151196800Y-106847000D01*
X153196800Y-110747000D02*
X151196800Y-110747000D01*
X134146800Y-110747000D02*
X134146800Y-106847000D01*
X132146800Y-110747000D02*
X132146800Y-106847000D01*
X134146800Y-110747000D02*
X132146800Y-110747000D01*
X114995200Y-110747000D02*
X114995200Y-106847000D01*
X112995200Y-110747000D02*
X112995200Y-106847000D01*
X114995200Y-110747000D02*
X112995200Y-110747000D01*
X95996000Y-110747000D02*
X93996000Y-110747000D01*
X93996000Y-110747000D02*
X93996000Y-106847000D01*
X95996000Y-110747000D02*
X95996000Y-106847000D01*
X76895200Y-110747000D02*
X74895200Y-110747000D01*
X74895200Y-110747000D02*
X74895200Y-106847000D01*
X76895200Y-110747000D02*
X76895200Y-106847000D01*
X57845200Y-110747000D02*
X55845200Y-110747000D01*
X55845200Y-110747000D02*
X55845200Y-106847000D01*
X57845200Y-110747000D02*
X57845200Y-106847000D01*
X38744400Y-110747000D02*
X36744400Y-110747000D01*
X36744400Y-110747000D02*
X36744400Y-106847000D01*
X38744400Y-110747000D02*
X38744400Y-106847000D01*
X19745200Y-110747000D02*
X17745200Y-110747000D01*
X17745200Y-110747000D02*
X17745200Y-106847000D01*
X19745200Y-110747000D02*
X19745200Y-106847000D01*
X224545400Y-129797000D02*
X224545400Y-125897000D01*
X222545400Y-129797000D02*
X222545400Y-125897000D01*
X224545400Y-129797000D02*
X222545400Y-129797000D01*
X143595600Y-129797000D02*
X143595600Y-125897000D01*
X141595600Y-129797000D02*
X141595600Y-125897000D01*
X143595600Y-129797000D02*
X141595600Y-129797000D01*
X124545600Y-129797000D02*
X124545600Y-125897000D01*
X122545600Y-129797000D02*
X122545600Y-125897000D01*
X124545600Y-129797000D02*
X122545600Y-129797000D01*
X105495600Y-129797000D02*
X103495600Y-129797000D01*
X103495600Y-129797000D02*
X103495600Y-125897000D01*
X105495600Y-129797000D02*
X105495600Y-125897000D01*
X86394800Y-129797000D02*
X84394800Y-129797000D01*
X84394800Y-129797000D02*
X84394800Y-125897000D01*
X86394800Y-129797000D02*
X86394800Y-125897000D01*
X67395600Y-129797000D02*
X65395600Y-129797000D01*
X65395600Y-129797000D02*
X65395600Y-125897000D01*
X67395600Y-129797000D02*
X67395600Y-125897000D01*
X48345600Y-129797000D02*
X46345600Y-129797000D01*
X46345600Y-129797000D02*
X46345600Y-125897000D01*
X48345600Y-129797000D02*
X48345600Y-125897000D01*
X29244800Y-129797000D02*
X27244800Y-129797000D01*
X27244800Y-129797000D02*
X27244800Y-125897000D01*
X29244800Y-129797000D02*
X29244800Y-125897000D01*
X243595400Y-148847000D02*
X243595400Y-144947000D01*
X241595400Y-148847000D02*
X241595400Y-144947000D01*
X243595400Y-148847000D02*
X241595400Y-148847000D01*
X224545400Y-148847000D02*
X224545400Y-144947000D01*
X222545400Y-148847000D02*
X222545400Y-144947000D01*
X224545400Y-148847000D02*
X222545400Y-148847000D01*
X205476400Y-148847000D02*
X205476400Y-144947000D01*
X203476400Y-148847000D02*
X203476400Y-144947000D01*
X205476400Y-148847000D02*
X203476400Y-148847000D01*
X172043600Y-148847000D02*
X172043600Y-144947000D01*
X170043600Y-148847000D02*
X170043600Y-144947000D01*
X172043600Y-148847000D02*
X170043600Y-148847000D01*
X148320000Y-148847000D02*
X148320000Y-144947000D01*
X146320000Y-148847000D02*
X146320000Y-144947000D01*
X148320000Y-148847000D02*
X146320000Y-148847000D01*
X124545600Y-148847000D02*
X124545600Y-144947000D01*
X122545600Y-148847000D02*
X122545600Y-144947000D01*
X124545600Y-148847000D02*
X122545600Y-148847000D01*
X100720400Y-148847000D02*
X98720400Y-148847000D01*
X98720400Y-148847000D02*
X98720400Y-144947000D01*
X100720400Y-148847000D02*
X100720400Y-144947000D01*
X76895200Y-148847000D02*
X74895200Y-148847000D01*
X74895200Y-148847000D02*
X74895200Y-144947000D01*
X76895200Y-148847000D02*
X76895200Y-144947000D01*
X34070800Y-148847000D02*
X32070800Y-148847000D01*
X32070800Y-148847000D02*
X32070800Y-144947000D01*
X34070800Y-148847000D02*
X34070800Y-144947000D01*
D12*
X110738000Y-28575000D02*
X116338000Y-28575000D01*
X116338000Y-30575000D02*
X116338000Y-28575000D01*
X110738000Y-30575000D02*
X110738000Y-28575000D01*
X116588000Y-30575000D02*
X116588000Y-42675000D01*
X110488000Y-30575000D02*
X110488000Y-42675000D01*
X110488000Y-42675000D02*
X116588000Y-42675000D01*
X110488000Y-30575000D02*
X116588000Y-30575000D01*
X202148285Y-33326761D02*
X202005428Y-33374380D01*
X201767333Y-33374380D01*
X201672095Y-33326761D01*
X201624476Y-33279142D01*
X201576857Y-33183904D01*
X201576857Y-33088666D01*
X201624476Y-32993428D01*
X201672095Y-32945809D01*
X201767333Y-32898190D01*
X201957809Y-32850571D01*
X202053047Y-32802952D01*
X202100666Y-32755333D01*
X202148285Y-32660095D01*
X202148285Y-32564857D01*
X202100666Y-32469619D01*
X202053047Y-32422000D01*
X201957809Y-32374380D01*
X201719714Y-32374380D01*
X201576857Y-32422000D01*
X201243523Y-32374380D02*
X201005428Y-33374380D01*
X200814952Y-32660095D01*
X200624476Y-33374380D01*
X200386380Y-32374380D01*
X200243523Y-33469619D02*
X199481619Y-33469619D01*
X198672095Y-33374380D02*
X199005428Y-32898190D01*
X199243523Y-33374380D02*
X199243523Y-32374380D01*
X198862571Y-32374380D01*
X198767333Y-32422000D01*
X198719714Y-32469619D01*
X198672095Y-32564857D01*
X198672095Y-32707714D01*
X198719714Y-32802952D01*
X198767333Y-32850571D01*
X198862571Y-32898190D01*
X199243523Y-32898190D01*
X197719714Y-33374380D02*
X198291142Y-33374380D01*
X198005428Y-33374380D02*
X198005428Y-32374380D01*
X198100666Y-32517238D01*
X198195904Y-32612476D01*
X198291142Y-32660095D01*
X246894309Y-55314857D02*
X246780023Y-55352952D01*
X246741928Y-55391047D01*
X246703833Y-55467238D01*
X246703833Y-55581523D01*
X246741928Y-55657714D01*
X246780023Y-55695809D01*
X246856214Y-55733904D01*
X247160976Y-55733904D01*
X247160976Y-54933904D01*
X246894309Y-54933904D01*
X246818119Y-54972000D01*
X246780023Y-55010095D01*
X246741928Y-55086285D01*
X246741928Y-55162476D01*
X246780023Y-55238666D01*
X246818119Y-55276761D01*
X246894309Y-55314857D01*
X247160976Y-55314857D01*
X246399071Y-55010095D02*
X246360976Y-54972000D01*
X246284785Y-54933904D01*
X246094309Y-54933904D01*
X246018119Y-54972000D01*
X245980023Y-55010095D01*
X245941928Y-55086285D01*
X245941928Y-55162476D01*
X245980023Y-55276761D01*
X246437166Y-55733904D01*
X245941928Y-55733904D01*
X246837166Y-47694857D02*
X247103833Y-47694857D01*
X247103833Y-48113904D02*
X247103833Y-47313904D01*
X246722880Y-47313904D01*
X246494309Y-47313904D02*
X245960976Y-47313904D01*
X246303833Y-48113904D01*
X246837166Y-45154857D02*
X247103833Y-45154857D01*
X247103833Y-45573904D02*
X247103833Y-44773904D01*
X246722880Y-44773904D01*
X246075261Y-44773904D02*
X246227642Y-44773904D01*
X246303833Y-44812000D01*
X246341928Y-44850095D01*
X246418119Y-44964380D01*
X246456214Y-45116761D01*
X246456214Y-45421523D01*
X246418119Y-45497714D01*
X246380023Y-45535809D01*
X246303833Y-45573904D01*
X246151452Y-45573904D01*
X246075261Y-45535809D01*
X246037166Y-45497714D01*
X245999071Y-45421523D01*
X245999071Y-45231047D01*
X246037166Y-45154857D01*
X246075261Y-45116761D01*
X246151452Y-45078666D01*
X246303833Y-45078666D01*
X246380023Y-45116761D01*
X246418119Y-45154857D01*
X246456214Y-45231047D01*
X246837166Y-42614857D02*
X247103833Y-42614857D01*
X247103833Y-43033904D02*
X247103833Y-42233904D01*
X246722880Y-42233904D01*
X246037166Y-42233904D02*
X246418119Y-42233904D01*
X246456214Y-42614857D01*
X246418119Y-42576761D01*
X246341928Y-42538666D01*
X246151452Y-42538666D01*
X246075261Y-42576761D01*
X246037166Y-42614857D01*
X245999071Y-42691047D01*
X245999071Y-42881523D01*
X246037166Y-42957714D01*
X246075261Y-42995809D01*
X246151452Y-43033904D01*
X246341928Y-43033904D01*
X246418119Y-42995809D01*
X246456214Y-42957714D01*
X246894309Y-29914857D02*
X246780023Y-29952952D01*
X246741928Y-29991047D01*
X246703833Y-30067238D01*
X246703833Y-30181523D01*
X246741928Y-30257714D01*
X246780023Y-30295809D01*
X246856214Y-30333904D01*
X247160976Y-30333904D01*
X247160976Y-29533904D01*
X246894309Y-29533904D01*
X246818119Y-29572000D01*
X246780023Y-29610095D01*
X246741928Y-29686285D01*
X246741928Y-29762476D01*
X246780023Y-29838666D01*
X246818119Y-29876761D01*
X246894309Y-29914857D01*
X247160976Y-29914857D01*
X246208595Y-29533904D02*
X246132404Y-29533904D01*
X246056214Y-29572000D01*
X246018119Y-29610095D01*
X245980023Y-29686285D01*
X245941928Y-29838666D01*
X245941928Y-30029142D01*
X245980023Y-30181523D01*
X246018119Y-30257714D01*
X246056214Y-30295809D01*
X246132404Y-30333904D01*
X246208595Y-30333904D01*
X246284785Y-30295809D01*
X246322880Y-30257714D01*
X246360976Y-30181523D01*
X246399071Y-30029142D01*
X246399071Y-29838666D01*
X246360976Y-29686285D01*
X246322880Y-29610095D01*
X246284785Y-29572000D01*
X246208595Y-29533904D01*
X247180023Y-32112000D02*
X247256214Y-32073904D01*
X247370500Y-32073904D01*
X247484785Y-32112000D01*
X247560976Y-32188190D01*
X247599071Y-32264380D01*
X247637166Y-32416761D01*
X247637166Y-32531047D01*
X247599071Y-32683428D01*
X247560976Y-32759619D01*
X247484785Y-32835809D01*
X247370500Y-32873904D01*
X247294309Y-32873904D01*
X247180023Y-32835809D01*
X247141928Y-32797714D01*
X247141928Y-32531047D01*
X247294309Y-32531047D01*
X246799071Y-32873904D02*
X246799071Y-32073904D01*
X246341928Y-32873904D01*
X246341928Y-32073904D01*
X245960976Y-32873904D02*
X245960976Y-32073904D01*
X245770500Y-32073904D01*
X245656214Y-32112000D01*
X245580023Y-32188190D01*
X245541928Y-32264380D01*
X245503833Y-32416761D01*
X245503833Y-32531047D01*
X245541928Y-32683428D01*
X245580023Y-32759619D01*
X245656214Y-32835809D01*
X245770500Y-32873904D01*
X245960976Y-32873904D01*
X246831713Y-35345809D02*
X246717427Y-35383904D01*
X246526951Y-35383904D01*
X246450760Y-35345809D01*
X246412665Y-35307714D01*
X246374570Y-35231523D01*
X246374570Y-35155333D01*
X246412665Y-35079142D01*
X246450760Y-35041047D01*
X246526951Y-35002952D01*
X246679332Y-34964857D01*
X246755522Y-34926761D01*
X246793618Y-34888666D01*
X246831713Y-34812476D01*
X246831713Y-34736285D01*
X246793618Y-34660095D01*
X246755522Y-34622000D01*
X246679332Y-34583904D01*
X246488856Y-34583904D01*
X246374570Y-34622000D01*
X246145999Y-34583904D02*
X245688856Y-34583904D01*
X245917427Y-35383904D02*
X245917427Y-34583904D01*
X247637166Y-37153904D02*
X247370500Y-37953904D01*
X247103833Y-37153904D01*
X246380023Y-37877714D02*
X246418119Y-37915809D01*
X246532404Y-37953904D01*
X246608595Y-37953904D01*
X246722880Y-37915809D01*
X246799071Y-37839619D01*
X246837166Y-37763428D01*
X246875261Y-37611047D01*
X246875261Y-37496761D01*
X246837166Y-37344380D01*
X246799071Y-37268190D01*
X246722880Y-37192000D01*
X246608595Y-37153904D01*
X246532404Y-37153904D01*
X246418119Y-37192000D01*
X246380023Y-37230095D01*
X245580023Y-37877714D02*
X245618119Y-37915809D01*
X245732404Y-37953904D01*
X245808595Y-37953904D01*
X245922880Y-37915809D01*
X245999071Y-37839619D01*
X246037166Y-37763428D01*
X246075261Y-37611047D01*
X246075261Y-37496761D01*
X246037166Y-37344380D01*
X245999071Y-37268190D01*
X245922880Y-37192000D01*
X245808595Y-37153904D01*
X245732404Y-37153904D01*
X245618119Y-37192000D01*
X245580023Y-37230095D01*
X246837166Y-40074857D02*
X247103833Y-40074857D01*
X247103833Y-40493904D02*
X247103833Y-39693904D01*
X246722880Y-39693904D01*
X246075261Y-39960571D02*
X246075261Y-40493904D01*
X246265738Y-39655809D02*
X246456214Y-40227238D01*
X245960976Y-40227238D01*
X246894309Y-50234857D02*
X246780023Y-50272952D01*
X246741928Y-50311047D01*
X246703833Y-50387238D01*
X246703833Y-50501523D01*
X246741928Y-50577714D01*
X246780023Y-50615809D01*
X246856214Y-50653904D01*
X247160976Y-50653904D01*
X247160976Y-49853904D01*
X246894309Y-49853904D01*
X246818119Y-49892000D01*
X246780023Y-49930095D01*
X246741928Y-50006285D01*
X246741928Y-50082476D01*
X246780023Y-50158666D01*
X246818119Y-50196761D01*
X246894309Y-50234857D01*
X247160976Y-50234857D01*
X245941928Y-50653904D02*
X246399071Y-50653904D01*
X246170500Y-50653904D02*
X246170500Y-49853904D01*
X246246690Y-49968190D01*
X246322880Y-50044380D01*
X246399071Y-50082476D01*
X246894309Y-52774857D02*
X246780023Y-52812952D01*
X246741928Y-52851047D01*
X246703833Y-52927238D01*
X246703833Y-53041523D01*
X246741928Y-53117714D01*
X246780023Y-53155809D01*
X246856214Y-53193904D01*
X247160976Y-53193904D01*
X247160976Y-52393904D01*
X246894309Y-52393904D01*
X246818119Y-52432000D01*
X246780023Y-52470095D01*
X246741928Y-52546285D01*
X246741928Y-52622476D01*
X246780023Y-52698666D01*
X246818119Y-52736761D01*
X246894309Y-52774857D01*
X247160976Y-52774857D01*
X246437166Y-52393904D02*
X245941928Y-52393904D01*
X246208595Y-52698666D01*
X246094309Y-52698666D01*
X246018119Y-52736761D01*
X245980023Y-52774857D01*
X245941928Y-52851047D01*
X245941928Y-53041523D01*
X245980023Y-53117714D01*
X246018119Y-53155809D01*
X246094309Y-53193904D01*
X246322880Y-53193904D01*
X246399071Y-53155809D01*
X246437166Y-53117714D01*
X258596491Y-56406297D02*
X258549351Y-56500578D01*
X258549351Y-56547719D01*
X258572921Y-56618429D01*
X258643632Y-56689140D01*
X258714342Y-56712710D01*
X258761483Y-56712710D01*
X258832193Y-56689140D01*
X259020755Y-56500578D01*
X258525780Y-56005603D01*
X258360789Y-56170595D01*
X258337219Y-56241306D01*
X258337219Y-56288446D01*
X258360789Y-56359157D01*
X258407929Y-56406297D01*
X258478640Y-56429867D01*
X258525780Y-56429867D01*
X258596491Y-56406297D01*
X258761483Y-56241306D01*
X257795103Y-56736280D02*
X258030806Y-56500578D01*
X258290078Y-56712710D01*
X258242938Y-56712710D01*
X258172227Y-56736280D01*
X258054376Y-56854132D01*
X258030806Y-56924842D01*
X258030806Y-56971983D01*
X258054376Y-57042693D01*
X258172227Y-57160544D01*
X258242938Y-57184115D01*
X258290078Y-57184115D01*
X258360789Y-57160544D01*
X258478640Y-57042693D01*
X258502210Y-56971983D01*
X258502210Y-56924842D01*
X257816309Y-55314857D02*
X257702023Y-55352952D01*
X257663928Y-55391047D01*
X257625833Y-55467238D01*
X257625833Y-55581523D01*
X257663928Y-55657714D01*
X257702023Y-55695809D01*
X257778214Y-55733904D01*
X258082976Y-55733904D01*
X258082976Y-54933904D01*
X257816309Y-54933904D01*
X257740119Y-54972000D01*
X257702023Y-55010095D01*
X257663928Y-55086285D01*
X257663928Y-55162476D01*
X257702023Y-55238666D01*
X257740119Y-55276761D01*
X257816309Y-55314857D01*
X258082976Y-55314857D01*
X256940119Y-55200571D02*
X256940119Y-55733904D01*
X257130595Y-54895809D02*
X257321071Y-55467238D01*
X256825833Y-55467238D01*
X258044880Y-52774857D02*
X257778214Y-52774857D01*
X257663928Y-53193904D02*
X258044880Y-53193904D01*
X258044880Y-52393904D01*
X257663928Y-52393904D01*
X256978214Y-52393904D02*
X257130595Y-52393904D01*
X257206785Y-52432000D01*
X257244880Y-52470095D01*
X257321071Y-52584380D01*
X257359166Y-52736761D01*
X257359166Y-53041523D01*
X257321071Y-53117714D01*
X257282976Y-53155809D01*
X257206785Y-53193904D01*
X257054404Y-53193904D01*
X256978214Y-53155809D01*
X256940119Y-53117714D01*
X256902023Y-53041523D01*
X256902023Y-52851047D01*
X256940119Y-52774857D01*
X256978214Y-52736761D01*
X257054404Y-52698666D01*
X257206785Y-52698666D01*
X257282976Y-52736761D01*
X257321071Y-52774857D01*
X257359166Y-52851047D01*
X258082976Y-50653904D02*
X258082976Y-49853904D01*
X257892500Y-49853904D01*
X257778214Y-49892000D01*
X257702023Y-49968190D01*
X257663928Y-50044380D01*
X257625833Y-50196761D01*
X257625833Y-50311047D01*
X257663928Y-50463428D01*
X257702023Y-50539619D01*
X257778214Y-50615809D01*
X257892500Y-50653904D01*
X258082976Y-50653904D01*
X257359166Y-49853904D02*
X256825833Y-49853904D01*
X257168690Y-50653904D01*
X257625833Y-48037714D02*
X257663928Y-48075809D01*
X257778214Y-48113904D01*
X257854404Y-48113904D01*
X257968690Y-48075809D01*
X258044880Y-47999619D01*
X258082976Y-47923428D01*
X258121071Y-47771047D01*
X258121071Y-47656761D01*
X258082976Y-47504380D01*
X258044880Y-47428190D01*
X257968690Y-47352000D01*
X257854404Y-47313904D01*
X257778214Y-47313904D01*
X257663928Y-47352000D01*
X257625833Y-47390095D01*
X256940119Y-47313904D02*
X257092500Y-47313904D01*
X257168690Y-47352000D01*
X257206785Y-47390095D01*
X257282976Y-47504380D01*
X257321071Y-47656761D01*
X257321071Y-47961523D01*
X257282976Y-48037714D01*
X257244880Y-48075809D01*
X257168690Y-48113904D01*
X257016309Y-48113904D01*
X256940119Y-48075809D01*
X256902023Y-48037714D01*
X256863928Y-47961523D01*
X256863928Y-47771047D01*
X256902023Y-47694857D01*
X256940119Y-47656761D01*
X257016309Y-47618666D01*
X257168690Y-47618666D01*
X257244880Y-47656761D01*
X257282976Y-47694857D01*
X257321071Y-47771047D01*
X258082976Y-45573904D02*
X258082976Y-44773904D01*
X257892500Y-44773904D01*
X257778214Y-44812000D01*
X257702023Y-44888190D01*
X257663928Y-44964380D01*
X257625833Y-45116761D01*
X257625833Y-45231047D01*
X257663928Y-45383428D01*
X257702023Y-45459619D01*
X257778214Y-45535809D01*
X257892500Y-45573904D01*
X258082976Y-45573904D01*
X256940119Y-45040571D02*
X256940119Y-45573904D01*
X257130595Y-44735809D02*
X257321071Y-45307238D01*
X256825833Y-45307238D01*
X258102023Y-34652000D02*
X258178214Y-34613904D01*
X258292500Y-34613904D01*
X258406785Y-34652000D01*
X258482976Y-34728190D01*
X258521071Y-34804380D01*
X258559166Y-34956761D01*
X258559166Y-35071047D01*
X258521071Y-35223428D01*
X258482976Y-35299619D01*
X258406785Y-35375809D01*
X258292500Y-35413904D01*
X258216309Y-35413904D01*
X258102023Y-35375809D01*
X258063928Y-35337714D01*
X258063928Y-35071047D01*
X258216309Y-35071047D01*
X257721071Y-35413904D02*
X257721071Y-34613904D01*
X257263928Y-35413904D01*
X257263928Y-34613904D01*
X256882976Y-35413904D02*
X256882976Y-34613904D01*
X256692500Y-34613904D01*
X256578214Y-34652000D01*
X256502023Y-34728190D01*
X256463928Y-34804380D01*
X256425833Y-34956761D01*
X256425833Y-35071047D01*
X256463928Y-35223428D01*
X256502023Y-35299619D01*
X256578214Y-35375809D01*
X256692500Y-35413904D01*
X256882976Y-35413904D01*
X258102023Y-37192000D02*
X258178214Y-37153904D01*
X258292500Y-37153904D01*
X258406785Y-37192000D01*
X258482976Y-37268190D01*
X258521071Y-37344380D01*
X258559166Y-37496761D01*
X258559166Y-37611047D01*
X258521071Y-37763428D01*
X258482976Y-37839619D01*
X258406785Y-37915809D01*
X258292500Y-37953904D01*
X258216309Y-37953904D01*
X258102023Y-37915809D01*
X258063928Y-37877714D01*
X258063928Y-37611047D01*
X258216309Y-37611047D01*
X257721071Y-37953904D02*
X257721071Y-37153904D01*
X257263928Y-37953904D01*
X257263928Y-37153904D01*
X256882976Y-37953904D02*
X256882976Y-37153904D01*
X256692500Y-37153904D01*
X256578214Y-37192000D01*
X256502023Y-37268190D01*
X256463928Y-37344380D01*
X256425833Y-37496761D01*
X256425833Y-37611047D01*
X256463928Y-37763428D01*
X256502023Y-37839619D01*
X256578214Y-37915809D01*
X256692500Y-37953904D01*
X256882976Y-37953904D01*
X258082976Y-40493904D02*
X258082976Y-39693904D01*
X257892500Y-39693904D01*
X257778214Y-39732000D01*
X257702023Y-39808190D01*
X257663928Y-39884380D01*
X257625833Y-40036761D01*
X257625833Y-40151047D01*
X257663928Y-40303428D01*
X257702023Y-40379619D01*
X257778214Y-40455809D01*
X257892500Y-40493904D01*
X258082976Y-40493904D01*
X256863928Y-40493904D02*
X257321071Y-40493904D01*
X257092500Y-40493904D02*
X257092500Y-39693904D01*
X257168690Y-39808190D01*
X257244880Y-39884380D01*
X257321071Y-39922476D01*
X258082976Y-43033904D02*
X258082976Y-42233904D01*
X257892500Y-42233904D01*
X257778214Y-42272000D01*
X257702023Y-42348190D01*
X257663928Y-42424380D01*
X257625833Y-42576761D01*
X257625833Y-42691047D01*
X257663928Y-42843428D01*
X257702023Y-42919619D01*
X257778214Y-42995809D01*
X257892500Y-43033904D01*
X258082976Y-43033904D01*
X257130595Y-42233904D02*
X257054404Y-42233904D01*
X256978214Y-42272000D01*
X256940119Y-42310095D01*
X256902023Y-42386285D01*
X256863928Y-42538666D01*
X256863928Y-42729142D01*
X256902023Y-42881523D01*
X256940119Y-42957714D01*
X256978214Y-42995809D01*
X257054404Y-43033904D01*
X257130595Y-43033904D01*
X257206785Y-42995809D01*
X257244880Y-42957714D01*
X257282976Y-42881523D01*
X257321071Y-42729142D01*
X257321071Y-42538666D01*
X257282976Y-42386285D01*
X257244880Y-42310095D01*
X257206785Y-42272000D01*
X257130595Y-42233904D01*
X258082976Y-32873904D02*
X258082976Y-32073904D01*
X257892500Y-32073904D01*
X257778214Y-32112000D01*
X257702023Y-32188190D01*
X257663928Y-32264380D01*
X257625833Y-32416761D01*
X257625833Y-32531047D01*
X257663928Y-32683428D01*
X257702023Y-32759619D01*
X257778214Y-32835809D01*
X257892500Y-32873904D01*
X258082976Y-32873904D01*
X257321071Y-32150095D02*
X257282976Y-32112000D01*
X257206785Y-32073904D01*
X257016309Y-32073904D01*
X256940119Y-32112000D01*
X256902023Y-32150095D01*
X256863928Y-32226285D01*
X256863928Y-32302476D01*
X256902023Y-32416761D01*
X257359166Y-32873904D01*
X256863928Y-32873904D01*
X257793848Y-29533904D02*
X257336705Y-29533904D01*
X257565276Y-30333904D02*
X257565276Y-29533904D01*
X257146229Y-29533904D02*
X256612895Y-30333904D01*
X256612895Y-29533904D02*
X257146229Y-30333904D01*
X256155752Y-29533904D02*
X256079562Y-29533904D01*
X256003372Y-29572000D01*
X255965276Y-29610095D01*
X255927181Y-29686285D01*
X255889086Y-29838666D01*
X255889086Y-30029142D01*
X255927181Y-30181523D01*
X255965276Y-30257714D01*
X256003372Y-30295809D01*
X256079562Y-30333904D01*
X256155752Y-30333904D01*
X256231943Y-30295809D01*
X256270038Y-30257714D01*
X256308133Y-30181523D01*
X256346229Y-30029142D01*
X256346229Y-29838666D01*
X256308133Y-29686285D01*
X256270038Y-29610095D01*
X256231943Y-29572000D01*
X256155752Y-29533904D01*
X254974800Y-29495809D02*
X255660514Y-30524380D01*
X254708133Y-30333904D02*
X254708133Y-29533904D01*
X254517657Y-29533904D01*
X254403372Y-29572000D01*
X254327181Y-29648190D01*
X254289086Y-29724380D01*
X254250991Y-29876761D01*
X254250991Y-29991047D01*
X254289086Y-30143428D01*
X254327181Y-30219619D01*
X254403372Y-30295809D01*
X254517657Y-30333904D01*
X254708133Y-30333904D01*
X253984324Y-29533904D02*
X253489086Y-29533904D01*
X253755752Y-29838666D01*
X253641467Y-29838666D01*
X253565276Y-29876761D01*
X253527181Y-29914857D01*
X253489086Y-29991047D01*
X253489086Y-30181523D01*
X253527181Y-30257714D01*
X253565276Y-30295809D01*
X253641467Y-30333904D01*
X253870038Y-30333904D01*
X253946229Y-30295809D01*
X253984324Y-30257714D01*
X256814833Y-56492000D02*
X256714833Y-56525333D01*
X256681500Y-56558666D01*
X256648166Y-56625333D01*
X256648166Y-56725333D01*
X256681500Y-56792000D01*
X256714833Y-56825333D01*
X256781500Y-56858666D01*
X257048166Y-56858666D01*
X257048166Y-56158666D01*
X256814833Y-56158666D01*
X256748166Y-56192000D01*
X256714833Y-56225333D01*
X256681500Y-56292000D01*
X256681500Y-56358666D01*
X256714833Y-56425333D01*
X256748166Y-56458666D01*
X256814833Y-56492000D01*
X257048166Y-56492000D01*
X256414833Y-56158666D02*
X255948166Y-56158666D01*
X256248166Y-56858666D01*
X247764833Y-56492000D02*
X247998166Y-56492000D01*
X247998166Y-56858666D02*
X247998166Y-56158666D01*
X247664833Y-56158666D01*
X247264833Y-56158666D02*
X247198166Y-56158666D01*
X247131500Y-56192000D01*
X247098166Y-56225333D01*
X247064833Y-56292000D01*
X247031500Y-56425333D01*
X247031500Y-56592000D01*
X247064833Y-56725333D01*
X247098166Y-56792000D01*
X247131500Y-56825333D01*
X247198166Y-56858666D01*
X247264833Y-56858666D01*
X247331500Y-56825333D01*
X247364833Y-56792000D01*
X247398166Y-56725333D01*
X247431500Y-56592000D01*
X247431500Y-56425333D01*
X247398166Y-56292000D01*
X247364833Y-56225333D01*
X247331500Y-56192000D01*
X247264833Y-56158666D01*
X245395797Y-56477008D02*
X245490078Y-56524148D01*
X245537219Y-56524148D01*
X245607929Y-56500578D01*
X245678640Y-56429867D01*
X245702210Y-56359157D01*
X245702210Y-56312016D01*
X245678640Y-56241306D01*
X245490078Y-56052744D01*
X244995103Y-56547719D01*
X245160095Y-56712710D01*
X245230806Y-56736280D01*
X245277946Y-56736280D01*
X245348657Y-56712710D01*
X245395797Y-56665570D01*
X245419367Y-56594859D01*
X245419367Y-56547719D01*
X245395797Y-56477008D01*
X245230806Y-56312016D01*
X245702210Y-57254825D02*
X245607929Y-57160544D01*
X245584359Y-57089834D01*
X245584359Y-57042693D01*
X245607929Y-56924842D01*
X245678640Y-56806991D01*
X245867202Y-56618429D01*
X245937912Y-56594859D01*
X245985053Y-56594859D01*
X246055764Y-56618429D01*
X246150044Y-56712710D01*
X246173615Y-56783421D01*
X246173615Y-56830561D01*
X246150044Y-56901272D01*
X246032193Y-57019123D01*
X245961483Y-57042693D01*
X245914342Y-57042693D01*
X245843632Y-57019123D01*
X245749351Y-56924842D01*
X245725780Y-56854132D01*
X245725780Y-56806991D01*
X245749351Y-56736280D01*
X252164833Y-56627714D02*
X252202928Y-56665809D01*
X252317214Y-56703904D01*
X252393404Y-56703904D01*
X252507690Y-56665809D01*
X252583880Y-56589619D01*
X252621976Y-56513428D01*
X252660071Y-56361047D01*
X252660071Y-56246761D01*
X252621976Y-56094380D01*
X252583880Y-56018190D01*
X252507690Y-55942000D01*
X252393404Y-55903904D01*
X252317214Y-55903904D01*
X252202928Y-55942000D01*
X252164833Y-55980095D01*
X251898166Y-55903904D02*
X251364833Y-55903904D01*
X251707690Y-56703904D01*
X249758166Y-56284857D02*
X250024833Y-56284857D01*
X250024833Y-56703904D02*
X250024833Y-55903904D01*
X249643880Y-55903904D01*
X248920071Y-56703904D02*
X249377214Y-56703904D01*
X249148642Y-56703904D02*
X249148642Y-55903904D01*
X249224833Y-56018190D01*
X249301023Y-56094380D01*
X249377214Y-56132476D01*
X255161976Y-56703904D02*
X255161976Y-55903904D01*
X254971500Y-55903904D01*
X254857214Y-55942000D01*
X254781023Y-56018190D01*
X254742928Y-56094380D01*
X254704833Y-56246761D01*
X254704833Y-56361047D01*
X254742928Y-56513428D01*
X254781023Y-56589619D01*
X254857214Y-56665809D01*
X254971500Y-56703904D01*
X255161976Y-56703904D01*
X253981023Y-55903904D02*
X254361976Y-55903904D01*
X254400071Y-56284857D01*
X254361976Y-56246761D01*
X254285785Y-56208666D01*
X254095309Y-56208666D01*
X254019119Y-56246761D01*
X253981023Y-56284857D01*
X253942928Y-56361047D01*
X253942928Y-56551523D01*
X253981023Y-56627714D01*
X254019119Y-56665809D01*
X254095309Y-56703904D01*
X254285785Y-56703904D01*
X254361976Y-56665809D01*
X254400071Y-56627714D01*
X253261619Y-48934380D02*
X253261619Y-47934380D01*
X253023523Y-47934380D01*
X252880666Y-47982000D01*
X252785428Y-48077238D01*
X252737809Y-48172476D01*
X252690190Y-48362952D01*
X252690190Y-48505809D01*
X252737809Y-48696285D01*
X252785428Y-48791523D01*
X252880666Y-48886761D01*
X253023523Y-48934380D01*
X253261619Y-48934380D01*
X252499714Y-49029619D02*
X251737809Y-49029619D01*
X251547333Y-48648666D02*
X251071142Y-48648666D01*
X251642571Y-48934380D02*
X251309238Y-47934380D01*
X250975904Y-48934380D01*
X250118761Y-48934380D02*
X250690190Y-48934380D01*
X250404476Y-48934380D02*
X250404476Y-47934380D01*
X250499714Y-48077238D01*
X250594952Y-48172476D01*
X250690190Y-48220095D01*
X221972380Y-40274380D02*
X220972380Y-40274380D01*
X220972380Y-40512476D01*
X221020000Y-40655333D01*
X221115238Y-40750571D01*
X221210476Y-40798190D01*
X221400952Y-40845809D01*
X221543809Y-40845809D01*
X221734285Y-40798190D01*
X221829523Y-40750571D01*
X221924761Y-40655333D01*
X221972380Y-40512476D01*
X221972380Y-40274380D01*
X222067619Y-41036285D02*
X222067619Y-41798190D01*
X221686666Y-41988666D02*
X221686666Y-42464857D01*
X221972380Y-41893428D02*
X220972380Y-42226761D01*
X221972380Y-42560095D01*
X221067619Y-42845809D02*
X221020000Y-42893428D01*
X220972380Y-42988666D01*
X220972380Y-43226761D01*
X221020000Y-43322000D01*
X221067619Y-43369619D01*
X221162857Y-43417238D01*
X221258095Y-43417238D01*
X221400952Y-43369619D01*
X221972380Y-42798190D01*
X221972380Y-43417238D01*
X203049380Y-40274380D02*
X202049380Y-40274380D01*
X202049380Y-40512476D01*
X202097000Y-40655333D01*
X202192238Y-40750571D01*
X202287476Y-40798190D01*
X202477952Y-40845809D01*
X202620809Y-40845809D01*
X202811285Y-40798190D01*
X202906523Y-40750571D01*
X203001761Y-40655333D01*
X203049380Y-40512476D01*
X203049380Y-40274380D01*
X203144619Y-41036285D02*
X203144619Y-41798190D01*
X202763666Y-41988666D02*
X202763666Y-42464857D01*
X203049380Y-41893428D02*
X202049380Y-42226761D01*
X203049380Y-42560095D01*
X202049380Y-42798190D02*
X202049380Y-43417238D01*
X202430333Y-43083904D01*
X202430333Y-43226761D01*
X202477952Y-43322000D01*
X202525571Y-43369619D01*
X202620809Y-43417238D01*
X202858904Y-43417238D01*
X202954142Y-43369619D01*
X203001761Y-43322000D01*
X203049380Y-43226761D01*
X203049380Y-42941047D01*
X203001761Y-42845809D01*
X202954142Y-42798190D01*
X174474380Y-40274380D02*
X173474380Y-40274380D01*
X173474380Y-40512476D01*
X173522000Y-40655333D01*
X173617238Y-40750571D01*
X173712476Y-40798190D01*
X173902952Y-40845809D01*
X174045809Y-40845809D01*
X174236285Y-40798190D01*
X174331523Y-40750571D01*
X174426761Y-40655333D01*
X174474380Y-40512476D01*
X174474380Y-40274380D01*
X174569619Y-41036285D02*
X174569619Y-41798190D01*
X174188666Y-41988666D02*
X174188666Y-42464857D01*
X174474380Y-41893428D02*
X173474380Y-42226761D01*
X174474380Y-42560095D01*
X173807714Y-43322000D02*
X174474380Y-43322000D01*
X173426761Y-43083904D02*
X174141047Y-42845809D01*
X174141047Y-43464857D01*
X155424380Y-40274380D02*
X154424380Y-40274380D01*
X154424380Y-40512476D01*
X154472000Y-40655333D01*
X154567238Y-40750571D01*
X154662476Y-40798190D01*
X154852952Y-40845809D01*
X154995809Y-40845809D01*
X155186285Y-40798190D01*
X155281523Y-40750571D01*
X155376761Y-40655333D01*
X155424380Y-40512476D01*
X155424380Y-40274380D01*
X155519619Y-41036285D02*
X155519619Y-41798190D01*
X155138666Y-41988666D02*
X155138666Y-42464857D01*
X155424380Y-41893428D02*
X154424380Y-42226761D01*
X155424380Y-42560095D01*
X154424380Y-43369619D02*
X154424380Y-42893428D01*
X154900571Y-42845809D01*
X154852952Y-42893428D01*
X154805333Y-42988666D01*
X154805333Y-43226761D01*
X154852952Y-43322000D01*
X154900571Y-43369619D01*
X154995809Y-43417238D01*
X155233904Y-43417238D01*
X155329142Y-43369619D01*
X155376761Y-43322000D01*
X155424380Y-43226761D01*
X155424380Y-42988666D01*
X155376761Y-42893428D01*
X155329142Y-42845809D01*
X136374380Y-40274380D02*
X135374380Y-40274380D01*
X135374380Y-40512476D01*
X135422000Y-40655333D01*
X135517238Y-40750571D01*
X135612476Y-40798190D01*
X135802952Y-40845809D01*
X135945809Y-40845809D01*
X136136285Y-40798190D01*
X136231523Y-40750571D01*
X136326761Y-40655333D01*
X136374380Y-40512476D01*
X136374380Y-40274380D01*
X136469619Y-41036285D02*
X136469619Y-41798190D01*
X136088666Y-41988666D02*
X136088666Y-42464857D01*
X136374380Y-41893428D02*
X135374380Y-42226761D01*
X136374380Y-42560095D01*
X135374380Y-43322000D02*
X135374380Y-43131523D01*
X135422000Y-43036285D01*
X135469619Y-42988666D01*
X135612476Y-42893428D01*
X135802952Y-42845809D01*
X136183904Y-42845809D01*
X136279142Y-42893428D01*
X136326761Y-42941047D01*
X136374380Y-43036285D01*
X136374380Y-43226761D01*
X136326761Y-43322000D01*
X136279142Y-43369619D01*
X136183904Y-43417238D01*
X135945809Y-43417238D01*
X135850571Y-43369619D01*
X135802952Y-43322000D01*
X135755333Y-43226761D01*
X135755333Y-43036285D01*
X135802952Y-42941047D01*
X135850571Y-42893428D01*
X135945809Y-42845809D01*
X117197380Y-40274380D02*
X116197380Y-40274380D01*
X116197380Y-40512476D01*
X116245000Y-40655333D01*
X116340238Y-40750571D01*
X116435476Y-40798190D01*
X116625952Y-40845809D01*
X116768809Y-40845809D01*
X116959285Y-40798190D01*
X117054523Y-40750571D01*
X117149761Y-40655333D01*
X117197380Y-40512476D01*
X117197380Y-40274380D01*
X117292619Y-41036285D02*
X117292619Y-41798190D01*
X116911666Y-41988666D02*
X116911666Y-42464857D01*
X117197380Y-41893428D02*
X116197380Y-42226761D01*
X117197380Y-42560095D01*
X116197380Y-42798190D02*
X116197380Y-43464857D01*
X117197380Y-43036285D01*
X88622380Y-40274380D02*
X87622380Y-40274380D01*
X87622380Y-40512476D01*
X87670000Y-40655333D01*
X87765238Y-40750571D01*
X87860476Y-40798190D01*
X88050952Y-40845809D01*
X88193809Y-40845809D01*
X88384285Y-40798190D01*
X88479523Y-40750571D01*
X88574761Y-40655333D01*
X88622380Y-40512476D01*
X88622380Y-40274380D01*
X88717619Y-41036285D02*
X88717619Y-41798190D01*
X88336666Y-41988666D02*
X88336666Y-42464857D01*
X88622380Y-41893428D02*
X87622380Y-42226761D01*
X88622380Y-42560095D01*
X88050952Y-43036285D02*
X88003333Y-42941047D01*
X87955714Y-42893428D01*
X87860476Y-42845809D01*
X87812857Y-42845809D01*
X87717619Y-42893428D01*
X87670000Y-42941047D01*
X87622380Y-43036285D01*
X87622380Y-43226761D01*
X87670000Y-43322000D01*
X87717619Y-43369619D01*
X87812857Y-43417238D01*
X87860476Y-43417238D01*
X87955714Y-43369619D01*
X88003333Y-43322000D01*
X88050952Y-43226761D01*
X88050952Y-43036285D01*
X88098571Y-42941047D01*
X88146190Y-42893428D01*
X88241428Y-42845809D01*
X88431904Y-42845809D01*
X88527142Y-42893428D01*
X88574761Y-42941047D01*
X88622380Y-43036285D01*
X88622380Y-43226761D01*
X88574761Y-43322000D01*
X88527142Y-43369619D01*
X88431904Y-43417238D01*
X88241428Y-43417238D01*
X88146190Y-43369619D01*
X88098571Y-43322000D01*
X88050952Y-43226761D01*
X69699380Y-40274380D02*
X68699380Y-40274380D01*
X68699380Y-40512476D01*
X68747000Y-40655333D01*
X68842238Y-40750571D01*
X68937476Y-40798190D01*
X69127952Y-40845809D01*
X69270809Y-40845809D01*
X69461285Y-40798190D01*
X69556523Y-40750571D01*
X69651761Y-40655333D01*
X69699380Y-40512476D01*
X69699380Y-40274380D01*
X69794619Y-41036285D02*
X69794619Y-41798190D01*
X69413666Y-41988666D02*
X69413666Y-42464857D01*
X69699380Y-41893428D02*
X68699380Y-42226761D01*
X69699380Y-42560095D01*
X69699380Y-42941047D02*
X69699380Y-43131523D01*
X69651761Y-43226761D01*
X69604142Y-43274380D01*
X69461285Y-43369619D01*
X69270809Y-43417238D01*
X68889857Y-43417238D01*
X68794619Y-43369619D01*
X68747000Y-43322000D01*
X68699380Y-43226761D01*
X68699380Y-43036285D01*
X68747000Y-42941047D01*
X68794619Y-42893428D01*
X68889857Y-42845809D01*
X69127952Y-42845809D01*
X69223190Y-42893428D01*
X69270809Y-42941047D01*
X69318428Y-43036285D01*
X69318428Y-43226761D01*
X69270809Y-43322000D01*
X69223190Y-43369619D01*
X69127952Y-43417238D01*
X50522380Y-39798190D02*
X49522380Y-39798190D01*
X49522380Y-40036285D01*
X49570000Y-40179142D01*
X49665238Y-40274380D01*
X49760476Y-40322000D01*
X49950952Y-40369619D01*
X50093809Y-40369619D01*
X50284285Y-40322000D01*
X50379523Y-40274380D01*
X50474761Y-40179142D01*
X50522380Y-40036285D01*
X50522380Y-39798190D01*
X50617619Y-40560095D02*
X50617619Y-41322000D01*
X50236666Y-41512476D02*
X50236666Y-41988666D01*
X50522380Y-41417238D02*
X49522380Y-41750571D01*
X50522380Y-42083904D01*
X50522380Y-42941047D02*
X50522380Y-42369619D01*
X50522380Y-42655333D02*
X49522380Y-42655333D01*
X49665238Y-42560095D01*
X49760476Y-42464857D01*
X49808095Y-42369619D01*
X49522380Y-43560095D02*
X49522380Y-43655333D01*
X49570000Y-43750571D01*
X49617619Y-43798190D01*
X49712857Y-43845809D01*
X49903333Y-43893428D01*
X50141428Y-43893428D01*
X50331904Y-43845809D01*
X50427142Y-43798190D01*
X50474761Y-43750571D01*
X50522380Y-43655333D01*
X50522380Y-43560095D01*
X50474761Y-43464857D01*
X50427142Y-43417238D01*
X50331904Y-43369619D01*
X50141428Y-43322000D01*
X49903333Y-43322000D01*
X49712857Y-43369619D01*
X49617619Y-43417238D01*
X49570000Y-43464857D01*
X49522380Y-43560095D01*
X31535880Y-39798190D02*
X30535880Y-39798190D01*
X30535880Y-40036285D01*
X30583500Y-40179142D01*
X30678738Y-40274380D01*
X30773976Y-40322000D01*
X30964452Y-40369619D01*
X31107309Y-40369619D01*
X31297785Y-40322000D01*
X31393023Y-40274380D01*
X31488261Y-40179142D01*
X31535880Y-40036285D01*
X31535880Y-39798190D01*
X31631119Y-40560095D02*
X31631119Y-41322000D01*
X31250166Y-41512476D02*
X31250166Y-41988666D01*
X31535880Y-41417238D02*
X30535880Y-41750571D01*
X31535880Y-42083904D01*
X31535880Y-42941047D02*
X31535880Y-42369619D01*
X31535880Y-42655333D02*
X30535880Y-42655333D01*
X30678738Y-42560095D01*
X30773976Y-42464857D01*
X30821595Y-42369619D01*
X31535880Y-43893428D02*
X31535880Y-43322000D01*
X31535880Y-43607714D02*
X30535880Y-43607714D01*
X30678738Y-43512476D01*
X30773976Y-43417238D01*
X30821595Y-43322000D01*
X241085880Y-68777952D02*
X240085880Y-68777952D01*
X240085880Y-69016047D01*
X240133500Y-69158904D01*
X240228738Y-69254142D01*
X240323976Y-69301761D01*
X240514452Y-69349380D01*
X240657309Y-69349380D01*
X240847785Y-69301761D01*
X240943023Y-69254142D01*
X241038261Y-69158904D01*
X241085880Y-69016047D01*
X241085880Y-68777952D01*
X241181119Y-69539857D02*
X241181119Y-70301761D01*
X240562071Y-70873190D02*
X240609690Y-71016047D01*
X240657309Y-71063666D01*
X240752547Y-71111285D01*
X240895404Y-71111285D01*
X240990642Y-71063666D01*
X241038261Y-71016047D01*
X241085880Y-70920809D01*
X241085880Y-70539857D01*
X240085880Y-70539857D01*
X240085880Y-70873190D01*
X240133500Y-70968428D01*
X240181119Y-71016047D01*
X240276357Y-71063666D01*
X240371595Y-71063666D01*
X240466833Y-71016047D01*
X240514452Y-70968428D01*
X240562071Y-70873190D01*
X240562071Y-70539857D01*
X241085880Y-72063666D02*
X241085880Y-71492238D01*
X241085880Y-71777952D02*
X240085880Y-71777952D01*
X240228738Y-71682714D01*
X240323976Y-71587476D01*
X240371595Y-71492238D01*
X222035880Y-68777952D02*
X221035880Y-68777952D01*
X221035880Y-69016047D01*
X221083500Y-69158904D01*
X221178738Y-69254142D01*
X221273976Y-69301761D01*
X221464452Y-69349380D01*
X221607309Y-69349380D01*
X221797785Y-69301761D01*
X221893023Y-69254142D01*
X221988261Y-69158904D01*
X222035880Y-69016047D01*
X222035880Y-68777952D01*
X222131119Y-69539857D02*
X222131119Y-70301761D01*
X221512071Y-70873190D02*
X221559690Y-71016047D01*
X221607309Y-71063666D01*
X221702547Y-71111285D01*
X221845404Y-71111285D01*
X221940642Y-71063666D01*
X221988261Y-71016047D01*
X222035880Y-70920809D01*
X222035880Y-70539857D01*
X221035880Y-70539857D01*
X221035880Y-70873190D01*
X221083500Y-70968428D01*
X221131119Y-71016047D01*
X221226357Y-71063666D01*
X221321595Y-71063666D01*
X221416833Y-71016047D01*
X221464452Y-70968428D01*
X221512071Y-70873190D01*
X221512071Y-70539857D01*
X221131119Y-71492238D02*
X221083500Y-71539857D01*
X221035880Y-71635095D01*
X221035880Y-71873190D01*
X221083500Y-71968428D01*
X221131119Y-72016047D01*
X221226357Y-72063666D01*
X221321595Y-72063666D01*
X221464452Y-72016047D01*
X222035880Y-71444619D01*
X222035880Y-72063666D01*
X202922380Y-68777952D02*
X201922380Y-68777952D01*
X201922380Y-69016047D01*
X201970000Y-69158904D01*
X202065238Y-69254142D01*
X202160476Y-69301761D01*
X202350952Y-69349380D01*
X202493809Y-69349380D01*
X202684285Y-69301761D01*
X202779523Y-69254142D01*
X202874761Y-69158904D01*
X202922380Y-69016047D01*
X202922380Y-68777952D01*
X203017619Y-69539857D02*
X203017619Y-70301761D01*
X202398571Y-70873190D02*
X202446190Y-71016047D01*
X202493809Y-71063666D01*
X202589047Y-71111285D01*
X202731904Y-71111285D01*
X202827142Y-71063666D01*
X202874761Y-71016047D01*
X202922380Y-70920809D01*
X202922380Y-70539857D01*
X201922380Y-70539857D01*
X201922380Y-70873190D01*
X201970000Y-70968428D01*
X202017619Y-71016047D01*
X202112857Y-71063666D01*
X202208095Y-71063666D01*
X202303333Y-71016047D01*
X202350952Y-70968428D01*
X202398571Y-70873190D01*
X202398571Y-70539857D01*
X201922380Y-71444619D02*
X201922380Y-72063666D01*
X202303333Y-71730333D01*
X202303333Y-71873190D01*
X202350952Y-71968428D01*
X202398571Y-72016047D01*
X202493809Y-72063666D01*
X202731904Y-72063666D01*
X202827142Y-72016047D01*
X202874761Y-71968428D01*
X202922380Y-71873190D01*
X202922380Y-71587476D01*
X202874761Y-71492238D01*
X202827142Y-71444619D01*
X155487880Y-68777952D02*
X154487880Y-68777952D01*
X154487880Y-69016047D01*
X154535500Y-69158904D01*
X154630738Y-69254142D01*
X154725976Y-69301761D01*
X154916452Y-69349380D01*
X155059309Y-69349380D01*
X155249785Y-69301761D01*
X155345023Y-69254142D01*
X155440261Y-69158904D01*
X155487880Y-69016047D01*
X155487880Y-68777952D01*
X155583119Y-69539857D02*
X155583119Y-70301761D01*
X154964071Y-70873190D02*
X155011690Y-71016047D01*
X155059309Y-71063666D01*
X155154547Y-71111285D01*
X155297404Y-71111285D01*
X155392642Y-71063666D01*
X155440261Y-71016047D01*
X155487880Y-70920809D01*
X155487880Y-70539857D01*
X154487880Y-70539857D01*
X154487880Y-70873190D01*
X154535500Y-70968428D01*
X154583119Y-71016047D01*
X154678357Y-71063666D01*
X154773595Y-71063666D01*
X154868833Y-71016047D01*
X154916452Y-70968428D01*
X154964071Y-70873190D01*
X154964071Y-70539857D01*
X154821214Y-71968428D02*
X155487880Y-71968428D01*
X154440261Y-71730333D02*
X155154547Y-71492238D01*
X155154547Y-72111285D01*
X136310880Y-68777952D02*
X135310880Y-68777952D01*
X135310880Y-69016047D01*
X135358500Y-69158904D01*
X135453738Y-69254142D01*
X135548976Y-69301761D01*
X135739452Y-69349380D01*
X135882309Y-69349380D01*
X136072785Y-69301761D01*
X136168023Y-69254142D01*
X136263261Y-69158904D01*
X136310880Y-69016047D01*
X136310880Y-68777952D01*
X136406119Y-69539857D02*
X136406119Y-70301761D01*
X135787071Y-70873190D02*
X135834690Y-71016047D01*
X135882309Y-71063666D01*
X135977547Y-71111285D01*
X136120404Y-71111285D01*
X136215642Y-71063666D01*
X136263261Y-71016047D01*
X136310880Y-70920809D01*
X136310880Y-70539857D01*
X135310880Y-70539857D01*
X135310880Y-70873190D01*
X135358500Y-70968428D01*
X135406119Y-71016047D01*
X135501357Y-71063666D01*
X135596595Y-71063666D01*
X135691833Y-71016047D01*
X135739452Y-70968428D01*
X135787071Y-70873190D01*
X135787071Y-70539857D01*
X135310880Y-72016047D02*
X135310880Y-71539857D01*
X135787071Y-71492238D01*
X135739452Y-71539857D01*
X135691833Y-71635095D01*
X135691833Y-71873190D01*
X135739452Y-71968428D01*
X135787071Y-72016047D01*
X135882309Y-72063666D01*
X136120404Y-72063666D01*
X136215642Y-72016047D01*
X136263261Y-71968428D01*
X136310880Y-71873190D01*
X136310880Y-71635095D01*
X136263261Y-71539857D01*
X136215642Y-71492238D01*
X117197380Y-68777952D02*
X116197380Y-68777952D01*
X116197380Y-69016047D01*
X116245000Y-69158904D01*
X116340238Y-69254142D01*
X116435476Y-69301761D01*
X116625952Y-69349380D01*
X116768809Y-69349380D01*
X116959285Y-69301761D01*
X117054523Y-69254142D01*
X117149761Y-69158904D01*
X117197380Y-69016047D01*
X117197380Y-68777952D01*
X117292619Y-69539857D02*
X117292619Y-70301761D01*
X116673571Y-70873190D02*
X116721190Y-71016047D01*
X116768809Y-71063666D01*
X116864047Y-71111285D01*
X117006904Y-71111285D01*
X117102142Y-71063666D01*
X117149761Y-71016047D01*
X117197380Y-70920809D01*
X117197380Y-70539857D01*
X116197380Y-70539857D01*
X116197380Y-70873190D01*
X116245000Y-70968428D01*
X116292619Y-71016047D01*
X116387857Y-71063666D01*
X116483095Y-71063666D01*
X116578333Y-71016047D01*
X116625952Y-70968428D01*
X116673571Y-70873190D01*
X116673571Y-70539857D01*
X116197380Y-71968428D02*
X116197380Y-71777952D01*
X116245000Y-71682714D01*
X116292619Y-71635095D01*
X116435476Y-71539857D01*
X116625952Y-71492238D01*
X117006904Y-71492238D01*
X117102142Y-71539857D01*
X117149761Y-71587476D01*
X117197380Y-71682714D01*
X117197380Y-71873190D01*
X117149761Y-71968428D01*
X117102142Y-72016047D01*
X117006904Y-72063666D01*
X116768809Y-72063666D01*
X116673571Y-72016047D01*
X116625952Y-71968428D01*
X116578333Y-71873190D01*
X116578333Y-71682714D01*
X116625952Y-71587476D01*
X116673571Y-71539857D01*
X116768809Y-71492238D01*
X98210880Y-68777952D02*
X97210880Y-68777952D01*
X97210880Y-69016047D01*
X97258500Y-69158904D01*
X97353738Y-69254142D01*
X97448976Y-69301761D01*
X97639452Y-69349380D01*
X97782309Y-69349380D01*
X97972785Y-69301761D01*
X98068023Y-69254142D01*
X98163261Y-69158904D01*
X98210880Y-69016047D01*
X98210880Y-68777952D01*
X98306119Y-69539857D02*
X98306119Y-70301761D01*
X97687071Y-70873190D02*
X97734690Y-71016047D01*
X97782309Y-71063666D01*
X97877547Y-71111285D01*
X98020404Y-71111285D01*
X98115642Y-71063666D01*
X98163261Y-71016047D01*
X98210880Y-70920809D01*
X98210880Y-70539857D01*
X97210880Y-70539857D01*
X97210880Y-70873190D01*
X97258500Y-70968428D01*
X97306119Y-71016047D01*
X97401357Y-71063666D01*
X97496595Y-71063666D01*
X97591833Y-71016047D01*
X97639452Y-70968428D01*
X97687071Y-70873190D01*
X97687071Y-70539857D01*
X97210880Y-71444619D02*
X97210880Y-72111285D01*
X98210880Y-71682714D01*
X79224380Y-68777952D02*
X78224380Y-68777952D01*
X78224380Y-69016047D01*
X78272000Y-69158904D01*
X78367238Y-69254142D01*
X78462476Y-69301761D01*
X78652952Y-69349380D01*
X78795809Y-69349380D01*
X78986285Y-69301761D01*
X79081523Y-69254142D01*
X79176761Y-69158904D01*
X79224380Y-69016047D01*
X79224380Y-68777952D01*
X79319619Y-69539857D02*
X79319619Y-70301761D01*
X78700571Y-70873190D02*
X78748190Y-71016047D01*
X78795809Y-71063666D01*
X78891047Y-71111285D01*
X79033904Y-71111285D01*
X79129142Y-71063666D01*
X79176761Y-71016047D01*
X79224380Y-70920809D01*
X79224380Y-70539857D01*
X78224380Y-70539857D01*
X78224380Y-70873190D01*
X78272000Y-70968428D01*
X78319619Y-71016047D01*
X78414857Y-71063666D01*
X78510095Y-71063666D01*
X78605333Y-71016047D01*
X78652952Y-70968428D01*
X78700571Y-70873190D01*
X78700571Y-70539857D01*
X78652952Y-71682714D02*
X78605333Y-71587476D01*
X78557714Y-71539857D01*
X78462476Y-71492238D01*
X78414857Y-71492238D01*
X78319619Y-71539857D01*
X78272000Y-71587476D01*
X78224380Y-71682714D01*
X78224380Y-71873190D01*
X78272000Y-71968428D01*
X78319619Y-72016047D01*
X78414857Y-72063666D01*
X78462476Y-72063666D01*
X78557714Y-72016047D01*
X78605333Y-71968428D01*
X78652952Y-71873190D01*
X78652952Y-71682714D01*
X78700571Y-71587476D01*
X78748190Y-71539857D01*
X78843428Y-71492238D01*
X79033904Y-71492238D01*
X79129142Y-71539857D01*
X79176761Y-71587476D01*
X79224380Y-71682714D01*
X79224380Y-71873190D01*
X79176761Y-71968428D01*
X79129142Y-72016047D01*
X79033904Y-72063666D01*
X78843428Y-72063666D01*
X78748190Y-72016047D01*
X78700571Y-71968428D01*
X78652952Y-71873190D01*
X60047380Y-68777952D02*
X59047380Y-68777952D01*
X59047380Y-69016047D01*
X59095000Y-69158904D01*
X59190238Y-69254142D01*
X59285476Y-69301761D01*
X59475952Y-69349380D01*
X59618809Y-69349380D01*
X59809285Y-69301761D01*
X59904523Y-69254142D01*
X59999761Y-69158904D01*
X60047380Y-69016047D01*
X60047380Y-68777952D01*
X60142619Y-69539857D02*
X60142619Y-70301761D01*
X59523571Y-70873190D02*
X59571190Y-71016047D01*
X59618809Y-71063666D01*
X59714047Y-71111285D01*
X59856904Y-71111285D01*
X59952142Y-71063666D01*
X59999761Y-71016047D01*
X60047380Y-70920809D01*
X60047380Y-70539857D01*
X59047380Y-70539857D01*
X59047380Y-70873190D01*
X59095000Y-70968428D01*
X59142619Y-71016047D01*
X59237857Y-71063666D01*
X59333095Y-71063666D01*
X59428333Y-71016047D01*
X59475952Y-70968428D01*
X59523571Y-70873190D01*
X59523571Y-70539857D01*
X60047380Y-71587476D02*
X60047380Y-71777952D01*
X59999761Y-71873190D01*
X59952142Y-71920809D01*
X59809285Y-72016047D01*
X59618809Y-72063666D01*
X59237857Y-72063666D01*
X59142619Y-72016047D01*
X59095000Y-71968428D01*
X59047380Y-71873190D01*
X59047380Y-71682714D01*
X59095000Y-71587476D01*
X59142619Y-71539857D01*
X59237857Y-71492238D01*
X59475952Y-71492238D01*
X59571190Y-71539857D01*
X59618809Y-71587476D01*
X59666428Y-71682714D01*
X59666428Y-71873190D01*
X59618809Y-71968428D01*
X59571190Y-72016047D01*
X59475952Y-72063666D01*
X40997380Y-68301761D02*
X39997380Y-68301761D01*
X39997380Y-68539857D01*
X40045000Y-68682714D01*
X40140238Y-68777952D01*
X40235476Y-68825571D01*
X40425952Y-68873190D01*
X40568809Y-68873190D01*
X40759285Y-68825571D01*
X40854523Y-68777952D01*
X40949761Y-68682714D01*
X40997380Y-68539857D01*
X40997380Y-68301761D01*
X41092619Y-69063666D02*
X41092619Y-69825571D01*
X40473571Y-70397000D02*
X40521190Y-70539857D01*
X40568809Y-70587476D01*
X40664047Y-70635095D01*
X40806904Y-70635095D01*
X40902142Y-70587476D01*
X40949761Y-70539857D01*
X40997380Y-70444619D01*
X40997380Y-70063666D01*
X39997380Y-70063666D01*
X39997380Y-70397000D01*
X40045000Y-70492238D01*
X40092619Y-70539857D01*
X40187857Y-70587476D01*
X40283095Y-70587476D01*
X40378333Y-70539857D01*
X40425952Y-70492238D01*
X40473571Y-70397000D01*
X40473571Y-70063666D01*
X40997380Y-71587476D02*
X40997380Y-71016047D01*
X40997380Y-71301761D02*
X39997380Y-71301761D01*
X40140238Y-71206523D01*
X40235476Y-71111285D01*
X40283095Y-71016047D01*
X39997380Y-72206523D02*
X39997380Y-72301761D01*
X40045000Y-72397000D01*
X40092619Y-72444619D01*
X40187857Y-72492238D01*
X40378333Y-72539857D01*
X40616428Y-72539857D01*
X40806904Y-72492238D01*
X40902142Y-72444619D01*
X40949761Y-72397000D01*
X40997380Y-72301761D01*
X40997380Y-72206523D01*
X40949761Y-72111285D01*
X40902142Y-72063666D01*
X40806904Y-72016047D01*
X40616428Y-71968428D01*
X40378333Y-71968428D01*
X40187857Y-72016047D01*
X40092619Y-72063666D01*
X40045000Y-72111285D01*
X39997380Y-72206523D01*
X21883880Y-68301761D02*
X20883880Y-68301761D01*
X20883880Y-68539857D01*
X20931500Y-68682714D01*
X21026738Y-68777952D01*
X21121976Y-68825571D01*
X21312452Y-68873190D01*
X21455309Y-68873190D01*
X21645785Y-68825571D01*
X21741023Y-68777952D01*
X21836261Y-68682714D01*
X21883880Y-68539857D01*
X21883880Y-68301761D01*
X21979119Y-69063666D02*
X21979119Y-69825571D01*
X21360071Y-70397000D02*
X21407690Y-70539857D01*
X21455309Y-70587476D01*
X21550547Y-70635095D01*
X21693404Y-70635095D01*
X21788642Y-70587476D01*
X21836261Y-70539857D01*
X21883880Y-70444619D01*
X21883880Y-70063666D01*
X20883880Y-70063666D01*
X20883880Y-70397000D01*
X20931500Y-70492238D01*
X20979119Y-70539857D01*
X21074357Y-70587476D01*
X21169595Y-70587476D01*
X21264833Y-70539857D01*
X21312452Y-70492238D01*
X21360071Y-70397000D01*
X21360071Y-70063666D01*
X21883880Y-71587476D02*
X21883880Y-71016047D01*
X21883880Y-71301761D02*
X20883880Y-71301761D01*
X21026738Y-71206523D01*
X21121976Y-71111285D01*
X21169595Y-71016047D01*
X21883880Y-72539857D02*
X21883880Y-71968428D01*
X21883880Y-72254142D02*
X20883880Y-72254142D01*
X21026738Y-72158904D01*
X21121976Y-72063666D01*
X21169595Y-71968428D01*
X241085880Y-87827952D02*
X240085880Y-87827952D01*
X240085880Y-88066047D01*
X240133500Y-88208904D01*
X240228738Y-88304142D01*
X240323976Y-88351761D01*
X240514452Y-88399380D01*
X240657309Y-88399380D01*
X240847785Y-88351761D01*
X240943023Y-88304142D01*
X241038261Y-88208904D01*
X241085880Y-88066047D01*
X241085880Y-87827952D01*
X241181119Y-88589857D02*
X241181119Y-89351761D01*
X240990642Y-90161285D02*
X241038261Y-90113666D01*
X241085880Y-89970809D01*
X241085880Y-89875571D01*
X241038261Y-89732714D01*
X240943023Y-89637476D01*
X240847785Y-89589857D01*
X240657309Y-89542238D01*
X240514452Y-89542238D01*
X240323976Y-89589857D01*
X240228738Y-89637476D01*
X240133500Y-89732714D01*
X240085880Y-89875571D01*
X240085880Y-89970809D01*
X240133500Y-90113666D01*
X240181119Y-90161285D01*
X241085880Y-91113666D02*
X241085880Y-90542238D01*
X241085880Y-90827952D02*
X240085880Y-90827952D01*
X240228738Y-90732714D01*
X240323976Y-90637476D01*
X240371595Y-90542238D01*
X221908880Y-87827952D02*
X220908880Y-87827952D01*
X220908880Y-88066047D01*
X220956500Y-88208904D01*
X221051738Y-88304142D01*
X221146976Y-88351761D01*
X221337452Y-88399380D01*
X221480309Y-88399380D01*
X221670785Y-88351761D01*
X221766023Y-88304142D01*
X221861261Y-88208904D01*
X221908880Y-88066047D01*
X221908880Y-87827952D01*
X222004119Y-88589857D02*
X222004119Y-89351761D01*
X221813642Y-90161285D02*
X221861261Y-90113666D01*
X221908880Y-89970809D01*
X221908880Y-89875571D01*
X221861261Y-89732714D01*
X221766023Y-89637476D01*
X221670785Y-89589857D01*
X221480309Y-89542238D01*
X221337452Y-89542238D01*
X221146976Y-89589857D01*
X221051738Y-89637476D01*
X220956500Y-89732714D01*
X220908880Y-89875571D01*
X220908880Y-89970809D01*
X220956500Y-90113666D01*
X221004119Y-90161285D01*
X221004119Y-90542238D02*
X220956500Y-90589857D01*
X220908880Y-90685095D01*
X220908880Y-90923190D01*
X220956500Y-91018428D01*
X221004119Y-91066047D01*
X221099357Y-91113666D01*
X221194595Y-91113666D01*
X221337452Y-91066047D01*
X221908880Y-90494619D01*
X221908880Y-91113666D01*
X202985880Y-87827952D02*
X201985880Y-87827952D01*
X201985880Y-88066047D01*
X202033500Y-88208904D01*
X202128738Y-88304142D01*
X202223976Y-88351761D01*
X202414452Y-88399380D01*
X202557309Y-88399380D01*
X202747785Y-88351761D01*
X202843023Y-88304142D01*
X202938261Y-88208904D01*
X202985880Y-88066047D01*
X202985880Y-87827952D01*
X203081119Y-88589857D02*
X203081119Y-89351761D01*
X202890642Y-90161285D02*
X202938261Y-90113666D01*
X202985880Y-89970809D01*
X202985880Y-89875571D01*
X202938261Y-89732714D01*
X202843023Y-89637476D01*
X202747785Y-89589857D01*
X202557309Y-89542238D01*
X202414452Y-89542238D01*
X202223976Y-89589857D01*
X202128738Y-89637476D01*
X202033500Y-89732714D01*
X201985880Y-89875571D01*
X201985880Y-89970809D01*
X202033500Y-90113666D01*
X202081119Y-90161285D01*
X201985880Y-90494619D02*
X201985880Y-91113666D01*
X202366833Y-90780333D01*
X202366833Y-90923190D01*
X202414452Y-91018428D01*
X202462071Y-91066047D01*
X202557309Y-91113666D01*
X202795404Y-91113666D01*
X202890642Y-91066047D01*
X202938261Y-91018428D01*
X202985880Y-90923190D01*
X202985880Y-90637476D01*
X202938261Y-90542238D01*
X202890642Y-90494619D01*
X164949380Y-87827952D02*
X163949380Y-87827952D01*
X163949380Y-88066047D01*
X163997000Y-88208904D01*
X164092238Y-88304142D01*
X164187476Y-88351761D01*
X164377952Y-88399380D01*
X164520809Y-88399380D01*
X164711285Y-88351761D01*
X164806523Y-88304142D01*
X164901761Y-88208904D01*
X164949380Y-88066047D01*
X164949380Y-87827952D01*
X165044619Y-88589857D02*
X165044619Y-89351761D01*
X164854142Y-90161285D02*
X164901761Y-90113666D01*
X164949380Y-89970809D01*
X164949380Y-89875571D01*
X164901761Y-89732714D01*
X164806523Y-89637476D01*
X164711285Y-89589857D01*
X164520809Y-89542238D01*
X164377952Y-89542238D01*
X164187476Y-89589857D01*
X164092238Y-89637476D01*
X163997000Y-89732714D01*
X163949380Y-89875571D01*
X163949380Y-89970809D01*
X163997000Y-90113666D01*
X164044619Y-90161285D01*
X164282714Y-91018428D02*
X164949380Y-91018428D01*
X163901761Y-90780333D02*
X164616047Y-90542238D01*
X164616047Y-91161285D01*
X145772380Y-87827952D02*
X144772380Y-87827952D01*
X144772380Y-88066047D01*
X144820000Y-88208904D01*
X144915238Y-88304142D01*
X145010476Y-88351761D01*
X145200952Y-88399380D01*
X145343809Y-88399380D01*
X145534285Y-88351761D01*
X145629523Y-88304142D01*
X145724761Y-88208904D01*
X145772380Y-88066047D01*
X145772380Y-87827952D01*
X145867619Y-88589857D02*
X145867619Y-89351761D01*
X145677142Y-90161285D02*
X145724761Y-90113666D01*
X145772380Y-89970809D01*
X145772380Y-89875571D01*
X145724761Y-89732714D01*
X145629523Y-89637476D01*
X145534285Y-89589857D01*
X145343809Y-89542238D01*
X145200952Y-89542238D01*
X145010476Y-89589857D01*
X144915238Y-89637476D01*
X144820000Y-89732714D01*
X144772380Y-89875571D01*
X144772380Y-89970809D01*
X144820000Y-90113666D01*
X144867619Y-90161285D01*
X144772380Y-91066047D02*
X144772380Y-90589857D01*
X145248571Y-90542238D01*
X145200952Y-90589857D01*
X145153333Y-90685095D01*
X145153333Y-90923190D01*
X145200952Y-91018428D01*
X145248571Y-91066047D01*
X145343809Y-91113666D01*
X145581904Y-91113666D01*
X145677142Y-91066047D01*
X145724761Y-91018428D01*
X145772380Y-90923190D01*
X145772380Y-90685095D01*
X145724761Y-90589857D01*
X145677142Y-90542238D01*
X126658880Y-87827952D02*
X125658880Y-87827952D01*
X125658880Y-88066047D01*
X125706500Y-88208904D01*
X125801738Y-88304142D01*
X125896976Y-88351761D01*
X126087452Y-88399380D01*
X126230309Y-88399380D01*
X126420785Y-88351761D01*
X126516023Y-88304142D01*
X126611261Y-88208904D01*
X126658880Y-88066047D01*
X126658880Y-87827952D01*
X126754119Y-88589857D02*
X126754119Y-89351761D01*
X126563642Y-90161285D02*
X126611261Y-90113666D01*
X126658880Y-89970809D01*
X126658880Y-89875571D01*
X126611261Y-89732714D01*
X126516023Y-89637476D01*
X126420785Y-89589857D01*
X126230309Y-89542238D01*
X126087452Y-89542238D01*
X125896976Y-89589857D01*
X125801738Y-89637476D01*
X125706500Y-89732714D01*
X125658880Y-89875571D01*
X125658880Y-89970809D01*
X125706500Y-90113666D01*
X125754119Y-90161285D01*
X125658880Y-91018428D02*
X125658880Y-90827952D01*
X125706500Y-90732714D01*
X125754119Y-90685095D01*
X125896976Y-90589857D01*
X126087452Y-90542238D01*
X126468404Y-90542238D01*
X126563642Y-90589857D01*
X126611261Y-90637476D01*
X126658880Y-90732714D01*
X126658880Y-90923190D01*
X126611261Y-91018428D01*
X126563642Y-91066047D01*
X126468404Y-91113666D01*
X126230309Y-91113666D01*
X126135071Y-91066047D01*
X126087452Y-91018428D01*
X126039833Y-90923190D01*
X126039833Y-90732714D01*
X126087452Y-90637476D01*
X126135071Y-90589857D01*
X126230309Y-90542238D01*
X107735880Y-87827952D02*
X106735880Y-87827952D01*
X106735880Y-88066047D01*
X106783500Y-88208904D01*
X106878738Y-88304142D01*
X106973976Y-88351761D01*
X107164452Y-88399380D01*
X107307309Y-88399380D01*
X107497785Y-88351761D01*
X107593023Y-88304142D01*
X107688261Y-88208904D01*
X107735880Y-88066047D01*
X107735880Y-87827952D01*
X107831119Y-88589857D02*
X107831119Y-89351761D01*
X107640642Y-90161285D02*
X107688261Y-90113666D01*
X107735880Y-89970809D01*
X107735880Y-89875571D01*
X107688261Y-89732714D01*
X107593023Y-89637476D01*
X107497785Y-89589857D01*
X107307309Y-89542238D01*
X107164452Y-89542238D01*
X106973976Y-89589857D01*
X106878738Y-89637476D01*
X106783500Y-89732714D01*
X106735880Y-89875571D01*
X106735880Y-89970809D01*
X106783500Y-90113666D01*
X106831119Y-90161285D01*
X106735880Y-90494619D02*
X106735880Y-91161285D01*
X107735880Y-90732714D01*
X88622380Y-87827952D02*
X87622380Y-87827952D01*
X87622380Y-88066047D01*
X87670000Y-88208904D01*
X87765238Y-88304142D01*
X87860476Y-88351761D01*
X88050952Y-88399380D01*
X88193809Y-88399380D01*
X88384285Y-88351761D01*
X88479523Y-88304142D01*
X88574761Y-88208904D01*
X88622380Y-88066047D01*
X88622380Y-87827952D01*
X88717619Y-88589857D02*
X88717619Y-89351761D01*
X88527142Y-90161285D02*
X88574761Y-90113666D01*
X88622380Y-89970809D01*
X88622380Y-89875571D01*
X88574761Y-89732714D01*
X88479523Y-89637476D01*
X88384285Y-89589857D01*
X88193809Y-89542238D01*
X88050952Y-89542238D01*
X87860476Y-89589857D01*
X87765238Y-89637476D01*
X87670000Y-89732714D01*
X87622380Y-89875571D01*
X87622380Y-89970809D01*
X87670000Y-90113666D01*
X87717619Y-90161285D01*
X88050952Y-90732714D02*
X88003333Y-90637476D01*
X87955714Y-90589857D01*
X87860476Y-90542238D01*
X87812857Y-90542238D01*
X87717619Y-90589857D01*
X87670000Y-90637476D01*
X87622380Y-90732714D01*
X87622380Y-90923190D01*
X87670000Y-91018428D01*
X87717619Y-91066047D01*
X87812857Y-91113666D01*
X87860476Y-91113666D01*
X87955714Y-91066047D01*
X88003333Y-91018428D01*
X88050952Y-90923190D01*
X88050952Y-90732714D01*
X88098571Y-90637476D01*
X88146190Y-90589857D01*
X88241428Y-90542238D01*
X88431904Y-90542238D01*
X88527142Y-90589857D01*
X88574761Y-90637476D01*
X88622380Y-90732714D01*
X88622380Y-90923190D01*
X88574761Y-91018428D01*
X88527142Y-91066047D01*
X88431904Y-91113666D01*
X88241428Y-91113666D01*
X88146190Y-91066047D01*
X88098571Y-91018428D01*
X88050952Y-90923190D01*
X69572380Y-87827952D02*
X68572380Y-87827952D01*
X68572380Y-88066047D01*
X68620000Y-88208904D01*
X68715238Y-88304142D01*
X68810476Y-88351761D01*
X69000952Y-88399380D01*
X69143809Y-88399380D01*
X69334285Y-88351761D01*
X69429523Y-88304142D01*
X69524761Y-88208904D01*
X69572380Y-88066047D01*
X69572380Y-87827952D01*
X69667619Y-88589857D02*
X69667619Y-89351761D01*
X69477142Y-90161285D02*
X69524761Y-90113666D01*
X69572380Y-89970809D01*
X69572380Y-89875571D01*
X69524761Y-89732714D01*
X69429523Y-89637476D01*
X69334285Y-89589857D01*
X69143809Y-89542238D01*
X69000952Y-89542238D01*
X68810476Y-89589857D01*
X68715238Y-89637476D01*
X68620000Y-89732714D01*
X68572380Y-89875571D01*
X68572380Y-89970809D01*
X68620000Y-90113666D01*
X68667619Y-90161285D01*
X69572380Y-90637476D02*
X69572380Y-90827952D01*
X69524761Y-90923190D01*
X69477142Y-90970809D01*
X69334285Y-91066047D01*
X69143809Y-91113666D01*
X68762857Y-91113666D01*
X68667619Y-91066047D01*
X68620000Y-91018428D01*
X68572380Y-90923190D01*
X68572380Y-90732714D01*
X68620000Y-90637476D01*
X68667619Y-90589857D01*
X68762857Y-90542238D01*
X69000952Y-90542238D01*
X69096190Y-90589857D01*
X69143809Y-90637476D01*
X69191428Y-90732714D01*
X69191428Y-90923190D01*
X69143809Y-91018428D01*
X69096190Y-91066047D01*
X69000952Y-91113666D01*
X50522380Y-87351761D02*
X49522380Y-87351761D01*
X49522380Y-87589857D01*
X49570000Y-87732714D01*
X49665238Y-87827952D01*
X49760476Y-87875571D01*
X49950952Y-87923190D01*
X50093809Y-87923190D01*
X50284285Y-87875571D01*
X50379523Y-87827952D01*
X50474761Y-87732714D01*
X50522380Y-87589857D01*
X50522380Y-87351761D01*
X50617619Y-88113666D02*
X50617619Y-88875571D01*
X50427142Y-89685095D02*
X50474761Y-89637476D01*
X50522380Y-89494619D01*
X50522380Y-89399380D01*
X50474761Y-89256523D01*
X50379523Y-89161285D01*
X50284285Y-89113666D01*
X50093809Y-89066047D01*
X49950952Y-89066047D01*
X49760476Y-89113666D01*
X49665238Y-89161285D01*
X49570000Y-89256523D01*
X49522380Y-89399380D01*
X49522380Y-89494619D01*
X49570000Y-89637476D01*
X49617619Y-89685095D01*
X50522380Y-90637476D02*
X50522380Y-90066047D01*
X50522380Y-90351761D02*
X49522380Y-90351761D01*
X49665238Y-90256523D01*
X49760476Y-90161285D01*
X49808095Y-90066047D01*
X49522380Y-91256523D02*
X49522380Y-91351761D01*
X49570000Y-91447000D01*
X49617619Y-91494619D01*
X49712857Y-91542238D01*
X49903333Y-91589857D01*
X50141428Y-91589857D01*
X50331904Y-91542238D01*
X50427142Y-91494619D01*
X50474761Y-91447000D01*
X50522380Y-91351761D01*
X50522380Y-91256523D01*
X50474761Y-91161285D01*
X50427142Y-91113666D01*
X50331904Y-91066047D01*
X50141428Y-91018428D01*
X49903333Y-91018428D01*
X49712857Y-91066047D01*
X49617619Y-91113666D01*
X49570000Y-91161285D01*
X49522380Y-91256523D01*
X31573980Y-87351761D02*
X30573980Y-87351761D01*
X30573980Y-87589857D01*
X30621600Y-87732714D01*
X30716838Y-87827952D01*
X30812076Y-87875571D01*
X31002552Y-87923190D01*
X31145409Y-87923190D01*
X31335885Y-87875571D01*
X31431123Y-87827952D01*
X31526361Y-87732714D01*
X31573980Y-87589857D01*
X31573980Y-87351761D01*
X31669219Y-88113666D02*
X31669219Y-88875571D01*
X31478742Y-89685095D02*
X31526361Y-89637476D01*
X31573980Y-89494619D01*
X31573980Y-89399380D01*
X31526361Y-89256523D01*
X31431123Y-89161285D01*
X31335885Y-89113666D01*
X31145409Y-89066047D01*
X31002552Y-89066047D01*
X30812076Y-89113666D01*
X30716838Y-89161285D01*
X30621600Y-89256523D01*
X30573980Y-89399380D01*
X30573980Y-89494619D01*
X30621600Y-89637476D01*
X30669219Y-89685095D01*
X31573980Y-90637476D02*
X31573980Y-90066047D01*
X31573980Y-90351761D02*
X30573980Y-90351761D01*
X30716838Y-90256523D01*
X30812076Y-90161285D01*
X30859695Y-90066047D01*
X31573980Y-91589857D02*
X31573980Y-91018428D01*
X31573980Y-91304142D02*
X30573980Y-91304142D01*
X30716838Y-91208904D01*
X30812076Y-91113666D01*
X30859695Y-91018428D01*
X16327380Y-87351761D02*
X15327380Y-87351761D01*
X15327380Y-87589857D01*
X15375000Y-87732714D01*
X15470238Y-87827952D01*
X15565476Y-87875571D01*
X15755952Y-87923190D01*
X15898809Y-87923190D01*
X16089285Y-87875571D01*
X16184523Y-87827952D01*
X16279761Y-87732714D01*
X16327380Y-87589857D01*
X16327380Y-87351761D01*
X16422619Y-88113666D02*
X16422619Y-88875571D01*
X16232142Y-89685095D02*
X16279761Y-89637476D01*
X16327380Y-89494619D01*
X16327380Y-89399380D01*
X16279761Y-89256523D01*
X16184523Y-89161285D01*
X16089285Y-89113666D01*
X15898809Y-89066047D01*
X15755952Y-89066047D01*
X15565476Y-89113666D01*
X15470238Y-89161285D01*
X15375000Y-89256523D01*
X15327380Y-89399380D01*
X15327380Y-89494619D01*
X15375000Y-89637476D01*
X15422619Y-89685095D01*
X16327380Y-90637476D02*
X16327380Y-90066047D01*
X16327380Y-90351761D02*
X15327380Y-90351761D01*
X15470238Y-90256523D01*
X15565476Y-90161285D01*
X15613095Y-90066047D01*
X15422619Y-91018428D02*
X15375000Y-91066047D01*
X15327380Y-91161285D01*
X15327380Y-91399380D01*
X15375000Y-91494619D01*
X15422619Y-91542238D01*
X15517857Y-91589857D01*
X15613095Y-91589857D01*
X15755952Y-91542238D01*
X16327380Y-90970809D01*
X16327380Y-91589857D01*
X150649180Y-106877952D02*
X149649180Y-106877952D01*
X149649180Y-107116047D01*
X149696800Y-107258904D01*
X149792038Y-107354142D01*
X149887276Y-107401761D01*
X150077752Y-107449380D01*
X150220609Y-107449380D01*
X150411085Y-107401761D01*
X150506323Y-107354142D01*
X150601561Y-107258904D01*
X150649180Y-107116047D01*
X150649180Y-106877952D01*
X150744419Y-107639857D02*
X150744419Y-108401761D01*
X150649180Y-108639857D02*
X149649180Y-108639857D01*
X149649180Y-108877952D01*
X149696800Y-109020809D01*
X149792038Y-109116047D01*
X149887276Y-109163666D01*
X150077752Y-109211285D01*
X150220609Y-109211285D01*
X150411085Y-109163666D01*
X150506323Y-109116047D01*
X150601561Y-109020809D01*
X150649180Y-108877952D01*
X150649180Y-108639857D01*
X149982514Y-110068428D02*
X150649180Y-110068428D01*
X149601561Y-109830333D02*
X150315847Y-109592238D01*
X150315847Y-110211285D01*
X131599180Y-106877952D02*
X130599180Y-106877952D01*
X130599180Y-107116047D01*
X130646800Y-107258904D01*
X130742038Y-107354142D01*
X130837276Y-107401761D01*
X131027752Y-107449380D01*
X131170609Y-107449380D01*
X131361085Y-107401761D01*
X131456323Y-107354142D01*
X131551561Y-107258904D01*
X131599180Y-107116047D01*
X131599180Y-106877952D01*
X131694419Y-107639857D02*
X131694419Y-108401761D01*
X131599180Y-108639857D02*
X130599180Y-108639857D01*
X130599180Y-108877952D01*
X130646800Y-109020809D01*
X130742038Y-109116047D01*
X130837276Y-109163666D01*
X131027752Y-109211285D01*
X131170609Y-109211285D01*
X131361085Y-109163666D01*
X131456323Y-109116047D01*
X131551561Y-109020809D01*
X131599180Y-108877952D01*
X131599180Y-108639857D01*
X130599180Y-110116047D02*
X130599180Y-109639857D01*
X131075371Y-109592238D01*
X131027752Y-109639857D01*
X130980133Y-109735095D01*
X130980133Y-109973190D01*
X131027752Y-110068428D01*
X131075371Y-110116047D01*
X131170609Y-110163666D01*
X131408704Y-110163666D01*
X131503942Y-110116047D01*
X131551561Y-110068428D01*
X131599180Y-109973190D01*
X131599180Y-109735095D01*
X131551561Y-109639857D01*
X131503942Y-109592238D01*
X112447580Y-106877952D02*
X111447580Y-106877952D01*
X111447580Y-107116047D01*
X111495200Y-107258904D01*
X111590438Y-107354142D01*
X111685676Y-107401761D01*
X111876152Y-107449380D01*
X112019009Y-107449380D01*
X112209485Y-107401761D01*
X112304723Y-107354142D01*
X112399961Y-107258904D01*
X112447580Y-107116047D01*
X112447580Y-106877952D01*
X112542819Y-107639857D02*
X112542819Y-108401761D01*
X112447580Y-108639857D02*
X111447580Y-108639857D01*
X111447580Y-108877952D01*
X111495200Y-109020809D01*
X111590438Y-109116047D01*
X111685676Y-109163666D01*
X111876152Y-109211285D01*
X112019009Y-109211285D01*
X112209485Y-109163666D01*
X112304723Y-109116047D01*
X112399961Y-109020809D01*
X112447580Y-108877952D01*
X112447580Y-108639857D01*
X111447580Y-110068428D02*
X111447580Y-109877952D01*
X111495200Y-109782714D01*
X111542819Y-109735095D01*
X111685676Y-109639857D01*
X111876152Y-109592238D01*
X112257104Y-109592238D01*
X112352342Y-109639857D01*
X112399961Y-109687476D01*
X112447580Y-109782714D01*
X112447580Y-109973190D01*
X112399961Y-110068428D01*
X112352342Y-110116047D01*
X112257104Y-110163666D01*
X112019009Y-110163666D01*
X111923771Y-110116047D01*
X111876152Y-110068428D01*
X111828533Y-109973190D01*
X111828533Y-109782714D01*
X111876152Y-109687476D01*
X111923771Y-109639857D01*
X112019009Y-109592238D01*
X93448380Y-106877952D02*
X92448380Y-106877952D01*
X92448380Y-107116047D01*
X92496000Y-107258904D01*
X92591238Y-107354142D01*
X92686476Y-107401761D01*
X92876952Y-107449380D01*
X93019809Y-107449380D01*
X93210285Y-107401761D01*
X93305523Y-107354142D01*
X93400761Y-107258904D01*
X93448380Y-107116047D01*
X93448380Y-106877952D01*
X93543619Y-107639857D02*
X93543619Y-108401761D01*
X93448380Y-108639857D02*
X92448380Y-108639857D01*
X92448380Y-108877952D01*
X92496000Y-109020809D01*
X92591238Y-109116047D01*
X92686476Y-109163666D01*
X92876952Y-109211285D01*
X93019809Y-109211285D01*
X93210285Y-109163666D01*
X93305523Y-109116047D01*
X93400761Y-109020809D01*
X93448380Y-108877952D01*
X93448380Y-108639857D01*
X92448380Y-109544619D02*
X92448380Y-110211285D01*
X93448380Y-109782714D01*
X74347580Y-106877952D02*
X73347580Y-106877952D01*
X73347580Y-107116047D01*
X73395200Y-107258904D01*
X73490438Y-107354142D01*
X73585676Y-107401761D01*
X73776152Y-107449380D01*
X73919009Y-107449380D01*
X74109485Y-107401761D01*
X74204723Y-107354142D01*
X74299961Y-107258904D01*
X74347580Y-107116047D01*
X74347580Y-106877952D01*
X74442819Y-107639857D02*
X74442819Y-108401761D01*
X74347580Y-108639857D02*
X73347580Y-108639857D01*
X73347580Y-108877952D01*
X73395200Y-109020809D01*
X73490438Y-109116047D01*
X73585676Y-109163666D01*
X73776152Y-109211285D01*
X73919009Y-109211285D01*
X74109485Y-109163666D01*
X74204723Y-109116047D01*
X74299961Y-109020809D01*
X74347580Y-108877952D01*
X74347580Y-108639857D01*
X73776152Y-109782714D02*
X73728533Y-109687476D01*
X73680914Y-109639857D01*
X73585676Y-109592238D01*
X73538057Y-109592238D01*
X73442819Y-109639857D01*
X73395200Y-109687476D01*
X73347580Y-109782714D01*
X73347580Y-109973190D01*
X73395200Y-110068428D01*
X73442819Y-110116047D01*
X73538057Y-110163666D01*
X73585676Y-110163666D01*
X73680914Y-110116047D01*
X73728533Y-110068428D01*
X73776152Y-109973190D01*
X73776152Y-109782714D01*
X73823771Y-109687476D01*
X73871390Y-109639857D01*
X73966628Y-109592238D01*
X74157104Y-109592238D01*
X74252342Y-109639857D01*
X74299961Y-109687476D01*
X74347580Y-109782714D01*
X74347580Y-109973190D01*
X74299961Y-110068428D01*
X74252342Y-110116047D01*
X74157104Y-110163666D01*
X73966628Y-110163666D01*
X73871390Y-110116047D01*
X73823771Y-110068428D01*
X73776152Y-109973190D01*
X55297580Y-106877952D02*
X54297580Y-106877952D01*
X54297580Y-107116047D01*
X54345200Y-107258904D01*
X54440438Y-107354142D01*
X54535676Y-107401761D01*
X54726152Y-107449380D01*
X54869009Y-107449380D01*
X55059485Y-107401761D01*
X55154723Y-107354142D01*
X55249961Y-107258904D01*
X55297580Y-107116047D01*
X55297580Y-106877952D01*
X55392819Y-107639857D02*
X55392819Y-108401761D01*
X55297580Y-108639857D02*
X54297580Y-108639857D01*
X54297580Y-108877952D01*
X54345200Y-109020809D01*
X54440438Y-109116047D01*
X54535676Y-109163666D01*
X54726152Y-109211285D01*
X54869009Y-109211285D01*
X55059485Y-109163666D01*
X55154723Y-109116047D01*
X55249961Y-109020809D01*
X55297580Y-108877952D01*
X55297580Y-108639857D01*
X55297580Y-109687476D02*
X55297580Y-109877952D01*
X55249961Y-109973190D01*
X55202342Y-110020809D01*
X55059485Y-110116047D01*
X54869009Y-110163666D01*
X54488057Y-110163666D01*
X54392819Y-110116047D01*
X54345200Y-110068428D01*
X54297580Y-109973190D01*
X54297580Y-109782714D01*
X54345200Y-109687476D01*
X54392819Y-109639857D01*
X54488057Y-109592238D01*
X54726152Y-109592238D01*
X54821390Y-109639857D01*
X54869009Y-109687476D01*
X54916628Y-109782714D01*
X54916628Y-109973190D01*
X54869009Y-110068428D01*
X54821390Y-110116047D01*
X54726152Y-110163666D01*
X36196780Y-106401761D02*
X35196780Y-106401761D01*
X35196780Y-106639857D01*
X35244400Y-106782714D01*
X35339638Y-106877952D01*
X35434876Y-106925571D01*
X35625352Y-106973190D01*
X35768209Y-106973190D01*
X35958685Y-106925571D01*
X36053923Y-106877952D01*
X36149161Y-106782714D01*
X36196780Y-106639857D01*
X36196780Y-106401761D01*
X36292019Y-107163666D02*
X36292019Y-107925571D01*
X36196780Y-108163666D02*
X35196780Y-108163666D01*
X35196780Y-108401761D01*
X35244400Y-108544619D01*
X35339638Y-108639857D01*
X35434876Y-108687476D01*
X35625352Y-108735095D01*
X35768209Y-108735095D01*
X35958685Y-108687476D01*
X36053923Y-108639857D01*
X36149161Y-108544619D01*
X36196780Y-108401761D01*
X36196780Y-108163666D01*
X36196780Y-109687476D02*
X36196780Y-109116047D01*
X36196780Y-109401761D02*
X35196780Y-109401761D01*
X35339638Y-109306523D01*
X35434876Y-109211285D01*
X35482495Y-109116047D01*
X35196780Y-110306523D02*
X35196780Y-110401761D01*
X35244400Y-110497000D01*
X35292019Y-110544619D01*
X35387257Y-110592238D01*
X35577733Y-110639857D01*
X35815828Y-110639857D01*
X36006304Y-110592238D01*
X36101542Y-110544619D01*
X36149161Y-110497000D01*
X36196780Y-110401761D01*
X36196780Y-110306523D01*
X36149161Y-110211285D01*
X36101542Y-110163666D01*
X36006304Y-110116047D01*
X35815828Y-110068428D01*
X35577733Y-110068428D01*
X35387257Y-110116047D01*
X35292019Y-110163666D01*
X35244400Y-110211285D01*
X35196780Y-110306523D01*
X17197580Y-106401761D02*
X16197580Y-106401761D01*
X16197580Y-106639857D01*
X16245200Y-106782714D01*
X16340438Y-106877952D01*
X16435676Y-106925571D01*
X16626152Y-106973190D01*
X16769009Y-106973190D01*
X16959485Y-106925571D01*
X17054723Y-106877952D01*
X17149961Y-106782714D01*
X17197580Y-106639857D01*
X17197580Y-106401761D01*
X17292819Y-107163666D02*
X17292819Y-107925571D01*
X17197580Y-108163666D02*
X16197580Y-108163666D01*
X16197580Y-108401761D01*
X16245200Y-108544619D01*
X16340438Y-108639857D01*
X16435676Y-108687476D01*
X16626152Y-108735095D01*
X16769009Y-108735095D01*
X16959485Y-108687476D01*
X17054723Y-108639857D01*
X17149961Y-108544619D01*
X17197580Y-108401761D01*
X17197580Y-108163666D01*
X17197580Y-109687476D02*
X17197580Y-109116047D01*
X17197580Y-109401761D02*
X16197580Y-109401761D01*
X16340438Y-109306523D01*
X16435676Y-109211285D01*
X16483295Y-109116047D01*
X17197580Y-110639857D02*
X17197580Y-110068428D01*
X17197580Y-110354142D02*
X16197580Y-110354142D01*
X16340438Y-110258904D01*
X16435676Y-110163666D01*
X16483295Y-110068428D01*
X221997780Y-125975571D02*
X220997780Y-125975571D01*
X220997780Y-126213666D01*
X221045400Y-126356523D01*
X221140638Y-126451761D01*
X221235876Y-126499380D01*
X221426352Y-126547000D01*
X221569209Y-126547000D01*
X221759685Y-126499380D01*
X221854923Y-126451761D01*
X221950161Y-126356523D01*
X221997780Y-126213666D01*
X221997780Y-125975571D01*
X222093019Y-126737476D02*
X222093019Y-127499380D01*
X221473971Y-127737476D02*
X221473971Y-128070809D01*
X221997780Y-128213666D02*
X221997780Y-127737476D01*
X220997780Y-127737476D01*
X220997780Y-128213666D01*
X221093019Y-128594619D02*
X221045400Y-128642238D01*
X220997780Y-128737476D01*
X220997780Y-128975571D01*
X221045400Y-129070809D01*
X221093019Y-129118428D01*
X221188257Y-129166047D01*
X221283495Y-129166047D01*
X221426352Y-129118428D01*
X221997780Y-128547000D01*
X221997780Y-129166047D01*
X141047980Y-125975571D02*
X140047980Y-125975571D01*
X140047980Y-126213666D01*
X140095600Y-126356523D01*
X140190838Y-126451761D01*
X140286076Y-126499380D01*
X140476552Y-126547000D01*
X140619409Y-126547000D01*
X140809885Y-126499380D01*
X140905123Y-126451761D01*
X141000361Y-126356523D01*
X141047980Y-126213666D01*
X141047980Y-125975571D01*
X141143219Y-126737476D02*
X141143219Y-127499380D01*
X140524171Y-127737476D02*
X140524171Y-128070809D01*
X141047980Y-128213666D02*
X141047980Y-127737476D01*
X140047980Y-127737476D01*
X140047980Y-128213666D01*
X140381314Y-129070809D02*
X141047980Y-129070809D01*
X140000361Y-128832714D02*
X140714647Y-128594619D01*
X140714647Y-129213666D01*
X121997980Y-125975571D02*
X120997980Y-125975571D01*
X120997980Y-126213666D01*
X121045600Y-126356523D01*
X121140838Y-126451761D01*
X121236076Y-126499380D01*
X121426552Y-126547000D01*
X121569409Y-126547000D01*
X121759885Y-126499380D01*
X121855123Y-126451761D01*
X121950361Y-126356523D01*
X121997980Y-126213666D01*
X121997980Y-125975571D01*
X122093219Y-126737476D02*
X122093219Y-127499380D01*
X121474171Y-127737476D02*
X121474171Y-128070809D01*
X121997980Y-128213666D02*
X121997980Y-127737476D01*
X120997980Y-127737476D01*
X120997980Y-128213666D01*
X120997980Y-129070809D02*
X120997980Y-128880333D01*
X121045600Y-128785095D01*
X121093219Y-128737476D01*
X121236076Y-128642238D01*
X121426552Y-128594619D01*
X121807504Y-128594619D01*
X121902742Y-128642238D01*
X121950361Y-128689857D01*
X121997980Y-128785095D01*
X121997980Y-128975571D01*
X121950361Y-129070809D01*
X121902742Y-129118428D01*
X121807504Y-129166047D01*
X121569409Y-129166047D01*
X121474171Y-129118428D01*
X121426552Y-129070809D01*
X121378933Y-128975571D01*
X121378933Y-128785095D01*
X121426552Y-128689857D01*
X121474171Y-128642238D01*
X121569409Y-128594619D01*
X102947980Y-125975571D02*
X101947980Y-125975571D01*
X101947980Y-126213666D01*
X101995600Y-126356523D01*
X102090838Y-126451761D01*
X102186076Y-126499380D01*
X102376552Y-126547000D01*
X102519409Y-126547000D01*
X102709885Y-126499380D01*
X102805123Y-126451761D01*
X102900361Y-126356523D01*
X102947980Y-126213666D01*
X102947980Y-125975571D01*
X103043219Y-126737476D02*
X103043219Y-127499380D01*
X102424171Y-127737476D02*
X102424171Y-128070809D01*
X102947980Y-128213666D02*
X102947980Y-127737476D01*
X101947980Y-127737476D01*
X101947980Y-128213666D01*
X101947980Y-128547000D02*
X101947980Y-129213666D01*
X102947980Y-128785095D01*
X83847180Y-125975571D02*
X82847180Y-125975571D01*
X82847180Y-126213666D01*
X82894800Y-126356523D01*
X82990038Y-126451761D01*
X83085276Y-126499380D01*
X83275752Y-126547000D01*
X83418609Y-126547000D01*
X83609085Y-126499380D01*
X83704323Y-126451761D01*
X83799561Y-126356523D01*
X83847180Y-126213666D01*
X83847180Y-125975571D01*
X83942419Y-126737476D02*
X83942419Y-127499380D01*
X83323371Y-127737476D02*
X83323371Y-128070809D01*
X83847180Y-128213666D02*
X83847180Y-127737476D01*
X82847180Y-127737476D01*
X82847180Y-128213666D01*
X83275752Y-128785095D02*
X83228133Y-128689857D01*
X83180514Y-128642238D01*
X83085276Y-128594619D01*
X83037657Y-128594619D01*
X82942419Y-128642238D01*
X82894800Y-128689857D01*
X82847180Y-128785095D01*
X82847180Y-128975571D01*
X82894800Y-129070809D01*
X82942419Y-129118428D01*
X83037657Y-129166047D01*
X83085276Y-129166047D01*
X83180514Y-129118428D01*
X83228133Y-129070809D01*
X83275752Y-128975571D01*
X83275752Y-128785095D01*
X83323371Y-128689857D01*
X83370990Y-128642238D01*
X83466228Y-128594619D01*
X83656704Y-128594619D01*
X83751942Y-128642238D01*
X83799561Y-128689857D01*
X83847180Y-128785095D01*
X83847180Y-128975571D01*
X83799561Y-129070809D01*
X83751942Y-129118428D01*
X83656704Y-129166047D01*
X83466228Y-129166047D01*
X83370990Y-129118428D01*
X83323371Y-129070809D01*
X83275752Y-128975571D01*
X64847980Y-125975571D02*
X63847980Y-125975571D01*
X63847980Y-126213666D01*
X63895600Y-126356523D01*
X63990838Y-126451761D01*
X64086076Y-126499380D01*
X64276552Y-126547000D01*
X64419409Y-126547000D01*
X64609885Y-126499380D01*
X64705123Y-126451761D01*
X64800361Y-126356523D01*
X64847980Y-126213666D01*
X64847980Y-125975571D01*
X64943219Y-126737476D02*
X64943219Y-127499380D01*
X64324171Y-127737476D02*
X64324171Y-128070809D01*
X64847980Y-128213666D02*
X64847980Y-127737476D01*
X63847980Y-127737476D01*
X63847980Y-128213666D01*
X64847980Y-128689857D02*
X64847980Y-128880333D01*
X64800361Y-128975571D01*
X64752742Y-129023190D01*
X64609885Y-129118428D01*
X64419409Y-129166047D01*
X64038457Y-129166047D01*
X63943219Y-129118428D01*
X63895600Y-129070809D01*
X63847980Y-128975571D01*
X63847980Y-128785095D01*
X63895600Y-128689857D01*
X63943219Y-128642238D01*
X64038457Y-128594619D01*
X64276552Y-128594619D01*
X64371790Y-128642238D01*
X64419409Y-128689857D01*
X64467028Y-128785095D01*
X64467028Y-128975571D01*
X64419409Y-129070809D01*
X64371790Y-129118428D01*
X64276552Y-129166047D01*
X45797980Y-125499380D02*
X44797980Y-125499380D01*
X44797980Y-125737476D01*
X44845600Y-125880333D01*
X44940838Y-125975571D01*
X45036076Y-126023190D01*
X45226552Y-126070809D01*
X45369409Y-126070809D01*
X45559885Y-126023190D01*
X45655123Y-125975571D01*
X45750361Y-125880333D01*
X45797980Y-125737476D01*
X45797980Y-125499380D01*
X45893219Y-126261285D02*
X45893219Y-127023190D01*
X45274171Y-127261285D02*
X45274171Y-127594619D01*
X45797980Y-127737476D02*
X45797980Y-127261285D01*
X44797980Y-127261285D01*
X44797980Y-127737476D01*
X45797980Y-128689857D02*
X45797980Y-128118428D01*
X45797980Y-128404142D02*
X44797980Y-128404142D01*
X44940838Y-128308904D01*
X45036076Y-128213666D01*
X45083695Y-128118428D01*
X44797980Y-129308904D02*
X44797980Y-129404142D01*
X44845600Y-129499380D01*
X44893219Y-129547000D01*
X44988457Y-129594619D01*
X45178933Y-129642238D01*
X45417028Y-129642238D01*
X45607504Y-129594619D01*
X45702742Y-129547000D01*
X45750361Y-129499380D01*
X45797980Y-129404142D01*
X45797980Y-129308904D01*
X45750361Y-129213666D01*
X45702742Y-129166047D01*
X45607504Y-129118428D01*
X45417028Y-129070809D01*
X45178933Y-129070809D01*
X44988457Y-129118428D01*
X44893219Y-129166047D01*
X44845600Y-129213666D01*
X44797980Y-129308904D01*
X26697180Y-125499380D02*
X25697180Y-125499380D01*
X25697180Y-125737476D01*
X25744800Y-125880333D01*
X25840038Y-125975571D01*
X25935276Y-126023190D01*
X26125752Y-126070809D01*
X26268609Y-126070809D01*
X26459085Y-126023190D01*
X26554323Y-125975571D01*
X26649561Y-125880333D01*
X26697180Y-125737476D01*
X26697180Y-125499380D01*
X26792419Y-126261285D02*
X26792419Y-127023190D01*
X26173371Y-127261285D02*
X26173371Y-127594619D01*
X26697180Y-127737476D02*
X26697180Y-127261285D01*
X25697180Y-127261285D01*
X25697180Y-127737476D01*
X26697180Y-128689857D02*
X26697180Y-128118428D01*
X26697180Y-128404142D02*
X25697180Y-128404142D01*
X25840038Y-128308904D01*
X25935276Y-128213666D01*
X25982895Y-128118428D01*
X26697180Y-129642238D02*
X26697180Y-129070809D01*
X26697180Y-129356523D02*
X25697180Y-129356523D01*
X25840038Y-129261285D01*
X25935276Y-129166047D01*
X25982895Y-129070809D01*
X241047780Y-145049380D02*
X240047780Y-145049380D01*
X240047780Y-145287476D01*
X240095400Y-145430333D01*
X240190638Y-145525571D01*
X240285876Y-145573190D01*
X240476352Y-145620809D01*
X240619209Y-145620809D01*
X240809685Y-145573190D01*
X240904923Y-145525571D01*
X241000161Y-145430333D01*
X241047780Y-145287476D01*
X241047780Y-145049380D01*
X241143019Y-145811285D02*
X241143019Y-146573190D01*
X240523971Y-147144619D02*
X240523971Y-146811285D01*
X241047780Y-146811285D02*
X240047780Y-146811285D01*
X240047780Y-147287476D01*
X241047780Y-148192238D02*
X241047780Y-147620809D01*
X241047780Y-147906523D02*
X240047780Y-147906523D01*
X240190638Y-147811285D01*
X240285876Y-147716047D01*
X240333495Y-147620809D01*
X221997780Y-145049380D02*
X220997780Y-145049380D01*
X220997780Y-145287476D01*
X221045400Y-145430333D01*
X221140638Y-145525571D01*
X221235876Y-145573190D01*
X221426352Y-145620809D01*
X221569209Y-145620809D01*
X221759685Y-145573190D01*
X221854923Y-145525571D01*
X221950161Y-145430333D01*
X221997780Y-145287476D01*
X221997780Y-145049380D01*
X222093019Y-145811285D02*
X222093019Y-146573190D01*
X221473971Y-147144619D02*
X221473971Y-146811285D01*
X221997780Y-146811285D02*
X220997780Y-146811285D01*
X220997780Y-147287476D01*
X221093019Y-147620809D02*
X221045400Y-147668428D01*
X220997780Y-147763666D01*
X220997780Y-148001761D01*
X221045400Y-148097000D01*
X221093019Y-148144619D01*
X221188257Y-148192238D01*
X221283495Y-148192238D01*
X221426352Y-148144619D01*
X221997780Y-147573190D01*
X221997780Y-148192238D01*
X202928780Y-145049380D02*
X201928780Y-145049380D01*
X201928780Y-145287476D01*
X201976400Y-145430333D01*
X202071638Y-145525571D01*
X202166876Y-145573190D01*
X202357352Y-145620809D01*
X202500209Y-145620809D01*
X202690685Y-145573190D01*
X202785923Y-145525571D01*
X202881161Y-145430333D01*
X202928780Y-145287476D01*
X202928780Y-145049380D01*
X203024019Y-145811285D02*
X203024019Y-146573190D01*
X202404971Y-147144619D02*
X202404971Y-146811285D01*
X202928780Y-146811285D02*
X201928780Y-146811285D01*
X201928780Y-147287476D01*
X201928780Y-147573190D02*
X201928780Y-148192238D01*
X202309733Y-147858904D01*
X202309733Y-148001761D01*
X202357352Y-148097000D01*
X202404971Y-148144619D01*
X202500209Y-148192238D01*
X202738304Y-148192238D01*
X202833542Y-148144619D01*
X202881161Y-148097000D01*
X202928780Y-148001761D01*
X202928780Y-147716047D01*
X202881161Y-147620809D01*
X202833542Y-147573190D01*
X169495980Y-145049380D02*
X168495980Y-145049380D01*
X168495980Y-145287476D01*
X168543600Y-145430333D01*
X168638838Y-145525571D01*
X168734076Y-145573190D01*
X168924552Y-145620809D01*
X169067409Y-145620809D01*
X169257885Y-145573190D01*
X169353123Y-145525571D01*
X169448361Y-145430333D01*
X169495980Y-145287476D01*
X169495980Y-145049380D01*
X169591219Y-145811285D02*
X169591219Y-146573190D01*
X168972171Y-147144619D02*
X168972171Y-146811285D01*
X169495980Y-146811285D02*
X168495980Y-146811285D01*
X168495980Y-147287476D01*
X168829314Y-148097000D02*
X169495980Y-148097000D01*
X168448361Y-147858904D02*
X169162647Y-147620809D01*
X169162647Y-148239857D01*
X145772380Y-145049380D02*
X144772380Y-145049380D01*
X144772380Y-145287476D01*
X144820000Y-145430333D01*
X144915238Y-145525571D01*
X145010476Y-145573190D01*
X145200952Y-145620809D01*
X145343809Y-145620809D01*
X145534285Y-145573190D01*
X145629523Y-145525571D01*
X145724761Y-145430333D01*
X145772380Y-145287476D01*
X145772380Y-145049380D01*
X145867619Y-145811285D02*
X145867619Y-146573190D01*
X145248571Y-147144619D02*
X145248571Y-146811285D01*
X145772380Y-146811285D02*
X144772380Y-146811285D01*
X144772380Y-147287476D01*
X144772380Y-148144619D02*
X144772380Y-147668428D01*
X145248571Y-147620809D01*
X145200952Y-147668428D01*
X145153333Y-147763666D01*
X145153333Y-148001761D01*
X145200952Y-148097000D01*
X145248571Y-148144619D01*
X145343809Y-148192238D01*
X145581904Y-148192238D01*
X145677142Y-148144619D01*
X145724761Y-148097000D01*
X145772380Y-148001761D01*
X145772380Y-147763666D01*
X145724761Y-147668428D01*
X145677142Y-147620809D01*
X121997980Y-145049380D02*
X120997980Y-145049380D01*
X120997980Y-145287476D01*
X121045600Y-145430333D01*
X121140838Y-145525571D01*
X121236076Y-145573190D01*
X121426552Y-145620809D01*
X121569409Y-145620809D01*
X121759885Y-145573190D01*
X121855123Y-145525571D01*
X121950361Y-145430333D01*
X121997980Y-145287476D01*
X121997980Y-145049380D01*
X122093219Y-145811285D02*
X122093219Y-146573190D01*
X121474171Y-147144619D02*
X121474171Y-146811285D01*
X121997980Y-146811285D02*
X120997980Y-146811285D01*
X120997980Y-147287476D01*
X120997980Y-148097000D02*
X120997980Y-147906523D01*
X121045600Y-147811285D01*
X121093219Y-147763666D01*
X121236076Y-147668428D01*
X121426552Y-147620809D01*
X121807504Y-147620809D01*
X121902742Y-147668428D01*
X121950361Y-147716047D01*
X121997980Y-147811285D01*
X121997980Y-148001761D01*
X121950361Y-148097000D01*
X121902742Y-148144619D01*
X121807504Y-148192238D01*
X121569409Y-148192238D01*
X121474171Y-148144619D01*
X121426552Y-148097000D01*
X121378933Y-148001761D01*
X121378933Y-147811285D01*
X121426552Y-147716047D01*
X121474171Y-147668428D01*
X121569409Y-147620809D01*
X98172780Y-145049380D02*
X97172780Y-145049380D01*
X97172780Y-145287476D01*
X97220400Y-145430333D01*
X97315638Y-145525571D01*
X97410876Y-145573190D01*
X97601352Y-145620809D01*
X97744209Y-145620809D01*
X97934685Y-145573190D01*
X98029923Y-145525571D01*
X98125161Y-145430333D01*
X98172780Y-145287476D01*
X98172780Y-145049380D01*
X98268019Y-145811285D02*
X98268019Y-146573190D01*
X97648971Y-147144619D02*
X97648971Y-146811285D01*
X98172780Y-146811285D02*
X97172780Y-146811285D01*
X97172780Y-147287476D01*
X97172780Y-147573190D02*
X97172780Y-148239857D01*
X98172780Y-147811285D01*
X74347580Y-145049380D02*
X73347580Y-145049380D01*
X73347580Y-145287476D01*
X73395200Y-145430333D01*
X73490438Y-145525571D01*
X73585676Y-145573190D01*
X73776152Y-145620809D01*
X73919009Y-145620809D01*
X74109485Y-145573190D01*
X74204723Y-145525571D01*
X74299961Y-145430333D01*
X74347580Y-145287476D01*
X74347580Y-145049380D01*
X74442819Y-145811285D02*
X74442819Y-146573190D01*
X73823771Y-147144619D02*
X73823771Y-146811285D01*
X74347580Y-146811285D02*
X73347580Y-146811285D01*
X73347580Y-147287476D01*
X73776152Y-147811285D02*
X73728533Y-147716047D01*
X73680914Y-147668428D01*
X73585676Y-147620809D01*
X73538057Y-147620809D01*
X73442819Y-147668428D01*
X73395200Y-147716047D01*
X73347580Y-147811285D01*
X73347580Y-148001761D01*
X73395200Y-148097000D01*
X73442819Y-148144619D01*
X73538057Y-148192238D01*
X73585676Y-148192238D01*
X73680914Y-148144619D01*
X73728533Y-148097000D01*
X73776152Y-148001761D01*
X73776152Y-147811285D01*
X73823771Y-147716047D01*
X73871390Y-147668428D01*
X73966628Y-147620809D01*
X74157104Y-147620809D01*
X74252342Y-147668428D01*
X74299961Y-147716047D01*
X74347580Y-147811285D01*
X74347580Y-148001761D01*
X74299961Y-148097000D01*
X74252342Y-148144619D01*
X74157104Y-148192238D01*
X73966628Y-148192238D01*
X73871390Y-148144619D01*
X73823771Y-148097000D01*
X73776152Y-148001761D01*
X31523180Y-145049380D02*
X30523180Y-145049380D01*
X30523180Y-145287476D01*
X30570800Y-145430333D01*
X30666038Y-145525571D01*
X30761276Y-145573190D01*
X30951752Y-145620809D01*
X31094609Y-145620809D01*
X31285085Y-145573190D01*
X31380323Y-145525571D01*
X31475561Y-145430333D01*
X31523180Y-145287476D01*
X31523180Y-145049380D01*
X31618419Y-145811285D02*
X31618419Y-146573190D01*
X30999371Y-147144619D02*
X30999371Y-146811285D01*
X31523180Y-146811285D02*
X30523180Y-146811285D01*
X30523180Y-147287476D01*
X31523180Y-147716047D02*
X31523180Y-147906523D01*
X31475561Y-148001761D01*
X31427942Y-148049380D01*
X31285085Y-148144619D01*
X31094609Y-148192238D01*
X30713657Y-148192238D01*
X30618419Y-148144619D01*
X30570800Y-148097000D01*
X30523180Y-148001761D01*
X30523180Y-147811285D01*
X30570800Y-147716047D01*
X30618419Y-147668428D01*
X30713657Y-147620809D01*
X30951752Y-147620809D01*
X31046990Y-147668428D01*
X31094609Y-147716047D01*
X31142228Y-147811285D01*
X31142228Y-148001761D01*
X31094609Y-148097000D01*
X31046990Y-148144619D01*
X30951752Y-148192238D01*
M02*
