G04 #@! TF.GenerationSoftware,KiCad,Pcbnew,(5.1.4)-1*
G04 #@! TF.CreationDate,2019-10-25T22:11:27-04:00*
G04 #@! TF.ProjectId,Split Keyboard - Right,53706c69-7420-44b6-9579-626f61726420,rev?*
G04 #@! TF.SameCoordinates,Original*
G04 #@! TF.FileFunction,Copper,L1,Top*
G04 #@! TF.FilePolarity,Positive*
%FSLAX46Y46*%
G04 Gerber Fmt 4.6, Leading zero omitted, Abs format (unit mm)*
G04 Created by KiCad (PCBNEW (5.1.4)-1) date 2019-10-25 22:11:27*
%MOMM*%
%LPD*%
G04 APERTURE LIST*
%ADD10C,2.200000*%
%ADD11C,2.100000*%
%ADD12C,1.750000*%
%ADD13R,1.752600X1.752600*%
%ADD14C,1.752600*%
%ADD15C,1.524000*%
%ADD16R,1.524000X1.524000*%
%ADD17O,1.600000X2.000000*%
%ADD18C,0.800000*%
%ADD19C,0.250000*%
G04 APERTURE END LIST*
D10*
X185585100Y-137795000D03*
X179235100Y-140335000D03*
X254635000Y-33020000D03*
X248285000Y-35560000D03*
X229235000Y-35560000D03*
X235585000Y-33020000D03*
X210185000Y-35560000D03*
X216535000Y-33020000D03*
X187960000Y-33020000D03*
X181610000Y-35560000D03*
X168910000Y-33020000D03*
X162560000Y-35560000D03*
X143510000Y-35560000D03*
X149860000Y-33020000D03*
X130810000Y-33020000D03*
X124460000Y-35560000D03*
X102235000Y-33020000D03*
X95885000Y-35560000D03*
X76835000Y-35560000D03*
X83185000Y-33020000D03*
X64135000Y-33020000D03*
X57785000Y-35560000D03*
X45085000Y-33020000D03*
X38735000Y-35560000D03*
X248285000Y-64135000D03*
X254635000Y-61595000D03*
X235585000Y-61595000D03*
X229235000Y-64135000D03*
X216535000Y-61595000D03*
X210185000Y-64135000D03*
X178435000Y-61595000D03*
X172085000Y-64135000D03*
X149860000Y-61595000D03*
X143510000Y-64135000D03*
X124460000Y-64135000D03*
X130810000Y-61595000D03*
X111760000Y-61595000D03*
X105410000Y-64135000D03*
X86360000Y-64135000D03*
X92710000Y-61595000D03*
X67310000Y-64135000D03*
X73660000Y-61595000D03*
X54610000Y-61595000D03*
X48260000Y-64135000D03*
X29210000Y-64135000D03*
X35560000Y-61595000D03*
X248285000Y-83185000D03*
X254635000Y-80645000D03*
X235585000Y-80645000D03*
X229235000Y-83185000D03*
X216535000Y-80645000D03*
X210185000Y-83185000D03*
X183197500Y-80645000D03*
X176847500Y-83185000D03*
X153035000Y-83185000D03*
X159385000Y-80645000D03*
X140335000Y-80645000D03*
X133985000Y-83185000D03*
X114935000Y-83185000D03*
X121285000Y-80645000D03*
X102235000Y-80645000D03*
X95885000Y-83185000D03*
X76835000Y-83185000D03*
X83185000Y-80645000D03*
X64135000Y-80645000D03*
X57785000Y-83185000D03*
X45085000Y-80645000D03*
X38735000Y-83185000D03*
X19685000Y-83185000D03*
X26035000Y-80645000D03*
X176060000Y-99695000D03*
X169710000Y-102235000D03*
X138734800Y-102235000D03*
X145084800Y-99695000D03*
X126047500Y-99695000D03*
X119697500Y-102235000D03*
X100647500Y-102235000D03*
X106997500Y-99695000D03*
X81597500Y-102235000D03*
X87947500Y-99695000D03*
X62547500Y-102235000D03*
X68897500Y-99695000D03*
X43497500Y-102235000D03*
X49847500Y-99695000D03*
X30797500Y-99695000D03*
X24447500Y-102235000D03*
X235585000Y-118745000D03*
X229235000Y-121285000D03*
X164947600Y-121285000D03*
X171297600Y-118745000D03*
X135585200Y-118745000D03*
X129235200Y-121285000D03*
X110172500Y-121285000D03*
X116522500Y-118745000D03*
X97472500Y-118745000D03*
X91122500Y-121285000D03*
X72072500Y-121285000D03*
X78422500Y-118745000D03*
X53022500Y-121285000D03*
X59372500Y-118745000D03*
X40322500Y-118745000D03*
X33972500Y-121285000D03*
X248285000Y-140335000D03*
X254635000Y-137795000D03*
X235585000Y-137795000D03*
X229235000Y-140335000D03*
X210185000Y-140335000D03*
X216535000Y-137795000D03*
X155448000Y-140335000D03*
X161798000Y-137795000D03*
X131635500Y-140335000D03*
X137985500Y-137795000D03*
X114173000Y-137795000D03*
X107823000Y-140335000D03*
X90360500Y-137795000D03*
X84010500Y-140335000D03*
X52260500Y-137795000D03*
X45910500Y-140335000D03*
D11*
X196424000Y-33732000D03*
D12*
X197684000Y-31242000D03*
X202184000Y-31242000D03*
D11*
X203434000Y-33732000D03*
D13*
X259651500Y-29972000D03*
D14*
X259651500Y-32512000D03*
X259651500Y-35052000D03*
X259651500Y-37592000D03*
X259651500Y-40132000D03*
X259651500Y-42672000D03*
X259651500Y-45212000D03*
X259651500Y-47752000D03*
X259651500Y-50292000D03*
X259651500Y-52832000D03*
X259651500Y-55372000D03*
X244411500Y-57912000D03*
X244411500Y-55372000D03*
X244411500Y-52832000D03*
X244411500Y-50292000D03*
X244411500Y-47752000D03*
X244411500Y-45212000D03*
X244411500Y-42672000D03*
X244411500Y-40132000D03*
X244411500Y-37592000D03*
X244411500Y-35052000D03*
X244411500Y-32512000D03*
X259422900Y-57912000D03*
X244411500Y-29972000D03*
X246951500Y-57912000D03*
X249491500Y-57912000D03*
X252031500Y-57912000D03*
X254571500Y-57912000D03*
X257111500Y-57912000D03*
D15*
X247904000Y-46482000D03*
D16*
X255524000Y-46482000D03*
D15*
X223520000Y-38012000D03*
D16*
X223520000Y-45632000D03*
D15*
X204597000Y-38012000D03*
D16*
X204597000Y-45632000D03*
D15*
X176022000Y-38012000D03*
D16*
X176022000Y-45632000D03*
D15*
X156972000Y-38012000D03*
D16*
X156972000Y-45632000D03*
X137922000Y-45632000D03*
D15*
X137922000Y-38012000D03*
D16*
X118745000Y-45632000D03*
D15*
X118745000Y-38012000D03*
D16*
X90170000Y-45632000D03*
D15*
X90170000Y-38012000D03*
D16*
X71247000Y-45632000D03*
D15*
X71247000Y-38012000D03*
D16*
X52070000Y-45632000D03*
D15*
X52070000Y-38012000D03*
D16*
X33083500Y-45632000D03*
D15*
X33083500Y-38012000D03*
X242633500Y-66587000D03*
D16*
X242633500Y-74207000D03*
D15*
X223583500Y-66587000D03*
D16*
X223583500Y-74207000D03*
D15*
X204470000Y-66587000D03*
D16*
X204470000Y-74207000D03*
D15*
X157035500Y-66587000D03*
D16*
X157035500Y-74207000D03*
D15*
X137858500Y-66587000D03*
D16*
X137858500Y-74207000D03*
X118745000Y-74207000D03*
D15*
X118745000Y-66587000D03*
D16*
X99758500Y-74207000D03*
D15*
X99758500Y-66587000D03*
D16*
X80772000Y-74207000D03*
D15*
X80772000Y-66587000D03*
D16*
X61595000Y-74207000D03*
D15*
X61595000Y-66587000D03*
D16*
X42545000Y-74207000D03*
D15*
X42545000Y-66587000D03*
D16*
X23431500Y-74207000D03*
D15*
X23431500Y-66587000D03*
X242633500Y-85637000D03*
D16*
X242633500Y-93257000D03*
D15*
X223456500Y-85637000D03*
D16*
X223456500Y-93257000D03*
D15*
X204533500Y-85637000D03*
D16*
X204533500Y-93257000D03*
D15*
X166497000Y-85637000D03*
D16*
X166497000Y-93257000D03*
D15*
X147320000Y-85637000D03*
D16*
X147320000Y-93257000D03*
D15*
X128206500Y-85637000D03*
D16*
X128206500Y-93257000D03*
X109283500Y-93257000D03*
D15*
X109283500Y-85637000D03*
D16*
X90170000Y-93257000D03*
D15*
X90170000Y-85637000D03*
D16*
X71120000Y-93257000D03*
D15*
X71120000Y-85637000D03*
D16*
X52070000Y-93257000D03*
D15*
X52070000Y-85637000D03*
D16*
X33121600Y-93257000D03*
D15*
X33121600Y-85637000D03*
X13919200Y-85637000D03*
D16*
X13919200Y-93257000D03*
D15*
X152196800Y-104687000D03*
D16*
X152196800Y-112307000D03*
D15*
X133146800Y-104687000D03*
D16*
X133146800Y-112307000D03*
D15*
X113995200Y-104687000D03*
D16*
X113995200Y-112307000D03*
X94996000Y-112307000D03*
D15*
X94996000Y-104687000D03*
D16*
X75895200Y-112307000D03*
D15*
X75895200Y-104687000D03*
D16*
X56845200Y-112307000D03*
D15*
X56845200Y-104687000D03*
D16*
X37744400Y-112307000D03*
D15*
X37744400Y-104687000D03*
D16*
X18745200Y-112307000D03*
D15*
X18745200Y-104687000D03*
X223545400Y-123737000D03*
D16*
X223545400Y-131357000D03*
D15*
X142595600Y-123737000D03*
D16*
X142595600Y-131357000D03*
D15*
X123545600Y-123737000D03*
D16*
X123545600Y-131357000D03*
X104495600Y-131357000D03*
D15*
X104495600Y-123737000D03*
D16*
X85394800Y-131357000D03*
D15*
X85394800Y-123737000D03*
D16*
X66395600Y-131357000D03*
D15*
X66395600Y-123737000D03*
D16*
X47345600Y-131357000D03*
D15*
X47345600Y-123737000D03*
D16*
X28244800Y-131357000D03*
D15*
X28244800Y-123737000D03*
X242595400Y-142787000D03*
D16*
X242595400Y-150407000D03*
D15*
X223545400Y-142787000D03*
D16*
X223545400Y-150407000D03*
D15*
X204476400Y-142787000D03*
D16*
X204476400Y-150407000D03*
D15*
X171043600Y-142787000D03*
D16*
X171043600Y-150407000D03*
D15*
X147320000Y-142787000D03*
D16*
X147320000Y-150407000D03*
D15*
X123545600Y-142787000D03*
D16*
X123545600Y-150407000D03*
X99720400Y-150407000D03*
D15*
X99720400Y-142787000D03*
D16*
X75895200Y-150407000D03*
D15*
X75895200Y-142787000D03*
D16*
X33070800Y-150407000D03*
D15*
X33070800Y-142787000D03*
D17*
X115838000Y-41875000D03*
X111238000Y-40775000D03*
X111238000Y-33775000D03*
X111238000Y-36775000D03*
D18*
X190528002Y-74207000D03*
X190348500Y-93257000D03*
X183427000Y-131357000D03*
X206272500Y-131357000D03*
X205232000Y-49466500D03*
X203708000Y-49403000D03*
X191389000Y-49403000D03*
X158451999Y-49358999D03*
X191389000Y-50419000D03*
X203708000Y-50419000D03*
X141986000Y-50419000D03*
X191389000Y-51435000D03*
X203708000Y-51435000D03*
X121920000Y-51435000D03*
X191389000Y-52451000D03*
X203708000Y-52451000D03*
X102235000Y-52070000D03*
X191389000Y-53467000D03*
X203708000Y-53467000D03*
X83185000Y-52070000D03*
X191389000Y-54483000D03*
X203708000Y-54483000D03*
X64135000Y-52070000D03*
X203708000Y-55499000D03*
X191389000Y-55499000D03*
X45085000Y-52070000D03*
X237871000Y-55753000D03*
X252666500Y-63436500D03*
X191389000Y-56515000D03*
X203708000Y-56515000D03*
D19*
X248285000Y-37115634D02*
X248285000Y-35560000D01*
X248285000Y-38569002D02*
X248285000Y-37115634D01*
X247904000Y-38950002D02*
X248285000Y-38569002D01*
X247904000Y-46482000D02*
X247904000Y-38950002D01*
X33083500Y-45632000D02*
X52070000Y-45632000D01*
X52070000Y-45632000D02*
X71247000Y-45632000D01*
X71247000Y-45632000D02*
X90170000Y-45632000D01*
X90170000Y-45632000D02*
X118745000Y-45632000D01*
X118745000Y-45632000D02*
X137922000Y-45632000D01*
X137922000Y-45632000D02*
X156972000Y-45632000D01*
X156972000Y-45632000D02*
X176022000Y-45632000D01*
X242076500Y-45212000D02*
X244411500Y-45212000D01*
X176022000Y-45632000D02*
X241656500Y-45632000D01*
X241656500Y-45632000D02*
X242076500Y-45212000D01*
X226607000Y-35560000D02*
X229870000Y-35560000D01*
X224155000Y-38012000D02*
X226607000Y-35560000D01*
X207684000Y-35560000D02*
X210820000Y-35560000D01*
X205232000Y-38012000D02*
X207684000Y-35560000D01*
X178474000Y-35560000D02*
X181610000Y-35560000D01*
X176022000Y-38012000D02*
X178474000Y-35560000D01*
X159424000Y-35560000D02*
X162560000Y-35560000D01*
X156972000Y-38012000D02*
X159424000Y-35560000D01*
X140374000Y-35560000D02*
X143510000Y-35560000D01*
X137922000Y-38012000D02*
X140374000Y-35560000D01*
X121197000Y-35560000D02*
X124460000Y-35560000D01*
X118745000Y-38012000D02*
X121197000Y-35560000D01*
X92622000Y-35560000D02*
X95885000Y-35560000D01*
X90170000Y-38012000D02*
X92622000Y-35560000D01*
X75279366Y-35560000D02*
X76835000Y-35560000D01*
X72621370Y-35560000D02*
X75279366Y-35560000D01*
X71247000Y-36934370D02*
X72621370Y-35560000D01*
X71247000Y-38012000D02*
X71247000Y-36934370D01*
X54522000Y-35560000D02*
X57785000Y-35560000D01*
X52070000Y-38012000D02*
X54522000Y-35560000D01*
X35535500Y-35560000D02*
X38735000Y-35560000D01*
X33083500Y-38012000D02*
X35535500Y-35560000D01*
X245085500Y-64135000D02*
X248285000Y-64135000D01*
X242633500Y-66587000D02*
X245085500Y-64135000D01*
X23431500Y-74207000D02*
X42545000Y-74207000D01*
X42545000Y-74207000D02*
X61595000Y-74207000D01*
X61595000Y-74207000D02*
X80772000Y-74207000D01*
X80772000Y-74207000D02*
X99758500Y-74207000D01*
X99758500Y-74207000D02*
X118745000Y-74207000D01*
X118745000Y-74207000D02*
X137858500Y-74207000D01*
X137858500Y-74207000D02*
X157035500Y-74207000D01*
X157035500Y-74207000D02*
X161261998Y-74207000D01*
X162878999Y-72589999D02*
X188911001Y-72589999D01*
X161261998Y-74207000D02*
X162878999Y-72589999D01*
X188911001Y-72589999D02*
X190528002Y-74207000D01*
X190528002Y-74207000D02*
X190528002Y-74207000D01*
X190528002Y-73641315D02*
X190528002Y-74207000D01*
X192468500Y-71700817D02*
X190528002Y-73641315D01*
X192468500Y-56769000D02*
X192468500Y-71700817D01*
X202361799Y-46875701D02*
X192468500Y-56769000D01*
X241621500Y-74207000D02*
X223583500Y-74207000D01*
X242633500Y-74207000D02*
X241621500Y-74207000D01*
X223583500Y-74207000D02*
X204470000Y-74207000D01*
X243535201Y-46875701D02*
X202361799Y-46875701D01*
X244411500Y-47752000D02*
X243535201Y-46875701D01*
X226035500Y-64135000D02*
X229235000Y-64135000D01*
X223583500Y-66587000D02*
X226035500Y-64135000D01*
X206922000Y-64135000D02*
X210185000Y-64135000D01*
X204470000Y-66587000D02*
X206922000Y-64135000D01*
X159487500Y-64135000D02*
X172085000Y-64135000D01*
X157035500Y-66587000D02*
X159487500Y-64135000D01*
X140310500Y-64135000D02*
X143510000Y-64135000D01*
X137858500Y-66587000D02*
X140310500Y-64135000D01*
X121197000Y-64135000D02*
X124460000Y-64135000D01*
X118745000Y-66587000D02*
X121197000Y-64135000D01*
X102210500Y-64135000D02*
X105410000Y-64135000D01*
X99758500Y-66587000D02*
X102210500Y-64135000D01*
X83224000Y-64135000D02*
X86360000Y-64135000D01*
X80772000Y-66587000D02*
X83224000Y-64135000D01*
X64047000Y-64135000D02*
X67310000Y-64135000D01*
X61595000Y-66587000D02*
X64047000Y-64135000D01*
X44997000Y-64135000D02*
X48260000Y-64135000D01*
X42545000Y-66587000D02*
X44997000Y-64135000D01*
X25883500Y-64135000D02*
X29210000Y-64135000D01*
X23431500Y-66587000D02*
X25883500Y-64135000D01*
X245085500Y-83185000D02*
X248285000Y-83185000D01*
X242633500Y-85637000D02*
X245085500Y-83185000D01*
X14931200Y-93257000D02*
X33121600Y-93257000D01*
X13919200Y-93257000D02*
X14931200Y-93257000D01*
X34133600Y-93257000D02*
X52070000Y-93257000D01*
X33121600Y-93257000D02*
X34133600Y-93257000D01*
X53082000Y-93257000D02*
X71120000Y-93257000D01*
X52070000Y-93257000D02*
X53082000Y-93257000D01*
X72132000Y-93257000D02*
X90170000Y-93257000D01*
X71120000Y-93257000D02*
X72132000Y-93257000D01*
X91182000Y-93257000D02*
X109283500Y-93257000D01*
X90170000Y-93257000D02*
X91182000Y-93257000D01*
X110295500Y-93257000D02*
X128206500Y-93257000D01*
X109283500Y-93257000D02*
X110295500Y-93257000D01*
X129218500Y-93257000D02*
X147320000Y-93257000D01*
X128206500Y-93257000D02*
X129218500Y-93257000D01*
X148332000Y-93257000D02*
X166497000Y-93257000D01*
X147320000Y-93257000D02*
X148332000Y-93257000D01*
X166497000Y-93257000D02*
X190348500Y-93257000D01*
X190348500Y-93257000D02*
X190348500Y-93257000D01*
X190348500Y-92691315D02*
X190348500Y-93257000D01*
X192918510Y-90121305D02*
X190348500Y-92691315D01*
X192918510Y-56955400D02*
X192918510Y-90121305D01*
X244411500Y-50292000D02*
X244411500Y-49529926D01*
X244411500Y-49529926D02*
X243078000Y-48196426D01*
X243078000Y-48196426D02*
X243078000Y-47877590D01*
X243078000Y-47877590D02*
X242526121Y-47325711D01*
X242526121Y-47325711D02*
X202548199Y-47325711D01*
X202548199Y-47325711D02*
X192918510Y-56955400D01*
X205545500Y-93257000D02*
X223456500Y-93257000D01*
X204533500Y-93257000D02*
X205545500Y-93257000D01*
X223456500Y-93257000D02*
X242633500Y-93257000D01*
X225908500Y-83185000D02*
X229235000Y-83185000D01*
X223456500Y-85637000D02*
X225908500Y-83185000D01*
X206985500Y-83185000D02*
X210185000Y-83185000D01*
X204533500Y-85637000D02*
X206985500Y-83185000D01*
X168949000Y-83185000D02*
X176847500Y-83185000D01*
X166497000Y-85637000D02*
X168949000Y-83185000D01*
X149772000Y-83185000D02*
X153035000Y-83185000D01*
X147320000Y-85637000D02*
X149772000Y-83185000D01*
X130658500Y-83185000D02*
X133985000Y-83185000D01*
X128206500Y-85637000D02*
X130658500Y-83185000D01*
X111735500Y-83185000D02*
X114935000Y-83185000D01*
X109283500Y-85637000D02*
X111735500Y-83185000D01*
X92622000Y-83185000D02*
X95885000Y-83185000D01*
X90170000Y-85637000D02*
X92622000Y-83185000D01*
X73572000Y-83185000D02*
X76835000Y-83185000D01*
X71120000Y-85637000D02*
X73572000Y-83185000D01*
X54522000Y-83185000D02*
X57785000Y-83185000D01*
X52070000Y-85637000D02*
X54522000Y-83185000D01*
X35573600Y-83185000D02*
X38735000Y-83185000D01*
X33121600Y-85637000D02*
X35573600Y-83185000D01*
X16371200Y-83185000D02*
X19685000Y-83185000D01*
X13919200Y-85637000D02*
X16371200Y-83185000D01*
X154648800Y-102235000D02*
X169710000Y-102235000D01*
X152196800Y-104687000D02*
X154648800Y-102235000D01*
X18745200Y-112307000D02*
X37744400Y-112307000D01*
X37744400Y-112307000D02*
X56845200Y-112307000D01*
X57857200Y-112307000D02*
X75895200Y-112307000D01*
X56845200Y-112307000D02*
X57857200Y-112307000D01*
X75895200Y-112307000D02*
X94996000Y-112307000D01*
X96008000Y-112307000D02*
X113995200Y-112307000D01*
X94996000Y-112307000D02*
X96008000Y-112307000D01*
X113995200Y-112307000D02*
X133146800Y-112307000D01*
X134158800Y-112307000D02*
X152196800Y-112307000D01*
X133146800Y-112307000D02*
X134158800Y-112307000D01*
X245046500Y-52832000D02*
X243807225Y-52832000D01*
X160503999Y-110689999D02*
X158886998Y-112307000D01*
X190300001Y-110689999D02*
X160503999Y-110689999D01*
X193368520Y-57141800D02*
X193368520Y-107621480D01*
X202734599Y-47775721D02*
X193368520Y-57141800D01*
X158886998Y-112307000D02*
X152196800Y-112307000D01*
X243210199Y-51630699D02*
X243210199Y-48965035D01*
X193368520Y-107621480D02*
X190300001Y-110689999D01*
X244411500Y-52832000D02*
X243210199Y-51630699D01*
X242570000Y-48324836D02*
X242570000Y-48260000D01*
X243210199Y-48965035D02*
X242570000Y-48324836D01*
X242570000Y-48260000D02*
X242085721Y-47775721D01*
X242085721Y-47775721D02*
X202734599Y-47775721D01*
X135598800Y-102235000D02*
X138734800Y-102235000D01*
X133146800Y-104687000D02*
X135598800Y-102235000D01*
X116447200Y-102235000D02*
X119697500Y-102235000D01*
X113995200Y-104687000D02*
X116447200Y-102235000D01*
X97448000Y-102235000D02*
X100647500Y-102235000D01*
X94996000Y-104687000D02*
X97448000Y-102235000D01*
X78347200Y-102235000D02*
X81597500Y-102235000D01*
X75895200Y-104687000D02*
X78347200Y-102235000D01*
X59297200Y-102235000D02*
X62547500Y-102235000D01*
X56845200Y-104687000D02*
X59297200Y-102235000D01*
X40196400Y-102235000D02*
X43497500Y-102235000D01*
X37744400Y-104687000D02*
X40196400Y-102235000D01*
X21197200Y-102235000D02*
X24447500Y-102235000D01*
X18745200Y-104687000D02*
X21197200Y-102235000D01*
X225997400Y-121285000D02*
X229235000Y-121285000D01*
X223545400Y-123737000D02*
X225997400Y-121285000D01*
X28244800Y-131357000D02*
X47345600Y-131357000D01*
X47345600Y-131357000D02*
X66395600Y-131357000D01*
X66395600Y-131357000D02*
X85394800Y-131357000D01*
X85394800Y-131357000D02*
X104495600Y-131357000D01*
X104495600Y-131357000D02*
X123545600Y-131357000D01*
X123545600Y-131357000D02*
X142595600Y-131357000D01*
X142595600Y-131357000D02*
X143607600Y-131357000D01*
X183427000Y-131357000D02*
X183427000Y-131357000D01*
X142595600Y-131357000D02*
X154124598Y-131357000D01*
X155741599Y-129739999D02*
X154124598Y-131357000D01*
X181809999Y-129739999D02*
X155741599Y-129739999D01*
X183427000Y-131357000D02*
X181809999Y-129739999D01*
X183826999Y-130957001D02*
X183826999Y-130942501D01*
X183826999Y-130942501D02*
X193818530Y-120950970D01*
X193818530Y-57328200D02*
X202920999Y-48225731D01*
X183427000Y-131357000D02*
X183826999Y-130957001D01*
X193818530Y-120950970D02*
X193818530Y-57328200D01*
X202920999Y-48225731D02*
X241200821Y-48225731D01*
X243078000Y-52134910D02*
X242760189Y-51817099D01*
X244411500Y-55372000D02*
X243078000Y-54038500D01*
X243078000Y-54038500D02*
X243078000Y-52134910D01*
X242760189Y-49785099D02*
X241200821Y-48225731D01*
X242760189Y-51817099D02*
X242760189Y-49785099D01*
X223545400Y-131357000D02*
X206272500Y-131357000D01*
X145047600Y-121285000D02*
X164947600Y-121285000D01*
X142595600Y-123737000D02*
X145047600Y-121285000D01*
X125997600Y-121285000D02*
X129235200Y-121285000D01*
X123545600Y-123737000D02*
X125997600Y-121285000D01*
X106947600Y-121285000D02*
X110172500Y-121285000D01*
X104495600Y-123737000D02*
X106947600Y-121285000D01*
X87846800Y-121285000D02*
X91122500Y-121285000D01*
X85394800Y-123737000D02*
X87846800Y-121285000D01*
X68847600Y-121285000D02*
X72072500Y-121285000D01*
X66395600Y-123737000D02*
X68847600Y-121285000D01*
X49797600Y-121285000D02*
X53022500Y-121285000D01*
X47345600Y-123737000D02*
X49797600Y-121285000D01*
X30696800Y-121285000D02*
X33972500Y-121285000D01*
X28244800Y-123737000D02*
X30696800Y-121285000D01*
X245047400Y-140335000D02*
X248285000Y-140335000D01*
X242595400Y-142787000D02*
X245047400Y-140335000D01*
X74883200Y-150407000D02*
X75895200Y-150407000D01*
X73266199Y-148789999D02*
X74883200Y-150407000D01*
X35699801Y-148789999D02*
X73266199Y-148789999D01*
X34082800Y-150407000D02*
X35699801Y-148789999D01*
X33070800Y-150407000D02*
X34082800Y-150407000D01*
X75895200Y-150407000D02*
X99720400Y-150407000D01*
X99720400Y-150407000D02*
X123545600Y-150407000D01*
X123545600Y-150407000D02*
X147320000Y-150407000D01*
X148332000Y-150407000D02*
X171043600Y-150407000D01*
X147320000Y-150407000D02*
X148332000Y-150407000D01*
X171043600Y-150407000D02*
X172055600Y-150407000D01*
X172055600Y-150407000D02*
X193523500Y-150407000D01*
X203464400Y-150407000D02*
X193523500Y-150407000D01*
X204476400Y-150407000D02*
X203464400Y-150407000D01*
X193523500Y-121882410D02*
X193523500Y-150407000D01*
X194268540Y-57514600D02*
X194268540Y-121137370D01*
X242310180Y-55810680D02*
X242310179Y-49971499D01*
X244411500Y-57912000D02*
X242310180Y-55810680D01*
X241014421Y-48675741D02*
X203165259Y-48675741D01*
X194268540Y-121137370D02*
X193523500Y-121882410D01*
X242310179Y-49971499D02*
X241014421Y-48675741D01*
X203165259Y-48675741D02*
X194326400Y-57514600D01*
X194326400Y-57514600D02*
X194268540Y-57514600D01*
X241583400Y-150407000D02*
X223545400Y-150407000D01*
X242595400Y-150407000D02*
X241583400Y-150407000D01*
X223545400Y-150407000D02*
X204476400Y-150407000D01*
X225997400Y-140335000D02*
X229235000Y-140335000D01*
X223545400Y-142787000D02*
X225997400Y-140335000D01*
X206928400Y-140335000D02*
X204476400Y-142787000D01*
X210185000Y-140335000D02*
X206928400Y-140335000D01*
X171043600Y-142787000D02*
X173495600Y-140335000D01*
X173495600Y-140335000D02*
X179235100Y-140335000D01*
X149772000Y-140335000D02*
X155448000Y-140335000D01*
X147320000Y-142787000D02*
X149772000Y-140335000D01*
X125997600Y-140335000D02*
X131635500Y-140335000D01*
X123545600Y-142787000D02*
X125997600Y-140335000D01*
X102172400Y-140335000D02*
X107823000Y-140335000D01*
X99720400Y-142787000D02*
X102172400Y-140335000D01*
X78347200Y-140335000D02*
X84010500Y-140335000D01*
X75895200Y-142787000D02*
X78347200Y-140335000D01*
X35522800Y-140335000D02*
X45910500Y-140335000D01*
X33070800Y-142787000D02*
X35522800Y-140335000D01*
X115838000Y-35292000D02*
X115838000Y-41875000D01*
X197684000Y-31242000D02*
X118618000Y-31242000D01*
X115838000Y-34022000D02*
X115838000Y-35292000D01*
X118618000Y-31242000D02*
X115838000Y-34022000D01*
X200121437Y-30041999D02*
X198921436Y-31242000D01*
X203509992Y-30791990D02*
X202760001Y-30041999D01*
X204220100Y-30791990D02*
X203509992Y-30791990D01*
X243172225Y-32512000D02*
X243170225Y-32510000D01*
X198921436Y-31242000D02*
X197684000Y-31242000D01*
X244411500Y-32512000D02*
X243172225Y-32512000D01*
X243170225Y-32510000D02*
X241046820Y-32510000D01*
X241046820Y-32510000D02*
X239231799Y-30694979D01*
X202760001Y-30041999D02*
X200121437Y-30041999D01*
X239231799Y-30694979D02*
X204317110Y-30694980D01*
X204317110Y-30694980D02*
X204220100Y-30791990D01*
X115387990Y-38398012D02*
X113011002Y-40775000D01*
X239418198Y-30244970D02*
X203599383Y-30244971D01*
X171439502Y-30744498D02*
X171429004Y-30734000D01*
X203599383Y-30244971D02*
X202946401Y-29591989D01*
X113011002Y-40775000D02*
X111238000Y-40775000D01*
X196405500Y-30744498D02*
X171439502Y-30744498D01*
X198260001Y-30041999D02*
X197107999Y-30041999D01*
X202946401Y-29591989D02*
X198710011Y-29591989D01*
X197107999Y-30041999D02*
X196405500Y-30744498D01*
X171429004Y-30734000D02*
X118489590Y-30734000D01*
X198710011Y-29591989D02*
X198260001Y-30041999D01*
X118489590Y-30734000D02*
X115387990Y-33835600D01*
X240346531Y-31173301D02*
X239418198Y-30244970D01*
X115387990Y-33835600D02*
X115387990Y-38398012D01*
X244850727Y-31173301D02*
X240346531Y-31173301D01*
X245612801Y-31935375D02*
X244850727Y-31173301D01*
X245612801Y-35628625D02*
X245612801Y-31935375D01*
X244411500Y-36829926D02*
X245612801Y-35628625D01*
X244411500Y-37592000D02*
X244411500Y-36829926D01*
X114245000Y-36775000D02*
X111238000Y-36775000D01*
X118303190Y-30283990D02*
X114245000Y-34342180D01*
X247336289Y-28770699D02*
X243263301Y-28770699D01*
X258775201Y-41795701D02*
X258495289Y-41795701D01*
X203132801Y-29141979D02*
X198523610Y-29141980D01*
X255016000Y-36450410D02*
X247336289Y-28770699D01*
X255016000Y-38316412D02*
X255016000Y-36450410D01*
X114245000Y-34342180D02*
X114245000Y-36775000D01*
X198073601Y-29591989D02*
X196921599Y-29591989D01*
X258495289Y-41795701D02*
X255016000Y-38316412D01*
X242239039Y-29794961D02*
X203785783Y-29794961D01*
X198523610Y-29141980D02*
X198073601Y-29591989D01*
X259651500Y-42672000D02*
X258775201Y-41795701D01*
X243263301Y-28770699D02*
X242239039Y-29794961D01*
X203785783Y-29794961D02*
X203132801Y-29141979D01*
X196921599Y-29591989D02*
X196219100Y-30294488D01*
X171772488Y-30294488D02*
X171761990Y-30283990D01*
X196219100Y-30294488D02*
X171772488Y-30294488D01*
X171761990Y-30283990D02*
X118303190Y-30283990D01*
X247522689Y-28320689D02*
X243076901Y-28320689D01*
X118116789Y-29833981D02*
X114175770Y-33775000D01*
X197807021Y-29141979D02*
X196727521Y-29141979D01*
X243076901Y-28320689D02*
X242052639Y-29344951D01*
X259651500Y-40132000D02*
X257467998Y-40132000D01*
X257467998Y-40132000D02*
X255524000Y-38188002D01*
X203972183Y-29344951D02*
X203319200Y-28691970D01*
X242052639Y-29344951D02*
X203972183Y-29344951D01*
X171948390Y-29833980D02*
X118116789Y-29833981D01*
X255524000Y-36322000D02*
X247522689Y-28320689D01*
X203319200Y-28691970D02*
X198257030Y-28691970D01*
X198257030Y-28691970D02*
X197807021Y-29141979D01*
X255524000Y-38188002D02*
X255524000Y-36322000D01*
X196727521Y-29141979D02*
X196025022Y-29844478D01*
X114175770Y-33775000D02*
X111238000Y-33775000D01*
X196025022Y-29844478D02*
X171958888Y-29844478D01*
X171958888Y-29844478D02*
X171948390Y-29833980D01*
X259252825Y-60495001D02*
X261259201Y-58488625D01*
X254635000Y-61595000D02*
X255734999Y-60495001D01*
X255734999Y-60495001D02*
X259252825Y-60495001D01*
X261259201Y-56979701D02*
X259651500Y-55372000D01*
X261259201Y-58488625D02*
X261259201Y-56979701D01*
X240284000Y-33020000D02*
X236220000Y-33020000D01*
X242347750Y-35083750D02*
X240284000Y-33020000D01*
X244411500Y-40132000D02*
X242347750Y-38068250D01*
X242347750Y-38068250D02*
X242347750Y-35083750D01*
X244411500Y-42672000D02*
X243172225Y-42672000D01*
X243172225Y-42672000D02*
X241897740Y-41397515D01*
X241897740Y-41397515D02*
X241897740Y-35270150D01*
X241897740Y-35270150D02*
X241298590Y-34671000D01*
X241298590Y-34671000D02*
X231871000Y-34671000D01*
X230220000Y-33020000D02*
X216535000Y-33020000D01*
X231871000Y-34671000D02*
X230220000Y-33020000D01*
X240665000Y-49466500D02*
X205232000Y-49466500D01*
X205232000Y-49466500D02*
X205232000Y-49466500D01*
X246333300Y-57387274D02*
X246333300Y-58338290D01*
X254762000Y-47752000D02*
X245618000Y-56896000D01*
X259651500Y-47752000D02*
X254762000Y-47752000D01*
X243834875Y-59113301D02*
X241860171Y-57138597D01*
X244988125Y-59113301D02*
X243834875Y-59113301D01*
X245618000Y-56896000D02*
X245618000Y-58483426D01*
X245618000Y-58483426D02*
X244988125Y-59113301D01*
X241860171Y-50661671D02*
X240665000Y-49466500D01*
X241860171Y-57138597D02*
X241860171Y-50661671D01*
X204107999Y-49802999D02*
X203708000Y-49403000D01*
X204553503Y-50191501D02*
X204165001Y-49802999D01*
X204165001Y-49802999D02*
X204107999Y-49802999D01*
X205854992Y-49916510D02*
X205580001Y-50191501D01*
X205580001Y-50191501D02*
X204553503Y-50191501D01*
X240478600Y-49916510D02*
X205854992Y-49916510D01*
X191389000Y-49403000D02*
X160655000Y-49403000D01*
X160610999Y-49358999D02*
X158451999Y-49358999D01*
X160655000Y-49403000D02*
X160610999Y-49358999D01*
X243648474Y-59563310D02*
X241410161Y-57324997D01*
X246951500Y-57912000D02*
X245300189Y-59563311D01*
X245300189Y-59563311D02*
X243648474Y-59563310D01*
X241410161Y-50848071D02*
X240478600Y-49916510D01*
X241410161Y-57324997D02*
X241410161Y-50848071D01*
X204107999Y-50818999D02*
X203708000Y-50419000D01*
X205588913Y-50818999D02*
X204107999Y-50818999D01*
X206041392Y-50366520D02*
X205588913Y-50818999D01*
X144145000Y-50419000D02*
X141986000Y-50419000D01*
X191389000Y-50419000D02*
X144145000Y-50419000D01*
X243462073Y-60013319D02*
X240960151Y-57511397D01*
X249491500Y-57912000D02*
X247390181Y-60013319D01*
X247390181Y-60013319D02*
X243462073Y-60013319D01*
X240960151Y-51284241D02*
X240042430Y-50366520D01*
X240960151Y-57511397D02*
X240960151Y-51284241D01*
X240042430Y-50366520D02*
X206041392Y-50366520D01*
X123952000Y-51435000D02*
X121920000Y-51435000D01*
X191389000Y-51435000D02*
X123952000Y-51435000D01*
X205609322Y-51435000D02*
X206227792Y-50816530D01*
X203708000Y-51435000D02*
X205609322Y-51435000D01*
X206227792Y-50816530D02*
X239856030Y-50816530D01*
X243275672Y-60463328D02*
X240510141Y-57697797D01*
X252031500Y-57912000D02*
X249480172Y-60463328D01*
X249480172Y-60463328D02*
X243275672Y-60463328D01*
X240510141Y-51470641D02*
X239856030Y-50816530D01*
X240510141Y-57697797D02*
X240510141Y-51470641D01*
X255206500Y-57912000D02*
X255014590Y-57912000D01*
X103886000Y-52070000D02*
X102235000Y-52070000D01*
X191389000Y-52451000D02*
X104267000Y-52451000D01*
X104267000Y-52451000D02*
X103886000Y-52070000D01*
X251570163Y-60913337D02*
X254571500Y-57912000D01*
X203708000Y-52451000D02*
X205229732Y-52451000D01*
X206414192Y-51266540D02*
X239290040Y-51266540D01*
X205229732Y-52451000D02*
X206414192Y-51266540D01*
X243089271Y-60913337D02*
X240060131Y-57884197D01*
X251570163Y-60913337D02*
X243089271Y-60913337D01*
X240060131Y-52036631D02*
X239290040Y-51266540D01*
X240060131Y-57884197D02*
X240060131Y-52036631D01*
X84582000Y-53467000D02*
X83185000Y-52070000D01*
X191389000Y-53467000D02*
X84582000Y-53467000D01*
X255428519Y-59594981D02*
X257111500Y-57912000D01*
X253889607Y-59594981D02*
X255428519Y-59594981D01*
X252121242Y-61363346D02*
X253889607Y-59594981D01*
X203708000Y-53467000D02*
X204850142Y-53467000D01*
X206600592Y-51716550D02*
X239041550Y-51716550D01*
X204850142Y-53467000D02*
X206600592Y-51716550D01*
X242902870Y-61363346D02*
X239610121Y-58070597D01*
X252121242Y-61363346D02*
X242902870Y-61363346D01*
X239610121Y-52285121D02*
X239041550Y-51716550D01*
X239610121Y-58070597D02*
X239610121Y-52285121D01*
X66484500Y-54419500D02*
X64135000Y-52070000D01*
X191389000Y-54483000D02*
X66548000Y-54483000D01*
X66548000Y-54483000D02*
X66484500Y-54419500D01*
X208050625Y-52166560D02*
X205734185Y-54483000D01*
X239160111Y-52660611D02*
X238666060Y-52166560D01*
X259422900Y-57912000D02*
X257289909Y-60044991D01*
X205734185Y-54483000D02*
X203708000Y-54483000D01*
X254076007Y-60044991D02*
X252307642Y-61813356D01*
X252307642Y-61813356D02*
X242716469Y-61813355D01*
X257289909Y-60044991D02*
X254076007Y-60044991D01*
X242716469Y-61813355D02*
X239160111Y-58256997D01*
X238666060Y-52166560D02*
X208050625Y-52166560D01*
X239160111Y-58256997D02*
X239160111Y-52660611D01*
X257173735Y-63020001D02*
X256956499Y-63020001D01*
X48514000Y-55499000D02*
X45085000Y-52070000D01*
X191389000Y-55499000D02*
X48514000Y-55499000D01*
X205354595Y-55499000D02*
X203708000Y-55499000D01*
X238290570Y-52616570D02*
X208237025Y-52616570D01*
X238710101Y-53036101D02*
X238290570Y-52616570D01*
X256956499Y-63020001D02*
X253583501Y-63020001D01*
X253583501Y-63020001D02*
X252826866Y-62263366D01*
X252826866Y-62263366D02*
X252572452Y-62263366D01*
X252572452Y-62263366D02*
X242530068Y-62263364D01*
X208237025Y-52616570D02*
X205354595Y-55499000D01*
X242530068Y-62263364D02*
X238710101Y-58443397D01*
X238710101Y-58443397D02*
X238710101Y-53036101D01*
X260527799Y-53708299D02*
X259651500Y-52832000D01*
X261709211Y-54889711D02*
X260527799Y-53708299D01*
X261709211Y-58675025D02*
X261709211Y-54889711D01*
X257364235Y-63020001D02*
X261709211Y-58675025D01*
X256956499Y-63020001D02*
X257364235Y-63020001D01*
X252666500Y-63436500D02*
X253363590Y-63436500D01*
X253363590Y-63436500D02*
X253397100Y-63470010D01*
X253397100Y-63470010D02*
X257550636Y-63470010D01*
X257550636Y-63470010D02*
X262159219Y-58861425D01*
X204273685Y-56515000D02*
X203708000Y-56515000D01*
X204975005Y-56515000D02*
X204273685Y-56515000D01*
X208423425Y-53066580D02*
X204975005Y-56515000D01*
X237363000Y-53066580D02*
X208423425Y-53066580D01*
X21717000Y-76327000D02*
X26035000Y-80645000D01*
X21717000Y-63817500D02*
X21717000Y-76327000D01*
X26924000Y-58610500D02*
X21717000Y-63817500D01*
X43878500Y-58610500D02*
X26924000Y-58610500D01*
X191389000Y-56515000D02*
X45974000Y-56515000D01*
X45974000Y-56515000D02*
X43878500Y-58610500D01*
X237871000Y-53574580D02*
X237363000Y-53066580D01*
X237871000Y-55753000D02*
X237871000Y-53574580D01*
X262159219Y-52799719D02*
X259651500Y-50292000D01*
X262159219Y-58861425D02*
X262159219Y-52799719D01*
X204406500Y-31242000D02*
X202184000Y-31242000D01*
X204503511Y-31144989D02*
X204406500Y-31242000D01*
X239045399Y-31144989D02*
X204503511Y-31144989D01*
X242076111Y-34175701D02*
X239045399Y-31144989D01*
X243535201Y-34175701D02*
X242076111Y-34175701D01*
X244411500Y-35052000D02*
X243535201Y-34175701D01*
M02*
