M48
; DRILL file {KiCad (5.1.4)-1} date 10/25/2019 10:12:09 PM
; FORMAT={-:-/ absolute / inch / decimal}
; #@! TF.CreationDate,2019-10-25T22:12:09-04:00
; #@! TF.GenerationSoftware,Kicad,Pcbnew,(5.1.4)-1
FMAT,2
INCH
T1C0.0157
T2C0.0300
T3C0.0354
T4C0.0390
T5C0.0430
T6C0.0512
T7C0.0591
T8C0.0315
T9C0.0669
T10C0.1201
T11C0.1575
%
G90
G05
T1
X1.775Y-2.05
X2.525Y-2.05
X3.275Y-2.05
X4.025Y-2.05
X4.8Y-2.025
X5.59Y-1.985
X6.2383Y-1.9433
X7.2215Y-5.1715
X7.494Y-3.6715
X7.5011Y-2.9215
X7.535Y-1.945
X7.535Y-1.985
X7.535Y-2.025
X7.535Y-2.065
X7.535Y-2.105
X7.535Y-2.145
X7.535Y-2.185
X7.535Y-2.225
X8.02Y-1.945
X8.02Y-1.985
X8.02Y-2.025
X8.02Y-2.065
X8.02Y-2.105
X8.02Y-2.145
X8.02Y-2.185
X8.02Y-2.225
X8.08Y-1.9475
X8.121Y-5.1715
X9.365Y-2.195
X9.9475Y-2.4975
T2
X0.738Y-4.1215
X0.738Y-4.4215
X1.3025Y-1.4965
X1.3025Y-1.7965
X6.734Y-5.6215
X6.734Y-5.9215
X8.05Y-2.6215
X8.05Y-2.9215
X4.864Y-5.6215
X4.864Y-5.9215
X8.0525Y-3.3715
X8.0525Y-3.6715
X8.801Y-4.8715
X8.801Y-5.1715
X4.864Y-4.8715
X4.864Y-5.1715
X8.8Y-1.4965
X8.8Y-1.7965
X5.4275Y-2.6215
X5.4275Y-2.9215
X4.3025Y-3.3715
X4.3025Y-3.6715
X3.362Y-4.8715
X3.362Y-5.1715
X6.18Y-1.4965
X6.18Y-1.7965
X2.05Y-1.4965
X2.05Y-1.7965
X3.55Y-3.3715
X3.55Y-3.6715
X5.8Y-5.6215
X5.8Y-5.9215
X1.675Y-2.6215
X1.675Y-2.9215
X5.0475Y-3.3715
X5.0475Y-3.6715
X8.0503Y-5.6215
X8.0503Y-5.9215
X5.992Y-4.1215
X5.992Y-4.4215
X2.988Y-4.1215
X2.988Y-4.4215
X2.805Y-1.4965
X2.805Y-1.7965
X1.302Y-5.6215
X1.302Y-5.9215
X3.9275Y-2.6215
X3.9275Y-2.9215
X9.76Y-1.83
X10.06Y-1.83
X8.8025Y-2.6215
X8.8025Y-2.9215
X6.555Y-3.3715
X6.555Y-3.6715
X8.801Y-5.6215
X8.801Y-5.9215
X3.18Y-2.6215
X3.18Y-2.9215
X1.304Y-3.3715
X1.304Y-3.6715
X2.614Y-4.8715
X2.614Y-5.1715
X5.43Y-1.4965
X5.43Y-1.7965
X8.7975Y-3.3715
X8.7975Y-3.6715
X2.8Y-3.3715
X2.8Y-3.6715
X5.614Y-4.8715
X5.614Y-5.1715
X4.675Y-2.6215
X4.675Y-2.9215
X4.488Y-4.1215
X4.488Y-4.4215
X3.926Y-5.6215
X3.926Y-5.9215
X3.74Y-4.1215
X3.74Y-4.4215
X0.548Y-3.3715
X0.548Y-3.6715
X2.988Y-5.6215
X2.988Y-5.9215
X9.5525Y-2.6215
X9.5525Y-2.9215
X2.425Y-2.6215
X2.425Y-2.9215
X9.551Y-5.6215
X9.551Y-5.9215
X8.055Y-1.4965
X8.055Y-1.7965
X3.55Y-1.4965
X3.55Y-1.7965
X5.8Y-3.3715
X5.8Y-3.6715
X4.114Y-4.8715
X4.114Y-5.1715
X6.93Y-1.4965
X6.93Y-1.7965
X0.9225Y-2.6215
X0.9225Y-2.9215
X5.242Y-4.1215
X5.242Y-4.4215
X1.864Y-4.8715
X1.864Y-5.1715
X9.5525Y-3.3715
X9.5525Y-3.6715
X2.05Y-3.3715
X2.05Y-3.6715
X1.112Y-4.8715
X1.112Y-5.1715
X4.675Y-1.4965
X4.675Y-1.7965
X6.1825Y-2.6215
X6.1825Y-2.9215
X2.238Y-4.1215
X2.238Y-4.4215
X1.486Y-4.1215
X1.486Y-4.4215
T4
X7.7828Y-1.23
X7.96Y-1.23
T5
X9.6225Y-1.18
X9.6225Y-1.28
X9.6225Y-1.38
X9.6225Y-1.48
X9.6225Y-1.58
X9.6225Y-1.68
X9.6225Y-1.78
X9.6225Y-1.88
X9.6225Y-1.98
X9.6225Y-2.08
X9.6225Y-2.18
X9.6225Y-2.28
X9.7225Y-2.28
X9.8225Y-2.28
X9.9225Y-2.28
X10.0225Y-2.28
X10.1225Y-2.28
X10.2135Y-2.28
X10.2225Y-1.18
X10.2225Y-1.28
X10.2225Y-1.38
X10.2225Y-1.48
X10.2225Y-1.58
X10.2225Y-1.68
X10.2225Y-1.78
X10.2225Y-1.88
X10.2225Y-1.98
X10.2225Y-2.08
X10.2225Y-2.18
T6
X7.7332Y-1.328
X8.0092Y-1.328
T7
X1.3375Y-4.775
X1.5875Y-4.675
X9.775Y-3.275
X10.025Y-3.175
X5.462Y-4.025
X5.712Y-3.925
X8.275Y-5.525
X8.525Y-5.425
X6.9625Y-3.275
X7.2125Y-3.175
X4.7125Y-4.025
X4.9625Y-3.925
X3.2125Y-4.025
X3.4625Y-3.925
X1.7125Y-4.025
X1.9625Y-3.925
X4.525Y-3.275
X4.775Y-3.175
X9.775Y-1.4
X10.025Y-1.3
X4.245Y-5.525
X4.495Y-5.425
X5.275Y-3.275
X5.525Y-3.175
X5.65Y-2.525
X5.9Y-2.425
X5.65Y-1.4
X5.9Y-1.3
X0.9625Y-4.025
X1.2125Y-3.925
X9.025Y-5.525
X9.275Y-5.425
X3.025Y-3.275
X3.275Y-3.175
X3.025Y-1.4
X3.275Y-1.3
X4.3375Y-4.775
X4.5875Y-4.675
X9.025Y-3.275
X9.275Y-3.175
X3.775Y-1.4
X4.025Y-1.3
X3.5875Y-4.775
X3.8375Y-4.675
X9.775Y-5.525
X10.025Y-5.425
X2.65Y-2.525
X2.9Y-2.425
X2.0875Y-4.775
X2.3375Y-4.675
X5.1825Y-5.525
X5.4325Y-5.425
X3.9625Y-4.025
X4.2125Y-3.925
X0.775Y-3.275
X1.025Y-3.175
X6.4Y-1.4
X6.65Y-1.3
X6.12Y-5.525
X6.37Y-5.425
X8.275Y-2.525
X8.525Y-2.425
X1.8075Y-5.525
X2.0575Y-5.425
X4.9Y-2.525
X5.15Y-2.425
X8.275Y-1.4
X8.525Y-1.3
X3.4Y-2.525
X3.65Y-2.425
X4.9Y-1.4
X5.15Y-1.3
X2.275Y-3.275
X2.525Y-3.175
X6.775Y-2.525
X7.025Y-2.425
X2.275Y-1.4
X2.525Y-1.3
X6.494Y-4.775
X6.744Y-4.675
X8.275Y-3.275
X8.525Y-3.175
X9.025Y-2.525
X9.275Y-2.425
X2.8375Y-4.775
X3.0875Y-4.675
X4.15Y-2.525
X4.4Y-2.425
X1.525Y-3.275
X1.775Y-3.175
X6.6815Y-4.025
X6.9315Y-3.925
X2.4625Y-4.025
X2.7125Y-3.925
X9.025Y-1.4
X9.275Y-1.3
X3.3075Y-5.525
X3.5575Y-5.425
X1.15Y-2.525
X1.4Y-2.425
X7.0565Y-5.525
X7.3065Y-5.425
X3.775Y-3.275
X4.025Y-3.175
X7.15Y-1.4
X7.4Y-1.3
X6.025Y-3.275
X6.275Y-3.175
X1.525Y-1.4
X1.775Y-1.3
X5.088Y-4.775
X5.338Y-4.675
X1.9Y-2.525
X2.15Y-2.425
X9.775Y-2.525
X10.025Y-2.425
X9.025Y-4.775
X9.275Y-4.675
T8
X4.47Y-1.2667
X4.47Y-1.5423
T9
X0.725Y-3.375
X1.125Y-3.375
X6.35Y-1.5
X6.75Y-1.5
X6.07Y-5.625
X6.47Y-5.625
X8.225Y-2.625
X8.625Y-2.625
X1.7575Y-5.625
X2.1575Y-5.625
X4.85Y-2.625
X5.25Y-2.625
X8.225Y-1.5
X8.625Y-1.5
X3.35Y-2.625
X3.75Y-2.625
X4.85Y-1.5
X5.25Y-1.5
X2.225Y-3.375
X2.625Y-3.375
X6.725Y-2.625
X7.125Y-2.625
X2.225Y-1.5
X2.625Y-1.5
X6.444Y-4.875
X6.844Y-4.875
X8.225Y-3.375
X8.625Y-3.375
X8.975Y-2.625
X9.375Y-2.625
X2.7875Y-4.875
X3.1875Y-4.875
X4.1Y-2.625
X4.5Y-2.625
X1.475Y-3.375
X1.875Y-3.375
X6.6315Y-4.125
X7.0315Y-4.125
X2.4125Y-4.125
X2.8125Y-4.125
X8.975Y-1.5
X9.375Y-1.5
X3.2575Y-5.625
X3.6575Y-5.625
X1.1Y-2.625
X1.5Y-2.625
X7.0065Y-5.625
X7.4065Y-5.625
X3.725Y-3.375
X4.125Y-3.375
X7.1Y-1.5
X7.5Y-1.5
X5.975Y-3.375
X6.375Y-3.375
X1.475Y-1.5
X1.875Y-1.5
X5.038Y-4.875
X5.438Y-4.875
X1.85Y-2.625
X2.25Y-2.625
X9.725Y-2.625
X10.125Y-2.625
X8.975Y-4.875
X9.375Y-4.875
X1.2875Y-4.875
X1.6875Y-4.875
X9.725Y-3.375
X10.125Y-3.375
X5.412Y-4.125
X5.812Y-4.125
X8.225Y-5.625
X8.625Y-5.625
X6.9125Y-3.375
X7.3125Y-3.375
X4.6625Y-4.125
X5.0625Y-4.125
X3.1625Y-4.125
X3.5625Y-4.125
X1.6625Y-4.125
X2.0625Y-4.125
X4.475Y-3.375
X4.875Y-3.375
X9.725Y-1.5
X10.125Y-1.5
X4.195Y-5.625
X4.595Y-5.625
X5.225Y-3.375
X5.625Y-3.375
X5.6Y-2.625
X6.0Y-2.625
X5.6Y-1.5
X6.0Y-1.5
X0.9125Y-4.125
X1.3125Y-4.125
X8.975Y-5.625
X9.375Y-5.625
X2.975Y-3.375
X3.375Y-3.375
X2.975Y-1.5
X3.375Y-1.5
X4.2875Y-4.875
X4.6875Y-4.875
X8.975Y-3.375
X9.375Y-3.375
X3.725Y-1.5
X4.125Y-1.5
X3.5375Y-4.875
X3.9375Y-4.875
X9.725Y-5.625
X10.125Y-5.625
X2.6Y-2.625
X3.0Y-2.625
X2.0375Y-4.875
X2.4375Y-4.875
X5.1325Y-5.625
X5.5325Y-5.625
X3.9125Y-4.125
X4.3125Y-4.125
T10
X1.489Y-5.3494
X2.426Y-5.3494
X6.4565Y-2.3494
X7.3935Y-2.3494
X6.1755Y-4.5994
X7.1125Y-4.5994
X6.363Y-3.8494
X7.3Y-3.8494
T11
X6.27Y-5.625
X8.425Y-2.625
X1.489Y-5.9494
X1.9575Y-5.625
X2.426Y-5.9494
X5.05Y-2.625
X8.425Y-1.5
X3.55Y-2.625
X5.05Y-1.5
X2.425Y-3.375
X6.4565Y-2.9494
X6.925Y-2.625
X7.3935Y-2.9494
X2.425Y-1.5
X6.1755Y-5.1994
X6.644Y-4.875
X7.1125Y-5.1994
X8.425Y-3.375
X9.175Y-2.625
X2.9875Y-4.875
X4.3Y-2.625
X1.675Y-3.375
X6.363Y-4.4494
X6.8315Y-4.125
X7.3Y-4.4494
X2.6125Y-4.125
X9.175Y-1.5
X3.4575Y-5.625
X1.3Y-2.625
X7.2065Y-5.625
X3.925Y-3.375
X7.3Y-1.5
X6.175Y-3.375
X1.675Y-1.5
X5.238Y-4.875
X2.05Y-2.625
X9.925Y-2.625
X9.175Y-4.875
X1.4875Y-4.875
X9.925Y-3.375
X5.612Y-4.125
X8.425Y-5.625
X7.1125Y-3.375
X4.8625Y-4.125
X3.3625Y-4.125
X1.8625Y-4.125
X4.675Y-3.375
X9.925Y-1.5
X4.395Y-5.625
X5.425Y-3.375
X5.8Y-2.625
X5.8Y-1.5
X1.1125Y-4.125
X9.175Y-5.625
X3.175Y-3.375
X3.175Y-1.5
X4.4875Y-4.875
X9.175Y-3.375
X3.925Y-1.5
X3.7375Y-4.875
X9.925Y-5.625
X2.8Y-2.625
X2.2375Y-4.875
X5.3325Y-5.625
X4.1125Y-4.125
X0.925Y-3.375
X6.55Y-1.5
T3
G00X4.3794Y-1.3376
M15
G01X4.3794Y-1.3219
M16
G05
G00X4.3794Y-1.4557
M15
G01X4.3794Y-1.44
M16
G05
G00X4.3794Y-1.6132
M15
G01X4.3794Y-1.5974
M16
G05
G00X4.5606Y-1.6565
M15
G01X4.5606Y-1.6407
M16
G05
T0
M30
