  0
SECTION
  2
HEADER
  9
$ACADVER
  1
AC1009
  9
$EXTMIN
 10
0.0
 20
0.0
 30
0.0
  9
$EXTMAX
 10
1000.0
 20
1000.0
 30
0.0
  9
$FILLMODE
 70
 0
  9
$SPLFRAME
 70
 1
  0
ENDSEC
  0
SECTION
  2
TABLES
  0
TABLE
  2
LAYER
 70
1
  0
LAYER
  2
0
 70
     0
 62
     7
  6
CONTINUOUS
  0
ENDTAB
  0
ENDSEC
  0
SECTION
  2
ENTITIES
  0
LINE
  8
0
 62
     0
 10
254.745
 20
143.904
 30
0.0
 11
255.138
 21
143.889
 31
0.0
  0
LINE
  8
0
 62
     0
 10
255.138
 20
143.889
 30
0.0
 11
255.528
 21
143.844
 31
0.0
  0
LINE
  8
0
 62
     0
 10
255.528
 20
143.844
 30
0.0
 11
255.911
 21
143.766
 31
0.0
  0
LINE
  8
0
 62
     0
 10
255.911
 20
143.766
 30
0.0
 11
256.29
 21
143.661
 31
0.0
  0
LINE
  8
0
 62
     0
 10
256.29
 20
143.661
 30
0.0
 11
256.658
 21
143.524
 31
0.0
  0
LINE
  8
0
 62
     0
 10
256.658
 20
143.524
 30
0.0
 11
257.015
 21
143.36
 31
0.0
  0
LINE
  8
0
 62
     0
 10
257.015
 20
143.36
 30
0.0
 11
257.358
 21
143.169
 31
0.0
  0
LINE
  8
0
 62
     0
 10
257.358
 20
143.169
 30
0.0
 11
257.683
 21
142.951
 31
0.0
  0
LINE
  8
0
 62
     0
 10
257.683
 20
142.951
 30
0.0
 11
257.992
 21
142.708
 31
0.0
  0
LINE
  8
0
 62
     0
 10
257.992
 20
142.708
 30
0.0
 11
258.28
 21
142.441
 31
0.0
  0
LINE
  8
0
 62
     0
 10
258.28
 20
142.441
 30
0.0
 11
258.548
 21
142.153
 31
0.0
  0
LINE
  8
0
 62
     0
 10
258.548
 20
142.153
 30
0.0
 11
258.79
 21
141.844
 31
0.0
  0
LINE
  8
0
 62
     0
 10
258.79
 20
141.844
 30
0.0
 11
259.009
 21
141.518
 31
0.0
  0
LINE
  8
0
 62
     0
 10
259.009
 20
141.518
 30
0.0
 11
259.201
 21
141.175
 31
0.0
  0
LINE
  8
0
 62
     0
 10
259.201
 20
141.175
 30
0.0
 11
259.365
 21
140.819
 31
0.0
  0
LINE
  8
0
 62
     0
 10
259.365
 20
140.819
 30
0.0
 11
259.501
 21
140.451
 31
0.0
  0
LINE
  8
0
 62
     0
 10
259.501
 20
140.451
 30
0.0
 11
259.607
 21
140.072
 31
0.0
  0
LINE
  8
0
 62
     0
 10
259.607
 20
140.072
 30
0.0
 11
259.684
 21
139.688
 31
0.0
  0
LINE
  8
0
 62
     0
 10
259.684
 20
139.688
 30
0.0
 11
259.73
 21
139.297
 31
0.0
  0
LINE
  8
0
 62
     0
 10
259.73
 20
139.297
 30
0.0
 11
259.745
 21
138.905
 31
0.0
  0
LINE
  8
0
 62
     0
 10
259.745
 20
138.905
 30
0.0
 11
259.746
 21
5.07806
 31
0.0
  0
LINE
  8
0
 62
     0
 10
259.746
 20
5.07806
 30
0.0
 11
259.73
 21
4.68672
 31
0.0
  0
LINE
  8
0
 62
     0
 10
259.73
 20
4.68672
 30
0.0
 11
259.684
 21
4.29673
 31
0.0
  0
LINE
  8
0
 62
     0
 10
259.684
 20
4.29673
 30
0.0
 11
259.607
 21
3.91223
 31
0.0
  0
LINE
  8
0
 62
     0
 10
259.607
 20
3.91223
 30
0.0
 11
259.501
 21
3.53328
 31
0.0
  0
LINE
  8
0
 62
     0
 10
259.501
 20
3.53328
 30
0.0
 11
259.365
 21
3.16536
 31
0.0
  0
LINE
  8
0
 62
     0
 10
259.365
 20
3.16536
 30
0.0
 11
259.201
 21
2.80982
 31
0.0
  0
LINE
  8
0
 62
     0
 10
259.201
 20
2.80982
 30
0.0
 11
259.009
 21
2.46669
 31
0.0
  0
LINE
  8
0
 62
     0
 10
259.009
 20
2.46669
 30
0.0
 11
258.79
 21
2.14009
 31
0.0
  0
LINE
  8
0
 62
     0
 10
258.79
 20
2.14009
 30
0.0
 11
258.548
 21
1.83141
 31
0.0
  0
LINE
  8
0
 62
     0
 10
258.548
 20
1.83141
 30
0.0
 11
258.28
 21
1.5434
 31
0.0
  0
LINE
  8
0
 62
     0
 10
258.28
 20
1.5434
 30
0.0
 11
257.992
 21
1.27606
 31
0.0
  0
LINE
  8
0
 62
     0
 10
257.992
 20
1.27606
 30
0.0
 11
257.683
 21
1.03353
 31
0.0
  0
LINE
  8
0
 62
     0
 10
257.683
 20
1.03353
 30
0.0
 11
257.358
 21
0.815799
 31
0.0
  0
LINE
  8
0
 62
     0
 10
257.358
 20
0.815799
 30
0.0
 11
257.015
 21
0.624251
 31
0.0
  0
LINE
  8
0
 62
     0
 10
257.015
 20
0.624251
 30
0.0
 11
256.658
 21
0.460266
 31
0.0
  0
LINE
  8
0
 62
     0
 10
256.658
 20
0.460266
 30
0.0
 11
256.29
 21
0.323839
 31
0.0
  0
LINE
  8
0
 62
     0
 10
256.29
 20
0.323839
 30
0.0
 11
255.911
 21
0.21773
 31
0.0
  0
LINE
  8
0
 62
     0
 10
255.911
 20
0.21773
 30
0.0
 11
255.528
 21
0.14056
 31
0.0
  0
LINE
  8
0
 62
     0
 10
255.528
 20
0.14056
 30
0.0
 11
255.138
 21
0.0950846
 31
0.0
  0
LINE
  8
0
 62
     0
 10
255.138
 20
0.0950846
 30
0.0
 11
254.745
 21
0.0785481
 31
0.0
  0
LINE
  8
0
 62
     0
 10
254.745
 20
0.0785481
 30
0.0
 11
5.0946
 21
0.0785481
 31
0.0
  0
LINE
  8
0
 62
     0
 10
5.0946
 20
0.0785481
 30
0.0
 11
4.70186
 21
0.0950846
 31
0.0
  0
LINE
  8
0
 62
     0
 10
4.70186
 20
0.0950846
 30
0.0
 11
4.3119
 21
0.14056
 31
0.0
  0
LINE
  8
0
 62
     0
 10
4.3119
 20
0.14056
 30
0.0
 11
3.9274
 21
0.21773
 31
0.0
  0
LINE
  8
0
 62
     0
 10
3.9274
 20
0.21773
 30
0.0
 11
3.54845
 21
0.323839
 31
0.0
  0
LINE
  8
0
 62
     0
 10
3.54845
 20
0.323839
 30
0.0
 11
3.18051
 21
0.460266
 31
0.0
  0
LINE
  8
0
 62
     0
 10
3.18051
 20
0.460266
 30
0.0
 11
2.82498
 21
0.624251
 31
0.0
  0
LINE
  8
0
 62
     0
 10
2.82498
 20
0.624251
 30
0.0
 11
2.48185
 21
0.815799
 31
0.0
  0
LINE
  8
0
 62
     0
 10
2.48185
 20
0.815799
 30
0.0
 11
2.15525
 21
1.03353
 31
0.0
  0
LINE
  8
0
 62
     0
 10
2.15525
 20
1.03353
 30
0.0
 11
1.84657
 21
1.27606
 31
0.0
  0
LINE
  8
0
 62
     0
 10
1.84657
 20
1.27606
 30
0.0
 11
1.55856
 21
1.5434
 31
0.0
  0
LINE
  8
0
 62
     0
 10
1.55856
 20
1.5434
 30
0.0
 11
1.29122
 21
1.83141
 31
0.0
  0
LINE
  8
0
 62
     0
 10
1.29122
 20
1.83141
 30
0.0
 11
1.04869
 21
2.14009
 31
0.0
  0
LINE
  8
0
 62
     0
 10
1.04869
 20
2.14009
 30
0.0
 11
0.830957
 21
2.46669
 31
0.0
  0
LINE
  8
0
 62
     0
 10
0.830957
 20
2.46669
 30
0.0
 11
0.63941
 21
2.80982
 31
0.0
  0
LINE
  8
0
 62
     0
 10
0.63941
 20
2.80982
 30
0.0
 11
0.475424
 21
3.16536
 31
0.0
  0
LINE
  8
0
 62
     0
 10
0.475424
 20
3.16536
 30
0.0
 11
0.338998
 21
3.53328
 31
0.0
  0
LINE
  8
0
 62
     0
 10
0.338998
 20
3.53328
 30
0.0
 11
0.232888
 21
3.91223
 31
0.0
  0
LINE
  8
0
 62
     0
 10
0.232888
 20
3.91223
 30
0.0
 11
0.155718
 21
4.29673
 31
0.0
  0
LINE
  8
0
 62
     0
 10
0.155718
 20
4.29673
 30
0.0
 11
0.110243
 21
4.68672
 31
0.0
  0
LINE
  8
0
 62
     0
 10
0.110243
 20
4.68672
 30
0.0
 11
0.0937066
 21
5.07806
 31
0.0
  0
LINE
  8
0
 62
     0
 10
0.0937066
 20
5.07806
 30
0.0
 11
0.0950846
 21
138.905
 31
0.0
  0
LINE
  8
0
 62
     0
 10
0.0950846
 20
138.905
 30
0.0
 11
0.110243
 21
139.297
 31
0.0
  0
LINE
  8
0
 62
     0
 10
0.110243
 20
139.297
 30
0.0
 11
0.155718
 21
139.688
 31
0.0
  0
LINE
  8
0
 62
     0
 10
0.155718
 20
139.688
 30
0.0
 11
0.232888
 21
140.072
 31
0.0
  0
LINE
  8
0
 62
     0
 10
0.232888
 20
140.072
 30
0.0
 11
0.338998
 21
140.451
 31
0.0
  0
LINE
  8
0
 62
     0
 10
0.338998
 20
140.451
 30
0.0
 11
0.475424
 21
140.819
 31
0.0
  0
LINE
  8
0
 62
     0
 10
0.475424
 20
140.819
 30
0.0
 11
0.63941
 21
141.175
 31
0.0
  0
LINE
  8
0
 62
     0
 10
0.63941
 20
141.175
 30
0.0
 11
0.830957
 21
141.518
 31
0.0
  0
LINE
  8
0
 62
     0
 10
0.830957
 20
141.518
 30
0.0
 11
1.04869
 21
141.844
 31
0.0
  0
LINE
  8
0
 62
     0
 10
1.04869
 20
141.844
 30
0.0
 11
1.29122
 21
142.153
 31
0.0
  0
LINE
  8
0
 62
     0
 10
1.29122
 20
142.153
 30
0.0
 11
1.55856
 21
142.441
 31
0.0
  0
LINE
  8
0
 62
     0
 10
1.55856
 20
142.441
 30
0.0
 11
1.84657
 21
142.708
 31
0.0
  0
LINE
  8
0
 62
     0
 10
1.84657
 20
142.708
 30
0.0
 11
2.15525
 21
142.951
 31
0.0
  0
LINE
  8
0
 62
     0
 10
2.15525
 20
142.951
 30
0.0
 11
2.48185
 21
143.169
 31
0.0
  0
LINE
  8
0
 62
     0
 10
2.48185
 20
143.169
 30
0.0
 11
2.82498
 21
143.36
 31
0.0
  0
LINE
  8
0
 62
     0
 10
2.82498
 20
143.36
 30
0.0
 11
3.18051
 21
143.524
 31
0.0
  0
LINE
  8
0
 62
     0
 10
3.18051
 20
143.524
 30
0.0
 11
3.54845
 21
143.661
 31
0.0
  0
LINE
  8
0
 62
     0
 10
3.54845
 20
143.661
 30
0.0
 11
3.9274
 21
143.766
 31
0.0
  0
LINE
  8
0
 62
     0
 10
3.9274
 20
143.766
 30
0.0
 11
4.3119
 21
143.844
 31
0.0
  0
LINE
  8
0
 62
     0
 10
4.3119
 20
143.844
 30
0.0
 11
4.70186
 21
143.889
 31
0.0
  0
LINE
  8
0
 62
     0
 10
4.70186
 20
143.889
 30
0.0
 11
5.0946
 21
143.906
 31
0.0
  0
LINE
  8
0
 62
     0
 10
5.0946
 20
143.906
 30
0.0
 11
254.745
 21
143.904
 31
0.0
  0
LINE
  8
0
 62
     0
 10
4.75424
 20
6.12539
 30
0.0
 11
4.44832
 21
5.96829
 31
0.0
  0
LINE
  8
0
 62
     0
 10
4.44832
 20
5.96829
 30
0.0
 11
4.20441
 21
5.72576
 31
0.0
  0
LINE
  8
0
 62
     0
 10
4.20441
 20
5.72576
 30
0.0
 11
4.04731
 21
5.41845
 31
0.0
  0
LINE
  8
0
 62
     0
 10
4.04731
 20
5.41845
 30
0.0
 11
3.99355
 21
5.07806
 31
0.0
  0
LINE
  8
0
 62
     0
 10
3.99355
 20
5.07806
 30
0.0
 11
4.04731
 21
4.73908
 31
0.0
  0
LINE
  8
0
 62
     0
 10
4.04731
 20
4.73908
 30
0.0
 11
4.20441
 21
4.43315
 31
0.0
  0
LINE
  8
0
 62
     0
 10
4.20441
 20
4.43315
 30
0.0
 11
4.44832
 21
4.18924
 31
0.0
  0
LINE
  8
0
 62
     0
 10
4.44832
 20
4.18924
 30
0.0
 11
4.75424
 21
4.03214
 31
0.0
  0
LINE
  8
0
 62
     0
 10
4.75424
 20
4.03214
 30
0.0
 11
5.0946
 21
3.97838
 31
0.0
  0
LINE
  8
0
 62
     0
 10
5.0946
 20
3.97838
 30
0.0
 11
5.43359
 21
4.03214
 31
0.0
  0
LINE
  8
0
 62
     0
 10
5.43359
 20
4.03214
 30
0.0
 11
5.74089
 21
4.18924
 31
0.0
  0
LINE
  8
0
 62
     0
 10
5.74089
 20
4.18924
 30
0.0
 11
5.98343
 21
4.43315
 31
0.0
  0
LINE
  8
0
 62
     0
 10
5.98343
 20
4.43315
 30
0.0
 11
6.14056
 21
4.73908
 31
0.0
  0
LINE
  8
0
 62
     0
 10
6.14056
 20
4.73908
 30
0.0
 11
6.19428
 21
5.07806
 31
0.0
  0
LINE
  8
0
 62
     0
 10
6.19428
 20
5.07806
 30
0.0
 11
6.14056
 21
5.41845
 31
0.0
  0
LINE
  8
0
 62
     0
 10
6.14056
 20
5.41845
 30
0.0
 11
5.98343
 21
5.72576
 31
0.0
  0
LINE
  8
0
 62
     0
 10
5.98343
 20
5.72576
 30
0.0
 11
5.74089
 21
5.96829
 31
0.0
  0
LINE
  8
0
 62
     0
 10
5.74089
 20
5.96829
 30
0.0
 11
5.43359
 21
6.12539
 31
0.0
  0
LINE
  8
0
 62
     0
 10
5.43359
 20
6.12539
 30
0.0
 11
5.0946
 21
6.17911
 31
0.0
  0
LINE
  8
0
 62
     0
 10
5.0946
 20
6.17911
 30
0.0
 11
4.75424
 21
6.12539
 31
0.0
  0
LINE
  8
0
 62
     0
 10
129.58
 20
6.12539
 30
0.0
 11
129.272
 21
5.96829
 31
0.0
  0
LINE
  8
0
 62
     0
 10
129.272
 20
5.96829
 30
0.0
 11
129.03
 21
5.72576
 31
0.0
  0
LINE
  8
0
 62
     0
 10
129.03
 20
5.72576
 30
0.0
 11
128.874
 21
5.41845
 31
0.0
  0
LINE
  8
0
 62
     0
 10
128.874
 20
5.41845
 30
0.0
 11
128.82
 21
5.07806
 31
0.0
  0
LINE
  8
0
 62
     0
 10
128.82
 20
5.07806
 30
0.0
 11
128.874
 21
4.73908
 31
0.0
  0
LINE
  8
0
 62
     0
 10
128.874
 20
4.73908
 30
0.0
 11
129.03
 21
4.43315
 31
0.0
  0
LINE
  8
0
 62
     0
 10
129.03
 20
4.43315
 30
0.0
 11
129.272
 21
4.18924
 31
0.0
  0
LINE
  8
0
 62
     0
 10
129.272
 20
4.18924
 30
0.0
 11
129.58
 21
4.03214
 31
0.0
  0
LINE
  8
0
 62
     0
 10
129.58
 20
4.03214
 30
0.0
 11
129.92
 21
3.97838
 31
0.0
  0
LINE
  8
0
 62
     0
 10
129.92
 20
3.97838
 30
0.0
 11
130.259
 21
4.03214
 31
0.0
  0
LINE
  8
0
 62
     0
 10
130.259
 20
4.03214
 30
0.0
 11
130.566
 21
4.18924
 31
0.0
  0
LINE
  8
0
 62
     0
 10
130.566
 20
4.18924
 30
0.0
 11
130.81
 21
4.43315
 31
0.0
  0
LINE
  8
0
 62
     0
 10
130.81
 20
4.43315
 30
0.0
 11
130.966
 21
4.73908
 31
0.0
  0
LINE
  8
0
 62
     0
 10
130.966
 20
4.73908
 30
0.0
 11
131.02
 21
5.07806
 31
0.0
  0
LINE
  8
0
 62
     0
 10
131.02
 20
5.07806
 30
0.0
 11
130.966
 21
5.41845
 31
0.0
  0
LINE
  8
0
 62
     0
 10
130.966
 20
5.41845
 30
0.0
 11
130.81
 21
5.72576
 31
0.0
  0
LINE
  8
0
 62
     0
 10
130.81
 20
5.72576
 30
0.0
 11
130.566
 21
5.96829
 31
0.0
  0
LINE
  8
0
 62
     0
 10
130.566
 20
5.96829
 30
0.0
 11
130.259
 21
6.12539
 31
0.0
  0
LINE
  8
0
 62
     0
 10
130.259
 20
6.12539
 30
0.0
 11
129.92
 21
6.17911
 31
0.0
  0
LINE
  8
0
 62
     0
 10
129.92
 20
6.17911
 30
0.0
 11
129.58
 21
6.12539
 31
0.0
  0
LINE
  8
0
 62
     0
 10
254.405
 20
6.12539
 30
0.0
 11
254.099
 21
5.96829
 31
0.0
  0
LINE
  8
0
 62
     0
 10
254.099
 20
5.96829
 30
0.0
 11
253.855
 21
5.72576
 31
0.0
  0
LINE
  8
0
 62
     0
 10
253.855
 20
5.72576
 30
0.0
 11
253.698
 21
5.41845
 31
0.0
  0
LINE
  8
0
 62
     0
 10
253.698
 20
5.41845
 30
0.0
 11
253.646
 21
5.07806
 31
0.0
  0
LINE
  8
0
 62
     0
 10
253.646
 20
5.07806
 30
0.0
 11
253.698
 21
4.73908
 31
0.0
  0
LINE
  8
0
 62
     0
 10
253.698
 20
4.73908
 30
0.0
 11
253.855
 21
4.43315
 31
0.0
  0
LINE
  8
0
 62
     0
 10
253.855
 20
4.43315
 30
0.0
 11
254.099
 21
4.18924
 31
0.0
  0
LINE
  8
0
 62
     0
 10
254.099
 20
4.18924
 30
0.0
 11
254.405
 21
4.03214
 31
0.0
  0
LINE
  8
0
 62
     0
 10
254.405
 20
4.03214
 30
0.0
 11
254.745
 21
3.97838
 31
0.0
  0
LINE
  8
0
 62
     0
 10
254.745
 20
3.97838
 30
0.0
 11
255.084
 21
4.03214
 31
0.0
  0
LINE
  8
0
 62
     0
 10
255.084
 20
4.03214
 30
0.0
 11
255.392
 21
4.18924
 31
0.0
  0
LINE
  8
0
 62
     0
 10
255.392
 20
4.18924
 30
0.0
 11
255.634
 21
4.43315
 31
0.0
  0
LINE
  8
0
 62
     0
 10
255.634
 20
4.43315
 30
0.0
 11
255.791
 21
4.73908
 31
0.0
  0
LINE
  8
0
 62
     0
 10
255.791
 20
4.73908
 30
0.0
 11
255.845
 21
5.07806
 31
0.0
  0
LINE
  8
0
 62
     0
 10
255.845
 20
5.07806
 30
0.0
 11
255.791
 21
5.41845
 31
0.0
  0
LINE
  8
0
 62
     0
 10
255.791
 20
5.41845
 30
0.0
 11
255.634
 21
5.72576
 31
0.0
  0
LINE
  8
0
 62
     0
 10
255.634
 20
5.72576
 30
0.0
 11
255.392
 21
5.96829
 31
0.0
  0
LINE
  8
0
 62
     0
 10
255.392
 20
5.96829
 30
0.0
 11
255.084
 21
6.12539
 31
0.0
  0
LINE
  8
0
 62
     0
 10
255.084
 20
6.12539
 30
0.0
 11
254.745
 21
6.17911
 31
0.0
  0
LINE
  8
0
 62
     0
 10
254.745
 20
6.17911
 30
0.0
 11
254.405
 21
6.12539
 31
0.0
  0
LINE
  8
0
 62
     0
 10
22.1437
 20
26.6044
 30
0.0
 11
22.1437
 21
25.6053
 31
0.0
  0
LINE
  8
0
 62
     0
 10
22.1437
 20
25.6053
 30
0.0
 11
21.3444
 21
25.6053
 31
0.0
  0
LINE
  8
0
 62
     0
 10
21.3444
 20
25.6053
 30
0.0
 11
21.3444
 21
22.5048
 31
0.0
  0
LINE
  8
0
 62
     0
 10
21.3444
 20
22.5048
 30
0.0
 11
22.1437
 21
22.5048
 31
0.0
  0
LINE
  8
0
 62
     0
 10
22.1437
 20
22.5048
 30
0.0
 11
22.1437
 21
21.9053
 31
0.0
  0
LINE
  8
0
 62
     0
 10
22.1437
 20
21.9053
 30
0.0
 11
20.6196
 21
21.9053
 31
0.0
  0
LINE
  8
0
 62
     0
 10
20.6196
 20
21.9053
 30
0.0
 11
20.6196
 21
25.1354
 31
0.0
  0
LINE
  8
0
 62
     0
 10
20.6196
 20
25.1354
 30
0.0
 11
13.87
 21
25.1354
 31
0.0
  0
LINE
  8
0
 62
     0
 10
13.87
 20
25.1354
 30
0.0
 11
13.87
 21
21.9053
 31
0.0
  0
LINE
  8
0
 62
     0
 10
13.87
 20
21.9053
 30
0.0
 11
13.0431
 21
21.9053
 31
0.0
  0
LINE
  8
0
 62
     0
 10
13.0431
 20
21.9053
 30
0.0
 11
13.0431
 21
19.1051
 31
0.0
  0
LINE
  8
0
 62
     0
 10
13.0431
 20
19.1051
 30
0.0
 11
13.87
 21
19.1051
 31
0.0
  0
LINE
  8
0
 62
     0
 10
13.87
 20
19.1051
 30
0.0
 11
13.87
 21
12.835
 31
0.0
  0
LINE
  8
0
 62
     0
 10
13.87
 20
12.835
 30
0.0
 11
15.5939
 21
12.835
 31
0.0
  0
LINE
  8
0
 62
     0
 10
15.5939
 20
12.835
 30
0.0
 11
15.5939
 21
11.6348
 31
0.0
  0
LINE
  8
0
 62
     0
 10
15.5939
 20
11.6348
 30
0.0
 11
18.8943
 21
11.6348
 31
0.0
  0
LINE
  8
0
 62
     0
 10
18.8943
 20
11.6348
 30
0.0
 11
18.8943
 21
12.835
 31
0.0
  0
LINE
  8
0
 62
     0
 10
18.8943
 20
12.835
 30
0.0
 11
20.6196
 21
12.835
 31
0.0
  0
LINE
  8
0
 62
     0
 10
20.6196
 20
12.835
 30
0.0
 11
20.6196
 21
17.3054
 31
0.0
  0
LINE
  8
0
 62
     0
 10
20.6196
 20
17.3054
 30
0.0
 11
22.1437
 21
17.3054
 31
0.0
  0
LINE
  8
0
 62
     0
 10
22.1437
 20
17.3054
 30
0.0
 11
22.1437
 21
16.7046
 31
0.0
  0
LINE
  8
0
 62
     0
 10
22.1437
 20
16.7046
 30
0.0
 11
21.3444
 21
16.7046
 31
0.0
  0
LINE
  8
0
 62
     0
 10
21.3444
 20
16.7046
 30
0.0
 11
21.3444
 21
13.6054
 31
0.0
  0
LINE
  8
0
 62
     0
 10
21.3444
 20
13.6054
 30
0.0
 11
22.1437
 21
13.6054
 31
0.0
  0
LINE
  8
0
 62
     0
 10
22.1437
 20
13.6054
 30
0.0
 11
22.1437
 21
12.6049
 31
0.0
  0
LINE
  8
0
 62
     0
 10
22.1437
 20
12.6049
 30
0.0
 11
36.1446
 21
12.6049
 31
0.0
  0
LINE
  8
0
 62
     0
 10
36.1446
 20
12.6049
 30
0.0
 11
36.1446
 21
13.6054
 31
0.0
  0
LINE
  8
0
 62
     0
 10
36.1446
 20
13.6054
 30
0.0
 11
36.9439
 21
13.6054
 31
0.0
  0
LINE
  8
0
 62
     0
 10
36.9439
 20
13.6054
 30
0.0
 11
36.9439
 21
16.7046
 31
0.0
  0
LINE
  8
0
 62
     0
 10
36.9439
 20
16.7046
 30
0.0
 11
36.1446
 21
16.7046
 31
0.0
  0
LINE
  8
0
 62
     0
 10
36.1446
 20
16.7046
 30
0.0
 11
36.1446
 21
17.3054
 31
0.0
  0
LINE
  8
0
 62
     0
 10
36.1446
 20
17.3054
 30
0.0
 11
37.6686
 21
17.3054
 31
0.0
  0
LINE
  8
0
 62
     0
 10
37.6686
 20
17.3054
 30
0.0
 11
37.6686
 21
12.835
 31
0.0
  0
LINE
  8
0
 62
     0
 10
37.6686
 20
12.835
 30
0.0
 11
39.3954
 21
12.835
 31
0.0
  0
LINE
  8
0
 62
     0
 10
39.3954
 20
12.835
 30
0.0
 11
39.3954
 21
11.6348
 31
0.0
  0
LINE
  8
0
 62
     0
 10
39.3954
 20
11.6348
 30
0.0
 11
42.6942
 21
11.6348
 31
0.0
  0
LINE
  8
0
 62
     0
 10
42.6942
 20
11.6348
 30
0.0
 11
42.6942
 21
12.835
 31
0.0
  0
LINE
  8
0
 62
     0
 10
42.6942
 20
12.835
 30
0.0
 11
44.4183
 21
12.835
 31
0.0
  0
LINE
  8
0
 62
     0
 10
44.4183
 20
12.835
 30
0.0
 11
44.4183
 21
19.1051
 31
0.0
  0
LINE
  8
0
 62
     0
 10
44.4183
 20
19.1051
 30
0.0
 11
45.2452
 21
19.1051
 31
0.0
  0
LINE
  8
0
 62
     0
 10
45.2452
 20
19.1051
 30
0.0
 11
45.2452
 21
21.9053
 31
0.0
  0
LINE
  8
0
 62
     0
 10
45.2452
 20
21.9053
 30
0.0
 11
44.4183
 21
21.9053
 31
0.0
  0
LINE
  8
0
 62
     0
 10
44.4183
 20
21.9053
 30
0.0
 11
44.4183
 21
25.1354
 31
0.0
  0
LINE
  8
0
 62
     0
 10
44.4183
 20
25.1354
 30
0.0
 11
37.6686
 21
25.1354
 31
0.0
  0
LINE
  8
0
 62
     0
 10
37.6686
 20
25.1354
 30
0.0
 11
37.6686
 21
21.9053
 31
0.0
  0
LINE
  8
0
 62
     0
 10
37.6686
 20
21.9053
 30
0.0
 11
36.1446
 21
21.9053
 31
0.0
  0
LINE
  8
0
 62
     0
 10
36.1446
 20
21.9053
 30
0.0
 11
36.1446
 21
22.5048
 31
0.0
  0
LINE
  8
0
 62
     0
 10
36.1446
 20
22.5048
 30
0.0
 11
36.9439
 21
22.5048
 31
0.0
  0
LINE
  8
0
 62
     0
 10
36.9439
 20
22.5048
 30
0.0
 11
36.9439
 21
25.6053
 31
0.0
  0
LINE
  8
0
 62
     0
 10
36.9439
 20
25.6053
 30
0.0
 11
36.1446
 21
25.6053
 31
0.0
  0
LINE
  8
0
 62
     0
 10
36.1446
 20
25.6053
 30
0.0
 11
36.1446
 21
26.6044
 31
0.0
  0
LINE
  8
0
 62
     0
 10
36.1446
 20
26.6044
 30
0.0
 11
22.1437
 21
26.6044
 31
0.0
  0
LINE
  8
0
 62
     0
 10
210.263
 20
26.6044
 30
0.0
 11
210.263
 21
25.6053
 31
0.0
  0
LINE
  8
0
 62
     0
 10
210.263
 20
25.6053
 30
0.0
 11
209.463
 21
25.6053
 31
0.0
  0
LINE
  8
0
 62
     0
 10
209.463
 20
25.6053
 30
0.0
 11
209.463
 21
22.5048
 31
0.0
  0
LINE
  8
0
 62
     0
 10
209.463
 20
22.5048
 30
0.0
 11
210.263
 21
22.5048
 31
0.0
  0
LINE
  8
0
 62
     0
 10
210.263
 20
22.5048
 30
0.0
 11
210.263
 21
21.9053
 31
0.0
  0
LINE
  8
0
 62
     0
 10
210.263
 20
21.9053
 30
0.0
 11
208.738
 21
21.9053
 31
0.0
  0
LINE
  8
0
 62
     0
 10
208.738
 20
21.9053
 30
0.0
 11
208.738
 21
25.1354
 31
0.0
  0
LINE
  8
0
 62
     0
 10
208.738
 20
25.1354
 30
0.0
 11
201.987
 21
25.1354
 31
0.0
  0
LINE
  8
0
 62
     0
 10
201.987
 20
25.1354
 30
0.0
 11
201.987
 21
21.9053
 31
0.0
  0
LINE
  8
0
 62
     0
 10
201.987
 20
21.9053
 30
0.0
 11
201.163
 21
21.9053
 31
0.0
  0
LINE
  8
0
 62
     0
 10
201.163
 20
21.9053
 30
0.0
 11
201.163
 21
19.1051
 31
0.0
  0
LINE
  8
0
 62
     0
 10
201.163
 20
19.1051
 30
0.0
 11
201.987
 21
19.1051
 31
0.0
  0
LINE
  8
0
 62
     0
 10
201.987
 20
19.1051
 30
0.0
 11
201.987
 21
12.835
 31
0.0
  0
LINE
  8
0
 62
     0
 10
201.987
 20
12.835
 30
0.0
 11
203.713
 21
12.835
 31
0.0
  0
LINE
  8
0
 62
     0
 10
203.713
 20
12.835
 30
0.0
 11
203.713
 21
11.6348
 31
0.0
  0
LINE
  8
0
 62
     0
 10
203.713
 20
11.6348
 30
0.0
 11
207.013
 21
11.6348
 31
0.0
  0
LINE
  8
0
 62
     0
 10
207.013
 20
11.6348
 30
0.0
 11
207.013
 21
12.835
 31
0.0
  0
LINE
  8
0
 62
     0
 10
207.013
 20
12.835
 30
0.0
 11
208.738
 21
12.835
 31
0.0
  0
LINE
  8
0
 62
     0
 10
208.738
 20
12.835
 30
0.0
 11
208.738
 21
17.3054
 31
0.0
  0
LINE
  8
0
 62
     0
 10
208.738
 20
17.3054
 30
0.0
 11
210.263
 21
17.3054
 31
0.0
  0
LINE
  8
0
 62
     0
 10
210.263
 20
17.3054
 30
0.0
 11
210.263
 21
16.7046
 31
0.0
  0
LINE
  8
0
 62
     0
 10
210.263
 20
16.7046
 30
0.0
 11
209.463
 21
16.7046
 31
0.0
  0
LINE
  8
0
 62
     0
 10
209.463
 20
16.7046
 30
0.0
 11
209.463
 21
13.6054
 31
0.0
  0
LINE
  8
0
 62
     0
 10
209.463
 20
13.6054
 30
0.0
 11
210.263
 21
13.6054
 31
0.0
  0
LINE
  8
0
 62
     0
 10
210.263
 20
13.6054
 30
0.0
 11
210.263
 21
12.6049
 31
0.0
  0
LINE
  8
0
 62
     0
 10
210.263
 20
12.6049
 30
0.0
 11
224.263
 21
12.6049
 31
0.0
  0
LINE
  8
0
 62
     0
 10
224.263
 20
12.6049
 30
0.0
 11
224.263
 21
13.6054
 31
0.0
  0
LINE
  8
0
 62
     0
 10
224.263
 20
13.6054
 30
0.0
 11
225.063
 21
13.6054
 31
0.0
  0
LINE
  8
0
 62
     0
 10
225.063
 20
13.6054
 30
0.0
 11
225.063
 21
16.7046
 31
0.0
  0
LINE
  8
0
 62
     0
 10
225.063
 20
16.7046
 30
0.0
 11
224.263
 21
16.7046
 31
0.0
  0
LINE
  8
0
 62
     0
 10
224.263
 20
16.7046
 30
0.0
 11
224.263
 21
17.3054
 31
0.0
  0
LINE
  8
0
 62
     0
 10
224.263
 20
17.3054
 30
0.0
 11
225.787
 21
17.3054
 31
0.0
  0
LINE
  8
0
 62
     0
 10
225.787
 20
17.3054
 30
0.0
 11
225.787
 21
12.835
 31
0.0
  0
LINE
  8
0
 62
     0
 10
225.787
 20
12.835
 30
0.0
 11
227.513
 21
12.835
 31
0.0
  0
LINE
  8
0
 62
     0
 10
227.513
 20
12.835
 30
0.0
 11
227.513
 21
11.6348
 31
0.0
  0
LINE
  8
0
 62
     0
 10
227.513
 20
11.6348
 30
0.0
 11
230.813
 21
11.6348
 31
0.0
  0
LINE
  8
0
 62
     0
 10
230.813
 20
11.6348
 30
0.0
 11
230.813
 21
12.835
 31
0.0
  0
LINE
  8
0
 62
     0
 10
230.813
 20
12.835
 30
0.0
 11
232.537
 21
12.835
 31
0.0
  0
LINE
  8
0
 62
     0
 10
232.537
 20
12.835
 30
0.0
 11
232.537
 21
19.1051
 31
0.0
  0
LINE
  8
0
 62
     0
 10
232.537
 20
19.1051
 30
0.0
 11
233.363
 21
19.1051
 31
0.0
  0
LINE
  8
0
 62
     0
 10
233.363
 20
19.1051
 30
0.0
 11
233.363
 21
21.9053
 31
0.0
  0
LINE
  8
0
 62
     0
 10
233.363
 20
21.9053
 30
0.0
 11
232.537
 21
21.9053
 31
0.0
  0
LINE
  8
0
 62
     0
 10
232.537
 20
21.9053
 30
0.0
 11
232.537
 21
25.1354
 31
0.0
  0
LINE
  8
0
 62
     0
 10
232.537
 20
25.1354
 30
0.0
 11
225.787
 21
25.1354
 31
0.0
  0
LINE
  8
0
 62
     0
 10
225.787
 20
25.1354
 30
0.0
 11
225.787
 21
21.9053
 31
0.0
  0
LINE
  8
0
 62
     0
 10
225.787
 20
21.9053
 30
0.0
 11
224.263
 21
21.9053
 31
0.0
  0
LINE
  8
0
 62
     0
 10
224.263
 20
21.9053
 30
0.0
 11
224.263
 21
22.5048
 31
0.0
  0
LINE
  8
0
 62
     0
 10
224.263
 20
22.5048
 30
0.0
 11
225.063
 21
22.5048
 31
0.0
  0
LINE
  8
0
 62
     0
 10
225.063
 20
22.5048
 30
0.0
 11
225.063
 21
25.6053
 31
0.0
  0
LINE
  8
0
 62
     0
 10
225.063
 20
25.6053
 30
0.0
 11
224.263
 21
25.6053
 31
0.0
  0
LINE
  8
0
 62
     0
 10
224.263
 20
25.6053
 30
0.0
 11
224.263
 21
26.6044
 31
0.0
  0
LINE
  8
0
 62
     0
 10
224.263
 20
26.6044
 30
0.0
 11
210.263
 21
26.6044
 31
0.0
  0
LINE
  8
0
 62
     0
 10
50.7199
 20
26.6044
 30
0.0
 11
50.7199
 21
25.6053
 31
0.0
  0
LINE
  8
0
 62
     0
 10
50.7199
 20
25.6053
 30
0.0
 11
49.9195
 21
25.6053
 31
0.0
  0
LINE
  8
0
 62
     0
 10
49.9195
 20
25.6053
 30
0.0
 11
49.9195
 21
22.5048
 31
0.0
  0
LINE
  8
0
 62
     0
 10
49.9195
 20
22.5048
 30
0.0
 11
50.7199
 21
22.5048
 31
0.0
  0
LINE
  8
0
 62
     0
 10
50.7199
 20
22.5048
 30
0.0
 11
50.7199
 21
16.7046
 31
0.0
  0
LINE
  8
0
 62
     0
 10
50.7199
 20
16.7046
 30
0.0
 11
49.9195
 21
16.7046
 31
0.0
  0
LINE
  8
0
 62
     0
 10
49.9195
 20
16.7046
 30
0.0
 11
49.9195
 21
13.6054
 31
0.0
  0
LINE
  8
0
 62
     0
 10
49.9195
 20
13.6054
 30
0.0
 11
50.7199
 21
13.6054
 31
0.0
  0
LINE
  8
0
 62
     0
 10
50.7199
 20
13.6054
 30
0.0
 11
50.7199
 21
12.6049
 31
0.0
  0
LINE
  8
0
 62
     0
 10
50.7199
 20
12.6049
 30
0.0
 11
64.7196
 21
12.6049
 31
0.0
  0
LINE
  8
0
 62
     0
 10
64.7196
 20
12.6049
 30
0.0
 11
64.7196
 21
13.6054
 31
0.0
  0
LINE
  8
0
 62
     0
 10
64.7196
 20
13.6054
 30
0.0
 11
65.5204
 21
13.6054
 31
0.0
  0
LINE
  8
0
 62
     0
 10
65.5204
 20
13.6054
 30
0.0
 11
65.5204
 21
16.7046
 31
0.0
  0
LINE
  8
0
 62
     0
 10
65.5204
 20
16.7046
 30
0.0
 11
64.7196
 21
16.7046
 31
0.0
  0
LINE
  8
0
 62
     0
 10
64.7196
 20
16.7046
 30
0.0
 11
64.7196
 21
22.5048
 31
0.0
  0
LINE
  8
0
 62
     0
 10
64.7196
 20
22.5048
 30
0.0
 11
65.5204
 21
22.5048
 31
0.0
  0
LINE
  8
0
 62
     0
 10
65.5204
 20
22.5048
 30
0.0
 11
65.5204
 21
25.6053
 31
0.0
  0
LINE
  8
0
 62
     0
 10
65.5204
 20
25.6053
 30
0.0
 11
64.7196
 21
25.6053
 31
0.0
  0
LINE
  8
0
 62
     0
 10
64.7196
 20
25.6053
 30
0.0
 11
64.7196
 21
26.6044
 31
0.0
  0
LINE
  8
0
 62
     0
 10
64.7196
 20
26.6044
 30
0.0
 11
50.7199
 21
26.6044
 31
0.0
  0
LINE
  8
0
 62
     0
 10
100.726
 20
26.6044
 30
0.0
 11
100.726
 21
25.6053
 31
0.0
  0
LINE
  8
0
 62
     0
 10
100.726
 20
25.6053
 30
0.0
 11
99.9257
 21
25.6053
 31
0.0
  0
LINE
  8
0
 62
     0
 10
99.9257
 20
25.6053
 30
0.0
 11
99.9257
 21
22.5048
 31
0.0
  0
LINE
  8
0
 62
     0
 10
99.9257
 20
22.5048
 30
0.0
 11
100.726
 21
22.5048
 31
0.0
  0
LINE
  8
0
 62
     0
 10
100.726
 20
22.5048
 30
0.0
 11
100.726
 21
16.7046
 31
0.0
  0
LINE
  8
0
 62
     0
 10
100.726
 20
16.7046
 30
0.0
 11
99.9257
 21
16.7046
 31
0.0
  0
LINE
  8
0
 62
     0
 10
99.9257
 20
16.7046
 30
0.0
 11
99.9257
 21
13.6054
 31
0.0
  0
LINE
  8
0
 62
     0
 10
99.9257
 20
13.6054
 30
0.0
 11
100.726
 21
13.6054
 31
0.0
  0
LINE
  8
0
 62
     0
 10
100.726
 20
13.6054
 30
0.0
 11
100.726
 21
12.6049
 31
0.0
  0
LINE
  8
0
 62
     0
 10
100.726
 20
12.6049
 30
0.0
 11
114.726
 21
12.6049
 31
0.0
  0
LINE
  8
0
 62
     0
 10
114.726
 20
12.6049
 30
0.0
 11
114.726
 21
13.6054
 31
0.0
  0
LINE
  8
0
 62
     0
 10
114.726
 20
13.6054
 30
0.0
 11
115.525
 21
13.6054
 31
0.0
  0
LINE
  8
0
 62
     0
 10
115.525
 20
13.6054
 30
0.0
 11
115.525
 21
16.7046
 31
0.0
  0
LINE
  8
0
 62
     0
 10
115.525
 20
16.7046
 30
0.0
 11
114.726
 21
16.7046
 31
0.0
  0
LINE
  8
0
 62
     0
 10
114.726
 20
16.7046
 30
0.0
 11
114.726
 21
22.5048
 31
0.0
  0
LINE
  8
0
 62
     0
 10
114.726
 20
22.5048
 30
0.0
 11
115.525
 21
22.5048
 31
0.0
  0
LINE
  8
0
 62
     0
 10
115.525
 20
22.5048
 30
0.0
 11
115.525
 21
25.6053
 31
0.0
  0
LINE
  8
0
 62
     0
 10
115.525
 20
25.6053
 30
0.0
 11
114.726
 21
25.6053
 31
0.0
  0
LINE
  8
0
 62
     0
 10
114.726
 20
25.6053
 30
0.0
 11
114.726
 21
26.6044
 31
0.0
  0
LINE
  8
0
 62
     0
 10
114.726
 20
26.6044
 30
0.0
 11
100.726
 21
26.6044
 31
0.0
  0
LINE
  8
0
 62
     0
 10
124.538
 20
26.6044
 30
0.0
 11
124.538
 21
25.6053
 31
0.0
  0
LINE
  8
0
 62
     0
 10
124.538
 20
25.6053
 30
0.0
 11
123.738
 21
25.6053
 31
0.0
  0
LINE
  8
0
 62
     0
 10
123.738
 20
25.6053
 30
0.0
 11
123.738
 21
22.5048
 31
0.0
  0
LINE
  8
0
 62
     0
 10
123.738
 20
22.5048
 30
0.0
 11
124.538
 21
22.5048
 31
0.0
  0
LINE
  8
0
 62
     0
 10
124.538
 20
22.5048
 30
0.0
 11
124.538
 21
16.7046
 31
0.0
  0
LINE
  8
0
 62
     0
 10
124.538
 20
16.7046
 30
0.0
 11
123.738
 21
16.7046
 31
0.0
  0
LINE
  8
0
 62
     0
 10
123.738
 20
16.7046
 30
0.0
 11
123.738
 21
13.6054
 31
0.0
  0
LINE
  8
0
 62
     0
 10
123.738
 20
13.6054
 30
0.0
 11
124.538
 21
13.6054
 31
0.0
  0
LINE
  8
0
 62
     0
 10
124.538
 20
13.6054
 30
0.0
 11
124.538
 21
12.6049
 31
0.0
  0
LINE
  8
0
 62
     0
 10
124.538
 20
12.6049
 30
0.0
 11
138.538
 21
12.6049
 31
0.0
  0
LINE
  8
0
 62
     0
 10
138.538
 20
12.6049
 30
0.0
 11
138.538
 21
13.6054
 31
0.0
  0
LINE
  8
0
 62
     0
 10
138.538
 20
13.6054
 30
0.0
 11
139.338
 21
13.6054
 31
0.0
  0
LINE
  8
0
 62
     0
 10
139.338
 20
13.6054
 30
0.0
 11
139.338
 21
16.7046
 31
0.0
  0
LINE
  8
0
 62
     0
 10
139.338
 20
16.7046
 30
0.0
 11
138.538
 21
16.7046
 31
0.0
  0
LINE
  8
0
 62
     0
 10
138.538
 20
16.7046
 30
0.0
 11
138.538
 21
22.5048
 31
0.0
  0
LINE
  8
0
 62
     0
 10
138.538
 20
22.5048
 30
0.0
 11
139.338
 21
22.5048
 31
0.0
  0
LINE
  8
0
 62
     0
 10
139.338
 20
22.5048
 30
0.0
 11
139.338
 21
25.6053
 31
0.0
  0
LINE
  8
0
 62
     0
 10
139.338
 20
25.6053
 30
0.0
 11
138.538
 21
25.6053
 31
0.0
  0
LINE
  8
0
 62
     0
 10
138.538
 20
25.6053
 30
0.0
 11
138.538
 21
26.6044
 31
0.0
  0
LINE
  8
0
 62
     0
 10
138.538
 20
26.6044
 30
0.0
 11
124.538
 21
26.6044
 31
0.0
  0
LINE
  8
0
 62
     0
 10
148.351
 20
26.6044
 30
0.0
 11
148.351
 21
25.6053
 31
0.0
  0
LINE
  8
0
 62
     0
 10
148.351
 20
25.6053
 30
0.0
 11
147.551
 21
25.6053
 31
0.0
  0
LINE
  8
0
 62
     0
 10
147.551
 20
25.6053
 30
0.0
 11
147.551
 21
22.5048
 31
0.0
  0
LINE
  8
0
 62
     0
 10
147.551
 20
22.5048
 30
0.0
 11
148.351
 21
22.5048
 31
0.0
  0
LINE
  8
0
 62
     0
 10
148.351
 20
22.5048
 30
0.0
 11
148.351
 21
16.7046
 31
0.0
  0
LINE
  8
0
 62
     0
 10
148.351
 20
16.7046
 30
0.0
 11
147.551
 21
16.7046
 31
0.0
  0
LINE
  8
0
 62
     0
 10
147.551
 20
16.7046
 30
0.0
 11
147.551
 21
13.6054
 31
0.0
  0
LINE
  8
0
 62
     0
 10
147.551
 20
13.6054
 30
0.0
 11
148.351
 21
13.6054
 31
0.0
  0
LINE
  8
0
 62
     0
 10
148.351
 20
13.6054
 30
0.0
 11
148.351
 21
12.6049
 31
0.0
  0
LINE
  8
0
 62
     0
 10
148.351
 20
12.6049
 30
0.0
 11
162.351
 21
12.6049
 31
0.0
  0
LINE
  8
0
 62
     0
 10
162.351
 20
12.6049
 30
0.0
 11
162.351
 21
13.6054
 31
0.0
  0
LINE
  8
0
 62
     0
 10
162.351
 20
13.6054
 30
0.0
 11
163.15
 21
13.6054
 31
0.0
  0
LINE
  8
0
 62
     0
 10
163.15
 20
13.6054
 30
0.0
 11
163.15
 21
16.7046
 31
0.0
  0
LINE
  8
0
 62
     0
 10
163.15
 20
16.7046
 30
0.0
 11
162.351
 21
16.7046
 31
0.0
  0
LINE
  8
0
 62
     0
 10
162.351
 20
16.7046
 30
0.0
 11
162.351
 21
22.5048
 31
0.0
  0
LINE
  8
0
 62
     0
 10
162.351
 20
22.5048
 30
0.0
 11
163.15
 21
22.5048
 31
0.0
  0
LINE
  8
0
 62
     0
 10
163.15
 20
22.5048
 30
0.0
 11
163.15
 21
25.6053
 31
0.0
  0
LINE
  8
0
 62
     0
 10
163.15
 20
25.6053
 30
0.0
 11
162.351
 21
25.6053
 31
0.0
  0
LINE
  8
0
 62
     0
 10
162.351
 20
25.6053
 30
0.0
 11
162.351
 21
26.6044
 31
0.0
  0
LINE
  8
0
 62
     0
 10
162.351
 20
26.6044
 30
0.0
 11
148.351
 21
26.6044
 31
0.0
  0
LINE
  8
0
 62
     0
 10
172.163
 20
26.6044
 30
0.0
 11
172.163
 21
25.6053
 31
0.0
  0
LINE
  8
0
 62
     0
 10
172.163
 20
25.6053
 30
0.0
 11
171.363
 21
25.6053
 31
0.0
  0
LINE
  8
0
 62
     0
 10
171.363
 20
25.6053
 30
0.0
 11
171.363
 21
22.5048
 31
0.0
  0
LINE
  8
0
 62
     0
 10
171.363
 20
22.5048
 30
0.0
 11
172.163
 21
22.5048
 31
0.0
  0
LINE
  8
0
 62
     0
 10
172.163
 20
22.5048
 30
0.0
 11
172.163
 21
16.7046
 31
0.0
  0
LINE
  8
0
 62
     0
 10
172.163
 20
16.7046
 30
0.0
 11
171.363
 21
16.7046
 31
0.0
  0
LINE
  8
0
 62
     0
 10
171.363
 20
16.7046
 30
0.0
 11
171.363
 21
13.6054
 31
0.0
  0
LINE
  8
0
 62
     0
 10
171.363
 20
13.6054
 30
0.0
 11
172.163
 21
13.6054
 31
0.0
  0
LINE
  8
0
 62
     0
 10
172.163
 20
13.6054
 30
0.0
 11
172.163
 21
12.6049
 31
0.0
  0
LINE
  8
0
 62
     0
 10
172.163
 20
12.6049
 30
0.0
 11
186.163
 21
12.6049
 31
0.0
  0
LINE
  8
0
 62
     0
 10
186.163
 20
12.6049
 30
0.0
 11
186.163
 21
13.6054
 31
0.0
  0
LINE
  8
0
 62
     0
 10
186.163
 20
13.6054
 30
0.0
 11
186.963
 21
13.6054
 31
0.0
  0
LINE
  8
0
 62
     0
 10
186.963
 20
13.6054
 30
0.0
 11
186.963
 21
16.7046
 31
0.0
  0
LINE
  8
0
 62
     0
 10
186.963
 20
16.7046
 30
0.0
 11
186.163
 21
16.7046
 31
0.0
  0
LINE
  8
0
 62
     0
 10
186.163
 20
16.7046
 30
0.0
 11
186.163
 21
22.5048
 31
0.0
  0
LINE
  8
0
 62
     0
 10
186.163
 20
22.5048
 30
0.0
 11
186.963
 21
22.5048
 31
0.0
  0
LINE
  8
0
 62
     0
 10
186.963
 20
22.5048
 30
0.0
 11
186.963
 21
25.6053
 31
0.0
  0
LINE
  8
0
 62
     0
 10
186.963
 20
25.6053
 30
0.0
 11
186.163
 21
25.6053
 31
0.0
  0
LINE
  8
0
 62
     0
 10
186.163
 20
25.6053
 30
0.0
 11
186.163
 21
26.6044
 31
0.0
  0
LINE
  8
0
 62
     0
 10
186.163
 20
26.6044
 30
0.0
 11
172.163
 21
26.6044
 31
0.0
  0
LINE
  8
0
 62
     0
 10
76.2702
 20
45.23
 30
0.0
 11
76.2702
 21
44.4045
 31
0.0
  0
LINE
  8
0
 62
     0
 10
76.2702
 20
44.4045
 30
0.0
 11
70.0003
 21
44.4045
 31
0.0
  0
LINE
  8
0
 62
     0
 10
70.0003
 20
44.4045
 30
0.0
 11
70.0003
 21
42.6791
 31
0.0
  0
LINE
  8
0
 62
     0
 10
70.0003
 20
42.6791
 30
0.0
 11
68.7998
 21
42.6791
 31
0.0
  0
LINE
  8
0
 62
     0
 10
68.7998
 20
42.6791
 30
0.0
 11
68.7998
 21
39.3802
 31
0.0
  0
LINE
  8
0
 62
     0
 10
68.7998
 20
39.3802
 30
0.0
 11
70.0003
 21
39.3802
 31
0.0
  0
LINE
  8
0
 62
     0
 10
70.0003
 20
39.3802
 30
0.0
 11
70.0003
 21
37.6548
 31
0.0
  0
LINE
  8
0
 62
     0
 10
70.0003
 20
37.6548
 30
0.0
 11
74.4693
 21
37.6548
 31
0.0
  0
LINE
  8
0
 62
     0
 10
74.4693
 20
37.6548
 30
0.0
 11
74.4693
 21
36.1294
 31
0.0
  0
LINE
  8
0
 62
     0
 10
74.4693
 20
36.1294
 30
0.0
 11
73.8685
 21
36.1294
 31
0.0
  0
LINE
  8
0
 62
     0
 10
73.8685
 20
36.1294
 30
0.0
 11
73.8685
 21
36.9302
 31
0.0
  0
LINE
  8
0
 62
     0
 10
73.8685
 20
36.9302
 30
0.0
 11
70.769
 21
36.9302
 31
0.0
  0
LINE
  8
0
 62
     0
 10
70.769
 20
36.9302
 30
0.0
 11
70.769
 21
36.1294
 31
0.0
  0
LINE
  8
0
 62
     0
 10
70.769
 20
36.1294
 30
0.0
 11
69.7699
 21
36.1294
 31
0.0
  0
LINE
  8
0
 62
     0
 10
69.7699
 20
36.1294
 30
0.0
 11
69.7699
 21
22.1299
 31
0.0
  0
LINE
  8
0
 62
     0
 10
69.7699
 20
22.1299
 30
0.0
 11
70.769
 21
22.1299
 31
0.0
  0
LINE
  8
0
 62
     0
 10
70.769
 20
22.1299
 30
0.0
 11
70.769
 21
21.3293
 31
0.0
  0
LINE
  8
0
 62
     0
 10
70.769
 20
21.3293
 30
0.0
 11
73.8685
 21
21.3293
 31
0.0
  0
LINE
  8
0
 62
     0
 10
73.8685
 20
21.3293
 30
0.0
 11
73.8685
 21
22.1299
 31
0.0
  0
LINE
  8
0
 62
     0
 10
73.8685
 20
22.1299
 30
0.0
 11
74.4693
 21
22.1299
 31
0.0
  0
LINE
  8
0
 62
     0
 10
74.4693
 20
22.1299
 30
0.0
 11
74.4693
 21
20.6044
 31
0.0
  0
LINE
  8
0
 62
     0
 10
74.4693
 20
20.6044
 30
0.0
 11
70.0003
 21
20.6044
 31
0.0
  0
LINE
  8
0
 62
     0
 10
70.0003
 20
20.6044
 30
0.0
 11
70.0003
 21
18.8791
 31
0.0
  0
LINE
  8
0
 62
     0
 10
70.0003
 20
18.8791
 30
0.0
 11
68.7998
 21
18.8791
 31
0.0
  0
LINE
  8
0
 62
     0
 10
68.7998
 20
18.8791
 30
0.0
 11
68.7998
 21
15.5801
 31
0.0
  0
LINE
  8
0
 62
     0
 10
68.7998
 20
15.5801
 30
0.0
 11
70.0003
 21
15.5801
 31
0.0
  0
LINE
  8
0
 62
     0
 10
70.0003
 20
15.5801
 30
0.0
 11
70.0003
 21
13.8548
 31
0.0
  0
LINE
  8
0
 62
     0
 10
70.0003
 20
13.8548
 30
0.0
 11
76.2702
 21
13.8548
 31
0.0
  0
LINE
  8
0
 62
     0
 10
76.2702
 20
13.8548
 30
0.0
 11
76.2702
 21
13.0294
 31
0.0
  0
LINE
  8
0
 62
     0
 10
76.2702
 20
13.0294
 30
0.0
 11
79.0691
 21
13.0294
 31
0.0
  0
LINE
  8
0
 62
     0
 10
79.0691
 20
13.0294
 30
0.0
 11
79.0691
 21
13.8548
 31
0.0
  0
LINE
  8
0
 62
     0
 10
79.0691
 20
13.8548
 30
0.0
 11
82.2992
 21
13.8548
 31
0.0
  0
LINE
  8
0
 62
     0
 10
82.2992
 20
13.8548
 30
0.0
 11
82.2992
 21
20.6044
 31
0.0
  0
LINE
  8
0
 62
     0
 10
82.2992
 20
20.6044
 30
0.0
 11
79.0691
 21
20.6044
 31
0.0
  0
LINE
  8
0
 62
     0
 10
79.0691
 20
20.6044
 30
0.0
 11
79.0691
 21
22.1299
 31
0.0
  0
LINE
  8
0
 62
     0
 10
79.0691
 20
22.1299
 30
0.0
 11
79.6699
 21
22.1299
 31
0.0
  0
LINE
  8
0
 62
     0
 10
79.6699
 20
22.1299
 30
0.0
 11
79.6699
 21
21.3293
 31
0.0
  0
LINE
  8
0
 62
     0
 10
79.6699
 20
21.3293
 30
0.0
 11
82.7691
 21
21.3293
 31
0.0
  0
LINE
  8
0
 62
     0
 10
82.7691
 20
21.3293
 30
0.0
 11
82.7691
 21
22.1299
 31
0.0
  0
LINE
  8
0
 62
     0
 10
82.7691
 20
22.1299
 30
0.0
 11
83.7696
 21
22.1299
 31
0.0
  0
LINE
  8
0
 62
     0
 10
83.7696
 20
22.1299
 30
0.0
 11
83.7696
 21
36.1294
 31
0.0
  0
LINE
  8
0
 62
     0
 10
83.7696
 20
36.1294
 30
0.0
 11
82.7691
 21
36.1294
 31
0.0
  0
LINE
  8
0
 62
     0
 10
82.7691
 20
36.1294
 30
0.0
 11
82.7691
 21
36.9302
 31
0.0
  0
LINE
  8
0
 62
     0
 10
82.7691
 20
36.9302
 30
0.0
 11
79.6699
 21
36.9302
 31
0.0
  0
LINE
  8
0
 62
     0
 10
79.6699
 20
36.9302
 30
0.0
 11
79.6699
 21
36.1294
 31
0.0
  0
LINE
  8
0
 62
     0
 10
79.6699
 20
36.1294
 30
0.0
 11
79.0691
 21
36.1294
 31
0.0
  0
LINE
  8
0
 62
     0
 10
79.0691
 20
36.1294
 30
0.0
 11
79.0691
 21
37.6548
 31
0.0
  0
LINE
  8
0
 62
     0
 10
79.0691
 20
37.6548
 30
0.0
 11
82.2992
 21
37.6548
 31
0.0
  0
LINE
  8
0
 62
     0
 10
82.2992
 20
37.6548
 30
0.0
 11
82.2992
 21
44.4045
 31
0.0
  0
LINE
  8
0
 62
     0
 10
82.2992
 20
44.4045
 30
0.0
 11
79.0691
 21
44.4045
 31
0.0
  0
LINE
  8
0
 62
     0
 10
79.0691
 20
44.4045
 30
0.0
 11
79.0691
 21
45.23
 31
0.0
  0
LINE
  8
0
 62
     0
 10
79.0691
 20
45.23
 30
0.0
 11
76.2702
 21
45.23
 31
0.0
  0
LINE
  8
0
 62
     0
 10
110.251
 20
45.6544
 30
0.0
 11
110.251
 21
44.6553
 31
0.0
  0
LINE
  8
0
 62
     0
 10
110.251
 20
44.6553
 30
0.0
 11
109.451
 21
44.6553
 31
0.0
  0
LINE
  8
0
 62
     0
 10
109.451
 20
44.6553
 30
0.0
 11
109.451
 21
41.5548
 31
0.0
  0
LINE
  8
0
 62
     0
 10
109.451
 20
41.5548
 30
0.0
 11
110.251
 21
41.5548
 31
0.0
  0
LINE
  8
0
 62
     0
 10
110.251
 20
41.5548
 30
0.0
 11
110.251
 21
40.9554
 31
0.0
  0
LINE
  8
0
 62
     0
 10
110.251
 20
40.9554
 30
0.0
 11
108.726
 21
40.9554
 31
0.0
  0
LINE
  8
0
 62
     0
 10
108.726
 20
40.9554
 30
0.0
 11
108.726
 21
44.1854
 31
0.0
  0
LINE
  8
0
 62
     0
 10
108.726
 20
44.1854
 30
0.0
 11
101.976
 21
44.1854
 31
0.0
  0
LINE
  8
0
 62
     0
 10
101.976
 20
44.1854
 30
0.0
 11
101.976
 21
40.9554
 31
0.0
  0
LINE
  8
0
 62
     0
 10
101.976
 20
40.9554
 30
0.0
 11
101.151
 21
40.9554
 31
0.0
  0
LINE
  8
0
 62
     0
 10
101.151
 20
40.9554
 30
0.0
 11
101.151
 21
38.155
 31
0.0
  0
LINE
  8
0
 62
     0
 10
101.151
 20
38.155
 30
0.0
 11
101.976
 21
38.155
 31
0.0
  0
LINE
  8
0
 62
     0
 10
101.976
 20
38.155
 30
0.0
 11
101.976
 21
31.885
 31
0.0
  0
LINE
  8
0
 62
     0
 10
101.976
 20
31.885
 30
0.0
 11
103.7
 21
31.885
 31
0.0
  0
LINE
  8
0
 62
     0
 10
103.7
 20
31.885
 30
0.0
 11
103.7
 21
30.6848
 31
0.0
  0
LINE
  8
0
 62
     0
 10
103.7
 20
30.6848
 30
0.0
 11
107.001
 21
30.6848
 31
0.0
  0
LINE
  8
0
 62
     0
 10
107.001
 20
30.6848
 30
0.0
 11
107.001
 21
31.885
 31
0.0
  0
LINE
  8
0
 62
     0
 10
107.001
 20
31.885
 30
0.0
 11
108.726
 21
31.885
 31
0.0
  0
LINE
  8
0
 62
     0
 10
108.726
 20
31.885
 30
0.0
 11
108.726
 21
36.3555
 31
0.0
  0
LINE
  8
0
 62
     0
 10
108.726
 20
36.3555
 30
0.0
 11
110.251
 21
36.3555
 31
0.0
  0
LINE
  8
0
 62
     0
 10
110.251
 20
36.3555
 30
0.0
 11
110.251
 21
35.7547
 31
0.0
  0
LINE
  8
0
 62
     0
 10
110.251
 20
35.7547
 30
0.0
 11
109.451
 21
35.7547
 31
0.0
  0
LINE
  8
0
 62
     0
 10
109.451
 20
35.7547
 30
0.0
 11
109.451
 21
32.6554
 31
0.0
  0
LINE
  8
0
 62
     0
 10
109.451
 20
32.6554
 30
0.0
 11
110.251
 21
32.6554
 31
0.0
  0
LINE
  8
0
 62
     0
 10
110.251
 20
32.6554
 30
0.0
 11
110.251
 21
31.6549
 31
0.0
  0
LINE
  8
0
 62
     0
 10
110.251
 20
31.6549
 30
0.0
 11
124.251
 21
31.6549
 31
0.0
  0
LINE
  8
0
 62
     0
 10
124.251
 20
31.6549
 30
0.0
 11
124.251
 21
32.6554
 31
0.0
  0
LINE
  8
0
 62
     0
 10
124.251
 20
32.6554
 30
0.0
 11
125.05
 21
32.6554
 31
0.0
  0
LINE
  8
0
 62
     0
 10
125.05
 20
32.6554
 30
0.0
 11
125.05
 21
35.7547
 31
0.0
  0
LINE
  8
0
 62
     0
 10
125.05
 20
35.7547
 30
0.0
 11
124.251
 21
35.7547
 31
0.0
  0
LINE
  8
0
 62
     0
 10
124.251
 20
35.7547
 30
0.0
 11
124.251
 21
36.3555
 31
0.0
  0
LINE
  8
0
 62
     0
 10
124.251
 20
36.3555
 30
0.0
 11
125.776
 21
36.3555
 31
0.0
  0
LINE
  8
0
 62
     0
 10
125.776
 20
36.3555
 30
0.0
 11
125.776
 21
31.885
 31
0.0
  0
LINE
  8
0
 62
     0
 10
125.776
 20
31.885
 30
0.0
 11
127.5
 21
31.885
 31
0.0
  0
LINE
  8
0
 62
     0
 10
127.5
 20
31.885
 30
0.0
 11
127.5
 21
30.6848
 31
0.0
  0
LINE
  8
0
 62
     0
 10
127.5
 20
30.6848
 30
0.0
 11
130.8
 21
30.6848
 31
0.0
  0
LINE
  8
0
 62
     0
 10
130.8
 20
30.6848
 30
0.0
 11
130.8
 21
31.885
 31
0.0
  0
LINE
  8
0
 62
     0
 10
130.8
 20
31.885
 30
0.0
 11
132.526
 21
31.885
 31
0.0
  0
LINE
  8
0
 62
     0
 10
132.526
 20
31.885
 30
0.0
 11
132.526
 21
38.155
 31
0.0
  0
LINE
  8
0
 62
     0
 10
132.526
 20
38.155
 30
0.0
 11
133.351
 21
38.155
 31
0.0
  0
LINE
  8
0
 62
     0
 10
133.351
 20
38.155
 30
0.0
 11
133.351
 21
40.9554
 31
0.0
  0
LINE
  8
0
 62
     0
 10
133.351
 20
40.9554
 30
0.0
 11
132.526
 21
40.9554
 31
0.0
  0
LINE
  8
0
 62
     0
 10
132.526
 20
40.9554
 30
0.0
 11
132.526
 21
44.1854
 31
0.0
  0
LINE
  8
0
 62
     0
 10
132.526
 20
44.1854
 30
0.0
 11
125.776
 21
44.1854
 31
0.0
  0
LINE
  8
0
 62
     0
 10
125.776
 20
44.1854
 30
0.0
 11
125.776
 21
40.9554
 31
0.0
  0
LINE
  8
0
 62
     0
 10
125.776
 20
40.9554
 30
0.0
 11
124.251
 21
40.9554
 31
0.0
  0
LINE
  8
0
 62
     0
 10
124.251
 20
40.9554
 30
0.0
 11
124.251
 21
41.5548
 31
0.0
  0
LINE
  8
0
 62
     0
 10
124.251
 20
41.5548
 30
0.0
 11
125.05
 21
41.5548
 31
0.0
  0
LINE
  8
0
 62
     0
 10
125.05
 20
41.5548
 30
0.0
 11
125.05
 21
44.6553
 31
0.0
  0
LINE
  8
0
 62
     0
 10
125.05
 20
44.6553
 30
0.0
 11
124.251
 21
44.6553
 31
0.0
  0
LINE
  8
0
 62
     0
 10
124.251
 20
44.6553
 30
0.0
 11
124.251
 21
45.6544
 31
0.0
  0
LINE
  8
0
 62
     0
 10
124.251
 20
45.6544
 30
0.0
 11
110.251
 21
45.6544
 31
0.0
  0
LINE
  8
0
 62
     0
 10
12.6201
 20
45.6544
 30
0.0
 11
12.6201
 21
44.6553
 31
0.0
  0
LINE
  8
0
 62
     0
 10
12.6201
 20
44.6553
 30
0.0
 11
11.8194
 21
44.6553
 31
0.0
  0
LINE
  8
0
 62
     0
 10
11.8194
 20
44.6553
 30
0.0
 11
11.8194
 21
41.5548
 31
0.0
  0
LINE
  8
0
 62
     0
 10
11.8194
 20
41.5548
 30
0.0
 11
12.6201
 21
41.5548
 31
0.0
  0
LINE
  8
0
 62
     0
 10
12.6201
 20
41.5548
 30
0.0
 11
12.6201
 21
35.7547
 31
0.0
  0
LINE
  8
0
 62
     0
 10
12.6201
 20
35.7547
 30
0.0
 11
11.8194
 21
35.7547
 31
0.0
  0
LINE
  8
0
 62
     0
 10
11.8194
 20
35.7547
 30
0.0
 11
11.8194
 21
32.6554
 31
0.0
  0
LINE
  8
0
 62
     0
 10
11.8194
 20
32.6554
 30
0.0
 11
12.6201
 21
32.6554
 31
0.0
  0
LINE
  8
0
 62
     0
 10
12.6201
 20
32.6554
 30
0.0
 11
12.6201
 21
31.6549
 31
0.0
  0
LINE
  8
0
 62
     0
 10
12.6201
 20
31.6549
 30
0.0
 11
26.6196
 21
31.6549
 31
0.0
  0
LINE
  8
0
 62
     0
 10
26.6196
 20
31.6549
 30
0.0
 11
26.6196
 21
32.6554
 31
0.0
  0
LINE
  8
0
 62
     0
 10
26.6196
 20
32.6554
 30
0.0
 11
27.4175
 21
32.6554
 31
0.0
  0
LINE
  8
0
 62
     0
 10
27.4175
 20
32.6554
 30
0.0
 11
27.4175
 21
35.7547
 31
0.0
  0
LINE
  8
0
 62
     0
 10
27.4175
 20
35.7547
 30
0.0
 11
26.6196
 21
35.7547
 31
0.0
  0
LINE
  8
0
 62
     0
 10
26.6196
 20
35.7547
 30
0.0
 11
26.6196
 21
41.5548
 31
0.0
  0
LINE
  8
0
 62
     0
 10
26.6196
 20
41.5548
 30
0.0
 11
27.4175
 21
41.5548
 31
0.0
  0
LINE
  8
0
 62
     0
 10
27.4175
 20
41.5548
 30
0.0
 11
27.4175
 21
44.6553
 31
0.0
  0
LINE
  8
0
 62
     0
 10
27.4175
 20
44.6553
 30
0.0
 11
26.6196
 21
44.6553
 31
0.0
  0
LINE
  8
0
 62
     0
 10
26.6196
 20
44.6553
 30
0.0
 11
26.6196
 21
45.6544
 31
0.0
  0
LINE
  8
0
 62
     0
 10
26.6196
 20
45.6544
 30
0.0
 11
12.6201
 21
45.6544
 31
0.0
  0
LINE
  8
0
 62
     0
 10
31.6701
 20
45.6544
 30
0.0
 11
31.6701
 21
44.6553
 31
0.0
  0
LINE
  8
0
 62
     0
 10
31.6701
 20
44.6553
 30
0.0
 11
30.8694
 21
44.6553
 31
0.0
  0
LINE
  8
0
 62
     0
 10
30.8694
 20
44.6553
 30
0.0
 11
30.8694
 21
41.5548
 31
0.0
  0
LINE
  8
0
 62
     0
 10
30.8694
 20
41.5548
 30
0.0
 11
31.6701
 21
41.5548
 31
0.0
  0
LINE
  8
0
 62
     0
 10
31.6701
 20
41.5548
 30
0.0
 11
31.6701
 21
35.7547
 31
0.0
  0
LINE
  8
0
 62
     0
 10
31.6701
 20
35.7547
 30
0.0
 11
30.8694
 21
35.7547
 31
0.0
  0
LINE
  8
0
 62
     0
 10
30.8694
 20
35.7547
 30
0.0
 11
30.8694
 21
32.6554
 31
0.0
  0
LINE
  8
0
 62
     0
 10
30.8694
 20
32.6554
 30
0.0
 11
31.6701
 21
32.6554
 31
0.0
  0
LINE
  8
0
 62
     0
 10
31.6701
 20
32.6554
 30
0.0
 11
31.6701
 21
31.6549
 31
0.0
  0
LINE
  8
0
 62
     0
 10
31.6701
 20
31.6549
 30
0.0
 11
45.6696
 21
31.6549
 31
0.0
  0
LINE
  8
0
 62
     0
 10
45.6696
 20
31.6549
 30
0.0
 11
45.6696
 21
32.6554
 31
0.0
  0
LINE
  8
0
 62
     0
 10
45.6696
 20
32.6554
 30
0.0
 11
46.4704
 21
32.6554
 31
0.0
  0
LINE
  8
0
 62
     0
 10
46.4704
 20
32.6554
 30
0.0
 11
46.4704
 21
35.7547
 31
0.0
  0
LINE
  8
0
 62
     0
 10
46.4704
 20
35.7547
 30
0.0
 11
45.6696
 21
35.7547
 31
0.0
  0
LINE
  8
0
 62
     0
 10
45.6696
 20
35.7547
 30
0.0
 11
45.6696
 21
41.5548
 31
0.0
  0
LINE
  8
0
 62
     0
 10
45.6696
 20
41.5548
 30
0.0
 11
46.4704
 21
41.5548
 31
0.0
  0
LINE
  8
0
 62
     0
 10
46.4704
 20
41.5548
 30
0.0
 11
46.4704
 21
44.6553
 31
0.0
  0
LINE
  8
0
 62
     0
 10
46.4704
 20
44.6553
 30
0.0
 11
45.6696
 21
44.6553
 31
0.0
  0
LINE
  8
0
 62
     0
 10
45.6696
 20
44.6553
 30
0.0
 11
45.6696
 21
45.6544
 31
0.0
  0
LINE
  8
0
 62
     0
 10
45.6696
 20
45.6544
 30
0.0
 11
31.6701
 21
45.6544
 31
0.0
  0
LINE
  8
0
 62
     0
 10
50.7199
 20
45.6544
 30
0.0
 11
50.7199
 21
44.6553
 31
0.0
  0
LINE
  8
0
 62
     0
 10
50.7199
 20
44.6553
 30
0.0
 11
49.9195
 21
44.6553
 31
0.0
  0
LINE
  8
0
 62
     0
 10
49.9195
 20
44.6553
 30
0.0
 11
49.9195
 21
41.5548
 31
0.0
  0
LINE
  8
0
 62
     0
 10
49.9195
 20
41.5548
 30
0.0
 11
50.7199
 21
41.5548
 31
0.0
  0
LINE
  8
0
 62
     0
 10
50.7199
 20
41.5548
 30
0.0
 11
50.7199
 21
35.7547
 31
0.0
  0
LINE
  8
0
 62
     0
 10
50.7199
 20
35.7547
 30
0.0
 11
49.9195
 21
35.7547
 31
0.0
  0
LINE
  8
0
 62
     0
 10
49.9195
 20
35.7547
 30
0.0
 11
49.9195
 21
32.6554
 31
0.0
  0
LINE
  8
0
 62
     0
 10
49.9195
 20
32.6554
 30
0.0
 11
50.7199
 21
32.6554
 31
0.0
  0
LINE
  8
0
 62
     0
 10
50.7199
 20
32.6554
 30
0.0
 11
50.7199
 21
31.6549
 31
0.0
  0
LINE
  8
0
 62
     0
 10
50.7199
 20
31.6549
 30
0.0
 11
64.7196
 21
31.6549
 31
0.0
  0
LINE
  8
0
 62
     0
 10
64.7196
 20
31.6549
 30
0.0
 11
64.7196
 21
32.6554
 31
0.0
  0
LINE
  8
0
 62
     0
 10
64.7196
 20
32.6554
 30
0.0
 11
65.5204
 21
32.6554
 31
0.0
  0
LINE
  8
0
 62
     0
 10
65.5204
 20
32.6554
 30
0.0
 11
65.5204
 21
35.7547
 31
0.0
  0
LINE
  8
0
 62
     0
 10
65.5204
 20
35.7547
 30
0.0
 11
64.7196
 21
35.7547
 31
0.0
  0
LINE
  8
0
 62
     0
 10
64.7196
 20
35.7547
 30
0.0
 11
64.7196
 21
41.5548
 31
0.0
  0
LINE
  8
0
 62
     0
 10
64.7196
 20
41.5548
 30
0.0
 11
65.5204
 21
41.5548
 31
0.0
  0
LINE
  8
0
 62
     0
 10
65.5204
 20
41.5548
 30
0.0
 11
65.5204
 21
44.6553
 31
0.0
  0
LINE
  8
0
 62
     0
 10
65.5204
 20
44.6553
 30
0.0
 11
64.7196
 21
44.6553
 31
0.0
  0
LINE
  8
0
 62
     0
 10
64.7196
 20
44.6553
 30
0.0
 11
64.7196
 21
45.6544
 31
0.0
  0
LINE
  8
0
 62
     0
 10
64.7196
 20
45.6544
 30
0.0
 11
50.7199
 21
45.6544
 31
0.0
  0
LINE
  8
0
 62
     0
 10
141.206
 20
45.6544
 30
0.0
 11
141.206
 21
44.6553
 31
0.0
  0
LINE
  8
0
 62
     0
 10
141.206
 20
44.6553
 30
0.0
 11
140.407
 21
44.6553
 31
0.0
  0
LINE
  8
0
 62
     0
 10
140.407
 20
44.6553
 30
0.0
 11
140.407
 21
41.5548
 31
0.0
  0
LINE
  8
0
 62
     0
 10
140.407
 20
41.5548
 30
0.0
 11
141.206
 21
41.5548
 31
0.0
  0
LINE
  8
0
 62
     0
 10
141.206
 20
41.5548
 30
0.0
 11
141.206
 21
35.7547
 31
0.0
  0
LINE
  8
0
 62
     0
 10
141.206
 20
35.7547
 30
0.0
 11
140.407
 21
35.7547
 31
0.0
  0
LINE
  8
0
 62
     0
 10
140.407
 20
35.7547
 30
0.0
 11
140.407
 21
32.6554
 31
0.0
  0
LINE
  8
0
 62
     0
 10
140.407
 20
32.6554
 30
0.0
 11
141.206
 21
32.6554
 31
0.0
  0
LINE
  8
0
 62
     0
 10
141.206
 20
32.6554
 30
0.0
 11
141.206
 21
31.6549
 31
0.0
  0
LINE
  8
0
 62
     0
 10
141.206
 20
31.6549
 30
0.0
 11
155.207
 21
31.6549
 31
0.0
  0
LINE
  8
0
 62
     0
 10
155.207
 20
31.6549
 30
0.0
 11
155.207
 21
32.6554
 31
0.0
  0
LINE
  8
0
 62
     0
 10
155.207
 20
32.6554
 30
0.0
 11
156.006
 21
32.6554
 31
0.0
  0
LINE
  8
0
 62
     0
 10
156.006
 20
32.6554
 30
0.0
 11
156.006
 21
35.7547
 31
0.0
  0
LINE
  8
0
 62
     0
 10
156.006
 20
35.7547
 30
0.0
 11
155.207
 21
35.7547
 31
0.0
  0
LINE
  8
0
 62
     0
 10
155.207
 20
35.7547
 30
0.0
 11
155.207
 21
41.5548
 31
0.0
  0
LINE
  8
0
 62
     0
 10
155.207
 20
41.5548
 30
0.0
 11
156.006
 21
41.5548
 31
0.0
  0
LINE
  8
0
 62
     0
 10
156.006
 20
41.5548
 30
0.0
 11
156.006
 21
44.6553
 31
0.0
  0
LINE
  8
0
 62
     0
 10
156.006
 20
44.6553
 30
0.0
 11
155.207
 21
44.6553
 31
0.0
  0
LINE
  8
0
 62
     0
 10
155.207
 20
44.6553
 30
0.0
 11
155.207
 21
45.6544
 31
0.0
  0
LINE
  8
0
 62
     0
 10
155.207
 20
45.6544
 30
0.0
 11
141.206
 21
45.6544
 31
0.0
  0
LINE
  8
0
 62
     0
 10
160.256
 20
45.6544
 30
0.0
 11
160.256
 21
44.6553
 31
0.0
  0
LINE
  8
0
 62
     0
 10
160.256
 20
44.6553
 30
0.0
 11
159.457
 21
44.6553
 31
0.0
  0
LINE
  8
0
 62
     0
 10
159.457
 20
44.6553
 30
0.0
 11
159.457
 21
41.5548
 31
0.0
  0
LINE
  8
0
 62
     0
 10
159.457
 20
41.5548
 30
0.0
 11
160.256
 21
41.5548
 31
0.0
  0
LINE
  8
0
 62
     0
 10
160.256
 20
41.5548
 30
0.0
 11
160.256
 21
35.7547
 31
0.0
  0
LINE
  8
0
 62
     0
 10
160.256
 20
35.7547
 30
0.0
 11
159.457
 21
35.7547
 31
0.0
  0
LINE
  8
0
 62
     0
 10
159.457
 20
35.7547
 30
0.0
 11
159.457
 21
32.6554
 31
0.0
  0
LINE
  8
0
 62
     0
 10
159.457
 20
32.6554
 30
0.0
 11
160.256
 21
32.6554
 31
0.0
  0
LINE
  8
0
 62
     0
 10
160.256
 20
32.6554
 30
0.0
 11
160.256
 21
31.6549
 31
0.0
  0
LINE
  8
0
 62
     0
 10
160.256
 20
31.6549
 30
0.0
 11
174.257
 21
31.6549
 31
0.0
  0
LINE
  8
0
 62
     0
 10
174.257
 20
31.6549
 30
0.0
 11
174.257
 21
32.6554
 31
0.0
  0
LINE
  8
0
 62
     0
 10
174.257
 20
32.6554
 30
0.0
 11
175.056
 21
32.6554
 31
0.0
  0
LINE
  8
0
 62
     0
 10
175.056
 20
32.6554
 30
0.0
 11
175.056
 21
35.7547
 31
0.0
  0
LINE
  8
0
 62
     0
 10
175.056
 20
35.7547
 30
0.0
 11
174.257
 21
35.7547
 31
0.0
  0
LINE
  8
0
 62
     0
 10
174.257
 20
35.7547
 30
0.0
 11
174.257
 21
41.5548
 31
0.0
  0
LINE
  8
0
 62
     0
 10
174.257
 20
41.5548
 30
0.0
 11
175.056
 21
41.5548
 31
0.0
  0
LINE
  8
0
 62
     0
 10
175.056
 20
41.5548
 30
0.0
 11
175.056
 21
44.6553
 31
0.0
  0
LINE
  8
0
 62
     0
 10
175.056
 20
44.6553
 30
0.0
 11
174.257
 21
44.6553
 31
0.0
  0
LINE
  8
0
 62
     0
 10
174.257
 20
44.6553
 30
0.0
 11
174.257
 21
45.6544
 31
0.0
  0
LINE
  8
0
 62
     0
 10
174.257
 20
45.6544
 30
0.0
 11
160.256
 21
45.6544
 31
0.0
  0
LINE
  8
0
 62
     0
 10
179.306
 20
45.6544
 30
0.0
 11
179.306
 21
44.6553
 31
0.0
  0
LINE
  8
0
 62
     0
 10
179.306
 20
44.6553
 30
0.0
 11
178.507
 21
44.6553
 31
0.0
  0
LINE
  8
0
 62
     0
 10
178.507
 20
44.6553
 30
0.0
 11
178.507
 21
41.5548
 31
0.0
  0
LINE
  8
0
 62
     0
 10
178.507
 20
41.5548
 30
0.0
 11
179.306
 21
41.5548
 31
0.0
  0
LINE
  8
0
 62
     0
 10
179.306
 20
41.5548
 30
0.0
 11
179.306
 21
35.7547
 31
0.0
  0
LINE
  8
0
 62
     0
 10
179.306
 20
35.7547
 30
0.0
 11
178.507
 21
35.7547
 31
0.0
  0
LINE
  8
0
 62
     0
 10
178.507
 20
35.7547
 30
0.0
 11
178.507
 21
32.6554
 31
0.0
  0
LINE
  8
0
 62
     0
 10
178.507
 20
32.6554
 30
0.0
 11
179.306
 21
32.6554
 31
0.0
  0
LINE
  8
0
 62
     0
 10
179.306
 20
32.6554
 30
0.0
 11
179.306
 21
31.6549
 31
0.0
  0
LINE
  8
0
 62
     0
 10
179.306
 20
31.6549
 30
0.0
 11
193.307
 21
31.6549
 31
0.0
  0
LINE
  8
0
 62
     0
 10
193.307
 20
31.6549
 30
0.0
 11
193.307
 21
32.6554
 31
0.0
  0
LINE
  8
0
 62
     0
 10
193.307
 20
32.6554
 30
0.0
 11
194.106
 21
32.6554
 31
0.0
  0
LINE
  8
0
 62
     0
 10
194.106
 20
32.6554
 30
0.0
 11
194.106
 21
35.7547
 31
0.0
  0
LINE
  8
0
 62
     0
 10
194.106
 20
35.7547
 30
0.0
 11
193.307
 21
35.7547
 31
0.0
  0
LINE
  8
0
 62
     0
 10
193.307
 20
35.7547
 30
0.0
 11
193.307
 21
41.5548
 31
0.0
  0
LINE
  8
0
 62
     0
 10
193.307
 20
41.5548
 30
0.0
 11
194.106
 21
41.5548
 31
0.0
  0
LINE
  8
0
 62
     0
 10
194.106
 20
41.5548
 30
0.0
 11
194.106
 21
44.6553
 31
0.0
  0
LINE
  8
0
 62
     0
 10
194.106
 20
44.6553
 30
0.0
 11
193.307
 21
44.6553
 31
0.0
  0
LINE
  8
0
 62
     0
 10
193.307
 20
44.6553
 30
0.0
 11
193.307
 21
45.6544
 31
0.0
  0
LINE
  8
0
 62
     0
 10
193.307
 20
45.6544
 30
0.0
 11
179.306
 21
45.6544
 31
0.0
  0
LINE
  8
0
 62
     0
 10
198.356
 20
45.6544
 30
0.0
 11
198.356
 21
44.6553
 31
0.0
  0
LINE
  8
0
 62
     0
 10
198.356
 20
44.6553
 30
0.0
 11
197.557
 21
44.6553
 31
0.0
  0
LINE
  8
0
 62
     0
 10
197.557
 20
44.6553
 30
0.0
 11
197.557
 21
41.5548
 31
0.0
  0
LINE
  8
0
 62
     0
 10
197.557
 20
41.5548
 30
0.0
 11
198.356
 21
41.5548
 31
0.0
  0
LINE
  8
0
 62
     0
 10
198.356
 20
41.5548
 30
0.0
 11
198.356
 21
35.7547
 31
0.0
  0
LINE
  8
0
 62
     0
 10
198.356
 20
35.7547
 30
0.0
 11
197.557
 21
35.7547
 31
0.0
  0
LINE
  8
0
 62
     0
 10
197.557
 20
35.7547
 30
0.0
 11
197.557
 21
32.6554
 31
0.0
  0
LINE
  8
0
 62
     0
 10
197.557
 20
32.6554
 30
0.0
 11
198.356
 21
32.6554
 31
0.0
  0
LINE
  8
0
 62
     0
 10
198.356
 20
32.6554
 30
0.0
 11
198.356
 21
31.6549
 31
0.0
  0
LINE
  8
0
 62
     0
 10
198.356
 20
31.6549
 30
0.0
 11
212.357
 21
31.6549
 31
0.0
  0
LINE
  8
0
 62
     0
 10
212.357
 20
31.6549
 30
0.0
 11
212.357
 21
32.6554
 31
0.0
  0
LINE
  8
0
 62
     0
 10
212.357
 20
32.6554
 30
0.0
 11
213.156
 21
32.6554
 31
0.0
  0
LINE
  8
0
 62
     0
 10
213.156
 20
32.6554
 30
0.0
 11
213.156
 21
35.7547
 31
0.0
  0
LINE
  8
0
 62
     0
 10
213.156
 20
35.7547
 30
0.0
 11
212.357
 21
35.7547
 31
0.0
  0
LINE
  8
0
 62
     0
 10
212.357
 20
35.7547
 30
0.0
 11
212.357
 21
41.5548
 31
0.0
  0
LINE
  8
0
 62
     0
 10
212.357
 20
41.5548
 30
0.0
 11
213.156
 21
41.5548
 31
0.0
  0
LINE
  8
0
 62
     0
 10
213.156
 20
41.5548
 30
0.0
 11
213.156
 21
44.6553
 31
0.0
  0
LINE
  8
0
 62
     0
 10
213.156
 20
44.6553
 30
0.0
 11
212.357
 21
44.6553
 31
0.0
  0
LINE
  8
0
 62
     0
 10
212.357
 20
44.6553
 30
0.0
 11
212.357
 21
45.6544
 31
0.0
  0
LINE
  8
0
 62
     0
 10
212.357
 20
45.6544
 30
0.0
 11
198.356
 21
45.6544
 31
0.0
  0
LINE
  8
0
 62
     0
 10
217.406
 20
45.6544
 30
0.0
 11
217.406
 21
44.6553
 31
0.0
  0
LINE
  8
0
 62
     0
 10
217.406
 20
44.6553
 30
0.0
 11
216.607
 21
44.6553
 31
0.0
  0
LINE
  8
0
 62
     0
 10
216.607
 20
44.6553
 30
0.0
 11
216.607
 21
41.5548
 31
0.0
  0
LINE
  8
0
 62
     0
 10
216.607
 20
41.5548
 30
0.0
 11
217.406
 21
41.5548
 31
0.0
  0
LINE
  8
0
 62
     0
 10
217.406
 20
41.5548
 30
0.0
 11
217.406
 21
35.7547
 31
0.0
  0
LINE
  8
0
 62
     0
 10
217.406
 20
35.7547
 30
0.0
 11
216.607
 21
35.7547
 31
0.0
  0
LINE
  8
0
 62
     0
 10
216.607
 20
35.7547
 30
0.0
 11
216.607
 21
32.6554
 31
0.0
  0
LINE
  8
0
 62
     0
 10
216.607
 20
32.6554
 30
0.0
 11
217.406
 21
32.6554
 31
0.0
  0
LINE
  8
0
 62
     0
 10
217.406
 20
32.6554
 30
0.0
 11
217.406
 21
31.6549
 31
0.0
  0
LINE
  8
0
 62
     0
 10
217.406
 20
31.6549
 30
0.0
 11
231.407
 21
31.6549
 31
0.0
  0
LINE
  8
0
 62
     0
 10
231.407
 20
31.6549
 30
0.0
 11
231.407
 21
32.6554
 31
0.0
  0
LINE
  8
0
 62
     0
 10
231.407
 20
32.6554
 30
0.0
 11
232.206
 21
32.6554
 31
0.0
  0
LINE
  8
0
 62
     0
 10
232.206
 20
32.6554
 30
0.0
 11
232.206
 21
35.7547
 31
0.0
  0
LINE
  8
0
 62
     0
 10
232.206
 20
35.7547
 30
0.0
 11
231.407
 21
35.7547
 31
0.0
  0
LINE
  8
0
 62
     0
 10
231.407
 20
35.7547
 30
0.0
 11
231.407
 21
41.5548
 31
0.0
  0
LINE
  8
0
 62
     0
 10
231.407
 20
41.5548
 30
0.0
 11
232.206
 21
41.5548
 31
0.0
  0
LINE
  8
0
 62
     0
 10
232.206
 20
41.5548
 30
0.0
 11
232.206
 21
44.6553
 31
0.0
  0
LINE
  8
0
 62
     0
 10
232.206
 20
44.6553
 30
0.0
 11
231.407
 21
44.6553
 31
0.0
  0
LINE
  8
0
 62
     0
 10
231.407
 20
44.6553
 30
0.0
 11
231.407
 21
45.6544
 31
0.0
  0
LINE
  8
0
 62
     0
 10
231.407
 20
45.6544
 30
0.0
 11
217.406
 21
45.6544
 31
0.0
  0
LINE
  8
0
 62
     0
 10
236.456
 20
45.6544
 30
0.0
 11
236.456
 21
44.6553
 31
0.0
  0
LINE
  8
0
 62
     0
 10
236.456
 20
44.6553
 30
0.0
 11
235.657
 21
44.6553
 31
0.0
  0
LINE
  8
0
 62
     0
 10
235.657
 20
44.6553
 30
0.0
 11
235.657
 21
41.5548
 31
0.0
  0
LINE
  8
0
 62
     0
 10
235.657
 20
41.5548
 30
0.0
 11
236.456
 21
41.5548
 31
0.0
  0
LINE
  8
0
 62
     0
 10
236.456
 20
41.5548
 30
0.0
 11
236.456
 21
35.7547
 31
0.0
  0
LINE
  8
0
 62
     0
 10
236.456
 20
35.7547
 30
0.0
 11
235.657
 21
35.7547
 31
0.0
  0
LINE
  8
0
 62
     0
 10
235.657
 20
35.7547
 30
0.0
 11
235.657
 21
32.6554
 31
0.0
  0
LINE
  8
0
 62
     0
 10
235.657
 20
32.6554
 30
0.0
 11
236.456
 21
32.6554
 31
0.0
  0
LINE
  8
0
 62
     0
 10
236.456
 20
32.6554
 30
0.0
 11
236.456
 21
31.6549
 31
0.0
  0
LINE
  8
0
 62
     0
 10
236.456
 20
31.6549
 30
0.0
 11
250.457
 21
31.6549
 31
0.0
  0
LINE
  8
0
 62
     0
 10
250.457
 20
31.6549
 30
0.0
 11
250.457
 21
32.6554
 31
0.0
  0
LINE
  8
0
 62
     0
 10
250.457
 20
32.6554
 30
0.0
 11
251.256
 21
32.6554
 31
0.0
  0
LINE
  8
0
 62
     0
 10
251.256
 20
32.6554
 30
0.0
 11
251.256
 21
35.7547
 31
0.0
  0
LINE
  8
0
 62
     0
 10
251.256
 20
35.7547
 30
0.0
 11
250.457
 21
35.7547
 31
0.0
  0
LINE
  8
0
 62
     0
 10
250.457
 20
35.7547
 30
0.0
 11
250.457
 21
41.5548
 31
0.0
  0
LINE
  8
0
 62
     0
 10
250.457
 20
41.5548
 30
0.0
 11
251.256
 21
41.5548
 31
0.0
  0
LINE
  8
0
 62
     0
 10
251.256
 20
41.5548
 30
0.0
 11
251.256
 21
44.6553
 31
0.0
  0
LINE
  8
0
 62
     0
 10
251.256
 20
44.6553
 30
0.0
 11
250.457
 21
44.6553
 31
0.0
  0
LINE
  8
0
 62
     0
 10
250.457
 20
44.6553
 30
0.0
 11
250.457
 21
45.6544
 31
0.0
  0
LINE
  8
0
 62
     0
 10
250.457
 20
45.6544
 30
0.0
 11
236.456
 21
45.6544
 31
0.0
  0
LINE
  8
0
 62
     0
 10
12.6201
 20
64.7044
 30
0.0
 11
12.6201
 21
63.7053
 31
0.0
  0
LINE
  8
0
 62
     0
 10
12.6201
 20
63.7053
 30
0.0
 11
11.8194
 21
63.7053
 31
0.0
  0
LINE
  8
0
 62
     0
 10
11.8194
 20
63.7053
 30
0.0
 11
11.8194
 21
60.6048
 31
0.0
  0
LINE
  8
0
 62
     0
 10
11.8194
 20
60.6048
 30
0.0
 11
12.6201
 21
60.6048
 31
0.0
  0
LINE
  8
0
 62
     0
 10
12.6201
 20
60.6048
 30
0.0
 11
12.6201
 21
54.8047
 31
0.0
  0
LINE
  8
0
 62
     0
 10
12.6201
 20
54.8047
 30
0.0
 11
11.8194
 21
54.8047
 31
0.0
  0
LINE
  8
0
 62
     0
 10
11.8194
 20
54.8047
 30
0.0
 11
11.8194
 21
51.7052
 31
0.0
  0
LINE
  8
0
 62
     0
 10
11.8194
 20
51.7052
 30
0.0
 11
12.6201
 21
51.7052
 31
0.0
  0
LINE
  8
0
 62
     0
 10
12.6201
 20
51.7052
 30
0.0
 11
12.6201
 21
50.7047
 31
0.0
  0
LINE
  8
0
 62
     0
 10
12.6201
 20
50.7047
 30
0.0
 11
26.6196
 21
50.7047
 31
0.0
  0
LINE
  8
0
 62
     0
 10
26.6196
 20
50.7047
 30
0.0
 11
26.6196
 21
51.7052
 31
0.0
  0
LINE
  8
0
 62
     0
 10
26.6196
 20
51.7052
 30
0.0
 11
27.4175
 21
51.7052
 31
0.0
  0
LINE
  8
0
 62
     0
 10
27.4175
 20
51.7052
 30
0.0
 11
27.4175
 21
54.8047
 31
0.0
  0
LINE
  8
0
 62
     0
 10
27.4175
 20
54.8047
 30
0.0
 11
26.6196
 21
54.8047
 31
0.0
  0
LINE
  8
0
 62
     0
 10
26.6196
 20
54.8047
 30
0.0
 11
26.6196
 21
60.6048
 31
0.0
  0
LINE
  8
0
 62
     0
 10
26.6196
 20
60.6048
 30
0.0
 11
27.4175
 21
60.6048
 31
0.0
  0
LINE
  8
0
 62
     0
 10
27.4175
 20
60.6048
 30
0.0
 11
27.4175
 21
63.7053
 31
0.0
  0
LINE
  8
0
 62
     0
 10
27.4175
 20
63.7053
 30
0.0
 11
26.6196
 21
63.7053
 31
0.0
  0
LINE
  8
0
 62
     0
 10
26.6196
 20
63.7053
 30
0.0
 11
26.6196
 21
64.7044
 31
0.0
  0
LINE
  8
0
 62
     0
 10
26.6196
 20
64.7044
 30
0.0
 11
12.6201
 21
64.7044
 31
0.0
  0
LINE
  8
0
 62
     0
 10
31.6701
 20
64.7044
 30
0.0
 11
31.6701
 21
63.7053
 31
0.0
  0
LINE
  8
0
 62
     0
 10
31.6701
 20
63.7053
 30
0.0
 11
30.8694
 21
63.7053
 31
0.0
  0
LINE
  8
0
 62
     0
 10
30.8694
 20
63.7053
 30
0.0
 11
30.8694
 21
60.6048
 31
0.0
  0
LINE
  8
0
 62
     0
 10
30.8694
 20
60.6048
 30
0.0
 11
31.6701
 21
60.6048
 31
0.0
  0
LINE
  8
0
 62
     0
 10
31.6701
 20
60.6048
 30
0.0
 11
31.6701
 21
54.8047
 31
0.0
  0
LINE
  8
0
 62
     0
 10
31.6701
 20
54.8047
 30
0.0
 11
30.8694
 21
54.8047
 31
0.0
  0
LINE
  8
0
 62
     0
 10
30.8694
 20
54.8047
 30
0.0
 11
30.8694
 21
51.7052
 31
0.0
  0
LINE
  8
0
 62
     0
 10
30.8694
 20
51.7052
 30
0.0
 11
31.6701
 21
51.7052
 31
0.0
  0
LINE
  8
0
 62
     0
 10
31.6701
 20
51.7052
 30
0.0
 11
31.6701
 21
50.7047
 31
0.0
  0
LINE
  8
0
 62
     0
 10
31.6701
 20
50.7047
 30
0.0
 11
45.6696
 21
50.7047
 31
0.0
  0
LINE
  8
0
 62
     0
 10
45.6696
 20
50.7047
 30
0.0
 11
45.6696
 21
51.7052
 31
0.0
  0
LINE
  8
0
 62
     0
 10
45.6696
 20
51.7052
 30
0.0
 11
46.4704
 21
51.7052
 31
0.0
  0
LINE
  8
0
 62
     0
 10
46.4704
 20
51.7052
 30
0.0
 11
46.4704
 21
54.8047
 31
0.0
  0
LINE
  8
0
 62
     0
 10
46.4704
 20
54.8047
 30
0.0
 11
45.6696
 21
54.8047
 31
0.0
  0
LINE
  8
0
 62
     0
 10
45.6696
 20
54.8047
 30
0.0
 11
45.6696
 21
60.6048
 31
0.0
  0
LINE
  8
0
 62
     0
 10
45.6696
 20
60.6048
 30
0.0
 11
46.4704
 21
60.6048
 31
0.0
  0
LINE
  8
0
 62
     0
 10
46.4704
 20
60.6048
 30
0.0
 11
46.4704
 21
63.7053
 31
0.0
  0
LINE
  8
0
 62
     0
 10
46.4704
 20
63.7053
 30
0.0
 11
45.6696
 21
63.7053
 31
0.0
  0
LINE
  8
0
 62
     0
 10
45.6696
 20
63.7053
 30
0.0
 11
45.6696
 21
64.7044
 31
0.0
  0
LINE
  8
0
 62
     0
 10
45.6696
 20
64.7044
 30
0.0
 11
31.6701
 21
64.7044
 31
0.0
  0
LINE
  8
0
 62
     0
 10
50.7199
 20
64.7044
 30
0.0
 11
50.7199
 21
63.7053
 31
0.0
  0
LINE
  8
0
 62
     0
 10
50.7199
 20
63.7053
 30
0.0
 11
49.9195
 21
63.7053
 31
0.0
  0
LINE
  8
0
 62
     0
 10
49.9195
 20
63.7053
 30
0.0
 11
49.9195
 21
60.6048
 31
0.0
  0
LINE
  8
0
 62
     0
 10
49.9195
 20
60.6048
 30
0.0
 11
50.7199
 21
60.6048
 31
0.0
  0
LINE
  8
0
 62
     0
 10
50.7199
 20
60.6048
 30
0.0
 11
50.7199
 21
54.8047
 31
0.0
  0
LINE
  8
0
 62
     0
 10
50.7199
 20
54.8047
 30
0.0
 11
49.9195
 21
54.8047
 31
0.0
  0
LINE
  8
0
 62
     0
 10
49.9195
 20
54.8047
 30
0.0
 11
49.9195
 21
51.7052
 31
0.0
  0
LINE
  8
0
 62
     0
 10
49.9195
 20
51.7052
 30
0.0
 11
50.7199
 21
51.7052
 31
0.0
  0
LINE
  8
0
 62
     0
 10
50.7199
 20
51.7052
 30
0.0
 11
50.7199
 21
50.7047
 31
0.0
  0
LINE
  8
0
 62
     0
 10
50.7199
 20
50.7047
 30
0.0
 11
64.7196
 21
50.7047
 31
0.0
  0
LINE
  8
0
 62
     0
 10
64.7196
 20
50.7047
 30
0.0
 11
64.7196
 21
51.7052
 31
0.0
  0
LINE
  8
0
 62
     0
 10
64.7196
 20
51.7052
 30
0.0
 11
65.5204
 21
51.7052
 31
0.0
  0
LINE
  8
0
 62
     0
 10
65.5204
 20
51.7052
 30
0.0
 11
65.5204
 21
54.8047
 31
0.0
  0
LINE
  8
0
 62
     0
 10
65.5204
 20
54.8047
 30
0.0
 11
64.7196
 21
54.8047
 31
0.0
  0
LINE
  8
0
 62
     0
 10
64.7196
 20
54.8047
 30
0.0
 11
64.7196
 21
60.6048
 31
0.0
  0
LINE
  8
0
 62
     0
 10
64.7196
 20
60.6048
 30
0.0
 11
65.5204
 21
60.6048
 31
0.0
  0
LINE
  8
0
 62
     0
 10
65.5204
 20
60.6048
 30
0.0
 11
65.5204
 21
63.7053
 31
0.0
  0
LINE
  8
0
 62
     0
 10
65.5204
 20
63.7053
 30
0.0
 11
64.7196
 21
63.7053
 31
0.0
  0
LINE
  8
0
 62
     0
 10
64.7196
 20
63.7053
 30
0.0
 11
64.7196
 21
64.7044
 31
0.0
  0
LINE
  8
0
 62
     0
 10
64.7196
 20
64.7044
 30
0.0
 11
50.7199
 21
64.7044
 31
0.0
  0
LINE
  8
0
 62
     0
 10
105.488
 20
64.7044
 30
0.0
 11
105.488
 21
63.7053
 31
0.0
  0
LINE
  8
0
 62
     0
 10
105.488
 20
63.7053
 30
0.0
 11
104.688
 21
63.7053
 31
0.0
  0
LINE
  8
0
 62
     0
 10
104.688
 20
63.7053
 30
0.0
 11
104.688
 21
60.6048
 31
0.0
  0
LINE
  8
0
 62
     0
 10
104.688
 20
60.6048
 30
0.0
 11
105.488
 21
60.6048
 31
0.0
  0
LINE
  8
0
 62
     0
 10
105.488
 20
60.6048
 30
0.0
 11
105.488
 21
54.8047
 31
0.0
  0
LINE
  8
0
 62
     0
 10
105.488
 20
54.8047
 30
0.0
 11
104.688
 21
54.8047
 31
0.0
  0
LINE
  8
0
 62
     0
 10
104.688
 20
54.8047
 30
0.0
 11
104.688
 21
51.7052
 31
0.0
  0
LINE
  8
0
 62
     0
 10
104.688
 20
51.7052
 30
0.0
 11
105.488
 21
51.7052
 31
0.0
  0
LINE
  8
0
 62
     0
 10
105.488
 20
51.7052
 30
0.0
 11
105.488
 21
50.7047
 31
0.0
  0
LINE
  8
0
 62
     0
 10
105.488
 20
50.7047
 30
0.0
 11
119.488
 21
50.7047
 31
0.0
  0
LINE
  8
0
 62
     0
 10
119.488
 20
50.7047
 30
0.0
 11
119.488
 21
51.7052
 31
0.0
  0
LINE
  8
0
 62
     0
 10
119.488
 20
51.7052
 30
0.0
 11
120.288
 21
51.7052
 31
0.0
  0
LINE
  8
0
 62
     0
 10
120.288
 20
51.7052
 30
0.0
 11
120.288
 21
54.8047
 31
0.0
  0
LINE
  8
0
 62
     0
 10
120.288
 20
54.8047
 30
0.0
 11
119.488
 21
54.8047
 31
0.0
  0
LINE
  8
0
 62
     0
 10
119.488
 20
54.8047
 30
0.0
 11
119.488
 21
60.6048
 31
0.0
  0
LINE
  8
0
 62
     0
 10
119.488
 20
60.6048
 30
0.0
 11
120.288
 21
60.6048
 31
0.0
  0
LINE
  8
0
 62
     0
 10
120.288
 20
60.6048
 30
0.0
 11
120.288
 21
63.7053
 31
0.0
  0
LINE
  8
0
 62
     0
 10
120.288
 20
63.7053
 30
0.0
 11
119.488
 21
63.7053
 31
0.0
  0
LINE
  8
0
 62
     0
 10
119.488
 20
63.7053
 30
0.0
 11
119.488
 21
64.7044
 31
0.0
  0
LINE
  8
0
 62
     0
 10
119.488
 20
64.7044
 30
0.0
 11
105.488
 21
64.7044
 31
0.0
  0
LINE
  8
0
 62
     0
 10
131.681
 20
64.7044
 30
0.0
 11
131.681
 21
63.7053
 31
0.0
  0
LINE
  8
0
 62
     0
 10
131.681
 20
63.7053
 30
0.0
 11
130.882
 21
63.7053
 31
0.0
  0
LINE
  8
0
 62
     0
 10
130.882
 20
63.7053
 30
0.0
 11
130.882
 21
60.6048
 31
0.0
  0
LINE
  8
0
 62
     0
 10
130.882
 20
60.6048
 30
0.0
 11
131.681
 21
60.6048
 31
0.0
  0
LINE
  8
0
 62
     0
 10
131.681
 20
60.6048
 30
0.0
 11
131.681
 21
54.8047
 31
0.0
  0
LINE
  8
0
 62
     0
 10
131.681
 20
54.8047
 30
0.0
 11
130.882
 21
54.8047
 31
0.0
  0
LINE
  8
0
 62
     0
 10
130.882
 20
54.8047
 30
0.0
 11
130.882
 21
51.7052
 31
0.0
  0
LINE
  8
0
 62
     0
 10
130.882
 20
51.7052
 30
0.0
 11
131.681
 21
51.7052
 31
0.0
  0
LINE
  8
0
 62
     0
 10
131.681
 20
51.7052
 30
0.0
 11
131.681
 21
50.7047
 31
0.0
  0
LINE
  8
0
 62
     0
 10
131.681
 20
50.7047
 30
0.0
 11
145.682
 21
50.7047
 31
0.0
  0
LINE
  8
0
 62
     0
 10
145.682
 20
50.7047
 30
0.0
 11
145.682
 21
51.7052
 31
0.0
  0
LINE
  8
0
 62
     0
 10
145.682
 20
51.7052
 30
0.0
 11
146.481
 21
51.7052
 31
0.0
  0
LINE
  8
0
 62
     0
 10
146.481
 20
51.7052
 30
0.0
 11
146.481
 21
54.8047
 31
0.0
  0
LINE
  8
0
 62
     0
 10
146.481
 20
54.8047
 30
0.0
 11
145.682
 21
54.8047
 31
0.0
  0
LINE
  8
0
 62
     0
 10
145.682
 20
54.8047
 30
0.0
 11
145.682
 21
60.6048
 31
0.0
  0
LINE
  8
0
 62
     0
 10
145.682
 20
60.6048
 30
0.0
 11
146.481
 21
60.6048
 31
0.0
  0
LINE
  8
0
 62
     0
 10
146.481
 20
60.6048
 30
0.0
 11
146.481
 21
63.7053
 31
0.0
  0
LINE
  8
0
 62
     0
 10
146.481
 20
63.7053
 30
0.0
 11
145.682
 21
63.7053
 31
0.0
  0
LINE
  8
0
 62
     0
 10
145.682
 20
63.7053
 30
0.0
 11
145.682
 21
64.7044
 31
0.0
  0
LINE
  8
0
 62
     0
 10
145.682
 20
64.7044
 30
0.0
 11
131.681
 21
64.7044
 31
0.0
  0
LINE
  8
0
 62
     0
 10
150.731
 20
64.7044
 30
0.0
 11
150.731
 21
63.7053
 31
0.0
  0
LINE
  8
0
 62
     0
 10
150.731
 20
63.7053
 30
0.0
 11
149.932
 21
63.7053
 31
0.0
  0
LINE
  8
0
 62
     0
 10
149.932
 20
63.7053
 30
0.0
 11
149.932
 21
60.6048
 31
0.0
  0
LINE
  8
0
 62
     0
 10
149.932
 20
60.6048
 30
0.0
 11
150.731
 21
60.6048
 31
0.0
  0
LINE
  8
0
 62
     0
 10
150.731
 20
60.6048
 30
0.0
 11
150.731
 21
54.8047
 31
0.0
  0
LINE
  8
0
 62
     0
 10
150.731
 20
54.8047
 30
0.0
 11
149.932
 21
54.8047
 31
0.0
  0
LINE
  8
0
 62
     0
 10
149.932
 20
54.8047
 30
0.0
 11
149.932
 21
51.7052
 31
0.0
  0
LINE
  8
0
 62
     0
 10
149.932
 20
51.7052
 30
0.0
 11
150.731
 21
51.7052
 31
0.0
  0
LINE
  8
0
 62
     0
 10
150.731
 20
51.7052
 30
0.0
 11
150.731
 21
50.7047
 31
0.0
  0
LINE
  8
0
 62
     0
 10
150.731
 20
50.7047
 30
0.0
 11
164.732
 21
50.7047
 31
0.0
  0
LINE
  8
0
 62
     0
 10
164.732
 20
50.7047
 30
0.0
 11
164.732
 21
51.7052
 31
0.0
  0
LINE
  8
0
 62
     0
 10
164.732
 20
51.7052
 30
0.0
 11
165.531
 21
51.7052
 31
0.0
  0
LINE
  8
0
 62
     0
 10
165.531
 20
51.7052
 30
0.0
 11
165.531
 21
54.8047
 31
0.0
  0
LINE
  8
0
 62
     0
 10
165.531
 20
54.8047
 30
0.0
 11
164.732
 21
54.8047
 31
0.0
  0
LINE
  8
0
 62
     0
 10
164.732
 20
54.8047
 30
0.0
 11
164.732
 21
60.6048
 31
0.0
  0
LINE
  8
0
 62
     0
 10
164.732
 20
60.6048
 30
0.0
 11
165.531
 21
60.6048
 31
0.0
  0
LINE
  8
0
 62
     0
 10
165.531
 20
60.6048
 30
0.0
 11
165.531
 21
63.7053
 31
0.0
  0
LINE
  8
0
 62
     0
 10
165.531
 20
63.7053
 30
0.0
 11
164.732
 21
63.7053
 31
0.0
  0
LINE
  8
0
 62
     0
 10
164.732
 20
63.7053
 30
0.0
 11
164.732
 21
64.7044
 31
0.0
  0
LINE
  8
0
 62
     0
 10
164.732
 20
64.7044
 30
0.0
 11
150.731
 21
64.7044
 31
0.0
  0
LINE
  8
0
 62
     0
 10
169.781
 20
64.7044
 30
0.0
 11
169.781
 21
63.7053
 31
0.0
  0
LINE
  8
0
 62
     0
 10
169.781
 20
63.7053
 30
0.0
 11
168.982
 21
63.7053
 31
0.0
  0
LINE
  8
0
 62
     0
 10
168.982
 20
63.7053
 30
0.0
 11
168.982
 21
60.6048
 31
0.0
  0
LINE
  8
0
 62
     0
 10
168.982
 20
60.6048
 30
0.0
 11
169.781
 21
60.6048
 31
0.0
  0
LINE
  8
0
 62
     0
 10
169.781
 20
60.6048
 30
0.0
 11
169.781
 21
54.8047
 31
0.0
  0
LINE
  8
0
 62
     0
 10
169.781
 20
54.8047
 30
0.0
 11
168.982
 21
54.8047
 31
0.0
  0
LINE
  8
0
 62
     0
 10
168.982
 20
54.8047
 30
0.0
 11
168.982
 21
51.7052
 31
0.0
  0
LINE
  8
0
 62
     0
 10
168.982
 20
51.7052
 30
0.0
 11
169.781
 21
51.7052
 31
0.0
  0
LINE
  8
0
 62
     0
 10
169.781
 20
51.7052
 30
0.0
 11
169.781
 21
50.7047
 31
0.0
  0
LINE
  8
0
 62
     0
 10
169.781
 20
50.7047
 30
0.0
 11
183.782
 21
50.7047
 31
0.0
  0
LINE
  8
0
 62
     0
 10
183.782
 20
50.7047
 30
0.0
 11
183.782
 21
51.7052
 31
0.0
  0
LINE
  8
0
 62
     0
 10
183.782
 20
51.7052
 30
0.0
 11
184.581
 21
51.7052
 31
0.0
  0
LINE
  8
0
 62
     0
 10
184.581
 20
51.7052
 30
0.0
 11
184.581
 21
54.8047
 31
0.0
  0
LINE
  8
0
 62
     0
 10
184.581
 20
54.8047
 30
0.0
 11
183.782
 21
54.8047
 31
0.0
  0
LINE
  8
0
 62
     0
 10
183.782
 20
54.8047
 30
0.0
 11
183.782
 21
60.6048
 31
0.0
  0
LINE
  8
0
 62
     0
 10
183.782
 20
60.6048
 30
0.0
 11
184.581
 21
60.6048
 31
0.0
  0
LINE
  8
0
 62
     0
 10
184.581
 20
60.6048
 30
0.0
 11
184.581
 21
63.7053
 31
0.0
  0
LINE
  8
0
 62
     0
 10
184.581
 20
63.7053
 30
0.0
 11
183.782
 21
63.7053
 31
0.0
  0
LINE
  8
0
 62
     0
 10
183.782
 20
63.7053
 30
0.0
 11
183.782
 21
64.7044
 31
0.0
  0
LINE
  8
0
 62
     0
 10
183.782
 20
64.7044
 30
0.0
 11
169.781
 21
64.7044
 31
0.0
  0
LINE
  8
0
 62
     0
 10
188.831
 20
64.7044
 30
0.0
 11
188.831
 21
63.7053
 31
0.0
  0
LINE
  8
0
 62
     0
 10
188.831
 20
63.7053
 30
0.0
 11
188.032
 21
63.7053
 31
0.0
  0
LINE
  8
0
 62
     0
 10
188.032
 20
63.7053
 30
0.0
 11
188.032
 21
60.6048
 31
0.0
  0
LINE
  8
0
 62
     0
 10
188.032
 20
60.6048
 30
0.0
 11
188.831
 21
60.6048
 31
0.0
  0
LINE
  8
0
 62
     0
 10
188.831
 20
60.6048
 30
0.0
 11
188.831
 21
54.8047
 31
0.0
  0
LINE
  8
0
 62
     0
 10
188.831
 20
54.8047
 30
0.0
 11
188.032
 21
54.8047
 31
0.0
  0
LINE
  8
0
 62
     0
 10
188.032
 20
54.8047
 30
0.0
 11
188.032
 21
51.7052
 31
0.0
  0
LINE
  8
0
 62
     0
 10
188.032
 20
51.7052
 30
0.0
 11
188.831
 21
51.7052
 31
0.0
  0
LINE
  8
0
 62
     0
 10
188.831
 20
51.7052
 30
0.0
 11
188.831
 21
50.7047
 31
0.0
  0
LINE
  8
0
 62
     0
 10
188.831
 20
50.7047
 30
0.0
 11
202.832
 21
50.7047
 31
0.0
  0
LINE
  8
0
 62
     0
 10
202.832
 20
50.7047
 30
0.0
 11
202.832
 21
51.7052
 31
0.0
  0
LINE
  8
0
 62
     0
 10
202.832
 20
51.7052
 30
0.0
 11
203.631
 21
51.7052
 31
0.0
  0
LINE
  8
0
 62
     0
 10
203.631
 20
51.7052
 30
0.0
 11
203.631
 21
54.8047
 31
0.0
  0
LINE
  8
0
 62
     0
 10
203.631
 20
54.8047
 30
0.0
 11
202.832
 21
54.8047
 31
0.0
  0
LINE
  8
0
 62
     0
 10
202.832
 20
54.8047
 30
0.0
 11
202.832
 21
60.6048
 31
0.0
  0
LINE
  8
0
 62
     0
 10
202.832
 20
60.6048
 30
0.0
 11
203.631
 21
60.6048
 31
0.0
  0
LINE
  8
0
 62
     0
 10
203.631
 20
60.6048
 30
0.0
 11
203.631
 21
63.7053
 31
0.0
  0
LINE
  8
0
 62
     0
 10
203.631
 20
63.7053
 30
0.0
 11
202.832
 21
63.7053
 31
0.0
  0
LINE
  8
0
 62
     0
 10
202.832
 20
63.7053
 30
0.0
 11
202.832
 21
64.7044
 31
0.0
  0
LINE
  8
0
 62
     0
 10
202.832
 20
64.7044
 30
0.0
 11
188.831
 21
64.7044
 31
0.0
  0
LINE
  8
0
 62
     0
 10
207.881
 20
64.7044
 30
0.0
 11
207.881
 21
63.7053
 31
0.0
  0
LINE
  8
0
 62
     0
 10
207.881
 20
63.7053
 30
0.0
 11
207.082
 21
63.7053
 31
0.0
  0
LINE
  8
0
 62
     0
 10
207.082
 20
63.7053
 30
0.0
 11
207.082
 21
60.6048
 31
0.0
  0
LINE
  8
0
 62
     0
 10
207.082
 20
60.6048
 30
0.0
 11
207.881
 21
60.6048
 31
0.0
  0
LINE
  8
0
 62
     0
 10
207.881
 20
60.6048
 30
0.0
 11
207.881
 21
54.8047
 31
0.0
  0
LINE
  8
0
 62
     0
 10
207.881
 20
54.8047
 30
0.0
 11
207.082
 21
54.8047
 31
0.0
  0
LINE
  8
0
 62
     0
 10
207.082
 20
54.8047
 30
0.0
 11
207.082
 21
51.7052
 31
0.0
  0
LINE
  8
0
 62
     0
 10
207.082
 20
51.7052
 30
0.0
 11
207.881
 21
51.7052
 31
0.0
  0
LINE
  8
0
 62
     0
 10
207.881
 20
51.7052
 30
0.0
 11
207.881
 21
50.7047
 31
0.0
  0
LINE
  8
0
 62
     0
 10
207.881
 20
50.7047
 30
0.0
 11
221.882
 21
50.7047
 31
0.0
  0
LINE
  8
0
 62
     0
 10
221.882
 20
50.7047
 30
0.0
 11
221.882
 21
51.7052
 31
0.0
  0
LINE
  8
0
 62
     0
 10
221.882
 20
51.7052
 30
0.0
 11
222.681
 21
51.7052
 31
0.0
  0
LINE
  8
0
 62
     0
 10
222.681
 20
51.7052
 30
0.0
 11
222.681
 21
54.8047
 31
0.0
  0
LINE
  8
0
 62
     0
 10
222.681
 20
54.8047
 30
0.0
 11
221.882
 21
54.8047
 31
0.0
  0
LINE
  8
0
 62
     0
 10
221.882
 20
54.8047
 30
0.0
 11
221.882
 21
60.6048
 31
0.0
  0
LINE
  8
0
 62
     0
 10
221.882
 20
60.6048
 30
0.0
 11
222.681
 21
60.6048
 31
0.0
  0
LINE
  8
0
 62
     0
 10
222.681
 20
60.6048
 30
0.0
 11
222.681
 21
63.7053
 31
0.0
  0
LINE
  8
0
 62
     0
 10
222.681
 20
63.7053
 30
0.0
 11
221.882
 21
63.7053
 31
0.0
  0
LINE
  8
0
 62
     0
 10
221.882
 20
63.7053
 30
0.0
 11
221.882
 21
64.7044
 31
0.0
  0
LINE
  8
0
 62
     0
 10
221.882
 20
64.7044
 30
0.0
 11
207.881
 21
64.7044
 31
0.0
  0
LINE
  8
0
 62
     0
 10
226.931
 20
64.7044
 30
0.0
 11
226.931
 21
63.7053
 31
0.0
  0
LINE
  8
0
 62
     0
 10
226.931
 20
63.7053
 30
0.0
 11
226.132
 21
63.7053
 31
0.0
  0
LINE
  8
0
 62
     0
 10
226.132
 20
63.7053
 30
0.0
 11
226.132
 21
60.6048
 31
0.0
  0
LINE
  8
0
 62
     0
 10
226.132
 20
60.6048
 30
0.0
 11
226.931
 21
60.6048
 31
0.0
  0
LINE
  8
0
 62
     0
 10
226.931
 20
60.6048
 30
0.0
 11
226.931
 21
54.8047
 31
0.0
  0
LINE
  8
0
 62
     0
 10
226.931
 20
54.8047
 30
0.0
 11
226.132
 21
54.8047
 31
0.0
  0
LINE
  8
0
 62
     0
 10
226.132
 20
54.8047
 30
0.0
 11
226.132
 21
51.7052
 31
0.0
  0
LINE
  8
0
 62
     0
 10
226.132
 20
51.7052
 30
0.0
 11
226.931
 21
51.7052
 31
0.0
  0
LINE
  8
0
 62
     0
 10
226.931
 20
51.7052
 30
0.0
 11
226.931
 21
50.7047
 31
0.0
  0
LINE
  8
0
 62
     0
 10
226.931
 20
50.7047
 30
0.0
 11
240.932
 21
50.7047
 31
0.0
  0
LINE
  8
0
 62
     0
 10
240.932
 20
50.7047
 30
0.0
 11
240.932
 21
51.7052
 31
0.0
  0
LINE
  8
0
 62
     0
 10
240.932
 20
51.7052
 30
0.0
 11
241.731
 21
51.7052
 31
0.0
  0
LINE
  8
0
 62
     0
 10
241.731
 20
51.7052
 30
0.0
 11
241.731
 21
54.8047
 31
0.0
  0
LINE
  8
0
 62
     0
 10
241.731
 20
54.8047
 30
0.0
 11
240.932
 21
54.8047
 31
0.0
  0
LINE
  8
0
 62
     0
 10
240.932
 20
54.8047
 30
0.0
 11
240.932
 21
60.6048
 31
0.0
  0
LINE
  8
0
 62
     0
 10
240.932
 20
60.6048
 30
0.0
 11
241.731
 21
60.6048
 31
0.0
  0
LINE
  8
0
 62
     0
 10
241.731
 20
60.6048
 30
0.0
 11
241.731
 21
63.7053
 31
0.0
  0
LINE
  8
0
 62
     0
 10
241.731
 20
63.7053
 30
0.0
 11
240.932
 21
63.7053
 31
0.0
  0
LINE
  8
0
 62
     0
 10
240.932
 20
63.7053
 30
0.0
 11
240.932
 21
64.7044
 31
0.0
  0
LINE
  8
0
 62
     0
 10
240.932
 20
64.7044
 30
0.0
 11
226.931
 21
64.7044
 31
0.0
  0
LINE
  8
0
 62
     0
 10
76.2702
 20
83.33
 30
0.0
 11
76.2702
 21
82.5045
 31
0.0
  0
LINE
  8
0
 62
     0
 10
76.2702
 20
82.5045
 30
0.0
 11
70.0003
 21
82.5045
 31
0.0
  0
LINE
  8
0
 62
     0
 10
70.0003
 20
82.5045
 30
0.0
 11
70.0003
 21
80.7791
 31
0.0
  0
LINE
  8
0
 62
     0
 10
70.0003
 20
80.7791
 30
0.0
 11
68.7998
 21
80.7791
 31
0.0
  0
LINE
  8
0
 62
     0
 10
68.7998
 20
80.7791
 30
0.0
 11
68.7998
 21
77.4802
 31
0.0
  0
LINE
  8
0
 62
     0
 10
68.7998
 20
77.4802
 30
0.0
 11
70.0003
 21
77.4802
 31
0.0
  0
LINE
  8
0
 62
     0
 10
70.0003
 20
77.4802
 30
0.0
 11
70.0003
 21
75.7548
 31
0.0
  0
LINE
  8
0
 62
     0
 10
70.0003
 20
75.7548
 30
0.0
 11
74.4693
 21
75.7548
 31
0.0
  0
LINE
  8
0
 62
     0
 10
74.4693
 20
75.7548
 30
0.0
 11
74.4693
 21
74.2294
 31
0.0
  0
LINE
  8
0
 62
     0
 10
74.4693
 20
74.2294
 30
0.0
 11
73.8685
 21
74.2294
 31
0.0
  0
LINE
  8
0
 62
     0
 10
73.8685
 20
74.2294
 30
0.0
 11
73.8685
 21
75.0302
 31
0.0
  0
LINE
  8
0
 62
     0
 10
73.8685
 20
75.0302
 30
0.0
 11
70.769
 21
75.0302
 31
0.0
  0
LINE
  8
0
 62
     0
 10
70.769
 20
75.0302
 30
0.0
 11
70.769
 21
74.2294
 31
0.0
  0
LINE
  8
0
 62
     0
 10
70.769
 20
74.2294
 30
0.0
 11
69.7699
 21
74.2294
 31
0.0
  0
LINE
  8
0
 62
     0
 10
69.7699
 20
74.2294
 30
0.0
 11
69.7699
 21
60.2297
 31
0.0
  0
LINE
  8
0
 62
     0
 10
69.7699
 20
60.2297
 30
0.0
 11
70.769
 21
60.2297
 31
0.0
  0
LINE
  8
0
 62
     0
 10
70.769
 20
60.2297
 30
0.0
 11
70.769
 21
59.4293
 31
0.0
  0
LINE
  8
0
 62
     0
 10
70.769
 20
59.4293
 30
0.0
 11
73.8685
 21
59.4293
 31
0.0
  0
LINE
  8
0
 62
     0
 10
73.8685
 20
59.4293
 30
0.0
 11
73.8685
 21
60.2297
 31
0.0
  0
LINE
  8
0
 62
     0
 10
73.8685
 20
60.2297
 30
0.0
 11
74.4693
 21
60.2297
 31
0.0
  0
LINE
  8
0
 62
     0
 10
74.4693
 20
60.2297
 30
0.0
 11
74.4693
 21
58.7043
 31
0.0
  0
LINE
  8
0
 62
     0
 10
74.4693
 20
58.7043
 30
0.0
 11
70.0003
 21
58.7043
 31
0.0
  0
LINE
  8
0
 62
     0
 10
70.0003
 20
58.7043
 30
0.0
 11
70.0003
 21
56.9793
 31
0.0
  0
LINE
  8
0
 62
     0
 10
70.0003
 20
56.9793
 30
0.0
 11
68.7998
 21
56.9793
 31
0.0
  0
LINE
  8
0
 62
     0
 10
68.7998
 20
56.9793
 30
0.0
 11
68.7998
 21
53.6801
 31
0.0
  0
LINE
  8
0
 62
     0
 10
68.7998
 20
53.6801
 30
0.0
 11
70.0003
 21
53.6801
 31
0.0
  0
LINE
  8
0
 62
     0
 10
70.0003
 20
53.6801
 30
0.0
 11
70.0003
 21
51.9546
 31
0.0
  0
LINE
  8
0
 62
     0
 10
70.0003
 20
51.9546
 30
0.0
 11
76.2702
 21
51.9546
 31
0.0
  0
LINE
  8
0
 62
     0
 10
76.2702
 20
51.9546
 30
0.0
 11
76.2702
 21
51.1295
 31
0.0
  0
LINE
  8
0
 62
     0
 10
76.2702
 20
51.1295
 30
0.0
 11
79.0691
 21
51.1295
 31
0.0
  0
LINE
  8
0
 62
     0
 10
79.0691
 20
51.1295
 30
0.0
 11
79.0691
 21
51.9546
 31
0.0
  0
LINE
  8
0
 62
     0
 10
79.0691
 20
51.9546
 30
0.0
 11
82.2992
 21
51.9546
 31
0.0
  0
LINE
  8
0
 62
     0
 10
82.2992
 20
51.9546
 30
0.0
 11
82.2992
 21
58.7043
 31
0.0
  0
LINE
  8
0
 62
     0
 10
82.2992
 20
58.7043
 30
0.0
 11
79.0691
 21
58.7043
 31
0.0
  0
LINE
  8
0
 62
     0
 10
79.0691
 20
58.7043
 30
0.0
 11
79.0691
 21
60.2297
 31
0.0
  0
LINE
  8
0
 62
     0
 10
79.0691
 20
60.2297
 30
0.0
 11
79.6699
 21
60.2297
 31
0.0
  0
LINE
  8
0
 62
     0
 10
79.6699
 20
60.2297
 30
0.0
 11
79.6699
 21
59.4293
 31
0.0
  0
LINE
  8
0
 62
     0
 10
79.6699
 20
59.4293
 30
0.0
 11
82.7691
 21
59.4293
 31
0.0
  0
LINE
  8
0
 62
     0
 10
82.7691
 20
59.4293
 30
0.0
 11
82.7691
 21
60.2297
 31
0.0
  0
LINE
  8
0
 62
     0
 10
82.7691
 20
60.2297
 30
0.0
 11
83.7696
 21
60.2297
 31
0.0
  0
LINE
  8
0
 62
     0
 10
83.7696
 20
60.2297
 30
0.0
 11
83.7696
 21
74.2294
 31
0.0
  0
LINE
  8
0
 62
     0
 10
83.7696
 20
74.2294
 30
0.0
 11
82.7691
 21
74.2294
 31
0.0
  0
LINE
  8
0
 62
     0
 10
82.7691
 20
74.2294
 30
0.0
 11
82.7691
 21
75.0302
 31
0.0
  0
LINE
  8
0
 62
     0
 10
82.7691
 20
75.0302
 30
0.0
 11
79.6699
 21
75.0302
 31
0.0
  0
LINE
  8
0
 62
     0
 10
79.6699
 20
75.0302
 30
0.0
 11
79.6699
 21
74.2294
 31
0.0
  0
LINE
  8
0
 62
     0
 10
79.6699
 20
74.2294
 30
0.0
 11
79.0691
 21
74.2294
 31
0.0
  0
LINE
  8
0
 62
     0
 10
79.0691
 20
74.2294
 30
0.0
 11
79.0691
 21
75.7548
 31
0.0
  0
LINE
  8
0
 62
     0
 10
79.0691
 20
75.7548
 30
0.0
 11
82.2992
 21
75.7548
 31
0.0
  0
LINE
  8
0
 62
     0
 10
82.2992
 20
75.7548
 30
0.0
 11
82.2992
 21
82.5045
 31
0.0
  0
LINE
  8
0
 62
     0
 10
82.2992
 20
82.5045
 30
0.0
 11
79.0691
 21
82.5045
 31
0.0
  0
LINE
  8
0
 62
     0
 10
79.0691
 20
82.5045
 30
0.0
 11
79.0691
 21
83.33
 31
0.0
  0
LINE
  8
0
 62
     0
 10
79.0691
 20
83.33
 30
0.0
 11
76.2702
 21
83.33
 31
0.0
  0
LINE
  8
0
 62
     0
 10
12.6201
 20
83.7544
 30
0.0
 11
12.6201
 21
82.7553
 31
0.0
  0
LINE
  8
0
 62
     0
 10
12.6201
 20
82.7553
 30
0.0
 11
11.8194
 21
82.7553
 31
0.0
  0
LINE
  8
0
 62
     0
 10
11.8194
 20
82.7553
 30
0.0
 11
11.8194
 21
79.6548
 31
0.0
  0
LINE
  8
0
 62
     0
 10
11.8194
 20
79.6548
 30
0.0
 11
12.6201
 21
79.6548
 31
0.0
  0
LINE
  8
0
 62
     0
 10
12.6201
 20
79.6548
 30
0.0
 11
12.6201
 21
73.8547
 31
0.0
  0
LINE
  8
0
 62
     0
 10
12.6201
 20
73.8547
 30
0.0
 11
11.8194
 21
73.8547
 31
0.0
  0
LINE
  8
0
 62
     0
 10
11.8194
 20
73.8547
 30
0.0
 11
11.8194
 21
70.7552
 31
0.0
  0
LINE
  8
0
 62
     0
 10
11.8194
 20
70.7552
 30
0.0
 11
12.6201
 21
70.7552
 31
0.0
  0
LINE
  8
0
 62
     0
 10
12.6201
 20
70.7552
 30
0.0
 11
12.6201
 21
69.7547
 31
0.0
  0
LINE
  8
0
 62
     0
 10
12.6201
 20
69.7547
 30
0.0
 11
26.6196
 21
69.7547
 31
0.0
  0
LINE
  8
0
 62
     0
 10
26.6196
 20
69.7547
 30
0.0
 11
26.6196
 21
70.7552
 31
0.0
  0
LINE
  8
0
 62
     0
 10
26.6196
 20
70.7552
 30
0.0
 11
27.4175
 21
70.7552
 31
0.0
  0
LINE
  8
0
 62
     0
 10
27.4175
 20
70.7552
 30
0.0
 11
27.4175
 21
73.8547
 31
0.0
  0
LINE
  8
0
 62
     0
 10
27.4175
 20
73.8547
 30
0.0
 11
26.6196
 21
73.8547
 31
0.0
  0
LINE
  8
0
 62
     0
 10
26.6196
 20
73.8547
 30
0.0
 11
26.6196
 21
79.6548
 31
0.0
  0
LINE
  8
0
 62
     0
 10
26.6196
 20
79.6548
 30
0.0
 11
27.4175
 21
79.6548
 31
0.0
  0
LINE
  8
0
 62
     0
 10
27.4175
 20
79.6548
 30
0.0
 11
27.4175
 21
82.7553
 31
0.0
  0
LINE
  8
0
 62
     0
 10
27.4175
 20
82.7553
 30
0.0
 11
26.6196
 21
82.7553
 31
0.0
  0
LINE
  8
0
 62
     0
 10
26.6196
 20
82.7553
 30
0.0
 11
26.6196
 21
83.7544
 31
0.0
  0
LINE
  8
0
 62
     0
 10
26.6196
 20
83.7544
 30
0.0
 11
12.6201
 21
83.7544
 31
0.0
  0
LINE
  8
0
 62
     0
 10
31.6701
 20
83.7544
 30
0.0
 11
31.6701
 21
82.7553
 31
0.0
  0
LINE
  8
0
 62
     0
 10
31.6701
 20
82.7553
 30
0.0
 11
30.8694
 21
82.7553
 31
0.0
  0
LINE
  8
0
 62
     0
 10
30.8694
 20
82.7553
 30
0.0
 11
30.8694
 21
79.6548
 31
0.0
  0
LINE
  8
0
 62
     0
 10
30.8694
 20
79.6548
 30
0.0
 11
31.6701
 21
79.6548
 31
0.0
  0
LINE
  8
0
 62
     0
 10
31.6701
 20
79.6548
 30
0.0
 11
31.6701
 21
73.8547
 31
0.0
  0
LINE
  8
0
 62
     0
 10
31.6701
 20
73.8547
 30
0.0
 11
30.8694
 21
73.8547
 31
0.0
  0
LINE
  8
0
 62
     0
 10
30.8694
 20
73.8547
 30
0.0
 11
30.8694
 21
70.7552
 31
0.0
  0
LINE
  8
0
 62
     0
 10
30.8694
 20
70.7552
 30
0.0
 11
31.6701
 21
70.7552
 31
0.0
  0
LINE
  8
0
 62
     0
 10
31.6701
 20
70.7552
 30
0.0
 11
31.6701
 21
69.7547
 31
0.0
  0
LINE
  8
0
 62
     0
 10
31.6701
 20
69.7547
 30
0.0
 11
45.6696
 21
69.7547
 31
0.0
  0
LINE
  8
0
 62
     0
 10
45.6696
 20
69.7547
 30
0.0
 11
45.6696
 21
70.7552
 31
0.0
  0
LINE
  8
0
 62
     0
 10
45.6696
 20
70.7552
 30
0.0
 11
46.4704
 21
70.7552
 31
0.0
  0
LINE
  8
0
 62
     0
 10
46.4704
 20
70.7552
 30
0.0
 11
46.4704
 21
73.8547
 31
0.0
  0
LINE
  8
0
 62
     0
 10
46.4704
 20
73.8547
 30
0.0
 11
45.6696
 21
73.8547
 31
0.0
  0
LINE
  8
0
 62
     0
 10
45.6696
 20
73.8547
 30
0.0
 11
45.6696
 21
79.6548
 31
0.0
  0
LINE
  8
0
 62
     0
 10
45.6696
 20
79.6548
 30
0.0
 11
46.4704
 21
79.6548
 31
0.0
  0
LINE
  8
0
 62
     0
 10
46.4704
 20
79.6548
 30
0.0
 11
46.4704
 21
82.7553
 31
0.0
  0
LINE
  8
0
 62
     0
 10
46.4704
 20
82.7553
 30
0.0
 11
45.6696
 21
82.7553
 31
0.0
  0
LINE
  8
0
 62
     0
 10
45.6696
 20
82.7553
 30
0.0
 11
45.6696
 21
83.7544
 31
0.0
  0
LINE
  8
0
 62
     0
 10
45.6696
 20
83.7544
 30
0.0
 11
31.6701
 21
83.7544
 31
0.0
  0
LINE
  8
0
 62
     0
 10
50.7199
 20
83.7544
 30
0.0
 11
50.7199
 21
82.7553
 31
0.0
  0
LINE
  8
0
 62
     0
 10
50.7199
 20
82.7553
 30
0.0
 11
49.9195
 21
82.7553
 31
0.0
  0
LINE
  8
0
 62
     0
 10
49.9195
 20
82.7553
 30
0.0
 11
49.9195
 21
79.6548
 31
0.0
  0
LINE
  8
0
 62
     0
 10
49.9195
 20
79.6548
 30
0.0
 11
50.7199
 21
79.6548
 31
0.0
  0
LINE
  8
0
 62
     0
 10
50.7199
 20
79.6548
 30
0.0
 11
50.7199
 21
73.8547
 31
0.0
  0
LINE
  8
0
 62
     0
 10
50.7199
 20
73.8547
 30
0.0
 11
49.9195
 21
73.8547
 31
0.0
  0
LINE
  8
0
 62
     0
 10
49.9195
 20
73.8547
 30
0.0
 11
49.9195
 21
70.7552
 31
0.0
  0
LINE
  8
0
 62
     0
 10
49.9195
 20
70.7552
 30
0.0
 11
50.7199
 21
70.7552
 31
0.0
  0
LINE
  8
0
 62
     0
 10
50.7199
 20
70.7552
 30
0.0
 11
50.7199
 21
69.7547
 31
0.0
  0
LINE
  8
0
 62
     0
 10
50.7199
 20
69.7547
 30
0.0
 11
64.7196
 21
69.7547
 31
0.0
  0
LINE
  8
0
 62
     0
 10
64.7196
 20
69.7547
 30
0.0
 11
64.7196
 21
70.7552
 31
0.0
  0
LINE
  8
0
 62
     0
 10
64.7196
 20
70.7552
 30
0.0
 11
65.5204
 21
70.7552
 31
0.0
  0
LINE
  8
0
 62
     0
 10
65.5204
 20
70.7552
 30
0.0
 11
65.5204
 21
73.8547
 31
0.0
  0
LINE
  8
0
 62
     0
 10
65.5204
 20
73.8547
 30
0.0
 11
64.7196
 21
73.8547
 31
0.0
  0
LINE
  8
0
 62
     0
 10
64.7196
 20
73.8547
 30
0.0
 11
64.7196
 21
79.6548
 31
0.0
  0
LINE
  8
0
 62
     0
 10
64.7196
 20
79.6548
 30
0.0
 11
65.5204
 21
79.6548
 31
0.0
  0
LINE
  8
0
 62
     0
 10
65.5204
 20
79.6548
 30
0.0
 11
65.5204
 21
82.7553
 31
0.0
  0
LINE
  8
0
 62
     0
 10
65.5204
 20
82.7553
 30
0.0
 11
64.7196
 21
82.7553
 31
0.0
  0
LINE
  8
0
 62
     0
 10
64.7196
 20
82.7553
 30
0.0
 11
64.7196
 21
83.7544
 31
0.0
  0
LINE
  8
0
 62
     0
 10
64.7196
 20
83.7544
 30
0.0
 11
50.7199
 21
83.7544
 31
0.0
  0
LINE
  8
0
 62
     0
 10
103.106
 20
83.7544
 30
0.0
 11
103.106
 21
82.7553
 31
0.0
  0
LINE
  8
0
 62
     0
 10
103.106
 20
82.7553
 30
0.0
 11
102.307
 21
82.7553
 31
0.0
  0
LINE
  8
0
 62
     0
 10
102.307
 20
82.7553
 30
0.0
 11
102.307
 21
79.6548
 31
0.0
  0
LINE
  8
0
 62
     0
 10
102.307
 20
79.6548
 30
0.0
 11
103.106
 21
79.6548
 31
0.0
  0
LINE
  8
0
 62
     0
 10
103.106
 20
79.6548
 30
0.0
 11
103.106
 21
73.8547
 31
0.0
  0
LINE
  8
0
 62
     0
 10
103.106
 20
73.8547
 30
0.0
 11
102.307
 21
73.8547
 31
0.0
  0
LINE
  8
0
 62
     0
 10
102.307
 20
73.8547
 30
0.0
 11
102.307
 21
70.7552
 31
0.0
  0
LINE
  8
0
 62
     0
 10
102.307
 20
70.7552
 30
0.0
 11
103.106
 21
70.7552
 31
0.0
  0
LINE
  8
0
 62
     0
 10
103.106
 20
70.7552
 30
0.0
 11
103.106
 21
69.7547
 31
0.0
  0
LINE
  8
0
 62
     0
 10
103.106
 20
69.7547
 30
0.0
 11
117.107
 21
69.7547
 31
0.0
  0
LINE
  8
0
 62
     0
 10
117.107
 20
69.7547
 30
0.0
 11
117.107
 21
70.7552
 31
0.0
  0
LINE
  8
0
 62
     0
 10
117.107
 20
70.7552
 30
0.0
 11
117.906
 21
70.7552
 31
0.0
  0
LINE
  8
0
 62
     0
 10
117.906
 20
70.7552
 30
0.0
 11
117.906
 21
73.8547
 31
0.0
  0
LINE
  8
0
 62
     0
 10
117.906
 20
73.8547
 30
0.0
 11
117.107
 21
73.8547
 31
0.0
  0
LINE
  8
0
 62
     0
 10
117.107
 20
73.8547
 30
0.0
 11
117.107
 21
79.6548
 31
0.0
  0
LINE
  8
0
 62
     0
 10
117.107
 20
79.6548
 30
0.0
 11
117.906
 21
79.6548
 31
0.0
  0
LINE
  8
0
 62
     0
 10
117.906
 20
79.6548
 30
0.0
 11
117.906
 21
82.7553
 31
0.0
  0
LINE
  8
0
 62
     0
 10
117.906
 20
82.7553
 30
0.0
 11
117.107
 21
82.7553
 31
0.0
  0
LINE
  8
0
 62
     0
 10
117.107
 20
82.7553
 30
0.0
 11
117.107
 21
83.7544
 31
0.0
  0
LINE
  8
0
 62
     0
 10
117.107
 20
83.7544
 30
0.0
 11
103.106
 21
83.7544
 31
0.0
  0
LINE
  8
0
 62
     0
 10
126.92
 20
83.7544
 30
0.0
 11
126.92
 21
82.7553
 31
0.0
  0
LINE
  8
0
 62
     0
 10
126.92
 20
82.7553
 30
0.0
 11
126.118
 21
82.7553
 31
0.0
  0
LINE
  8
0
 62
     0
 10
126.118
 20
82.7553
 30
0.0
 11
126.118
 21
79.6548
 31
0.0
  0
LINE
  8
0
 62
     0
 10
126.118
 20
79.6548
 30
0.0
 11
126.92
 21
79.6548
 31
0.0
  0
LINE
  8
0
 62
     0
 10
126.92
 20
79.6548
 30
0.0
 11
126.92
 21
73.8547
 31
0.0
  0
LINE
  8
0
 62
     0
 10
126.92
 20
73.8547
 30
0.0
 11
126.118
 21
73.8547
 31
0.0
  0
LINE
  8
0
 62
     0
 10
126.118
 20
73.8547
 30
0.0
 11
126.118
 21
70.7552
 31
0.0
  0
LINE
  8
0
 62
     0
 10
126.118
 20
70.7552
 30
0.0
 11
126.92
 21
70.7552
 31
0.0
  0
LINE
  8
0
 62
     0
 10
126.92
 20
70.7552
 30
0.0
 11
126.92
 21
69.7547
 31
0.0
  0
LINE
  8
0
 62
     0
 10
126.92
 20
69.7547
 30
0.0
 11
140.92
 21
69.7547
 31
0.0
  0
LINE
  8
0
 62
     0
 10
140.92
 20
69.7547
 30
0.0
 11
140.92
 21
70.7552
 31
0.0
  0
LINE
  8
0
 62
     0
 10
140.92
 20
70.7552
 30
0.0
 11
141.72
 21
70.7552
 31
0.0
  0
LINE
  8
0
 62
     0
 10
141.72
 20
70.7552
 30
0.0
 11
141.72
 21
73.8547
 31
0.0
  0
LINE
  8
0
 62
     0
 10
141.72
 20
73.8547
 30
0.0
 11
140.92
 21
73.8547
 31
0.0
  0
LINE
  8
0
 62
     0
 10
140.92
 20
73.8547
 30
0.0
 11
140.92
 21
79.6548
 31
0.0
  0
LINE
  8
0
 62
     0
 10
140.92
 20
79.6548
 30
0.0
 11
141.72
 21
79.6548
 31
0.0
  0
LINE
  8
0
 62
     0
 10
141.72
 20
79.6548
 30
0.0
 11
141.72
 21
82.7553
 31
0.0
  0
LINE
  8
0
 62
     0
 10
141.72
 20
82.7553
 30
0.0
 11
140.92
 21
82.7553
 31
0.0
  0
LINE
  8
0
 62
     0
 10
140.92
 20
82.7553
 30
0.0
 11
140.92
 21
83.7544
 31
0.0
  0
LINE
  8
0
 62
     0
 10
140.92
 20
83.7544
 30
0.0
 11
126.92
 21
83.7544
 31
0.0
  0
LINE
  8
0
 62
     0
 10
145.97
 20
83.7544
 30
0.0
 11
145.97
 21
82.7553
 31
0.0
  0
LINE
  8
0
 62
     0
 10
145.97
 20
82.7553
 30
0.0
 11
145.169
 21
82.7553
 31
0.0
  0
LINE
  8
0
 62
     0
 10
145.169
 20
82.7553
 30
0.0
 11
145.169
 21
79.6548
 31
0.0
  0
LINE
  8
0
 62
     0
 10
145.169
 20
79.6548
 30
0.0
 11
145.97
 21
79.6548
 31
0.0
  0
LINE
  8
0
 62
     0
 10
145.97
 20
79.6548
 30
0.0
 11
145.97
 21
73.8547
 31
0.0
  0
LINE
  8
0
 62
     0
 10
145.97
 20
73.8547
 30
0.0
 11
145.169
 21
73.8547
 31
0.0
  0
LINE
  8
0
 62
     0
 10
145.169
 20
73.8547
 30
0.0
 11
145.169
 21
70.7552
 31
0.0
  0
LINE
  8
0
 62
     0
 10
145.169
 20
70.7552
 30
0.0
 11
145.97
 21
70.7552
 31
0.0
  0
LINE
  8
0
 62
     0
 10
145.97
 20
70.7552
 30
0.0
 11
145.97
 21
69.7547
 31
0.0
  0
LINE
  8
0
 62
     0
 10
145.97
 20
69.7547
 30
0.0
 11
159.97
 21
69.7547
 31
0.0
  0
LINE
  8
0
 62
     0
 10
159.97
 20
69.7547
 30
0.0
 11
159.97
 21
70.7552
 31
0.0
  0
LINE
  8
0
 62
     0
 10
159.97
 20
70.7552
 30
0.0
 11
160.77
 21
70.7552
 31
0.0
  0
LINE
  8
0
 62
     0
 10
160.77
 20
70.7552
 30
0.0
 11
160.77
 21
73.8547
 31
0.0
  0
LINE
  8
0
 62
     0
 10
160.77
 20
73.8547
 30
0.0
 11
159.97
 21
73.8547
 31
0.0
  0
LINE
  8
0
 62
     0
 10
159.97
 20
73.8547
 30
0.0
 11
159.97
 21
79.6548
 31
0.0
  0
LINE
  8
0
 62
     0
 10
159.97
 20
79.6548
 30
0.0
 11
160.77
 21
79.6548
 31
0.0
  0
LINE
  8
0
 62
     0
 10
160.77
 20
79.6548
 30
0.0
 11
160.77
 21
82.7553
 31
0.0
  0
LINE
  8
0
 62
     0
 10
160.77
 20
82.7553
 30
0.0
 11
159.97
 21
82.7553
 31
0.0
  0
LINE
  8
0
 62
     0
 10
159.97
 20
82.7553
 30
0.0
 11
159.97
 21
83.7544
 31
0.0
  0
LINE
  8
0
 62
     0
 10
159.97
 20
83.7544
 30
0.0
 11
145.97
 21
83.7544
 31
0.0
  0
LINE
  8
0
 62
     0
 10
165.02
 20
83.7544
 30
0.0
 11
165.02
 21
82.7553
 31
0.0
  0
LINE
  8
0
 62
     0
 10
165.02
 20
82.7553
 30
0.0
 11
164.219
 21
82.7553
 31
0.0
  0
LINE
  8
0
 62
     0
 10
164.219
 20
82.7553
 30
0.0
 11
164.219
 21
79.6548
 31
0.0
  0
LINE
  8
0
 62
     0
 10
164.219
 20
79.6548
 30
0.0
 11
165.02
 21
79.6548
 31
0.0
  0
LINE
  8
0
 62
     0
 10
165.02
 20
79.6548
 30
0.0
 11
165.02
 21
73.8547
 31
0.0
  0
LINE
  8
0
 62
     0
 10
165.02
 20
73.8547
 30
0.0
 11
164.219
 21
73.8547
 31
0.0
  0
LINE
  8
0
 62
     0
 10
164.219
 20
73.8547
 30
0.0
 11
164.219
 21
70.7552
 31
0.0
  0
LINE
  8
0
 62
     0
 10
164.219
 20
70.7552
 30
0.0
 11
165.02
 21
70.7552
 31
0.0
  0
LINE
  8
0
 62
     0
 10
165.02
 20
70.7552
 30
0.0
 11
165.02
 21
69.7547
 31
0.0
  0
LINE
  8
0
 62
     0
 10
165.02
 20
69.7547
 30
0.0
 11
179.02
 21
69.7547
 31
0.0
  0
LINE
  8
0
 62
     0
 10
179.02
 20
69.7547
 30
0.0
 11
179.02
 21
70.7552
 31
0.0
  0
LINE
  8
0
 62
     0
 10
179.02
 20
70.7552
 30
0.0
 11
179.82
 21
70.7552
 31
0.0
  0
LINE
  8
0
 62
     0
 10
179.82
 20
70.7552
 30
0.0
 11
179.82
 21
73.8547
 31
0.0
  0
LINE
  8
0
 62
     0
 10
179.82
 20
73.8547
 30
0.0
 11
179.02
 21
73.8547
 31
0.0
  0
LINE
  8
0
 62
     0
 10
179.02
 20
73.8547
 30
0.0
 11
179.02
 21
79.6548
 31
0.0
  0
LINE
  8
0
 62
     0
 10
179.02
 20
79.6548
 30
0.0
 11
179.82
 21
79.6548
 31
0.0
  0
LINE
  8
0
 62
     0
 10
179.82
 20
79.6548
 30
0.0
 11
179.82
 21
82.7553
 31
0.0
  0
LINE
  8
0
 62
     0
 10
179.82
 20
82.7553
 30
0.0
 11
179.02
 21
82.7553
 31
0.0
  0
LINE
  8
0
 62
     0
 10
179.02
 20
82.7553
 30
0.0
 11
179.02
 21
83.7544
 31
0.0
  0
LINE
  8
0
 62
     0
 10
179.02
 20
83.7544
 30
0.0
 11
165.02
 21
83.7544
 31
0.0
  0
LINE
  8
0
 62
     0
 10
184.07
 20
83.7544
 30
0.0
 11
184.07
 21
82.7553
 31
0.0
  0
LINE
  8
0
 62
     0
 10
184.07
 20
82.7553
 30
0.0
 11
183.269
 21
82.7553
 31
0.0
  0
LINE
  8
0
 62
     0
 10
183.269
 20
82.7553
 30
0.0
 11
183.269
 21
79.6548
 31
0.0
  0
LINE
  8
0
 62
     0
 10
183.269
 20
79.6548
 30
0.0
 11
184.07
 21
79.6548
 31
0.0
  0
LINE
  8
0
 62
     0
 10
184.07
 20
79.6548
 30
0.0
 11
184.07
 21
73.8547
 31
0.0
  0
LINE
  8
0
 62
     0
 10
184.07
 20
73.8547
 30
0.0
 11
183.269
 21
73.8547
 31
0.0
  0
LINE
  8
0
 62
     0
 10
183.269
 20
73.8547
 30
0.0
 11
183.269
 21
70.7552
 31
0.0
  0
LINE
  8
0
 62
     0
 10
183.269
 20
70.7552
 30
0.0
 11
184.07
 21
70.7552
 31
0.0
  0
LINE
  8
0
 62
     0
 10
184.07
 20
70.7552
 30
0.0
 11
184.07
 21
69.7547
 31
0.0
  0
LINE
  8
0
 62
     0
 10
184.07
 20
69.7547
 30
0.0
 11
198.07
 21
69.7547
 31
0.0
  0
LINE
  8
0
 62
     0
 10
198.07
 20
69.7547
 30
0.0
 11
198.07
 21
70.7552
 31
0.0
  0
LINE
  8
0
 62
     0
 10
198.07
 20
70.7552
 30
0.0
 11
198.87
 21
70.7552
 31
0.0
  0
LINE
  8
0
 62
     0
 10
198.87
 20
70.7552
 30
0.0
 11
198.87
 21
73.8547
 31
0.0
  0
LINE
  8
0
 62
     0
 10
198.87
 20
73.8547
 30
0.0
 11
198.07
 21
73.8547
 31
0.0
  0
LINE
  8
0
 62
     0
 10
198.07
 20
73.8547
 30
0.0
 11
198.07
 21
79.6548
 31
0.0
  0
LINE
  8
0
 62
     0
 10
198.07
 20
79.6548
 30
0.0
 11
198.87
 21
79.6548
 31
0.0
  0
LINE
  8
0
 62
     0
 10
198.87
 20
79.6548
 30
0.0
 11
198.87
 21
82.7553
 31
0.0
  0
LINE
  8
0
 62
     0
 10
198.87
 20
82.7553
 30
0.0
 11
198.07
 21
82.7553
 31
0.0
  0
LINE
  8
0
 62
     0
 10
198.07
 20
82.7553
 30
0.0
 11
198.07
 21
83.7544
 31
0.0
  0
LINE
  8
0
 62
     0
 10
198.07
 20
83.7544
 30
0.0
 11
184.07
 21
83.7544
 31
0.0
  0
LINE
  8
0
 62
     0
 10
203.12
 20
83.7544
 30
0.0
 11
203.12
 21
82.7553
 31
0.0
  0
LINE
  8
0
 62
     0
 10
203.12
 20
82.7553
 30
0.0
 11
202.319
 21
82.7553
 31
0.0
  0
LINE
  8
0
 62
     0
 10
202.319
 20
82.7553
 30
0.0
 11
202.319
 21
79.6548
 31
0.0
  0
LINE
  8
0
 62
     0
 10
202.319
 20
79.6548
 30
0.0
 11
203.12
 21
79.6548
 31
0.0
  0
LINE
  8
0
 62
     0
 10
203.12
 20
79.6548
 30
0.0
 11
203.12
 21
73.8547
 31
0.0
  0
LINE
  8
0
 62
     0
 10
203.12
 20
73.8547
 30
0.0
 11
202.319
 21
73.8547
 31
0.0
  0
LINE
  8
0
 62
     0
 10
202.319
 20
73.8547
 30
0.0
 11
202.319
 21
70.7552
 31
0.0
  0
LINE
  8
0
 62
     0
 10
202.319
 20
70.7552
 30
0.0
 11
203.12
 21
70.7552
 31
0.0
  0
LINE
  8
0
 62
     0
 10
203.12
 20
70.7552
 30
0.0
 11
203.12
 21
69.7547
 31
0.0
  0
LINE
  8
0
 62
     0
 10
203.12
 20
69.7547
 30
0.0
 11
217.12
 21
69.7547
 31
0.0
  0
LINE
  8
0
 62
     0
 10
217.12
 20
69.7547
 30
0.0
 11
217.12
 21
70.7552
 31
0.0
  0
LINE
  8
0
 62
     0
 10
217.12
 20
70.7552
 30
0.0
 11
217.92
 21
70.7552
 31
0.0
  0
LINE
  8
0
 62
     0
 10
217.92
 20
70.7552
 30
0.0
 11
217.92
 21
73.8547
 31
0.0
  0
LINE
  8
0
 62
     0
 10
217.92
 20
73.8547
 30
0.0
 11
217.12
 21
73.8547
 31
0.0
  0
LINE
  8
0
 62
     0
 10
217.12
 20
73.8547
 30
0.0
 11
217.12
 21
79.6548
 31
0.0
  0
LINE
  8
0
 62
     0
 10
217.12
 20
79.6548
 30
0.0
 11
217.92
 21
79.6548
 31
0.0
  0
LINE
  8
0
 62
     0
 10
217.92
 20
79.6548
 30
0.0
 11
217.92
 21
82.7553
 31
0.0
  0
LINE
  8
0
 62
     0
 10
217.92
 20
82.7553
 30
0.0
 11
217.12
 21
82.7553
 31
0.0
  0
LINE
  8
0
 62
     0
 10
217.12
 20
82.7553
 30
0.0
 11
217.12
 21
83.7544
 31
0.0
  0
LINE
  8
0
 62
     0
 10
217.12
 20
83.7544
 30
0.0
 11
203.12
 21
83.7544
 31
0.0
  0
LINE
  8
0
 62
     0
 10
222.17
 20
83.7544
 30
0.0
 11
222.17
 21
82.7553
 31
0.0
  0
LINE
  8
0
 62
     0
 10
222.17
 20
82.7553
 30
0.0
 11
221.369
 21
82.7553
 31
0.0
  0
LINE
  8
0
 62
     0
 10
221.369
 20
82.7553
 30
0.0
 11
221.369
 21
79.6548
 31
0.0
  0
LINE
  8
0
 62
     0
 10
221.369
 20
79.6548
 30
0.0
 11
222.17
 21
79.6548
 31
0.0
  0
LINE
  8
0
 62
     0
 10
222.17
 20
79.6548
 30
0.0
 11
222.17
 21
73.8547
 31
0.0
  0
LINE
  8
0
 62
     0
 10
222.17
 20
73.8547
 30
0.0
 11
221.369
 21
73.8547
 31
0.0
  0
LINE
  8
0
 62
     0
 10
221.369
 20
73.8547
 30
0.0
 11
221.369
 21
70.7552
 31
0.0
  0
LINE
  8
0
 62
     0
 10
221.369
 20
70.7552
 30
0.0
 11
222.17
 21
70.7552
 31
0.0
  0
LINE
  8
0
 62
     0
 10
222.17
 20
70.7552
 30
0.0
 11
222.17
 21
69.7547
 31
0.0
  0
LINE
  8
0
 62
     0
 10
222.17
 20
69.7547
 30
0.0
 11
236.17
 21
69.7547
 31
0.0
  0
LINE
  8
0
 62
     0
 10
236.17
 20
69.7547
 30
0.0
 11
236.17
 21
70.7552
 31
0.0
  0
LINE
  8
0
 62
     0
 10
236.17
 20
70.7552
 30
0.0
 11
236.97
 21
70.7552
 31
0.0
  0
LINE
  8
0
 62
     0
 10
236.97
 20
70.7552
 30
0.0
 11
236.97
 21
73.8547
 31
0.0
  0
LINE
  8
0
 62
     0
 10
236.97
 20
73.8547
 30
0.0
 11
236.17
 21
73.8547
 31
0.0
  0
LINE
  8
0
 62
     0
 10
236.17
 20
73.8547
 30
0.0
 11
236.17
 21
79.6548
 31
0.0
  0
LINE
  8
0
 62
     0
 10
236.17
 20
79.6548
 30
0.0
 11
236.97
 21
79.6548
 31
0.0
  0
LINE
  8
0
 62
     0
 10
236.97
 20
79.6548
 30
0.0
 11
236.97
 21
82.7553
 31
0.0
  0
LINE
  8
0
 62
     0
 10
236.97
 20
82.7553
 30
0.0
 11
236.17
 21
82.7553
 31
0.0
  0
LINE
  8
0
 62
     0
 10
236.17
 20
82.7553
 30
0.0
 11
236.17
 21
83.7544
 31
0.0
  0
LINE
  8
0
 62
     0
 10
236.17
 20
83.7544
 30
0.0
 11
222.17
 21
83.7544
 31
0.0
  0
LINE
  8
0
 62
     0
 10
12.6201
 20
102.804
 30
0.0
 11
12.6201
 21
101.805
 31
0.0
  0
LINE
  8
0
 62
     0
 10
12.6201
 20
101.805
 30
0.0
 11
11.8194
 21
101.805
 31
0.0
  0
LINE
  8
0
 62
     0
 10
11.8194
 20
101.805
 30
0.0
 11
11.8194
 21
98.7048
 31
0.0
  0
LINE
  8
0
 62
     0
 10
11.8194
 20
98.7048
 30
0.0
 11
12.6201
 21
98.7048
 31
0.0
  0
LINE
  8
0
 62
     0
 10
12.6201
 20
98.7048
 30
0.0
 11
12.6201
 21
92.9047
 31
0.0
  0
LINE
  8
0
 62
     0
 10
12.6201
 20
92.9047
 30
0.0
 11
11.8194
 21
92.9047
 31
0.0
  0
LINE
  8
0
 62
     0
 10
11.8194
 20
92.9047
 30
0.0
 11
11.8194
 21
89.8052
 31
0.0
  0
LINE
  8
0
 62
     0
 10
11.8194
 20
89.8052
 30
0.0
 11
12.6201
 21
89.8052
 31
0.0
  0
LINE
  8
0
 62
     0
 10
12.6201
 20
89.8052
 30
0.0
 11
12.6201
 21
88.8047
 31
0.0
  0
LINE
  8
0
 62
     0
 10
12.6201
 20
88.8047
 30
0.0
 11
26.6196
 21
88.8047
 31
0.0
  0
LINE
  8
0
 62
     0
 10
26.6196
 20
88.8047
 30
0.0
 11
26.6196
 21
89.8052
 31
0.0
  0
LINE
  8
0
 62
     0
 10
26.6196
 20
89.8052
 30
0.0
 11
27.4175
 21
89.8052
 31
0.0
  0
LINE
  8
0
 62
     0
 10
27.4175
 20
89.8052
 30
0.0
 11
27.4175
 21
92.9047
 31
0.0
  0
LINE
  8
0
 62
     0
 10
27.4175
 20
92.9047
 30
0.0
 11
26.6196
 21
92.9047
 31
0.0
  0
LINE
  8
0
 62
     0
 10
26.6196
 20
92.9047
 30
0.0
 11
26.6196
 21
98.7048
 31
0.0
  0
LINE
  8
0
 62
     0
 10
26.6196
 20
98.7048
 30
0.0
 11
27.4175
 21
98.7048
 31
0.0
  0
LINE
  8
0
 62
     0
 10
27.4175
 20
98.7048
 30
0.0
 11
27.4175
 21
101.805
 31
0.0
  0
LINE
  8
0
 62
     0
 10
27.4175
 20
101.805
 30
0.0
 11
26.6196
 21
101.805
 31
0.0
  0
LINE
  8
0
 62
     0
 10
26.6196
 20
101.805
 30
0.0
 11
26.6196
 21
102.804
 31
0.0
  0
LINE
  8
0
 62
     0
 10
26.6196
 20
102.804
 30
0.0
 11
12.6201
 21
102.804
 31
0.0
  0
LINE
  8
0
 62
     0
 10
31.6701
 20
102.804
 30
0.0
 11
31.6701
 21
101.805
 31
0.0
  0
LINE
  8
0
 62
     0
 10
31.6701
 20
101.805
 30
0.0
 11
30.8694
 21
101.805
 31
0.0
  0
LINE
  8
0
 62
     0
 10
30.8694
 20
101.805
 30
0.0
 11
30.8694
 21
98.7048
 31
0.0
  0
LINE
  8
0
 62
     0
 10
30.8694
 20
98.7048
 30
0.0
 11
31.6701
 21
98.7048
 31
0.0
  0
LINE
  8
0
 62
     0
 10
31.6701
 20
98.7048
 30
0.0
 11
31.6701
 21
92.9047
 31
0.0
  0
LINE
  8
0
 62
     0
 10
31.6701
 20
92.9047
 30
0.0
 11
30.8694
 21
92.9047
 31
0.0
  0
LINE
  8
0
 62
     0
 10
30.8694
 20
92.9047
 30
0.0
 11
30.8694
 21
89.8052
 31
0.0
  0
LINE
  8
0
 62
     0
 10
30.8694
 20
89.8052
 30
0.0
 11
31.6701
 21
89.8052
 31
0.0
  0
LINE
  8
0
 62
     0
 10
31.6701
 20
89.8052
 30
0.0
 11
31.6701
 21
88.8047
 31
0.0
  0
LINE
  8
0
 62
     0
 10
31.6701
 20
88.8047
 30
0.0
 11
45.6696
 21
88.8047
 31
0.0
  0
LINE
  8
0
 62
     0
 10
45.6696
 20
88.8047
 30
0.0
 11
45.6696
 21
89.8052
 31
0.0
  0
LINE
  8
0
 62
     0
 10
45.6696
 20
89.8052
 30
0.0
 11
46.4704
 21
89.8052
 31
0.0
  0
LINE
  8
0
 62
     0
 10
46.4704
 20
89.8052
 30
0.0
 11
46.4704
 21
92.9047
 31
0.0
  0
LINE
  8
0
 62
     0
 10
46.4704
 20
92.9047
 30
0.0
 11
45.6696
 21
92.9047
 31
0.0
  0
LINE
  8
0
 62
     0
 10
45.6696
 20
92.9047
 30
0.0
 11
45.6696
 21
98.7048
 31
0.0
  0
LINE
  8
0
 62
     0
 10
45.6696
 20
98.7048
 30
0.0
 11
46.4704
 21
98.7048
 31
0.0
  0
LINE
  8
0
 62
     0
 10
46.4704
 20
98.7048
 30
0.0
 11
46.4704
 21
101.805
 31
0.0
  0
LINE
  8
0
 62
     0
 10
46.4704
 20
101.805
 30
0.0
 11
45.6696
 21
101.805
 31
0.0
  0
LINE
  8
0
 62
     0
 10
45.6696
 20
101.805
 30
0.0
 11
45.6696
 21
102.804
 31
0.0
  0
LINE
  8
0
 62
     0
 10
45.6696
 20
102.804
 30
0.0
 11
31.6701
 21
102.804
 31
0.0
  0
LINE
  8
0
 62
     0
 10
50.7199
 20
102.804
 30
0.0
 11
50.7199
 21
101.805
 31
0.0
  0
LINE
  8
0
 62
     0
 10
50.7199
 20
101.805
 30
0.0
 11
49.9195
 21
101.805
 31
0.0
  0
LINE
  8
0
 62
     0
 10
49.9195
 20
101.805
 30
0.0
 11
49.9195
 21
98.7048
 31
0.0
  0
LINE
  8
0
 62
     0
 10
49.9195
 20
98.7048
 30
0.0
 11
50.7199
 21
98.7048
 31
0.0
  0
LINE
  8
0
 62
     0
 10
50.7199
 20
98.7048
 30
0.0
 11
50.7199
 21
92.9047
 31
0.0
  0
LINE
  8
0
 62
     0
 10
50.7199
 20
92.9047
 30
0.0
 11
49.9195
 21
92.9047
 31
0.0
  0
LINE
  8
0
 62
     0
 10
49.9195
 20
92.9047
 30
0.0
 11
49.9195
 21
89.8052
 31
0.0
  0
LINE
  8
0
 62
     0
 10
49.9195
 20
89.8052
 30
0.0
 11
50.7199
 21
89.8052
 31
0.0
  0
LINE
  8
0
 62
     0
 10
50.7199
 20
89.8052
 30
0.0
 11
50.7199
 21
88.8047
 31
0.0
  0
LINE
  8
0
 62
     0
 10
50.7199
 20
88.8047
 30
0.0
 11
64.7196
 21
88.8047
 31
0.0
  0
LINE
  8
0
 62
     0
 10
64.7196
 20
88.8047
 30
0.0
 11
64.7196
 21
89.8052
 31
0.0
  0
LINE
  8
0
 62
     0
 10
64.7196
 20
89.8052
 30
0.0
 11
65.5204
 21
89.8052
 31
0.0
  0
LINE
  8
0
 62
     0
 10
65.5204
 20
89.8052
 30
0.0
 11
65.5204
 21
92.9047
 31
0.0
  0
LINE
  8
0
 62
     0
 10
65.5204
 20
92.9047
 30
0.0
 11
64.7196
 21
92.9047
 31
0.0
  0
LINE
  8
0
 62
     0
 10
64.7196
 20
92.9047
 30
0.0
 11
64.7196
 21
98.7048
 31
0.0
  0
LINE
  8
0
 62
     0
 10
64.7196
 20
98.7048
 30
0.0
 11
65.5204
 21
98.7048
 31
0.0
  0
LINE
  8
0
 62
     0
 10
65.5204
 20
98.7048
 30
0.0
 11
65.5204
 21
101.805
 31
0.0
  0
LINE
  8
0
 62
     0
 10
65.5204
 20
101.805
 30
0.0
 11
64.7196
 21
101.805
 31
0.0
  0
LINE
  8
0
 62
     0
 10
64.7196
 20
101.805
 30
0.0
 11
64.7196
 21
102.804
 31
0.0
  0
LINE
  8
0
 62
     0
 10
64.7196
 20
102.804
 30
0.0
 11
50.7199
 21
102.804
 31
0.0
  0
LINE
  8
0
 62
     0
 10
69.7699
 20
102.804
 30
0.0
 11
69.7699
 21
101.805
 31
0.0
  0
LINE
  8
0
 62
     0
 10
69.7699
 20
101.805
 30
0.0
 11
68.9695
 21
101.805
 31
0.0
  0
LINE
  8
0
 62
     0
 10
68.9695
 20
101.805
 30
0.0
 11
68.9695
 21
98.7048
 31
0.0
  0
LINE
  8
0
 62
     0
 10
68.9695
 20
98.7048
 30
0.0
 11
69.7699
 21
98.7048
 31
0.0
  0
LINE
  8
0
 62
     0
 10
69.7699
 20
98.7048
 30
0.0
 11
69.7699
 21
92.9047
 31
0.0
  0
LINE
  8
0
 62
     0
 10
69.7699
 20
92.9047
 30
0.0
 11
68.9695
 21
92.9047
 31
0.0
  0
LINE
  8
0
 62
     0
 10
68.9695
 20
92.9047
 30
0.0
 11
68.9695
 21
89.8052
 31
0.0
  0
LINE
  8
0
 62
     0
 10
68.9695
 20
89.8052
 30
0.0
 11
69.7699
 21
89.8052
 31
0.0
  0
LINE
  8
0
 62
     0
 10
69.7699
 20
89.8052
 30
0.0
 11
69.7699
 21
88.8047
 31
0.0
  0
LINE
  8
0
 62
     0
 10
69.7699
 20
88.8047
 30
0.0
 11
83.7696
 21
88.8047
 31
0.0
  0
LINE
  8
0
 62
     0
 10
83.7696
 20
88.8047
 30
0.0
 11
83.7696
 21
89.8052
 31
0.0
  0
LINE
  8
0
 62
     0
 10
83.7696
 20
89.8052
 30
0.0
 11
84.5704
 21
89.8052
 31
0.0
  0
LINE
  8
0
 62
     0
 10
84.5704
 20
89.8052
 30
0.0
 11
84.5704
 21
92.9047
 31
0.0
  0
LINE
  8
0
 62
     0
 10
84.5704
 20
92.9047
 30
0.0
 11
83.7696
 21
92.9047
 31
0.0
  0
LINE
  8
0
 62
     0
 10
83.7696
 20
92.9047
 30
0.0
 11
83.7696
 21
98.7048
 31
0.0
  0
LINE
  8
0
 62
     0
 10
83.7696
 20
98.7048
 30
0.0
 11
84.5704
 21
98.7048
 31
0.0
  0
LINE
  8
0
 62
     0
 10
84.5704
 20
98.7048
 30
0.0
 11
84.5704
 21
101.805
 31
0.0
  0
LINE
  8
0
 62
     0
 10
84.5704
 20
101.805
 30
0.0
 11
83.7696
 21
101.805
 31
0.0
  0
LINE
  8
0
 62
     0
 10
83.7696
 20
101.805
 30
0.0
 11
83.7696
 21
102.804
 31
0.0
  0
LINE
  8
0
 62
     0
 10
83.7696
 20
102.804
 30
0.0
 11
69.7699
 21
102.804
 31
0.0
  0
LINE
  8
0
 62
     0
 10
98.3449
 20
102.804
 30
0.0
 11
98.3449
 21
101.805
 31
0.0
  0
LINE
  8
0
 62
     0
 10
98.3449
 20
101.805
 30
0.0
 11
97.5445
 21
101.805
 31
0.0
  0
LINE
  8
0
 62
     0
 10
97.5445
 20
101.805
 30
0.0
 11
97.5445
 21
98.7048
 31
0.0
  0
LINE
  8
0
 62
     0
 10
97.5445
 20
98.7048
 30
0.0
 11
98.3449
 21
98.7048
 31
0.0
  0
LINE
  8
0
 62
     0
 10
98.3449
 20
98.7048
 30
0.0
 11
98.3449
 21
92.9047
 31
0.0
  0
LINE
  8
0
 62
     0
 10
98.3449
 20
92.9047
 30
0.0
 11
97.5445
 21
92.9047
 31
0.0
  0
LINE
  8
0
 62
     0
 10
97.5445
 20
92.9047
 30
0.0
 11
97.5445
 21
89.8052
 31
0.0
  0
LINE
  8
0
 62
     0
 10
97.5445
 20
89.8052
 30
0.0
 11
98.3449
 21
89.8052
 31
0.0
  0
LINE
  8
0
 62
     0
 10
98.3449
 20
89.8052
 30
0.0
 11
98.3449
 21
88.8047
 31
0.0
  0
LINE
  8
0
 62
     0
 10
98.3449
 20
88.8047
 30
0.0
 11
112.345
 21
88.8047
 31
0.0
  0
LINE
  8
0
 62
     0
 10
112.345
 20
88.8047
 30
0.0
 11
112.345
 21
89.8052
 31
0.0
  0
LINE
  8
0
 62
     0
 10
112.345
 20
89.8052
 30
0.0
 11
113.145
 21
89.8052
 31
0.0
  0
LINE
  8
0
 62
     0
 10
113.145
 20
89.8052
 30
0.0
 11
113.145
 21
92.9047
 31
0.0
  0
LINE
  8
0
 62
     0
 10
113.145
 20
92.9047
 30
0.0
 11
112.345
 21
92.9047
 31
0.0
  0
LINE
  8
0
 62
     0
 10
112.345
 20
92.9047
 30
0.0
 11
112.345
 21
98.7048
 31
0.0
  0
LINE
  8
0
 62
     0
 10
112.345
 20
98.7048
 30
0.0
 11
113.145
 21
98.7048
 31
0.0
  0
LINE
  8
0
 62
     0
 10
113.145
 20
98.7048
 30
0.0
 11
113.145
 21
101.805
 31
0.0
  0
LINE
  8
0
 62
     0
 10
113.145
 20
101.805
 30
0.0
 11
112.345
 21
101.805
 31
0.0
  0
LINE
  8
0
 62
     0
 10
112.345
 20
101.805
 30
0.0
 11
112.345
 21
102.804
 31
0.0
  0
LINE
  8
0
 62
     0
 10
112.345
 20
102.804
 30
0.0
 11
98.3449
 21
102.804
 31
0.0
  0
LINE
  8
0
 62
     0
 10
117.395
 20
102.804
 30
0.0
 11
117.395
 21
101.805
 31
0.0
  0
LINE
  8
0
 62
     0
 10
117.395
 20
101.805
 30
0.0
 11
116.594
 21
101.805
 31
0.0
  0
LINE
  8
0
 62
     0
 10
116.594
 20
101.805
 30
0.0
 11
116.594
 21
98.7048
 31
0.0
  0
LINE
  8
0
 62
     0
 10
116.594
 20
98.7048
 30
0.0
 11
117.395
 21
98.7048
 31
0.0
  0
LINE
  8
0
 62
     0
 10
117.395
 20
98.7048
 30
0.0
 11
117.395
 21
92.9047
 31
0.0
  0
LINE
  8
0
 62
     0
 10
117.395
 20
92.9047
 30
0.0
 11
116.594
 21
92.9047
 31
0.0
  0
LINE
  8
0
 62
     0
 10
116.594
 20
92.9047
 30
0.0
 11
116.594
 21
89.8052
 31
0.0
  0
LINE
  8
0
 62
     0
 10
116.594
 20
89.8052
 30
0.0
 11
117.395
 21
89.8052
 31
0.0
  0
LINE
  8
0
 62
     0
 10
117.395
 20
89.8052
 30
0.0
 11
117.395
 21
88.8047
 31
0.0
  0
LINE
  8
0
 62
     0
 10
117.395
 20
88.8047
 30
0.0
 11
131.395
 21
88.8047
 31
0.0
  0
LINE
  8
0
 62
     0
 10
131.395
 20
88.8047
 30
0.0
 11
131.395
 21
89.8052
 31
0.0
  0
LINE
  8
0
 62
     0
 10
131.395
 20
89.8052
 30
0.0
 11
132.195
 21
89.8052
 31
0.0
  0
LINE
  8
0
 62
     0
 10
132.195
 20
89.8052
 30
0.0
 11
132.195
 21
92.9047
 31
0.0
  0
LINE
  8
0
 62
     0
 10
132.195
 20
92.9047
 30
0.0
 11
131.395
 21
92.9047
 31
0.0
  0
LINE
  8
0
 62
     0
 10
131.395
 20
92.9047
 30
0.0
 11
131.395
 21
98.7048
 31
0.0
  0
LINE
  8
0
 62
     0
 10
131.395
 20
98.7048
 30
0.0
 11
132.195
 21
98.7048
 31
0.0
  0
LINE
  8
0
 62
     0
 10
132.195
 20
98.7048
 30
0.0
 11
132.195
 21
101.805
 31
0.0
  0
LINE
  8
0
 62
     0
 10
132.195
 20
101.805
 30
0.0
 11
131.395
 21
101.805
 31
0.0
  0
LINE
  8
0
 62
     0
 10
131.395
 20
101.805
 30
0.0
 11
131.395
 21
102.804
 31
0.0
  0
LINE
  8
0
 62
     0
 10
131.395
 20
102.804
 30
0.0
 11
117.395
 21
102.804
 31
0.0
  0
LINE
  8
0
 62
     0
 10
136.445
 20
102.804
 30
0.0
 11
136.445
 21
101.805
 31
0.0
  0
LINE
  8
0
 62
     0
 10
136.445
 20
101.805
 30
0.0
 11
135.644
 21
101.805
 31
0.0
  0
LINE
  8
0
 62
     0
 10
135.644
 20
101.805
 30
0.0
 11
135.644
 21
98.7048
 31
0.0
  0
LINE
  8
0
 62
     0
 10
135.644
 20
98.7048
 30
0.0
 11
136.445
 21
98.7048
 31
0.0
  0
LINE
  8
0
 62
     0
 10
136.445
 20
98.7048
 30
0.0
 11
136.445
 21
92.9047
 31
0.0
  0
LINE
  8
0
 62
     0
 10
136.445
 20
92.9047
 30
0.0
 11
135.644
 21
92.9047
 31
0.0
  0
LINE
  8
0
 62
     0
 10
135.644
 20
92.9047
 30
0.0
 11
135.644
 21
89.8052
 31
0.0
  0
LINE
  8
0
 62
     0
 10
135.644
 20
89.8052
 30
0.0
 11
136.445
 21
89.8052
 31
0.0
  0
LINE
  8
0
 62
     0
 10
136.445
 20
89.8052
 30
0.0
 11
136.445
 21
88.8047
 31
0.0
  0
LINE
  8
0
 62
     0
 10
136.445
 20
88.8047
 30
0.0
 11
150.445
 21
88.8047
 31
0.0
  0
LINE
  8
0
 62
     0
 10
150.445
 20
88.8047
 30
0.0
 11
150.445
 21
89.8052
 31
0.0
  0
LINE
  8
0
 62
     0
 10
150.445
 20
89.8052
 30
0.0
 11
151.245
 21
89.8052
 31
0.0
  0
LINE
  8
0
 62
     0
 10
151.245
 20
89.8052
 30
0.0
 11
151.245
 21
92.9047
 31
0.0
  0
LINE
  8
0
 62
     0
 10
151.245
 20
92.9047
 30
0.0
 11
150.445
 21
92.9047
 31
0.0
  0
LINE
  8
0
 62
     0
 10
150.445
 20
92.9047
 30
0.0
 11
150.445
 21
98.7048
 31
0.0
  0
LINE
  8
0
 62
     0
 10
150.445
 20
98.7048
 30
0.0
 11
151.245
 21
98.7048
 31
0.0
  0
LINE
  8
0
 62
     0
 10
151.245
 20
98.7048
 30
0.0
 11
151.245
 21
101.805
 31
0.0
  0
LINE
  8
0
 62
     0
 10
151.245
 20
101.805
 30
0.0
 11
150.445
 21
101.805
 31
0.0
  0
LINE
  8
0
 62
     0
 10
150.445
 20
101.805
 30
0.0
 11
150.445
 21
102.804
 31
0.0
  0
LINE
  8
0
 62
     0
 10
150.445
 20
102.804
 30
0.0
 11
136.445
 21
102.804
 31
0.0
  0
LINE
  8
0
 62
     0
 10
155.495
 20
102.804
 30
0.0
 11
155.495
 21
101.805
 31
0.0
  0
LINE
  8
0
 62
     0
 10
155.495
 20
101.805
 30
0.0
 11
154.694
 21
101.805
 31
0.0
  0
LINE
  8
0
 62
     0
 10
154.694
 20
101.805
 30
0.0
 11
154.694
 21
98.7048
 31
0.0
  0
LINE
  8
0
 62
     0
 10
154.694
 20
98.7048
 30
0.0
 11
155.495
 21
98.7048
 31
0.0
  0
LINE
  8
0
 62
     0
 10
155.495
 20
98.7048
 30
0.0
 11
155.495
 21
92.9047
 31
0.0
  0
LINE
  8
0
 62
     0
 10
155.495
 20
92.9047
 30
0.0
 11
154.694
 21
92.9047
 31
0.0
  0
LINE
  8
0
 62
     0
 10
154.694
 20
92.9047
 30
0.0
 11
154.694
 21
89.8052
 31
0.0
  0
LINE
  8
0
 62
     0
 10
154.694
 20
89.8052
 30
0.0
 11
155.495
 21
89.8052
 31
0.0
  0
LINE
  8
0
 62
     0
 10
155.495
 20
89.8052
 30
0.0
 11
155.495
 21
88.8047
 31
0.0
  0
LINE
  8
0
 62
     0
 10
155.495
 20
88.8047
 30
0.0
 11
169.495
 21
88.8047
 31
0.0
  0
LINE
  8
0
 62
     0
 10
169.495
 20
88.8047
 30
0.0
 11
169.495
 21
89.8052
 31
0.0
  0
LINE
  8
0
 62
     0
 10
169.495
 20
89.8052
 30
0.0
 11
170.295
 21
89.8052
 31
0.0
  0
LINE
  8
0
 62
     0
 10
170.295
 20
89.8052
 30
0.0
 11
170.295
 21
92.9047
 31
0.0
  0
LINE
  8
0
 62
     0
 10
170.295
 20
92.9047
 30
0.0
 11
169.495
 21
92.9047
 31
0.0
  0
LINE
  8
0
 62
     0
 10
169.495
 20
92.9047
 30
0.0
 11
169.495
 21
98.7048
 31
0.0
  0
LINE
  8
0
 62
     0
 10
169.495
 20
98.7048
 30
0.0
 11
170.295
 21
98.7048
 31
0.0
  0
LINE
  8
0
 62
     0
 10
170.295
 20
98.7048
 30
0.0
 11
170.295
 21
101.805
 31
0.0
  0
LINE
  8
0
 62
     0
 10
170.295
 20
101.805
 30
0.0
 11
169.495
 21
101.805
 31
0.0
  0
LINE
  8
0
 62
     0
 10
169.495
 20
101.805
 30
0.0
 11
169.495
 21
102.804
 31
0.0
  0
LINE
  8
0
 62
     0
 10
169.495
 20
102.804
 30
0.0
 11
155.495
 21
102.804
 31
0.0
  0
LINE
  8
0
 62
     0
 10
174.545
 20
102.804
 30
0.0
 11
174.545
 21
101.805
 31
0.0
  0
LINE
  8
0
 62
     0
 10
174.545
 20
101.805
 30
0.0
 11
173.744
 21
101.805
 31
0.0
  0
LINE
  8
0
 62
     0
 10
173.744
 20
101.805
 30
0.0
 11
173.744
 21
98.7048
 31
0.0
  0
LINE
  8
0
 62
     0
 10
173.744
 20
98.7048
 30
0.0
 11
174.545
 21
98.7048
 31
0.0
  0
LINE
  8
0
 62
     0
 10
174.545
 20
98.7048
 30
0.0
 11
174.545
 21
92.9047
 31
0.0
  0
LINE
  8
0
 62
     0
 10
174.545
 20
92.9047
 30
0.0
 11
173.744
 21
92.9047
 31
0.0
  0
LINE
  8
0
 62
     0
 10
173.744
 20
92.9047
 30
0.0
 11
173.744
 21
89.8052
 31
0.0
  0
LINE
  8
0
 62
     0
 10
173.744
 20
89.8052
 30
0.0
 11
174.545
 21
89.8052
 31
0.0
  0
LINE
  8
0
 62
     0
 10
174.545
 20
89.8052
 30
0.0
 11
174.545
 21
88.8047
 31
0.0
  0
LINE
  8
0
 62
     0
 10
174.545
 20
88.8047
 30
0.0
 11
188.545
 21
88.8047
 31
0.0
  0
LINE
  8
0
 62
     0
 10
188.545
 20
88.8047
 30
0.0
 11
188.545
 21
89.8052
 31
0.0
  0
LINE
  8
0
 62
     0
 10
188.545
 20
89.8052
 30
0.0
 11
189.345
 21
89.8052
 31
0.0
  0
LINE
  8
0
 62
     0
 10
189.345
 20
89.8052
 30
0.0
 11
189.345
 21
92.9047
 31
0.0
  0
LINE
  8
0
 62
     0
 10
189.345
 20
92.9047
 30
0.0
 11
188.545
 21
92.9047
 31
0.0
  0
LINE
  8
0
 62
     0
 10
188.545
 20
92.9047
 30
0.0
 11
188.545
 21
98.7048
 31
0.0
  0
LINE
  8
0
 62
     0
 10
188.545
 20
98.7048
 30
0.0
 11
189.345
 21
98.7048
 31
0.0
  0
LINE
  8
0
 62
     0
 10
189.345
 20
98.7048
 30
0.0
 11
189.345
 21
101.805
 31
0.0
  0
LINE
  8
0
 62
     0
 10
189.345
 20
101.805
 30
0.0
 11
188.545
 21
101.805
 31
0.0
  0
LINE
  8
0
 62
     0
 10
188.545
 20
101.805
 30
0.0
 11
188.545
 21
102.804
 31
0.0
  0
LINE
  8
0
 62
     0
 10
188.545
 20
102.804
 30
0.0
 11
174.545
 21
102.804
 31
0.0
  0
LINE
  8
0
 62
     0
 10
193.595
 20
102.804
 30
0.0
 11
193.595
 21
101.805
 31
0.0
  0
LINE
  8
0
 62
     0
 10
193.595
 20
101.805
 30
0.0
 11
192.794
 21
101.805
 31
0.0
  0
LINE
  8
0
 62
     0
 10
192.794
 20
101.805
 30
0.0
 11
192.794
 21
98.7048
 31
0.0
  0
LINE
  8
0
 62
     0
 10
192.794
 20
98.7048
 30
0.0
 11
193.595
 21
98.7048
 31
0.0
  0
LINE
  8
0
 62
     0
 10
193.595
 20
98.7048
 30
0.0
 11
193.595
 21
92.9047
 31
0.0
  0
LINE
  8
0
 62
     0
 10
193.595
 20
92.9047
 30
0.0
 11
192.794
 21
92.9047
 31
0.0
  0
LINE
  8
0
 62
     0
 10
192.794
 20
92.9047
 30
0.0
 11
192.794
 21
89.8052
 31
0.0
  0
LINE
  8
0
 62
     0
 10
192.794
 20
89.8052
 30
0.0
 11
193.595
 21
89.8052
 31
0.0
  0
LINE
  8
0
 62
     0
 10
193.595
 20
89.8052
 30
0.0
 11
193.595
 21
88.8047
 31
0.0
  0
LINE
  8
0
 62
     0
 10
193.595
 20
88.8047
 30
0.0
 11
207.595
 21
88.8047
 31
0.0
  0
LINE
  8
0
 62
     0
 10
207.595
 20
88.8047
 30
0.0
 11
207.595
 21
89.8052
 31
0.0
  0
LINE
  8
0
 62
     0
 10
207.595
 20
89.8052
 30
0.0
 11
208.395
 21
89.8052
 31
0.0
  0
LINE
  8
0
 62
     0
 10
208.395
 20
89.8052
 30
0.0
 11
208.395
 21
92.9047
 31
0.0
  0
LINE
  8
0
 62
     0
 10
208.395
 20
92.9047
 30
0.0
 11
207.595
 21
92.9047
 31
0.0
  0
LINE
  8
0
 62
     0
 10
207.595
 20
92.9047
 30
0.0
 11
207.595
 21
98.7048
 31
0.0
  0
LINE
  8
0
 62
     0
 10
207.595
 20
98.7048
 30
0.0
 11
208.395
 21
98.7048
 31
0.0
  0
LINE
  8
0
 62
     0
 10
208.395
 20
98.7048
 30
0.0
 11
208.395
 21
101.805
 31
0.0
  0
LINE
  8
0
 62
     0
 10
208.395
 20
101.805
 30
0.0
 11
207.595
 21
101.805
 31
0.0
  0
LINE
  8
0
 62
     0
 10
207.595
 20
101.805
 30
0.0
 11
207.595
 21
102.804
 31
0.0
  0
LINE
  8
0
 62
     0
 10
207.595
 20
102.804
 30
0.0
 11
193.595
 21
102.804
 31
0.0
  0
LINE
  8
0
 62
     0
 10
212.645
 20
102.804
 30
0.0
 11
212.645
 21
101.805
 31
0.0
  0
LINE
  8
0
 62
     0
 10
212.645
 20
101.805
 30
0.0
 11
211.844
 21
101.805
 31
0.0
  0
LINE
  8
0
 62
     0
 10
211.844
 20
101.805
 30
0.0
 11
211.844
 21
98.7048
 31
0.0
  0
LINE
  8
0
 62
     0
 10
211.844
 20
98.7048
 30
0.0
 11
212.645
 21
98.7048
 31
0.0
  0
LINE
  8
0
 62
     0
 10
212.645
 20
98.7048
 30
0.0
 11
212.645
 21
92.9047
 31
0.0
  0
LINE
  8
0
 62
     0
 10
212.645
 20
92.9047
 30
0.0
 11
211.844
 21
92.9047
 31
0.0
  0
LINE
  8
0
 62
     0
 10
211.844
 20
92.9047
 30
0.0
 11
211.844
 21
89.8052
 31
0.0
  0
LINE
  8
0
 62
     0
 10
211.844
 20
89.8052
 30
0.0
 11
212.645
 21
89.8052
 31
0.0
  0
LINE
  8
0
 62
     0
 10
212.645
 20
89.8052
 30
0.0
 11
212.645
 21
88.8047
 31
0.0
  0
LINE
  8
0
 62
     0
 10
212.645
 20
88.8047
 30
0.0
 11
226.645
 21
88.8047
 31
0.0
  0
LINE
  8
0
 62
     0
 10
226.645
 20
88.8047
 30
0.0
 11
226.645
 21
89.8052
 31
0.0
  0
LINE
  8
0
 62
     0
 10
226.645
 20
89.8052
 30
0.0
 11
227.445
 21
89.8052
 31
0.0
  0
LINE
  8
0
 62
     0
 10
227.445
 20
89.8052
 30
0.0
 11
227.445
 21
92.9047
 31
0.0
  0
LINE
  8
0
 62
     0
 10
227.445
 20
92.9047
 30
0.0
 11
226.645
 21
92.9047
 31
0.0
  0
LINE
  8
0
 62
     0
 10
226.645
 20
92.9047
 30
0.0
 11
226.645
 21
98.7048
 31
0.0
  0
LINE
  8
0
 62
     0
 10
226.645
 20
98.7048
 30
0.0
 11
227.445
 21
98.7048
 31
0.0
  0
LINE
  8
0
 62
     0
 10
227.445
 20
98.7048
 30
0.0
 11
227.445
 21
101.805
 31
0.0
  0
LINE
  8
0
 62
     0
 10
227.445
 20
101.805
 30
0.0
 11
226.645
 21
101.805
 31
0.0
  0
LINE
  8
0
 62
     0
 10
226.645
 20
101.805
 30
0.0
 11
226.645
 21
102.804
 31
0.0
  0
LINE
  8
0
 62
     0
 10
226.645
 20
102.804
 30
0.0
 11
212.645
 21
102.804
 31
0.0
  0
LINE
  8
0
 62
     0
 10
231.695
 20
102.804
 30
0.0
 11
231.695
 21
101.805
 31
0.0
  0
LINE
  8
0
 62
     0
 10
231.695
 20
101.805
 30
0.0
 11
230.894
 21
101.805
 31
0.0
  0
LINE
  8
0
 62
     0
 10
230.894
 20
101.805
 30
0.0
 11
230.894
 21
98.7048
 31
0.0
  0
LINE
  8
0
 62
     0
 10
230.894
 20
98.7048
 30
0.0
 11
231.695
 21
98.7048
 31
0.0
  0
LINE
  8
0
 62
     0
 10
231.695
 20
98.7048
 30
0.0
 11
231.695
 21
92.9047
 31
0.0
  0
LINE
  8
0
 62
     0
 10
231.695
 20
92.9047
 30
0.0
 11
230.894
 21
92.9047
 31
0.0
  0
LINE
  8
0
 62
     0
 10
230.894
 20
92.9047
 30
0.0
 11
230.894
 21
89.8052
 31
0.0
  0
LINE
  8
0
 62
     0
 10
230.894
 20
89.8052
 30
0.0
 11
231.695
 21
89.8052
 31
0.0
  0
LINE
  8
0
 62
     0
 10
231.695
 20
89.8052
 30
0.0
 11
231.695
 21
88.8047
 31
0.0
  0
LINE
  8
0
 62
     0
 10
231.695
 20
88.8047
 30
0.0
 11
245.695
 21
88.8047
 31
0.0
  0
LINE
  8
0
 62
     0
 10
245.695
 20
88.8047
 30
0.0
 11
245.695
 21
89.8052
 31
0.0
  0
LINE
  8
0
 62
     0
 10
245.695
 20
89.8052
 30
0.0
 11
246.495
 21
89.8052
 31
0.0
  0
LINE
  8
0
 62
     0
 10
246.495
 20
89.8052
 30
0.0
 11
246.495
 21
92.9047
 31
0.0
  0
LINE
  8
0
 62
     0
 10
246.495
 20
92.9047
 30
0.0
 11
245.695
 21
92.9047
 31
0.0
  0
LINE
  8
0
 62
     0
 10
245.695
 20
92.9047
 30
0.0
 11
245.695
 21
98.7048
 31
0.0
  0
LINE
  8
0
 62
     0
 10
245.695
 20
98.7048
 30
0.0
 11
246.495
 21
98.7048
 31
0.0
  0
LINE
  8
0
 62
     0
 10
246.495
 20
98.7048
 30
0.0
 11
246.495
 21
101.805
 31
0.0
  0
LINE
  8
0
 62
     0
 10
246.495
 20
101.805
 30
0.0
 11
245.695
 21
101.805
 31
0.0
  0
LINE
  8
0
 62
     0
 10
245.695
 20
101.805
 30
0.0
 11
245.695
 21
102.804
 31
0.0
  0
LINE
  8
0
 62
     0
 10
245.695
 20
102.804
 30
0.0
 11
231.695
 21
102.804
 31
0.0
  0
LINE
  8
0
 62
     0
 10
12.6201
 20
131.379
 30
0.0
 11
12.6201
 21
130.38
 31
0.0
  0
LINE
  8
0
 62
     0
 10
12.6201
 20
130.38
 30
0.0
 11
11.8194
 21
130.38
 31
0.0
  0
LINE
  8
0
 62
     0
 10
11.8194
 20
130.38
 30
0.0
 11
11.8194
 21
127.28
 31
0.0
  0
LINE
  8
0
 62
     0
 10
11.8194
 20
127.28
 30
0.0
 11
12.6201
 21
127.28
 31
0.0
  0
LINE
  8
0
 62
     0
 10
12.6201
 20
127.28
 30
0.0
 11
12.6201
 21
121.481
 31
0.0
  0
LINE
  8
0
 62
     0
 10
12.6201
 20
121.481
 30
0.0
 11
11.8194
 21
121.481
 31
0.0
  0
LINE
  8
0
 62
     0
 10
11.8194
 20
121.481
 30
0.0
 11
11.8194
 21
118.38
 31
0.0
  0
LINE
  8
0
 62
     0
 10
11.8194
 20
118.38
 30
0.0
 11
12.6201
 21
118.38
 31
0.0
  0
LINE
  8
0
 62
     0
 10
12.6201
 20
118.38
 30
0.0
 11
12.6201
 21
117.38
 31
0.0
  0
LINE
  8
0
 62
     0
 10
12.6201
 20
117.38
 30
0.0
 11
26.6196
 21
117.38
 31
0.0
  0
LINE
  8
0
 62
     0
 10
26.6196
 20
117.38
 30
0.0
 11
26.6196
 21
118.38
 31
0.0
  0
LINE
  8
0
 62
     0
 10
26.6196
 20
118.38
 30
0.0
 11
27.4175
 21
118.38
 31
0.0
  0
LINE
  8
0
 62
     0
 10
27.4175
 20
118.38
 30
0.0
 11
27.4175
 21
121.481
 31
0.0
  0
LINE
  8
0
 62
     0
 10
27.4175
 20
121.481
 30
0.0
 11
26.6196
 21
121.481
 31
0.0
  0
LINE
  8
0
 62
     0
 10
26.6196
 20
121.481
 30
0.0
 11
26.6196
 21
127.28
 31
0.0
  0
LINE
  8
0
 62
     0
 10
26.6196
 20
127.28
 30
0.0
 11
27.4175
 21
127.28
 31
0.0
  0
LINE
  8
0
 62
     0
 10
27.4175
 20
127.28
 30
0.0
 11
27.4175
 21
130.38
 31
0.0
  0
LINE
  8
0
 62
     0
 10
27.4175
 20
130.38
 30
0.0
 11
26.6196
 21
130.38
 31
0.0
  0
LINE
  8
0
 62
     0
 10
26.6196
 20
130.38
 30
0.0
 11
26.6196
 21
131.379
 31
0.0
  0
LINE
  8
0
 62
     0
 10
26.6196
 20
131.379
 30
0.0
 11
12.6201
 21
131.379
 31
0.0
  0
LINE
  8
0
 62
     0
 10
31.6701
 20
131.379
 30
0.0
 11
31.6701
 21
130.38
 31
0.0
  0
LINE
  8
0
 62
     0
 10
31.6701
 20
130.38
 30
0.0
 11
30.8694
 21
130.38
 31
0.0
  0
LINE
  8
0
 62
     0
 10
30.8694
 20
130.38
 30
0.0
 11
30.8694
 21
127.28
 31
0.0
  0
LINE
  8
0
 62
     0
 10
30.8694
 20
127.28
 30
0.0
 11
31.6701
 21
127.28
 31
0.0
  0
LINE
  8
0
 62
     0
 10
31.6701
 20
127.28
 30
0.0
 11
31.6701
 21
121.481
 31
0.0
  0
LINE
  8
0
 62
     0
 10
31.6701
 20
121.481
 30
0.0
 11
30.8694
 21
121.481
 31
0.0
  0
LINE
  8
0
 62
     0
 10
30.8694
 20
121.481
 30
0.0
 11
30.8694
 21
118.38
 31
0.0
  0
LINE
  8
0
 62
     0
 10
30.8694
 20
118.38
 30
0.0
 11
31.6701
 21
118.38
 31
0.0
  0
LINE
  8
0
 62
     0
 10
31.6701
 20
118.38
 30
0.0
 11
31.6701
 21
117.38
 31
0.0
  0
LINE
  8
0
 62
     0
 10
31.6701
 20
117.38
 30
0.0
 11
45.6696
 21
117.38
 31
0.0
  0
LINE
  8
0
 62
     0
 10
45.6696
 20
117.38
 30
0.0
 11
45.6696
 21
118.38
 31
0.0
  0
LINE
  8
0
 62
     0
 10
45.6696
 20
118.38
 30
0.0
 11
46.4704
 21
118.38
 31
0.0
  0
LINE
  8
0
 62
     0
 10
46.4704
 20
118.38
 30
0.0
 11
46.4704
 21
121.481
 31
0.0
  0
LINE
  8
0
 62
     0
 10
46.4704
 20
121.481
 30
0.0
 11
45.6696
 21
121.481
 31
0.0
  0
LINE
  8
0
 62
     0
 10
45.6696
 20
121.481
 30
0.0
 11
45.6696
 21
127.28
 31
0.0
  0
LINE
  8
0
 62
     0
 10
45.6696
 20
127.28
 30
0.0
 11
46.4704
 21
127.28
 31
0.0
  0
LINE
  8
0
 62
     0
 10
46.4704
 20
127.28
 30
0.0
 11
46.4704
 21
130.38
 31
0.0
  0
LINE
  8
0
 62
     0
 10
46.4704
 20
130.38
 30
0.0
 11
45.6696
 21
130.38
 31
0.0
  0
LINE
  8
0
 62
     0
 10
45.6696
 20
130.38
 30
0.0
 11
45.6696
 21
131.379
 31
0.0
  0
LINE
  8
0
 62
     0
 10
45.6696
 20
131.379
 30
0.0
 11
31.6701
 21
131.379
 31
0.0
  0
LINE
  8
0
 62
     0
 10
50.7199
 20
131.379
 30
0.0
 11
50.7199
 21
130.38
 31
0.0
  0
LINE
  8
0
 62
     0
 10
50.7199
 20
130.38
 30
0.0
 11
49.9195
 21
130.38
 31
0.0
  0
LINE
  8
0
 62
     0
 10
49.9195
 20
130.38
 30
0.0
 11
49.9195
 21
127.28
 31
0.0
  0
LINE
  8
0
 62
     0
 10
49.9195
 20
127.28
 30
0.0
 11
50.7199
 21
127.28
 31
0.0
  0
LINE
  8
0
 62
     0
 10
50.7199
 20
127.28
 30
0.0
 11
50.7199
 21
121.481
 31
0.0
  0
LINE
  8
0
 62
     0
 10
50.7199
 20
121.481
 30
0.0
 11
49.9195
 21
121.481
 31
0.0
  0
LINE
  8
0
 62
     0
 10
49.9195
 20
121.481
 30
0.0
 11
49.9195
 21
118.38
 31
0.0
  0
LINE
  8
0
 62
     0
 10
49.9195
 20
118.38
 30
0.0
 11
50.7199
 21
118.38
 31
0.0
  0
LINE
  8
0
 62
     0
 10
50.7199
 20
118.38
 30
0.0
 11
50.7199
 21
117.38
 31
0.0
  0
LINE
  8
0
 62
     0
 10
50.7199
 20
117.38
 30
0.0
 11
64.7196
 21
117.38
 31
0.0
  0
LINE
  8
0
 62
     0
 10
64.7196
 20
117.38
 30
0.0
 11
64.7196
 21
118.38
 31
0.0
  0
LINE
  8
0
 62
     0
 10
64.7196
 20
118.38
 30
0.0
 11
65.5204
 21
118.38
 31
0.0
  0
LINE
  8
0
 62
     0
 10
65.5204
 20
118.38
 30
0.0
 11
65.5204
 21
121.481
 31
0.0
  0
LINE
  8
0
 62
     0
 10
65.5204
 20
121.481
 30
0.0
 11
64.7196
 21
121.481
 31
0.0
  0
LINE
  8
0
 62
     0
 10
64.7196
 20
121.481
 30
0.0
 11
64.7196
 21
127.28
 31
0.0
  0
LINE
  8
0
 62
     0
 10
64.7196
 20
127.28
 30
0.0
 11
65.5204
 21
127.28
 31
0.0
  0
LINE
  8
0
 62
     0
 10
65.5204
 20
127.28
 30
0.0
 11
65.5204
 21
130.38
 31
0.0
  0
LINE
  8
0
 62
     0
 10
65.5204
 20
130.38
 30
0.0
 11
64.7196
 21
130.38
 31
0.0
  0
LINE
  8
0
 62
     0
 10
64.7196
 20
130.38
 30
0.0
 11
64.7196
 21
131.379
 31
0.0
  0
LINE
  8
0
 62
     0
 10
64.7196
 20
131.379
 30
0.0
 11
50.7199
 21
131.379
 31
0.0
  0
LINE
  8
0
 62
     0
 10
69.7699
 20
131.379
 30
0.0
 11
69.7699
 21
130.38
 31
0.0
  0
LINE
  8
0
 62
     0
 10
69.7699
 20
130.38
 30
0.0
 11
68.9695
 21
130.38
 31
0.0
  0
LINE
  8
0
 62
     0
 10
68.9695
 20
130.38
 30
0.0
 11
68.9695
 21
127.28
 31
0.0
  0
LINE
  8
0
 62
     0
 10
68.9695
 20
127.28
 30
0.0
 11
69.7699
 21
127.28
 31
0.0
  0
LINE
  8
0
 62
     0
 10
69.7699
 20
127.28
 30
0.0
 11
69.7699
 21
121.481
 31
0.0
  0
LINE
  8
0
 62
     0
 10
69.7699
 20
121.481
 30
0.0
 11
68.9695
 21
121.481
 31
0.0
  0
LINE
  8
0
 62
     0
 10
68.9695
 20
121.481
 30
0.0
 11
68.9695
 21
118.38
 31
0.0
  0
LINE
  8
0
 62
     0
 10
68.9695
 20
118.38
 30
0.0
 11
69.7699
 21
118.38
 31
0.0
  0
LINE
  8
0
 62
     0
 10
69.7699
 20
118.38
 30
0.0
 11
69.7699
 21
117.38
 31
0.0
  0
LINE
  8
0
 62
     0
 10
69.7699
 20
117.38
 30
0.0
 11
83.7696
 21
117.38
 31
0.0
  0
LINE
  8
0
 62
     0
 10
83.7696
 20
117.38
 30
0.0
 11
83.7696
 21
118.38
 31
0.0
  0
LINE
  8
0
 62
     0
 10
83.7696
 20
118.38
 30
0.0
 11
84.5704
 21
118.38
 31
0.0
  0
LINE
  8
0
 62
     0
 10
84.5704
 20
118.38
 30
0.0
 11
84.5704
 21
121.481
 31
0.0
  0
LINE
  8
0
 62
     0
 10
84.5704
 20
121.481
 30
0.0
 11
83.7696
 21
121.481
 31
0.0
  0
LINE
  8
0
 62
     0
 10
83.7696
 20
121.481
 30
0.0
 11
83.7696
 21
127.28
 31
0.0
  0
LINE
  8
0
 62
     0
 10
83.7696
 20
127.28
 30
0.0
 11
84.5704
 21
127.28
 31
0.0
  0
LINE
  8
0
 62
     0
 10
84.5704
 20
127.28
 30
0.0
 11
84.5704
 21
130.38
 31
0.0
  0
LINE
  8
0
 62
     0
 10
84.5704
 20
130.38
 30
0.0
 11
83.7696
 21
130.38
 31
0.0
  0
LINE
  8
0
 62
     0
 10
83.7696
 20
130.38
 30
0.0
 11
83.7696
 21
131.379
 31
0.0
  0
LINE
  8
0
 62
     0
 10
83.7696
 20
131.379
 30
0.0
 11
69.7699
 21
131.379
 31
0.0
  0
LINE
  8
0
 62
     0
 10
98.3449
 20
131.379
 30
0.0
 11
98.3449
 21
130.38
 31
0.0
  0
LINE
  8
0
 62
     0
 10
98.3449
 20
130.38
 30
0.0
 11
97.5445
 21
130.38
 31
0.0
  0
LINE
  8
0
 62
     0
 10
97.5445
 20
130.38
 30
0.0
 11
97.5445
 21
127.28
 31
0.0
  0
LINE
  8
0
 62
     0
 10
97.5445
 20
127.28
 30
0.0
 11
98.3449
 21
127.28
 31
0.0
  0
LINE
  8
0
 62
     0
 10
98.3449
 20
127.28
 30
0.0
 11
98.3449
 21
121.481
 31
0.0
  0
LINE
  8
0
 62
     0
 10
98.3449
 20
121.481
 30
0.0
 11
97.5445
 21
121.481
 31
0.0
  0
LINE
  8
0
 62
     0
 10
97.5445
 20
121.481
 30
0.0
 11
97.5445
 21
118.38
 31
0.0
  0
LINE
  8
0
 62
     0
 10
97.5445
 20
118.38
 30
0.0
 11
98.3449
 21
118.38
 31
0.0
  0
LINE
  8
0
 62
     0
 10
98.3449
 20
118.38
 30
0.0
 11
98.3449
 21
117.38
 31
0.0
  0
LINE
  8
0
 62
     0
 10
98.3449
 20
117.38
 30
0.0
 11
112.345
 21
117.38
 31
0.0
  0
LINE
  8
0
 62
     0
 10
112.345
 20
117.38
 30
0.0
 11
112.345
 21
118.38
 31
0.0
  0
LINE
  8
0
 62
     0
 10
112.345
 20
118.38
 30
0.0
 11
113.145
 21
118.38
 31
0.0
  0
LINE
  8
0
 62
     0
 10
113.145
 20
118.38
 30
0.0
 11
113.145
 21
121.481
 31
0.0
  0
LINE
  8
0
 62
     0
 10
113.145
 20
121.481
 30
0.0
 11
112.345
 21
121.481
 31
0.0
  0
LINE
  8
0
 62
     0
 10
112.345
 20
121.481
 30
0.0
 11
112.345
 21
127.28
 31
0.0
  0
LINE
  8
0
 62
     0
 10
112.345
 20
127.28
 30
0.0
 11
113.145
 21
127.28
 31
0.0
  0
LINE
  8
0
 62
     0
 10
113.145
 20
127.28
 30
0.0
 11
113.145
 21
130.38
 31
0.0
  0
LINE
  8
0
 62
     0
 10
113.145
 20
130.38
 30
0.0
 11
112.345
 21
130.38
 31
0.0
  0
LINE
  8
0
 62
     0
 10
112.345
 20
130.38
 30
0.0
 11
112.345
 21
131.379
 31
0.0
  0
LINE
  8
0
 62
     0
 10
112.345
 20
131.379
 30
0.0
 11
98.3449
 21
131.379
 31
0.0
  0
LINE
  8
0
 62
     0
 10
136.445
 20
131.379
 30
0.0
 11
136.445
 21
130.38
 31
0.0
  0
LINE
  8
0
 62
     0
 10
136.445
 20
130.38
 30
0.0
 11
135.643
 21
130.38
 31
0.0
  0
LINE
  8
0
 62
     0
 10
135.643
 20
130.38
 30
0.0
 11
135.643
 21
127.28
 31
0.0
  0
LINE
  8
0
 62
     0
 10
135.643
 20
127.28
 30
0.0
 11
136.445
 21
127.28
 31
0.0
  0
LINE
  8
0
 62
     0
 10
136.445
 20
127.28
 30
0.0
 11
136.445
 21
121.481
 31
0.0
  0
LINE
  8
0
 62
     0
 10
136.445
 20
121.481
 30
0.0
 11
135.643
 21
121.481
 31
0.0
  0
LINE
  8
0
 62
     0
 10
135.643
 20
121.481
 30
0.0
 11
135.643
 21
118.38
 31
0.0
  0
LINE
  8
0
 62
     0
 10
135.643
 20
118.38
 30
0.0
 11
136.445
 21
118.38
 31
0.0
  0
LINE
  8
0
 62
     0
 10
136.445
 20
118.38
 30
0.0
 11
136.445
 21
117.38
 31
0.0
  0
LINE
  8
0
 62
     0
 10
136.445
 20
117.38
 30
0.0
 11
150.445
 21
117.38
 31
0.0
  0
LINE
  8
0
 62
     0
 10
150.445
 20
117.38
 30
0.0
 11
150.445
 21
118.38
 31
0.0
  0
LINE
  8
0
 62
     0
 10
150.445
 20
118.38
 30
0.0
 11
151.245
 21
118.38
 31
0.0
  0
LINE
  8
0
 62
     0
 10
151.245
 20
118.38
 30
0.0
 11
151.245
 21
121.481
 31
0.0
  0
LINE
  8
0
 62
     0
 10
151.245
 20
121.481
 30
0.0
 11
150.445
 21
121.481
 31
0.0
  0
LINE
  8
0
 62
     0
 10
150.445
 20
121.481
 30
0.0
 11
150.445
 21
127.28
 31
0.0
  0
LINE
  8
0
 62
     0
 10
150.445
 20
127.28
 30
0.0
 11
151.245
 21
127.28
 31
0.0
  0
LINE
  8
0
 62
     0
 10
151.245
 20
127.28
 30
0.0
 11
151.245
 21
130.38
 31
0.0
  0
LINE
  8
0
 62
     0
 10
151.245
 20
130.38
 30
0.0
 11
150.445
 21
130.38
 31
0.0
  0
LINE
  8
0
 62
     0
 10
150.445
 20
130.38
 30
0.0
 11
150.445
 21
131.379
 31
0.0
  0
LINE
  8
0
 62
     0
 10
150.445
 20
131.379
 30
0.0
 11
136.445
 21
131.379
 31
0.0
  0
LINE
  8
0
 62
     0
 10
155.495
 20
131.379
 30
0.0
 11
155.495
 21
130.38
 31
0.0
  0
LINE
  8
0
 62
     0
 10
155.495
 20
130.38
 30
0.0
 11
154.694
 21
130.38
 31
0.0
  0
LINE
  8
0
 62
     0
 10
154.694
 20
130.38
 30
0.0
 11
154.694
 21
127.28
 31
0.0
  0
LINE
  8
0
 62
     0
 10
154.694
 20
127.28
 30
0.0
 11
155.495
 21
127.28
 31
0.0
  0
LINE
  8
0
 62
     0
 10
155.495
 20
127.28
 30
0.0
 11
155.495
 21
121.481
 31
0.0
  0
LINE
  8
0
 62
     0
 10
155.495
 20
121.481
 30
0.0
 11
154.694
 21
121.481
 31
0.0
  0
LINE
  8
0
 62
     0
 10
154.694
 20
121.481
 30
0.0
 11
154.694
 21
118.38
 31
0.0
  0
LINE
  8
0
 62
     0
 10
154.694
 20
118.38
 30
0.0
 11
155.495
 21
118.38
 31
0.0
  0
LINE
  8
0
 62
     0
 10
155.495
 20
118.38
 30
0.0
 11
155.495
 21
117.38
 31
0.0
  0
LINE
  8
0
 62
     0
 10
155.495
 20
117.38
 30
0.0
 11
169.495
 21
117.38
 31
0.0
  0
LINE
  8
0
 62
     0
 10
169.495
 20
117.38
 30
0.0
 11
169.495
 21
118.38
 31
0.0
  0
LINE
  8
0
 62
     0
 10
169.495
 20
118.38
 30
0.0
 11
170.295
 21
118.38
 31
0.0
  0
LINE
  8
0
 62
     0
 10
170.295
 20
118.38
 30
0.0
 11
170.295
 21
121.481
 31
0.0
  0
LINE
  8
0
 62
     0
 10
170.295
 20
121.481
 30
0.0
 11
169.495
 21
121.481
 31
0.0
  0
LINE
  8
0
 62
     0
 10
169.495
 20
121.481
 30
0.0
 11
169.495
 21
127.28
 31
0.0
  0
LINE
  8
0
 62
     0
 10
169.495
 20
127.28
 30
0.0
 11
170.295
 21
127.28
 31
0.0
  0
LINE
  8
0
 62
     0
 10
170.295
 20
127.28
 30
0.0
 11
170.295
 21
130.38
 31
0.0
  0
LINE
  8
0
 62
     0
 10
170.295
 20
130.38
 30
0.0
 11
169.495
 21
130.38
 31
0.0
  0
LINE
  8
0
 62
     0
 10
169.495
 20
130.38
 30
0.0
 11
169.495
 21
131.379
 31
0.0
  0
LINE
  8
0
 62
     0
 10
169.495
 20
131.379
 30
0.0
 11
155.495
 21
131.379
 31
0.0
  0
LINE
  8
0
 62
     0
 10
174.545
 20
131.379
 30
0.0
 11
174.545
 21
130.38
 31
0.0
  0
LINE
  8
0
 62
     0
 10
174.545
 20
130.38
 30
0.0
 11
173.744
 21
130.38
 31
0.0
  0
LINE
  8
0
 62
     0
 10
173.744
 20
130.38
 30
0.0
 11
173.744
 21
127.28
 31
0.0
  0
LINE
  8
0
 62
     0
 10
173.744
 20
127.28
 30
0.0
 11
174.545
 21
127.28
 31
0.0
  0
LINE
  8
0
 62
     0
 10
174.545
 20
127.28
 30
0.0
 11
174.545
 21
121.481
 31
0.0
  0
LINE
  8
0
 62
     0
 10
174.545
 20
121.481
 30
0.0
 11
173.744
 21
121.481
 31
0.0
  0
LINE
  8
0
 62
     0
 10
173.744
 20
121.481
 30
0.0
 11
173.744
 21
118.38
 31
0.0
  0
LINE
  8
0
 62
     0
 10
173.744
 20
118.38
 30
0.0
 11
174.545
 21
118.38
 31
0.0
  0
LINE
  8
0
 62
     0
 10
174.545
 20
118.38
 30
0.0
 11
174.545
 21
117.38
 31
0.0
  0
LINE
  8
0
 62
     0
 10
174.545
 20
117.38
 30
0.0
 11
188.545
 21
117.38
 31
0.0
  0
LINE
  8
0
 62
     0
 10
188.545
 20
117.38
 30
0.0
 11
188.545
 21
118.38
 31
0.0
  0
LINE
  8
0
 62
     0
 10
188.545
 20
118.38
 30
0.0
 11
189.345
 21
118.38
 31
0.0
  0
LINE
  8
0
 62
     0
 10
189.345
 20
118.38
 30
0.0
 11
189.345
 21
121.481
 31
0.0
  0
LINE
  8
0
 62
     0
 10
189.345
 20
121.481
 30
0.0
 11
188.545
 21
121.481
 31
0.0
  0
LINE
  8
0
 62
     0
 10
188.545
 20
121.481
 30
0.0
 11
188.545
 21
127.28
 31
0.0
  0
LINE
  8
0
 62
     0
 10
188.545
 20
127.28
 30
0.0
 11
189.345
 21
127.28
 31
0.0
  0
LINE
  8
0
 62
     0
 10
189.345
 20
127.28
 30
0.0
 11
189.345
 21
130.38
 31
0.0
  0
LINE
  8
0
 62
     0
 10
189.345
 20
130.38
 30
0.0
 11
188.545
 21
130.38
 31
0.0
  0
LINE
  8
0
 62
     0
 10
188.545
 20
130.38
 30
0.0
 11
188.545
 21
131.379
 31
0.0
  0
LINE
  8
0
 62
     0
 10
188.545
 20
131.379
 30
0.0
 11
174.545
 21
131.379
 31
0.0
  0
LINE
  8
0
 62
     0
 10
193.595
 20
131.379
 30
0.0
 11
193.595
 21
130.38
 31
0.0
  0
LINE
  8
0
 62
     0
 10
193.595
 20
130.38
 30
0.0
 11
192.794
 21
130.38
 31
0.0
  0
LINE
  8
0
 62
     0
 10
192.794
 20
130.38
 30
0.0
 11
192.794
 21
127.28
 31
0.0
  0
LINE
  8
0
 62
     0
 10
192.794
 20
127.28
 30
0.0
 11
193.595
 21
127.28
 31
0.0
  0
LINE
  8
0
 62
     0
 10
193.595
 20
127.28
 30
0.0
 11
193.595
 21
121.481
 31
0.0
  0
LINE
  8
0
 62
     0
 10
193.595
 20
121.481
 30
0.0
 11
192.794
 21
121.481
 31
0.0
  0
LINE
  8
0
 62
     0
 10
192.794
 20
121.481
 30
0.0
 11
192.794
 21
118.38
 31
0.0
  0
LINE
  8
0
 62
     0
 10
192.794
 20
118.38
 30
0.0
 11
193.595
 21
118.38
 31
0.0
  0
LINE
  8
0
 62
     0
 10
193.595
 20
118.38
 30
0.0
 11
193.595
 21
117.38
 31
0.0
  0
LINE
  8
0
 62
     0
 10
193.595
 20
117.38
 30
0.0
 11
207.595
 21
117.38
 31
0.0
  0
LINE
  8
0
 62
     0
 10
207.595
 20
117.38
 30
0.0
 11
207.595
 21
118.38
 31
0.0
  0
LINE
  8
0
 62
     0
 10
207.595
 20
118.38
 30
0.0
 11
208.395
 21
118.38
 31
0.0
  0
LINE
  8
0
 62
     0
 10
208.395
 20
118.38
 30
0.0
 11
208.395
 21
121.481
 31
0.0
  0
LINE
  8
0
 62
     0
 10
208.395
 20
121.481
 30
0.0
 11
207.595
 21
121.481
 31
0.0
  0
LINE
  8
0
 62
     0
 10
207.595
 20
121.481
 30
0.0
 11
207.595
 21
127.28
 31
0.0
  0
LINE
  8
0
 62
     0
 10
207.595
 20
127.28
 30
0.0
 11
208.395
 21
127.28
 31
0.0
  0
LINE
  8
0
 62
     0
 10
208.395
 20
127.28
 30
0.0
 11
208.395
 21
130.38
 31
0.0
  0
LINE
  8
0
 62
     0
 10
208.395
 20
130.38
 30
0.0
 11
207.595
 21
130.38
 31
0.0
  0
LINE
  8
0
 62
     0
 10
207.595
 20
130.38
 30
0.0
 11
207.595
 21
131.379
 31
0.0
  0
LINE
  8
0
 62
     0
 10
207.595
 20
131.379
 30
0.0
 11
193.595
 21
131.379
 31
0.0
  0
LINE
  8
0
 62
     0
 10
222.17
 20
131.379
 30
0.0
 11
222.17
 21
130.38
 31
0.0
  0
LINE
  8
0
 62
     0
 10
222.17
 20
130.38
 30
0.0
 11
221.369
 21
130.38
 31
0.0
  0
LINE
  8
0
 62
     0
 10
221.369
 20
130.38
 30
0.0
 11
221.369
 21
127.28
 31
0.0
  0
LINE
  8
0
 62
     0
 10
221.369
 20
127.28
 30
0.0
 11
222.17
 21
127.28
 31
0.0
  0
LINE
  8
0
 62
     0
 10
222.17
 20
127.28
 30
0.0
 11
222.17
 21
121.481
 31
0.0
  0
LINE
  8
0
 62
     0
 10
222.17
 20
121.481
 30
0.0
 11
221.369
 21
121.481
 31
0.0
  0
LINE
  8
0
 62
     0
 10
221.369
 20
121.481
 30
0.0
 11
221.369
 21
118.38
 31
0.0
  0
LINE
  8
0
 62
     0
 10
221.369
 20
118.38
 30
0.0
 11
222.17
 21
118.38
 31
0.0
  0
LINE
  8
0
 62
     0
 10
222.17
 20
118.38
 30
0.0
 11
222.17
 21
117.38
 31
0.0
  0
LINE
  8
0
 62
     0
 10
222.17
 20
117.38
 30
0.0
 11
236.17
 21
117.38
 31
0.0
  0
LINE
  8
0
 62
     0
 10
236.17
 20
117.38
 30
0.0
 11
236.17
 21
118.38
 31
0.0
  0
LINE
  8
0
 62
     0
 10
236.17
 20
118.38
 30
0.0
 11
236.97
 21
118.38
 31
0.0
  0
LINE
  8
0
 62
     0
 10
236.97
 20
118.38
 30
0.0
 11
236.97
 21
121.481
 31
0.0
  0
LINE
  8
0
 62
     0
 10
236.97
 20
121.481
 30
0.0
 11
236.17
 21
121.481
 31
0.0
  0
LINE
  8
0
 62
     0
 10
236.17
 20
121.481
 30
0.0
 11
236.17
 21
127.28
 31
0.0
  0
LINE
  8
0
 62
     0
 10
236.17
 20
127.28
 30
0.0
 11
236.97
 21
127.28
 31
0.0
  0
LINE
  8
0
 62
     0
 10
236.97
 20
127.28
 30
0.0
 11
236.97
 21
130.38
 31
0.0
  0
LINE
  8
0
 62
     0
 10
236.97
 20
130.38
 30
0.0
 11
236.17
 21
130.38
 31
0.0
  0
LINE
  8
0
 62
     0
 10
236.17
 20
130.38
 30
0.0
 11
236.17
 21
131.379
 31
0.0
  0
LINE
  8
0
 62
     0
 10
236.17
 20
131.379
 30
0.0
 11
222.17
 21
131.379
 31
0.0
  0
LINE
  8
0
 62
     0
 10
241.22
 20
131.379
 30
0.0
 11
241.22
 21
130.38
 31
0.0
  0
LINE
  8
0
 62
     0
 10
241.22
 20
130.38
 30
0.0
 11
240.419
 21
130.38
 31
0.0
  0
LINE
  8
0
 62
     0
 10
240.419
 20
130.38
 30
0.0
 11
240.419
 21
127.28
 31
0.0
  0
LINE
  8
0
 62
     0
 10
240.419
 20
127.28
 30
0.0
 11
241.22
 21
127.28
 31
0.0
  0
LINE
  8
0
 62
     0
 10
241.22
 20
127.28
 30
0.0
 11
241.22
 21
121.481
 31
0.0
  0
LINE
  8
0
 62
     0
 10
241.22
 20
121.481
 30
0.0
 11
240.419
 21
121.481
 31
0.0
  0
LINE
  8
0
 62
     0
 10
240.419
 20
121.481
 30
0.0
 11
240.419
 21
118.38
 31
0.0
  0
LINE
  8
0
 62
     0
 10
240.419
 20
118.38
 30
0.0
 11
241.22
 21
118.38
 31
0.0
  0
LINE
  8
0
 62
     0
 10
241.22
 20
118.38
 30
0.0
 11
241.22
 21
117.38
 31
0.0
  0
LINE
  8
0
 62
     0
 10
241.22
 20
117.38
 30
0.0
 11
255.22
 21
117.38
 31
0.0
  0
LINE
  8
0
 62
     0
 10
255.22
 20
117.38
 30
0.0
 11
255.22
 21
118.38
 31
0.0
  0
LINE
  8
0
 62
     0
 10
255.22
 20
118.38
 30
0.0
 11
256.02
 21
118.38
 31
0.0
  0
LINE
  8
0
 62
     0
 10
256.02
 20
118.38
 30
0.0
 11
256.02
 21
121.481
 31
0.0
  0
LINE
  8
0
 62
     0
 10
256.02
 20
121.481
 30
0.0
 11
255.22
 21
121.481
 31
0.0
  0
LINE
  8
0
 62
     0
 10
255.22
 20
121.481
 30
0.0
 11
255.22
 21
127.28
 31
0.0
  0
LINE
  8
0
 62
     0
 10
255.22
 20
127.28
 30
0.0
 11
256.02
 21
127.28
 31
0.0
  0
LINE
  8
0
 62
     0
 10
256.02
 20
127.28
 30
0.0
 11
256.02
 21
130.38
 31
0.0
  0
LINE
  8
0
 62
     0
 10
256.02
 20
130.38
 30
0.0
 11
255.22
 21
130.38
 31
0.0
  0
LINE
  8
0
 62
     0
 10
255.22
 20
130.38
 30
0.0
 11
255.22
 21
131.379
 31
0.0
  0
LINE
  8
0
 62
     0
 10
255.22
 20
131.379
 30
0.0
 11
241.22
 21
131.379
 31
0.0
  0
LINE
  8
0
 62
     0
 10
4.75424
 20
139.952
 30
0.0
 11
4.44832
 21
139.795
 31
0.0
  0
LINE
  8
0
 62
     0
 10
4.44832
 20
139.795
 30
0.0
 11
4.20441
 21
139.551
 31
0.0
  0
LINE
  8
0
 62
     0
 10
4.20441
 20
139.551
 30
0.0
 11
4.04731
 21
139.245
 31
0.0
  0
LINE
  8
0
 62
     0
 10
4.04731
 20
139.245
 30
0.0
 11
3.99355
 21
138.905
 31
0.0
  0
LINE
  8
0
 62
     0
 10
3.99355
 20
138.905
 30
0.0
 11
4.04731
 21
138.566
 31
0.0
  0
LINE
  8
0
 62
     0
 10
4.04731
 20
138.566
 30
0.0
 11
4.20441
 21
138.259
 31
0.0
  0
LINE
  8
0
 62
     0
 10
4.20441
 20
138.259
 30
0.0
 11
4.44832
 21
138.016
 31
0.0
  0
LINE
  8
0
 62
     0
 10
4.44832
 20
138.016
 30
0.0
 11
4.75424
 21
137.859
 31
0.0
  0
LINE
  8
0
 62
     0
 10
4.75424
 20
137.859
 30
0.0
 11
5.0946
 21
137.805
 31
0.0
  0
LINE
  8
0
 62
     0
 10
5.0946
 20
137.805
 30
0.0
 11
5.43359
 21
137.859
 31
0.0
  0
LINE
  8
0
 62
     0
 10
5.43359
 20
137.859
 30
0.0
 11
5.74089
 21
138.016
 31
0.0
  0
LINE
  8
0
 62
     0
 10
5.74089
 20
138.016
 30
0.0
 11
5.98343
 21
138.259
 31
0.0
  0
LINE
  8
0
 62
     0
 10
5.98343
 20
138.259
 30
0.0
 11
6.14056
 21
138.566
 31
0.0
  0
LINE
  8
0
 62
     0
 10
6.14056
 20
138.566
 30
0.0
 11
6.19428
 21
138.905
 31
0.0
  0
LINE
  8
0
 62
     0
 10
6.19428
 20
138.905
 30
0.0
 11
6.14056
 21
139.245
 31
0.0
  0
LINE
  8
0
 62
     0
 10
6.14056
 20
139.245
 30
0.0
 11
5.98343
 21
139.551
 31
0.0
  0
LINE
  8
0
 62
     0
 10
5.98343
 20
139.551
 30
0.0
 11
5.74089
 21
139.795
 31
0.0
  0
LINE
  8
0
 62
     0
 10
5.74089
 20
139.795
 30
0.0
 11
5.43359
 21
139.952
 31
0.0
  0
LINE
  8
0
 62
     0
 10
5.43359
 20
139.952
 30
0.0
 11
5.0946
 21
140.004
 31
0.0
  0
LINE
  8
0
 62
     0
 10
5.0946
 20
140.004
 30
0.0
 11
4.75424
 21
139.952
 31
0.0
  0
LINE
  8
0
 62
     0
 10
129.58
 20
139.952
 30
0.0
 11
129.272
 21
139.795
 31
0.0
  0
LINE
  8
0
 62
     0
 10
129.272
 20
139.795
 30
0.0
 11
129.03
 21
139.551
 31
0.0
  0
LINE
  8
0
 62
     0
 10
129.03
 20
139.551
 30
0.0
 11
128.874
 21
139.245
 31
0.0
  0
LINE
  8
0
 62
     0
 10
128.874
 20
139.245
 30
0.0
 11
128.82
 21
138.905
 31
0.0
  0
LINE
  8
0
 62
     0
 10
128.82
 20
138.905
 30
0.0
 11
128.874
 21
138.566
 31
0.0
  0
LINE
  8
0
 62
     0
 10
128.874
 20
138.566
 30
0.0
 11
129.03
 21
138.259
 31
0.0
  0
LINE
  8
0
 62
     0
 10
129.03
 20
138.259
 30
0.0
 11
129.272
 21
138.016
 31
0.0
  0
LINE
  8
0
 62
     0
 10
129.272
 20
138.016
 30
0.0
 11
129.58
 21
137.859
 31
0.0
  0
LINE
  8
0
 62
     0
 10
129.58
 20
137.859
 30
0.0
 11
129.92
 21
137.805
 31
0.0
  0
LINE
  8
0
 62
     0
 10
129.92
 20
137.805
 30
0.0
 11
130.259
 21
137.859
 31
0.0
  0
LINE
  8
0
 62
     0
 10
130.259
 20
137.859
 30
0.0
 11
130.566
 21
138.016
 31
0.0
  0
LINE
  8
0
 62
     0
 10
130.566
 20
138.016
 30
0.0
 11
130.81
 21
138.259
 31
0.0
  0
LINE
  8
0
 62
     0
 10
130.81
 20
138.259
 30
0.0
 11
130.966
 21
138.566
 31
0.0
  0
LINE
  8
0
 62
     0
 10
130.966
 20
138.566
 30
0.0
 11
131.02
 21
138.905
 31
0.0
  0
LINE
  8
0
 62
     0
 10
131.02
 20
138.905
 30
0.0
 11
130.966
 21
139.245
 31
0.0
  0
LINE
  8
0
 62
     0
 10
130.966
 20
139.245
 30
0.0
 11
130.81
 21
139.551
 31
0.0
  0
LINE
  8
0
 62
     0
 10
130.81
 20
139.551
 30
0.0
 11
130.566
 21
139.795
 31
0.0
  0
LINE
  8
0
 62
     0
 10
130.566
 20
139.795
 30
0.0
 11
130.259
 21
139.952
 31
0.0
  0
LINE
  8
0
 62
     0
 10
130.259
 20
139.952
 30
0.0
 11
129.92
 21
140.004
 31
0.0
  0
LINE
  8
0
 62
     0
 10
129.92
 20
140.004
 30
0.0
 11
129.58
 21
139.952
 31
0.0
  0
LINE
  8
0
 62
     0
 10
254.405
 20
139.952
 30
0.0
 11
254.099
 21
139.795
 31
0.0
  0
LINE
  8
0
 62
     0
 10
254.099
 20
139.795
 30
0.0
 11
253.855
 21
139.551
 31
0.0
  0
LINE
  8
0
 62
     0
 10
253.855
 20
139.551
 30
0.0
 11
253.698
 21
139.245
 31
0.0
  0
LINE
  8
0
 62
     0
 10
253.698
 20
139.245
 30
0.0
 11
253.646
 21
138.905
 31
0.0
  0
LINE
  8
0
 62
     0
 10
253.646
 20
138.905
 30
0.0
 11
253.698
 21
138.566
 31
0.0
  0
LINE
  8
0
 62
     0
 10
253.698
 20
138.566
 30
0.0
 11
253.855
 21
138.259
 31
0.0
  0
LINE
  8
0
 62
     0
 10
253.855
 20
138.259
 30
0.0
 11
254.099
 21
138.016
 31
0.0
  0
LINE
  8
0
 62
     0
 10
254.099
 20
138.016
 30
0.0
 11
254.405
 21
137.859
 31
0.0
  0
LINE
  8
0
 62
     0
 10
254.405
 20
137.859
 30
0.0
 11
254.745
 21
137.805
 31
0.0
  0
LINE
  8
0
 62
     0
 10
254.745
 20
137.805
 30
0.0
 11
255.084
 21
137.859
 31
0.0
  0
LINE
  8
0
 62
     0
 10
255.084
 20
137.859
 30
0.0
 11
255.392
 21
138.016
 31
0.0
  0
LINE
  8
0
 62
     0
 10
255.392
 20
138.016
 30
0.0
 11
255.634
 21
138.259
 31
0.0
  0
LINE
  8
0
 62
     0
 10
255.634
 20
138.259
 30
0.0
 11
255.791
 21
138.566
 31
0.0
  0
LINE
  8
0
 62
     0
 10
255.791
 20
138.566
 30
0.0
 11
255.845
 21
138.905
 31
0.0
  0
LINE
  8
0
 62
     0
 10
255.845
 20
138.905
 30
0.0
 11
255.791
 21
139.245
 31
0.0
  0
LINE
  8
0
 62
     0
 10
255.791
 20
139.245
 30
0.0
 11
255.634
 21
139.551
 31
0.0
  0
LINE
  8
0
 62
     0
 10
255.634
 20
139.551
 30
0.0
 11
255.392
 21
139.795
 31
0.0
  0
LINE
  8
0
 62
     0
 10
255.392
 20
139.795
 30
0.0
 11
255.084
 21
139.952
 31
0.0
  0
LINE
  8
0
 62
     0
 10
255.084
 20
139.952
 30
0.0
 11
254.745
 21
140.004
 31
0.0
  0
LINE
  8
0
 62
     0
 10
254.745
 20
140.004
 30
0.0
 11
254.405
 21
139.952
 31
0.0
  0
ENDSEC
  0
EOF
