  0
SECTION
  2
HEADER
  9
$ACADVER
  1
AC1009
  9
$EXTMIN
 10
0.0
 20
0.0
 30
0.0
  9
$EXTMAX
 10
1000.0
 20
1000.0
 30
0.0
  9
$FILLMODE
 70
 0
  9
$SPLFRAME
 70
 1
  0
ENDSEC
  0
SECTION
  2
TABLES
  0
TABLE
  2
LAYER
 70
1
  0
LAYER
  2
0
 70
     0
 62
     7
  6
CONTINUOUS
  0
ENDTAB
  0
ENDSEC
  0
SECTION
  2
ENTITIES
  0
LINE
  8
0
 62
     0
 10
254.745
 20
143.904
 30
0.0
 11
255.138
 21
143.889
 31
0.0
  0
LINE
  8
0
 62
     0
 10
255.138
 20
143.889
 30
0.0
 11
255.528
 21
143.844
 31
0.0
  0
LINE
  8
0
 62
     0
 10
255.528
 20
143.844
 30
0.0
 11
255.911
 21
143.766
 31
0.0
  0
LINE
  8
0
 62
     0
 10
255.911
 20
143.766
 30
0.0
 11
256.29
 21
143.661
 31
0.0
  0
LINE
  8
0
 62
     0
 10
256.29
 20
143.661
 30
0.0
 11
256.658
 21
143.524
 31
0.0
  0
LINE
  8
0
 62
     0
 10
256.658
 20
143.524
 30
0.0
 11
257.015
 21
143.36
 31
0.0
  0
LINE
  8
0
 62
     0
 10
257.015
 20
143.36
 30
0.0
 11
257.358
 21
143.169
 31
0.0
  0
LINE
  8
0
 62
     0
 10
257.358
 20
143.169
 30
0.0
 11
257.683
 21
142.951
 31
0.0
  0
LINE
  8
0
 62
     0
 10
257.683
 20
142.951
 30
0.0
 11
257.992
 21
142.708
 31
0.0
  0
LINE
  8
0
 62
     0
 10
257.992
 20
142.708
 30
0.0
 11
258.28
 21
142.441
 31
0.0
  0
LINE
  8
0
 62
     0
 10
258.28
 20
142.441
 30
0.0
 11
258.548
 21
142.153
 31
0.0
  0
LINE
  8
0
 62
     0
 10
258.548
 20
142.153
 30
0.0
 11
258.79
 21
141.844
 31
0.0
  0
LINE
  8
0
 62
     0
 10
258.79
 20
141.844
 30
0.0
 11
259.009
 21
141.518
 31
0.0
  0
LINE
  8
0
 62
     0
 10
259.009
 20
141.518
 30
0.0
 11
259.201
 21
141.175
 31
0.0
  0
LINE
  8
0
 62
     0
 10
259.201
 20
141.175
 30
0.0
 11
259.365
 21
140.819
 31
0.0
  0
LINE
  8
0
 62
     0
 10
259.365
 20
140.819
 30
0.0
 11
259.501
 21
140.451
 31
0.0
  0
LINE
  8
0
 62
     0
 10
259.501
 20
140.451
 30
0.0
 11
259.607
 21
140.072
 31
0.0
  0
LINE
  8
0
 62
     0
 10
259.607
 20
140.072
 30
0.0
 11
259.684
 21
139.688
 31
0.0
  0
LINE
  8
0
 62
     0
 10
259.684
 20
139.688
 30
0.0
 11
259.73
 21
139.297
 31
0.0
  0
LINE
  8
0
 62
     0
 10
259.73
 20
139.297
 30
0.0
 11
259.745
 21
138.905
 31
0.0
  0
LINE
  8
0
 62
     0
 10
259.745
 20
138.905
 30
0.0
 11
259.746
 21
5.07806
 31
0.0
  0
LINE
  8
0
 62
     0
 10
259.746
 20
5.07806
 30
0.0
 11
259.73
 21
4.68672
 31
0.0
  0
LINE
  8
0
 62
     0
 10
259.73
 20
4.68672
 30
0.0
 11
259.684
 21
4.29673
 31
0.0
  0
LINE
  8
0
 62
     0
 10
259.684
 20
4.29673
 30
0.0
 11
259.607
 21
3.91223
 31
0.0
  0
LINE
  8
0
 62
     0
 10
259.607
 20
3.91223
 30
0.0
 11
259.501
 21
3.53328
 31
0.0
  0
LINE
  8
0
 62
     0
 10
259.501
 20
3.53328
 30
0.0
 11
259.365
 21
3.16536
 31
0.0
  0
LINE
  8
0
 62
     0
 10
259.365
 20
3.16536
 30
0.0
 11
259.201
 21
2.80982
 31
0.0
  0
LINE
  8
0
 62
     0
 10
259.201
 20
2.80982
 30
0.0
 11
259.009
 21
2.46669
 31
0.0
  0
LINE
  8
0
 62
     0
 10
259.009
 20
2.46669
 30
0.0
 11
258.79
 21
2.14009
 31
0.0
  0
LINE
  8
0
 62
     0
 10
258.79
 20
2.14009
 30
0.0
 11
258.548
 21
1.83141
 31
0.0
  0
LINE
  8
0
 62
     0
 10
258.548
 20
1.83141
 30
0.0
 11
258.28
 21
1.5434
 31
0.0
  0
LINE
  8
0
 62
     0
 10
258.28
 20
1.5434
 30
0.0
 11
257.992
 21
1.27606
 31
0.0
  0
LINE
  8
0
 62
     0
 10
257.992
 20
1.27606
 30
0.0
 11
257.683
 21
1.03353
 31
0.0
  0
LINE
  8
0
 62
     0
 10
257.683
 20
1.03353
 30
0.0
 11
257.358
 21
0.815799
 31
0.0
  0
LINE
  8
0
 62
     0
 10
257.358
 20
0.815799
 30
0.0
 11
257.015
 21
0.624251
 31
0.0
  0
LINE
  8
0
 62
     0
 10
257.015
 20
0.624251
 30
0.0
 11
256.658
 21
0.460266
 31
0.0
  0
LINE
  8
0
 62
     0
 10
256.658
 20
0.460266
 30
0.0
 11
256.29
 21
0.323839
 31
0.0
  0
LINE
  8
0
 62
     0
 10
256.29
 20
0.323839
 30
0.0
 11
255.911
 21
0.21773
 31
0.0
  0
LINE
  8
0
 62
     0
 10
255.911
 20
0.21773
 30
0.0
 11
255.528
 21
0.14056
 31
0.0
  0
LINE
  8
0
 62
     0
 10
255.528
 20
0.14056
 30
0.0
 11
255.138
 21
0.0950846
 31
0.0
  0
LINE
  8
0
 62
     0
 10
255.138
 20
0.0950846
 30
0.0
 11
254.745
 21
0.0785481
 31
0.0
  0
LINE
  8
0
 62
     0
 10
254.745
 20
0.0785481
 30
0.0
 11
5.0946
 21
0.0785481
 31
0.0
  0
LINE
  8
0
 62
     0
 10
5.0946
 20
0.0785481
 30
0.0
 11
4.70186
 21
0.0950846
 31
0.0
  0
LINE
  8
0
 62
     0
 10
4.70186
 20
0.0950846
 30
0.0
 11
4.3119
 21
0.14056
 31
0.0
  0
LINE
  8
0
 62
     0
 10
4.3119
 20
0.14056
 30
0.0
 11
3.9274
 21
0.21773
 31
0.0
  0
LINE
  8
0
 62
     0
 10
3.9274
 20
0.21773
 30
0.0
 11
3.54845
 21
0.323839
 31
0.0
  0
LINE
  8
0
 62
     0
 10
3.54845
 20
0.323839
 30
0.0
 11
3.18051
 21
0.460266
 31
0.0
  0
LINE
  8
0
 62
     0
 10
3.18051
 20
0.460266
 30
0.0
 11
2.82498
 21
0.624251
 31
0.0
  0
LINE
  8
0
 62
     0
 10
2.82498
 20
0.624251
 30
0.0
 11
2.48185
 21
0.815799
 31
0.0
  0
LINE
  8
0
 62
     0
 10
2.48185
 20
0.815799
 30
0.0
 11
2.15525
 21
1.03353
 31
0.0
  0
LINE
  8
0
 62
     0
 10
2.15525
 20
1.03353
 30
0.0
 11
1.84657
 21
1.27606
 31
0.0
  0
LINE
  8
0
 62
     0
 10
1.84657
 20
1.27606
 30
0.0
 11
1.55856
 21
1.5434
 31
0.0
  0
LINE
  8
0
 62
     0
 10
1.55856
 20
1.5434
 30
0.0
 11
1.29122
 21
1.83141
 31
0.0
  0
LINE
  8
0
 62
     0
 10
1.29122
 20
1.83141
 30
0.0
 11
1.04869
 21
2.14009
 31
0.0
  0
LINE
  8
0
 62
     0
 10
1.04869
 20
2.14009
 30
0.0
 11
0.830957
 21
2.46669
 31
0.0
  0
LINE
  8
0
 62
     0
 10
0.830957
 20
2.46669
 30
0.0
 11
0.63941
 21
2.80982
 31
0.0
  0
LINE
  8
0
 62
     0
 10
0.63941
 20
2.80982
 30
0.0
 11
0.475424
 21
3.16536
 31
0.0
  0
LINE
  8
0
 62
     0
 10
0.475424
 20
3.16536
 30
0.0
 11
0.338998
 21
3.53328
 31
0.0
  0
LINE
  8
0
 62
     0
 10
0.338998
 20
3.53328
 30
0.0
 11
0.232888
 21
3.91223
 31
0.0
  0
LINE
  8
0
 62
     0
 10
0.232888
 20
3.91223
 30
0.0
 11
0.155718
 21
4.29673
 31
0.0
  0
LINE
  8
0
 62
     0
 10
0.155718
 20
4.29673
 30
0.0
 11
0.110243
 21
4.68672
 31
0.0
  0
LINE
  8
0
 62
     0
 10
0.110243
 20
4.68672
 30
0.0
 11
0.0937066
 21
5.07806
 31
0.0
  0
LINE
  8
0
 62
     0
 10
0.0937066
 20
5.07806
 30
0.0
 11
0.0950846
 21
138.905
 31
0.0
  0
LINE
  8
0
 62
     0
 10
0.0950846
 20
138.905
 30
0.0
 11
0.110243
 21
139.297
 31
0.0
  0
LINE
  8
0
 62
     0
 10
0.110243
 20
139.297
 30
0.0
 11
0.155718
 21
139.688
 31
0.0
  0
LINE
  8
0
 62
     0
 10
0.155718
 20
139.688
 30
0.0
 11
0.232888
 21
140.072
 31
0.0
  0
LINE
  8
0
 62
     0
 10
0.232888
 20
140.072
 30
0.0
 11
0.338998
 21
140.451
 31
0.0
  0
LINE
  8
0
 62
     0
 10
0.338998
 20
140.451
 30
0.0
 11
0.475424
 21
140.819
 31
0.0
  0
LINE
  8
0
 62
     0
 10
0.475424
 20
140.819
 30
0.0
 11
0.63941
 21
141.175
 31
0.0
  0
LINE
  8
0
 62
     0
 10
0.63941
 20
141.175
 30
0.0
 11
0.830957
 21
141.518
 31
0.0
  0
LINE
  8
0
 62
     0
 10
0.830957
 20
141.518
 30
0.0
 11
1.04869
 21
141.844
 31
0.0
  0
LINE
  8
0
 62
     0
 10
1.04869
 20
141.844
 30
0.0
 11
1.29122
 21
142.153
 31
0.0
  0
LINE
  8
0
 62
     0
 10
1.29122
 20
142.153
 30
0.0
 11
1.55856
 21
142.441
 31
0.0
  0
LINE
  8
0
 62
     0
 10
1.55856
 20
142.441
 30
0.0
 11
1.84657
 21
142.708
 31
0.0
  0
LINE
  8
0
 62
     0
 10
1.84657
 20
142.708
 30
0.0
 11
2.15525
 21
142.951
 31
0.0
  0
LINE
  8
0
 62
     0
 10
2.15525
 20
142.951
 30
0.0
 11
2.48185
 21
143.169
 31
0.0
  0
LINE
  8
0
 62
     0
 10
2.48185
 20
143.169
 30
0.0
 11
2.82498
 21
143.36
 31
0.0
  0
LINE
  8
0
 62
     0
 10
2.82498
 20
143.36
 30
0.0
 11
3.18051
 21
143.524
 31
0.0
  0
LINE
  8
0
 62
     0
 10
3.18051
 20
143.524
 30
0.0
 11
3.54845
 21
143.661
 31
0.0
  0
LINE
  8
0
 62
     0
 10
3.54845
 20
143.661
 30
0.0
 11
3.9274
 21
143.766
 31
0.0
  0
LINE
  8
0
 62
     0
 10
3.9274
 20
143.766
 30
0.0
 11
4.3119
 21
143.844
 31
0.0
  0
LINE
  8
0
 62
     0
 10
4.3119
 20
143.844
 30
0.0
 11
4.70186
 21
143.889
 31
0.0
  0
LINE
  8
0
 62
     0
 10
4.70186
 20
143.889
 30
0.0
 11
5.0946
 21
143.906
 31
0.0
  0
LINE
  8
0
 62
     0
 10
5.0946
 20
143.906
 30
0.0
 11
254.745
 21
143.904
 31
0.0
  0
LINE
  8
0
 62
     0
 10
4.75424
 20
6.12539
 30
0.0
 11
4.44832
 21
5.96829
 31
0.0
  0
LINE
  8
0
 62
     0
 10
4.44832
 20
5.96829
 30
0.0
 11
4.20441
 21
5.72576
 31
0.0
  0
LINE
  8
0
 62
     0
 10
4.20441
 20
5.72576
 30
0.0
 11
4.04731
 21
5.41845
 31
0.0
  0
LINE
  8
0
 62
     0
 10
4.04731
 20
5.41845
 30
0.0
 11
3.99355
 21
5.07806
 31
0.0
  0
LINE
  8
0
 62
     0
 10
3.99355
 20
5.07806
 30
0.0
 11
4.04731
 21
4.73908
 31
0.0
  0
LINE
  8
0
 62
     0
 10
4.04731
 20
4.73908
 30
0.0
 11
4.20441
 21
4.43315
 31
0.0
  0
LINE
  8
0
 62
     0
 10
4.20441
 20
4.43315
 30
0.0
 11
4.44832
 21
4.18924
 31
0.0
  0
LINE
  8
0
 62
     0
 10
4.44832
 20
4.18924
 30
0.0
 11
4.75424
 21
4.03214
 31
0.0
  0
LINE
  8
0
 62
     0
 10
4.75424
 20
4.03214
 30
0.0
 11
5.0946
 21
3.97838
 31
0.0
  0
LINE
  8
0
 62
     0
 10
5.0946
 20
3.97838
 30
0.0
 11
5.43359
 21
4.03214
 31
0.0
  0
LINE
  8
0
 62
     0
 10
5.43359
 20
4.03214
 30
0.0
 11
5.74089
 21
4.18924
 31
0.0
  0
LINE
  8
0
 62
     0
 10
5.74089
 20
4.18924
 30
0.0
 11
5.98343
 21
4.43315
 31
0.0
  0
LINE
  8
0
 62
     0
 10
5.98343
 20
4.43315
 30
0.0
 11
6.14056
 21
4.73908
 31
0.0
  0
LINE
  8
0
 62
     0
 10
6.14056
 20
4.73908
 30
0.0
 11
6.19428
 21
5.07806
 31
0.0
  0
LINE
  8
0
 62
     0
 10
6.19428
 20
5.07806
 30
0.0
 11
6.14056
 21
5.41845
 31
0.0
  0
LINE
  8
0
 62
     0
 10
6.14056
 20
5.41845
 30
0.0
 11
5.98343
 21
5.72576
 31
0.0
  0
LINE
  8
0
 62
     0
 10
5.98343
 20
5.72576
 30
0.0
 11
5.74089
 21
5.96829
 31
0.0
  0
LINE
  8
0
 62
     0
 10
5.74089
 20
5.96829
 30
0.0
 11
5.43359
 21
6.12539
 31
0.0
  0
LINE
  8
0
 62
     0
 10
5.43359
 20
6.12539
 30
0.0
 11
5.0946
 21
6.17911
 31
0.0
  0
LINE
  8
0
 62
     0
 10
5.0946
 20
6.17911
 30
0.0
 11
4.75424
 21
6.12539
 31
0.0
  0
LINE
  8
0
 62
     0
 10
129.58
 20
6.12539
 30
0.0
 11
129.272
 21
5.96829
 31
0.0
  0
LINE
  8
0
 62
     0
 10
129.272
 20
5.96829
 30
0.0
 11
129.03
 21
5.72576
 31
0.0
  0
LINE
  8
0
 62
     0
 10
129.03
 20
5.72576
 30
0.0
 11
128.874
 21
5.41845
 31
0.0
  0
LINE
  8
0
 62
     0
 10
128.874
 20
5.41845
 30
0.0
 11
128.82
 21
5.07806
 31
0.0
  0
LINE
  8
0
 62
     0
 10
128.82
 20
5.07806
 30
0.0
 11
128.874
 21
4.73908
 31
0.0
  0
LINE
  8
0
 62
     0
 10
128.874
 20
4.73908
 30
0.0
 11
129.03
 21
4.43315
 31
0.0
  0
LINE
  8
0
 62
     0
 10
129.03
 20
4.43315
 30
0.0
 11
129.272
 21
4.18924
 31
0.0
  0
LINE
  8
0
 62
     0
 10
129.272
 20
4.18924
 30
0.0
 11
129.58
 21
4.03214
 31
0.0
  0
LINE
  8
0
 62
     0
 10
129.58
 20
4.03214
 30
0.0
 11
129.92
 21
3.97838
 31
0.0
  0
LINE
  8
0
 62
     0
 10
129.92
 20
3.97838
 30
0.0
 11
130.259
 21
4.03214
 31
0.0
  0
LINE
  8
0
 62
     0
 10
130.259
 20
4.03214
 30
0.0
 11
130.566
 21
4.18924
 31
0.0
  0
LINE
  8
0
 62
     0
 10
130.566
 20
4.18924
 30
0.0
 11
130.81
 21
4.43315
 31
0.0
  0
LINE
  8
0
 62
     0
 10
130.81
 20
4.43315
 30
0.0
 11
130.966
 21
4.73908
 31
0.0
  0
LINE
  8
0
 62
     0
 10
130.966
 20
4.73908
 30
0.0
 11
131.02
 21
5.07806
 31
0.0
  0
LINE
  8
0
 62
     0
 10
131.02
 20
5.07806
 30
0.0
 11
130.966
 21
5.41845
 31
0.0
  0
LINE
  8
0
 62
     0
 10
130.966
 20
5.41845
 30
0.0
 11
130.81
 21
5.72576
 31
0.0
  0
LINE
  8
0
 62
     0
 10
130.81
 20
5.72576
 30
0.0
 11
130.566
 21
5.96829
 31
0.0
  0
LINE
  8
0
 62
     0
 10
130.566
 20
5.96829
 30
0.0
 11
130.259
 21
6.12539
 31
0.0
  0
LINE
  8
0
 62
     0
 10
130.259
 20
6.12539
 30
0.0
 11
129.92
 21
6.17911
 31
0.0
  0
LINE
  8
0
 62
     0
 10
129.92
 20
6.17911
 30
0.0
 11
129.58
 21
6.12539
 31
0.0
  0
LINE
  8
0
 62
     0
 10
254.405
 20
6.12539
 30
0.0
 11
254.099
 21
5.96829
 31
0.0
  0
LINE
  8
0
 62
     0
 10
254.099
 20
5.96829
 30
0.0
 11
253.855
 21
5.72576
 31
0.0
  0
LINE
  8
0
 62
     0
 10
253.855
 20
5.72576
 30
0.0
 11
253.698
 21
5.41845
 31
0.0
  0
LINE
  8
0
 62
     0
 10
253.698
 20
5.41845
 30
0.0
 11
253.646
 21
5.07806
 31
0.0
  0
LINE
  8
0
 62
     0
 10
253.646
 20
5.07806
 30
0.0
 11
253.698
 21
4.73908
 31
0.0
  0
LINE
  8
0
 62
     0
 10
253.698
 20
4.73908
 30
0.0
 11
253.855
 21
4.43315
 31
0.0
  0
LINE
  8
0
 62
     0
 10
253.855
 20
4.43315
 30
0.0
 11
254.099
 21
4.18924
 31
0.0
  0
LINE
  8
0
 62
     0
 10
254.099
 20
4.18924
 30
0.0
 11
254.405
 21
4.03214
 31
0.0
  0
LINE
  8
0
 62
     0
 10
254.405
 20
4.03214
 30
0.0
 11
254.745
 21
3.97838
 31
0.0
  0
LINE
  8
0
 62
     0
 10
254.745
 20
3.97838
 30
0.0
 11
255.084
 21
4.03214
 31
0.0
  0
LINE
  8
0
 62
     0
 10
255.084
 20
4.03214
 30
0.0
 11
255.392
 21
4.18924
 31
0.0
  0
LINE
  8
0
 62
     0
 10
255.392
 20
4.18924
 30
0.0
 11
255.634
 21
4.43315
 31
0.0
  0
LINE
  8
0
 62
     0
 10
255.634
 20
4.43315
 30
0.0
 11
255.791
 21
4.73908
 31
0.0
  0
LINE
  8
0
 62
     0
 10
255.791
 20
4.73908
 30
0.0
 11
255.845
 21
5.07806
 31
0.0
  0
LINE
  8
0
 62
     0
 10
255.845
 20
5.07806
 30
0.0
 11
255.791
 21
5.41845
 31
0.0
  0
LINE
  8
0
 62
     0
 10
255.791
 20
5.41845
 30
0.0
 11
255.634
 21
5.72576
 31
0.0
  0
LINE
  8
0
 62
     0
 10
255.634
 20
5.72576
 30
0.0
 11
255.392
 21
5.96829
 31
0.0
  0
LINE
  8
0
 62
     0
 10
255.392
 20
5.96829
 30
0.0
 11
255.084
 21
6.12539
 31
0.0
  0
LINE
  8
0
 62
     0
 10
255.084
 20
6.12539
 30
0.0
 11
254.745
 21
6.17911
 31
0.0
  0
LINE
  8
0
 62
     0
 10
254.745
 20
6.17911
 30
0.0
 11
254.405
 21
6.12539
 31
0.0
  0
LINE
  8
0
 62
     0
 10
30.813
 20
26.6044
 30
0.0
 11
30.813
 21
25.6053
 31
0.0
  0
LINE
  8
0
 62
     0
 10
30.813
 20
25.6053
 30
0.0
 11
30.0123
 21
25.6053
 31
0.0
  0
LINE
  8
0
 62
     0
 10
30.0123
 20
25.6053
 30
0.0
 11
30.0123
 21
22.5048
 31
0.0
  0
LINE
  8
0
 62
     0
 10
30.0123
 20
22.5048
 30
0.0
 11
30.813
 21
22.5048
 31
0.0
  0
LINE
  8
0
 62
     0
 10
30.813
 20
22.5048
 30
0.0
 11
30.813
 21
21.9053
 31
0.0
  0
LINE
  8
0
 62
     0
 10
30.813
 20
21.9053
 30
0.0
 11
29.2874
 21
21.9053
 31
0.0
  0
LINE
  8
0
 62
     0
 10
29.2874
 20
21.9053
 30
0.0
 11
29.2874
 21
25.1354
 31
0.0
  0
LINE
  8
0
 62
     0
 10
29.2874
 20
25.1354
 30
0.0
 11
22.5378
 21
25.1354
 31
0.0
  0
LINE
  8
0
 62
     0
 10
22.5378
 20
25.1354
 30
0.0
 11
22.5378
 21
21.9053
 31
0.0
  0
LINE
  8
0
 62
     0
 10
22.5378
 20
21.9053
 30
0.0
 11
21.7124
 21
21.9053
 31
0.0
  0
LINE
  8
0
 62
     0
 10
21.7124
 20
21.9053
 30
0.0
 11
21.7124
 21
19.1051
 31
0.0
  0
LINE
  8
0
 62
     0
 10
21.7124
 20
19.1051
 30
0.0
 11
22.5378
 21
19.1051
 31
0.0
  0
LINE
  8
0
 62
     0
 10
22.5378
 20
19.1051
 30
0.0
 11
22.5378
 21
12.835
 31
0.0
  0
LINE
  8
0
 62
     0
 10
22.5378
 20
12.835
 30
0.0
 11
24.2631
 21
12.835
 31
0.0
  0
LINE
  8
0
 62
     0
 10
24.2631
 20
12.835
 30
0.0
 11
24.2631
 21
11.6348
 31
0.0
  0
LINE
  8
0
 62
     0
 10
24.2631
 20
11.6348
 30
0.0
 11
27.5621
 21
11.6348
 31
0.0
  0
LINE
  8
0
 62
     0
 10
27.5621
 20
11.6348
 30
0.0
 11
27.5621
 21
12.835
 31
0.0
  0
LINE
  8
0
 62
     0
 10
27.5621
 20
12.835
 30
0.0
 11
29.2874
 21
12.835
 31
0.0
  0
LINE
  8
0
 62
     0
 10
29.2874
 20
12.835
 30
0.0
 11
29.2874
 21
17.3054
 31
0.0
  0
LINE
  8
0
 62
     0
 10
29.2874
 20
17.3054
 30
0.0
 11
30.813
 21
17.3054
 31
0.0
  0
LINE
  8
0
 62
     0
 10
30.813
 20
17.3054
 30
0.0
 11
30.813
 21
16.7046
 31
0.0
  0
LINE
  8
0
 62
     0
 10
30.813
 20
16.7046
 30
0.0
 11
30.0123
 21
16.7046
 31
0.0
  0
LINE
  8
0
 62
     0
 10
30.0123
 20
16.7046
 30
0.0
 11
30.0123
 21
13.6054
 31
0.0
  0
LINE
  8
0
 62
     0
 10
30.0123
 20
13.6054
 30
0.0
 11
30.813
 21
13.6054
 31
0.0
  0
LINE
  8
0
 62
     0
 10
30.813
 20
13.6054
 30
0.0
 11
30.813
 21
12.6049
 31
0.0
  0
LINE
  8
0
 62
     0
 10
30.813
 20
12.6049
 30
0.0
 11
44.8123
 21
12.6049
 31
0.0
  0
LINE
  8
0
 62
     0
 10
44.8123
 20
12.6049
 30
0.0
 11
44.8123
 21
13.6054
 31
0.0
  0
LINE
  8
0
 62
     0
 10
44.8123
 20
13.6054
 30
0.0
 11
45.6131
 21
13.6054
 31
0.0
  0
LINE
  8
0
 62
     0
 10
45.6131
 20
13.6054
 30
0.0
 11
45.6131
 21
16.7046
 31
0.0
  0
LINE
  8
0
 62
     0
 10
45.6131
 20
16.7046
 30
0.0
 11
44.8123
 21
16.7046
 31
0.0
  0
LINE
  8
0
 62
     0
 10
44.8123
 20
16.7046
 30
0.0
 11
44.8123
 21
17.3054
 31
0.0
  0
LINE
  8
0
 62
     0
 10
44.8123
 20
17.3054
 30
0.0
 11
46.3381
 21
17.3054
 31
0.0
  0
LINE
  8
0
 62
     0
 10
46.3381
 20
17.3054
 30
0.0
 11
46.3381
 21
12.835
 31
0.0
  0
LINE
  8
0
 62
     0
 10
46.3381
 20
12.835
 30
0.0
 11
48.0632
 21
12.835
 31
0.0
  0
LINE
  8
0
 62
     0
 10
48.0632
 20
12.835
 30
0.0
 11
48.0632
 21
11.6348
 31
0.0
  0
LINE
  8
0
 62
     0
 10
48.0632
 20
11.6348
 30
0.0
 11
51.3623
 21
11.6348
 31
0.0
  0
LINE
  8
0
 62
     0
 10
51.3623
 20
11.6348
 30
0.0
 11
51.3623
 21
12.835
 31
0.0
  0
LINE
  8
0
 62
     0
 10
51.3623
 20
12.835
 30
0.0
 11
53.0874
 21
12.835
 31
0.0
  0
LINE
  8
0
 62
     0
 10
53.0874
 20
12.835
 30
0.0
 11
53.0874
 21
19.1051
 31
0.0
  0
LINE
  8
0
 62
     0
 10
53.0874
 20
19.1051
 30
0.0
 11
53.9129
 21
19.1051
 31
0.0
  0
LINE
  8
0
 62
     0
 10
53.9129
 20
19.1051
 30
0.0
 11
53.9129
 21
21.9053
 31
0.0
  0
LINE
  8
0
 62
     0
 10
53.9129
 20
21.9053
 30
0.0
 11
53.0874
 21
21.9053
 31
0.0
  0
LINE
  8
0
 62
     0
 10
53.0874
 20
21.9053
 30
0.0
 11
53.0874
 21
25.1354
 31
0.0
  0
LINE
  8
0
 62
     0
 10
53.0874
 20
25.1354
 30
0.0
 11
46.3381
 21
25.1354
 31
0.0
  0
LINE
  8
0
 62
     0
 10
46.3381
 20
25.1354
 30
0.0
 11
46.3381
 21
21.9053
 31
0.0
  0
LINE
  8
0
 62
     0
 10
46.3381
 20
21.9053
 30
0.0
 11
44.8123
 21
21.9053
 31
0.0
  0
LINE
  8
0
 62
     0
 10
44.8123
 20
21.9053
 30
0.0
 11
44.8123
 21
22.5048
 31
0.0
  0
LINE
  8
0
 62
     0
 10
44.8123
 20
22.5048
 30
0.0
 11
45.6131
 21
22.5048
 31
0.0
  0
LINE
  8
0
 62
     0
 10
45.6131
 20
22.5048
 30
0.0
 11
45.6131
 21
25.6053
 31
0.0
  0
LINE
  8
0
 62
     0
 10
45.6131
 20
25.6053
 30
0.0
 11
44.8123
 21
25.6053
 31
0.0
  0
LINE
  8
0
 62
     0
 10
44.8123
 20
25.6053
 30
0.0
 11
44.8123
 21
26.6044
 31
0.0
  0
LINE
  8
0
 62
     0
 10
44.8123
 20
26.6044
 30
0.0
 11
30.813
 21
26.6044
 31
0.0
  0
LINE
  8
0
 62
     0
 10
68.913
 20
26.6044
 30
0.0
 11
68.913
 21
25.6053
 31
0.0
  0
LINE
  8
0
 62
     0
 10
68.913
 20
25.6053
 30
0.0
 11
68.1122
 21
25.6053
 31
0.0
  0
LINE
  8
0
 62
     0
 10
68.1122
 20
25.6053
 30
0.0
 11
68.1122
 21
22.5048
 31
0.0
  0
LINE
  8
0
 62
     0
 10
68.1122
 20
22.5048
 30
0.0
 11
68.913
 21
22.5048
 31
0.0
  0
LINE
  8
0
 62
     0
 10
68.913
 20
22.5048
 30
0.0
 11
68.913
 21
16.7046
 31
0.0
  0
LINE
  8
0
 62
     0
 10
68.913
 20
16.7046
 30
0.0
 11
68.1122
 21
16.7046
 31
0.0
  0
LINE
  8
0
 62
     0
 10
68.1122
 20
16.7046
 30
0.0
 11
68.1122
 21
13.6054
 31
0.0
  0
LINE
  8
0
 62
     0
 10
68.1122
 20
13.6054
 30
0.0
 11
68.913
 21
13.6054
 31
0.0
  0
LINE
  8
0
 62
     0
 10
68.913
 20
13.6054
 30
0.0
 11
68.913
 21
12.6049
 31
0.0
  0
LINE
  8
0
 62
     0
 10
68.913
 20
12.6049
 30
0.0
 11
82.9123
 21
12.6049
 31
0.0
  0
LINE
  8
0
 62
     0
 10
82.9123
 20
12.6049
 30
0.0
 11
82.9123
 21
13.6054
 31
0.0
  0
LINE
  8
0
 62
     0
 10
82.9123
 20
13.6054
 30
0.0
 11
83.7131
 21
13.6054
 31
0.0
  0
LINE
  8
0
 62
     0
 10
83.7131
 20
13.6054
 30
0.0
 11
83.7131
 21
16.7046
 31
0.0
  0
LINE
  8
0
 62
     0
 10
83.7131
 20
16.7046
 30
0.0
 11
82.9123
 21
16.7046
 31
0.0
  0
LINE
  8
0
 62
     0
 10
82.9123
 20
16.7046
 30
0.0
 11
82.9123
 21
22.5048
 31
0.0
  0
LINE
  8
0
 62
     0
 10
82.9123
 20
22.5048
 30
0.0
 11
83.7131
 21
22.5048
 31
0.0
  0
LINE
  8
0
 62
     0
 10
83.7131
 20
22.5048
 30
0.0
 11
83.7131
 21
25.6053
 31
0.0
  0
LINE
  8
0
 62
     0
 10
83.7131
 20
25.6053
 30
0.0
 11
82.9123
 21
25.6053
 31
0.0
  0
LINE
  8
0
 62
     0
 10
82.9123
 20
25.6053
 30
0.0
 11
82.9123
 21
26.6044
 31
0.0
  0
LINE
  8
0
 62
     0
 10
82.9123
 20
26.6044
 30
0.0
 11
68.913
 21
26.6044
 31
0.0
  0
LINE
  8
0
 62
     0
 10
92.7255
 20
26.6044
 30
0.0
 11
92.7255
 21
25.6053
 31
0.0
  0
LINE
  8
0
 62
     0
 10
92.7255
 20
25.6053
 30
0.0
 11
91.9261
 21
25.6053
 31
0.0
  0
LINE
  8
0
 62
     0
 10
91.9261
 20
25.6053
 30
0.0
 11
91.9261
 21
22.5048
 31
0.0
  0
LINE
  8
0
 62
     0
 10
91.9261
 20
22.5048
 30
0.0
 11
92.7255
 21
22.5048
 31
0.0
  0
LINE
  8
0
 62
     0
 10
92.7255
 20
22.5048
 30
0.0
 11
92.7255
 21
16.7046
 31
0.0
  0
LINE
  8
0
 62
     0
 10
92.7255
 20
16.7046
 30
0.0
 11
91.9261
 21
16.7046
 31
0.0
  0
LINE
  8
0
 62
     0
 10
91.9261
 20
16.7046
 30
0.0
 11
91.9261
 21
13.6054
 31
0.0
  0
LINE
  8
0
 62
     0
 10
91.9261
 20
13.6054
 30
0.0
 11
92.7255
 21
13.6054
 31
0.0
  0
LINE
  8
0
 62
     0
 10
92.7255
 20
13.6054
 30
0.0
 11
92.7255
 21
12.6049
 31
0.0
  0
LINE
  8
0
 62
     0
 10
92.7255
 20
12.6049
 30
0.0
 11
106.726
 21
12.6049
 31
0.0
  0
LINE
  8
0
 62
     0
 10
106.726
 20
12.6049
 30
0.0
 11
106.726
 21
13.6054
 31
0.0
  0
LINE
  8
0
 62
     0
 10
106.726
 20
13.6054
 30
0.0
 11
107.526
 21
13.6054
 31
0.0
  0
LINE
  8
0
 62
     0
 10
107.526
 20
13.6054
 30
0.0
 11
107.526
 21
16.7046
 31
0.0
  0
LINE
  8
0
 62
     0
 10
107.526
 20
16.7046
 30
0.0
 11
106.726
 21
16.7046
 31
0.0
  0
LINE
  8
0
 62
     0
 10
106.726
 20
16.7046
 30
0.0
 11
106.726
 21
22.5048
 31
0.0
  0
LINE
  8
0
 62
     0
 10
106.726
 20
22.5048
 30
0.0
 11
107.526
 21
22.5048
 31
0.0
  0
LINE
  8
0
 62
     0
 10
107.526
 20
22.5048
 30
0.0
 11
107.526
 21
25.6053
 31
0.0
  0
LINE
  8
0
 62
     0
 10
107.526
 20
25.6053
 30
0.0
 11
106.726
 21
25.6053
 31
0.0
  0
LINE
  8
0
 62
     0
 10
106.726
 20
25.6053
 30
0.0
 11
106.726
 21
26.6044
 31
0.0
  0
LINE
  8
0
 62
     0
 10
106.726
 20
26.6044
 30
0.0
 11
92.7255
 21
26.6044
 31
0.0
  0
LINE
  8
0
 62
     0
 10
116.538
 20
26.6044
 30
0.0
 11
116.538
 21
25.6053
 31
0.0
  0
LINE
  8
0
 62
     0
 10
116.538
 20
25.6053
 30
0.0
 11
115.737
 21
25.6053
 31
0.0
  0
LINE
  8
0
 62
     0
 10
115.737
 20
25.6053
 30
0.0
 11
115.737
 21
22.5048
 31
0.0
  0
LINE
  8
0
 62
     0
 10
115.737
 20
22.5048
 30
0.0
 11
116.538
 21
22.5048
 31
0.0
  0
LINE
  8
0
 62
     0
 10
116.538
 20
22.5048
 30
0.0
 11
116.538
 21
16.7046
 31
0.0
  0
LINE
  8
0
 62
     0
 10
116.538
 20
16.7046
 30
0.0
 11
115.737
 21
16.7046
 31
0.0
  0
LINE
  8
0
 62
     0
 10
115.737
 20
16.7046
 30
0.0
 11
115.737
 21
13.6054
 31
0.0
  0
LINE
  8
0
 62
     0
 10
115.737
 20
13.6054
 30
0.0
 11
116.538
 21
13.6054
 31
0.0
  0
LINE
  8
0
 62
     0
 10
116.538
 20
13.6054
 30
0.0
 11
116.538
 21
12.6049
 31
0.0
  0
LINE
  8
0
 62
     0
 10
116.538
 20
12.6049
 30
0.0
 11
130.537
 21
12.6049
 31
0.0
  0
LINE
  8
0
 62
     0
 10
130.537
 20
12.6049
 30
0.0
 11
130.537
 21
13.6054
 31
0.0
  0
LINE
  8
0
 62
     0
 10
130.537
 20
13.6054
 30
0.0
 11
131.338
 21
13.6054
 31
0.0
  0
LINE
  8
0
 62
     0
 10
131.338
 20
13.6054
 30
0.0
 11
131.338
 21
16.7046
 31
0.0
  0
LINE
  8
0
 62
     0
 10
131.338
 20
16.7046
 30
0.0
 11
130.537
 21
16.7046
 31
0.0
  0
LINE
  8
0
 62
     0
 10
130.537
 20
16.7046
 30
0.0
 11
130.537
 21
22.5048
 31
0.0
  0
LINE
  8
0
 62
     0
 10
130.537
 20
22.5048
 30
0.0
 11
131.338
 21
22.5048
 31
0.0
  0
LINE
  8
0
 62
     0
 10
131.338
 20
22.5048
 30
0.0
 11
131.338
 21
25.6053
 31
0.0
  0
LINE
  8
0
 62
     0
 10
131.338
 20
25.6053
 30
0.0
 11
130.537
 21
25.6053
 31
0.0
  0
LINE
  8
0
 62
     0
 10
130.537
 20
25.6053
 30
0.0
 11
130.537
 21
26.6044
 31
0.0
  0
LINE
  8
0
 62
     0
 10
130.537
 20
26.6044
 30
0.0
 11
116.538
 21
26.6044
 31
0.0
  0
LINE
  8
0
 62
     0
 10
140.351
 20
26.6044
 30
0.0
 11
140.351
 21
25.6053
 31
0.0
  0
LINE
  8
0
 62
     0
 10
140.351
 20
25.6053
 30
0.0
 11
139.551
 21
25.6053
 31
0.0
  0
LINE
  8
0
 62
     0
 10
139.551
 20
25.6053
 30
0.0
 11
139.551
 21
22.5048
 31
0.0
  0
LINE
  8
0
 62
     0
 10
139.551
 20
22.5048
 30
0.0
 11
140.351
 21
22.5048
 31
0.0
  0
LINE
  8
0
 62
     0
 10
140.351
 20
22.5048
 30
0.0
 11
140.351
 21
16.7046
 31
0.0
  0
LINE
  8
0
 62
     0
 10
140.351
 20
16.7046
 30
0.0
 11
139.551
 21
16.7046
 31
0.0
  0
LINE
  8
0
 62
     0
 10
139.551
 20
16.7046
 30
0.0
 11
139.551
 21
13.6054
 31
0.0
  0
LINE
  8
0
 62
     0
 10
139.551
 20
13.6054
 30
0.0
 11
140.351
 21
13.6054
 31
0.0
  0
LINE
  8
0
 62
     0
 10
140.351
 20
13.6054
 30
0.0
 11
140.351
 21
12.6049
 31
0.0
  0
LINE
  8
0
 62
     0
 10
140.351
 20
12.6049
 30
0.0
 11
154.351
 21
12.6049
 31
0.0
  0
LINE
  8
0
 62
     0
 10
154.351
 20
12.6049
 30
0.0
 11
154.351
 21
13.6054
 31
0.0
  0
LINE
  8
0
 62
     0
 10
154.351
 20
13.6054
 30
0.0
 11
155.151
 21
13.6054
 31
0.0
  0
LINE
  8
0
 62
     0
 10
155.151
 20
13.6054
 30
0.0
 11
155.151
 21
16.7046
 31
0.0
  0
LINE
  8
0
 62
     0
 10
155.151
 20
16.7046
 30
0.0
 11
154.351
 21
16.7046
 31
0.0
  0
LINE
  8
0
 62
     0
 10
154.351
 20
16.7046
 30
0.0
 11
154.351
 21
22.5048
 31
0.0
  0
LINE
  8
0
 62
     0
 10
154.351
 20
22.5048
 30
0.0
 11
155.151
 21
22.5048
 31
0.0
  0
LINE
  8
0
 62
     0
 10
155.151
 20
22.5048
 30
0.0
 11
155.151
 21
25.6053
 31
0.0
  0
LINE
  8
0
 62
     0
 10
155.151
 20
25.6053
 30
0.0
 11
154.351
 21
25.6053
 31
0.0
  0
LINE
  8
0
 62
     0
 10
154.351
 20
25.6053
 30
0.0
 11
154.351
 21
26.6044
 31
0.0
  0
LINE
  8
0
 62
     0
 10
154.351
 20
26.6044
 30
0.0
 11
140.351
 21
26.6044
 31
0.0
  0
LINE
  8
0
 62
     0
 10
164.163
 20
26.6044
 30
0.0
 11
164.163
 21
25.6053
 31
0.0
  0
LINE
  8
0
 62
     0
 10
164.163
 20
25.6053
 30
0.0
 11
163.362
 21
25.6053
 31
0.0
  0
LINE
  8
0
 62
     0
 10
163.362
 20
25.6053
 30
0.0
 11
163.362
 21
22.5048
 31
0.0
  0
LINE
  8
0
 62
     0
 10
163.362
 20
22.5048
 30
0.0
 11
164.163
 21
22.5048
 31
0.0
  0
LINE
  8
0
 62
     0
 10
164.163
 20
22.5048
 30
0.0
 11
164.163
 21
16.7046
 31
0.0
  0
LINE
  8
0
 62
     0
 10
164.163
 20
16.7046
 30
0.0
 11
163.362
 21
16.7046
 31
0.0
  0
LINE
  8
0
 62
     0
 10
163.362
 20
16.7046
 30
0.0
 11
163.362
 21
13.6054
 31
0.0
  0
LINE
  8
0
 62
     0
 10
163.362
 20
13.6054
 30
0.0
 11
164.163
 21
13.6054
 31
0.0
  0
LINE
  8
0
 62
     0
 10
164.163
 20
13.6054
 30
0.0
 11
164.163
 21
12.6049
 31
0.0
  0
LINE
  8
0
 62
     0
 10
164.163
 20
12.6049
 30
0.0
 11
178.162
 21
12.6049
 31
0.0
  0
LINE
  8
0
 62
     0
 10
178.162
 20
12.6049
 30
0.0
 11
178.162
 21
13.6054
 31
0.0
  0
LINE
  8
0
 62
     0
 10
178.162
 20
13.6054
 30
0.0
 11
178.963
 21
13.6054
 31
0.0
  0
LINE
  8
0
 62
     0
 10
178.963
 20
13.6054
 30
0.0
 11
178.963
 21
16.7046
 31
0.0
  0
LINE
  8
0
 62
     0
 10
178.963
 20
16.7046
 30
0.0
 11
178.162
 21
16.7046
 31
0.0
  0
LINE
  8
0
 62
     0
 10
178.162
 20
16.7046
 30
0.0
 11
178.162
 21
22.5048
 31
0.0
  0
LINE
  8
0
 62
     0
 10
178.162
 20
22.5048
 30
0.0
 11
178.963
 21
22.5048
 31
0.0
  0
LINE
  8
0
 62
     0
 10
178.963
 20
22.5048
 30
0.0
 11
178.963
 21
25.6053
 31
0.0
  0
LINE
  8
0
 62
     0
 10
178.963
 20
25.6053
 30
0.0
 11
178.162
 21
25.6053
 31
0.0
  0
LINE
  8
0
 62
     0
 10
178.162
 20
25.6053
 30
0.0
 11
178.162
 21
26.6044
 31
0.0
  0
LINE
  8
0
 62
     0
 10
178.162
 20
26.6044
 30
0.0
 11
164.163
 21
26.6044
 31
0.0
  0
LINE
  8
0
 62
     0
 10
195.119
 20
26.6044
 30
0.0
 11
195.119
 21
25.6053
 31
0.0
  0
LINE
  8
0
 62
     0
 10
195.119
 20
25.6053
 30
0.0
 11
194.318
 21
25.6053
 31
0.0
  0
LINE
  8
0
 62
     0
 10
194.318
 20
25.6053
 30
0.0
 11
194.318
 21
22.5048
 31
0.0
  0
LINE
  8
0
 62
     0
 10
194.318
 20
22.5048
 30
0.0
 11
195.119
 21
22.5048
 31
0.0
  0
LINE
  8
0
 62
     0
 10
195.119
 20
22.5048
 30
0.0
 11
195.119
 21
16.7046
 31
0.0
  0
LINE
  8
0
 62
     0
 10
195.119
 20
16.7046
 30
0.0
 11
194.318
 21
16.7046
 31
0.0
  0
LINE
  8
0
 62
     0
 10
194.318
 20
16.7046
 30
0.0
 11
194.318
 21
13.6054
 31
0.0
  0
LINE
  8
0
 62
     0
 10
194.318
 20
13.6054
 30
0.0
 11
195.119
 21
13.6054
 31
0.0
  0
LINE
  8
0
 62
     0
 10
195.119
 20
13.6054
 30
0.0
 11
195.119
 21
12.6049
 31
0.0
  0
LINE
  8
0
 62
     0
 10
195.119
 20
12.6049
 30
0.0
 11
209.119
 21
12.6049
 31
0.0
  0
LINE
  8
0
 62
     0
 10
209.119
 20
12.6049
 30
0.0
 11
209.119
 21
13.6054
 31
0.0
  0
LINE
  8
0
 62
     0
 10
209.119
 20
13.6054
 30
0.0
 11
209.919
 21
13.6054
 31
0.0
  0
LINE
  8
0
 62
     0
 10
209.919
 20
13.6054
 30
0.0
 11
209.919
 21
16.7046
 31
0.0
  0
LINE
  8
0
 62
     0
 10
209.919
 20
16.7046
 30
0.0
 11
209.119
 21
16.7046
 31
0.0
  0
LINE
  8
0
 62
     0
 10
209.119
 20
16.7046
 30
0.0
 11
209.119
 21
22.5048
 31
0.0
  0
LINE
  8
0
 62
     0
 10
209.119
 20
22.5048
 30
0.0
 11
209.919
 21
22.5048
 31
0.0
  0
LINE
  8
0
 62
     0
 10
209.919
 20
22.5048
 30
0.0
 11
209.919
 21
25.6053
 31
0.0
  0
LINE
  8
0
 62
     0
 10
209.919
 20
25.6053
 30
0.0
 11
209.119
 21
25.6053
 31
0.0
  0
LINE
  8
0
 62
     0
 10
209.119
 20
25.6053
 30
0.0
 11
209.119
 21
26.6044
 31
0.0
  0
LINE
  8
0
 62
     0
 10
209.119
 20
26.6044
 30
0.0
 11
195.119
 21
26.6044
 31
0.0
  0
LINE
  8
0
 62
     0
 10
214.169
 20
26.6044
 30
0.0
 11
214.169
 21
25.6053
 31
0.0
  0
LINE
  8
0
 62
     0
 10
214.169
 20
25.6053
 30
0.0
 11
213.368
 21
25.6053
 31
0.0
  0
LINE
  8
0
 62
     0
 10
213.368
 20
25.6053
 30
0.0
 11
213.368
 21
22.5048
 31
0.0
  0
LINE
  8
0
 62
     0
 10
213.368
 20
22.5048
 30
0.0
 11
214.169
 21
22.5048
 31
0.0
  0
LINE
  8
0
 62
     0
 10
214.169
 20
22.5048
 30
0.0
 11
214.169
 21
16.7046
 31
0.0
  0
LINE
  8
0
 62
     0
 10
214.169
 20
16.7046
 30
0.0
 11
213.368
 21
16.7046
 31
0.0
  0
LINE
  8
0
 62
     0
 10
213.368
 20
16.7046
 30
0.0
 11
213.368
 21
13.6054
 31
0.0
  0
LINE
  8
0
 62
     0
 10
213.368
 20
13.6054
 30
0.0
 11
214.169
 21
13.6054
 31
0.0
  0
LINE
  8
0
 62
     0
 10
214.169
 20
13.6054
 30
0.0
 11
214.169
 21
12.6049
 31
0.0
  0
LINE
  8
0
 62
     0
 10
214.169
 20
12.6049
 30
0.0
 11
228.17
 21
12.6049
 31
0.0
  0
LINE
  8
0
 62
     0
 10
228.17
 20
12.6049
 30
0.0
 11
228.17
 21
13.6054
 31
0.0
  0
LINE
  8
0
 62
     0
 10
228.17
 20
13.6054
 30
0.0
 11
228.969
 21
13.6054
 31
0.0
  0
LINE
  8
0
 62
     0
 10
228.969
 20
13.6054
 30
0.0
 11
228.969
 21
16.7046
 31
0.0
  0
LINE
  8
0
 62
     0
 10
228.969
 20
16.7046
 30
0.0
 11
228.17
 21
16.7046
 31
0.0
  0
LINE
  8
0
 62
     0
 10
228.17
 20
16.7046
 30
0.0
 11
228.17
 21
22.5048
 31
0.0
  0
LINE
  8
0
 62
     0
 10
228.17
 20
22.5048
 30
0.0
 11
228.969
 21
22.5048
 31
0.0
  0
LINE
  8
0
 62
     0
 10
228.969
 20
22.5048
 30
0.0
 11
228.969
 21
25.6053
 31
0.0
  0
LINE
  8
0
 62
     0
 10
228.969
 20
25.6053
 30
0.0
 11
228.17
 21
25.6053
 31
0.0
  0
LINE
  8
0
 62
     0
 10
228.17
 20
25.6053
 30
0.0
 11
228.17
 21
26.6044
 31
0.0
  0
LINE
  8
0
 62
     0
 10
228.17
 20
26.6044
 30
0.0
 11
214.169
 21
26.6044
 31
0.0
  0
LINE
  8
0
 62
     0
 10
233.219
 20
26.6044
 30
0.0
 11
233.219
 21
25.6053
 31
0.0
  0
LINE
  8
0
 62
     0
 10
233.219
 20
25.6053
 30
0.0
 11
232.42
 21
25.6053
 31
0.0
  0
LINE
  8
0
 62
     0
 10
232.42
 20
25.6053
 30
0.0
 11
232.42
 21
22.5048
 31
0.0
  0
LINE
  8
0
 62
     0
 10
232.42
 20
22.5048
 30
0.0
 11
233.219
 21
22.5048
 31
0.0
  0
LINE
  8
0
 62
     0
 10
233.219
 20
22.5048
 30
0.0
 11
233.219
 21
16.7046
 31
0.0
  0
LINE
  8
0
 62
     0
 10
233.219
 20
16.7046
 30
0.0
 11
232.42
 21
16.7046
 31
0.0
  0
LINE
  8
0
 62
     0
 10
232.42
 20
16.7046
 30
0.0
 11
232.42
 21
13.6054
 31
0.0
  0
LINE
  8
0
 62
     0
 10
232.42
 20
13.6054
 30
0.0
 11
233.219
 21
13.6054
 31
0.0
  0
LINE
  8
0
 62
     0
 10
233.219
 20
13.6054
 30
0.0
 11
233.219
 21
12.6049
 31
0.0
  0
LINE
  8
0
 62
     0
 10
233.219
 20
12.6049
 30
0.0
 11
247.22
 21
12.6049
 31
0.0
  0
LINE
  8
0
 62
     0
 10
247.22
 20
12.6049
 30
0.0
 11
247.22
 21
13.6054
 31
0.0
  0
LINE
  8
0
 62
     0
 10
247.22
 20
13.6054
 30
0.0
 11
248.019
 21
13.6054
 31
0.0
  0
LINE
  8
0
 62
     0
 10
248.019
 20
13.6054
 30
0.0
 11
248.019
 21
16.7046
 31
0.0
  0
LINE
  8
0
 62
     0
 10
248.019
 20
16.7046
 30
0.0
 11
247.22
 21
16.7046
 31
0.0
  0
LINE
  8
0
 62
     0
 10
247.22
 20
16.7046
 30
0.0
 11
247.22
 21
22.5048
 31
0.0
  0
LINE
  8
0
 62
     0
 10
247.22
 20
22.5048
 30
0.0
 11
248.019
 21
22.5048
 31
0.0
  0
LINE
  8
0
 62
     0
 10
248.019
 20
22.5048
 30
0.0
 11
248.019
 21
25.6053
 31
0.0
  0
LINE
  8
0
 62
     0
 10
248.019
 20
25.6053
 30
0.0
 11
247.22
 21
25.6053
 31
0.0
  0
LINE
  8
0
 62
     0
 10
247.22
 20
25.6053
 30
0.0
 11
247.22
 21
26.6044
 31
0.0
  0
LINE
  8
0
 62
     0
 10
247.22
 20
26.6044
 30
0.0
 11
233.219
 21
26.6044
 31
0.0
  0
LINE
  8
0
 62
     0
 10
149.876
 20
45.6544
 30
0.0
 11
149.876
 21
44.6553
 31
0.0
  0
LINE
  8
0
 62
     0
 10
149.876
 20
44.6553
 30
0.0
 11
149.076
 21
44.6553
 31
0.0
  0
LINE
  8
0
 62
     0
 10
149.076
 20
44.6553
 30
0.0
 11
149.076
 21
41.5548
 31
0.0
  0
LINE
  8
0
 62
     0
 10
149.076
 20
41.5548
 30
0.0
 11
149.876
 21
41.5548
 31
0.0
  0
LINE
  8
0
 62
     0
 10
149.876
 20
41.5548
 30
0.0
 11
149.876
 21
40.9554
 31
0.0
  0
LINE
  8
0
 62
     0
 10
149.876
 20
40.9554
 30
0.0
 11
148.351
 21
40.9554
 31
0.0
  0
LINE
  8
0
 62
     0
 10
148.351
 20
40.9554
 30
0.0
 11
148.351
 21
44.1854
 31
0.0
  0
LINE
  8
0
 62
     0
 10
148.351
 20
44.1854
 30
0.0
 11
141.6
 21
44.1854
 31
0.0
  0
LINE
  8
0
 62
     0
 10
141.6
 20
44.1854
 30
0.0
 11
141.6
 21
40.9554
 31
0.0
  0
LINE
  8
0
 62
     0
 10
141.6
 20
40.9554
 30
0.0
 11
140.776
 21
40.9554
 31
0.0
  0
LINE
  8
0
 62
     0
 10
140.776
 20
40.9554
 30
0.0
 11
140.776
 21
38.155
 31
0.0
  0
LINE
  8
0
 62
     0
 10
140.776
 20
38.155
 30
0.0
 11
141.6
 21
38.155
 31
0.0
  0
LINE
  8
0
 62
     0
 10
141.6
 20
38.155
 30
0.0
 11
141.6
 21
31.885
 31
0.0
  0
LINE
  8
0
 62
     0
 10
141.6
 20
31.885
 30
0.0
 11
143.326
 21
31.885
 31
0.0
  0
LINE
  8
0
 62
     0
 10
143.326
 20
31.885
 30
0.0
 11
143.326
 21
30.6848
 31
0.0
  0
LINE
  8
0
 62
     0
 10
143.326
 20
30.6848
 30
0.0
 11
146.626
 21
30.6848
 31
0.0
  0
LINE
  8
0
 62
     0
 10
146.626
 20
30.6848
 30
0.0
 11
146.626
 21
31.885
 31
0.0
  0
LINE
  8
0
 62
     0
 10
146.626
 20
31.885
 30
0.0
 11
148.351
 21
31.885
 31
0.0
  0
LINE
  8
0
 62
     0
 10
148.351
 20
31.885
 30
0.0
 11
148.351
 21
36.3555
 31
0.0
  0
LINE
  8
0
 62
     0
 10
148.351
 20
36.3555
 30
0.0
 11
149.876
 21
36.3555
 31
0.0
  0
LINE
  8
0
 62
     0
 10
149.876
 20
36.3555
 30
0.0
 11
149.876
 21
35.7547
 31
0.0
  0
LINE
  8
0
 62
     0
 10
149.876
 20
35.7547
 30
0.0
 11
149.076
 21
35.7547
 31
0.0
  0
LINE
  8
0
 62
     0
 10
149.076
 20
35.7547
 30
0.0
 11
149.076
 21
32.6554
 31
0.0
  0
LINE
  8
0
 62
     0
 10
149.076
 20
32.6554
 30
0.0
 11
149.876
 21
32.6554
 31
0.0
  0
LINE
  8
0
 62
     0
 10
149.876
 20
32.6554
 30
0.0
 11
149.876
 21
31.6549
 31
0.0
  0
LINE
  8
0
 62
     0
 10
149.876
 20
31.6549
 30
0.0
 11
163.876
 21
31.6549
 31
0.0
  0
LINE
  8
0
 62
     0
 10
163.876
 20
31.6549
 30
0.0
 11
163.876
 21
32.6554
 31
0.0
  0
LINE
  8
0
 62
     0
 10
163.876
 20
32.6554
 30
0.0
 11
164.676
 21
32.6554
 31
0.0
  0
LINE
  8
0
 62
     0
 10
164.676
 20
32.6554
 30
0.0
 11
164.676
 21
35.7547
 31
0.0
  0
LINE
  8
0
 62
     0
 10
164.676
 20
35.7547
 30
0.0
 11
163.876
 21
35.7547
 31
0.0
  0
LINE
  8
0
 62
     0
 10
163.876
 20
35.7547
 30
0.0
 11
163.876
 21
36.3555
 31
0.0
  0
LINE
  8
0
 62
     0
 10
163.876
 20
36.3555
 30
0.0
 11
165.401
 21
36.3555
 31
0.0
  0
LINE
  8
0
 62
     0
 10
165.401
 20
36.3555
 30
0.0
 11
165.401
 21
31.885
 31
0.0
  0
LINE
  8
0
 62
     0
 10
165.401
 20
31.885
 30
0.0
 11
167.126
 21
31.885
 31
0.0
  0
LINE
  8
0
 62
     0
 10
167.126
 20
31.885
 30
0.0
 11
167.126
 21
30.6848
 31
0.0
  0
LINE
  8
0
 62
     0
 10
167.126
 20
30.6848
 30
0.0
 11
170.426
 21
30.6848
 31
0.0
  0
LINE
  8
0
 62
     0
 10
170.426
 20
30.6848
 30
0.0
 11
170.426
 21
31.885
 31
0.0
  0
LINE
  8
0
 62
     0
 10
170.426
 20
31.885
 30
0.0
 11
172.151
 21
31.885
 31
0.0
  0
LINE
  8
0
 62
     0
 10
172.151
 20
31.885
 30
0.0
 11
172.151
 21
38.155
 31
0.0
  0
LINE
  8
0
 62
     0
 10
172.151
 20
38.155
 30
0.0
 11
172.975
 21
38.155
 31
0.0
  0
LINE
  8
0
 62
     0
 10
172.975
 20
38.155
 30
0.0
 11
172.975
 21
40.9554
 31
0.0
  0
LINE
  8
0
 62
     0
 10
172.975
 20
40.9554
 30
0.0
 11
172.151
 21
40.9554
 31
0.0
  0
LINE
  8
0
 62
     0
 10
172.151
 20
40.9554
 30
0.0
 11
172.151
 21
44.1854
 31
0.0
  0
LINE
  8
0
 62
     0
 10
172.151
 20
44.1854
 30
0.0
 11
165.401
 21
44.1854
 31
0.0
  0
LINE
  8
0
 62
     0
 10
165.401
 20
44.1854
 30
0.0
 11
165.401
 21
40.9554
 31
0.0
  0
LINE
  8
0
 62
     0
 10
165.401
 20
40.9554
 30
0.0
 11
163.876
 21
40.9554
 31
0.0
  0
LINE
  8
0
 62
     0
 10
163.876
 20
40.9554
 30
0.0
 11
163.876
 21
41.5548
 31
0.0
  0
LINE
  8
0
 62
     0
 10
163.876
 20
41.5548
 30
0.0
 11
164.676
 21
41.5548
 31
0.0
  0
LINE
  8
0
 62
     0
 10
164.676
 20
41.5548
 30
0.0
 11
164.676
 21
44.6553
 31
0.0
  0
LINE
  8
0
 62
     0
 10
164.676
 20
44.6553
 30
0.0
 11
163.876
 21
44.6553
 31
0.0
  0
LINE
  8
0
 62
     0
 10
163.876
 20
44.6553
 30
0.0
 11
163.876
 21
45.6544
 31
0.0
  0
LINE
  8
0
 62
     0
 10
163.876
 20
45.6544
 30
0.0
 11
149.876
 21
45.6544
 31
0.0
  0
LINE
  8
0
 62
     0
 10
18.9067
 20
45.6544
 30
0.0
 11
18.9067
 21
44.6553
 31
0.0
  0
LINE
  8
0
 62
     0
 10
18.9067
 20
44.6553
 30
0.0
 11
18.1074
 21
44.6553
 31
0.0
  0
LINE
  8
0
 62
     0
 10
18.1074
 20
44.6553
 30
0.0
 11
18.1074
 21
41.5548
 31
0.0
  0
LINE
  8
0
 62
     0
 10
18.1074
 20
41.5548
 30
0.0
 11
18.9067
 21
41.5548
 31
0.0
  0
LINE
  8
0
 62
     0
 10
18.9067
 20
41.5548
 30
0.0
 11
18.9067
 21
35.7547
 31
0.0
  0
LINE
  8
0
 62
     0
 10
18.9067
 20
35.7547
 30
0.0
 11
18.1074
 21
35.7547
 31
0.0
  0
LINE
  8
0
 62
     0
 10
18.1074
 20
35.7547
 30
0.0
 11
18.1074
 21
32.6554
 31
0.0
  0
LINE
  8
0
 62
     0
 10
18.1074
 20
32.6554
 30
0.0
 11
18.9067
 21
32.6554
 31
0.0
  0
LINE
  8
0
 62
     0
 10
18.9067
 20
32.6554
 30
0.0
 11
18.9067
 21
31.6549
 31
0.0
  0
LINE
  8
0
 62
     0
 10
18.9067
 20
31.6549
 30
0.0
 11
32.9062
 21
31.6549
 31
0.0
  0
LINE
  8
0
 62
     0
 10
32.9062
 20
31.6549
 30
0.0
 11
32.9062
 21
32.6554
 31
0.0
  0
LINE
  8
0
 62
     0
 10
32.9062
 20
32.6554
 30
0.0
 11
33.7068
 21
32.6554
 31
0.0
  0
LINE
  8
0
 62
     0
 10
33.7068
 20
32.6554
 30
0.0
 11
33.7068
 21
35.7547
 31
0.0
  0
LINE
  8
0
 62
     0
 10
33.7068
 20
35.7547
 30
0.0
 11
32.9062
 21
35.7547
 31
0.0
  0
LINE
  8
0
 62
     0
 10
32.9062
 20
35.7547
 30
0.0
 11
32.9062
 21
41.5548
 31
0.0
  0
LINE
  8
0
 62
     0
 10
32.9062
 20
41.5548
 30
0.0
 11
33.7068
 21
41.5548
 31
0.0
  0
LINE
  8
0
 62
     0
 10
33.7068
 20
41.5548
 30
0.0
 11
33.7068
 21
44.6553
 31
0.0
  0
LINE
  8
0
 62
     0
 10
33.7068
 20
44.6553
 30
0.0
 11
32.9062
 21
44.6553
 31
0.0
  0
LINE
  8
0
 62
     0
 10
32.9062
 20
44.6553
 30
0.0
 11
32.9062
 21
45.6544
 31
0.0
  0
LINE
  8
0
 62
     0
 10
32.9062
 20
45.6544
 30
0.0
 11
18.9067
 21
45.6544
 31
0.0
  0
LINE
  8
0
 62
     0
 10
37.9568
 20
45.6544
 30
0.0
 11
37.9568
 21
44.6553
 31
0.0
  0
LINE
  8
0
 62
     0
 10
37.9568
 20
44.6553
 30
0.0
 11
37.1574
 21
44.6553
 31
0.0
  0
LINE
  8
0
 62
     0
 10
37.1574
 20
44.6553
 30
0.0
 11
37.1574
 21
41.5548
 31
0.0
  0
LINE
  8
0
 62
     0
 10
37.1574
 20
41.5548
 30
0.0
 11
37.9568
 21
41.5548
 31
0.0
  0
LINE
  8
0
 62
     0
 10
37.9568
 20
41.5548
 30
0.0
 11
37.9568
 21
35.7547
 31
0.0
  0
LINE
  8
0
 62
     0
 10
37.9568
 20
35.7547
 30
0.0
 11
37.1574
 21
35.7547
 31
0.0
  0
LINE
  8
0
 62
     0
 10
37.1574
 20
35.7547
 30
0.0
 11
37.1574
 21
32.6554
 31
0.0
  0
LINE
  8
0
 62
     0
 10
37.1574
 20
32.6554
 30
0.0
 11
37.9568
 21
32.6554
 31
0.0
  0
LINE
  8
0
 62
     0
 10
37.9568
 20
32.6554
 30
0.0
 11
37.9568
 21
31.6549
 31
0.0
  0
LINE
  8
0
 62
     0
 10
37.9568
 20
31.6549
 30
0.0
 11
51.9561
 21
31.6549
 31
0.0
  0
LINE
  8
0
 62
     0
 10
51.9561
 20
31.6549
 30
0.0
 11
51.9561
 21
32.6554
 31
0.0
  0
LINE
  8
0
 62
     0
 10
51.9561
 20
32.6554
 30
0.0
 11
52.7569
 21
32.6554
 31
0.0
  0
LINE
  8
0
 62
     0
 10
52.7569
 20
32.6554
 30
0.0
 11
52.7569
 21
35.7547
 31
0.0
  0
LINE
  8
0
 62
     0
 10
52.7569
 20
35.7547
 30
0.0
 11
51.9561
 21
35.7547
 31
0.0
  0
LINE
  8
0
 62
     0
 10
51.9561
 20
35.7547
 30
0.0
 11
51.9561
 21
41.5548
 31
0.0
  0
LINE
  8
0
 62
     0
 10
51.9561
 20
41.5548
 30
0.0
 11
52.7569
 21
41.5548
 31
0.0
  0
LINE
  8
0
 62
     0
 10
52.7569
 20
41.5548
 30
0.0
 11
52.7569
 21
44.6553
 31
0.0
  0
LINE
  8
0
 62
     0
 10
52.7569
 20
44.6553
 30
0.0
 11
51.9561
 21
44.6553
 31
0.0
  0
LINE
  8
0
 62
     0
 10
51.9561
 20
44.6553
 30
0.0
 11
51.9561
 21
45.6544
 31
0.0
  0
LINE
  8
0
 62
     0
 10
51.9561
 20
45.6544
 30
0.0
 11
37.9568
 21
45.6544
 31
0.0
  0
LINE
  8
0
 62
     0
 10
57.0068
 20
45.6544
 30
0.0
 11
57.0068
 21
44.6553
 31
0.0
  0
LINE
  8
0
 62
     0
 10
57.0068
 20
44.6553
 30
0.0
 11
56.2074
 21
44.6553
 31
0.0
  0
LINE
  8
0
 62
     0
 10
56.2074
 20
44.6553
 30
0.0
 11
56.2074
 21
41.5548
 31
0.0
  0
LINE
  8
0
 62
     0
 10
56.2074
 20
41.5548
 30
0.0
 11
57.0068
 21
41.5548
 31
0.0
  0
LINE
  8
0
 62
     0
 10
57.0068
 20
41.5548
 30
0.0
 11
57.0068
 21
35.7547
 31
0.0
  0
LINE
  8
0
 62
     0
 10
57.0068
 20
35.7547
 30
0.0
 11
56.2074
 21
35.7547
 31
0.0
  0
LINE
  8
0
 62
     0
 10
56.2074
 20
35.7547
 30
0.0
 11
56.2074
 21
32.6554
 31
0.0
  0
LINE
  8
0
 62
     0
 10
56.2074
 20
32.6554
 30
0.0
 11
57.0068
 21
32.6554
 31
0.0
  0
LINE
  8
0
 62
     0
 10
57.0068
 20
32.6554
 30
0.0
 11
57.0068
 21
31.6549
 31
0.0
  0
LINE
  8
0
 62
     0
 10
57.0068
 20
31.6549
 30
0.0
 11
71.0061
 21
31.6549
 31
0.0
  0
LINE
  8
0
 62
     0
 10
71.0061
 20
31.6549
 30
0.0
 11
71.0061
 21
32.6554
 31
0.0
  0
LINE
  8
0
 62
     0
 10
71.0061
 20
32.6554
 30
0.0
 11
71.8069
 21
32.6554
 31
0.0
  0
LINE
  8
0
 62
     0
 10
71.8069
 20
32.6554
 30
0.0
 11
71.8069
 21
35.7547
 31
0.0
  0
LINE
  8
0
 62
     0
 10
71.8069
 20
35.7547
 30
0.0
 11
71.0061
 21
35.7547
 31
0.0
  0
LINE
  8
0
 62
     0
 10
71.0061
 20
35.7547
 30
0.0
 11
71.0061
 21
41.5548
 31
0.0
  0
LINE
  8
0
 62
     0
 10
71.0061
 20
41.5548
 30
0.0
 11
71.8069
 21
41.5548
 31
0.0
  0
LINE
  8
0
 62
     0
 10
71.8069
 20
41.5548
 30
0.0
 11
71.8069
 21
44.6553
 31
0.0
  0
LINE
  8
0
 62
     0
 10
71.8069
 20
44.6553
 30
0.0
 11
71.0061
 21
44.6553
 31
0.0
  0
LINE
  8
0
 62
     0
 10
71.0061
 20
44.6553
 30
0.0
 11
71.0061
 21
45.6544
 31
0.0
  0
LINE
  8
0
 62
     0
 10
71.0061
 20
45.6544
 30
0.0
 11
57.0068
 21
45.6544
 31
0.0
  0
LINE
  8
0
 62
     0
 10
76.0568
 20
45.6544
 30
0.0
 11
76.0568
 21
44.6553
 31
0.0
  0
LINE
  8
0
 62
     0
 10
76.0568
 20
44.6553
 30
0.0
 11
75.2574
 21
44.6553
 31
0.0
  0
LINE
  8
0
 62
     0
 10
75.2574
 20
44.6553
 30
0.0
 11
75.2574
 21
41.5548
 31
0.0
  0
LINE
  8
0
 62
     0
 10
75.2574
 20
41.5548
 30
0.0
 11
76.0568
 21
41.5548
 31
0.0
  0
LINE
  8
0
 62
     0
 10
76.0568
 20
41.5548
 30
0.0
 11
76.0568
 21
35.7547
 31
0.0
  0
LINE
  8
0
 62
     0
 10
76.0568
 20
35.7547
 30
0.0
 11
75.2574
 21
35.7547
 31
0.0
  0
LINE
  8
0
 62
     0
 10
75.2574
 20
35.7547
 30
0.0
 11
75.2574
 21
32.6554
 31
0.0
  0
LINE
  8
0
 62
     0
 10
75.2574
 20
32.6554
 30
0.0
 11
76.0568
 21
32.6554
 31
0.0
  0
LINE
  8
0
 62
     0
 10
76.0568
 20
32.6554
 30
0.0
 11
76.0568
 21
31.6549
 31
0.0
  0
LINE
  8
0
 62
     0
 10
76.0568
 20
31.6549
 30
0.0
 11
90.0561
 21
31.6549
 31
0.0
  0
LINE
  8
0
 62
     0
 10
90.0561
 20
31.6549
 30
0.0
 11
90.0561
 21
32.6554
 31
0.0
  0
LINE
  8
0
 62
     0
 10
90.0561
 20
32.6554
 30
0.0
 11
90.8569
 21
32.6554
 31
0.0
  0
LINE
  8
0
 62
     0
 10
90.8569
 20
32.6554
 30
0.0
 11
90.8569
 21
35.7547
 31
0.0
  0
LINE
  8
0
 62
     0
 10
90.8569
 20
35.7547
 30
0.0
 11
90.0561
 21
35.7547
 31
0.0
  0
LINE
  8
0
 62
     0
 10
90.0561
 20
35.7547
 30
0.0
 11
90.0561
 21
41.5548
 31
0.0
  0
LINE
  8
0
 62
     0
 10
90.0561
 20
41.5548
 30
0.0
 11
90.8569
 21
41.5548
 31
0.0
  0
LINE
  8
0
 62
     0
 10
90.8569
 20
41.5548
 30
0.0
 11
90.8569
 21
44.6553
 31
0.0
  0
LINE
  8
0
 62
     0
 10
90.8569
 20
44.6553
 30
0.0
 11
90.0561
 21
44.6553
 31
0.0
  0
LINE
  8
0
 62
     0
 10
90.0561
 20
44.6553
 30
0.0
 11
90.0561
 21
45.6544
 31
0.0
  0
LINE
  8
0
 62
     0
 10
90.0561
 20
45.6544
 30
0.0
 11
76.0568
 21
45.6544
 31
0.0
  0
LINE
  8
0
 62
     0
 10
95.1068
 20
45.6544
 30
0.0
 11
95.1068
 21
44.6553
 31
0.0
  0
LINE
  8
0
 62
     0
 10
95.1068
 20
44.6553
 30
0.0
 11
94.3074
 21
44.6553
 31
0.0
  0
LINE
  8
0
 62
     0
 10
94.3074
 20
44.6553
 30
0.0
 11
94.3074
 21
41.5548
 31
0.0
  0
LINE
  8
0
 62
     0
 10
94.3074
 20
41.5548
 30
0.0
 11
95.1068
 21
41.5548
 31
0.0
  0
LINE
  8
0
 62
     0
 10
95.1068
 20
41.5548
 30
0.0
 11
95.1068
 21
35.7547
 31
0.0
  0
LINE
  8
0
 62
     0
 10
95.1068
 20
35.7547
 30
0.0
 11
94.3074
 21
35.7547
 31
0.0
  0
LINE
  8
0
 62
     0
 10
94.3074
 20
35.7547
 30
0.0
 11
94.3074
 21
32.6554
 31
0.0
  0
LINE
  8
0
 62
     0
 10
94.3074
 20
32.6554
 30
0.0
 11
95.1068
 21
32.6554
 31
0.0
  0
LINE
  8
0
 62
     0
 10
95.1068
 20
32.6554
 30
0.0
 11
95.1068
 21
31.6549
 31
0.0
  0
LINE
  8
0
 62
     0
 10
95.1068
 20
31.6549
 30
0.0
 11
109.106
 21
31.6549
 31
0.0
  0
LINE
  8
0
 62
     0
 10
109.106
 20
31.6549
 30
0.0
 11
109.106
 21
32.6554
 31
0.0
  0
LINE
  8
0
 62
     0
 10
109.106
 20
32.6554
 30
0.0
 11
109.907
 21
32.6554
 31
0.0
  0
LINE
  8
0
 62
     0
 10
109.907
 20
32.6554
 30
0.0
 11
109.907
 21
35.7547
 31
0.0
  0
LINE
  8
0
 62
     0
 10
109.907
 20
35.7547
 30
0.0
 11
109.106
 21
35.7547
 31
0.0
  0
LINE
  8
0
 62
     0
 10
109.106
 20
35.7547
 30
0.0
 11
109.106
 21
41.5548
 31
0.0
  0
LINE
  8
0
 62
     0
 10
109.106
 20
41.5548
 30
0.0
 11
109.907
 21
41.5548
 31
0.0
  0
LINE
  8
0
 62
     0
 10
109.907
 20
41.5548
 30
0.0
 11
109.907
 21
44.6553
 31
0.0
  0
LINE
  8
0
 62
     0
 10
109.907
 20
44.6553
 30
0.0
 11
109.106
 21
44.6553
 31
0.0
  0
LINE
  8
0
 62
     0
 10
109.106
 20
44.6553
 30
0.0
 11
109.106
 21
45.6544
 31
0.0
  0
LINE
  8
0
 62
     0
 10
109.106
 20
45.6544
 30
0.0
 11
95.1068
 21
45.6544
 31
0.0
  0
LINE
  8
0
 62
     0
 10
114.157
 20
45.6544
 30
0.0
 11
114.157
 21
44.6553
 31
0.0
  0
LINE
  8
0
 62
     0
 10
114.157
 20
44.6553
 30
0.0
 11
113.357
 21
44.6553
 31
0.0
  0
LINE
  8
0
 62
     0
 10
113.357
 20
44.6553
 30
0.0
 11
113.357
 21
41.5548
 31
0.0
  0
LINE
  8
0
 62
     0
 10
113.357
 20
41.5548
 30
0.0
 11
114.157
 21
41.5548
 31
0.0
  0
LINE
  8
0
 62
     0
 10
114.157
 20
41.5548
 30
0.0
 11
114.157
 21
35.7547
 31
0.0
  0
LINE
  8
0
 62
     0
 10
114.157
 20
35.7547
 30
0.0
 11
113.357
 21
35.7547
 31
0.0
  0
LINE
  8
0
 62
     0
 10
113.357
 20
35.7547
 30
0.0
 11
113.357
 21
32.6554
 31
0.0
  0
LINE
  8
0
 62
     0
 10
113.357
 20
32.6554
 30
0.0
 11
114.157
 21
32.6554
 31
0.0
  0
LINE
  8
0
 62
     0
 10
114.157
 20
32.6554
 30
0.0
 11
114.157
 21
31.6549
 31
0.0
  0
LINE
  8
0
 62
     0
 10
114.157
 20
31.6549
 30
0.0
 11
128.156
 21
31.6549
 31
0.0
  0
LINE
  8
0
 62
     0
 10
128.156
 20
31.6549
 30
0.0
 11
128.156
 21
32.6554
 31
0.0
  0
LINE
  8
0
 62
     0
 10
128.156
 20
32.6554
 30
0.0
 11
128.957
 21
32.6554
 31
0.0
  0
LINE
  8
0
 62
     0
 10
128.957
 20
32.6554
 30
0.0
 11
128.957
 21
35.7547
 31
0.0
  0
LINE
  8
0
 62
     0
 10
128.957
 20
35.7547
 30
0.0
 11
128.156
 21
35.7547
 31
0.0
  0
LINE
  8
0
 62
     0
 10
128.156
 20
35.7547
 30
0.0
 11
128.156
 21
41.5548
 31
0.0
  0
LINE
  8
0
 62
     0
 10
128.156
 20
41.5548
 30
0.0
 11
128.957
 21
41.5548
 31
0.0
  0
LINE
  8
0
 62
     0
 10
128.957
 20
41.5548
 30
0.0
 11
128.957
 21
44.6553
 31
0.0
  0
LINE
  8
0
 62
     0
 10
128.957
 20
44.6553
 30
0.0
 11
128.156
 21
44.6553
 31
0.0
  0
LINE
  8
0
 62
     0
 10
128.156
 20
44.6553
 30
0.0
 11
128.156
 21
45.6544
 31
0.0
  0
LINE
  8
0
 62
     0
 10
128.156
 20
45.6544
 30
0.0
 11
114.157
 21
45.6544
 31
0.0
  0
LINE
  8
0
 62
     0
 10
214.169
 20
45.6544
 30
0.0
 11
214.169
 21
44.6553
 31
0.0
  0
LINE
  8
0
 62
     0
 10
214.169
 20
44.6553
 30
0.0
 11
213.368
 21
44.6553
 31
0.0
  0
LINE
  8
0
 62
     0
 10
213.368
 20
44.6553
 30
0.0
 11
213.368
 21
41.5548
 31
0.0
  0
LINE
  8
0
 62
     0
 10
213.368
 20
41.5548
 30
0.0
 11
214.169
 21
41.5548
 31
0.0
  0
LINE
  8
0
 62
     0
 10
214.169
 20
41.5548
 30
0.0
 11
214.169
 21
35.7547
 31
0.0
  0
LINE
  8
0
 62
     0
 10
214.169
 20
35.7547
 30
0.0
 11
213.368
 21
35.7547
 31
0.0
  0
LINE
  8
0
 62
     0
 10
213.368
 20
35.7547
 30
0.0
 11
213.368
 21
32.6554
 31
0.0
  0
LINE
  8
0
 62
     0
 10
213.368
 20
32.6554
 30
0.0
 11
214.169
 21
32.6554
 31
0.0
  0
LINE
  8
0
 62
     0
 10
214.169
 20
32.6554
 30
0.0
 11
214.169
 21
31.6549
 31
0.0
  0
LINE
  8
0
 62
     0
 10
214.169
 20
31.6549
 30
0.0
 11
228.17
 21
31.6549
 31
0.0
  0
LINE
  8
0
 62
     0
 10
228.17
 20
31.6549
 30
0.0
 11
228.17
 21
32.6554
 31
0.0
  0
LINE
  8
0
 62
     0
 10
228.17
 20
32.6554
 30
0.0
 11
228.969
 21
32.6554
 31
0.0
  0
LINE
  8
0
 62
     0
 10
228.969
 20
32.6554
 30
0.0
 11
228.969
 21
35.7547
 31
0.0
  0
LINE
  8
0
 62
     0
 10
228.969
 20
35.7547
 30
0.0
 11
228.17
 21
35.7547
 31
0.0
  0
LINE
  8
0
 62
     0
 10
228.17
 20
35.7547
 30
0.0
 11
228.17
 21
41.5548
 31
0.0
  0
LINE
  8
0
 62
     0
 10
228.17
 20
41.5548
 30
0.0
 11
228.969
 21
41.5548
 31
0.0
  0
LINE
  8
0
 62
     0
 10
228.969
 20
41.5548
 30
0.0
 11
228.969
 21
44.6553
 31
0.0
  0
LINE
  8
0
 62
     0
 10
228.969
 20
44.6553
 30
0.0
 11
228.17
 21
44.6553
 31
0.0
  0
LINE
  8
0
 62
     0
 10
228.17
 20
44.6553
 30
0.0
 11
228.17
 21
45.6544
 31
0.0
  0
LINE
  8
0
 62
     0
 10
228.17
 20
45.6544
 30
0.0
 11
214.169
 21
45.6544
 31
0.0
  0
LINE
  8
0
 62
     0
 10
154.638
 20
64.7044
 30
0.0
 11
154.638
 21
63.7053
 31
0.0
  0
LINE
  8
0
 62
     0
 10
154.638
 20
63.7053
 30
0.0
 11
153.837
 21
63.7053
 31
0.0
  0
LINE
  8
0
 62
     0
 10
153.837
 20
63.7053
 30
0.0
 11
153.837
 21
60.6048
 31
0.0
  0
LINE
  8
0
 62
     0
 10
153.837
 20
60.6048
 30
0.0
 11
154.638
 21
60.6048
 31
0.0
  0
LINE
  8
0
 62
     0
 10
154.638
 20
60.6048
 30
0.0
 11
154.638
 21
60.0054
 31
0.0
  0
LINE
  8
0
 62
     0
 10
154.638
 20
60.0054
 30
0.0
 11
153.113
 21
60.0054
 31
0.0
  0
LINE
  8
0
 62
     0
 10
153.113
 20
60.0054
 30
0.0
 11
153.113
 21
63.2354
 31
0.0
  0
LINE
  8
0
 62
     0
 10
153.113
 20
63.2354
 30
0.0
 11
146.363
 21
63.2354
 31
0.0
  0
LINE
  8
0
 62
     0
 10
146.363
 20
63.2354
 30
0.0
 11
146.363
 21
60.0054
 31
0.0
  0
LINE
  8
0
 62
     0
 10
146.363
 20
60.0054
 30
0.0
 11
145.537
 21
60.0054
 31
0.0
  0
LINE
  8
0
 62
     0
 10
145.537
 20
60.0054
 30
0.0
 11
145.537
 21
57.205
 31
0.0
  0
LINE
  8
0
 62
     0
 10
145.537
 20
57.205
 30
0.0
 11
146.363
 21
57.205
 31
0.0
  0
LINE
  8
0
 62
     0
 10
146.363
 20
57.205
 30
0.0
 11
146.363
 21
50.9351
 31
0.0
  0
LINE
  8
0
 62
     0
 10
146.363
 20
50.9351
 30
0.0
 11
148.088
 21
50.9351
 31
0.0
  0
LINE
  8
0
 62
     0
 10
148.088
 20
50.9351
 30
0.0
 11
148.088
 21
49.7346
 31
0.0
  0
LINE
  8
0
 62
     0
 10
148.088
 20
49.7346
 30
0.0
 11
151.387
 21
49.7346
 31
0.0
  0
LINE
  8
0
 62
     0
 10
151.387
 20
49.7346
 30
0.0
 11
151.387
 21
50.9351
 31
0.0
  0
LINE
  8
0
 62
     0
 10
151.387
 20
50.9351
 30
0.0
 11
153.113
 21
50.9351
 31
0.0
  0
LINE
  8
0
 62
     0
 10
153.113
 20
50.9351
 30
0.0
 11
153.113
 21
55.4055
 31
0.0
  0
LINE
  8
0
 62
     0
 10
153.113
 20
55.4055
 30
0.0
 11
154.638
 21
55.4055
 31
0.0
  0
LINE
  8
0
 62
     0
 10
154.638
 20
55.4055
 30
0.0
 11
154.638
 21
54.8047
 31
0.0
  0
LINE
  8
0
 62
     0
 10
154.638
 20
54.8047
 30
0.0
 11
153.837
 21
54.8047
 31
0.0
  0
LINE
  8
0
 62
     0
 10
153.837
 20
54.8047
 30
0.0
 11
153.837
 21
51.7052
 31
0.0
  0
LINE
  8
0
 62
     0
 10
153.837
 20
51.7052
 30
0.0
 11
154.638
 21
51.7052
 31
0.0
  0
LINE
  8
0
 62
     0
 10
154.638
 20
51.7052
 30
0.0
 11
154.638
 21
50.7047
 31
0.0
  0
LINE
  8
0
 62
     0
 10
154.638
 20
50.7047
 30
0.0
 11
168.637
 21
50.7047
 31
0.0
  0
LINE
  8
0
 62
     0
 10
168.637
 20
50.7047
 30
0.0
 11
168.637
 21
51.7052
 31
0.0
  0
LINE
  8
0
 62
     0
 10
168.637
 20
51.7052
 30
0.0
 11
169.438
 21
51.7052
 31
0.0
  0
LINE
  8
0
 62
     0
 10
169.438
 20
51.7052
 30
0.0
 11
169.438
 21
54.8047
 31
0.0
  0
LINE
  8
0
 62
     0
 10
169.438
 20
54.8047
 30
0.0
 11
168.637
 21
54.8047
 31
0.0
  0
LINE
  8
0
 62
     0
 10
168.637
 20
54.8047
 30
0.0
 11
168.637
 21
55.4055
 31
0.0
  0
LINE
  8
0
 62
     0
 10
168.637
 20
55.4055
 30
0.0
 11
170.163
 21
55.4055
 31
0.0
  0
LINE
  8
0
 62
     0
 10
170.163
 20
55.4055
 30
0.0
 11
170.163
 21
50.9351
 31
0.0
  0
LINE
  8
0
 62
     0
 10
170.163
 20
50.9351
 30
0.0
 11
171.888
 21
50.9351
 31
0.0
  0
LINE
  8
0
 62
     0
 10
171.888
 20
50.9351
 30
0.0
 11
171.888
 21
49.7346
 31
0.0
  0
LINE
  8
0
 62
     0
 10
171.888
 20
49.7346
 30
0.0
 11
175.187
 21
49.7346
 31
0.0
  0
LINE
  8
0
 62
     0
 10
175.187
 20
49.7346
 30
0.0
 11
175.187
 21
50.9351
 31
0.0
  0
LINE
  8
0
 62
     0
 10
175.187
 20
50.9351
 30
0.0
 11
176.912
 21
50.9351
 31
0.0
  0
LINE
  8
0
 62
     0
 10
176.912
 20
50.9351
 30
0.0
 11
176.912
 21
57.205
 31
0.0
  0
LINE
  8
0
 62
     0
 10
176.912
 20
57.205
 30
0.0
 11
177.738
 21
57.205
 31
0.0
  0
LINE
  8
0
 62
     0
 10
177.738
 20
57.205
 30
0.0
 11
177.738
 21
60.0054
 31
0.0
  0
LINE
  8
0
 62
     0
 10
177.738
 20
60.0054
 30
0.0
 11
176.912
 21
60.0054
 31
0.0
  0
LINE
  8
0
 62
     0
 10
176.912
 20
60.0054
 30
0.0
 11
176.912
 21
63.2354
 31
0.0
  0
LINE
  8
0
 62
     0
 10
176.912
 20
63.2354
 30
0.0
 11
170.163
 21
63.2354
 31
0.0
  0
LINE
  8
0
 62
     0
 10
170.163
 20
63.2354
 30
0.0
 11
170.163
 21
60.0054
 31
0.0
  0
LINE
  8
0
 62
     0
 10
170.163
 20
60.0054
 30
0.0
 11
168.637
 21
60.0054
 31
0.0
  0
LINE
  8
0
 62
     0
 10
168.637
 20
60.0054
 30
0.0
 11
168.637
 21
60.6048
 31
0.0
  0
LINE
  8
0
 62
     0
 10
168.637
 20
60.6048
 30
0.0
 11
169.438
 21
60.6048
 31
0.0
  0
LINE
  8
0
 62
     0
 10
169.438
 20
60.6048
 30
0.0
 11
169.438
 21
63.7053
 31
0.0
  0
LINE
  8
0
 62
     0
 10
169.438
 20
63.7053
 30
0.0
 11
168.637
 21
63.7053
 31
0.0
  0
LINE
  8
0
 62
     0
 10
168.637
 20
63.7053
 30
0.0
 11
168.637
 21
64.7044
 31
0.0
  0
LINE
  8
0
 62
     0
 10
168.637
 20
64.7044
 30
0.0
 11
154.638
 21
64.7044
 31
0.0
  0
LINE
  8
0
 62
     0
 10
9.3817
 20
64.7044
 30
0.0
 11
9.3817
 21
63.7053
 31
0.0
  0
LINE
  8
0
 62
     0
 10
9.3817
 20
63.7053
 30
0.0
 11
8.58241
 21
63.7053
 31
0.0
  0
LINE
  8
0
 62
     0
 10
8.58241
 20
63.7053
 30
0.0
 11
8.58241
 21
60.6048
 31
0.0
  0
LINE
  8
0
 62
     0
 10
8.58241
 20
60.6048
 30
0.0
 11
9.3817
 21
60.6048
 31
0.0
  0
LINE
  8
0
 62
     0
 10
9.3817
 20
60.6048
 30
0.0
 11
9.3817
 21
54.8047
 31
0.0
  0
LINE
  8
0
 62
     0
 10
9.3817
 20
54.8047
 30
0.0
 11
8.58241
 21
54.8047
 31
0.0
  0
LINE
  8
0
 62
     0
 10
8.58241
 20
54.8047
 30
0.0
 11
8.58241
 21
51.7052
 31
0.0
  0
LINE
  8
0
 62
     0
 10
8.58241
 20
51.7052
 30
0.0
 11
9.3817
 21
51.7052
 31
0.0
  0
LINE
  8
0
 62
     0
 10
9.3817
 20
51.7052
 30
0.0
 11
9.3817
 21
50.7047
 31
0.0
  0
LINE
  8
0
 62
     0
 10
9.3817
 20
50.7047
 30
0.0
 11
23.3812
 21
50.7047
 31
0.0
  0
LINE
  8
0
 62
     0
 10
23.3812
 20
50.7047
 30
0.0
 11
23.3812
 21
51.7052
 31
0.0
  0
LINE
  8
0
 62
     0
 10
23.3812
 20
51.7052
 30
0.0
 11
24.1818
 21
51.7052
 31
0.0
  0
LINE
  8
0
 62
     0
 10
24.1818
 20
51.7052
 30
0.0
 11
24.1818
 21
54.8047
 31
0.0
  0
LINE
  8
0
 62
     0
 10
24.1818
 20
54.8047
 30
0.0
 11
23.3812
 21
54.8047
 31
0.0
  0
LINE
  8
0
 62
     0
 10
23.3812
 20
54.8047
 30
0.0
 11
23.3812
 21
60.6048
 31
0.0
  0
LINE
  8
0
 62
     0
 10
23.3812
 20
60.6048
 30
0.0
 11
24.1818
 21
60.6048
 31
0.0
  0
LINE
  8
0
 62
     0
 10
24.1818
 20
60.6048
 30
0.0
 11
24.1818
 21
63.7053
 31
0.0
  0
LINE
  8
0
 62
     0
 10
24.1818
 20
63.7053
 30
0.0
 11
23.3812
 21
63.7053
 31
0.0
  0
LINE
  8
0
 62
     0
 10
23.3812
 20
63.7053
 30
0.0
 11
23.3812
 21
64.7044
 31
0.0
  0
LINE
  8
0
 62
     0
 10
23.3812
 20
64.7044
 30
0.0
 11
9.3817
 21
64.7044
 31
0.0
  0
LINE
  8
0
 62
     0
 10
28.4317
 20
64.7044
 30
0.0
 11
28.4317
 21
63.7053
 31
0.0
  0
LINE
  8
0
 62
     0
 10
28.4317
 20
63.7053
 30
0.0
 11
27.6324
 21
63.7053
 31
0.0
  0
LINE
  8
0
 62
     0
 10
27.6324
 20
63.7053
 30
0.0
 11
27.6324
 21
60.6048
 31
0.0
  0
LINE
  8
0
 62
     0
 10
27.6324
 20
60.6048
 30
0.0
 11
28.4317
 21
60.6048
 31
0.0
  0
LINE
  8
0
 62
     0
 10
28.4317
 20
60.6048
 30
0.0
 11
28.4317
 21
54.8047
 31
0.0
  0
LINE
  8
0
 62
     0
 10
28.4317
 20
54.8047
 30
0.0
 11
27.6324
 21
54.8047
 31
0.0
  0
LINE
  8
0
 62
     0
 10
27.6324
 20
54.8047
 30
0.0
 11
27.6324
 21
51.7052
 31
0.0
  0
LINE
  8
0
 62
     0
 10
27.6324
 20
51.7052
 30
0.0
 11
28.4317
 21
51.7052
 31
0.0
  0
LINE
  8
0
 62
     0
 10
28.4317
 20
51.7052
 30
0.0
 11
28.4317
 21
50.7047
 31
0.0
  0
LINE
  8
0
 62
     0
 10
28.4317
 20
50.7047
 30
0.0
 11
42.4311
 21
50.7047
 31
0.0
  0
LINE
  8
0
 62
     0
 10
42.4311
 20
50.7047
 30
0.0
 11
42.4311
 21
51.7052
 31
0.0
  0
LINE
  8
0
 62
     0
 10
42.4311
 20
51.7052
 30
0.0
 11
43.2319
 21
51.7052
 31
0.0
  0
LINE
  8
0
 62
     0
 10
43.2319
 20
51.7052
 30
0.0
 11
43.2319
 21
54.8047
 31
0.0
  0
LINE
  8
0
 62
     0
 10
43.2319
 20
54.8047
 30
0.0
 11
42.4311
 21
54.8047
 31
0.0
  0
LINE
  8
0
 62
     0
 10
42.4311
 20
54.8047
 30
0.0
 11
42.4311
 21
60.6048
 31
0.0
  0
LINE
  8
0
 62
     0
 10
42.4311
 20
60.6048
 30
0.0
 11
43.2319
 21
60.6048
 31
0.0
  0
LINE
  8
0
 62
     0
 10
43.2319
 20
60.6048
 30
0.0
 11
43.2319
 21
63.7053
 31
0.0
  0
LINE
  8
0
 62
     0
 10
43.2319
 20
63.7053
 30
0.0
 11
42.4311
 21
63.7053
 31
0.0
  0
LINE
  8
0
 62
     0
 10
42.4311
 20
63.7053
 30
0.0
 11
42.4311
 21
64.7044
 31
0.0
  0
LINE
  8
0
 62
     0
 10
42.4311
 20
64.7044
 30
0.0
 11
28.4317
 21
64.7044
 31
0.0
  0
LINE
  8
0
 62
     0
 10
47.4818
 20
64.7044
 30
0.0
 11
47.4818
 21
63.7053
 31
0.0
  0
LINE
  8
0
 62
     0
 10
47.4818
 20
63.7053
 30
0.0
 11
46.6824
 21
63.7053
 31
0.0
  0
LINE
  8
0
 62
     0
 10
46.6824
 20
63.7053
 30
0.0
 11
46.6824
 21
60.6048
 31
0.0
  0
LINE
  8
0
 62
     0
 10
46.6824
 20
60.6048
 30
0.0
 11
47.4818
 21
60.6048
 31
0.0
  0
LINE
  8
0
 62
     0
 10
47.4818
 20
60.6048
 30
0.0
 11
47.4818
 21
54.8047
 31
0.0
  0
LINE
  8
0
 62
     0
 10
47.4818
 20
54.8047
 30
0.0
 11
46.6824
 21
54.8047
 31
0.0
  0
LINE
  8
0
 62
     0
 10
46.6824
 20
54.8047
 30
0.0
 11
46.6824
 21
51.7052
 31
0.0
  0
LINE
  8
0
 62
     0
 10
46.6824
 20
51.7052
 30
0.0
 11
47.4818
 21
51.7052
 31
0.0
  0
LINE
  8
0
 62
     0
 10
47.4818
 20
51.7052
 30
0.0
 11
47.4818
 21
50.7047
 31
0.0
  0
LINE
  8
0
 62
     0
 10
47.4818
 20
50.7047
 30
0.0
 11
61.4811
 21
50.7047
 31
0.0
  0
LINE
  8
0
 62
     0
 10
61.4811
 20
50.7047
 30
0.0
 11
61.4811
 21
51.7052
 31
0.0
  0
LINE
  8
0
 62
     0
 10
61.4811
 20
51.7052
 30
0.0
 11
62.2819
 21
51.7052
 31
0.0
  0
LINE
  8
0
 62
     0
 10
62.2819
 20
51.7052
 30
0.0
 11
62.2819
 21
54.8047
 31
0.0
  0
LINE
  8
0
 62
     0
 10
62.2819
 20
54.8047
 30
0.0
 11
61.4811
 21
54.8047
 31
0.0
  0
LINE
  8
0
 62
     0
 10
61.4811
 20
54.8047
 30
0.0
 11
61.4811
 21
60.6048
 31
0.0
  0
LINE
  8
0
 62
     0
 10
61.4811
 20
60.6048
 30
0.0
 11
62.2819
 21
60.6048
 31
0.0
  0
LINE
  8
0
 62
     0
 10
62.2819
 20
60.6048
 30
0.0
 11
62.2819
 21
63.7053
 31
0.0
  0
LINE
  8
0
 62
     0
 10
62.2819
 20
63.7053
 30
0.0
 11
61.4811
 21
63.7053
 31
0.0
  0
LINE
  8
0
 62
     0
 10
61.4811
 20
63.7053
 30
0.0
 11
61.4811
 21
64.7044
 31
0.0
  0
LINE
  8
0
 62
     0
 10
61.4811
 20
64.7044
 30
0.0
 11
47.4818
 21
64.7044
 31
0.0
  0
LINE
  8
0
 62
     0
 10
66.5318
 20
64.7044
 30
0.0
 11
66.5318
 21
63.7053
 31
0.0
  0
LINE
  8
0
 62
     0
 10
66.5318
 20
63.7053
 30
0.0
 11
65.7324
 21
63.7053
 31
0.0
  0
LINE
  8
0
 62
     0
 10
65.7324
 20
63.7053
 30
0.0
 11
65.7324
 21
60.6048
 31
0.0
  0
LINE
  8
0
 62
     0
 10
65.7324
 20
60.6048
 30
0.0
 11
66.5318
 21
60.6048
 31
0.0
  0
LINE
  8
0
 62
     0
 10
66.5318
 20
60.6048
 30
0.0
 11
66.5318
 21
54.8047
 31
0.0
  0
LINE
  8
0
 62
     0
 10
66.5318
 20
54.8047
 30
0.0
 11
65.7324
 21
54.8047
 31
0.0
  0
LINE
  8
0
 62
     0
 10
65.7324
 20
54.8047
 30
0.0
 11
65.7324
 21
51.7052
 31
0.0
  0
LINE
  8
0
 62
     0
 10
65.7324
 20
51.7052
 30
0.0
 11
66.5318
 21
51.7052
 31
0.0
  0
LINE
  8
0
 62
     0
 10
66.5318
 20
51.7052
 30
0.0
 11
66.5318
 21
50.7047
 31
0.0
  0
LINE
  8
0
 62
     0
 10
66.5318
 20
50.7047
 30
0.0
 11
80.5311
 21
50.7047
 31
0.0
  0
LINE
  8
0
 62
     0
 10
80.5311
 20
50.7047
 30
0.0
 11
80.5311
 21
51.7052
 31
0.0
  0
LINE
  8
0
 62
     0
 10
80.5311
 20
51.7052
 30
0.0
 11
81.3319
 21
51.7052
 31
0.0
  0
LINE
  8
0
 62
     0
 10
81.3319
 20
51.7052
 30
0.0
 11
81.3319
 21
54.8047
 31
0.0
  0
LINE
  8
0
 62
     0
 10
81.3319
 20
54.8047
 30
0.0
 11
80.5311
 21
54.8047
 31
0.0
  0
LINE
  8
0
 62
     0
 10
80.5311
 20
54.8047
 30
0.0
 11
80.5311
 21
60.6048
 31
0.0
  0
LINE
  8
0
 62
     0
 10
80.5311
 20
60.6048
 30
0.0
 11
81.3319
 21
60.6048
 31
0.0
  0
LINE
  8
0
 62
     0
 10
81.3319
 20
60.6048
 30
0.0
 11
81.3319
 21
63.7053
 31
0.0
  0
LINE
  8
0
 62
     0
 10
81.3319
 20
63.7053
 30
0.0
 11
80.5311
 21
63.7053
 31
0.0
  0
LINE
  8
0
 62
     0
 10
80.5311
 20
63.7053
 30
0.0
 11
80.5311
 21
64.7044
 31
0.0
  0
LINE
  8
0
 62
     0
 10
80.5311
 20
64.7044
 30
0.0
 11
66.5318
 21
64.7044
 31
0.0
  0
LINE
  8
0
 62
     0
 10
85.5818
 20
64.7044
 30
0.0
 11
85.5818
 21
63.7053
 31
0.0
  0
LINE
  8
0
 62
     0
 10
85.5818
 20
63.7053
 30
0.0
 11
84.7824
 21
63.7053
 31
0.0
  0
LINE
  8
0
 62
     0
 10
84.7824
 20
63.7053
 30
0.0
 11
84.7824
 21
60.6048
 31
0.0
  0
LINE
  8
0
 62
     0
 10
84.7824
 20
60.6048
 30
0.0
 11
85.5818
 21
60.6048
 31
0.0
  0
LINE
  8
0
 62
     0
 10
85.5818
 20
60.6048
 30
0.0
 11
85.5818
 21
54.8047
 31
0.0
  0
LINE
  8
0
 62
     0
 10
85.5818
 20
54.8047
 30
0.0
 11
84.7824
 21
54.8047
 31
0.0
  0
LINE
  8
0
 62
     0
 10
84.7824
 20
54.8047
 30
0.0
 11
84.7824
 21
51.7052
 31
0.0
  0
LINE
  8
0
 62
     0
 10
84.7824
 20
51.7052
 30
0.0
 11
85.5818
 21
51.7052
 31
0.0
  0
LINE
  8
0
 62
     0
 10
85.5818
 20
51.7052
 30
0.0
 11
85.5818
 21
50.7047
 31
0.0
  0
LINE
  8
0
 62
     0
 10
85.5818
 20
50.7047
 30
0.0
 11
99.5811
 21
50.7047
 31
0.0
  0
LINE
  8
0
 62
     0
 10
99.5811
 20
50.7047
 30
0.0
 11
99.5811
 21
51.7052
 31
0.0
  0
LINE
  8
0
 62
     0
 10
99.5811
 20
51.7052
 30
0.0
 11
100.382
 21
51.7052
 31
0.0
  0
LINE
  8
0
 62
     0
 10
100.382
 20
51.7052
 30
0.0
 11
100.382
 21
54.8047
 31
0.0
  0
LINE
  8
0
 62
     0
 10
100.382
 20
54.8047
 30
0.0
 11
99.5811
 21
54.8047
 31
0.0
  0
LINE
  8
0
 62
     0
 10
99.5811
 20
54.8047
 30
0.0
 11
99.5811
 21
60.6048
 31
0.0
  0
LINE
  8
0
 62
     0
 10
99.5811
 20
60.6048
 30
0.0
 11
100.382
 21
60.6048
 31
0.0
  0
LINE
  8
0
 62
     0
 10
100.382
 20
60.6048
 30
0.0
 11
100.382
 21
63.7053
 31
0.0
  0
LINE
  8
0
 62
     0
 10
100.382
 20
63.7053
 30
0.0
 11
99.5811
 21
63.7053
 31
0.0
  0
LINE
  8
0
 62
     0
 10
99.5811
 20
63.7053
 30
0.0
 11
99.5811
 21
64.7044
 31
0.0
  0
LINE
  8
0
 62
     0
 10
99.5811
 20
64.7044
 30
0.0
 11
85.5818
 21
64.7044
 31
0.0
  0
LINE
  8
0
 62
     0
 10
104.632
 20
64.7044
 30
0.0
 11
104.632
 21
63.7053
 31
0.0
  0
LINE
  8
0
 62
     0
 10
104.632
 20
63.7053
 30
0.0
 11
103.832
 21
63.7053
 31
0.0
  0
LINE
  8
0
 62
     0
 10
103.832
 20
63.7053
 30
0.0
 11
103.832
 21
60.6048
 31
0.0
  0
LINE
  8
0
 62
     0
 10
103.832
 20
60.6048
 30
0.0
 11
104.632
 21
60.6048
 31
0.0
  0
LINE
  8
0
 62
     0
 10
104.632
 20
60.6048
 30
0.0
 11
104.632
 21
54.8047
 31
0.0
  0
LINE
  8
0
 62
     0
 10
104.632
 20
54.8047
 30
0.0
 11
103.832
 21
54.8047
 31
0.0
  0
LINE
  8
0
 62
     0
 10
103.832
 20
54.8047
 30
0.0
 11
103.832
 21
51.7052
 31
0.0
  0
LINE
  8
0
 62
     0
 10
103.832
 20
51.7052
 30
0.0
 11
104.632
 21
51.7052
 31
0.0
  0
LINE
  8
0
 62
     0
 10
104.632
 20
51.7052
 30
0.0
 11
104.632
 21
50.7047
 31
0.0
  0
LINE
  8
0
 62
     0
 10
104.632
 20
50.7047
 30
0.0
 11
118.631
 21
50.7047
 31
0.0
  0
LINE
  8
0
 62
     0
 10
118.631
 20
50.7047
 30
0.0
 11
118.631
 21
51.7052
 31
0.0
  0
LINE
  8
0
 62
     0
 10
118.631
 20
51.7052
 30
0.0
 11
119.432
 21
51.7052
 31
0.0
  0
LINE
  8
0
 62
     0
 10
119.432
 20
51.7052
 30
0.0
 11
119.432
 21
54.8047
 31
0.0
  0
LINE
  8
0
 62
     0
 10
119.432
 20
54.8047
 30
0.0
 11
118.631
 21
54.8047
 31
0.0
  0
LINE
  8
0
 62
     0
 10
118.631
 20
54.8047
 30
0.0
 11
118.631
 21
60.6048
 31
0.0
  0
LINE
  8
0
 62
     0
 10
118.631
 20
60.6048
 30
0.0
 11
119.432
 21
60.6048
 31
0.0
  0
LINE
  8
0
 62
     0
 10
119.432
 20
60.6048
 30
0.0
 11
119.432
 21
63.7053
 31
0.0
  0
LINE
  8
0
 62
     0
 10
119.432
 20
63.7053
 30
0.0
 11
118.631
 21
63.7053
 31
0.0
  0
LINE
  8
0
 62
     0
 10
118.631
 20
63.7053
 30
0.0
 11
118.631
 21
64.7044
 31
0.0
  0
LINE
  8
0
 62
     0
 10
118.631
 20
64.7044
 30
0.0
 11
104.632
 21
64.7044
 31
0.0
  0
LINE
  8
0
 62
     0
 10
123.68
 20
64.7044
 30
0.0
 11
123.68
 21
63.7053
 31
0.0
  0
LINE
  8
0
 62
     0
 10
123.68
 20
63.7053
 30
0.0
 11
122.882
 21
63.7053
 31
0.0
  0
LINE
  8
0
 62
     0
 10
122.882
 20
63.7053
 30
0.0
 11
122.882
 21
60.6048
 31
0.0
  0
LINE
  8
0
 62
     0
 10
122.882
 20
60.6048
 30
0.0
 11
123.68
 21
60.6048
 31
0.0
  0
LINE
  8
0
 62
     0
 10
123.68
 20
60.6048
 30
0.0
 11
123.68
 21
54.8047
 31
0.0
  0
LINE
  8
0
 62
     0
 10
123.68
 20
54.8047
 30
0.0
 11
122.882
 21
54.8047
 31
0.0
  0
LINE
  8
0
 62
     0
 10
122.882
 20
54.8047
 30
0.0
 11
122.882
 21
51.7052
 31
0.0
  0
LINE
  8
0
 62
     0
 10
122.882
 20
51.7052
 30
0.0
 11
123.68
 21
51.7052
 31
0.0
  0
LINE
  8
0
 62
     0
 10
123.68
 20
51.7052
 30
0.0
 11
123.68
 21
50.7047
 31
0.0
  0
LINE
  8
0
 62
     0
 10
123.68
 20
50.7047
 30
0.0
 11
137.681
 21
50.7047
 31
0.0
  0
LINE
  8
0
 62
     0
 10
137.681
 20
50.7047
 30
0.0
 11
137.681
 21
51.7052
 31
0.0
  0
LINE
  8
0
 62
     0
 10
137.681
 20
51.7052
 30
0.0
 11
138.482
 21
51.7052
 31
0.0
  0
LINE
  8
0
 62
     0
 10
138.482
 20
51.7052
 30
0.0
 11
138.482
 21
54.8047
 31
0.0
  0
LINE
  8
0
 62
     0
 10
138.482
 20
54.8047
 30
0.0
 11
137.681
 21
54.8047
 31
0.0
  0
LINE
  8
0
 62
     0
 10
137.681
 20
54.8047
 30
0.0
 11
137.681
 21
60.6048
 31
0.0
  0
LINE
  8
0
 62
     0
 10
137.681
 20
60.6048
 30
0.0
 11
138.482
 21
60.6048
 31
0.0
  0
LINE
  8
0
 62
     0
 10
138.482
 20
60.6048
 30
0.0
 11
138.482
 21
63.7053
 31
0.0
  0
LINE
  8
0
 62
     0
 10
138.482
 20
63.7053
 30
0.0
 11
137.681
 21
63.7053
 31
0.0
  0
LINE
  8
0
 62
     0
 10
137.681
 20
63.7053
 30
0.0
 11
137.681
 21
64.7044
 31
0.0
  0
LINE
  8
0
 62
     0
 10
137.681
 20
64.7044
 30
0.0
 11
123.68
 21
64.7044
 31
0.0
  0
LINE
  8
0
 62
     0
 10
4.6192
 20
83.7544
 30
0.0
 11
4.6192
 21
82.7553
 31
0.0
  0
LINE
  8
0
 62
     0
 10
4.6192
 20
82.7553
 30
0.0
 11
3.81854
 21
82.7553
 31
0.0
  0
LINE
  8
0
 62
     0
 10
3.81854
 20
82.7553
 30
0.0
 11
3.81854
 21
79.6548
 31
0.0
  0
LINE
  8
0
 62
     0
 10
3.81854
 20
79.6548
 30
0.0
 11
4.6192
 21
79.6548
 31
0.0
  0
LINE
  8
0
 62
     0
 10
4.6192
 20
79.6548
 30
0.0
 11
4.6192
 21
73.8547
 31
0.0
  0
LINE
  8
0
 62
     0
 10
4.6192
 20
73.8547
 30
0.0
 11
3.81854
 21
73.8547
 31
0.0
  0
LINE
  8
0
 62
     0
 10
3.81854
 20
73.8547
 30
0.0
 11
3.81854
 21
70.7552
 31
0.0
  0
LINE
  8
0
 62
     0
 10
3.81854
 20
70.7552
 30
0.0
 11
4.6192
 21
70.7552
 31
0.0
  0
LINE
  8
0
 62
     0
 10
4.6192
 20
70.7552
 30
0.0
 11
4.6192
 21
69.7547
 31
0.0
  0
LINE
  8
0
 62
     0
 10
4.6192
 20
69.7547
 30
0.0
 11
18.6201
 21
69.7547
 31
0.0
  0
LINE
  8
0
 62
     0
 10
18.6201
 20
69.7547
 30
0.0
 11
18.6201
 21
70.7552
 31
0.0
  0
LINE
  8
0
 62
     0
 10
18.6201
 20
70.7552
 30
0.0
 11
19.4193
 21
70.7552
 31
0.0
  0
LINE
  8
0
 62
     0
 10
19.4193
 20
70.7552
 30
0.0
 11
19.4193
 21
73.8547
 31
0.0
  0
LINE
  8
0
 62
     0
 10
19.4193
 20
73.8547
 30
0.0
 11
18.6201
 21
73.8547
 31
0.0
  0
LINE
  8
0
 62
     0
 10
18.6201
 20
73.8547
 30
0.0
 11
18.6201
 21
79.6548
 31
0.0
  0
LINE
  8
0
 62
     0
 10
18.6201
 20
79.6548
 30
0.0
 11
19.4193
 21
79.6548
 31
0.0
  0
LINE
  8
0
 62
     0
 10
19.4193
 20
79.6548
 30
0.0
 11
19.4193
 21
82.7553
 31
0.0
  0
LINE
  8
0
 62
     0
 10
19.4193
 20
82.7553
 30
0.0
 11
18.6201
 21
82.7553
 31
0.0
  0
LINE
  8
0
 62
     0
 10
18.6201
 20
82.7553
 30
0.0
 11
18.6201
 21
83.7544
 31
0.0
  0
LINE
  8
0
 62
     0
 10
18.6201
 20
83.7544
 30
0.0
 11
4.6192
 21
83.7544
 31
0.0
  0
LINE
  8
0
 62
     0
 10
23.6692
 20
83.7544
 30
0.0
 11
23.6692
 21
82.7553
 31
0.0
  0
LINE
  8
0
 62
     0
 10
23.6692
 20
82.7553
 30
0.0
 11
22.8699
 21
82.7553
 31
0.0
  0
LINE
  8
0
 62
     0
 10
22.8699
 20
82.7553
 30
0.0
 11
22.8699
 21
79.6548
 31
0.0
  0
LINE
  8
0
 62
     0
 10
22.8699
 20
79.6548
 30
0.0
 11
23.6692
 21
79.6548
 31
0.0
  0
LINE
  8
0
 62
     0
 10
23.6692
 20
79.6548
 30
0.0
 11
23.6692
 21
73.8547
 31
0.0
  0
LINE
  8
0
 62
     0
 10
23.6692
 20
73.8547
 30
0.0
 11
22.8699
 21
73.8547
 31
0.0
  0
LINE
  8
0
 62
     0
 10
22.8699
 20
73.8547
 30
0.0
 11
22.8699
 21
70.7552
 31
0.0
  0
LINE
  8
0
 62
     0
 10
22.8699
 20
70.7552
 30
0.0
 11
23.6692
 21
70.7552
 31
0.0
  0
LINE
  8
0
 62
     0
 10
23.6692
 20
70.7552
 30
0.0
 11
23.6692
 21
69.7547
 31
0.0
  0
LINE
  8
0
 62
     0
 10
23.6692
 20
69.7547
 30
0.0
 11
37.67
 21
69.7547
 31
0.0
  0
LINE
  8
0
 62
     0
 10
37.67
 20
69.7547
 30
0.0
 11
37.67
 21
70.7552
 31
0.0
  0
LINE
  8
0
 62
     0
 10
37.67
 20
70.7552
 30
0.0
 11
38.4694
 21
70.7552
 31
0.0
  0
LINE
  8
0
 62
     0
 10
38.4694
 20
70.7552
 30
0.0
 11
38.4694
 21
73.8547
 31
0.0
  0
LINE
  8
0
 62
     0
 10
38.4694
 20
73.8547
 30
0.0
 11
37.67
 21
73.8547
 31
0.0
  0
LINE
  8
0
 62
     0
 10
37.67
 20
73.8547
 30
0.0
 11
37.67
 21
79.6548
 31
0.0
  0
LINE
  8
0
 62
     0
 10
37.67
 20
79.6548
 30
0.0
 11
38.4694
 21
79.6548
 31
0.0
  0
LINE
  8
0
 62
     0
 10
38.4694
 20
79.6548
 30
0.0
 11
38.4694
 21
82.7553
 31
0.0
  0
LINE
  8
0
 62
     0
 10
38.4694
 20
82.7553
 30
0.0
 11
37.67
 21
82.7553
 31
0.0
  0
LINE
  8
0
 62
     0
 10
37.67
 20
82.7553
 30
0.0
 11
37.67
 21
83.7544
 31
0.0
  0
LINE
  8
0
 62
     0
 10
37.67
 20
83.7544
 30
0.0
 11
23.6692
 21
83.7544
 31
0.0
  0
LINE
  8
0
 62
     0
 10
42.7193
 20
83.7544
 30
0.0
 11
42.7193
 21
82.7553
 31
0.0
  0
LINE
  8
0
 62
     0
 10
42.7193
 20
82.7553
 30
0.0
 11
41.9199
 21
82.7553
 31
0.0
  0
LINE
  8
0
 62
     0
 10
41.9199
 20
82.7553
 30
0.0
 11
41.9199
 21
79.6548
 31
0.0
  0
LINE
  8
0
 62
     0
 10
41.9199
 20
79.6548
 30
0.0
 11
42.7193
 21
79.6548
 31
0.0
  0
LINE
  8
0
 62
     0
 10
42.7193
 20
79.6548
 30
0.0
 11
42.7193
 21
73.8547
 31
0.0
  0
LINE
  8
0
 62
     0
 10
42.7193
 20
73.8547
 30
0.0
 11
41.9199
 21
73.8547
 31
0.0
  0
LINE
  8
0
 62
     0
 10
41.9199
 20
73.8547
 30
0.0
 11
41.9199
 21
70.7552
 31
0.0
  0
LINE
  8
0
 62
     0
 10
41.9199
 20
70.7552
 30
0.0
 11
42.7193
 21
70.7552
 31
0.0
  0
LINE
  8
0
 62
     0
 10
42.7193
 20
70.7552
 30
0.0
 11
42.7193
 21
69.7547
 31
0.0
  0
LINE
  8
0
 62
     0
 10
42.7193
 20
69.7547
 30
0.0
 11
56.72
 21
69.7547
 31
0.0
  0
LINE
  8
0
 62
     0
 10
56.72
 20
69.7547
 30
0.0
 11
56.72
 21
70.7552
 31
0.0
  0
LINE
  8
0
 62
     0
 10
56.72
 20
70.7552
 30
0.0
 11
57.5194
 21
70.7552
 31
0.0
  0
LINE
  8
0
 62
     0
 10
57.5194
 20
70.7552
 30
0.0
 11
57.5194
 21
73.8547
 31
0.0
  0
LINE
  8
0
 62
     0
 10
57.5194
 20
73.8547
 30
0.0
 11
56.72
 21
73.8547
 31
0.0
  0
LINE
  8
0
 62
     0
 10
56.72
 20
73.8547
 30
0.0
 11
56.72
 21
79.6548
 31
0.0
  0
LINE
  8
0
 62
     0
 10
56.72
 20
79.6548
 30
0.0
 11
57.5194
 21
79.6548
 31
0.0
  0
LINE
  8
0
 62
     0
 10
57.5194
 20
79.6548
 30
0.0
 11
57.5194
 21
82.7553
 31
0.0
  0
LINE
  8
0
 62
     0
 10
57.5194
 20
82.7553
 30
0.0
 11
56.72
 21
82.7553
 31
0.0
  0
LINE
  8
0
 62
     0
 10
56.72
 20
82.7553
 30
0.0
 11
56.72
 21
83.7544
 31
0.0
  0
LINE
  8
0
 62
     0
 10
56.72
 20
83.7544
 30
0.0
 11
42.7193
 21
83.7544
 31
0.0
  0
LINE
  8
0
 62
     0
 10
61.7693
 20
83.7544
 30
0.0
 11
61.7693
 21
82.7553
 31
0.0
  0
LINE
  8
0
 62
     0
 10
61.7693
 20
82.7553
 30
0.0
 11
60.9699
 21
82.7553
 31
0.0
  0
LINE
  8
0
 62
     0
 10
60.9699
 20
82.7553
 30
0.0
 11
60.9699
 21
79.6548
 31
0.0
  0
LINE
  8
0
 62
     0
 10
60.9699
 20
79.6548
 30
0.0
 11
61.7693
 21
79.6548
 31
0.0
  0
LINE
  8
0
 62
     0
 10
61.7693
 20
79.6548
 30
0.0
 11
61.7693
 21
73.8547
 31
0.0
  0
LINE
  8
0
 62
     0
 10
61.7693
 20
73.8547
 30
0.0
 11
60.9699
 21
73.8547
 31
0.0
  0
LINE
  8
0
 62
     0
 10
60.9699
 20
73.8547
 30
0.0
 11
60.9699
 21
70.7552
 31
0.0
  0
LINE
  8
0
 62
     0
 10
60.9699
 20
70.7552
 30
0.0
 11
61.7693
 21
70.7552
 31
0.0
  0
LINE
  8
0
 62
     0
 10
61.7693
 20
70.7552
 30
0.0
 11
61.7693
 21
69.7547
 31
0.0
  0
LINE
  8
0
 62
     0
 10
61.7693
 20
69.7547
 30
0.0
 11
75.77
 21
69.7547
 31
0.0
  0
LINE
  8
0
 62
     0
 10
75.77
 20
69.7547
 30
0.0
 11
75.77
 21
70.7552
 31
0.0
  0
LINE
  8
0
 62
     0
 10
75.77
 20
70.7552
 30
0.0
 11
76.5694
 21
70.7552
 31
0.0
  0
LINE
  8
0
 62
     0
 10
76.5694
 20
70.7552
 30
0.0
 11
76.5694
 21
73.8547
 31
0.0
  0
LINE
  8
0
 62
     0
 10
76.5694
 20
73.8547
 30
0.0
 11
75.77
 21
73.8547
 31
0.0
  0
LINE
  8
0
 62
     0
 10
75.77
 20
73.8547
 30
0.0
 11
75.77
 21
79.6548
 31
0.0
  0
LINE
  8
0
 62
     0
 10
75.77
 20
79.6548
 30
0.0
 11
76.5694
 21
79.6548
 31
0.0
  0
LINE
  8
0
 62
     0
 10
76.5694
 20
79.6548
 30
0.0
 11
76.5694
 21
82.7553
 31
0.0
  0
LINE
  8
0
 62
     0
 10
76.5694
 20
82.7553
 30
0.0
 11
75.77
 21
82.7553
 31
0.0
  0
LINE
  8
0
 62
     0
 10
75.77
 20
82.7553
 30
0.0
 11
75.77
 21
83.7544
 31
0.0
  0
LINE
  8
0
 62
     0
 10
75.77
 20
83.7544
 30
0.0
 11
61.7693
 21
83.7544
 31
0.0
  0
LINE
  8
0
 62
     0
 10
80.8193
 20
83.7544
 30
0.0
 11
80.8193
 21
82.7553
 31
0.0
  0
LINE
  8
0
 62
     0
 10
80.8193
 20
82.7553
 30
0.0
 11
80.0199
 21
82.7553
 31
0.0
  0
LINE
  8
0
 62
     0
 10
80.0199
 20
82.7553
 30
0.0
 11
80.0199
 21
79.6548
 31
0.0
  0
LINE
  8
0
 62
     0
 10
80.0199
 20
79.6548
 30
0.0
 11
80.8193
 21
79.6548
 31
0.0
  0
LINE
  8
0
 62
     0
 10
80.8193
 20
79.6548
 30
0.0
 11
80.8193
 21
73.8547
 31
0.0
  0
LINE
  8
0
 62
     0
 10
80.8193
 20
73.8547
 30
0.0
 11
80.0199
 21
73.8547
 31
0.0
  0
LINE
  8
0
 62
     0
 10
80.0199
 20
73.8547
 30
0.0
 11
80.0199
 21
70.7552
 31
0.0
  0
LINE
  8
0
 62
     0
 10
80.0199
 20
70.7552
 30
0.0
 11
80.8193
 21
70.7552
 31
0.0
  0
LINE
  8
0
 62
     0
 10
80.8193
 20
70.7552
 30
0.0
 11
80.8193
 21
69.7547
 31
0.0
  0
LINE
  8
0
 62
     0
 10
80.8193
 20
69.7547
 30
0.0
 11
94.82
 21
69.7547
 31
0.0
  0
LINE
  8
0
 62
     0
 10
94.82
 20
69.7547
 30
0.0
 11
94.82
 21
70.7552
 31
0.0
  0
LINE
  8
0
 62
     0
 10
94.82
 20
70.7552
 30
0.0
 11
95.6194
 21
70.7552
 31
0.0
  0
LINE
  8
0
 62
     0
 10
95.6194
 20
70.7552
 30
0.0
 11
95.6194
 21
73.8547
 31
0.0
  0
LINE
  8
0
 62
     0
 10
95.6194
 20
73.8547
 30
0.0
 11
94.82
 21
73.8547
 31
0.0
  0
LINE
  8
0
 62
     0
 10
94.82
 20
73.8547
 30
0.0
 11
94.82
 21
79.6548
 31
0.0
  0
LINE
  8
0
 62
     0
 10
94.82
 20
79.6548
 30
0.0
 11
95.6194
 21
79.6548
 31
0.0
  0
LINE
  8
0
 62
     0
 10
95.6194
 20
79.6548
 30
0.0
 11
95.6194
 21
82.7553
 31
0.0
  0
LINE
  8
0
 62
     0
 10
95.6194
 20
82.7553
 30
0.0
 11
94.82
 21
82.7553
 31
0.0
  0
LINE
  8
0
 62
     0
 10
94.82
 20
82.7553
 30
0.0
 11
94.82
 21
83.7544
 31
0.0
  0
LINE
  8
0
 62
     0
 10
94.82
 20
83.7544
 30
0.0
 11
80.8193
 21
83.7544
 31
0.0
  0
LINE
  8
0
 62
     0
 10
99.8693
 20
83.7544
 30
0.0
 11
99.8693
 21
82.7553
 31
0.0
  0
LINE
  8
0
 62
     0
 10
99.8693
 20
82.7553
 30
0.0
 11
99.0699
 21
82.7553
 31
0.0
  0
LINE
  8
0
 62
     0
 10
99.0699
 20
82.7553
 30
0.0
 11
99.0699
 21
79.6548
 31
0.0
  0
LINE
  8
0
 62
     0
 10
99.0699
 20
79.6548
 30
0.0
 11
99.8693
 21
79.6548
 31
0.0
  0
LINE
  8
0
 62
     0
 10
99.8693
 20
79.6548
 30
0.0
 11
99.8693
 21
73.8547
 31
0.0
  0
LINE
  8
0
 62
     0
 10
99.8693
 20
73.8547
 30
0.0
 11
99.0699
 21
73.8547
 31
0.0
  0
LINE
  8
0
 62
     0
 10
99.0699
 20
73.8547
 30
0.0
 11
99.0699
 21
70.7552
 31
0.0
  0
LINE
  8
0
 62
     0
 10
99.0699
 20
70.7552
 30
0.0
 11
99.8693
 21
70.7552
 31
0.0
  0
LINE
  8
0
 62
     0
 10
99.8693
 20
70.7552
 30
0.0
 11
99.8693
 21
69.7547
 31
0.0
  0
LINE
  8
0
 62
     0
 10
99.8693
 20
69.7547
 30
0.0
 11
113.869
 21
69.7547
 31
0.0
  0
LINE
  8
0
 62
     0
 10
113.869
 20
69.7547
 30
0.0
 11
113.869
 21
70.7552
 31
0.0
  0
LINE
  8
0
 62
     0
 10
113.869
 20
70.7552
 30
0.0
 11
114.669
 21
70.7552
 31
0.0
  0
LINE
  8
0
 62
     0
 10
114.669
 20
70.7552
 30
0.0
 11
114.669
 21
73.8547
 31
0.0
  0
LINE
  8
0
 62
     0
 10
114.669
 20
73.8547
 30
0.0
 11
113.869
 21
73.8547
 31
0.0
  0
LINE
  8
0
 62
     0
 10
113.869
 20
73.8547
 30
0.0
 11
113.869
 21
79.6548
 31
0.0
  0
LINE
  8
0
 62
     0
 10
113.869
 20
79.6548
 30
0.0
 11
114.669
 21
79.6548
 31
0.0
  0
LINE
  8
0
 62
     0
 10
114.669
 20
79.6548
 30
0.0
 11
114.669
 21
82.7553
 31
0.0
  0
LINE
  8
0
 62
     0
 10
114.669
 20
82.7553
 30
0.0
 11
113.869
 21
82.7553
 31
0.0
  0
LINE
  8
0
 62
     0
 10
113.869
 20
82.7553
 30
0.0
 11
113.869
 21
83.7544
 31
0.0
  0
LINE
  8
0
 62
     0
 10
113.869
 20
83.7544
 30
0.0
 11
99.8693
 21
83.7544
 31
0.0
  0
LINE
  8
0
 62
     0
 10
118.919
 20
83.7544
 30
0.0
 11
118.919
 21
82.7553
 31
0.0
  0
LINE
  8
0
 62
     0
 10
118.919
 20
82.7553
 30
0.0
 11
118.118
 21
82.7553
 31
0.0
  0
LINE
  8
0
 62
     0
 10
118.118
 20
82.7553
 30
0.0
 11
118.118
 21
79.6548
 31
0.0
  0
LINE
  8
0
 62
     0
 10
118.118
 20
79.6548
 30
0.0
 11
118.919
 21
79.6548
 31
0.0
  0
LINE
  8
0
 62
     0
 10
118.919
 20
79.6548
 30
0.0
 11
118.919
 21
73.8547
 31
0.0
  0
LINE
  8
0
 62
     0
 10
118.919
 20
73.8547
 30
0.0
 11
118.118
 21
73.8547
 31
0.0
  0
LINE
  8
0
 62
     0
 10
118.118
 20
73.8547
 30
0.0
 11
118.118
 21
70.7552
 31
0.0
  0
LINE
  8
0
 62
     0
 10
118.118
 20
70.7552
 30
0.0
 11
118.919
 21
70.7552
 31
0.0
  0
LINE
  8
0
 62
     0
 10
118.919
 20
70.7552
 30
0.0
 11
118.919
 21
69.7547
 31
0.0
  0
LINE
  8
0
 62
     0
 10
118.919
 20
69.7547
 30
0.0
 11
132.92
 21
69.7547
 31
0.0
  0
LINE
  8
0
 62
     0
 10
132.92
 20
69.7547
 30
0.0
 11
132.92
 21
70.7552
 31
0.0
  0
LINE
  8
0
 62
     0
 10
132.92
 20
70.7552
 30
0.0
 11
133.719
 21
70.7552
 31
0.0
  0
LINE
  8
0
 62
     0
 10
133.719
 20
70.7552
 30
0.0
 11
133.719
 21
73.8547
 31
0.0
  0
LINE
  8
0
 62
     0
 10
133.719
 20
73.8547
 30
0.0
 11
132.92
 21
73.8547
 31
0.0
  0
LINE
  8
0
 62
     0
 10
132.92
 20
73.8547
 30
0.0
 11
132.92
 21
79.6548
 31
0.0
  0
LINE
  8
0
 62
     0
 10
132.92
 20
79.6548
 30
0.0
 11
133.719
 21
79.6548
 31
0.0
  0
LINE
  8
0
 62
     0
 10
133.719
 20
79.6548
 30
0.0
 11
133.719
 21
82.7553
 31
0.0
  0
LINE
  8
0
 62
     0
 10
133.719
 20
82.7553
 30
0.0
 11
132.92
 21
82.7553
 31
0.0
  0
LINE
  8
0
 62
     0
 10
132.92
 20
82.7553
 30
0.0
 11
132.92
 21
83.7544
 31
0.0
  0
LINE
  8
0
 62
     0
 10
132.92
 20
83.7544
 30
0.0
 11
118.919
 21
83.7544
 31
0.0
  0
LINE
  8
0
 62
     0
 10
137.969
 20
83.7544
 30
0.0
 11
137.969
 21
82.7553
 31
0.0
  0
LINE
  8
0
 62
     0
 10
137.969
 20
82.7553
 30
0.0
 11
137.17
 21
82.7553
 31
0.0
  0
LINE
  8
0
 62
     0
 10
137.17
 20
82.7553
 30
0.0
 11
137.17
 21
79.6548
 31
0.0
  0
LINE
  8
0
 62
     0
 10
137.17
 20
79.6548
 30
0.0
 11
137.969
 21
79.6548
 31
0.0
  0
LINE
  8
0
 62
     0
 10
137.969
 20
79.6548
 30
0.0
 11
137.969
 21
73.8547
 31
0.0
  0
LINE
  8
0
 62
     0
 10
137.969
 20
73.8547
 30
0.0
 11
137.17
 21
73.8547
 31
0.0
  0
LINE
  8
0
 62
     0
 10
137.17
 20
73.8547
 30
0.0
 11
137.17
 21
70.7552
 31
0.0
  0
LINE
  8
0
 62
     0
 10
137.17
 20
70.7552
 30
0.0
 11
137.969
 21
70.7552
 31
0.0
  0
LINE
  8
0
 62
     0
 10
137.969
 20
70.7552
 30
0.0
 11
137.969
 21
69.7547
 31
0.0
  0
LINE
  8
0
 62
     0
 10
137.969
 20
69.7547
 30
0.0
 11
151.97
 21
69.7547
 31
0.0
  0
LINE
  8
0
 62
     0
 10
151.97
 20
69.7547
 30
0.0
 11
151.97
 21
70.7552
 31
0.0
  0
LINE
  8
0
 62
     0
 10
151.97
 20
70.7552
 30
0.0
 11
152.769
 21
70.7552
 31
0.0
  0
LINE
  8
0
 62
     0
 10
152.769
 20
70.7552
 30
0.0
 11
152.769
 21
73.8547
 31
0.0
  0
LINE
  8
0
 62
     0
 10
152.769
 20
73.8547
 30
0.0
 11
151.97
 21
73.8547
 31
0.0
  0
LINE
  8
0
 62
     0
 10
151.97
 20
73.8547
 30
0.0
 11
151.97
 21
79.6548
 31
0.0
  0
LINE
  8
0
 62
     0
 10
151.97
 20
79.6548
 30
0.0
 11
152.769
 21
79.6548
 31
0.0
  0
LINE
  8
0
 62
     0
 10
152.769
 20
79.6548
 30
0.0
 11
152.769
 21
82.7553
 31
0.0
  0
LINE
  8
0
 62
     0
 10
152.769
 20
82.7553
 30
0.0
 11
151.97
 21
82.7553
 31
0.0
  0
LINE
  8
0
 62
     0
 10
151.97
 20
82.7553
 30
0.0
 11
151.97
 21
83.7544
 31
0.0
  0
LINE
  8
0
 62
     0
 10
151.97
 20
83.7544
 30
0.0
 11
137.969
 21
83.7544
 31
0.0
  0
LINE
  8
0
 62
     0
 10
161.782
 20
83.7544
 30
0.0
 11
161.782
 21
82.7553
 31
0.0
  0
LINE
  8
0
 62
     0
 10
161.782
 20
82.7553
 30
0.0
 11
160.982
 21
82.7553
 31
0.0
  0
LINE
  8
0
 62
     0
 10
160.982
 20
82.7553
 30
0.0
 11
160.982
 21
79.6548
 31
0.0
  0
LINE
  8
0
 62
     0
 10
160.982
 20
79.6548
 30
0.0
 11
161.782
 21
79.6548
 31
0.0
  0
LINE
  8
0
 62
     0
 10
161.782
 20
79.6548
 30
0.0
 11
161.782
 21
73.8547
 31
0.0
  0
LINE
  8
0
 62
     0
 10
161.782
 20
73.8547
 30
0.0
 11
160.982
 21
73.8547
 31
0.0
  0
LINE
  8
0
 62
     0
 10
160.982
 20
73.8547
 30
0.0
 11
160.982
 21
70.7552
 31
0.0
  0
LINE
  8
0
 62
     0
 10
160.982
 20
70.7552
 30
0.0
 11
161.782
 21
70.7552
 31
0.0
  0
LINE
  8
0
 62
     0
 10
161.782
 20
70.7552
 30
0.0
 11
161.782
 21
69.7547
 31
0.0
  0
LINE
  8
0
 62
     0
 10
161.782
 20
69.7547
 30
0.0
 11
175.781
 21
69.7547
 31
0.0
  0
LINE
  8
0
 62
     0
 10
175.781
 20
69.7547
 30
0.0
 11
175.781
 21
70.7552
 31
0.0
  0
LINE
  8
0
 62
     0
 10
175.781
 20
70.7552
 30
0.0
 11
176.582
 21
70.7552
 31
0.0
  0
LINE
  8
0
 62
     0
 10
176.582
 20
70.7552
 30
0.0
 11
176.582
 21
73.8547
 31
0.0
  0
LINE
  8
0
 62
     0
 10
176.582
 20
73.8547
 30
0.0
 11
175.781
 21
73.8547
 31
0.0
  0
LINE
  8
0
 62
     0
 10
175.781
 20
73.8547
 30
0.0
 11
175.781
 21
79.6548
 31
0.0
  0
LINE
  8
0
 62
     0
 10
175.781
 20
79.6548
 30
0.0
 11
176.582
 21
79.6548
 31
0.0
  0
LINE
  8
0
 62
     0
 10
176.582
 20
79.6548
 30
0.0
 11
176.582
 21
82.7553
 31
0.0
  0
LINE
  8
0
 62
     0
 10
176.582
 20
82.7553
 30
0.0
 11
175.781
 21
82.7553
 31
0.0
  0
LINE
  8
0
 62
     0
 10
175.781
 20
82.7553
 30
0.0
 11
175.781
 21
83.7544
 31
0.0
  0
LINE
  8
0
 62
     0
 10
175.781
 20
83.7544
 30
0.0
 11
161.782
 21
83.7544
 31
0.0
  0
LINE
  8
0
 62
     0
 10
195.119
 20
83.7544
 30
0.0
 11
195.119
 21
82.7553
 31
0.0
  0
LINE
  8
0
 62
     0
 10
195.119
 20
82.7553
 30
0.0
 11
194.32
 21
82.7553
 31
0.0
  0
LINE
  8
0
 62
     0
 10
194.32
 20
82.7553
 30
0.0
 11
194.32
 21
79.6548
 31
0.0
  0
LINE
  8
0
 62
     0
 10
194.32
 20
79.6548
 30
0.0
 11
195.119
 21
79.6548
 31
0.0
  0
LINE
  8
0
 62
     0
 10
195.119
 20
79.6548
 30
0.0
 11
195.119
 21
73.8547
 31
0.0
  0
LINE
  8
0
 62
     0
 10
195.119
 20
73.8547
 30
0.0
 11
194.32
 21
73.8547
 31
0.0
  0
LINE
  8
0
 62
     0
 10
194.32
 20
73.8547
 30
0.0
 11
194.32
 21
70.7552
 31
0.0
  0
LINE
  8
0
 62
     0
 10
194.32
 20
70.7552
 30
0.0
 11
195.119
 21
70.7552
 31
0.0
  0
LINE
  8
0
 62
     0
 10
195.119
 20
70.7552
 30
0.0
 11
195.119
 21
69.7547
 31
0.0
  0
LINE
  8
0
 62
     0
 10
195.119
 20
69.7547
 30
0.0
 11
209.12
 21
69.7547
 31
0.0
  0
LINE
  8
0
 62
     0
 10
209.12
 20
69.7547
 30
0.0
 11
209.12
 21
70.7552
 31
0.0
  0
LINE
  8
0
 62
     0
 10
209.12
 20
70.7552
 30
0.0
 11
209.919
 21
70.7552
 31
0.0
  0
LINE
  8
0
 62
     0
 10
209.919
 20
70.7552
 30
0.0
 11
209.919
 21
73.8547
 31
0.0
  0
LINE
  8
0
 62
     0
 10
209.919
 20
73.8547
 30
0.0
 11
209.12
 21
73.8547
 31
0.0
  0
LINE
  8
0
 62
     0
 10
209.12
 20
73.8547
 30
0.0
 11
209.12
 21
79.6548
 31
0.0
  0
LINE
  8
0
 62
     0
 10
209.12
 20
79.6548
 30
0.0
 11
209.919
 21
79.6548
 31
0.0
  0
LINE
  8
0
 62
     0
 10
209.919
 20
79.6548
 30
0.0
 11
209.919
 21
82.7553
 31
0.0
  0
LINE
  8
0
 62
     0
 10
209.919
 20
82.7553
 30
0.0
 11
209.12
 21
82.7553
 31
0.0
  0
LINE
  8
0
 62
     0
 10
209.12
 20
82.7553
 30
0.0
 11
209.12
 21
83.7544
 31
0.0
  0
LINE
  8
0
 62
     0
 10
209.12
 20
83.7544
 30
0.0
 11
195.119
 21
83.7544
 31
0.0
  0
LINE
  8
0
 62
     0
 10
214.169
 20
83.7544
 30
0.0
 11
214.169
 21
82.7553
 31
0.0
  0
LINE
  8
0
 62
     0
 10
214.169
 20
82.7553
 30
0.0
 11
213.37
 21
82.7553
 31
0.0
  0
LINE
  8
0
 62
     0
 10
213.37
 20
82.7553
 30
0.0
 11
213.37
 21
79.6548
 31
0.0
  0
LINE
  8
0
 62
     0
 10
213.37
 20
79.6548
 30
0.0
 11
214.169
 21
79.6548
 31
0.0
  0
LINE
  8
0
 62
     0
 10
214.169
 20
79.6548
 30
0.0
 11
214.169
 21
73.8547
 31
0.0
  0
LINE
  8
0
 62
     0
 10
214.169
 20
73.8547
 30
0.0
 11
213.37
 21
73.8547
 31
0.0
  0
LINE
  8
0
 62
     0
 10
213.37
 20
73.8547
 30
0.0
 11
213.37
 21
70.7552
 31
0.0
  0
LINE
  8
0
 62
     0
 10
213.37
 20
70.7552
 30
0.0
 11
214.169
 21
70.7552
 31
0.0
  0
LINE
  8
0
 62
     0
 10
214.169
 20
70.7552
 30
0.0
 11
214.169
 21
69.7547
 31
0.0
  0
LINE
  8
0
 62
     0
 10
214.169
 20
69.7547
 30
0.0
 11
228.17
 21
69.7547
 31
0.0
  0
LINE
  8
0
 62
     0
 10
228.17
 20
69.7547
 30
0.0
 11
228.17
 21
70.7552
 31
0.0
  0
LINE
  8
0
 62
     0
 10
228.17
 20
70.7552
 30
0.0
 11
228.969
 21
70.7552
 31
0.0
  0
LINE
  8
0
 62
     0
 10
228.969
 20
70.7552
 30
0.0
 11
228.969
 21
73.8547
 31
0.0
  0
LINE
  8
0
 62
     0
 10
228.969
 20
73.8547
 30
0.0
 11
228.17
 21
73.8547
 31
0.0
  0
LINE
  8
0
 62
     0
 10
228.17
 20
73.8547
 30
0.0
 11
228.17
 21
79.6548
 31
0.0
  0
LINE
  8
0
 62
     0
 10
228.17
 20
79.6548
 30
0.0
 11
228.969
 21
79.6548
 31
0.0
  0
LINE
  8
0
 62
     0
 10
228.969
 20
79.6548
 30
0.0
 11
228.969
 21
82.7553
 31
0.0
  0
LINE
  8
0
 62
     0
 10
228.969
 20
82.7553
 30
0.0
 11
228.17
 21
82.7553
 31
0.0
  0
LINE
  8
0
 62
     0
 10
228.17
 20
82.7553
 30
0.0
 11
228.17
 21
83.7544
 31
0.0
  0
LINE
  8
0
 62
     0
 10
228.17
 20
83.7544
 30
0.0
 11
214.169
 21
83.7544
 31
0.0
  0
LINE
  8
0
 62
     0
 10
233.219
 20
83.7544
 30
0.0
 11
233.219
 21
82.7553
 31
0.0
  0
LINE
  8
0
 62
     0
 10
233.219
 20
82.7553
 30
0.0
 11
232.42
 21
82.7553
 31
0.0
  0
LINE
  8
0
 62
     0
 10
232.42
 20
82.7553
 30
0.0
 11
232.42
 21
79.6548
 31
0.0
  0
LINE
  8
0
 62
     0
 10
232.42
 20
79.6548
 30
0.0
 11
233.219
 21
79.6548
 31
0.0
  0
LINE
  8
0
 62
     0
 10
233.219
 20
79.6548
 30
0.0
 11
233.219
 21
73.8547
 31
0.0
  0
LINE
  8
0
 62
     0
 10
233.219
 20
73.8547
 30
0.0
 11
232.42
 21
73.8547
 31
0.0
  0
LINE
  8
0
 62
     0
 10
232.42
 20
73.8547
 30
0.0
 11
232.42
 21
70.7552
 31
0.0
  0
LINE
  8
0
 62
     0
 10
232.42
 20
70.7552
 30
0.0
 11
233.219
 21
70.7552
 31
0.0
  0
LINE
  8
0
 62
     0
 10
233.219
 20
70.7552
 30
0.0
 11
233.219
 21
69.7547
 31
0.0
  0
LINE
  8
0
 62
     0
 10
233.219
 20
69.7547
 30
0.0
 11
247.22
 21
69.7547
 31
0.0
  0
LINE
  8
0
 62
     0
 10
247.22
 20
69.7547
 30
0.0
 11
247.22
 21
70.7552
 31
0.0
  0
LINE
  8
0
 62
     0
 10
247.22
 20
70.7552
 30
0.0
 11
248.019
 21
70.7552
 31
0.0
  0
LINE
  8
0
 62
     0
 10
248.019
 20
70.7552
 30
0.0
 11
248.019
 21
73.8547
 31
0.0
  0
LINE
  8
0
 62
     0
 10
248.019
 20
73.8547
 30
0.0
 11
247.22
 21
73.8547
 31
0.0
  0
LINE
  8
0
 62
     0
 10
247.22
 20
73.8547
 30
0.0
 11
247.22
 21
79.6548
 31
0.0
  0
LINE
  8
0
 62
     0
 10
247.22
 20
79.6548
 30
0.0
 11
248.019
 21
79.6548
 31
0.0
  0
LINE
  8
0
 62
     0
 10
248.019
 20
79.6548
 30
0.0
 11
248.019
 21
82.7553
 31
0.0
  0
LINE
  8
0
 62
     0
 10
248.019
 20
82.7553
 30
0.0
 11
247.22
 21
82.7553
 31
0.0
  0
LINE
  8
0
 62
     0
 10
247.22
 20
82.7553
 30
0.0
 11
247.22
 21
83.7544
 31
0.0
  0
LINE
  8
0
 62
     0
 10
247.22
 20
83.7544
 30
0.0
 11
233.219
 21
83.7544
 31
0.0
  0
LINE
  8
0
 62
     0
 10
157.019
 20
102.804
 30
0.0
 11
157.019
 21
101.805
 31
0.0
  0
LINE
  8
0
 62
     0
 10
157.019
 20
101.805
 30
0.0
 11
156.22
 21
101.805
 31
0.0
  0
LINE
  8
0
 62
     0
 10
156.22
 20
101.805
 30
0.0
 11
156.22
 21
98.7048
 31
0.0
  0
LINE
  8
0
 62
     0
 10
156.22
 20
98.7048
 30
0.0
 11
157.019
 21
98.7048
 31
0.0
  0
LINE
  8
0
 62
     0
 10
157.019
 20
98.7048
 30
0.0
 11
157.019
 21
98.1054
 31
0.0
  0
LINE
  8
0
 62
     0
 10
157.019
 20
98.1054
 30
0.0
 11
155.495
 21
98.1054
 31
0.0
  0
LINE
  8
0
 62
     0
 10
155.495
 20
98.1054
 30
0.0
 11
155.495
 21
101.335
 31
0.0
  0
LINE
  8
0
 62
     0
 10
155.495
 20
101.335
 30
0.0
 11
148.744
 21
101.335
 31
0.0
  0
LINE
  8
0
 62
     0
 10
148.744
 20
101.335
 30
0.0
 11
148.744
 21
98.1054
 31
0.0
  0
LINE
  8
0
 62
     0
 10
148.744
 20
98.1054
 30
0.0
 11
147.92
 21
98.1054
 31
0.0
  0
LINE
  8
0
 62
     0
 10
147.92
 20
98.1054
 30
0.0
 11
147.92
 21
95.305
 31
0.0
  0
LINE
  8
0
 62
     0
 10
147.92
 20
95.305
 30
0.0
 11
148.744
 21
95.305
 31
0.0
  0
LINE
  8
0
 62
     0
 10
148.744
 20
95.305
 30
0.0
 11
148.744
 21
89.0351
 31
0.0
  0
LINE
  8
0
 62
     0
 10
148.744
 20
89.0351
 30
0.0
 11
150.469
 21
89.0351
 31
0.0
  0
LINE
  8
0
 62
     0
 10
150.469
 20
89.0351
 30
0.0
 11
150.469
 21
87.8346
 31
0.0
  0
LINE
  8
0
 62
     0
 10
150.469
 20
87.8346
 30
0.0
 11
153.77
 21
87.8346
 31
0.0
  0
LINE
  8
0
 62
     0
 10
153.77
 20
87.8346
 30
0.0
 11
153.77
 21
89.0351
 31
0.0
  0
LINE
  8
0
 62
     0
 10
153.77
 20
89.0351
 30
0.0
 11
155.495
 21
89.0351
 31
0.0
  0
LINE
  8
0
 62
     0
 10
155.495
 20
89.0351
 30
0.0
 11
155.495
 21
93.5055
 31
0.0
  0
LINE
  8
0
 62
     0
 10
155.495
 20
93.5055
 30
0.0
 11
157.019
 21
93.5055
 31
0.0
  0
LINE
  8
0
 62
     0
 10
157.019
 20
93.5055
 30
0.0
 11
157.019
 21
92.9047
 31
0.0
  0
LINE
  8
0
 62
     0
 10
157.019
 20
92.9047
 30
0.0
 11
156.22
 21
92.9047
 31
0.0
  0
LINE
  8
0
 62
     0
 10
156.22
 20
92.9047
 30
0.0
 11
156.22
 21
89.8052
 31
0.0
  0
LINE
  8
0
 62
     0
 10
156.22
 20
89.8052
 30
0.0
 11
157.019
 21
89.8052
 31
0.0
  0
LINE
  8
0
 62
     0
 10
157.019
 20
89.8052
 30
0.0
 11
157.019
 21
88.8047
 31
0.0
  0
LINE
  8
0
 62
     0
 10
157.019
 20
88.8047
 30
0.0
 11
171.02
 21
88.8047
 31
0.0
  0
LINE
  8
0
 62
     0
 10
171.02
 20
88.8047
 30
0.0
 11
171.02
 21
89.8052
 31
0.0
  0
LINE
  8
0
 62
     0
 10
171.02
 20
89.8052
 30
0.0
 11
171.819
 21
89.8052
 31
0.0
  0
LINE
  8
0
 62
     0
 10
171.819
 20
89.8052
 30
0.0
 11
171.819
 21
92.9047
 31
0.0
  0
LINE
  8
0
 62
     0
 10
171.819
 20
92.9047
 30
0.0
 11
171.02
 21
92.9047
 31
0.0
  0
LINE
  8
0
 62
     0
 10
171.02
 20
92.9047
 30
0.0
 11
171.02
 21
93.5055
 31
0.0
  0
LINE
  8
0
 62
     0
 10
171.02
 20
93.5055
 30
0.0
 11
172.544
 21
93.5055
 31
0.0
  0
LINE
  8
0
 62
     0
 10
172.544
 20
93.5055
 30
0.0
 11
172.544
 21
89.0351
 31
0.0
  0
LINE
  8
0
 62
     0
 10
172.544
 20
89.0351
 30
0.0
 11
174.269
 21
89.0351
 31
0.0
  0
LINE
  8
0
 62
     0
 10
174.269
 20
89.0351
 30
0.0
 11
174.269
 21
87.8346
 31
0.0
  0
LINE
  8
0
 62
     0
 10
174.269
 20
87.8346
 30
0.0
 11
177.57
 21
87.8346
 31
0.0
  0
LINE
  8
0
 62
     0
 10
177.57
 20
87.8346
 30
0.0
 11
177.57
 21
89.0351
 31
0.0
  0
LINE
  8
0
 62
     0
 10
177.57
 20
89.0351
 30
0.0
 11
179.295
 21
89.0351
 31
0.0
  0
LINE
  8
0
 62
     0
 10
179.295
 20
89.0351
 30
0.0
 11
179.295
 21
95.305
 31
0.0
  0
LINE
  8
0
 62
     0
 10
179.295
 20
95.305
 30
0.0
 11
180.119
 21
95.305
 31
0.0
  0
LINE
  8
0
 62
     0
 10
180.119
 20
95.305
 30
0.0
 11
180.119
 21
98.1054
 31
0.0
  0
LINE
  8
0
 62
     0
 10
180.119
 20
98.1054
 30
0.0
 11
179.295
 21
98.1054
 31
0.0
  0
LINE
  8
0
 62
     0
 10
179.295
 20
98.1054
 30
0.0
 11
179.295
 21
101.335
 31
0.0
  0
LINE
  8
0
 62
     0
 10
179.295
 20
101.335
 30
0.0
 11
172.544
 21
101.335
 31
0.0
  0
LINE
  8
0
 62
     0
 10
172.544
 20
101.335
 30
0.0
 11
172.544
 21
98.1054
 31
0.0
  0
LINE
  8
0
 62
     0
 10
172.544
 20
98.1054
 30
0.0
 11
171.02
 21
98.1054
 31
0.0
  0
LINE
  8
0
 62
     0
 10
171.02
 20
98.1054
 30
0.0
 11
171.02
 21
98.7048
 31
0.0
  0
LINE
  8
0
 62
     0
 10
171.02
 20
98.7048
 30
0.0
 11
171.819
 21
98.7048
 31
0.0
  0
LINE
  8
0
 62
     0
 10
171.819
 20
98.7048
 30
0.0
 11
171.819
 21
101.805
 31
0.0
  0
LINE
  8
0
 62
     0
 10
171.819
 20
101.805
 30
0.0
 11
171.02
 21
101.805
 31
0.0
  0
LINE
  8
0
 62
     0
 10
171.02
 20
101.805
 30
0.0
 11
171.02
 21
102.804
 31
0.0
  0
LINE
  8
0
 62
     0
 10
171.02
 20
102.804
 30
0.0
 11
157.019
 21
102.804
 31
0.0
  0
LINE
  8
0
 62
     0
 10
14.1442
 20
102.804
 30
0.0
 11
14.1442
 21
101.805
 31
0.0
  0
LINE
  8
0
 62
     0
 10
14.1442
 20
101.805
 30
0.0
 11
13.3435
 21
101.805
 31
0.0
  0
LINE
  8
0
 62
     0
 10
13.3435
 20
101.805
 30
0.0
 11
13.3435
 21
98.7048
 31
0.0
  0
LINE
  8
0
 62
     0
 10
13.3435
 20
98.7048
 30
0.0
 11
14.1442
 21
98.7048
 31
0.0
  0
LINE
  8
0
 62
     0
 10
14.1442
 20
98.7048
 30
0.0
 11
14.1442
 21
92.9047
 31
0.0
  0
LINE
  8
0
 62
     0
 10
14.1442
 20
92.9047
 30
0.0
 11
13.3435
 21
92.9047
 31
0.0
  0
LINE
  8
0
 62
     0
 10
13.3435
 20
92.9047
 30
0.0
 11
13.3435
 21
89.8052
 31
0.0
  0
LINE
  8
0
 62
     0
 10
13.3435
 20
89.8052
 30
0.0
 11
14.1442
 21
89.8052
 31
0.0
  0
LINE
  8
0
 62
     0
 10
14.1442
 20
89.8052
 30
0.0
 11
14.1442
 21
88.8047
 31
0.0
  0
LINE
  8
0
 62
     0
 10
14.1442
 20
88.8047
 30
0.0
 11
28.1451
 21
88.8047
 31
0.0
  0
LINE
  8
0
 62
     0
 10
28.1451
 20
88.8047
 30
0.0
 11
28.1451
 21
89.8052
 31
0.0
  0
LINE
  8
0
 62
     0
 10
28.1451
 20
89.8052
 30
0.0
 11
28.9443
 21
89.8052
 31
0.0
  0
LINE
  8
0
 62
     0
 10
28.9443
 20
89.8052
 30
0.0
 11
28.9443
 21
92.9047
 31
0.0
  0
LINE
  8
0
 62
     0
 10
28.9443
 20
92.9047
 30
0.0
 11
28.1451
 21
92.9047
 31
0.0
  0
LINE
  8
0
 62
     0
 10
28.1451
 20
92.9047
 30
0.0
 11
28.1451
 21
98.7048
 31
0.0
  0
LINE
  8
0
 62
     0
 10
28.1451
 20
98.7048
 30
0.0
 11
28.9443
 21
98.7048
 31
0.0
  0
LINE
  8
0
 62
     0
 10
28.9443
 20
98.7048
 30
0.0
 11
28.9443
 21
101.805
 31
0.0
  0
LINE
  8
0
 62
     0
 10
28.9443
 20
101.805
 30
0.0
 11
28.1451
 21
101.805
 31
0.0
  0
LINE
  8
0
 62
     0
 10
28.1451
 20
101.805
 30
0.0
 11
28.1451
 21
102.804
 31
0.0
  0
LINE
  8
0
 62
     0
 10
28.1451
 20
102.804
 30
0.0
 11
14.1442
 21
102.804
 31
0.0
  0
LINE
  8
0
 62
     0
 10
33.1942
 20
102.804
 30
0.0
 11
33.1942
 21
101.805
 31
0.0
  0
LINE
  8
0
 62
     0
 10
33.1942
 20
101.805
 30
0.0
 11
32.3949
 21
101.805
 31
0.0
  0
LINE
  8
0
 62
     0
 10
32.3949
 20
101.805
 30
0.0
 11
32.3949
 21
98.7048
 31
0.0
  0
LINE
  8
0
 62
     0
 10
32.3949
 20
98.7048
 30
0.0
 11
33.1942
 21
98.7048
 31
0.0
  0
LINE
  8
0
 62
     0
 10
33.1942
 20
98.7048
 30
0.0
 11
33.1942
 21
92.9047
 31
0.0
  0
LINE
  8
0
 62
     0
 10
33.1942
 20
92.9047
 30
0.0
 11
32.3949
 21
92.9047
 31
0.0
  0
LINE
  8
0
 62
     0
 10
32.3949
 20
92.9047
 30
0.0
 11
32.3949
 21
89.8052
 31
0.0
  0
LINE
  8
0
 62
     0
 10
32.3949
 20
89.8052
 30
0.0
 11
33.1942
 21
89.8052
 31
0.0
  0
LINE
  8
0
 62
     0
 10
33.1942
 20
89.8052
 30
0.0
 11
33.1942
 21
88.8047
 31
0.0
  0
LINE
  8
0
 62
     0
 10
33.1942
 20
88.8047
 30
0.0
 11
47.1936
 21
88.8047
 31
0.0
  0
LINE
  8
0
 62
     0
 10
47.1936
 20
88.8047
 30
0.0
 11
47.1936
 21
89.8052
 31
0.0
  0
LINE
  8
0
 62
     0
 10
47.1936
 20
89.8052
 30
0.0
 11
47.9944
 21
89.8052
 31
0.0
  0
LINE
  8
0
 62
     0
 10
47.9944
 20
89.8052
 30
0.0
 11
47.9944
 21
92.9047
 31
0.0
  0
LINE
  8
0
 62
     0
 10
47.9944
 20
92.9047
 30
0.0
 11
47.1936
 21
92.9047
 31
0.0
  0
LINE
  8
0
 62
     0
 10
47.1936
 20
92.9047
 30
0.0
 11
47.1936
 21
98.7048
 31
0.0
  0
LINE
  8
0
 62
     0
 10
47.1936
 20
98.7048
 30
0.0
 11
47.9944
 21
98.7048
 31
0.0
  0
LINE
  8
0
 62
     0
 10
47.9944
 20
98.7048
 30
0.0
 11
47.9944
 21
101.805
 31
0.0
  0
LINE
  8
0
 62
     0
 10
47.9944
 20
101.805
 30
0.0
 11
47.1936
 21
101.805
 31
0.0
  0
LINE
  8
0
 62
     0
 10
47.1936
 20
101.805
 30
0.0
 11
47.1936
 21
102.804
 31
0.0
  0
LINE
  8
0
 62
     0
 10
47.1936
 20
102.804
 30
0.0
 11
33.1942
 21
102.804
 31
0.0
  0
LINE
  8
0
 62
     0
 10
52.2443
 20
102.804
 30
0.0
 11
52.2443
 21
101.805
 31
0.0
  0
LINE
  8
0
 62
     0
 10
52.2443
 20
101.805
 30
0.0
 11
51.4435
 21
101.805
 31
0.0
  0
LINE
  8
0
 62
     0
 10
51.4435
 20
101.805
 30
0.0
 11
51.4435
 21
98.7048
 31
0.0
  0
LINE
  8
0
 62
     0
 10
51.4435
 20
98.7048
 30
0.0
 11
52.2443
 21
98.7048
 31
0.0
  0
LINE
  8
0
 62
     0
 10
52.2443
 20
98.7048
 30
0.0
 11
52.2443
 21
92.9047
 31
0.0
  0
LINE
  8
0
 62
     0
 10
52.2443
 20
92.9047
 30
0.0
 11
51.4435
 21
92.9047
 31
0.0
  0
LINE
  8
0
 62
     0
 10
51.4435
 20
92.9047
 30
0.0
 11
51.4435
 21
89.8052
 31
0.0
  0
LINE
  8
0
 62
     0
 10
51.4435
 20
89.8052
 30
0.0
 11
52.2443
 21
89.8052
 31
0.0
  0
LINE
  8
0
 62
     0
 10
52.2443
 20
89.8052
 30
0.0
 11
52.2443
 21
88.8047
 31
0.0
  0
LINE
  8
0
 62
     0
 10
52.2443
 20
88.8047
 30
0.0
 11
66.2436
 21
88.8047
 31
0.0
  0
LINE
  8
0
 62
     0
 10
66.2436
 20
88.8047
 30
0.0
 11
66.2436
 21
89.8052
 31
0.0
  0
LINE
  8
0
 62
     0
 10
66.2436
 20
89.8052
 30
0.0
 11
67.0444
 21
89.8052
 31
0.0
  0
LINE
  8
0
 62
     0
 10
67.0444
 20
89.8052
 30
0.0
 11
67.0444
 21
92.9047
 31
0.0
  0
LINE
  8
0
 62
     0
 10
67.0444
 20
92.9047
 30
0.0
 11
66.2436
 21
92.9047
 31
0.0
  0
LINE
  8
0
 62
     0
 10
66.2436
 20
92.9047
 30
0.0
 11
66.2436
 21
98.7048
 31
0.0
  0
LINE
  8
0
 62
     0
 10
66.2436
 20
98.7048
 30
0.0
 11
67.0444
 21
98.7048
 31
0.0
  0
LINE
  8
0
 62
     0
 10
67.0444
 20
98.7048
 30
0.0
 11
67.0444
 21
101.805
 31
0.0
  0
LINE
  8
0
 62
     0
 10
67.0444
 20
101.805
 30
0.0
 11
66.2436
 21
101.805
 31
0.0
  0
LINE
  8
0
 62
     0
 10
66.2436
 20
101.805
 30
0.0
 11
66.2436
 21
102.804
 31
0.0
  0
LINE
  8
0
 62
     0
 10
66.2436
 20
102.804
 30
0.0
 11
52.2443
 21
102.804
 31
0.0
  0
LINE
  8
0
 62
     0
 10
71.2943
 20
102.804
 30
0.0
 11
71.2943
 21
101.805
 31
0.0
  0
LINE
  8
0
 62
     0
 10
71.2943
 20
101.805
 30
0.0
 11
70.4935
 21
101.805
 31
0.0
  0
LINE
  8
0
 62
     0
 10
70.4935
 20
101.805
 30
0.0
 11
70.4935
 21
98.7048
 31
0.0
  0
LINE
  8
0
 62
     0
 10
70.4935
 20
98.7048
 30
0.0
 11
71.2943
 21
98.7048
 31
0.0
  0
LINE
  8
0
 62
     0
 10
71.2943
 20
98.7048
 30
0.0
 11
71.2943
 21
92.9047
 31
0.0
  0
LINE
  8
0
 62
     0
 10
71.2943
 20
92.9047
 30
0.0
 11
70.4935
 21
92.9047
 31
0.0
  0
LINE
  8
0
 62
     0
 10
70.4935
 20
92.9047
 30
0.0
 11
70.4935
 21
89.8052
 31
0.0
  0
LINE
  8
0
 62
     0
 10
70.4935
 20
89.8052
 30
0.0
 11
71.2943
 21
89.8052
 31
0.0
  0
LINE
  8
0
 62
     0
 10
71.2943
 20
89.8052
 30
0.0
 11
71.2943
 21
88.8047
 31
0.0
  0
LINE
  8
0
 62
     0
 10
71.2943
 20
88.8047
 30
0.0
 11
85.2936
 21
88.8047
 31
0.0
  0
LINE
  8
0
 62
     0
 10
85.2936
 20
88.8047
 30
0.0
 11
85.2936
 21
89.8052
 31
0.0
  0
LINE
  8
0
 62
     0
 10
85.2936
 20
89.8052
 30
0.0
 11
86.0944
 21
89.8052
 31
0.0
  0
LINE
  8
0
 62
     0
 10
86.0944
 20
89.8052
 30
0.0
 11
86.0944
 21
92.9047
 31
0.0
  0
LINE
  8
0
 62
     0
 10
86.0944
 20
92.9047
 30
0.0
 11
85.2936
 21
92.9047
 31
0.0
  0
LINE
  8
0
 62
     0
 10
85.2936
 20
92.9047
 30
0.0
 11
85.2936
 21
98.7048
 31
0.0
  0
LINE
  8
0
 62
     0
 10
85.2936
 20
98.7048
 30
0.0
 11
86.0944
 21
98.7048
 31
0.0
  0
LINE
  8
0
 62
     0
 10
86.0944
 20
98.7048
 30
0.0
 11
86.0944
 21
101.805
 31
0.0
  0
LINE
  8
0
 62
     0
 10
86.0944
 20
101.805
 30
0.0
 11
85.2936
 21
101.805
 31
0.0
  0
LINE
  8
0
 62
     0
 10
85.2936
 20
101.805
 30
0.0
 11
85.2936
 21
102.804
 31
0.0
  0
LINE
  8
0
 62
     0
 10
85.2936
 20
102.804
 30
0.0
 11
71.2943
 21
102.804
 31
0.0
  0
LINE
  8
0
 62
     0
 10
90.3443
 20
102.804
 30
0.0
 11
90.3443
 21
101.805
 31
0.0
  0
LINE
  8
0
 62
     0
 10
90.3443
 20
101.805
 30
0.0
 11
89.5435
 21
101.805
 31
0.0
  0
LINE
  8
0
 62
     0
 10
89.5435
 20
101.805
 30
0.0
 11
89.5435
 21
98.7048
 31
0.0
  0
LINE
  8
0
 62
     0
 10
89.5435
 20
98.7048
 30
0.0
 11
90.3443
 21
98.7048
 31
0.0
  0
LINE
  8
0
 62
     0
 10
90.3443
 20
98.7048
 30
0.0
 11
90.3443
 21
92.9047
 31
0.0
  0
LINE
  8
0
 62
     0
 10
90.3443
 20
92.9047
 30
0.0
 11
89.5435
 21
92.9047
 31
0.0
  0
LINE
  8
0
 62
     0
 10
89.5435
 20
92.9047
 30
0.0
 11
89.5435
 21
89.8052
 31
0.0
  0
LINE
  8
0
 62
     0
 10
89.5435
 20
89.8052
 30
0.0
 11
90.3443
 21
89.8052
 31
0.0
  0
LINE
  8
0
 62
     0
 10
90.3443
 20
89.8052
 30
0.0
 11
90.3443
 21
88.8047
 31
0.0
  0
LINE
  8
0
 62
     0
 10
90.3443
 20
88.8047
 30
0.0
 11
104.344
 21
88.8047
 31
0.0
  0
LINE
  8
0
 62
     0
 10
104.344
 20
88.8047
 30
0.0
 11
104.344
 21
89.8052
 31
0.0
  0
LINE
  8
0
 62
     0
 10
104.344
 20
89.8052
 30
0.0
 11
105.144
 21
89.8052
 31
0.0
  0
LINE
  8
0
 62
     0
 10
105.144
 20
89.8052
 30
0.0
 11
105.144
 21
92.9047
 31
0.0
  0
LINE
  8
0
 62
     0
 10
105.144
 20
92.9047
 30
0.0
 11
104.344
 21
92.9047
 31
0.0
  0
LINE
  8
0
 62
     0
 10
104.344
 20
92.9047
 30
0.0
 11
104.344
 21
98.7048
 31
0.0
  0
LINE
  8
0
 62
     0
 10
104.344
 20
98.7048
 30
0.0
 11
105.144
 21
98.7048
 31
0.0
  0
LINE
  8
0
 62
     0
 10
105.144
 20
98.7048
 30
0.0
 11
105.144
 21
101.805
 31
0.0
  0
LINE
  8
0
 62
     0
 10
105.144
 20
101.805
 30
0.0
 11
104.344
 21
101.805
 31
0.0
  0
LINE
  8
0
 62
     0
 10
104.344
 20
101.805
 30
0.0
 11
104.344
 21
102.804
 31
0.0
  0
LINE
  8
0
 62
     0
 10
104.344
 20
102.804
 30
0.0
 11
90.3443
 21
102.804
 31
0.0
  0
LINE
  8
0
 62
     0
 10
109.394
 20
102.804
 30
0.0
 11
109.394
 21
101.805
 31
0.0
  0
LINE
  8
0
 62
     0
 10
109.394
 20
101.805
 30
0.0
 11
108.593
 21
101.805
 31
0.0
  0
LINE
  8
0
 62
     0
 10
108.593
 20
101.805
 30
0.0
 11
108.593
 21
98.7048
 31
0.0
  0
LINE
  8
0
 62
     0
 10
108.593
 20
98.7048
 30
0.0
 11
109.394
 21
98.7048
 31
0.0
  0
LINE
  8
0
 62
     0
 10
109.394
 20
98.7048
 30
0.0
 11
109.394
 21
92.9047
 31
0.0
  0
LINE
  8
0
 62
     0
 10
109.394
 20
92.9047
 30
0.0
 11
108.593
 21
92.9047
 31
0.0
  0
LINE
  8
0
 62
     0
 10
108.593
 20
92.9047
 30
0.0
 11
108.593
 21
89.8052
 31
0.0
  0
LINE
  8
0
 62
     0
 10
108.593
 20
89.8052
 30
0.0
 11
109.394
 21
89.8052
 31
0.0
  0
LINE
  8
0
 62
     0
 10
109.394
 20
89.8052
 30
0.0
 11
109.394
 21
88.8047
 31
0.0
  0
LINE
  8
0
 62
     0
 10
109.394
 20
88.8047
 30
0.0
 11
123.394
 21
88.8047
 31
0.0
  0
LINE
  8
0
 62
     0
 10
123.394
 20
88.8047
 30
0.0
 11
123.394
 21
89.8052
 31
0.0
  0
LINE
  8
0
 62
     0
 10
123.394
 20
89.8052
 30
0.0
 11
124.194
 21
89.8052
 31
0.0
  0
LINE
  8
0
 62
     0
 10
124.194
 20
89.8052
 30
0.0
 11
124.194
 21
92.9047
 31
0.0
  0
LINE
  8
0
 62
     0
 10
124.194
 20
92.9047
 30
0.0
 11
123.394
 21
92.9047
 31
0.0
  0
LINE
  8
0
 62
     0
 10
123.394
 20
92.9047
 30
0.0
 11
123.394
 21
98.7048
 31
0.0
  0
LINE
  8
0
 62
     0
 10
123.394
 20
98.7048
 30
0.0
 11
124.194
 21
98.7048
 31
0.0
  0
LINE
  8
0
 62
     0
 10
124.194
 20
98.7048
 30
0.0
 11
124.194
 21
101.805
 31
0.0
  0
LINE
  8
0
 62
     0
 10
124.194
 20
101.805
 30
0.0
 11
123.394
 21
101.805
 31
0.0
  0
LINE
  8
0
 62
     0
 10
123.394
 20
101.805
 30
0.0
 11
123.394
 21
102.804
 31
0.0
  0
LINE
  8
0
 62
     0
 10
123.394
 20
102.804
 30
0.0
 11
109.394
 21
102.804
 31
0.0
  0
LINE
  8
0
 62
     0
 10
128.444
 20
102.804
 30
0.0
 11
128.444
 21
101.805
 31
0.0
  0
LINE
  8
0
 62
     0
 10
128.444
 20
101.805
 30
0.0
 11
127.643
 21
101.805
 31
0.0
  0
LINE
  8
0
 62
     0
 10
127.643
 20
101.805
 30
0.0
 11
127.643
 21
98.7048
 31
0.0
  0
LINE
  8
0
 62
     0
 10
127.643
 20
98.7048
 30
0.0
 11
128.444
 21
98.7048
 31
0.0
  0
LINE
  8
0
 62
     0
 10
128.444
 20
98.7048
 30
0.0
 11
128.444
 21
92.9047
 31
0.0
  0
LINE
  8
0
 62
     0
 10
128.444
 20
92.9047
 30
0.0
 11
127.643
 21
92.9047
 31
0.0
  0
LINE
  8
0
 62
     0
 10
127.643
 20
92.9047
 30
0.0
 11
127.643
 21
89.8052
 31
0.0
  0
LINE
  8
0
 62
     0
 10
127.643
 20
89.8052
 30
0.0
 11
128.444
 21
89.8052
 31
0.0
  0
LINE
  8
0
 62
     0
 10
128.444
 20
89.8052
 30
0.0
 11
128.444
 21
88.8047
 31
0.0
  0
LINE
  8
0
 62
     0
 10
128.444
 20
88.8047
 30
0.0
 11
142.445
 21
88.8047
 31
0.0
  0
LINE
  8
0
 62
     0
 10
142.445
 20
88.8047
 30
0.0
 11
142.445
 21
89.8052
 31
0.0
  0
LINE
  8
0
 62
     0
 10
142.445
 20
89.8052
 30
0.0
 11
143.244
 21
89.8052
 31
0.0
  0
LINE
  8
0
 62
     0
 10
143.244
 20
89.8052
 30
0.0
 11
143.244
 21
92.9047
 31
0.0
  0
LINE
  8
0
 62
     0
 10
143.244
 20
92.9047
 30
0.0
 11
142.445
 21
92.9047
 31
0.0
  0
LINE
  8
0
 62
     0
 10
142.445
 20
92.9047
 30
0.0
 11
142.445
 21
98.7048
 31
0.0
  0
LINE
  8
0
 62
     0
 10
142.445
 20
98.7048
 30
0.0
 11
143.244
 21
98.7048
 31
0.0
  0
LINE
  8
0
 62
     0
 10
143.244
 20
98.7048
 30
0.0
 11
143.244
 21
101.805
 31
0.0
  0
LINE
  8
0
 62
     0
 10
143.244
 20
101.805
 30
0.0
 11
142.445
 21
101.805
 31
0.0
  0
LINE
  8
0
 62
     0
 10
142.445
 20
101.805
 30
0.0
 11
142.445
 21
102.804
 31
0.0
  0
LINE
  8
0
 62
     0
 10
142.445
 20
102.804
 30
0.0
 11
128.444
 21
102.804
 31
0.0
  0
LINE
  8
0
 62
     0
 10
195.119
 20
102.804
 30
0.0
 11
195.119
 21
101.805
 31
0.0
  0
LINE
  8
0
 62
     0
 10
195.119
 20
101.805
 30
0.0
 11
194.32
 21
101.805
 31
0.0
  0
LINE
  8
0
 62
     0
 10
194.32
 20
101.805
 30
0.0
 11
194.32
 21
98.7048
 31
0.0
  0
LINE
  8
0
 62
     0
 10
194.32
 20
98.7048
 30
0.0
 11
195.119
 21
98.7048
 31
0.0
  0
LINE
  8
0
 62
     0
 10
195.119
 20
98.7048
 30
0.0
 11
195.119
 21
92.9047
 31
0.0
  0
LINE
  8
0
 62
     0
 10
195.119
 20
92.9047
 30
0.0
 11
194.32
 21
92.9047
 31
0.0
  0
LINE
  8
0
 62
     0
 10
194.32
 20
92.9047
 30
0.0
 11
194.32
 21
89.8052
 31
0.0
  0
LINE
  8
0
 62
     0
 10
194.32
 20
89.8052
 30
0.0
 11
195.119
 21
89.8052
 31
0.0
  0
LINE
  8
0
 62
     0
 10
195.119
 20
89.8052
 30
0.0
 11
195.119
 21
88.8047
 31
0.0
  0
LINE
  8
0
 62
     0
 10
195.119
 20
88.8047
 30
0.0
 11
209.12
 21
88.8047
 31
0.0
  0
LINE
  8
0
 62
     0
 10
209.12
 20
88.8047
 30
0.0
 11
209.12
 21
89.8052
 31
0.0
  0
LINE
  8
0
 62
     0
 10
209.12
 20
89.8052
 30
0.0
 11
209.919
 21
89.8052
 31
0.0
  0
LINE
  8
0
 62
     0
 10
209.919
 20
89.8052
 30
0.0
 11
209.919
 21
92.9047
 31
0.0
  0
LINE
  8
0
 62
     0
 10
209.919
 20
92.9047
 30
0.0
 11
209.12
 21
92.9047
 31
0.0
  0
LINE
  8
0
 62
     0
 10
209.12
 20
92.9047
 30
0.0
 11
209.12
 21
98.7048
 31
0.0
  0
LINE
  8
0
 62
     0
 10
209.12
 20
98.7048
 30
0.0
 11
209.919
 21
98.7048
 31
0.0
  0
LINE
  8
0
 62
     0
 10
209.919
 20
98.7048
 30
0.0
 11
209.919
 21
101.805
 31
0.0
  0
LINE
  8
0
 62
     0
 10
209.919
 20
101.805
 30
0.0
 11
209.12
 21
101.805
 31
0.0
  0
LINE
  8
0
 62
     0
 10
209.12
 20
101.805
 30
0.0
 11
209.12
 21
102.804
 31
0.0
  0
LINE
  8
0
 62
     0
 10
209.12
 20
102.804
 30
0.0
 11
195.119
 21
102.804
 31
0.0
  0
LINE
  8
0
 62
     0
 10
214.169
 20
102.804
 30
0.0
 11
214.169
 21
101.805
 31
0.0
  0
LINE
  8
0
 62
     0
 10
214.169
 20
101.805
 30
0.0
 11
213.37
 21
101.805
 31
0.0
  0
LINE
  8
0
 62
     0
 10
213.37
 20
101.805
 30
0.0
 11
213.37
 21
98.7048
 31
0.0
  0
LINE
  8
0
 62
     0
 10
213.37
 20
98.7048
 30
0.0
 11
214.169
 21
98.7048
 31
0.0
  0
LINE
  8
0
 62
     0
 10
214.169
 20
98.7048
 30
0.0
 11
214.169
 21
92.9047
 31
0.0
  0
LINE
  8
0
 62
     0
 10
214.169
 20
92.9047
 30
0.0
 11
213.37
 21
92.9047
 31
0.0
  0
LINE
  8
0
 62
     0
 10
213.37
 20
92.9047
 30
0.0
 11
213.37
 21
89.8052
 31
0.0
  0
LINE
  8
0
 62
     0
 10
213.37
 20
89.8052
 30
0.0
 11
214.169
 21
89.8052
 31
0.0
  0
LINE
  8
0
 62
     0
 10
214.169
 20
89.8052
 30
0.0
 11
214.169
 21
88.8047
 31
0.0
  0
LINE
  8
0
 62
     0
 10
214.169
 20
88.8047
 30
0.0
 11
228.17
 21
88.8047
 31
0.0
  0
LINE
  8
0
 62
     0
 10
228.17
 20
88.8047
 30
0.0
 11
228.17
 21
89.8052
 31
0.0
  0
LINE
  8
0
 62
     0
 10
228.17
 20
89.8052
 30
0.0
 11
228.969
 21
89.8052
 31
0.0
  0
LINE
  8
0
 62
     0
 10
228.969
 20
89.8052
 30
0.0
 11
228.969
 21
92.9047
 31
0.0
  0
LINE
  8
0
 62
     0
 10
228.969
 20
92.9047
 30
0.0
 11
228.17
 21
92.9047
 31
0.0
  0
LINE
  8
0
 62
     0
 10
228.17
 20
92.9047
 30
0.0
 11
228.17
 21
98.7048
 31
0.0
  0
LINE
  8
0
 62
     0
 10
228.17
 20
98.7048
 30
0.0
 11
228.969
 21
98.7048
 31
0.0
  0
LINE
  8
0
 62
     0
 10
228.969
 20
98.7048
 30
0.0
 11
228.969
 21
101.805
 31
0.0
  0
LINE
  8
0
 62
     0
 10
228.969
 20
101.805
 30
0.0
 11
228.17
 21
101.805
 31
0.0
  0
LINE
  8
0
 62
     0
 10
228.17
 20
101.805
 30
0.0
 11
228.17
 21
102.804
 31
0.0
  0
LINE
  8
0
 62
     0
 10
228.17
 20
102.804
 30
0.0
 11
214.169
 21
102.804
 31
0.0
  0
LINE
  8
0
 62
     0
 10
233.219
 20
102.804
 30
0.0
 11
233.219
 21
101.805
 31
0.0
  0
LINE
  8
0
 62
     0
 10
233.219
 20
101.805
 30
0.0
 11
232.42
 21
101.805
 31
0.0
  0
LINE
  8
0
 62
     0
 10
232.42
 20
101.805
 30
0.0
 11
232.42
 21
98.7048
 31
0.0
  0
LINE
  8
0
 62
     0
 10
232.42
 20
98.7048
 30
0.0
 11
233.219
 21
98.7048
 31
0.0
  0
LINE
  8
0
 62
     0
 10
233.219
 20
98.7048
 30
0.0
 11
233.219
 21
92.9047
 31
0.0
  0
LINE
  8
0
 62
     0
 10
233.219
 20
92.9047
 30
0.0
 11
232.42
 21
92.9047
 31
0.0
  0
LINE
  8
0
 62
     0
 10
232.42
 20
92.9047
 30
0.0
 11
232.42
 21
89.8052
 31
0.0
  0
LINE
  8
0
 62
     0
 10
232.42
 20
89.8052
 30
0.0
 11
233.219
 21
89.8052
 31
0.0
  0
LINE
  8
0
 62
     0
 10
233.219
 20
89.8052
 30
0.0
 11
233.219
 21
88.8047
 31
0.0
  0
LINE
  8
0
 62
     0
 10
233.219
 20
88.8047
 30
0.0
 11
247.22
 21
88.8047
 31
0.0
  0
LINE
  8
0
 62
     0
 10
247.22
 20
88.8047
 30
0.0
 11
247.22
 21
89.8052
 31
0.0
  0
LINE
  8
0
 62
     0
 10
247.22
 20
89.8052
 30
0.0
 11
248.019
 21
89.8052
 31
0.0
  0
LINE
  8
0
 62
     0
 10
248.019
 20
89.8052
 30
0.0
 11
248.019
 21
92.9047
 31
0.0
  0
LINE
  8
0
 62
     0
 10
248.019
 20
92.9047
 30
0.0
 11
247.22
 21
92.9047
 31
0.0
  0
LINE
  8
0
 62
     0
 10
247.22
 20
92.9047
 30
0.0
 11
247.22
 21
98.7048
 31
0.0
  0
LINE
  8
0
 62
     0
 10
247.22
 20
98.7048
 30
0.0
 11
248.019
 21
98.7048
 31
0.0
  0
LINE
  8
0
 62
     0
 10
248.019
 20
98.7048
 30
0.0
 11
248.019
 21
101.805
 31
0.0
  0
LINE
  8
0
 62
     0
 10
248.019
 20
101.805
 30
0.0
 11
247.22
 21
101.805
 31
0.0
  0
LINE
  8
0
 62
     0
 10
247.22
 20
101.805
 30
0.0
 11
247.22
 21
102.804
 31
0.0
  0
LINE
  8
0
 62
     0
 10
247.22
 20
102.804
 30
0.0
 11
233.219
 21
102.804
 31
0.0
  0
LINE
  8
0
 62
     0
 10
23.6692
 20
131.379
 30
0.0
 11
23.6692
 21
130.38
 31
0.0
  0
LINE
  8
0
 62
     0
 10
23.6692
 20
130.38
 30
0.0
 11
22.8699
 21
130.38
 31
0.0
  0
LINE
  8
0
 62
     0
 10
22.8699
 20
130.38
 30
0.0
 11
22.8699
 21
127.28
 31
0.0
  0
LINE
  8
0
 62
     0
 10
22.8699
 20
127.28
 30
0.0
 11
23.6692
 21
127.28
 31
0.0
  0
LINE
  8
0
 62
     0
 10
23.6692
 20
127.28
 30
0.0
 11
23.6692
 21
121.481
 31
0.0
  0
LINE
  8
0
 62
     0
 10
23.6692
 20
121.481
 30
0.0
 11
22.8699
 21
121.481
 31
0.0
  0
LINE
  8
0
 62
     0
 10
22.8699
 20
121.481
 30
0.0
 11
22.8699
 21
118.38
 31
0.0
  0
LINE
  8
0
 62
     0
 10
22.8699
 20
118.38
 30
0.0
 11
23.6692
 21
118.38
 31
0.0
  0
LINE
  8
0
 62
     0
 10
23.6692
 20
118.38
 30
0.0
 11
23.6692
 21
117.38
 31
0.0
  0
LINE
  8
0
 62
     0
 10
23.6692
 20
117.38
 30
0.0
 11
37.67
 21
117.38
 31
0.0
  0
LINE
  8
0
 62
     0
 10
37.67
 20
117.38
 30
0.0
 11
37.67
 21
118.38
 31
0.0
  0
LINE
  8
0
 62
     0
 10
37.67
 20
118.38
 30
0.0
 11
38.4694
 21
118.38
 31
0.0
  0
LINE
  8
0
 62
     0
 10
38.4694
 20
118.38
 30
0.0
 11
38.4694
 21
121.481
 31
0.0
  0
LINE
  8
0
 62
     0
 10
38.4694
 20
121.481
 30
0.0
 11
37.67
 21
121.481
 31
0.0
  0
LINE
  8
0
 62
     0
 10
37.67
 20
121.481
 30
0.0
 11
37.67
 21
127.28
 31
0.0
  0
LINE
  8
0
 62
     0
 10
37.67
 20
127.28
 30
0.0
 11
38.4694
 21
127.28
 31
0.0
  0
LINE
  8
0
 62
     0
 10
38.4694
 20
127.28
 30
0.0
 11
38.4694
 21
130.38
 31
0.0
  0
LINE
  8
0
 62
     0
 10
38.4694
 20
130.38
 30
0.0
 11
37.67
 21
130.38
 31
0.0
  0
LINE
  8
0
 62
     0
 10
37.67
 20
130.38
 30
0.0
 11
37.67
 21
131.379
 31
0.0
  0
LINE
  8
0
 62
     0
 10
37.67
 20
131.379
 30
0.0
 11
23.6692
 21
131.379
 31
0.0
  0
LINE
  8
0
 62
     0
 10
42.7193
 20
131.379
 30
0.0
 11
42.7193
 21
130.38
 31
0.0
  0
LINE
  8
0
 62
     0
 10
42.7193
 20
130.38
 30
0.0
 11
41.9199
 21
130.38
 31
0.0
  0
LINE
  8
0
 62
     0
 10
41.9199
 20
130.38
 30
0.0
 11
41.9199
 21
127.28
 31
0.0
  0
LINE
  8
0
 62
     0
 10
41.9199
 20
127.28
 30
0.0
 11
42.7193
 21
127.28
 31
0.0
  0
LINE
  8
0
 62
     0
 10
42.7193
 20
127.28
 30
0.0
 11
42.7193
 21
121.481
 31
0.0
  0
LINE
  8
0
 62
     0
 10
42.7193
 20
121.481
 30
0.0
 11
41.9199
 21
121.481
 31
0.0
  0
LINE
  8
0
 62
     0
 10
41.9199
 20
121.481
 30
0.0
 11
41.9199
 21
118.38
 31
0.0
  0
LINE
  8
0
 62
     0
 10
41.9199
 20
118.38
 30
0.0
 11
42.7193
 21
118.38
 31
0.0
  0
LINE
  8
0
 62
     0
 10
42.7193
 20
118.38
 30
0.0
 11
42.7193
 21
117.38
 31
0.0
  0
LINE
  8
0
 62
     0
 10
42.7193
 20
117.38
 30
0.0
 11
56.72
 21
117.38
 31
0.0
  0
LINE
  8
0
 62
     0
 10
56.72
 20
117.38
 30
0.0
 11
56.72
 21
118.38
 31
0.0
  0
LINE
  8
0
 62
     0
 10
56.72
 20
118.38
 30
0.0
 11
57.5194
 21
118.38
 31
0.0
  0
LINE
  8
0
 62
     0
 10
57.5194
 20
118.38
 30
0.0
 11
57.5194
 21
121.481
 31
0.0
  0
LINE
  8
0
 62
     0
 10
57.5194
 20
121.481
 30
0.0
 11
56.72
 21
121.481
 31
0.0
  0
LINE
  8
0
 62
     0
 10
56.72
 20
121.481
 30
0.0
 11
56.72
 21
127.28
 31
0.0
  0
LINE
  8
0
 62
     0
 10
56.72
 20
127.28
 30
0.0
 11
57.5194
 21
127.28
 31
0.0
  0
LINE
  8
0
 62
     0
 10
57.5194
 20
127.28
 30
0.0
 11
57.5194
 21
130.38
 31
0.0
  0
LINE
  8
0
 62
     0
 10
57.5194
 20
130.38
 30
0.0
 11
56.72
 21
130.38
 31
0.0
  0
LINE
  8
0
 62
     0
 10
56.72
 20
130.38
 30
0.0
 11
56.72
 21
131.379
 31
0.0
  0
LINE
  8
0
 62
     0
 10
56.72
 20
131.379
 30
0.0
 11
42.7193
 21
131.379
 31
0.0
  0
LINE
  8
0
 62
     0
 10
61.7693
 20
131.379
 30
0.0
 11
61.7693
 21
130.38
 31
0.0
  0
LINE
  8
0
 62
     0
 10
61.7693
 20
130.38
 30
0.0
 11
60.9699
 21
130.38
 31
0.0
  0
LINE
  8
0
 62
     0
 10
60.9699
 20
130.38
 30
0.0
 11
60.9699
 21
127.28
 31
0.0
  0
LINE
  8
0
 62
     0
 10
60.9699
 20
127.28
 30
0.0
 11
61.7693
 21
127.28
 31
0.0
  0
LINE
  8
0
 62
     0
 10
61.7693
 20
127.28
 30
0.0
 11
61.7693
 21
121.481
 31
0.0
  0
LINE
  8
0
 62
     0
 10
61.7693
 20
121.481
 30
0.0
 11
60.9699
 21
121.481
 31
0.0
  0
LINE
  8
0
 62
     0
 10
60.9699
 20
121.481
 30
0.0
 11
60.9699
 21
118.38
 31
0.0
  0
LINE
  8
0
 62
     0
 10
60.9699
 20
118.38
 30
0.0
 11
61.7693
 21
118.38
 31
0.0
  0
LINE
  8
0
 62
     0
 10
61.7693
 20
118.38
 30
0.0
 11
61.7693
 21
117.38
 31
0.0
  0
LINE
  8
0
 62
     0
 10
61.7693
 20
117.38
 30
0.0
 11
75.77
 21
117.38
 31
0.0
  0
LINE
  8
0
 62
     0
 10
75.77
 20
117.38
 30
0.0
 11
75.77
 21
118.38
 31
0.0
  0
LINE
  8
0
 62
     0
 10
75.77
 20
118.38
 30
0.0
 11
76.5694
 21
118.38
 31
0.0
  0
LINE
  8
0
 62
     0
 10
76.5694
 20
118.38
 30
0.0
 11
76.5694
 21
121.481
 31
0.0
  0
LINE
  8
0
 62
     0
 10
76.5694
 20
121.481
 30
0.0
 11
75.77
 21
121.481
 31
0.0
  0
LINE
  8
0
 62
     0
 10
75.77
 20
121.481
 30
0.0
 11
75.77
 21
127.28
 31
0.0
  0
LINE
  8
0
 62
     0
 10
75.77
 20
127.28
 30
0.0
 11
76.5694
 21
127.28
 31
0.0
  0
LINE
  8
0
 62
     0
 10
76.5694
 20
127.28
 30
0.0
 11
76.5694
 21
130.38
 31
0.0
  0
LINE
  8
0
 62
     0
 10
76.5694
 20
130.38
 30
0.0
 11
75.77
 21
130.38
 31
0.0
  0
LINE
  8
0
 62
     0
 10
75.77
 20
130.38
 30
0.0
 11
75.77
 21
131.379
 31
0.0
  0
LINE
  8
0
 62
     0
 10
75.77
 20
131.379
 30
0.0
 11
61.7693
 21
131.379
 31
0.0
  0
LINE
  8
0
 62
     0
 10
80.8193
 20
131.379
 30
0.0
 11
80.8193
 21
130.38
 31
0.0
  0
LINE
  8
0
 62
     0
 10
80.8193
 20
130.38
 30
0.0
 11
80.0199
 21
130.38
 31
0.0
  0
LINE
  8
0
 62
     0
 10
80.0199
 20
130.38
 30
0.0
 11
80.0199
 21
127.28
 31
0.0
  0
LINE
  8
0
 62
     0
 10
80.0199
 20
127.28
 30
0.0
 11
80.8193
 21
127.28
 31
0.0
  0
LINE
  8
0
 62
     0
 10
80.8193
 20
127.28
 30
0.0
 11
80.8193
 21
121.481
 31
0.0
  0
LINE
  8
0
 62
     0
 10
80.8193
 20
121.481
 30
0.0
 11
80.0199
 21
121.481
 31
0.0
  0
LINE
  8
0
 62
     0
 10
80.0199
 20
121.481
 30
0.0
 11
80.0199
 21
118.38
 31
0.0
  0
LINE
  8
0
 62
     0
 10
80.0199
 20
118.38
 30
0.0
 11
80.8193
 21
118.38
 31
0.0
  0
LINE
  8
0
 62
     0
 10
80.8193
 20
118.38
 30
0.0
 11
80.8193
 21
117.38
 31
0.0
  0
LINE
  8
0
 62
     0
 10
80.8193
 20
117.38
 30
0.0
 11
94.82
 21
117.38
 31
0.0
  0
LINE
  8
0
 62
     0
 10
94.82
 20
117.38
 30
0.0
 11
94.82
 21
118.38
 31
0.0
  0
LINE
  8
0
 62
     0
 10
94.82
 20
118.38
 30
0.0
 11
95.6194
 21
118.38
 31
0.0
  0
LINE
  8
0
 62
     0
 10
95.6194
 20
118.38
 30
0.0
 11
95.6194
 21
121.481
 31
0.0
  0
LINE
  8
0
 62
     0
 10
95.6194
 20
121.481
 30
0.0
 11
94.82
 21
121.481
 31
0.0
  0
LINE
  8
0
 62
     0
 10
94.82
 20
121.481
 30
0.0
 11
94.82
 21
127.28
 31
0.0
  0
LINE
  8
0
 62
     0
 10
94.82
 20
127.28
 30
0.0
 11
95.6194
 21
127.28
 31
0.0
  0
LINE
  8
0
 62
     0
 10
95.6194
 20
127.28
 30
0.0
 11
95.6194
 21
130.38
 31
0.0
  0
LINE
  8
0
 62
     0
 10
95.6194
 20
130.38
 30
0.0
 11
94.82
 21
130.38
 31
0.0
  0
LINE
  8
0
 62
     0
 10
94.82
 20
130.38
 30
0.0
 11
94.82
 21
131.379
 31
0.0
  0
LINE
  8
0
 62
     0
 10
94.82
 20
131.379
 30
0.0
 11
80.8193
 21
131.379
 31
0.0
  0
LINE
  8
0
 62
     0
 10
109.394
 20
131.379
 30
0.0
 11
109.394
 21
130.38
 31
0.0
  0
LINE
  8
0
 62
     0
 10
109.394
 20
130.38
 30
0.0
 11
108.595
 21
130.38
 31
0.0
  0
LINE
  8
0
 62
     0
 10
108.595
 20
130.38
 30
0.0
 11
108.595
 21
127.28
 31
0.0
  0
LINE
  8
0
 62
     0
 10
108.595
 20
127.28
 30
0.0
 11
109.394
 21
127.28
 31
0.0
  0
LINE
  8
0
 62
     0
 10
109.394
 20
127.28
 30
0.0
 11
109.394
 21
121.481
 31
0.0
  0
LINE
  8
0
 62
     0
 10
109.394
 20
121.481
 30
0.0
 11
108.595
 21
121.481
 31
0.0
  0
LINE
  8
0
 62
     0
 10
108.595
 20
121.481
 30
0.0
 11
108.595
 21
118.38
 31
0.0
  0
LINE
  8
0
 62
     0
 10
108.595
 20
118.38
 30
0.0
 11
109.394
 21
118.38
 31
0.0
  0
LINE
  8
0
 62
     0
 10
109.394
 20
118.38
 30
0.0
 11
109.394
 21
117.38
 31
0.0
  0
LINE
  8
0
 62
     0
 10
109.394
 20
117.38
 30
0.0
 11
123.395
 21
117.38
 31
0.0
  0
LINE
  8
0
 62
     0
 10
123.395
 20
117.38
 30
0.0
 11
123.395
 21
118.38
 31
0.0
  0
LINE
  8
0
 62
     0
 10
123.395
 20
118.38
 30
0.0
 11
124.194
 21
118.38
 31
0.0
  0
LINE
  8
0
 62
     0
 10
124.194
 20
118.38
 30
0.0
 11
124.194
 21
121.481
 31
0.0
  0
LINE
  8
0
 62
     0
 10
124.194
 20
121.481
 30
0.0
 11
123.395
 21
121.481
 31
0.0
  0
LINE
  8
0
 62
     0
 10
123.395
 20
121.481
 30
0.0
 11
123.395
 21
127.28
 31
0.0
  0
LINE
  8
0
 62
     0
 10
123.395
 20
127.28
 30
0.0
 11
124.194
 21
127.28
 31
0.0
  0
LINE
  8
0
 62
     0
 10
124.194
 20
127.28
 30
0.0
 11
124.194
 21
130.38
 31
0.0
  0
LINE
  8
0
 62
     0
 10
124.194
 20
130.38
 30
0.0
 11
123.395
 21
130.38
 31
0.0
  0
LINE
  8
0
 62
     0
 10
123.395
 20
130.38
 30
0.0
 11
123.395
 21
131.379
 31
0.0
  0
LINE
  8
0
 62
     0
 10
123.395
 20
131.379
 30
0.0
 11
109.394
 21
131.379
 31
0.0
  0
LINE
  8
0
 62
     0
 10
128.444
 20
131.379
 30
0.0
 11
128.444
 21
130.38
 31
0.0
  0
LINE
  8
0
 62
     0
 10
128.444
 20
130.38
 30
0.0
 11
127.643
 21
130.38
 31
0.0
  0
LINE
  8
0
 62
     0
 10
127.643
 20
130.38
 30
0.0
 11
127.643
 21
127.28
 31
0.0
  0
LINE
  8
0
 62
     0
 10
127.643
 20
127.28
 30
0.0
 11
128.444
 21
127.28
 31
0.0
  0
LINE
  8
0
 62
     0
 10
128.444
 20
127.28
 30
0.0
 11
128.444
 21
121.481
 31
0.0
  0
LINE
  8
0
 62
     0
 10
128.444
 20
121.481
 30
0.0
 11
127.643
 21
121.481
 31
0.0
  0
LINE
  8
0
 62
     0
 10
127.643
 20
121.481
 30
0.0
 11
127.643
 21
118.38
 31
0.0
  0
LINE
  8
0
 62
     0
 10
127.643
 20
118.38
 30
0.0
 11
128.444
 21
118.38
 31
0.0
  0
LINE
  8
0
 62
     0
 10
128.444
 20
118.38
 30
0.0
 11
128.444
 21
117.38
 31
0.0
  0
LINE
  8
0
 62
     0
 10
128.444
 20
117.38
 30
0.0
 11
142.445
 21
117.38
 31
0.0
  0
LINE
  8
0
 62
     0
 10
142.445
 20
117.38
 30
0.0
 11
142.445
 21
118.38
 31
0.0
  0
LINE
  8
0
 62
     0
 10
142.445
 20
118.38
 30
0.0
 11
143.244
 21
118.38
 31
0.0
  0
LINE
  8
0
 62
     0
 10
143.244
 20
118.38
 30
0.0
 11
143.244
 21
121.481
 31
0.0
  0
LINE
  8
0
 62
     0
 10
143.244
 20
121.481
 30
0.0
 11
142.445
 21
121.481
 31
0.0
  0
LINE
  8
0
 62
     0
 10
142.445
 20
121.481
 30
0.0
 11
142.445
 21
127.28
 31
0.0
  0
LINE
  8
0
 62
     0
 10
142.445
 20
127.28
 30
0.0
 11
143.244
 21
127.28
 31
0.0
  0
LINE
  8
0
 62
     0
 10
143.244
 20
127.28
 30
0.0
 11
143.244
 21
130.38
 31
0.0
  0
LINE
  8
0
 62
     0
 10
143.244
 20
130.38
 30
0.0
 11
142.445
 21
130.38
 31
0.0
  0
LINE
  8
0
 62
     0
 10
142.445
 20
130.38
 30
0.0
 11
142.445
 21
131.379
 31
0.0
  0
LINE
  8
0
 62
     0
 10
142.445
 20
131.379
 30
0.0
 11
128.444
 21
131.379
 31
0.0
  0
LINE
  8
0
 62
     0
 10
147.494
 20
131.379
 30
0.0
 11
147.494
 21
130.38
 31
0.0
  0
LINE
  8
0
 62
     0
 10
147.494
 20
130.38
 30
0.0
 11
146.695
 21
130.38
 31
0.0
  0
LINE
  8
0
 62
     0
 10
146.695
 20
130.38
 30
0.0
 11
146.695
 21
127.28
 31
0.0
  0
LINE
  8
0
 62
     0
 10
146.695
 20
127.28
 30
0.0
 11
147.494
 21
127.28
 31
0.0
  0
LINE
  8
0
 62
     0
 10
147.494
 20
127.28
 30
0.0
 11
147.494
 21
121.481
 31
0.0
  0
LINE
  8
0
 62
     0
 10
147.494
 20
121.481
 30
0.0
 11
146.695
 21
121.481
 31
0.0
  0
LINE
  8
0
 62
     0
 10
146.695
 20
121.481
 30
0.0
 11
146.695
 21
118.38
 31
0.0
  0
LINE
  8
0
 62
     0
 10
146.695
 20
118.38
 30
0.0
 11
147.494
 21
118.38
 31
0.0
  0
LINE
  8
0
 62
     0
 10
147.494
 20
118.38
 30
0.0
 11
147.494
 21
117.38
 31
0.0
  0
LINE
  8
0
 62
     0
 10
147.494
 20
117.38
 30
0.0
 11
161.495
 21
117.38
 31
0.0
  0
LINE
  8
0
 62
     0
 10
161.495
 20
117.38
 30
0.0
 11
161.495
 21
118.38
 31
0.0
  0
LINE
  8
0
 62
     0
 10
161.495
 20
118.38
 30
0.0
 11
162.294
 21
118.38
 31
0.0
  0
LINE
  8
0
 62
     0
 10
162.294
 20
118.38
 30
0.0
 11
162.294
 21
121.481
 31
0.0
  0
LINE
  8
0
 62
     0
 10
162.294
 20
121.481
 30
0.0
 11
161.495
 21
121.481
 31
0.0
  0
LINE
  8
0
 62
     0
 10
161.495
 20
121.481
 30
0.0
 11
161.495
 21
127.28
 31
0.0
  0
LINE
  8
0
 62
     0
 10
161.495
 20
127.28
 30
0.0
 11
162.294
 21
127.28
 31
0.0
  0
LINE
  8
0
 62
     0
 10
162.294
 20
127.28
 30
0.0
 11
162.294
 21
130.38
 31
0.0
  0
LINE
  8
0
 62
     0
 10
162.294
 20
130.38
 30
0.0
 11
161.495
 21
130.38
 31
0.0
  0
LINE
  8
0
 62
     0
 10
161.495
 20
130.38
 30
0.0
 11
161.495
 21
131.379
 31
0.0
  0
LINE
  8
0
 62
     0
 10
161.495
 20
131.379
 30
0.0
 11
147.494
 21
131.379
 31
0.0
  0
LINE
  8
0
 62
     0
 10
166.544
 20
131.379
 30
0.0
 11
166.544
 21
130.38
 31
0.0
  0
LINE
  8
0
 62
     0
 10
166.544
 20
130.38
 30
0.0
 11
165.745
 21
130.38
 31
0.0
  0
LINE
  8
0
 62
     0
 10
165.745
 20
130.38
 30
0.0
 11
165.745
 21
127.28
 31
0.0
  0
LINE
  8
0
 62
     0
 10
165.745
 20
127.28
 30
0.0
 11
166.544
 21
127.28
 31
0.0
  0
LINE
  8
0
 62
     0
 10
166.544
 20
127.28
 30
0.0
 11
166.544
 21
121.481
 31
0.0
  0
LINE
  8
0
 62
     0
 10
166.544
 20
121.481
 30
0.0
 11
165.745
 21
121.481
 31
0.0
  0
LINE
  8
0
 62
     0
 10
165.745
 20
121.481
 30
0.0
 11
165.745
 21
118.38
 31
0.0
  0
LINE
  8
0
 62
     0
 10
165.745
 20
118.38
 30
0.0
 11
166.544
 21
118.38
 31
0.0
  0
LINE
  8
0
 62
     0
 10
166.544
 20
118.38
 30
0.0
 11
166.544
 21
117.38
 31
0.0
  0
LINE
  8
0
 62
     0
 10
166.544
 20
117.38
 30
0.0
 11
180.545
 21
117.38
 31
0.0
  0
LINE
  8
0
 62
     0
 10
180.545
 20
117.38
 30
0.0
 11
180.545
 21
118.38
 31
0.0
  0
LINE
  8
0
 62
     0
 10
180.545
 20
118.38
 30
0.0
 11
181.344
 21
118.38
 31
0.0
  0
LINE
  8
0
 62
     0
 10
181.344
 20
118.38
 30
0.0
 11
181.344
 21
121.481
 31
0.0
  0
LINE
  8
0
 62
     0
 10
181.344
 20
121.481
 30
0.0
 11
180.545
 21
121.481
 31
0.0
  0
LINE
  8
0
 62
     0
 10
180.545
 20
121.481
 30
0.0
 11
180.545
 21
127.28
 31
0.0
  0
LINE
  8
0
 62
     0
 10
180.545
 20
127.28
 30
0.0
 11
181.344
 21
127.28
 31
0.0
  0
LINE
  8
0
 62
     0
 10
181.344
 20
127.28
 30
0.0
 11
181.344
 21
130.38
 31
0.0
  0
LINE
  8
0
 62
     0
 10
181.344
 20
130.38
 30
0.0
 11
180.545
 21
130.38
 31
0.0
  0
LINE
  8
0
 62
     0
 10
180.545
 20
130.38
 30
0.0
 11
180.545
 21
131.379
 31
0.0
  0
LINE
  8
0
 62
     0
 10
180.545
 20
131.379
 30
0.0
 11
166.544
 21
131.379
 31
0.0
  0
LINE
  8
0
 62
     0
 10
195.119
 20
131.379
 30
0.0
 11
195.119
 21
130.38
 31
0.0
  0
LINE
  8
0
 62
     0
 10
195.119
 20
130.38
 30
0.0
 11
194.32
 21
130.38
 31
0.0
  0
LINE
  8
0
 62
     0
 10
194.32
 20
130.38
 30
0.0
 11
194.32
 21
127.28
 31
0.0
  0
LINE
  8
0
 62
     0
 10
194.32
 20
127.28
 30
0.0
 11
195.119
 21
127.28
 31
0.0
  0
LINE
  8
0
 62
     0
 10
195.119
 20
127.28
 30
0.0
 11
195.119
 21
121.481
 31
0.0
  0
LINE
  8
0
 62
     0
 10
195.119
 20
121.481
 30
0.0
 11
194.32
 21
121.481
 31
0.0
  0
LINE
  8
0
 62
     0
 10
194.32
 20
121.481
 30
0.0
 11
194.32
 21
118.38
 31
0.0
  0
LINE
  8
0
 62
     0
 10
194.32
 20
118.38
 30
0.0
 11
195.119
 21
118.38
 31
0.0
  0
LINE
  8
0
 62
     0
 10
195.119
 20
118.38
 30
0.0
 11
195.119
 21
117.38
 31
0.0
  0
LINE
  8
0
 62
     0
 10
195.119
 20
117.38
 30
0.0
 11
209.12
 21
117.38
 31
0.0
  0
LINE
  8
0
 62
     0
 10
209.12
 20
117.38
 30
0.0
 11
209.12
 21
118.38
 31
0.0
  0
LINE
  8
0
 62
     0
 10
209.12
 20
118.38
 30
0.0
 11
209.919
 21
118.38
 31
0.0
  0
LINE
  8
0
 62
     0
 10
209.919
 20
118.38
 30
0.0
 11
209.919
 21
121.481
 31
0.0
  0
LINE
  8
0
 62
     0
 10
209.919
 20
121.481
 30
0.0
 11
209.12
 21
121.481
 31
0.0
  0
LINE
  8
0
 62
     0
 10
209.12
 20
121.481
 30
0.0
 11
209.12
 21
127.28
 31
0.0
  0
LINE
  8
0
 62
     0
 10
209.12
 20
127.28
 30
0.0
 11
209.919
 21
127.28
 31
0.0
  0
LINE
  8
0
 62
     0
 10
209.919
 20
127.28
 30
0.0
 11
209.919
 21
130.38
 31
0.0
  0
LINE
  8
0
 62
     0
 10
209.919
 20
130.38
 30
0.0
 11
209.12
 21
130.38
 31
0.0
  0
LINE
  8
0
 62
     0
 10
209.12
 20
130.38
 30
0.0
 11
209.12
 21
131.379
 31
0.0
  0
LINE
  8
0
 62
     0
 10
209.12
 20
131.379
 30
0.0
 11
195.119
 21
131.379
 31
0.0
  0
LINE
  8
0
 62
     0
 10
214.169
 20
131.379
 30
0.0
 11
214.169
 21
130.38
 31
0.0
  0
LINE
  8
0
 62
     0
 10
214.169
 20
130.38
 30
0.0
 11
213.37
 21
130.38
 31
0.0
  0
LINE
  8
0
 62
     0
 10
213.37
 20
130.38
 30
0.0
 11
213.37
 21
127.28
 31
0.0
  0
LINE
  8
0
 62
     0
 10
213.37
 20
127.28
 30
0.0
 11
214.169
 21
127.28
 31
0.0
  0
LINE
  8
0
 62
     0
 10
214.169
 20
127.28
 30
0.0
 11
214.169
 21
121.481
 31
0.0
  0
LINE
  8
0
 62
     0
 10
214.169
 20
121.481
 30
0.0
 11
213.37
 21
121.481
 31
0.0
  0
LINE
  8
0
 62
     0
 10
213.37
 20
121.481
 30
0.0
 11
213.37
 21
118.38
 31
0.0
  0
LINE
  8
0
 62
     0
 10
213.37
 20
118.38
 30
0.0
 11
214.169
 21
118.38
 31
0.0
  0
LINE
  8
0
 62
     0
 10
214.169
 20
118.38
 30
0.0
 11
214.169
 21
117.38
 31
0.0
  0
LINE
  8
0
 62
     0
 10
214.169
 20
117.38
 30
0.0
 11
228.17
 21
117.38
 31
0.0
  0
LINE
  8
0
 62
     0
 10
228.17
 20
117.38
 30
0.0
 11
228.17
 21
118.38
 31
0.0
  0
LINE
  8
0
 62
     0
 10
228.17
 20
118.38
 30
0.0
 11
228.969
 21
118.38
 31
0.0
  0
LINE
  8
0
 62
     0
 10
228.969
 20
118.38
 30
0.0
 11
228.969
 21
121.481
 31
0.0
  0
LINE
  8
0
 62
     0
 10
228.969
 20
121.481
 30
0.0
 11
228.17
 21
121.481
 31
0.0
  0
LINE
  8
0
 62
     0
 10
228.17
 20
121.481
 30
0.0
 11
228.17
 21
127.28
 31
0.0
  0
LINE
  8
0
 62
     0
 10
228.17
 20
127.28
 30
0.0
 11
228.969
 21
127.28
 31
0.0
  0
LINE
  8
0
 62
     0
 10
228.969
 20
127.28
 30
0.0
 11
228.969
 21
130.38
 31
0.0
  0
LINE
  8
0
 62
     0
 10
228.969
 20
130.38
 30
0.0
 11
228.17
 21
130.38
 31
0.0
  0
LINE
  8
0
 62
     0
 10
228.17
 20
130.38
 30
0.0
 11
228.17
 21
131.379
 31
0.0
  0
LINE
  8
0
 62
     0
 10
228.17
 20
131.379
 30
0.0
 11
214.169
 21
131.379
 31
0.0
  0
LINE
  8
0
 62
     0
 10
233.219
 20
131.379
 30
0.0
 11
233.219
 21
130.38
 31
0.0
  0
LINE
  8
0
 62
     0
 10
233.219
 20
130.38
 30
0.0
 11
232.42
 21
130.38
 31
0.0
  0
LINE
  8
0
 62
     0
 10
232.42
 20
130.38
 30
0.0
 11
232.42
 21
127.28
 31
0.0
  0
LINE
  8
0
 62
     0
 10
232.42
 20
127.28
 30
0.0
 11
233.219
 21
127.28
 31
0.0
  0
LINE
  8
0
 62
     0
 10
233.219
 20
127.28
 30
0.0
 11
233.219
 21
121.481
 31
0.0
  0
LINE
  8
0
 62
     0
 10
233.219
 20
121.481
 30
0.0
 11
232.42
 21
121.481
 31
0.0
  0
LINE
  8
0
 62
     0
 10
232.42
 20
121.481
 30
0.0
 11
232.42
 21
118.38
 31
0.0
  0
LINE
  8
0
 62
     0
 10
232.42
 20
118.38
 30
0.0
 11
233.219
 21
118.38
 31
0.0
  0
LINE
  8
0
 62
     0
 10
233.219
 20
118.38
 30
0.0
 11
233.219
 21
117.38
 31
0.0
  0
LINE
  8
0
 62
     0
 10
233.219
 20
117.38
 30
0.0
 11
247.22
 21
117.38
 31
0.0
  0
LINE
  8
0
 62
     0
 10
247.22
 20
117.38
 30
0.0
 11
247.22
 21
118.38
 31
0.0
  0
LINE
  8
0
 62
     0
 10
247.22
 20
118.38
 30
0.0
 11
248.019
 21
118.38
 31
0.0
  0
LINE
  8
0
 62
     0
 10
248.019
 20
118.38
 30
0.0
 11
248.019
 21
121.481
 31
0.0
  0
LINE
  8
0
 62
     0
 10
248.019
 20
121.481
 30
0.0
 11
247.22
 21
121.481
 31
0.0
  0
LINE
  8
0
 62
     0
 10
247.22
 20
121.481
 30
0.0
 11
247.22
 21
127.28
 31
0.0
  0
LINE
  8
0
 62
     0
 10
247.22
 20
127.28
 30
0.0
 11
248.019
 21
127.28
 31
0.0
  0
LINE
  8
0
 62
     0
 10
248.019
 20
127.28
 30
0.0
 11
248.019
 21
130.38
 31
0.0
  0
LINE
  8
0
 62
     0
 10
248.019
 20
130.38
 30
0.0
 11
247.22
 21
130.38
 31
0.0
  0
LINE
  8
0
 62
     0
 10
247.22
 20
130.38
 30
0.0
 11
247.22
 21
131.379
 31
0.0
  0
LINE
  8
0
 62
     0
 10
247.22
 20
131.379
 30
0.0
 11
233.219
 21
131.379
 31
0.0
  0
LINE
  8
0
 62
     0
 10
4.75424
 20
139.952
 30
0.0
 11
4.44832
 21
139.795
 31
0.0
  0
LINE
  8
0
 62
     0
 10
4.44832
 20
139.795
 30
0.0
 11
4.20441
 21
139.551
 31
0.0
  0
LINE
  8
0
 62
     0
 10
4.20441
 20
139.551
 30
0.0
 11
4.04731
 21
139.245
 31
0.0
  0
LINE
  8
0
 62
     0
 10
4.04731
 20
139.245
 30
0.0
 11
3.99355
 21
138.905
 31
0.0
  0
LINE
  8
0
 62
     0
 10
3.99355
 20
138.905
 30
0.0
 11
4.04731
 21
138.566
 31
0.0
  0
LINE
  8
0
 62
     0
 10
4.04731
 20
138.566
 30
0.0
 11
4.20441
 21
138.259
 31
0.0
  0
LINE
  8
0
 62
     0
 10
4.20441
 20
138.259
 30
0.0
 11
4.44832
 21
138.016
 31
0.0
  0
LINE
  8
0
 62
     0
 10
4.44832
 20
138.016
 30
0.0
 11
4.75424
 21
137.859
 31
0.0
  0
LINE
  8
0
 62
     0
 10
4.75424
 20
137.859
 30
0.0
 11
5.0946
 21
137.805
 31
0.0
  0
LINE
  8
0
 62
     0
 10
5.0946
 20
137.805
 30
0.0
 11
5.43359
 21
137.859
 31
0.0
  0
LINE
  8
0
 62
     0
 10
5.43359
 20
137.859
 30
0.0
 11
5.74089
 21
138.016
 31
0.0
  0
LINE
  8
0
 62
     0
 10
5.74089
 20
138.016
 30
0.0
 11
5.98343
 21
138.259
 31
0.0
  0
LINE
  8
0
 62
     0
 10
5.98343
 20
138.259
 30
0.0
 11
6.14056
 21
138.566
 31
0.0
  0
LINE
  8
0
 62
     0
 10
6.14056
 20
138.566
 30
0.0
 11
6.19428
 21
138.905
 31
0.0
  0
LINE
  8
0
 62
     0
 10
6.19428
 20
138.905
 30
0.0
 11
6.14056
 21
139.245
 31
0.0
  0
LINE
  8
0
 62
     0
 10
6.14056
 20
139.245
 30
0.0
 11
5.98343
 21
139.551
 31
0.0
  0
LINE
  8
0
 62
     0
 10
5.98343
 20
139.551
 30
0.0
 11
5.74089
 21
139.795
 31
0.0
  0
LINE
  8
0
 62
     0
 10
5.74089
 20
139.795
 30
0.0
 11
5.43359
 21
139.952
 31
0.0
  0
LINE
  8
0
 62
     0
 10
5.43359
 20
139.952
 30
0.0
 11
5.0946
 21
140.004
 31
0.0
  0
LINE
  8
0
 62
     0
 10
5.0946
 20
140.004
 30
0.0
 11
4.75424
 21
139.952
 31
0.0
  0
LINE
  8
0
 62
     0
 10
129.58
 20
139.952
 30
0.0
 11
129.272
 21
139.795
 31
0.0
  0
LINE
  8
0
 62
     0
 10
129.272
 20
139.795
 30
0.0
 11
129.03
 21
139.551
 31
0.0
  0
LINE
  8
0
 62
     0
 10
129.03
 20
139.551
 30
0.0
 11
128.874
 21
139.245
 31
0.0
  0
LINE
  8
0
 62
     0
 10
128.874
 20
139.245
 30
0.0
 11
128.82
 21
138.905
 31
0.0
  0
LINE
  8
0
 62
     0
 10
128.82
 20
138.905
 30
0.0
 11
128.874
 21
138.566
 31
0.0
  0
LINE
  8
0
 62
     0
 10
128.874
 20
138.566
 30
0.0
 11
129.03
 21
138.259
 31
0.0
  0
LINE
  8
0
 62
     0
 10
129.03
 20
138.259
 30
0.0
 11
129.272
 21
138.016
 31
0.0
  0
LINE
  8
0
 62
     0
 10
129.272
 20
138.016
 30
0.0
 11
129.58
 21
137.859
 31
0.0
  0
LINE
  8
0
 62
     0
 10
129.58
 20
137.859
 30
0.0
 11
129.92
 21
137.805
 31
0.0
  0
LINE
  8
0
 62
     0
 10
129.92
 20
137.805
 30
0.0
 11
130.259
 21
137.859
 31
0.0
  0
LINE
  8
0
 62
     0
 10
130.259
 20
137.859
 30
0.0
 11
130.566
 21
138.016
 31
0.0
  0
LINE
  8
0
 62
     0
 10
130.566
 20
138.016
 30
0.0
 11
130.81
 21
138.259
 31
0.0
  0
LINE
  8
0
 62
     0
 10
130.81
 20
138.259
 30
0.0
 11
130.966
 21
138.566
 31
0.0
  0
LINE
  8
0
 62
     0
 10
130.966
 20
138.566
 30
0.0
 11
131.02
 21
138.905
 31
0.0
  0
LINE
  8
0
 62
     0
 10
131.02
 20
138.905
 30
0.0
 11
130.966
 21
139.245
 31
0.0
  0
LINE
  8
0
 62
     0
 10
130.966
 20
139.245
 30
0.0
 11
130.81
 21
139.551
 31
0.0
  0
LINE
  8
0
 62
     0
 10
130.81
 20
139.551
 30
0.0
 11
130.566
 21
139.795
 31
0.0
  0
LINE
  8
0
 62
     0
 10
130.566
 20
139.795
 30
0.0
 11
130.259
 21
139.952
 31
0.0
  0
LINE
  8
0
 62
     0
 10
130.259
 20
139.952
 30
0.0
 11
129.92
 21
140.004
 31
0.0
  0
LINE
  8
0
 62
     0
 10
129.92
 20
140.004
 30
0.0
 11
129.58
 21
139.952
 31
0.0
  0
LINE
  8
0
 62
     0
 10
254.405
 20
139.952
 30
0.0
 11
254.099
 21
139.795
 31
0.0
  0
LINE
  8
0
 62
     0
 10
254.099
 20
139.795
 30
0.0
 11
253.855
 21
139.551
 31
0.0
  0
LINE
  8
0
 62
     0
 10
253.855
 20
139.551
 30
0.0
 11
253.698
 21
139.245
 31
0.0
  0
LINE
  8
0
 62
     0
 10
253.698
 20
139.245
 30
0.0
 11
253.646
 21
138.905
 31
0.0
  0
LINE
  8
0
 62
     0
 10
253.646
 20
138.905
 30
0.0
 11
253.698
 21
138.566
 31
0.0
  0
LINE
  8
0
 62
     0
 10
253.698
 20
138.566
 30
0.0
 11
253.855
 21
138.259
 31
0.0
  0
LINE
  8
0
 62
     0
 10
253.855
 20
138.259
 30
0.0
 11
254.099
 21
138.016
 31
0.0
  0
LINE
  8
0
 62
     0
 10
254.099
 20
138.016
 30
0.0
 11
254.405
 21
137.859
 31
0.0
  0
LINE
  8
0
 62
     0
 10
254.405
 20
137.859
 30
0.0
 11
254.745
 21
137.805
 31
0.0
  0
LINE
  8
0
 62
     0
 10
254.745
 20
137.805
 30
0.0
 11
255.084
 21
137.859
 31
0.0
  0
LINE
  8
0
 62
     0
 10
255.084
 20
137.859
 30
0.0
 11
255.392
 21
138.016
 31
0.0
  0
LINE
  8
0
 62
     0
 10
255.392
 20
138.016
 30
0.0
 11
255.634
 21
138.259
 31
0.0
  0
LINE
  8
0
 62
     0
 10
255.634
 20
138.259
 30
0.0
 11
255.791
 21
138.566
 31
0.0
  0
LINE
  8
0
 62
     0
 10
255.791
 20
138.566
 30
0.0
 11
255.845
 21
138.905
 31
0.0
  0
LINE
  8
0
 62
     0
 10
255.845
 20
138.905
 30
0.0
 11
255.791
 21
139.245
 31
0.0
  0
LINE
  8
0
 62
     0
 10
255.791
 20
139.245
 30
0.0
 11
255.634
 21
139.551
 31
0.0
  0
LINE
  8
0
 62
     0
 10
255.634
 20
139.551
 30
0.0
 11
255.392
 21
139.795
 31
0.0
  0
LINE
  8
0
 62
     0
 10
255.392
 20
139.795
 30
0.0
 11
255.084
 21
139.952
 31
0.0
  0
LINE
  8
0
 62
     0
 10
255.084
 20
139.952
 30
0.0
 11
254.745
 21
140.004
 31
0.0
  0
LINE
  8
0
 62
     0
 10
254.745
 20
140.004
 30
0.0
 11
254.405
 21
139.952
 31
0.0
  0
ENDSEC
  0
EOF
