  0
SECTION
  2
HEADER
  9
$ACADVER
  1
AC1009
  9
$EXTMIN
 10
0.0
 20
0.0
 30
0.0
  9
$EXTMAX
 10
1000.0
 20
1000.0
 30
0.0
  9
$FILLMODE
 70
 0
  9
$SPLFRAME
 70
 1
  0
ENDSEC
  0
SECTION
  2
TABLES
  0
TABLE
  2
LAYER
 70
1
  0
LAYER
  2
0
 70
     0
 62
     7
  6
CONTINUOUS
  0
ENDTAB
  0
ENDSEC
  0
SECTION
  2
ENTITIES
  0
LINE
  8
0
 62
     0
 10
254.745
 20
143.904
 30
0.0
 11
255.138
 21
143.889
 31
0.0
  0
LINE
  8
0
 62
     0
 10
255.138
 20
143.889
 30
0.0
 11
255.528
 21
143.844
 31
0.0
  0
LINE
  8
0
 62
     0
 10
255.528
 20
143.844
 30
0.0
 11
255.911
 21
143.766
 31
0.0
  0
LINE
  8
0
 62
     0
 10
255.911
 20
143.766
 30
0.0
 11
256.29
 21
143.661
 31
0.0
  0
LINE
  8
0
 62
     0
 10
256.29
 20
143.661
 30
0.0
 11
256.658
 21
143.524
 31
0.0
  0
LINE
  8
0
 62
     0
 10
256.658
 20
143.524
 30
0.0
 11
257.015
 21
143.36
 31
0.0
  0
LINE
  8
0
 62
     0
 10
257.015
 20
143.36
 30
0.0
 11
257.358
 21
143.169
 31
0.0
  0
LINE
  8
0
 62
     0
 10
257.358
 20
143.169
 30
0.0
 11
257.683
 21
142.951
 31
0.0
  0
LINE
  8
0
 62
     0
 10
257.683
 20
142.951
 30
0.0
 11
257.992
 21
142.708
 31
0.0
  0
LINE
  8
0
 62
     0
 10
257.992
 20
142.708
 30
0.0
 11
258.28
 21
142.441
 31
0.0
  0
LINE
  8
0
 62
     0
 10
258.28
 20
142.441
 30
0.0
 11
258.548
 21
142.153
 31
0.0
  0
LINE
  8
0
 62
     0
 10
258.548
 20
142.153
 30
0.0
 11
258.79
 21
141.844
 31
0.0
  0
LINE
  8
0
 62
     0
 10
258.79
 20
141.844
 30
0.0
 11
259.009
 21
141.518
 31
0.0
  0
LINE
  8
0
 62
     0
 10
259.009
 20
141.518
 30
0.0
 11
259.201
 21
141.175
 31
0.0
  0
LINE
  8
0
 62
     0
 10
259.201
 20
141.175
 30
0.0
 11
259.365
 21
140.819
 31
0.0
  0
LINE
  8
0
 62
     0
 10
259.365
 20
140.819
 30
0.0
 11
259.501
 21
140.451
 31
0.0
  0
LINE
  8
0
 62
     0
 10
259.501
 20
140.451
 30
0.0
 11
259.607
 21
140.072
 31
0.0
  0
LINE
  8
0
 62
     0
 10
259.607
 20
140.072
 30
0.0
 11
259.684
 21
139.688
 31
0.0
  0
LINE
  8
0
 62
     0
 10
259.684
 20
139.688
 30
0.0
 11
259.73
 21
139.297
 31
0.0
  0
LINE
  8
0
 62
     0
 10
259.73
 20
139.297
 30
0.0
 11
259.745
 21
138.905
 31
0.0
  0
LINE
  8
0
 62
     0
 10
259.745
 20
138.905
 30
0.0
 11
259.746
 21
5.07806
 31
0.0
  0
LINE
  8
0
 62
     0
 10
259.746
 20
5.07806
 30
0.0
 11
259.73
 21
4.68672
 31
0.0
  0
LINE
  8
0
 62
     0
 10
259.73
 20
4.68672
 30
0.0
 11
259.684
 21
4.29673
 31
0.0
  0
LINE
  8
0
 62
     0
 10
259.684
 20
4.29673
 30
0.0
 11
259.607
 21
3.91223
 31
0.0
  0
LINE
  8
0
 62
     0
 10
259.607
 20
3.91223
 30
0.0
 11
259.501
 21
3.53328
 31
0.0
  0
LINE
  8
0
 62
     0
 10
259.501
 20
3.53328
 30
0.0
 11
259.365
 21
3.16536
 31
0.0
  0
LINE
  8
0
 62
     0
 10
259.365
 20
3.16536
 30
0.0
 11
259.201
 21
2.80982
 31
0.0
  0
LINE
  8
0
 62
     0
 10
259.201
 20
2.80982
 30
0.0
 11
259.009
 21
2.46669
 31
0.0
  0
LINE
  8
0
 62
     0
 10
259.009
 20
2.46669
 30
0.0
 11
258.79
 21
2.14009
 31
0.0
  0
LINE
  8
0
 62
     0
 10
258.79
 20
2.14009
 30
0.0
 11
258.548
 21
1.83141
 31
0.0
  0
LINE
  8
0
 62
     0
 10
258.548
 20
1.83141
 30
0.0
 11
258.28
 21
1.5434
 31
0.0
  0
LINE
  8
0
 62
     0
 10
258.28
 20
1.5434
 30
0.0
 11
257.992
 21
1.27606
 31
0.0
  0
LINE
  8
0
 62
     0
 10
257.992
 20
1.27606
 30
0.0
 11
257.683
 21
1.03353
 31
0.0
  0
LINE
  8
0
 62
     0
 10
257.683
 20
1.03353
 30
0.0
 11
257.358
 21
0.815799
 31
0.0
  0
LINE
  8
0
 62
     0
 10
257.358
 20
0.815799
 30
0.0
 11
257.015
 21
0.624251
 31
0.0
  0
LINE
  8
0
 62
     0
 10
257.015
 20
0.624251
 30
0.0
 11
256.658
 21
0.460266
 31
0.0
  0
LINE
  8
0
 62
     0
 10
256.658
 20
0.460266
 30
0.0
 11
256.29
 21
0.323839
 31
0.0
  0
LINE
  8
0
 62
     0
 10
256.29
 20
0.323839
 30
0.0
 11
255.911
 21
0.21773
 31
0.0
  0
LINE
  8
0
 62
     0
 10
255.911
 20
0.21773
 30
0.0
 11
255.528
 21
0.14056
 31
0.0
  0
LINE
  8
0
 62
     0
 10
255.528
 20
0.14056
 30
0.0
 11
255.138
 21
0.0950846
 31
0.0
  0
LINE
  8
0
 62
     0
 10
255.138
 20
0.0950846
 30
0.0
 11
254.745
 21
0.0785481
 31
0.0
  0
LINE
  8
0
 62
     0
 10
254.745
 20
0.0785481
 30
0.0
 11
5.0946
 21
0.0785481
 31
0.0
  0
LINE
  8
0
 62
     0
 10
5.0946
 20
0.0785481
 30
0.0
 11
4.70186
 21
0.0950846
 31
0.0
  0
LINE
  8
0
 62
     0
 10
4.70186
 20
0.0950846
 30
0.0
 11
4.3119
 21
0.14056
 31
0.0
  0
LINE
  8
0
 62
     0
 10
4.3119
 20
0.14056
 30
0.0
 11
3.9274
 21
0.21773
 31
0.0
  0
LINE
  8
0
 62
     0
 10
3.9274
 20
0.21773
 30
0.0
 11
3.54845
 21
0.323839
 31
0.0
  0
LINE
  8
0
 62
     0
 10
3.54845
 20
0.323839
 30
0.0
 11
3.18051
 21
0.460266
 31
0.0
  0
LINE
  8
0
 62
     0
 10
3.18051
 20
0.460266
 30
0.0
 11
2.82498
 21
0.624251
 31
0.0
  0
LINE
  8
0
 62
     0
 10
2.82498
 20
0.624251
 30
0.0
 11
2.48185
 21
0.815799
 31
0.0
  0
LINE
  8
0
 62
     0
 10
2.48185
 20
0.815799
 30
0.0
 11
2.15525
 21
1.03353
 31
0.0
  0
LINE
  8
0
 62
     0
 10
2.15525
 20
1.03353
 30
0.0
 11
1.84657
 21
1.27606
 31
0.0
  0
LINE
  8
0
 62
     0
 10
1.84657
 20
1.27606
 30
0.0
 11
1.55856
 21
1.5434
 31
0.0
  0
LINE
  8
0
 62
     0
 10
1.55856
 20
1.5434
 30
0.0
 11
1.29122
 21
1.83141
 31
0.0
  0
LINE
  8
0
 62
     0
 10
1.29122
 20
1.83141
 30
0.0
 11
1.04869
 21
2.14009
 31
0.0
  0
LINE
  8
0
 62
     0
 10
1.04869
 20
2.14009
 30
0.0
 11
0.830957
 21
2.46669
 31
0.0
  0
LINE
  8
0
 62
     0
 10
0.830957
 20
2.46669
 30
0.0
 11
0.63941
 21
2.80982
 31
0.0
  0
LINE
  8
0
 62
     0
 10
0.63941
 20
2.80982
 30
0.0
 11
0.475424
 21
3.16536
 31
0.0
  0
LINE
  8
0
 62
     0
 10
0.475424
 20
3.16536
 30
0.0
 11
0.338998
 21
3.53328
 31
0.0
  0
LINE
  8
0
 62
     0
 10
0.338998
 20
3.53328
 30
0.0
 11
0.232888
 21
3.91223
 31
0.0
  0
LINE
  8
0
 62
     0
 10
0.232888
 20
3.91223
 30
0.0
 11
0.155718
 21
4.29673
 31
0.0
  0
LINE
  8
0
 62
     0
 10
0.155718
 20
4.29673
 30
0.0
 11
0.110243
 21
4.68672
 31
0.0
  0
LINE
  8
0
 62
     0
 10
0.110243
 20
4.68672
 30
0.0
 11
0.0937066
 21
5.07806
 31
0.0
  0
LINE
  8
0
 62
     0
 10
0.0937066
 20
5.07806
 30
0.0
 11
0.0950846
 21
138.905
 31
0.0
  0
LINE
  8
0
 62
     0
 10
0.0950846
 20
138.905
 30
0.0
 11
0.110243
 21
139.297
 31
0.0
  0
LINE
  8
0
 62
     0
 10
0.110243
 20
139.297
 30
0.0
 11
0.155718
 21
139.688
 31
0.0
  0
LINE
  8
0
 62
     0
 10
0.155718
 20
139.688
 30
0.0
 11
0.232888
 21
140.072
 31
0.0
  0
LINE
  8
0
 62
     0
 10
0.232888
 20
140.072
 30
0.0
 11
0.338998
 21
140.451
 31
0.0
  0
LINE
  8
0
 62
     0
 10
0.338998
 20
140.451
 30
0.0
 11
0.475424
 21
140.819
 31
0.0
  0
LINE
  8
0
 62
     0
 10
0.475424
 20
140.819
 30
0.0
 11
0.63941
 21
141.175
 31
0.0
  0
LINE
  8
0
 62
     0
 10
0.63941
 20
141.175
 30
0.0
 11
0.830957
 21
141.518
 31
0.0
  0
LINE
  8
0
 62
     0
 10
0.830957
 20
141.518
 30
0.0
 11
1.04869
 21
141.844
 31
0.0
  0
LINE
  8
0
 62
     0
 10
1.04869
 20
141.844
 30
0.0
 11
1.29122
 21
142.153
 31
0.0
  0
LINE
  8
0
 62
     0
 10
1.29122
 20
142.153
 30
0.0
 11
1.55856
 21
142.441
 31
0.0
  0
LINE
  8
0
 62
     0
 10
1.55856
 20
142.441
 30
0.0
 11
1.84657
 21
142.708
 31
0.0
  0
LINE
  8
0
 62
     0
 10
1.84657
 20
142.708
 30
0.0
 11
2.15525
 21
142.951
 31
0.0
  0
LINE
  8
0
 62
     0
 10
2.15525
 20
142.951
 30
0.0
 11
2.48185
 21
143.169
 31
0.0
  0
LINE
  8
0
 62
     0
 10
2.48185
 20
143.169
 30
0.0
 11
2.82498
 21
143.36
 31
0.0
  0
LINE
  8
0
 62
     0
 10
2.82498
 20
143.36
 30
0.0
 11
3.18051
 21
143.524
 31
0.0
  0
LINE
  8
0
 62
     0
 10
3.18051
 20
143.524
 30
0.0
 11
3.54845
 21
143.661
 31
0.0
  0
LINE
  8
0
 62
     0
 10
3.54845
 20
143.661
 30
0.0
 11
3.9274
 21
143.766
 31
0.0
  0
LINE
  8
0
 62
     0
 10
3.9274
 20
143.766
 30
0.0
 11
4.3119
 21
143.844
 31
0.0
  0
LINE
  8
0
 62
     0
 10
4.3119
 20
143.844
 30
0.0
 11
4.70186
 21
143.889
 31
0.0
  0
LINE
  8
0
 62
     0
 10
4.70186
 20
143.889
 30
0.0
 11
5.0946
 21
143.906
 31
0.0
  0
LINE
  8
0
 62
     0
 10
5.0946
 20
143.906
 30
0.0
 11
254.745
 21
143.904
 31
0.0
  0
LINE
  8
0
 62
     0
 10
4.75424
 20
6.12539
 30
0.0
 11
4.44832
 21
5.96829
 31
0.0
  0
LINE
  8
0
 62
     0
 10
4.44832
 20
5.96829
 30
0.0
 11
4.20441
 21
5.72576
 31
0.0
  0
LINE
  8
0
 62
     0
 10
4.20441
 20
5.72576
 30
0.0
 11
4.04731
 21
5.41845
 31
0.0
  0
LINE
  8
0
 62
     0
 10
4.04731
 20
5.41845
 30
0.0
 11
3.99355
 21
5.07806
 31
0.0
  0
LINE
  8
0
 62
     0
 10
3.99355
 20
5.07806
 30
0.0
 11
4.04731
 21
4.73908
 31
0.0
  0
LINE
  8
0
 62
     0
 10
4.04731
 20
4.73908
 30
0.0
 11
4.20441
 21
4.43315
 31
0.0
  0
LINE
  8
0
 62
     0
 10
4.20441
 20
4.43315
 30
0.0
 11
4.44832
 21
4.18924
 31
0.0
  0
LINE
  8
0
 62
     0
 10
4.44832
 20
4.18924
 30
0.0
 11
4.75424
 21
4.03214
 31
0.0
  0
LINE
  8
0
 62
     0
 10
4.75424
 20
4.03214
 30
0.0
 11
5.0946
 21
3.97838
 31
0.0
  0
LINE
  8
0
 62
     0
 10
5.0946
 20
3.97838
 30
0.0
 11
5.43359
 21
4.03214
 31
0.0
  0
LINE
  8
0
 62
     0
 10
5.43359
 20
4.03214
 30
0.0
 11
5.74089
 21
4.18924
 31
0.0
  0
LINE
  8
0
 62
     0
 10
5.74089
 20
4.18924
 30
0.0
 11
5.98343
 21
4.43315
 31
0.0
  0
LINE
  8
0
 62
     0
 10
5.98343
 20
4.43315
 30
0.0
 11
6.14056
 21
4.73908
 31
0.0
  0
LINE
  8
0
 62
     0
 10
6.14056
 20
4.73908
 30
0.0
 11
6.19428
 21
5.07806
 31
0.0
  0
LINE
  8
0
 62
     0
 10
6.19428
 20
5.07806
 30
0.0
 11
6.14056
 21
5.41845
 31
0.0
  0
LINE
  8
0
 62
     0
 10
6.14056
 20
5.41845
 30
0.0
 11
5.98343
 21
5.72576
 31
0.0
  0
LINE
  8
0
 62
     0
 10
5.98343
 20
5.72576
 30
0.0
 11
5.74089
 21
5.96829
 31
0.0
  0
LINE
  8
0
 62
     0
 10
5.74089
 20
5.96829
 30
0.0
 11
5.43359
 21
6.12539
 31
0.0
  0
LINE
  8
0
 62
     0
 10
5.43359
 20
6.12539
 30
0.0
 11
5.0946
 21
6.17911
 31
0.0
  0
LINE
  8
0
 62
     0
 10
5.0946
 20
6.17911
 30
0.0
 11
4.75424
 21
6.12539
 31
0.0
  0
LINE
  8
0
 62
     0
 10
129.58
 20
6.12539
 30
0.0
 11
129.272
 21
5.96829
 31
0.0
  0
LINE
  8
0
 62
     0
 10
129.272
 20
5.96829
 30
0.0
 11
129.03
 21
5.72576
 31
0.0
  0
LINE
  8
0
 62
     0
 10
129.03
 20
5.72576
 30
0.0
 11
128.874
 21
5.41845
 31
0.0
  0
LINE
  8
0
 62
     0
 10
128.874
 20
5.41845
 30
0.0
 11
128.82
 21
5.07806
 31
0.0
  0
LINE
  8
0
 62
     0
 10
128.82
 20
5.07806
 30
0.0
 11
128.874
 21
4.73908
 31
0.0
  0
LINE
  8
0
 62
     0
 10
128.874
 20
4.73908
 30
0.0
 11
129.03
 21
4.43315
 31
0.0
  0
LINE
  8
0
 62
     0
 10
129.03
 20
4.43315
 30
0.0
 11
129.272
 21
4.18924
 31
0.0
  0
LINE
  8
0
 62
     0
 10
129.272
 20
4.18924
 30
0.0
 11
129.58
 21
4.03214
 31
0.0
  0
LINE
  8
0
 62
     0
 10
129.58
 20
4.03214
 30
0.0
 11
129.92
 21
3.97838
 31
0.0
  0
LINE
  8
0
 62
     0
 10
129.92
 20
3.97838
 30
0.0
 11
130.259
 21
4.03214
 31
0.0
  0
LINE
  8
0
 62
     0
 10
130.259
 20
4.03214
 30
0.0
 11
130.566
 21
4.18924
 31
0.0
  0
LINE
  8
0
 62
     0
 10
130.566
 20
4.18924
 30
0.0
 11
130.81
 21
4.43315
 31
0.0
  0
LINE
  8
0
 62
     0
 10
130.81
 20
4.43315
 30
0.0
 11
130.966
 21
4.73908
 31
0.0
  0
LINE
  8
0
 62
     0
 10
130.966
 20
4.73908
 30
0.0
 11
131.02
 21
5.07806
 31
0.0
  0
LINE
  8
0
 62
     0
 10
131.02
 20
5.07806
 30
0.0
 11
130.966
 21
5.41845
 31
0.0
  0
LINE
  8
0
 62
     0
 10
130.966
 20
5.41845
 30
0.0
 11
130.81
 21
5.72576
 31
0.0
  0
LINE
  8
0
 62
     0
 10
130.81
 20
5.72576
 30
0.0
 11
130.566
 21
5.96829
 31
0.0
  0
LINE
  8
0
 62
     0
 10
130.566
 20
5.96829
 30
0.0
 11
130.259
 21
6.12539
 31
0.0
  0
LINE
  8
0
 62
     0
 10
130.259
 20
6.12539
 30
0.0
 11
129.92
 21
6.17911
 31
0.0
  0
LINE
  8
0
 62
     0
 10
129.92
 20
6.17911
 30
0.0
 11
129.58
 21
6.12539
 31
0.0
  0
LINE
  8
0
 62
     0
 10
254.405
 20
6.12539
 30
0.0
 11
254.099
 21
5.96829
 31
0.0
  0
LINE
  8
0
 62
     0
 10
254.099
 20
5.96829
 30
0.0
 11
253.855
 21
5.72576
 31
0.0
  0
LINE
  8
0
 62
     0
 10
253.855
 20
5.72576
 30
0.0
 11
253.698
 21
5.41845
 31
0.0
  0
LINE
  8
0
 62
     0
 10
253.698
 20
5.41845
 30
0.0
 11
253.646
 21
5.07806
 31
0.0
  0
LINE
  8
0
 62
     0
 10
253.646
 20
5.07806
 30
0.0
 11
253.698
 21
4.73908
 31
0.0
  0
LINE
  8
0
 62
     0
 10
253.698
 20
4.73908
 30
0.0
 11
253.855
 21
4.43315
 31
0.0
  0
LINE
  8
0
 62
     0
 10
253.855
 20
4.43315
 30
0.0
 11
254.099
 21
4.18924
 31
0.0
  0
LINE
  8
0
 62
     0
 10
254.099
 20
4.18924
 30
0.0
 11
254.405
 21
4.03214
 31
0.0
  0
LINE
  8
0
 62
     0
 10
254.405
 20
4.03214
 30
0.0
 11
254.745
 21
3.97838
 31
0.0
  0
LINE
  8
0
 62
     0
 10
254.745
 20
3.97838
 30
0.0
 11
255.084
 21
4.03214
 31
0.0
  0
LINE
  8
0
 62
     0
 10
255.084
 20
4.03214
 30
0.0
 11
255.392
 21
4.18924
 31
0.0
  0
LINE
  8
0
 62
     0
 10
255.392
 20
4.18924
 30
0.0
 11
255.634
 21
4.43315
 31
0.0
  0
LINE
  8
0
 62
     0
 10
255.634
 20
4.43315
 30
0.0
 11
255.791
 21
4.73908
 31
0.0
  0
LINE
  8
0
 62
     0
 10
255.791
 20
4.73908
 30
0.0
 11
255.845
 21
5.07806
 31
0.0
  0
LINE
  8
0
 62
     0
 10
255.845
 20
5.07806
 30
0.0
 11
255.791
 21
5.41845
 31
0.0
  0
LINE
  8
0
 62
     0
 10
255.791
 20
5.41845
 30
0.0
 11
255.634
 21
5.72576
 31
0.0
  0
LINE
  8
0
 62
     0
 10
255.634
 20
5.72576
 30
0.0
 11
255.392
 21
5.96829
 31
0.0
  0
LINE
  8
0
 62
     0
 10
255.392
 20
5.96829
 30
0.0
 11
255.084
 21
6.12539
 31
0.0
  0
LINE
  8
0
 62
     0
 10
255.084
 20
6.12539
 30
0.0
 11
254.745
 21
6.17911
 31
0.0
  0
LINE
  8
0
 62
     0
 10
254.745
 20
6.17911
 30
0.0
 11
254.405
 21
6.12539
 31
0.0
  0
LINE
  8
0
 62
     0
 10
4.75424
 20
139.952
 30
0.0
 11
4.44832
 21
139.795
 31
0.0
  0
LINE
  8
0
 62
     0
 10
4.44832
 20
139.795
 30
0.0
 11
4.20441
 21
139.551
 31
0.0
  0
LINE
  8
0
 62
     0
 10
4.20441
 20
139.551
 30
0.0
 11
4.04731
 21
139.245
 31
0.0
  0
LINE
  8
0
 62
     0
 10
4.04731
 20
139.245
 30
0.0
 11
3.99355
 21
138.905
 31
0.0
  0
LINE
  8
0
 62
     0
 10
3.99355
 20
138.905
 30
0.0
 11
4.04731
 21
138.566
 31
0.0
  0
LINE
  8
0
 62
     0
 10
4.04731
 20
138.566
 30
0.0
 11
4.20441
 21
138.259
 31
0.0
  0
LINE
  8
0
 62
     0
 10
4.20441
 20
138.259
 30
0.0
 11
4.44832
 21
138.016
 31
0.0
  0
LINE
  8
0
 62
     0
 10
4.44832
 20
138.016
 30
0.0
 11
4.75424
 21
137.859
 31
0.0
  0
LINE
  8
0
 62
     0
 10
4.75424
 20
137.859
 30
0.0
 11
5.0946
 21
137.805
 31
0.0
  0
LINE
  8
0
 62
     0
 10
5.0946
 20
137.805
 30
0.0
 11
5.43359
 21
137.859
 31
0.0
  0
LINE
  8
0
 62
     0
 10
5.43359
 20
137.859
 30
0.0
 11
5.74089
 21
138.016
 31
0.0
  0
LINE
  8
0
 62
     0
 10
5.74089
 20
138.016
 30
0.0
 11
5.98343
 21
138.259
 31
0.0
  0
LINE
  8
0
 62
     0
 10
5.98343
 20
138.259
 30
0.0
 11
6.14056
 21
138.566
 31
0.0
  0
LINE
  8
0
 62
     0
 10
6.14056
 20
138.566
 30
0.0
 11
6.19428
 21
138.905
 31
0.0
  0
LINE
  8
0
 62
     0
 10
6.19428
 20
138.905
 30
0.0
 11
6.14056
 21
139.245
 31
0.0
  0
LINE
  8
0
 62
     0
 10
6.14056
 20
139.245
 30
0.0
 11
5.98343
 21
139.551
 31
0.0
  0
LINE
  8
0
 62
     0
 10
5.98343
 20
139.551
 30
0.0
 11
5.74089
 21
139.795
 31
0.0
  0
LINE
  8
0
 62
     0
 10
5.74089
 20
139.795
 30
0.0
 11
5.43359
 21
139.952
 31
0.0
  0
LINE
  8
0
 62
     0
 10
5.43359
 20
139.952
 30
0.0
 11
5.0946
 21
140.004
 31
0.0
  0
LINE
  8
0
 62
     0
 10
5.0946
 20
140.004
 30
0.0
 11
4.75424
 21
139.952
 31
0.0
  0
LINE
  8
0
 62
     0
 10
129.58
 20
139.952
 30
0.0
 11
129.272
 21
139.795
 31
0.0
  0
LINE
  8
0
 62
     0
 10
129.272
 20
139.795
 30
0.0
 11
129.03
 21
139.551
 31
0.0
  0
LINE
  8
0
 62
     0
 10
129.03
 20
139.551
 30
0.0
 11
128.874
 21
139.245
 31
0.0
  0
LINE
  8
0
 62
     0
 10
128.874
 20
139.245
 30
0.0
 11
128.82
 21
138.905
 31
0.0
  0
LINE
  8
0
 62
     0
 10
128.82
 20
138.905
 30
0.0
 11
128.874
 21
138.566
 31
0.0
  0
LINE
  8
0
 62
     0
 10
128.874
 20
138.566
 30
0.0
 11
129.03
 21
138.259
 31
0.0
  0
LINE
  8
0
 62
     0
 10
129.03
 20
138.259
 30
0.0
 11
129.272
 21
138.016
 31
0.0
  0
LINE
  8
0
 62
     0
 10
129.272
 20
138.016
 30
0.0
 11
129.58
 21
137.859
 31
0.0
  0
LINE
  8
0
 62
     0
 10
129.58
 20
137.859
 30
0.0
 11
129.92
 21
137.805
 31
0.0
  0
LINE
  8
0
 62
     0
 10
129.92
 20
137.805
 30
0.0
 11
130.259
 21
137.859
 31
0.0
  0
LINE
  8
0
 62
     0
 10
130.259
 20
137.859
 30
0.0
 11
130.566
 21
138.016
 31
0.0
  0
LINE
  8
0
 62
     0
 10
130.566
 20
138.016
 30
0.0
 11
130.81
 21
138.259
 31
0.0
  0
LINE
  8
0
 62
     0
 10
130.81
 20
138.259
 30
0.0
 11
130.966
 21
138.566
 31
0.0
  0
LINE
  8
0
 62
     0
 10
130.966
 20
138.566
 30
0.0
 11
131.02
 21
138.905
 31
0.0
  0
LINE
  8
0
 62
     0
 10
131.02
 20
138.905
 30
0.0
 11
130.966
 21
139.245
 31
0.0
  0
LINE
  8
0
 62
     0
 10
130.966
 20
139.245
 30
0.0
 11
130.81
 21
139.551
 31
0.0
  0
LINE
  8
0
 62
     0
 10
130.81
 20
139.551
 30
0.0
 11
130.566
 21
139.795
 31
0.0
  0
LINE
  8
0
 62
     0
 10
130.566
 20
139.795
 30
0.0
 11
130.259
 21
139.952
 31
0.0
  0
LINE
  8
0
 62
     0
 10
130.259
 20
139.952
 30
0.0
 11
129.92
 21
140.004
 31
0.0
  0
LINE
  8
0
 62
     0
 10
129.92
 20
140.004
 30
0.0
 11
129.58
 21
139.952
 31
0.0
  0
LINE
  8
0
 62
     0
 10
254.405
 20
139.952
 30
0.0
 11
254.099
 21
139.795
 31
0.0
  0
LINE
  8
0
 62
     0
 10
254.099
 20
139.795
 30
0.0
 11
253.855
 21
139.551
 31
0.0
  0
LINE
  8
0
 62
     0
 10
253.855
 20
139.551
 30
0.0
 11
253.698
 21
139.245
 31
0.0
  0
LINE
  8
0
 62
     0
 10
253.698
 20
139.245
 30
0.0
 11
253.646
 21
138.905
 31
0.0
  0
LINE
  8
0
 62
     0
 10
253.646
 20
138.905
 30
0.0
 11
253.698
 21
138.566
 31
0.0
  0
LINE
  8
0
 62
     0
 10
253.698
 20
138.566
 30
0.0
 11
253.855
 21
138.259
 31
0.0
  0
LINE
  8
0
 62
     0
 10
253.855
 20
138.259
 30
0.0
 11
254.099
 21
138.016
 31
0.0
  0
LINE
  8
0
 62
     0
 10
254.099
 20
138.016
 30
0.0
 11
254.405
 21
137.859
 31
0.0
  0
LINE
  8
0
 62
     0
 10
254.405
 20
137.859
 30
0.0
 11
254.745
 21
137.805
 31
0.0
  0
LINE
  8
0
 62
     0
 10
254.745
 20
137.805
 30
0.0
 11
255.084
 21
137.859
 31
0.0
  0
LINE
  8
0
 62
     0
 10
255.084
 20
137.859
 30
0.0
 11
255.392
 21
138.016
 31
0.0
  0
LINE
  8
0
 62
     0
 10
255.392
 20
138.016
 30
0.0
 11
255.634
 21
138.259
 31
0.0
  0
LINE
  8
0
 62
     0
 10
255.634
 20
138.259
 30
0.0
 11
255.791
 21
138.566
 31
0.0
  0
LINE
  8
0
 62
     0
 10
255.791
 20
138.566
 30
0.0
 11
255.845
 21
138.905
 31
0.0
  0
LINE
  8
0
 62
     0
 10
255.845
 20
138.905
 30
0.0
 11
255.791
 21
139.245
 31
0.0
  0
LINE
  8
0
 62
     0
 10
255.791
 20
139.245
 30
0.0
 11
255.634
 21
139.551
 31
0.0
  0
LINE
  8
0
 62
     0
 10
255.634
 20
139.551
 30
0.0
 11
255.392
 21
139.795
 31
0.0
  0
LINE
  8
0
 62
     0
 10
255.392
 20
139.795
 30
0.0
 11
255.084
 21
139.952
 31
0.0
  0
LINE
  8
0
 62
     0
 10
255.084
 20
139.952
 30
0.0
 11
254.745
 21
140.004
 31
0.0
  0
LINE
  8
0
 62
     0
 10
254.745
 20
140.004
 30
0.0
 11
254.405
 21
139.952
 31
0.0
  0
ENDSEC
  0
EOF
